<?xml version="1.0" encoding="UTF-8" standalone="no"?>
<svg
   xmlns:dc="http://purl.org/dc/elements/1.1/"
   xmlns:cc="http://creativecommons.org/ns#"
   xmlns:rdf="http://www.w3.org/1999/02/22-rdf-syntax-ns#"
   xmlns:svg="http://www.w3.org/2000/svg"
   xmlns="http://www.w3.org/2000/svg"
   xmlns:sodipodi="http://sodipodi.sourceforge.net/DTD/sodipodi-0.dtd"
   xmlns:inkscape="http://www.inkscape.org/namespaces/inkscape"
   version="1.0"
   width="616.5094"
   height="321.41898"
   id="svg2"
   sodipodi:docname="AK_0.svg"
   inkscape:version="0.92.2 5c3e80d, 2017-08-06"
   fill="#000000">
  <metadata
     id="metadata43">
    <rdf:RDF>
      <cc:Work
         rdf:about="">
        <dc:format>image/svg+xml</dc:format>
        <dc:type
           rdf:resource="http://purl.org/dc/dcmitype/StillImage" />
        <dc:title></dc:title>
      </cc:Work>
    </rdf:RDF>
  </metadata>
  <defs
     id="defs41" />
  <sodipodi:namedview
     pagecolor="#ffffff"
     bordercolor="#666666"
     borderopacity="1"
     objecttolerance="10"
     gridtolerance="10"
     guidetolerance="10"
     inkscape:pageopacity="0"
     inkscape:pageshadow="2"
     inkscape:window-width="640"
     inkscape:window-height="480"
     id="namedview39"
     showgrid="false"
     fit-margin-top="0"
     fit-margin-left="0"
     fit-margin-right="0"
     fit-margin-bottom="0"
     inkscape:zoom="0.31278126"
     inkscape:cx="1419.5173"
     inkscape:cy="-31.594063"
     inkscape:window-x="142"
     inkscape:window-y="68"
     inkscape:window-maximized="0"
     inkscape:current-layer="svg2" />
  <path
     d="m 367.87794,0 c -2.66587,3.3544 -5.6549,7.4189 -10.02197,8.2983 -1.8351,-0.2712 -4.647,0.4217 -5.89875,-0.4253 -0.1443,-4.0536 -6.37231,2.4636 -8.17963,3.3825 -2.26437,1.976 -4.62415,3.785 -7.62353,4.4255 -1.88077,1.3181 -2.73751,-3.4526 -4.36441,-0.5627 -3.29498,2.3703 -5.18718,6.1032 -8.84938,8.0129 0.81037,2.8116 -2.11078,6.961 -4.27696,9.1629 -2.65126,2.167 -5.7037,4.5874 -9.33245,3.9103 -2.84299,0.2304 -5.55209,-0.2518 -8.14765,-1.4315 -4.95562,-2.9431 -2.84477,3.4709 -5.09167,5.9151 -0.36174,2.2512 -6.49117,1.239 -2.45678,3.9099 2.405,1.5683 2.44057,5.7679 5.62614,6.0879 2.81198,2.4106 3.85736,6.678 6.49582,9.4078 1.81693,1.5477 2.25026,3.5984 2.01361,5.8929 0.36397,1.9034 -0.61246,4.5868 0.71392,5.9179 3.88037,2.9754 8.70625,3.3394 13.23661,4.5107 0.36587,0.8573 -2.19488,5.4432 -2.58478,3.351 -0.61726,-2.2128 -1.49008,-4.0785 -4.11915,-3.2859 -1.28816,0.7052 0.30306,5.6824 3.10333,4.8587 2.19509,-0.6482 4.57449,5.9522 3.47387,5.305 -2.45083,-4.394 -4.26453,0.4849 -2.25812,1.6359 1.98681,-0.5537 4.33017,0.7574 4.69211,2.4836 -0.83082,2.8269 -1.7273,-2.5235 -3.824,0.1251 -1.33881,0.9678 -2.45358,4.6145 -4.06769,2.1831 -1.39851,-0.2405 -3.41586,-0.2252 -5.3107,-1.437 -2.28535,-0.2446 -3.31715,-0.1393 -5.11397,-1.2725 -2.88467,0.7993 -2.5334,-1.1293 -1.9167,-3.2931 -0.46687,-2.2956 2.08186,-3.9328 2.40101,-5.3768 -1.59684,-1.8212 -3.66321,-2.1127 -5.94729,-1.6549 -3.91167,0.303 -7.93602,0.073 -11.52956,1.9058 -1.8105,1.2019 0.11058,3.4375 1.70852,4.1342 -2.11338,1.0466 -3.90723,-1.9053 -5.92753,-2.6561 -5.13586,1.7763 -10.06938,4.2045 -15.42184,5.3358 -2.15504,1.8426 -0.55454,3.4074 1.01945,4.967 2.40227,3.2246 6.43516,4.2761 9.65221,6.4855 -0.94703,2.1839 -3.56572,1.7195 -4.83695,2.2996 0.52443,2.4878 2.88952,4.4954 1.71354,7.179 -1.81723,4.227 4.02403,5.336 6.53331,7.2652 2.31818,2.2307 4.13514,3.3129 7.10684,1.7437 2.80624,-1.3838 5.69638,0.3739 8.54908,0.7301 1.55266,2.2509 2.15489,5.2963 4.47513,2.0618 -0.42971,2.581 0.61748,5.4687 3.00051,1.425 2.21755,-2.0131 4.77402,-4.1112 7.9463,-3.6994 2.30121,1.1331 3.87114,-2.8124 5.16361,-1.8235 1.29994,1.7682 2.58266,5.5514 -0.6732,5.6955 -1.36232,1.6469 -4.85687,-1.8542 -4.25192,1.1363 -0.46588,2.1943 2.42702,1.514 2.61007,4.0684 1.37305,2.7168 0.43669,6.0079 0.8264,8.9694 0.49623,2.3327 -2.43341,3.2526 -3.57619,4.9166 -1.32556,2.0877 -3.86762,0.2129 -5.8262,0.2833 -2.13607,0.5172 -2.68424,-4.2839 -4.21448,-1.1743 -2.51968,2.4746 -6.66714,7.0068 -9.94824,6.3378 -1.19342,-2.5112 -4.68345,-7.1805 -7.83735,-5.2165 -2.13339,0.7009 -3.77627,1.8792 -4.43615,4.1062 -2.31773,5.0008 -5.96848,8.6697 -10.2127,12.1061 -1.16024,1.5775 -4.22582,2.5388 -3.03974,4.8751 1.46107,3.023 -1.79602,1.2237 -3.43662,1.0672 -1.13328,0.4241 1.84993,4.645 -1.31772,3.5382 -2.2369,0.322 -0.8048,4.1579 1.73577,2.7764 2.44277,2.4967 -2.63407,0.1502 -1.30142,3.1234 -0.14544,2.1954 2.22266,2.0733 1.61813,5.0289 -0.47483,2.8797 4.02505,-0.5883 4.19466,1.9547 1.13774,1.9915 -3.42746,-0.025 -1.49286,3.0611 0.25078,2.0776 1.47009,4.6815 -1.52188,4.9867 -2.41073,0.019 -3.11702,3.5323 -0.19521,2.7329 4.27068,-0.4262 -2.63499,1.0471 1.15625,3.4708 1.9973,2.7111 5.10053,5.5297 5.26409,9.0468 -0.84046,2.5971 1.39598,3.2014 3.35942,3.9952 4.43514,0.4246 8.90357,-0.5418 13.21202,-1.6115 0.57167,-5.5059 2.5822,0.5837 2.92463,3.1791 0.60803,2.4652 1.18736,4.9374 1.78217,7.4059 -2.25754,0.6577 -2.15703,2.8972 -3.40539,3.774 -1.69481,1.6343 1.91018,5.8582 0.86762,8.7 0.43022,1.9335 -4.5641,2.1045 -2.15297,3.9687 2.66644,4.2171 6.25264,-2.3711 9.57758,-2.3708 2.82879,1.7887 1.63699,-1.1293 4.142,-1.6747 2.7548,-1.7796 3.27863,-1.2688 2.64627,1.0594 1.64094,1.2696 2.72309,3.9551 5.15661,3.3317 1.3938,-2.8126 1.26361,-2.1244 1.80084,0 2.11292,0.027 1.61057,3.5716 2.54583,5.1659 0.20866,2.116 1.35773,4.3409 3.68804,3.7463 2.4301,-0.9455 1.06339,-3.1999 0.74805,-5.0847 -0.0561,-1.1479 1.90874,-5.9758 2.71312,-2.4394 1.18071,6.8305 6.69734,3.911 11.12288,2.1632 1.21084,-1.0645 5.28468,-1.3025 3.39232,0.7452 -2.15441,2.2823 -5.45727,3.7664 -6.06146,7.1127 -0.90514,2.1391 2.23447,3.1728 -1.00911,4.0684 -0.9482,3.3252 -1.40892,6.9372 -2.64618,10.0924 -3.5137,3.3775 -8.13814,5.422 -11.0239,9.4806 -0.664,1.551 0.26753,5.279 -2.42754,3.4878 -0.60356,-2.6332 -3.86176,1.6956 -5.60652,1.6014 -3.7563,0.8668 -6.58105,2.3849 -9.63573,4.5726 -2.83709,1.6144 -3.73922,4.768 -5.2349,7.4528 0.69927,0.9252 4.98437,3.1192 1.82144,2.668 -0.47065,-0.8786 -3.30444,-2.5739 -4.25076,-0.6931 -0.51631,2.1002 -2.68271,-2.9565 0.69409,-1.3892 0.87587,-2.8193 -2.44551,-1.9079 -4.2061,-2.3831 -2.93516,-0.8352 -5.74123,0.1026 -8.55526,0.9313 -4.8562,2.8242 -8.65475,7.3365 -13.76594,9.7809 -1.66692,-0.5236 -5.43742,0.4191 -3.45131,2.2956 1.76837,1.0967 3.15633,3.435 5.18402,3.6854 1.92346,-0.3797 4.21669,-0.076 5.92493,-0.851 1.56482,-3.5677 1.82887,1.7535 3.34309,-1.4293 1.61532,-2.5354 0.54333,3.7516 3.40205,1.7204 -1.46235,-2.4269 -2.40124,-4.0537 0.53648,-6.4098 -0.73057,-2.637 3.70838,-4.1016 3.72194,-2.7191 -2.79051,2.3237 -2.52046,5.8152 1.48387,4.8378 2.69468,-1.6772 6.78885,-1.4946 9.15859,-2.1934 0.0297,-1.918 3.60787,-0.3019 4.24009,-2.8796 1.28109,-1.3056 3.2456,0.4962 2.96553,-1.558 2.18456,3.1284 5.51418,-0.8628 8.52044,-0.052 2.13257,0.02 1.87635,-2.1109 4.74457,-0.9272 2.77023,0.7931 1.61207,-2.9583 4.14853,-4.1984 1.8779,-2.0998 -5.54499,-3.7845 0.73645,-3.9638 2.38326,-0.1783 5.86952,0.5455 3.91532,-2.8333 1.08791,-1.9309 1.4021,2.1901 4.04546,0.8172 -0.74245,-1.6663 1.30747,-4.0327 2.08227,-3.9038 0.0949,3.2282 4.23424,-1.1362 5.77018,-1.6489 2.40249,0.5714 3.82039,-0.5456 4.57612,-2.7981 1.52562,-1.5226 1.38712,-3.5498 1.1123,-4.973 1.29468,-1.9901 4.43998,0.7375 3.81141,-1.9462 2.26508,0.5294 3.57391,-0.4027 3.97546,-2.681 0.46803,-2.9437 4.12192,1.68 3.99131,-2.1946 3.03641,0.3511 1.89744,-2.7859 3.13978,-3.4535 1.69082,-0.507 5.52167,1.1261 5.55164,-1.0417 3.13681,0.5395 3.01352,-2.95 4.90399,-4.9152 1.34272,-1.016 -2.53032,-3.1174 1.34284,-2.3722 -1.05023,-3.2558 2.32877,-1.1821 3.60374,-2.7938 1.98709,-1.1569 2.30607,-3.2967 2.75153,-5.3617 -2.12762,-1.3329 -3.92704,-3.5789 -6.68027,-3.1702 -3.85201,0.5191 -0.17027,-4.123 0.25993,-6.0266 2.35638,0.4712 3.12814,-0.2488 3.08721,-2.4149 1.18382,-1.9204 2.99839,-2.2301 5.09117,-1.8693 2.25619,0.5496 1.42225,-3.5036 2.94931,-4.0449 2.09996,0.4568 2.39337,-2.4135 3.62175,-3.5789 -1.59308,-1.9541 0.29077,-3.1864 1.67002,-4.5115 2.2911,-0.9247 -0.3663,-4.417 2.03903,-4.837 1.66695,-0.8696 0.84551,-3.4149 3.75273,-3.4029 1.73576,-0.72 -0.39381,-4.087 2.67437,-3.9724 1.56143,-1.094 5.01212,-0.9445 4.33131,-3.5144 1.4572,-1.2309 3.83922,-2.1932 5.96863,-1.8643 3.58442,-1.1388 3.1911,2.2612 5.41732,4.1576 0.51559,0.81 -3.50807,3.1096 -3.99741,0.7396 -1.39245,-1.7335 -3.89593,-0.4502 -5.02429,1.0677 -1.77961,2.626 -7.59032,1.8678 -5.62612,6.0107 0.34485,2.0186 0.95664,4.0978 -0.90267,5.1169 0.65243,2.3716 -1.24,3.7426 -2.68221,5.2905 -1.42124,1.4038 -1.33284,3.8692 -1.50851,5.7048 1.17701,4.1244 4.56401,1.9174 6.96708,0.8038 -0.21045,3.4553 -3.48818,2.7214 -4.16563,4.4248 -2.55608,-0.7728 -5.47574,3.038 -4.54196,5.026 2.49598,2.0271 4.98555,0.7175 7.7966,0.2231 3.37589,0.626 4.21556,-3.6868 7.09274,-4.555 1.23305,-0.7049 0.64807,-2.8549 3.36201,-1.258 1.04814,-1.4896 0.96195,-4.893 3.51187,-3.8855 2.85773,0.8576 3.37337,-0.3059 2.33635,-2.8373 1.17663,-3.0402 9.41338,-0.6974 12.89459,-1.7144 2.09816,0.5667 5.23304,-0.1698 3.06696,-2.4522 -0.88112,-0.9199 -5.15187,-2.8628 -3.91415,-3.1226 2.28532,0.8595 3.26954,-1.9665 3.37107,-3.5546 -0.12179,-3.8357 -6.10258,1.1372 -3.67972,-1.5596 2.18971,-1.5458 6.46648,-4.1551 1.62984,-4.881 -3.63679,1.4657 -1.74336,-2.4314 10e-4,-3.8866 -0.0653,2.0257 -0.12295,3.9933 2.7986,3.1234 2.23314,1.4979 1.9735,-5.2091 2.37557,-2.4292 0.27771,3.3196 2.61863,0.1804 2.8518,-0.6942 3.71017,0.4788 5.89897,2.5826 4.57559,4.9888 0.50057,2.0417 5.1786,-1.6443 3.99102,0.9326 -1.07348,2.3616 2.81018,0.3886 2.93348,-0.2095 3.65451,1.0452 -1.92018,3.8064 2.31559,4.0271 1.94836,-0.7282 5.23498,4.8486 5.6178,1.7118 -0.55438,-3.2076 3.42727,-1.6367 2.08227,1.0428 2.65641,-0.4869 1.97299,2.3662 5.12054,1.3882 1.9663,0 2.91255,2.465 4.44491,3.5138 5.17568,-1.1726 10.2353,-3.7725 15.66545,-2.5856 2.54888,0.7611 6.06696,0.3149 8.12832,1.9682 3.03049,2.372 6.87241,2.9453 10.60983,2.6563 2.77659,-0.1222 5.01833,-3.2022 6.34184,-5.4206 0.59041,-0.288 0.81644,3.656 1.26359,4.9821 -2.10945,-0.1626 -2.34872,3.2958 -0.35931,3.6257 4.54551,2.3845 9.3672,4.2326 14.20294,5.836 3.54412,0.01 4.24909,4.9386 7.25087,6.3131 2.27235,1.6573 4.31013,3.8551 7.31108,3.9168 2.3121,-0.3784 3.32798,3.3561 5.18381,2.7472 2.05237,-0.9351 -2.32147,-3.169 1.64147,-2.3922 1.61187,0.4213 4.55926,-1.9083 2.89953,-3.3436 0.0477,-2.2407 -7.54986,-5.947 -3.5047,-5.6145 3.37158,-1.0818 3.78235,2.8393 4.82055,5.1427 0.37181,3.5477 4.38724,-1.997 5.87009,2.1236 1.01631,2.098 4.0379,0.012 3.05835,-2.0189 2.0151,2.3447 3.8833,6.2419 4.97205,9.5391 0.76597,2.9074 3.41968,5.3379 3.79898,8.2207 -0.24176,1.851 -1.09249,3.843 0.76981,5.1388 1.25899,2.6075 2.62842,-1.7877 3.94086,-2.5702 -0.003,-1.9956 1.53437,-3.1725 2.58486,-4.4089 -0.87962,-2.1049 -1.00688,-4.7538 -3.35071,-5.8037 -3.19413,-0.9724 2.12673,-3.4109 -0.63841,-4.5914 -3.10977,-3.2624 -0.99499,-3.0159 0.94738,-0.4218 1.09626,2.8358 3.48501,0.4512 3.97552,2.4895 -0.93905,1.7297 -1.06847,3.1065 0.91591,4.9032 1.48168,1.6446 2.66171,3.3459 1.38816,5.5093 2.07643,2.4614 6.71191,0.1621 7.87339,2.5064 -0.3358,3.1571 4.33859,1.9499 4.75039,4.543 3.64658,-0.9262 1.64524,1.5072 2.44829,3.5634 2.32596,1.3427 -1.28835,3.9033 -1.78345,2.6412 0.14626,-4.3672 -6.5513,0.3712 -2.4188,2.5852 1.34477,0.9595 4.38963,-2.982 2.58718,0.8968 -0.51285,1.8739 1.85253,3.3988 3.41809,1.9395 -0.36206,1.9884 2.32528,4.6266 2.6896,1.9082 2.56649,-1.6804 0.80839,3.6845 1.36383,5.4022 1.39089,2.3688 4.95036,1.708 4.12779,-1.9401 0.0445,-4.1321 0.411,-3.1216 1.07778,0.255 -0.48808,2.5511 0.25379,4.8108 0.32814,7.519 1.41555,2.3286 3.06975,1.216 3.49612,0.2174 -0.94518,3.6347 1.81254,4.5405 4.92029,5.5523 1.35215,-0.376 -0.18278,-5.2577 2.66488,-3.1333 0.20496,2.3021 0.95873,3.9013 3.56078,3.1333 2.58905,0.4538 0.86487,-3.384 1.34024,-5.0333 0.0288,-6.9832 -1.63606,-13.8615 -2.57925,-20.7547 -1.69475,-2.159 -5.53427,-3.7749 -8.10172,-4.6546 -1.66645,1.4811 -3.72977,-0.6603 -5.58559,-0.9076 -1.7767,-0.8811 -4.10357,-1.4339 -5.36804,-0.8081 -0.73183,-1.9779 -1.41765,-4.0269 -3.93485,-3.2404 -0.23661,-2.0311 0.14019,-4.8286 -2.73005,-3.5693 -2.03151,0.1917 1.43937,-3.4824 -1.49115,-4.1815 -5.74615,-6.1495 -12.02199,-11.9362 -16.92998,-18.7459 -2.47002,-3.3059 -6.81016,-4.1634 -9.8163,-6.1577 -0.92051,-1.861 -1.63697,-3.9298 -3.9106,-4.4145 -3.75344,-0.142 -6.01089,-2.7466 -5.46597,-6.5721 -1.95635,-1.1764 -3.91576,-2.3475 -5.87809,-3.5138 -2.04064,2.1749 -6.38362,3.2295 -7.24439,5.6835 2.02473,2.7519 -2.81555,1.8809 -1.24635,4.5023 0.54379,1.4741 0.67108,4.7888 -1.59582,4.3467 -1.86635,0.6887 -2.95566,3.1063 -4.54264,4.4466 -1.46508,1.9352 -1.82426,-2.8705 -2.77652,-3.8947 -1.2827,-2.277 -4.19086,-3.2436 -6.1564,-4.9702 -2.59799,-1.6265 -4.98536,-3.4752 -6.53552,-6.1764 -1.55161,-0.7007 -3.62354,-0.4996 -4.59009,-2.6294 -1.55387,-1.252 1.47287,-4.0362 -0.20392,-5.0446 -1.6561,-1.1472 -3.81652,0.3772 -5.691,0.3741 -1.68505,1.049 -2.93419,4.2069 -5.15269,2.6752 -2.76207,-2.1926 -2.62797,1.0499 -4.975,0.4733 -3.70457,-1.9299 -1.77046,-7.7776 -3.10898,-11.3276 -7.43719,-55.6503 -13.45303,-111.4991 -21.31522,-167.0841 -0.9475,-0.48 -2.86253,3.0378 -4.27768,-0.3512 -3.62005,-1.6475 -7.06964,-3.7281 -10.45092,-5.8687 -2.78448,1.6611 -2.36087,-0.9284 -4.38145,-0.1302 -3.12086,1.9449 -7.63219,4.3935 -11.22933,2.4923 -1.6548,-1.3461 -3.38334,-2.4298 -5.60652,-1.9819 -2.90748,-0.195 -6.0953,0.2499 -8.83102,-0.3658 -1.43943,-1.2265 -2.54533,-3.6574 -4.70097,-2.2292 -0.83427,-1.4206 -2.69019,-1.8055 -4.44488,-2.3658 -1.06289,-1.7162 -3.8214,-0.3732 -5.59965,-0.7986 -2.00317,1.668 -1.61894,1.0286 -3.74896,-0.1264 -2.58771,0.3875 -5.24587,2.3193 -7.722,0.6686 0.71958,-2.5064 -2.60461,-2.2305 -4.12496,-3.1747 1.16786,-2.63 1.57485,-5.7678 -2.58634,-5.4354 -2.90307,-0.4146 -6.35597,-0.7876 -8.61337,0.9753 -2.7088,-0.01 -2.96012,-1.4795 -1.96254,-3.7092 -1.61246,-1.1529 -3.50011,-4.8098 -4.71097,-1.3097 0.17641,3.4201 -7.02606,4.9818 -3.4588,1.4449 2.00954,-0.2894 3.7754,-2.9492 1.87756,-4.0563 -2.67534,-0.4849 -4.36141,-2.6915 -7.00397,-3.4537 z M 264.45833,100.7734 c -1.91753,1.5844 0.68683,4.6563 1.95786,2.398 0.63141,-2.1938 0.13604,-2.6786 -1.95786,-2.398 z m -33.9671,14.4675 c -1.79264,1.0573 -5.32386,4.469 -3.67841,6.6465 0.88659,2.2136 2.3486,3.0852 4.62859,2.1026 2.35596,-1.2141 3.59616,1.0534 5.10848,2.4718 2.10236,0.9617 -0.55324,4.5092 2.27044,4.5046 2.81757,-0.019 0.60994,8.5396 4.30617,3.554 0.66273,-1.6064 3.37505,-2.4336 4.65194,-0.9946 1.21372,2.0356 4.80033,-1.3264 2.9282,-2.451 -2.10711,-2.0766 -5.52469,-2.1277 -7.06157,-4.8598 -1.99098,-1.8231 -1.5059,-4.9217 -3.61008,-6.853 -2.42965,0.057 -5.25636,1.8303 -7.17278,-0.3308 -1.58526,-0.9842 -2.90363,-1.702 -2.37098,-3.7903 z m 70.79732,23.0134 c -0.30796,4.2137 6.31907,1.0969 2.4277,0 -0.80923,0 -1.61847,0 -2.4277,0 z m -49.2588,52.5557 c -1.52755,2.5648 -3.38611,0.7405 -5.3115,0.2159 -2.27867,0.024 -1.99053,3.0101 -1.12906,4.2795 2.40552,2.5741 5.26797,4.693 7.95889,6.8054 1.55299,3.2043 2.45141,-0.057 4.01487,0 2.14349,0.01 4.93937,0.683 4.00499,-2.4329 0.0356,-1.9869 0.0483,-3.9742 0.0706,-5.9613 -2.24793,-0.1859 -3.35356,-1.9786 -4.49098,-2.9066 -1.70595,0 -3.4119,0 -5.11785,0 z M 0.05291261,229.8744 c 0.081644,2.066 -0.724181,4.6578 1.95623499,5.1677 1.805984,0.3366 3.147498,-0.679 3.494551,0.7549 0.932706,-2.8175 -3.590901,-5.1382 -5.45078599,-5.9226 z M 546.73659,237.9649 c 0.0285,2.9111 -3.47038,0.8578 -4.76465,1.9519 -0.87084,2.3625 -2.4386,5.7325 0.23882,7.4102 2.56976,2.8584 5.71053,5.3369 7.91875,8.4358 0.62541,1.9554 2.42909,3.9149 0.94516,5.9097 1.47966,1.9751 4.46136,-0.5716 3.24923,-2.4784 -1.28707,-3.8356 2.02409,-1.9614 1.76124,1.0035 2.05614,1.4554 -0.50821,5.2185 2.157,6.1346 2.67105,1.1024 3.97496,3.1512 5.15561,5.6722 0.72514,2.0581 4.28295,4.3154 3.72445,0.7366 -0.4347,-3.5062 -0.3801,-7.1472 -2.34476,-10.2298 -3.02854,-5.6427 -4.08946,-12.1929 -7.25303,-17.7034 0.6532,-1.283 0.37905,-3.6021 -1.20122,-4.522 -3.32213,0.065 -6.44688,-1.4096 -9.5866,-2.3209 z M 2.2002576,242.6934 c -3.904502,0.8259 4.462715,6.8432 3.405385,0.5423 -1.13176,-0.197 -2.251896,-0.5027 -3.405385,-0.5423 z m 381.6851624,1.605 c -4.17812,-0.037 -3.84858,3.6858 -6.48531,6.2746 -0.91825,1.7168 -7.87107,4.0855 -4.09959,4.9828 2.3518,-1.9106 4.45828,-0.4745 6.64654,-0.024 0.958,-2.5476 4.24681,0.3301 4.63245,-1.1916 0.12105,-1.4725 2.9842,1.0058 2.63723,-2.2022 0.35075,-1.3506 -2.37147,-3.4204 -3.64043,-3.2499 -3.01185,0.1881 0.68142,-1.8647 0.30911,-3.1145 0,-0.4916 0,-0.9833 0,-1.475 z m 196.44951,11.4092 c -2.96466,0.162 -6.12885,-0.2574 -8.97334,0.2553 -2.63766,0.9688 -0.0341,2.8749 0.65436,4.4286 -0.44775,-0.8387 -2.79878,-1.5796 -4.1139,0.4666 -2.18055,0.6828 -0.97101,3.6446 0.40669,4.6315 1.11401,1.2298 3.92935,3.1125 4.02191,3.948 -1.88469,-0.8078 -3.29372,2.4865 -1.04057,2.8632 -1.53777,3.0853 4.13822,6.2034 2.41007,2.0053 -1.19687,-2.4897 3.75575,-0.4859 1.54372,-4.2379 -1.51627,-2.1276 -1.04431,-6.3331 1.03853,-2.5244 1.19687,0.967 5.58287,-0.69 5.75902,-2.2347 2.01648,-0.4098 4.23248,-0.4971 5.2131,-2.6114 -0.53843,-3.1462 -5.46076,-3.8926 -6.91959,-6.9901 z m -207.70681,0.9327 c -0.99089,3.5722 -2.98301,0.2736 -4.70271,1.4081 -2.5923,0.4918 -0.062,4.4323 -2.78262,3.7542 -2.81371,-0.4324 -5.60644,1.8947 -6.78147,4.1668 -1.51633,3.6259 1.92026,2.8458 1.2309,5.9013 -0.46123,2.319 0.26255,3.8759 2.66241,4.3546 1.89533,0.3132 4.3676,-2.9806 1.84918,1.3028 -3.36976,3.1262 2.51577,3.0098 3.35595,0.6091 1.91678,-1.1386 2.36498,-3.2499 3.17748,-4.6041 2.05761,-1.7565 5.95039,-0.053 6.23959,-3.3366 1.99529,0.1864 3.68123,-2e-4 3.60676,-2.4835 1.47167,-0.274 3.2061,0.9496 3.03319,-1.716 2.25041,-0.016 2.42186,-2.7929 0.0433,-2.8062 -3.24361,-0.063 -0.37933,-3.3865 -1.22656,-4.8708 -1.55903,-2.1052 -4.77875,3.0464 -4.00081,-1.376 -2.50377,-1.2482 -3.28343,2.6444 -4.90832,0.3625 -0.26542,-0.222 -0.53083,-0.4442 -0.79625,-0.6662 z m 205.40767,12.0165 c -2.51022,1.7127 1.07652,3.5077 -0.09,5.3716 -2.60056,2.4299 0.0461,5.5484 1.84686,2.8707 0.29417,-1.8697 4.40574,2.742 0.69683,1.7396 -2.83003,0.4179 -0.60189,3.3654 1.669,2.1677 0.10515,1.1607 1.74642,6.3729 -0.95595,3.8145 -3.55862,-1.7234 -1.20146,2.2724 0.35026,3.9674 1.28313,1.0938 4.37579,0.072 5.14834,1.7649 0.62401,2.1295 1.29152,4.2342 3.33114,5.4138 1.8506,1.808 3.87122,3.918 6.69751,2.3513 1.86432,-1.147 6.73437,-0.3155 5.73146,-3.5879 -0.6737,-4.1521 -3.21358,-8.0194 -5.45204,-11.3173 -3.12142,0.1487 -1.27212,-2.8349 -3.05529,-4.1543 -2.17914,-2.1182 -3.71679,-5.1368 -6.91234,-5.8068 -2.27231,-0.2523 -2.71943,-2.4524 -3.62661,-4.1614 -1.79309,-0.1447 -3.58619,-0.2892 -5.37922,-0.4338 z m -536.337397,4.1428 c -1.847527,-0.5872 -4.310094,2.6372 -1.453254,2.1908 2.071724,0.5454 1.324006,-0.8021 1.453254,-2.1908 z m 317.937207,8.2423 c -1.23322,1.215 -4.09804,1.5737 -3.51384,3.7741 2.11575,0.023 3.73114,-0.731 4.46182,-2.8093 -0.2901,-0.3237 -0.6342,-0.6436 -0.94798,-0.9648 z m 1.3448,0.8894 c -1.22817,3.3658 5.35402,3.8326 4.73892,1.0496 -1.35518,-1.067 -3.10359,-1.0589 -4.73892,-1.0496 z m -299.543786,3.5138 c -1.865442,-0.079 -4.703683,1.7037 -2.212417,2.9715 2.547717,1.1734 4.067017,-1.0389 2.212417,-2.9715 z m 285.314916,7.8085 c -1.48866,0.9594 -4.34194,2.1668 -2.801,4.1208 3.30205,3.8451 6.89014,-3.2922 3.01247,-4.0468 z m -57.1107,2.5595 c -1.50726,2.5809 -1.27633,5.4175 1.97969,5.85 2.38832,-0.1432 0.81121,-3.1203 0.71113,-4.7 0.16853,-1.9417 -1.49633,-0.8822 -2.69082,-1.15 z m -32.6223,0.4772 c -2.93307,0.7585 -7.25396,-0.997 -9.30495,1.5156 -1.40795,1.3322 -2.03395,4.22 -4.42558,3.5599 -1.85729,-0.07 -1.28381,3.9739 0.3355,4.7115 1.84072,1.8522 5.10794,-0.499 6.75778,-1.9351 1.89257,0.2229 4.27143,-0.4226 5.88621,0.2963 0.99266,2.4042 5.70503,-0.9985 4.75563,-3.128 -0.39895,-2.6613 -0.13609,-5.8674 -4.00459,-5.0202 z m -174.520576,2.9933 c 1.18471,1.8487 0.78426,7.0641 3.7894,5.2279 1.01349,-1.5698 -0.08674,-4.7073 -1.513,-5.2279 -0.7588,0 -1.5176,0 -2.2764,0 z m 216.187756,2.0171 c -1.6551,0.3706 -4.9628,0.6988 -3.32126,2.8621 1.70547,1.6453 5.37663,-1.5985 3.32126,-2.8621 z m -204.323136,1.8004 c -0.21189,2.8649 -3.691,1.5817 -3.3837,3.8174 -0.56194,2.5058 3.39352,1.4722 3.73074,-0.4338 1.58888,-1.6532 1.32266,-2.0049 -0.34704,-3.3836 z m 4.81526,1.7352 c -1.31187,1.9509 -1.48446,2.9089 -3.34032,2.278 0.15874,1.8438 -0.89674,4.7994 2.07744,4.0653 2.355656,1.132 7.345926,0.1632 5.016536,-2.4467 -3.468996,0.417 -0.41622,-2.7813 -2.40222,-3.3914 -0.44726,-0.1768 -0.901516,-0.3354 -1.351436,-0.5052 z m 131.270016,0.3687 c -1.51293,0.6019 -3.47778,2.3375 -2.48323,3.7744 4.34014,2.3298 6.02756,-0.3889 2.69016,-3.4985 z m -124.89306,0.2169 c -1.02479,3.7249 3.67439,4.4555 2.42932,0.4772 -0.80978,-0.1591 -1.61954,-0.3181 -2.42932,-0.4772 z m 113.72253,1.3665 c -1.50555,1.016 -4.94093,0.8561 -3.93228,3.4254 1.32987,2.8512 -1.94096,2.3473 -1.66492,4.756 -2.13173,0.4679 -6.86448,1.29 -8.25533,0.8584 2.37192,-1.5913 1.14479,-3.0398 -0.70875,-4.4485 -1.34179,-0.4736 -4.59077,-0.1352 -5.28309,1.4769 -0.36269,3.4374 -3.80488,1.9988 -5.99834,3.5968 -0.9253,2.1007 -4.5514,6.5731 0.3213,4.3713 4.01046,-0.4896 5.09934,-4.2479 9.04309,-4.0943 2.33314,-1.0383 4.11057,3.5486 6.45737,2.1612 3.25301,-1.5694 7.39467,-0.6406 10.61548,-1.7129 1.05736,-3.0846 4.58419,-1.2798 6.72461,-3.1368 2.06719,-2.364 -2.20689,-1.8541 -0.47824,-3.4382 -0.74415,-2.9068 -2.13567,-2.1614 -3.71749,-0.2147 -1.09349,-1.6681 0.33375,-3.4344 -2.95142,-3.5457 z m 45.22439,1.5183 c -0.4974,2.6961 0.19104,4.2063 3.12557,3.4705 1.48483,-0.9247 -1.76382,-3.6905 -3.12557,-3.4705 z m -136.736,0.6074 c 0.92993,3.1807 -1.43586,3.2812 -4.05284,2.9578 -3.9907,-2.2769 -5.84775,0.3219 -2.06529,2.6103 3.18846,0.3092 7.00973,0.9217 8.95957,-1.5337 2.33354,0.3915 1.57102,-4.3558 -0.40538,-3.7576 -0.81202,-0.092 -1.62404,-0.1846 -2.43606,-0.2768 z m 110.36052,0.7808 c -0.0121,4.5737 5.5144,0.2266 1.38819,0 -0.46273,0 -0.92545,-1e-4 -1.38819,0 z m -106.19597,6.2468 c 0.38394,2.8675 2.98979,3.9923 5.55273,3.4705 -0.45247,-2.4959 -3.10666,-4.0311 -5.55273,-3.4705 z m 16.46298,0.4773 c -3.23024,1.5246 -3.1139,3.8869 0.47827,2.9932 2.38193,1.1132 2.55973,-2.7556 0.34612,-2.6822 -0.2748,-0.1038 -0.54959,-0.2074 -0.82439,-0.311 z m 23.23037,1.4965 c -2.14342,-0.3905 -4.51455,1.2468 -3.3862,2.9474 2.29224,-0.024 3.43636,-0.4302 3.3862,-2.9474 z m 8.19895,0.1085 c -0.0121,4.5737 5.5144,0.2267 1.38819,0 -0.46274,0 -0.92546,0 -1.38819,0 z"
     style="fill:#3F72AF"
     id="AK_At-Large"
     inkscape:connector-curvature="0" />
</svg>
