<?xml version="1.0" encoding="UTF-8" standalone="no"?>
<svg
   xmlns:dc="http://purl.org/dc/elements/1.1/"
   xmlns:cc="http://creativecommons.org/ns#"
   xmlns:rdf="http://www.w3.org/1999/02/22-rdf-syntax-ns#"
   xmlns:svg="http://www.w3.org/2000/svg"
   xmlns="http://www.w3.org/2000/svg"
   xmlns:sodipodi="http://sodipodi.sourceforge.net/DTD/sodipodi-0.dtd"
   xmlns:inkscape="http://www.inkscape.org/namespaces/inkscape"
   version="1.0"
   width="129.34081"
   height="113.603"
   id="svg2"
   sodipodi:docname="AL_2.svg"
   inkscape:version="0.92.2 5c3e80d, 2017-08-06">
  <metadata
     id="metadata13">
    <rdf:RDF>
      <cc:Work
         rdf:about="">
        <dc:format>image/svg+xml</dc:format>
        <dc:type
           rdf:resource="http://purl.org/dc/dcmitype/StillImage" />
      </cc:Work>
    </rdf:RDF>
  </metadata>
  <defs
     id="defs11" />
  <sodipodi:namedview
     pagecolor="#ffffff"
     bordercolor="#666666"
     borderopacity="1"
     objecttolerance="10"
     gridtolerance="10"
     guidetolerance="10"
     inkscape:pageopacity="0"
     inkscape:pageshadow="2"
     inkscape:window-width="640"
     inkscape:window-height="480"
     id="namedview9"
     showgrid="false"
     inkscape:zoom="0.12542268"
     inkscape:cx="-528.84075"
     inkscape:cy="413.37487"
     inkscape:window-x="0"
     inkscape:window-y="0"
     inkscape:window-maximized="0"
     inkscape:current-layer="svg2" />
  <path
     d="m 67.701,0 -26.7437,4.1294 -0.8152,2.747 -14.5504,2.4103 0.638,2.5698 -11.059,1.5419 c 1.0601,2.945 2.8662,6.2034 1.7545,7.2663 l 3.1724,5.7777 1.4355,0.2126 -0.6911,1.79 2.9774,2.8534 -1.79,2.0735 c 0.3476,1.1811 0.2694,2.3634 -0.4608,3.5446 l 2.6584,2.5166 -4.4484,0.9748 1.2229,10.1906 h 2.552 c 0.2833,1.6625 0.7033,3.3235 0.833,5.1396 l -2.4989,0.7089 c 0.5701,4.5439 1.0287,9.3305 2.0381,12.849 l -5.4409,3.2787 -2.4812,0.089 0.2127,3.066 -3.4736,2.3039 C 12.2456,94.2899 8.5215,86.7546 3.3673,99.5845 L 0,103.0759 l 35.0379,-4.6965 0.5849,4.5193 3.6686,-0.5317 1.6482,11.2363 c 49.3021,-7.1722 74.9471,-11.0966 88.4012,-13.7884 l -2.3926,-4.7497 -5.0333,-5.051 0.5849,-2.2153 -1.7191,-3.3142 1.0102,-1.3292 -0.195,-16.4467 -1.7191,-4.0053 -3.5623,-3.5623 -0.5493,-4.2535 -1.0989,-0.6912 V 53.08 c 0,-0.6143 -0.1778,-2.3288 -0.3899,-3.8104 l -0.3722,-2.6939 h 1.152 l 0.4254,-1.5596 c 0.2348,-0.8577 0.4745,-1.9424 0.5317,-2.4103 0.057,-0.4678 0.2741,-1.7439 0.4785,-2.8356 l 0.3722,-1.985 -0.5849,-1.7722 -6.008,1.0101 -4.9092,-4.7674 -8.6133,1.5773 -0.7975,-4.9446 C 94.9553,28.5376 83.1763,30.3132 73.9926,31.6 l -1.7546,-0.6912 0.5494,-1.8432 -1.3115,-1.4532 -0.2481,2.0204 -4.8383,0.762 2.8533,18.9634 -16.3226,2.3217 -0.7444,-5.051 -5.4586,0.6557 -1.79,-11.5552 2.1976,-3.6154 v -4.3598 l 6.079,3.4382 3.1369,-1.4533 -1.4355,-8.1348 0.8152,-0.3899 1.0279,1.4887 1.4533,-1.4178 c 1.0259,1.1294 2.2011,1.1269 3.3673,1.2052 l 3.4914,-1.8078 -0.5848,-1.719 2.8887,0.7443 -0.018,-1.1874 3.0306,0.1949 C 70.0482,14.1332 68.739,11.1726 68.1792,6.1855 67.0676,5.9002 66.4519,5.1095 66.2651,3.8993 67.6035,2.92 67.5377,1.4204 67.7007,3e-4 Z"
     style="fill:#3F72AF;fill-opacity:1"
     id="AL_2"
     inkscape:connector-curvature="0" />
</svg>
