<?xml version="1.0" encoding="UTF-8" standalone="no"?>
<svg
   xmlns:dc="http://purl.org/dc/elements/1.1/"
   xmlns:cc="http://creativecommons.org/ns#"
   xmlns:rdf="http://www.w3.org/1999/02/22-rdf-syntax-ns#"
   xmlns:svg="http://www.w3.org/2000/svg"
   xmlns="http://www.w3.org/2000/svg"
   xmlns:sodipodi="http://sodipodi.sourceforge.net/DTD/sodipodi-0.dtd"
   xmlns:inkscape="http://www.inkscape.org/namespaces/inkscape"
   version="1.0"
   width="131.22701"
   height="54.901409"
   id="svg2"
   sodipodi:docname="AL_5.svg"
   inkscape:version="0.92.2 5c3e80d, 2017-08-06">
  <metadata
     id="metadata34">
    <rdf:RDF>
      <cc:Work
         rdf:about="">
        <dc:format>image/svg+xml</dc:format>
        <dc:type
           rdf:resource="http://purl.org/dc/dcmitype/StillImage" />
      </cc:Work>
    </rdf:RDF>
  </metadata>
  <defs
     id="defs32" />
  <sodipodi:namedview
     pagecolor="#ffffff"
     bordercolor="#666666"
     borderopacity="1"
     objecttolerance="10"
     gridtolerance="10"
     guidetolerance="10"
     inkscape:pageopacity="0"
     inkscape:pageshadow="2"
     inkscape:window-width="640"
     inkscape:window-height="480"
     id="namedview30"
     showgrid="false"
     inkscape:zoom="0.12542268"
     inkscape:cx="-460.45415"
     inkscape:cy="215.44771"
     inkscape:window-x="0"
     inkscape:window-y="0"
     inkscape:window-maximized="0"
     inkscape:current-layer="svg2" />
  <path
     d="M 38.9972,54.90141 C 38.0193,49.49327 37.7799,44.24931 36.0634,38.67705 L 6.0556,41.79075 V 22.02513 L 3.2991,21.33329 0,16.44492 C 42.6575,12.4073 85.7773,6.0583 128.839,0 l 2.388,7.74403 -1.5468,1.30672 -0.6134,4.72549 -2.34,2.00531 -2.9131,6.69592 c -4.8322,5.0813 -8.8045,9.40379 -8.6319,10.06909 l -4.9281,2.64134 c -1.3053,-1.42451 -1.2009,-2.35149 -1.2946,-3.34838 -3.5494,-0.24892 -2.607,-2.13865 -3.2683,-4.63452 l -6.0606,0.83152 -2.2434,1.54293 -0.048,4.23243 -2.9519,0.25095 -1.7373,2.64282 -0.5299,-0.48529 -1.3899,0.96684 -3.3812,-0.8309 c -0.615,-3.40396 -1.4531,-0.97966 -2.096,-4.60673 l -2.5556,-0.0729 -1.5431,2.38614 -1.1764,0.0279 -1.797,-2.75046 -3.2242,2.98446 c -3.2572,0.67931 -7.3283,-0.49232 -12.0714,-2.78454 0.9876,5.78794 3.6372,9.08421 5.7323,11.29924 l -1.8215,2.19677 -1.2535,-0.56043 -0.9282,-4.38663 c -1.6892,-1.29373 -2.6966,-1.53386 -3.5769,-1.57764 l 0.03,-2.39118 -2.3067,-0.94461 -0.9188,0.11013 1.3765,17.0108 z"
     style="fill:#3F72AF"
     id="AL_5"
     inkscape:connector-curvature="0" />
</svg>
