<?xml version="1.0" encoding="UTF-8" standalone="no"?>
<svg
   xmlns:dc="http://purl.org/dc/elements/1.1/"
   xmlns:cc="http://creativecommons.org/ns#"
   xmlns:rdf="http://www.w3.org/1999/02/22-rdf-syntax-ns#"
   xmlns:svg="http://www.w3.org/2000/svg"
   xmlns="http://www.w3.org/2000/svg"
   xmlns:sodipodi="http://sodipodi.sourceforge.net/DTD/sodipodi-0.dtd"
   xmlns:inkscape="http://www.inkscape.org/namespaces/inkscape"
   version="1.0"
   width="91.244202"
   height="79.515297"
   id="svg2"
   sodipodi:docname="AL_6.svg"
   inkscape:version="0.92.2 5c3e80d, 2017-08-06">
  <metadata
     id="metadata42">
    <rdf:RDF>
      <cc:Work
         rdf:about="">
        <dc:format>image/svg+xml</dc:format>
        <dc:type
           rdf:resource="http://purl.org/dc/dcmitype/StillImage" />
      </cc:Work>
    </rdf:RDF>
  </metadata>
  <defs
     id="defs40" />
  <sodipodi:namedview
     pagecolor="#ffffff"
     bordercolor="#666666"
     borderopacity="1"
     objecttolerance="10"
     gridtolerance="10"
     guidetolerance="10"
     inkscape:pageopacity="0"
     inkscape:pageshadow="2"
     inkscape:window-width="640"
     inkscape:window-height="480"
     id="namedview38"
     showgrid="false"
     inkscape:zoom="0.12542268"
     inkscape:cx="-489.48685"
     inkscape:cy="313.48947"
     inkscape:window-x="0"
     inkscape:window-y="0"
     inkscape:window-maximized="0"
     inkscape:current-layer="svg2" />
  <path
     d="M 49.748,79.5153 48.3346,68.7056 32.6015,70.9741 v -2.378 l -5.7061,0.5419 -0.6812,-7.6562 c 1.2208,0.2526 3.1614,-0.2147 5.2739,-0.8538 l -0.8619,-4.965 1.3669,-2.6855 4.3272,-0.6919 -0.3986,-4.2802 2.3071,-2.4574 2.2987,0.6011 0.7023,-1.83 2.9836,-0.1117 0.1117,-2.19 c 2.5455,-2.949 4.1728,-5.8639 4.0443,-8.7139 l 3.7506,-2.7313 1.8284,-5.0801 h 1.7093 c 1.602,-1.5202 2.1983,-2.9063 2.3157,-4.2286 l 2.8958,-2.8868 -1.836,-1.4851 v -1.7654 l -2.2643,-0.074 -2.1068,5.4834 -3.2954,0.7815 -4.3619,-3.4665 -2.2667,-0.1861 -1.3612,1.3611 0.037,1.8776 4.1688,1.5091 -0.2126,2.546 -3.9935,0.1507 c 0.8562,1.8158 1.6295,2.1824 2.3875,2.2806 l -2.5186,2.6695 1.489,2.3431 c -0.7317,1.7292 -2.2855,3.1191 -5.3849,3.6152 -1.7717,1.6939 -3.0954,3.6075 -4.6567,3.4027 l -2.6588,3.6155 v 2.7593 l -5.2676,2.4468 -2.145,-3.355 c -1.0295,0.171 -2.0841,0.2119 -2.8741,1.6284 l -3.2712,0.7185 -2.7672,2.1767 -1.8492,-2.8222 h -2.2424 c 0.2342,1.7805 0.6658,2.9932 1.297,3.6321 -1.3707,0.2061 -4.3731,3.1318 -7.0061,5.4419 L 3.7864,55.8297 -3e-4,32.3915 9.2014,31.1143 8.532,27.6805 l 1.7598,-0.528 v -1.6252 l 12.1933,-1.1659 c 0.31,0.6469 1.5834,1.1628 3.5941,0.9593 l 0.352,4.2535 h 2.1332 l 0.6704,-1.0847 1.665,0.6389 v -1.8227 c 1.2673,-0.027 2.3825,-0.3081 2.8907,-1.6004 l -1.1893,-0.735 v -2.3078 l 2.2685,-0.5933 v -1.0019 h 2.8357 v -2.2685 h 1.8227 l -0.6529,-1.7014 h 0.919 l 0.2333,-6.7737 1.1224,-0.032 5.7825,-4.537 h 6.2102 l 6.5616,3.4973 2.6713,-0.3781 0.3624,-2.5521 c 2.4724,-0.045 4.2535,-1.2754 6.1595,-2.2915 l 0.1126,0.6282 4.1409,-4.5231 4.9587,0.9552 1.1145,1.3463 -0.5517,1.8397 8.3471,-4.2762 1.366,0.7456 -0.5114,1.8216 1.6279,1.8131 -4.3422,4.4317 -0.016,2.4058 -0.7156,-0.2313 -0.8451,-0.8973 -1.9927,-0.083 3.0339,3.0893 -0.6275,3.1008 -2.2789,0.3966 2.2755,2.4686 c -0.882,1.2174 -1.606,2.5535 -2.1479,4.026 h -1.0302 l -0.6033,-0.8977 -0.5204,0.3751 -1.968,5.8252 -2.0208,1.4572 2.4618,2.1256 -1.3436,1.3565 0.672,2.5626 -4.3226,4.6542 -0.026,2.2598 -1.6677,0.01 -0.067,1.0847 2.5319,3.1369 -1.78,1.822 15.6393,-2.3075 3.4433,1.8525 -0.8625,1.0221 h -2.5554 l -3.6213,5.6065 1.2539,2.7519 -2.977,4.4984 0.757,6.6962 -3.2408,0.6214 -0.6512,2.7588 -14.9687,2.4225 0.5843,2.3977 z"
     style="fill:#3F72AF"
     id="AL_6"
     inkscape:connector-curvature="0" />
</svg>
