<?xml version="1.0" encoding="UTF-8" standalone="no"?>
<svg
   xmlns:dc="http://purl.org/dc/elements/1.1/"
   xmlns:cc="http://creativecommons.org/ns#"
   xmlns:rdf="http://www.w3.org/1999/02/22-rdf-syntax-ns#"
   xmlns:svg="http://www.w3.org/2000/svg"
   xmlns="http://www.w3.org/2000/svg"
   xmlns:sodipodi="http://sodipodi.sourceforge.net/DTD/sodipodi-0.dtd"
   xmlns:inkscape="http://www.inkscape.org/namespaces/inkscape"
   version="1.0"
   width="55.573505"
   height="81.546806"
   id="svg2"
   sodipodi:docname="CA_11.svg"
   inkscape:version="0.92.2 5c3e80d, 2017-08-06">
  <metadata
     id="metadata24">
    <rdf:RDF>
      <cc:Work
         rdf:about="">
        <dc:format>image/svg+xml</dc:format>
        <dc:type
           rdf:resource="http://purl.org/dc/dcmitype/StillImage" />
      </cc:Work>
    </rdf:RDF>
  </metadata>
  <defs
     id="defs22" />
  <sodipodi:namedview
     pagecolor="#ffffff"
     bordercolor="#666666"
     borderopacity="1"
     objecttolerance="10"
     gridtolerance="10"
     guidetolerance="10"
     inkscape:pageopacity="0"
     inkscape:pageshadow="2"
     inkscape:window-width="640"
     inkscape:window-height="480"
     id="namedview20"
     showgrid="false"
     inkscape:zoom="0.12542268"
     inkscape:cx="1197.6066"
     inkscape:cy="-24.956789"
     inkscape:window-x="0"
     inkscape:window-y="0"
     inkscape:window-maximized="0"
     inkscape:current-layer="svg2" />
  <path
     d="m 26.550576,81.54681 -9.09237,-2.06678 -0.74107,-1.03348 c -0.40759,-0.56844 -1.04561,-1.03683 -1.41782,-1.04091 l -0.67675,-0.007 -2.36266,-3.64414 2.20227,-3.73256 -1.39633,-1.6825 h -3.69212 l -1.38311,-1.66657 4.647,-2.11516 v -2.45669 h -1.37144 c -0.75428,0 -1.77511,-0.15488 -2.26851,-0.34424 l -0.89708,-0.34425 v -1.93329 l 2.37247,-3.05812 -0.78854,-6.28237 -2.81903,-3.3502 H 5.15549 L 6.499636,36.77646 3.46805,34.79015 5.26494,32.80457 V 29.66852 L 2.99643,29.07525 V 28.5485 c 0,-0.28969 -0.6742,-1.20095 -1.49819,-2.02493 L 0,25.02532 2.14573,24.26946 v -3.8524 l 4.830976,-0.34929 0.74106,1.93113 -1.885696,1.37886 v 2.9071 l 1.319706,1.60316 c 0.72587,0.88172 1.87317,2.76606 2.54964,4.1874 0.67647,1.42133 1.75135,3.14399 2.38869,3.82811 l 1.76726,1.44664 4.3621,-1.88707 2.4446,-3.43311 -1.88972,-11.71376 0.78371,-0.80028 c 0.43102,-0.44015 1.12292,-1.6297 1.53749,-2.64344 l 0.75371,-1.84317 3.39183,-1.28103 -0.69184,-3.16214 1.18121,-0.3937 0.35451,-3.32525 1.21616,-0.54262 c 0.66887,-0.29848 1.21609,-0.72661 1.21609,-0.95142 0,-0.22487 1.03274,-1.52569 2.29494,-2.89077 l 2.295,-2.48198 0.96599,1.16182 c 0.53135,0.63904 1.37256,1.76201 1.9934,1.99975 l 10.43126,0.60774 c 0.24812,0.0551 1.16953,-0.19623 2.04762,-0.55851 0.87808,-0.36228 2.15412,-0.65481 2.83564,-0.65004 0.68152,0.005 1.5494,0.20586 1.92869,0.44684 l 0.68957,0.43822 1.57418,13.56804 -4.41782,20.23294 -2.52134,-1.65204 c -8.72872,0.35275 -9.03092,0.052 -9.7363,1.59074 l -3.17332,0.16078 c -0.38978,-1.9224 -0.52377,-3.33319 -0.40197,-5.32869 l 4.57792,-9.10497 c -0.5137,-2.38999 -0.87058,-5.55026 -2.84112,-7.15659 l -2.88018,11.1329 -4.28966,0.99883 2.07791,3.46147 c -0.46624,3.34844 -0.51402,6.40317 -1.13607,9.72728 l -9.61393,6.12204 -0.48151,4.74182 1.94852,1.93686 -0.53911,4.69764 -2.38608,0.29621 -0.93839,3.06437 1.58011,1.74987 -0.0846,4.61717 c 0.78727,0.13027 0.97618,-0.24415 1.60548,-0.69309 l 0.87576,-0.58341 1.74347,1.44686 2.27452,-0.5948 v 1.59522 h 1.00195 l 0.65645,2.51022 -1.64291,1.81544 1.15597,1.15598 -0.36284,0.94551 c -0.19958,0.52006 -0.59073,0.94552 -0.8693,0.94552 h -0.50645 l 0.29234,2.34774 -1.85208,0.15885 z"
     style="opacity:1;fill:#3F72AF;fill-opacity:1"
     id="CA_11"
     inkscape:connector-curvature="0" />
</svg>
