<?xml version="1.0" encoding="UTF-8" standalone="no"?>
<svg
   xmlns:dc="http://purl.org/dc/elements/1.1/"
   xmlns:cc="http://creativecommons.org/ns#"
   xmlns:rdf="http://www.w3.org/1999/02/22-rdf-syntax-ns#"
   xmlns:svg="http://www.w3.org/2000/svg"
   xmlns="http://www.w3.org/2000/svg"
   xmlns:sodipodi="http://sodipodi.sourceforge.net/DTD/sodipodi-0.dtd"
   xmlns:inkscape="http://www.inkscape.org/namespaces/inkscape"
   version="1.0"
   width="74"
   height="97.286293"
   id="svg2"
   sodipodi:docname="CA_17.svg"
   inkscape:version="0.92.2 5c3e80d, 2017-08-06">
  <metadata
     id="metadata72">
    <rdf:RDF>
      <cc:Work
         rdf:about="">
        <dc:format>image/svg+xml</dc:format>
        <dc:type
           rdf:resource="http://purl.org/dc/dcmitype/StillImage" />
      </cc:Work>
    </rdf:RDF>
  </metadata>
  <defs
     id="defs70" />
  <sodipodi:namedview
     pagecolor="#ffffff"
     bordercolor="#666666"
     borderopacity="1"
     objecttolerance="10"
     gridtolerance="10"
     guidetolerance="10"
     inkscape:pageopacity="0"
     inkscape:pageshadow="2"
     inkscape:window-width="640"
     inkscape:window-height="480"
     id="namedview68"
     showgrid="false"
     inkscape:zoom="0.12542268"
     inkscape:cx="1212.4762"
     inkscape:cy="57.125671"
     inkscape:window-x="0"
     inkscape:window-y="0"
     inkscape:window-maximized="0"
     inkscape:current-layer="svg2" />
  <path
     d="m 11.78125,0.00504139 c -0.0521,0.0103 -0.138428,0.0208 -0.21875,0.125 v 0.03125 l -0.03125,0.0312 c -0.156452,0.10826 -0.272545,0.2997 -0.375,0.53125 -0.102455,0.23155 -0.211559,0.51005001 -0.46875,0.71875001 l -0.03125,0.0312 H 10.625 c -0.212459,0.079 -0.274288,0.23007 -0.34375,0.46875 -0.06946,0.23868 -0.09312,0.53944 -0.3125,0.8125 -0.316572,0.37019 -0.511398,0.97693 -1,1.4375 -0.01214,0.0114 -0.01868,0.02 -0.03125,0.0312 -0.01062,0.034 -0.04871,0.0316 -0.0625,0.0625 v 0.0312 c -0.127,0.26419 -0.350415,0.47114 -0.5625,0.53125 -0.254502,0.0721 -0.467335,0.0866 -0.625,0.15625 H 7.65625 7.625 c -0.190062,0.0334 -0.39221,0.006 -0.53125,-0.0937 -0.13904,-0.0997 -0.220441,-0.25838 -0.25,-0.40625 -0.05912,-0.29575 0.0415,-0.60473 0.25,-0.84375 0.06873,-0.0829 0.09293,-0.1296 0.09375,-0.1875 8.17e-4,-0.0579 -0.01689,-0.13053 -0.0625,-0.21875 -0.0404,-0.0782 -0.121577,-0.19031 -0.1875,-0.28125 -0.073,0.17138 -0.07402,0.32963 -0.25,0.46875 l -0.0625,0.0625 H 6.5625 c -0.194334,0.0294 -0.355942,0.0512 -0.4375,0.0937 -0.08156,0.0426 -0.116509,0.0426 -0.125,0.21875 v 0.0312 0.0312 c -0.02967,0.12239 -0.06733,0.2249 -0.125,0.3125 -0.05767,0.0876 -0.182393,0.15811 -0.3125,0.15625 -0.130107,-0.002 -0.191812,-0.0425 -0.25,-0.0937 -0.05819,-0.0512 -0.113493,-0.10178 -0.15625,-0.15625 -0.08551,-0.10895 -0.166027,-0.22976 -0.21875,-0.28125 -0.07044,0.0699 -0.138621,0.16178 -0.21875,0.1875 -0.135775,0.0436 -0.225193,0.0327 -0.3125,0.0312 -0.08731,-0.001 -0.146285,-0.004 -0.15625,0 -0.01,0.004 -0.01181,-0.0289 -0.03125,0.0312 -0.03863,0.14947 -0.06313,0.278 -0.1875,0.375 -0.06218,0.0485 -0.166145,0.0716 -0.25,0.0625 -0.08385,-0.009 -0.142236,-0.0579 -0.1875,-0.0937 -0.181057,-0.14362 -0.22483,-0.30512 -0.28125,-0.46875 l -0.03125,-0.03095 c -0.0605,-0.19973 -0.13228,-0.46538 -0.25,-0.625 -0.05886,-0.0798 -0.141574,-0.1068 -0.1875,-0.125 -0.04593,-0.0182 -0.06585,-0.0395 -0.15625,0 v -0.0312 c -0.177109,0.11758 -0.357784,0.21076 -0.53125,0.15625 -0.182899,-0.0575 -0.274931,-0.2002 -0.34375,-0.3125 -0.06882,-0.1123 -0.110885,-0.21251 -0.15625,-0.28125 0.180189,0.47437 0.242524,0.99456 0.15625,1.5 -1.02e-4,0.01 2.65e-4,0.0213 0,0.0312 -0.0145,0.54464 -0.308872,1.0128 -0.6875,1.375 -0.09376,0.28191 -0.07941,0.63404 -0.0625,1 l 2.25,-0.5625 2.15625,1.15625 1.65625,-1.40625 2.84375,2.6875 1.75,5.9999996 0.21875,0.4375 0.34375,4.0625 -0.8125,1.59375 c -0.45387,0.86703 -1.427662,2.92562 -2.15625,4.59375 l -1.34375,3.03125 -1.375,1.09375 c -0.75423,0.59327 -1.712021,1.06251 -2.15625,1.0625 H 3.625 l 0.625,-1 -1.75,-1.46875 -2.5,2.53125 2,1.125 v 1 c 0,0.54597 -0.305928,1.27469 -0.65625,1.625 l -0.625,0.65625 -0.28125,13.375 2.34375,4.46875 4.40625,4 3.15625,6.3125 0.8125,4.875 L 12,68.505041 c 0.46017,0.37408 1.336002,1.14162 1.9375,1.6875 l 1.09375,1 v 7.21875 l 1.125,1.4375 c 0.62384,0.79307 1.145883,1.64354 1.15625,1.90625 0.01038,0.26275 0.509261,1.04941 1.09375,1.75 l 1.0625,1.28125 54.53125,12.5 v -0.625 c 0,-0.33421 -0.35154,-0.97654 -0.8125,-1.4375 l -0.84375,-0.84375 1.375,-2.21875 -1.1875,-2.40625 -2.125,-0.1875 -1.09375,-4.3125 -3.625,-1 c -1.77431,-3.3248 -4.13972,-4.807 -6.1875,-7.875 l -0.1875,-1.59375 -1.90625,-0.59375 -0.21875,-4.125 2.375,-2.4375 -2.09375,-2.34375 0.625,-3.9375 c 2.08445,-1.33275 2.59788,-0.61039 4.5625,-0.625 l 1.84375,-9.75 -12.25,-19.46875 -8.875,-7.5 -1.25,-5 h -1.4375 l -0.75,-1.9375 1.78125,-1.34375 -9.78125,-2.1875 -1.3125,-1.90625 h -1.84375 l -4.40625,4.03125 -1.84375,-0.96875 0.375,-0.5625 -0.46875,-0.65625 C 21.98822,13.314711 20.88778,12.379181 20,11.411291 l -1.59375,-1.7499996 -0.34375,-1.4375 c -0.0038,-0.0161 0.0042,-0.0458 0,-0.0625 -0.06895,0.0252 -0.09432,0.0572 -0.125,0.125 l -0.03125,0.0312 v 0.0312 c -0.400693,0.48998 -0.908346,0.83044 -1.25,1.25 -0.144649,0.16218 -0.281247,0.26504 -0.46875,0.28125 -0.187503,0.0162 -0.355912,-0.10538 -0.4375,-0.21875 -0.163176,-0.22673 -0.240203,-0.49218 -0.3125,-0.65625 v -0.0312 -0.0625 c -0.0022,-0.0229 0.0029,-0.0202 0,-0.0312 0.0041,0.001 -0.07568,0.006 -0.1875,0.0312 -0.111825,0.0248 -0.248886,0.074 -0.4375,0 -0.09431,-0.037 -0.174637,-0.12003 -0.21875,-0.21875 -0.03987,-0.0892 -0.06281,-0.17796 -0.0625,-0.28125 3.3e-5,-0.011 -3.1e-4,-0.02 0,-0.0312 -0.03903,-0.32087 0.04008,-0.60526 0.25,-0.78125 0.151458,-0.12698 0.358612,-0.12818 0.5625,-0.125 0.115679,-0.16785 0.10239,-0.34516 0.15625,-0.53125 -0.145588,0.045 -0.344532,0.14277 -0.5625,0.28125 -0.215009,0.1366 -0.510774,0.25549 -0.8125,0.1875 -0.0027,-6.2e-4 0.0027,0.0319 0,0.0312 -0.02748,-0.003 -0.03696,-0.0244 -0.0625,-0.0312 -0.165696,-0.0441 -0.304415,-0.1354 -0.375,-0.25 -0.08147,-0.13227 -0.118476,-0.26981 -0.15625,-0.375 -0.03126,-0.087 -0.06007,-0.11462 -0.0625,-0.125 -0.139187,0.10127 -0.288329,0.19648 -0.4375,0.15625 -0.190431,-0.0513 -0.307819,-0.15316 -0.40625,-0.28125 -0.196862,-0.25617 -0.370908,-0.61411 -0.4375,-0.6875 -0.143481,-0.13939 -0.225996,-0.29387 -0.21875,-0.46875 0.0076,-0.18457 0.09186,-0.34236 0.21875,-0.4375 0.253774,-0.19029 0.644692,-0.23325 0.9375,0 h 0.03125 v 0.0312 c 0.08819,0.10751 0.137966,0.12324 0.15625,0.125 0.01828,0.002 0.05961,0.005 0.09375,-0.0312 0.06827,-0.0726 0.114375,-0.30614 0.0625,-0.46875 v -0.0312 c -0.0429,-0.34101 -0.359,-0.69226 -0.53125,-1.1875 h -0.03125 c -0.120159,-0.20839 -0.316531,-0.46712 -0.46875,-0.75 -0.152219,-0.28288 -0.248665,-0.65344 -0.09375,-1.03125 l 0.03125,-0.0312 0.03125,-0.0312 c 0.153261,-0.15029 0.152454,-0.2596 0.125,-0.40625 C 12.5038,0.98354139 12.431222,0.80684139 12.3125,0.59894139 l -0.03125,-0.0312 v -0.0625 c -0.03775,-0.19472 -0.207831,-0.39211 -0.34375,-0.46875 -0.06796,-0.0383 -0.104153,-0.0416 -0.15625,-0.0312 z"
     style="opacity:1;fill:#3F72AF;fill-opacity:1"
     id="CA_17"
     inkscape:connector-curvature="0" />
</svg>
