<?xml version="1.0" encoding="UTF-8" standalone="no"?>
<svg
   xmlns:dc="http://purl.org/dc/elements/1.1/"
   xmlns:cc="http://creativecommons.org/ns#"
   xmlns:rdf="http://www.w3.org/1999/02/22-rdf-syntax-ns#"
   xmlns:svg="http://www.w3.org/2000/svg"
   xmlns="http://www.w3.org/2000/svg"
   xmlns:sodipodi="http://sodipodi.sourceforge.net/DTD/sodipodi-0.dtd"
   xmlns:inkscape="http://www.inkscape.org/namespaces/inkscape"
   version="1.0"
   width="20.310301"
   height="23.34296"
   id="svg2"
   sodipodi:docname="CA_13.svg"
   inkscape:version="0.92.2 5c3e80d, 2017-08-06">
  <metadata
     id="metadata40">
    <rdf:RDF>
      <cc:Work
         rdf:about="">
        <dc:format>image/svg+xml</dc:format>
        <dc:type
           rdf:resource="http://purl.org/dc/dcmitype/StillImage" />
      </cc:Work>
    </rdf:RDF>
  </metadata>
  <defs
     id="defs38" />
  <sodipodi:namedview
     pagecolor="#ffffff"
     bordercolor="#666666"
     borderopacity="1"
     objecttolerance="10"
     gridtolerance="10"
     guidetolerance="10"
     inkscape:pageopacity="0"
     inkscape:pageshadow="2"
     inkscape:window-width="640"
     inkscape:window-height="480"
     id="namedview36"
     showgrid="false"
     inkscape:zoom="0.12542268"
     inkscape:cx="1212.0849"
     inkscape:cy="-63.365687"
     inkscape:window-x="0"
     inkscape:window-y="0"
     inkscape:window-maximized="0"
     inkscape:current-layer="svg2" />
  <path
     d="M 0.86842,0 0,0.56713 c 1e-5,0 1.3911,0.89413 1.87862,1.71913 0.48752,0.82501 1.54188,2.37485 1.54188,2.37485 l 0.99247,1.04562 1.6305,2.28627 0.51396,11.41346 1.54188,2.48119 h 2.90654 l 0.53168,0.51393 c 0.29633,0.28164 1.05971,0.6408 1.68366,0.79755 0.62384,0.1567 1.64456,0.193 2.26852,0.0709 0.62384,-0.12216 1.64714,-0.22623 2.28623,-0.23043 l 1.16971,-0.0177 0.67346,-1.87862 c 0.3746,-1.03586 0.69108,-2.40105 0.69119,-3.03062 V 16.9784 l -2.81792,-1.71908 -0.01772,-0.70891 1.75455,-1.91406 V 10.2083 l -1.9495,-0.54937 -6.55743,0.40759 C 10.21397,8.15133 9.96816,7.06119 8.85983,5.10851 L 4.74687,5.15041 3.11921,2.88887 3.66862,2.2154 Z"
     style="opacity:1;fill:#3F72AF;fill-opacity:1"
     id="CA_13"
     inkscape:connector-curvature="0" />
</svg>
