<?xml version="1.0" encoding="UTF-8" standalone="no"?>
<svg
   xmlns:dc="http://purl.org/dc/elements/1.1/"
   xmlns:cc="http://creativecommons.org/ns#"
   xmlns:rdf="http://www.w3.org/1999/02/22-rdf-syntax-ns#"
   xmlns:svg="http://www.w3.org/2000/svg"
   xmlns="http://www.w3.org/2000/svg"
   xmlns:sodipodi="http://sodipodi.sourceforge.net/DTD/sodipodi-0.dtd"
   xmlns:inkscape="http://www.inkscape.org/namespaces/inkscape"
   version="1.0"
   width="77.519402"
   height="255.20792"
   id="svg2"
   sodipodi:docname="CA_1.svg"
   inkscape:version="0.92.2 5c3e80d, 2017-08-06">
  <metadata
     id="metadata8">
    <rdf:RDF>
      <cc:Work
         rdf:about="">
        <dc:format>image/svg+xml</dc:format>
        <dc:type
           rdf:resource="http://purl.org/dc/dcmitype/StillImage" />
      </cc:Work>
    </rdf:RDF>
  </metadata>
  <defs
     id="defs6" />
  <sodipodi:namedview
     pagecolor="#ffffff"
     bordercolor="#666666"
     borderopacity="1"
     objecttolerance="10"
     gridtolerance="10"
     guidetolerance="10"
     inkscape:pageopacity="0"
     inkscape:pageshadow="2"
     inkscape:window-width="640"
     inkscape:window-height="480"
     id="namedview4"
     showgrid="false"
     inkscape:zoom="0.12542268"
     inkscape:cx="1268.8509"
     inkscape:cy="-108.54311"
     inkscape:window-x="0"
     inkscape:window-y="0"
     inkscape:window-maximized="0"
     inkscape:current-layer="svg2" />
  <path
     d="m 34.612574,0 -1.91406,6.80554 -3.650891,5.54723 0.992476,1.22287 c 0.545294,0.6734 1.253071,1.22286 1.559604,1.22287 0.306533,0 0.678426,0.32401 0.83297,0.72664 0.154486,0.40263 0.313282,4.48597 0.354455,9.07405 l 0.07089,8.34743 h -1.045643 l 0.549406,2.07356 -2.552079,5.79535 c -1.400468,3.18215 -3.365739,7.04637 -4.359802,8.59555 -0.99412,1.54918 -1.984609,2.8179 -2.197624,2.81792 h -0.372178 l -0.141782,1.73683 c -0.07276,0.95503 -0.170563,1.91205 -0.230396,2.12673 -0.05989,0.21468 0.208759,0.97318 0.602574,1.68366 l 0.708911,1.29377 -1.79,3.52683 c -0.98601,1.94084 -2.325625,4.29244 -2.977426,5.22822 -0.651744,0.93576 -3.343989,4.12585 -5.972574,7.0891 -2.628585,2.96325 -5.837087,6.79136 -7.142277,8.50693 -1.305133,1.71557 -2.91385,4.19012 -3.58,5.49406 L 1.134257,91.29 1.789999,99.07029 -9.9999999e-7,102.54396 6.061187,112.06108 l 3.774951,3.63317 -0.194951,4.5902 h 0.921584 l 1.524159,3.54455 c 0.838329,1.94951 1.777578,3.99541 2.073564,4.53703 0.295985,0.54163 0.531683,1.62628 0.531683,2.4103 v 1.41782 l 2.42802,2.42802 -1.169703,6.36248 1.15198,2.1799 -0.797525,9.72983 -1.293762,1.70138 c -0.712257,0.93577 -1.896847,2.84983 -2.640693,4.25347 l -1.346931,2.55208 v 6.52198 c 0.0042,3.58709 0.23981,9.02205 0.513961,12.06918 l 0.496237,5.5295 -1.79,2.23307 c -0.983231,1.22347 -1.789999,2.4775 -1.789999,2.8002 0,0.32264 0.51155,1.42446 1.134257,2.44574 0.62265,1.02129 1.133066,2.18067 1.134257,2.56983 0.0011,0.38911 0.864759,1.92041 1.91406,3.40278 l 1.896336,2.69386 0.726634,2.99512 1.914059,-0.42535 c 1.057071,-0.23842 2.163455,-0.59441 2.463466,-0.7798 l 0.549405,-0.33671 4.253466,1.1874 1.47099,-2.02039 4.554752,2.05584 0.549406,2.09128 3.243267,0.76211 5.263666,5.08641 2.19762,-0.70891 1.87862,2.09129 c 0.95763,5.01665 1.98957,8.17538 3.76467,13.04339 l 2.10156,-2.12617 4.4307,4.30666 4.99782,7.99295 1.20515,8.40059 1.09881,0.69122 0.72663,5.29908 c -0.58964,0.56395 -0.97477,1.2322 -1.24059,1.93181 2.35786,0.81247 4.80481,1.35436 7.21317,2.00264 l -0.49624,-2.09128 1.77227,-1.77228 -0.61687,-2.98769 1.14856,-0.53912 v -2.35715 l 6.65691,0.97194 0.14863,-1.41498 c 0,-1.02503 -0.29386,-2.68553 -0.65574,-3.68634 l -0.65574,-1.82547 2.321676,-4.67882 -0.389896,-6.39789 -0.58485,-2.85339 -1.13426,-0.69116 -0.88614,-5.65359 -0.90386,-5.65354 -0.76208,-0.99248 -3.24327,-0.95703 -1.50643,-4.3598 2.10901,-1.32923 2.03812,0.72666 -2.69386,-2.94198 0.70891,-2.83565 -2.87109,-3.1192 1.29376,-5.86627 0.54941,-0.67346 -0.76208,-3.45592 -2.46347,-0.0354 -2.19762,-1.66594 h -2.09129 l -0.58485,-1.55961 c -0.32497,-0.85778 -1.04553,-2.07002 -1.61277,-2.69386 -0.56719,-0.62384 -1.2028,-1.66889 -1.4001,-2.32171 l -0.35446,-1.1874 2.37485,-4.00534 c 0.4608,-0.54586 1.15485,-2.01331 1.52416,-3.26099 0.36932,-1.24769 0.90281,-3.41695 1.20515,-4.8206 0.30228,-1.40364 0.63036,-3.09363 0.63802,-3.29643 l -6.80554,-1.6128 1.64821,-7.85116 -1.3292,-3.98765 0.35445,-5.65357 1.13426,-3.15465 c 0.4069,-0.34352 1.37845,-0.85178 2.10901,-1.06337 v -3.29643 L 32.397226,129.60667 44.147423,83.6338 c 0.28833,-5.19135 0.5068,-8.15391 -0.69119,-13.34525 l 4.2003,0.37218 1.75455,1.89634 2.6407,-1.75456 2.87109,-3.56228 -2.10901,-3.20782 2.71158,-2.7293 0.60257,-3.20783 1.22288,0.37218 -0.83297,-2.55208 -0.2304,-10.91722 -6.13208,-1.6305 -0.12406,-1.52416 1.96723,-2.4103 -0.54941,-5.63584 -1.31148,-1.59505 0.33673,-1.98495 -1.18743,-0.74435 4.23575,-6.3802 0.30128,-8.29426 1.96723,0.2304 1.64822,-2.94198 1.82545,0.95703 0.23039,-1.08109 1.98495,-0.0355 2.05584,-2.83564 -0.35445,-1.91406 z"
     style="fill:#3F72AF;fill-opacity:1"
     id="CA_1"
     inkscape:connector-curvature="0" />
</svg>
