<?xml version="1.0" encoding="UTF-8" standalone="no"?>
<svg
   xmlns:dc="http://purl.org/dc/elements/1.1/"
   xmlns:cc="http://creativecommons.org/ns#"
   xmlns:rdf="http://www.w3.org/1999/02/22-rdf-syntax-ns#"
   xmlns:svg="http://www.w3.org/2000/svg"
   xmlns="http://www.w3.org/2000/svg"
   xmlns:sodipodi="http://sodipodi.sourceforge.net/DTD/sodipodi-0.dtd"
   xmlns:inkscape="http://www.inkscape.org/namespaces/inkscape"
   version="1.0"
   width="77.59375"
   height="129.15625"
   id="svg2"
   sodipodi:docname="CA_23.svg"
   inkscape:version="0.92.2 5c3e80d, 2017-08-06">
  <metadata
     id="metadata128">
    <rdf:RDF>
      <cc:Work
         rdf:about="">
        <dc:format>image/svg+xml</dc:format>
        <dc:type
           rdf:resource="http://purl.org/dc/dcmitype/StillImage" />
      </cc:Work>
    </rdf:RDF>
  </metadata>
  <defs
     id="defs126" />
  <sodipodi:namedview
     pagecolor="#ffffff"
     bordercolor="#666666"
     borderopacity="1"
     objecttolerance="10"
     gridtolerance="10"
     guidetolerance="10"
     inkscape:pageopacity="0"
     inkscape:pageshadow="2"
     inkscape:window-width="640"
     inkscape:window-height="480"
     id="namedview124"
     showgrid="false"
     inkscape:zoom="0.12542268"
     inkscape:cx="1192.6637"
     inkscape:cy="174.53192"
     inkscape:window-x="0"
     inkscape:window-y="0"
     inkscape:window-maximized="0"
     inkscape:current-layer="svg2" />
  <path
     d="m 0,0 0.78125,7.46875 1.875,1.5625 c 1.03478,0.86391 2.17691,1.56251 2.53125,1.5625 h 0.625 l 0.90625,2.125 c 0.4972,1.1697 1.07232,2.78268 1.28125,3.5625 0.20887,0.7798 1.13871,2.73743 2.0625,4.375 l 1.6875,3 h 0.53125 c 0.29519,0 1.571,0.62255 2.8125,1.40625 l 2.25,1.4375 v 6 l -3.21875,5.0625 0.59375,1.40625 c 0.33943,0.7667 1.58029,2.33159 2.75,3.46875 l 2.125,2.0625 v -1 h 1.59375 l 4.09375,3.59375 v 1.5 c 0,0.82177 -0.39935,2.80454 -0.875,4.40625 l -0.875,2.90625 -1.75,1.78125 0.1875,0.75 -1.28125,2.84375 0.4375,0.3125 c 0.25039,0.18419 0.85647,1.05374 1.3125,1.9375 l 0.8125,1.625 -1.59375,3.03125 -1.59375,3.03125 c -0.92255,2.01688 -1.84875,4.11425 -2.1875,6.34375 -0.0216,1.30437 0.0156,2.09661 0.0625,2.625 -0.0961,0.13505 -0.18331,0.26368 -0.25,0.4375 L 17.375,81.5 18.03125,83.1875 H 20.25 l 3.28125,3.3125 0.75,4.53125 4.03125,0.375 c 2.22609,0.199 5.97298,0.63306 8.3125,0.96875 l 4.25,0.59375 2.5,1.5625 h 2.96875 L 49.625,97.8125 50.21875,97.1875 53,99.78125 l 4.6875,0.40625 3.34375,2.375 1.625,-1.3125 6,1.25 2.09375,1.96875 c 1.14889,1.08509 2.30371,1.96875 2.5625,1.96875 0.25872,-3e-5 0.96191,0.66881 1.5625,1.46875 l 1.09375,1.4375 1.625,-3.09375 -8.5,-7.1875 -15.53125,-2.78125 -13.25,-7.3125 -15.6875,-0.8125 -0.53125,-1.375 c -0.2906,-0.76438 -1.57962,-2.65138 -2.875,-4.1875 -0.69388,-0.82298 -1.35761,-1.55027 -1.875,-2.0625 -0.67119,-1.39628 1.34168,-7.37628 1.90625,-8.125 0.25237,-0.0672 0.90446,-0.85739 1.46875,-1.8125 0.5901,-0.99897 2.18132,-2.90024 3.53125,-4.25 l 2.4375,-2.46875 3.125,1.65625 c 1.41939,-0.87122 3.06381,-1.49823 4.21875,-2.71875 -0.01,-0.17662 0.0582,-0.23853 -0.6665,-1.06104 C 36.10205,61.3776 34.46631,59.60628 33.6875,58.96875 33.57491,58.83721 33.47222,58.70656 33.375,58.5625 33.3515,58.5441 33.3361,58.5184 33.3125,58.5 c -0.4654,-0.364 -0.92995,-0.73541 -1.25,-1.21875 -0.33625,-0.50781 -0.48992,-1.14084 -0.25,-1.90625 0.0976,-0.43326 0.12347,-1.0135 0,-1.34375 -0.0617,-0.16513 -0.13534,-0.27116 -0.25,-0.3125 -0.11466,-0.0413 -0.31144,-0.0128 -0.625,0.125 H 30.875 30.8125 C 30.37192,53.82015 29.74089,53.95961 29.125,54 28.50911,54.0404 27.85499,53.9729 27.4375,53.4375 L 27.28125,53.21875 27.5,53.0625 c 0.21857,-0.13663 0.31037,-0.25041 0.34375,-0.34375 0.0334,-0.0933 0.025,-0.18349 -0.0312,-0.3125 -0.11247,-0.25801 -0.4277,-0.59692 -0.75,-0.9375 h -0.0313 v -0.0312 c -0.67091,-1.00523 -0.58157,-2.48037 0.0937,-3.5 -0.002,-0.008 0.002,-0.0228 0,-0.0312 -0.0883,-0.37619 -0.3002,-0.77145 -0.5,-1.1875 -0.20429,-0.42538 -0.41114,-0.86936 -0.40625,-1.375 v -0.125 l 0.0937,-0.0625 c 0.20483,-0.18054 0.275,-0.36221 0.28125,-0.53125 0.006,-0.16904 -0.0679,-0.34943 -0.1875,-0.5625 -0.23925,-0.42615 -0.68581,-0.86183 -0.96875,-1.25 -0.31384,-0.38462 -0.60599,-1.03754 -0.65625,-1.65625 -0.0251,-0.30935 0.0234,-0.63004 0.21875,-0.875 0.19536,-0.24496 0.51984,-0.34876 0.9375,-0.3125 h 0.0625 l 0.0625,0.0312 c 0.34739,0.19674 0.55005,0.16119 0.6875,0.0937 0.13745,-0.0674 0.24333,-0.22192 0.28125,-0.4375 0.0379,-0.21558 -0.0124,-0.47716 -0.125,-0.6875 -0.11261,-0.21034 -0.29221,-0.37213 -0.5625,-0.4375 h -0.0312 -0.0312 c -0.88946,-0.49077 -1.90657,-0.36698 -3,-0.375 -0.0102,3.8e-4 -0.021,-3e-4 -0.0312,0 -1.28724,0.0373 -2.55829,-0.58941 -3.46875,-1.40625 l -0.0312,-0.0312 -0.0312,-0.0312 c -0.61367,-1.07102 -0.36724,-2.56108 0.125,-3.625 0.0532,-0.22446 0.0356,-0.41661 -0.0625,-0.625 -0.0981,-0.20839 -0.28499,-0.42581 -0.46875,-0.65625 -0.36752,-0.46087 -0.83135,-0.97129 -0.8125,-1.6875 -0.10548,-1.35591 0.0827,-2.57131 -0.71875,-3.59375 l -0.0625,-0.0625 v -0.0937 c 0.038,-0.569 -0.10066,-1.03854 -0.375,-1.3125 -0.27434,-0.27396 -0.66521,-0.38701 -1.25,-0.21875 h -0.06265 -0.0312 c -1.12981,-0.10283 -2.45972,-0.50451 -3.125,-1.59375 -0.008,-0.0134 -0.0233,-0.0177 -0.0312,-0.0312 -0.70719,-0.87015 -1.45179,-1.73551 -1.6875,-2.9375 -0.01,-0.018 -0.0212,-0.0443 -0.0312,-0.0625 -0.27766,-0.50451 -0.67348,-1.05902 -1,-1.65625 -0.33828,-0.61874 -0.60798,-1.28163 -0.5,-1.96875 v -0.0625 l 0.0625,-0.0625 c 0.23695,-0.23112 0.54909,-0.31657 0.84375,-0.34375 0.29466,-0.0272 0.5863,0.003 0.84375,0 0.25745,-0.003 0.47331,-0.0555 0.59375,-0.125 0.10324,-0.0595 0.15698,-0.17333 0.1875,-0.375 -0.19498,-0.33144 -0.50182,-0.62826 -0.75,-1 -0.26093,-0.39084 -0.38756,-0.91082 -0.125,-1.53125 0.005,-0.0153 0.0258,-0.0162 0.0312,-0.0312 0.20699,-0.56534 0.68214,-0.99056 0.9375,-1.34375 0.13107,-0.18129 0.19237,-0.32276 0.1875,-0.46875 -0.005,-0.14599 -0.0863,-0.31295 -0.34375,-0.5625 V 10.625 C 11.28164,9.58816 9.85323,8.85092 9.3751,7.34375 c -0.003,-0.009 0.003,-0.0222 0,-0.0312 -0.55593,-1.19231 -0.93061,-2.48785 -1,-3.8125 V 3.40635 L 8.4063,3.34385 C 8.54013,3.13351 8.53708,3.01519 8.5,2.8751 8.463,2.73501 8.37147,2.57708 8.21875,2.40635 8.04461,2.21167 7.81942,1.99493 7.625,1.7501 Z m 24.1875,114.9375 c -0.29337,0 -0.70838,0.27355 -0.90625,0.59375 -0.19787,0.32024 -0.66489,0.54526 -1.03125,0.5 -0.36631,-0.0452 -1.3853,-0.0369 -2.28125,0 l -1.625,0.0625 1.40625,1.6875 h 2.5625 l 1.1875,1.40625 3.46875,0.25 v -1.625 l -2.25,-1.4375 v -1.4375 z m 22.0625,4.46875 v 0.78125 c -1.1e-4,0.42645 0.32885,1.10647 0.71875,1.5 l 0.71875,0.71875 v 4.15625 l 5.09375,2.5 11.34375,-0.21875 1,-1 c 0.54677,-0.54584 1,-1.14418 1,-1.34375 -1.1e-4,-0.1995 -0.45413,-0.7106 -1,-1.125 -0.54597,-0.41432 -1.44433,-0.77132 -2,-0.78125 h -1.03125 l -0.65625,1.6875 h -2.5 L 54.625,122.3125 h -2.75 L 50.34375,121.25 c -0.84523,-0.59753 -2.11067,-1.26544 -2.8125,-1.46875 z M 28.625,120.75 29.5,121.71875 c 0.47673,0.52682 1.17232,1.83478 1.53125,2.90625 0.35898,1.07148 1.14357,2.54529 1.78125,3.25 l 1.1875,1.28125 0.875,-0.25 c 0.48893,-0.13165 1.90857,-0.42367 3.15625,-0.65625 1.24756,-0.23261 2.81893,-0.37738 3.46875,-0.3125 l 1.15625,0.125 v -3.46875 h -1.9375 L 39.5,123.125 l 0.5625,-2.21875 z"
     style="opacity:1;fill:#3F72AF;fill-opacity:1"
     id="CA_23"
     inkscape:connector-curvature="0" />
</svg>
