<?xml version="1.0" encoding="UTF-8" standalone="no"?>
<svg
   xmlns:dc="http://purl.org/dc/elements/1.1/"
   xmlns:cc="http://creativecommons.org/ns#"
   xmlns:rdf="http://www.w3.org/1999/02/22-rdf-syntax-ns#"
   xmlns:svg="http://www.w3.org/2000/svg"
   xmlns="http://www.w3.org/2000/svg"
   xmlns:sodipodi="http://sodipodi.sourceforge.net/DTD/sodipodi-0.dtd"
   xmlns:inkscape="http://www.inkscape.org/namespaces/inkscape"
   version="1.0"
   width="175.30679"
   height="284.20526"
   id="svg2"
   sodipodi:docname="CA_25.svg"
   inkscape:version="0.92.2 5c3e80d, 2017-08-06">
  <metadata
     id="metadata144">
    <rdf:RDF>
      <cc:Work
         rdf:about="">
        <dc:format>image/svg+xml</dc:format>
        <dc:type
           rdf:resource="http://purl.org/dc/dcmitype/StillImage" />
      </cc:Work>
    </rdf:RDF>
  </metadata>
  <defs
     id="defs142" />
  <sodipodi:namedview
     pagecolor="#ffffff"
     bordercolor="#666666"
     borderopacity="1"
     objecttolerance="10"
     gridtolerance="10"
     guidetolerance="10"
     inkscape:pageopacity="0"
     inkscape:pageshadow="2"
     inkscape:window-width="640"
     inkscape:window-height="480"
     id="namedview140"
     showgrid="false"
     inkscape:zoom="0.12542268"
     inkscape:cx="1082.7005"
     inkscape:cy="170.53877"
     inkscape:window-x="0"
     inkscape:window-y="0"
     inkscape:window-maximized="0"
     inkscape:current-layer="svg2" />
  <path
     d="m 21.93642,284.14543 -1.42156,-0.0598 -2.62348,-2.61702 1.421,-2.27538 -1.50012,-1.80749 -1.40035,1.16227 -1.42366,-1.71539 H 9.6827 L 8.60516,277.85424 3.47905,276.63543 0,257.74794 c 13.28321,2.65984 11.19666,3.12 20.13624,5.47359 l 1.47522,-3.33273 c 1.54747,-0.62418 2.45453,-1.27621 4.72594,-1.2043 l 0.59327,2.26851 h 2.766 l 1.8772,-2.07427 c -0.0438,-2.5299 -0.15853,-3.42937 0.71923,-7.58977 l 27.71643,4.98523 c 3.47043,-17.46285 6.51552,-32.9407 9.34793,-50.8998 h 1.34829 v -2.26851 h -1.8772 l 1.56375,-1.84317 0.76046,-5.14624 -18.09719,-3.12108 0.63416,-4.03229 1.73967,-0.67913 -0.18959,-7.08344 c -0.88436,-2.16019 -1.23705,-4.53306 -1.83785,-9.63523 l 1.59155,-1.75107 -2.01914,-3.72093 -0.10025,-5.67248 1.30845,0.1504 0.72025,-2.2693 -2.42243,-3.40198 h 1.29039 l -0.36246,-2.55208 -2.55208,-0.36245 c 0.10943,-0.95845 0.14366,-2.1425 -0.94998,-2.8002 l -0.24158,-4.73292 -1.83622,-1.44402 1.90271,-2.10246 -2.02601,-1.83347 -0.25294,-3.05654 -1.27189,-1.5325 h 1.97253 l -1.63027,-8.50693 h 1.39156 l 0.77283,-5.61899 c -0.84359,-0.98397 -1.43654,-4.44924 -1.70366,-9.94472 l -7.17514,-5.98718 h -2.09615 l -0.58959,-6.37866 1.32724,-1.47851 -1.38408,-4.61966 h -1.95007 l -1.41204,-1.70138 h 1.36327 l -0.70767,-3.22203 1.75181,-1.45389 v -1.10211 c 0,-0.60614 -0.26417,-1.59573 -0.58709,-2.19904 L 34.93672,81.17322 H 32.141 v -0.76563 c 0,-0.42103 -0.77929,-1.84141 -1.73184,-3.1563 l -1.73184,-2.39073 -1.3454,0.44849 -1.87793,-2.13365 -0.86294,-5.50399 -2.18312,-4.61217 -1.79723,-0.29905 c -0.98844,-0.16452 -2.29789,-0.23598 -2.90976,-0.15885 l -1.11254,0.14019 -0.41105,-1.98948 3.35626,-1.9262 0.0297,-2.15044 c 0.0163,-1.18269 0.18982,-2.40939 0.38548,-2.72602 l 0.45602,-1.20225 -3.05337,-2.00475 -1.18647,-4.05837 1.33456,-2.49361 -0.72167,-3.84672 -2.63142,-2.83938 H 11.42626 L 10.30658,35.04501 9.19626,34.43149 C 8.58563,34.09405 7.7562,33.51716 7.35309,33.14955 6.95003,32.78194 6.62025,32.21668 6.62025,31.89348 L 6.57015,31.03013 4.33736,30.08399 5.54903,27.8199 4.79906,22.81874 C 6.03017,21.75384 6.69055,21.08037 7.1874,19.59518 V 18.22193 H 9.2962 L 11.95309,12.843 C 11.13055,9.34285 10.35814,6.94543 10.41284,2.56804 L 12.77225,3e-5 l 162.53462,222.56971 -1.06978,0.61817 c -0.58839,0.34 -3.00516,1.95461 -5.37065,3.58806 -2.36544,1.6335 -5.06644,3.40152 -6.00221,3.92906 -0.93576,0.52749 -2.72221,1.15519 -3.9699,1.39486 -1.24768,0.23967 -3.03414,0.61131 -3.9699,0.82591 -0.93576,0.21454 -2.05947,0.67488 -2.49712,1.02293 l -0.79574,0.6328 -4.33423,0.0703 c -2.98702,2.27748 -5.80698,4.05373 -8.79401,4.99471 -7.2303,5.61202 -9.17029,8.77376 -12.50246,9.81938 l -6.52266,0.79335 -1.44527,1.44527 -6.21029,1.43257 -8.01273,3.78729 c -4.62929,0.72002 -6.58558,1.05026 -9.21012,2.32721 h -4.756 l -7.95617,3.85143 -1.33532,1.24274 -1.9224,-4.03137 c -2.578,0.7646 -5.41006,1.70705 -7.46844,3.46317 l -1.80644,7.54468 2.90359,2.39113 0.0281,6.90876 -2.77967,-0.53134 -2.40099,2.57709 -2.04535,-2.52588 -1.9376,4.06325 h -1.36088 l -1.73161,-2.64276 -6.07217,-2.75131 -0.43353,5.32017 -4.51923,-2.38693 -3.45013,1.30224 -1.60991,-1.33604 -7.42966,-0.24216 -2.5353,-3.17955 -1.41708,0.64567 c -0.77946,0.35514 -2.32721,1.44476 -3.43952,2.42136 l -2.02233,1.77562 -1.87181,0.53685 c -1.0295,0.29524 -2.51158,0.5099 -3.29343,0.47701 z"
     style="fill:#3F72AF;fill-opacity:1"
     id="CA_25"
     inkscape:connector-curvature="0" />
</svg>
