<?xml version="1.0" encoding="UTF-8" standalone="no"?>
<svg
   xmlns:dc="http://purl.org/dc/elements/1.1/"
   xmlns:cc="http://creativecommons.org/ns#"
   xmlns:rdf="http://www.w3.org/1999/02/22-rdf-syntax-ns#"
   xmlns:svg="http://www.w3.org/2000/svg"
   xmlns="http://www.w3.org/2000/svg"
   xmlns:sodipodi="http://sodipodi.sourceforge.net/DTD/sodipodi-0.dtd"
   xmlns:inkscape="http://www.inkscape.org/namespaces/inkscape"
   version="1.0"
   width="93.816658"
   height="122.20938"
   id="svg2"
   sodipodi:docname="CA_24.svg"
   inkscape:version="0.92.2 5c3e80d, 2017-08-06">
  <metadata
     id="metadata136">
    <rdf:RDF>
      <cc:Work
         rdf:about="">
        <dc:format>image/svg+xml</dc:format>
        <dc:type
           rdf:resource="http://purl.org/dc/dcmitype/StillImage" />
      </cc:Work>
    </rdf:RDF>
  </metadata>
  <defs
     id="defs134" />
  <sodipodi:namedview
     pagecolor="#ffffff"
     bordercolor="#666666"
     borderopacity="1"
     objecttolerance="10"
     gridtolerance="10"
     guidetolerance="10"
     inkscape:pageopacity="0"
     inkscape:pageshadow="2"
     inkscape:window-width="640"
     inkscape:window-height="480"
     id="namedview132"
     showgrid="false"
     inkscape:zoom="0.12542268"
     inkscape:cx="1173.1208"
     inkscape:cy="222.70827"
     inkscape:window-x="0"
     inkscape:window-y="0"
     inkscape:window-maximized="0"
     inkscape:current-layer="svg2" />
  <path
     d="m 30.209495,0 c -2.25156,1.43875 -3.2426,2.35228 -4.39121,4.15869 l -6.72472,-0.74373 -0.31513,1.03116 1.20515,3.20382 -1.1948,2.61469 -1.1446,-1.14424 c 0,-0.49074 -0.40128,-0.90383 -0.56387,-0.90383 l -4.45165,2.92423 -3.4172599,-1.75323 -3.66968,3.84553 -3.77715,5.05 v 0.7975 l -0.56713,1.68369 c -1.89936997,2.83564 -1.21313997,3.52017 -0.17722,5.06871 l 1.09881,1.55961 3.04831,3.58 v 1.5064 l 15.5960399,0.79756 13.25664,7.31947 15.52515,2.78251 9.07405,7.70937 -1.84316,3.58 1.41782,1.41783 c 0.78025,0.78019 1.41771,1.67983 1.41782,1.98495 v 0.54943 l 2.10904,0.67347 1.24059,7.53215 4.8206,4.90923 h 0.65571 c 0.35491,0 2.01841,0.99798 3.70409,2.21532 l 3.5387,2.53053 -0.0151,-1.42457 9.05957,-4.54418 6.06118,1.29379 0.77913,-4.15297 2.25144,-0.16622 -0.51202,-4.54117 -5.3365,-30.8564 -5.14633,-1.05951 -0.0864,-1.47351 -12.06468,-2.39391 -0.12729,-2.99251 -1.82283,-0.1863 0.30126,-1.38913 -4.87312,-0.89067 v -1.48871 l -7.08911,-1.25829 c -2.50554,-2.73844 -4.3283,-4.68902 -7.35906,-6.79715 l -2.62908,-0.14502 -4.52937,-4.34466 c -1.9515,-1.38476 -3.03946,-1.81838 -3.20009,-2.63749 l -2.34742,-0.33925 -2.18986,-2.91295 -1.76038,-0.27012 -0.83268,-1.49575 z m 3.47382,117.10527 0.47849,2.55208 3.59775,2.55203 h 3.68634 l -1.18746,-2.56978 -3.68633,-2.53433 z"
     style="opacity:1;fill:#3F72AF"
     id="CA_24"
     inkscape:connector-curvature="0" />
</svg>
