<?xml version="1.0" encoding="UTF-8" standalone="no"?>
<svg
   xmlns:dc="http://purl.org/dc/elements/1.1/"
   xmlns:cc="http://creativecommons.org/ns#"
   xmlns:rdf="http://www.w3.org/1999/02/22-rdf-syntax-ns#"
   xmlns:svg="http://www.w3.org/2000/svg"
   xmlns="http://www.w3.org/2000/svg"
   xmlns:sodipodi="http://sodipodi.sourceforge.net/DTD/sodipodi-0.dtd"
   xmlns:inkscape="http://www.inkscape.org/namespaces/inkscape"
   version="1.0"
   width="87.719131"
   height="119.31906"
   id="svg2"
   sodipodi:docname="CA_21.svg"
   inkscape:version="0.92.2 5c3e80d, 2017-08-06">
  <metadata
     id="metadata112">
    <rdf:RDF>
      <cc:Work
         rdf:about="">
        <dc:format>image/svg+xml</dc:format>
        <dc:type
           rdf:resource="http://purl.org/dc/dcmitype/StillImage" />
      </cc:Work>
    </rdf:RDF>
  </metadata>
  <defs
     id="defs110" />
  <sodipodi:namedview
     pagecolor="#ffffff"
     bordercolor="#666666"
     borderopacity="1"
     objecttolerance="10"
     gridtolerance="10"
     guidetolerance="10"
     inkscape:pageopacity="0"
     inkscape:pageshadow="2"
     inkscape:window-width="640"
     inkscape:window-height="480"
     id="namedview108"
     showgrid="false"
     inkscape:zoom="0.12542268"
     inkscape:cx="1115.5531"
     inkscape:cy="79.231051"
     inkscape:window-x="0"
     inkscape:window-y="0"
     inkscape:window-maximized="0"
     inkscape:current-layer="svg2" />
  <path
     d="m 18.23506,28.43578 2.04326,0.55091 0.60818,-2.09685 1.02378,0.63275 c 0.75673,0.40759 0.86143,0.33784 1.44369,-0.53254 l -0.0616,-1.48451 1.68474,0.63484 2.95587,-2.04971 -0.79882,-0.60581 c -0.99077,-0.75139 -1.22177,-3.09443 1.76128,-0.76506 0.15032,-1.37324 0.33878,-1.37324 0.98499,-0.19072 l 1.04913,1.66656 0.43092,-1.28846 1.37799,-0.15256 0.4959,-1.15751 1.53091,1.30015 3.94965,-2.84347 v -0.94183 c 0,-0.51802 0.22968,-1.08384 0.51041,-1.25733 l 0.51042,-0.31544 0.0381,-2.32687 0.95365,-3.62378 L 58.22127,0 59.93706,2.18815 61.36847,1.76763 c 1.85768,2.46497 3.14317,4.5866 3.16984,6.11699 l 2.99626,0.0865 0.94776,1.70643 0.20386,2.126 -1.89413,1.55472 0.64992,2.97227 h -1.56305 l 1.59311,2.15895 c 0.4456,0.44559 0.15018,0.33335 0.62572,0.33335 l 1.53208,-0.0381 1.15366,4.17815 -1.21535,1.2322 0.57022,7.0176 2.29663,0.0129 7.08108,5.95729 c 0.43874,5.85089 0.76304,8.9363 1.58324,9.69472 l -0.56877,5.23925 -1.56868,0.0953 1.68131,8.39526 -2.25434,-0.0135 1.56445,1.85661 0.14719,3.04565 2.05764,1.9309 -2.04868,2.03594 2.04048,1.59579 0.23105,4.87486 c 0.99519,0.60819 0.97888,1.14889 0.8412,2.67413 l 2.80028,0.48552 0.22376,1.77687 -1.70254,-0.0276 2.85224,3.90292 -0.60898,1.80154 -1.37676,-0.17036 v 6.24879 l 1.94344,3.64278 -1.46115,1.33571 c 1.40523,13.76676 1.94517,5.53018 1.80522,16.63921 l -1.58659,0.60887 -0.7143,4.46699 C 60.29911,114.49662 37.85915,109.92148 11.2163,104.29556 l 6.18482,-28.65542 2.61667,0.65673 1.71233,-8.91004 -2.85564,-0.0218 1.50997,-5.78948 -3.32824,-0.0721 L 12.6444,64.50748 9.1438,63.94642 7.73707,64.7282 C 5.18893,64.05014 2.59463,63.61686 -4e-5,63.17767 l 3.16918,-9.71917 5.29794,0.0736 0.60915,-2.77683 1.8917,-1.22812 1.48919,0.94058 0.005,2.28984 2.30556,0.14661 1.28136,3.29263 3.4774,0.17093 2.99229,-5.3538 c -0.69611,-1.8928 -1.7031,-3.5039 -3.11823,-4.9338 l -3.18654,1.34841 -3.41049,-1.41272 -0.35253,-1.4878 c -0.1939,-0.81831 -0.7177,-1.90907 -1.16397,-2.42397 l -0.8115,-0.93616 c 1.30814,0.10951 2.00713,-3.89277 2.21119,-6.9813 1.12864,-0.19724 2.36497,-1.43092 3.06288,-2.65115 l -0.24229,-0.46193 z"
     style="opacity:1;fill:#3F72AF;fill-opacity:1"
     id="CA_21"
     inkscape:connector-curvature="0" />
</svg>
