<?xml version="1.0" encoding="UTF-8" standalone="no"?>
<svg
   xmlns:dc="http://purl.org/dc/elements/1.1/"
   xmlns:cc="http://creativecommons.org/ns#"
   xmlns:rdf="http://www.w3.org/1999/02/22-rdf-syntax-ns#"
   xmlns:svg="http://www.w3.org/2000/svg"
   xmlns="http://www.w3.org/2000/svg"
   xmlns:sodipodi="http://sodipodi.sourceforge.net/DTD/sodipodi-0.dtd"
   xmlns:inkscape="http://www.inkscape.org/namespaces/inkscape"
   version="1.0"
   width="122.69478"
   height="64.652672"
   id="svg2"
   sodipodi:docname="CA_3.svg"
   inkscape:version="0.92.2 5c3e80d, 2017-08-06">
  <metadata
     id="metadata184">
    <rdf:RDF>
      <cc:Work
         rdf:about="">
        <dc:format>image/svg+xml</dc:format>
        <dc:type
           rdf:resource="http://purl.org/dc/dcmitype/StillImage" />
      </cc:Work>
    </rdf:RDF>
  </metadata>
  <defs
     id="defs182" />
  <sodipodi:namedview
     pagecolor="#ffffff"
     bordercolor="#666666"
     borderopacity="1"
     objecttolerance="10"
     gridtolerance="10"
     guidetolerance="10"
     inkscape:pageopacity="0"
     inkscape:pageshadow="2"
     inkscape:window-width="640"
     inkscape:window-height="480"
     id="namedview180"
     showgrid="false"
     inkscape:zoom="0.12542268"
     inkscape:cx="1192.978"
     inkscape:cy="-72.110019"
     inkscape:window-x="0"
     inkscape:window-y="0"
     inkscape:window-maximized="0"
     inkscape:current-layer="svg2" />
  <path
     d="m 28.905866,0 -2.30396,2.30396 1.45327,2.71161 h 0.7266 c 0.40057,0 1.37693,-0.28992 2.17993,-0.65577 l 1.47096,-0.67347 1.32924,1.32924 h 2.37485 l 1.1874,1.1874 -0.51393,5.38772 0.90383,0.76211 c 0.50128,0.41598 0.92147,1.07459 0.92158,1.47096 v 0.72666 l -1.70138,0.63802 v 3.88126 l -1.41782,1.15201 -5.22819,0.7798 -0.69122,-1.80772 h -1.6305 l 0.56713,2.16217 -1.82541,2.76476 -4.413,1.47096 -4.21802,-0.7975 2.90653,-13.18574 -0.56713,-0.92158 h -3.61544 L 13.628836,9.03861 9.428516,8.80824 6.025736,10.54507 4.607916,10.03108 V 8.56012 C 3.779446,8.29085 2.922626,8.12417 2.073586,8.02844 L 0,12.19326 l 0.70891,2.83565 5.671286,1.45326 2.60527,-2.44574 7.2309,0.33676 0.42534,2.19763 -2.58752,7.70937 2.88878,8.34746 3.6332,-0.53169 1.01017,-2.69386 h 2.05584 l 2.60527,1.84317 0.63802,-0.63802 c 0.34799,-0.34805 0.93384,-0.63802 1.29374,-0.63802 0.36001,0 1.3606,0.66246 2.23307,1.47096 l 1.59505,1.47102 6.6992,0.46079 h 1.80773 c 0.99542,-0.003 2.99217,-0.37328 4.44844,-0.81524 l 2.65842,-0.79756 2.3571,0.62033 v 0.63802 l 1.25834,13.11485 9.74753,18.52027 0.60257,-0.74436 c 0.32542,-0.41406 1.33077,-1.14486 2.25077,-1.61274 0.91999,-0.46788 2.37853,-1.51804 3.22554,-2.33941 l 1.52416,-1.48871 0.3899,-2.69386 2.56983,-0.35446 c 5.87072,-5.06168 10.43459,-11.8848 16.80119,-16.37584 l 3.56003,-3.57892 7.12677,-1.01131 5.104164,5.81307 2.55208,-0.85069 c 1.40211,-0.47083 3.18998,-0.9247 3.9699,-0.99248 0.7798,-0.0678 1.89472,-0.0839 2.48119,-0.0354 l 1.06336,0.0886 -0.60257,3.70403 1.9366,2.38274 1.35983,-1.54974 v -2.26851 l 2.55208,-0.0177 2.30396,-4.8206 -0.7798,-3.40277 c -0.43459,-1.86319 -0.79387,-4.23061 -0.7798,-5.28139 l 0.0354,-1.91406 2.46349,-2.62297 -10.15518,-14.17821 -0.51393,0.3722 -2.21537,2.23307 c -1.40716,1.42729 -2.5522,2.82323 -2.55208,3.08376 v 0.4608 h -0.7975 c -0.43607,0 -1.90362,0.64176 -3.26099,1.41782 l -2.46349,1.41782 h -3.119214 v 2.09129 l -2.16218,1.9672 -3.26727,-0.41106 -0.24184,2.02386 -1.97805,0.26865 -0.96393,1.37954 h -17.17334 c -1.26069,-0.85455 -2.76074,-1.49371 -3.70408,-2.71156 0,-0.22906 -0.9855,-0.98465 -2.19763,-1.66594 l -2.21532,-1.24059 h -2.95973 v 1.24059 c -2.79211,-0.29253 -5.63828,-0.30585 -8.38284,-0.92158 L 50.917496,6.7347 Z"
     style="opacity:1;fill:#3F72AF;fill-opacity:1"
     id="CA_3"
     inkscape:connector-curvature="0" />
</svg>
