<?xml version="1.0" encoding="UTF-8" standalone="no"?>
<svg
   xmlns:dc="http://purl.org/dc/elements/1.1/"
   xmlns:cc="http://creativecommons.org/ns#"
   xmlns:rdf="http://www.w3.org/1999/02/22-rdf-syntax-ns#"
   xmlns:svg="http://www.w3.org/2000/svg"
   xmlns="http://www.w3.org/2000/svg"
   xmlns:sodipodi="http://sodipodi.sourceforge.net/DTD/sodipodi-0.dtd"
   xmlns:inkscape="http://www.inkscape.org/namespaces/inkscape"
   version="1.0"
   width="23.829741"
   height="11.86166"
   id="svg2"
   sodipodi:docname="CA_43.svg"
   inkscape:version="0.92.2 5c3e80d, 2017-08-06">
  <metadata
     id="metadata304">
    <rdf:RDF>
      <cc:Work
         rdf:about="">
        <dc:format>image/svg+xml</dc:format>
        <dc:type
           rdf:resource="http://purl.org/dc/dcmitype/StillImage" />
      </cc:Work>
    </rdf:RDF>
  </metadata>
  <defs
     id="defs302" />
  <sodipodi:namedview
     pagecolor="#ffffff"
     bordercolor="#666666"
     borderopacity="1"
     objecttolerance="10"
     gridtolerance="10"
     guidetolerance="10"
     inkscape:pageopacity="0"
     inkscape:pageshadow="2"
     inkscape:window-width="640"
     inkscape:window-height="480"
     id="namedview300"
     showgrid="false"
     inkscape:zoom="0.12542268"
     inkscape:cx="1033.7581"
     inkscape:cy="194.58525"
     inkscape:window-x="0"
     inkscape:window-y="0"
     inkscape:window-maximized="0"
     inkscape:current-layer="svg2" />
  <path
     d="m 3.44018,11.63459 c -0.7355,0 -1.50748,-0.17014 -1.71539,-0.37811 C 1.51682,11.04857 1.34669,10.33399 1.34669,9.66852 V 8.45867 L 0,7.0244 1.09448,5.19654 3.49304,4.59068 l 3.6366,2.02663 6.10571,-6.57353 3.88544,-0.0438 4.1168,3.98447 2.0519,-0.0292 0.54025,1.45661 -2.5157,2.4213 c -1.1828,1.15501 -2.4462,2.10002 -2.80746,2.10002 l -0.90502,-0.0146 -0.60031,1.94304 -1.82558,-0.97398 C 14.27603,10.39214 12.18758,9.71947 10.53462,9.3928 8.88167,9.06613 7.15272,8.7989 6.69244,8.7989 h -0.8368 l -1.07811,2.83565 z"
     style="opacity:1;fill:#3F72AF"
     id="CA_43"
     inkscape:connector-curvature="0" />
</svg>
