<?xml version="1.0" encoding="UTF-8" standalone="no"?>
<svg
   xmlns:dc="http://purl.org/dc/elements/1.1/"
   xmlns:cc="http://creativecommons.org/ns#"
   xmlns:rdf="http://www.w3.org/1999/02/22-rdf-syntax-ns#"
   xmlns:svg="http://www.w3.org/2000/svg"
   xmlns="http://www.w3.org/2000/svg"
   xmlns:sodipodi="http://sodipodi.sourceforge.net/DTD/sodipodi-0.dtd"
   xmlns:inkscape="http://www.inkscape.org/namespaces/inkscape"
   version="1.0"
   width="110.69803"
   height="221.02151"
   id="svg2"
   sodipodi:docname="CA_4.svg"
   inkscape:version="0.92.2 5c3e80d, 2017-08-06">
  <metadata
     id="metadata272">
    <rdf:RDF>
      <cc:Work
         rdf:about="">
        <dc:format>image/svg+xml</dc:format>
        <dc:type
           rdf:resource="http://purl.org/dc/dcmitype/StillImage" />
      </cc:Work>
    </rdf:RDF>
  </metadata>
  <defs
     id="defs270" />
  <sodipodi:namedview
     pagecolor="#ffffff"
     bordercolor="#666666"
     borderopacity="1"
     objecttolerance="10"
     gridtolerance="10"
     guidetolerance="10"
     inkscape:pageopacity="0"
     inkscape:pageshadow="2"
     inkscape:window-width="640"
     inkscape:window-height="480"
     id="namedview268"
     showgrid="false"
     inkscape:zoom="0.12542268"
     inkscape:cx="1157.8707"
     inkscape:cy="-112.371"
     inkscape:window-x="0"
     inkscape:window-y="0"
     inkscape:window-maximized="0"
     inkscape:current-layer="svg2" />
  <path
     d="m 46.74469,0 -11.33299,48.53833 5.20522,1.20515 -10.02582,45.40574 -7.3146,-1.62324 -1.03285,5.30957 3.79422,1.59015 1.35011,2.8841 -1.14067,0.1681 0.52765,3.26623 -1.12854,0.33251 v 2.00268 c -1.45974,0.59157 -2.56793,0.58168 -3.9699,0.33673 l -0.69116,1.5861 2.07762,1.32381 -0.6598,1.98157 1.18825,2.25062 -1.05642,1.99146 -2.55987,2.20901 -1.2406,7.81576 0.833,0.95703 10.63267,19.35843 3.38601,-1.70655 v 0.833 c 0,0.46119 -0.32377,1.55563 -0.70891,2.42799 -0.38508,0.87247 -1.15342,1.92143 -1.71908,2.33941 l -1.02792,0.76211 c 0.76231,1.73813 0.79361,1.05417 -0.24812,8.89683 l -2.3926,-0.17723 c -0.3899,0.0581 -1.07862,0.13827 -1.52416,0.17723 -0.44559,0.039 -1.20498,0.47831 -1.70138,0.97472 -0.4963,0.49641 -1.3568,0.99526 -1.89631,1.09881 -0.53962,0.10356 -1.1663,0.20649 -1.40013,0.23043 -0.23394,0.0239 -0.42546,0.42818 -0.42535,0.90383 v 0.86844 l -3.40277,0.67347 -0.98053,2.46088 -2.90392,10.90424 c -3.21207,0.19669 -4.7156,0.6264 -6.60743,1.52201 L 5.08801,186.98864 2.53593,186.35062 0,197.6958 l 16.2888,4.92432 c 0.51479,4.31358 0.63698,8.70134 1.54191,12.95538 l 6.68146,0.63802 v -0.72667 l 3.93445,-0.24811 1.86092,0.81524 c 2.59627,1.20895 4.41278,3.48767 6.82164,4.96754 l 16.21796,-0.14694 0.67347,-0.83294 c 0.37328,-0.44979 1.00694,-0.81525 1.40007,-0.81525 h 0.70891 l 0.58488,-2.17993 3.24324,0.37221 0.76211,-0.63802 c 0.42239,-0.34567 0.98663,-1.19942 1.25829,-1.91406 l 0.49623,-1.31149 h 2.90654 l 5.9726,-3.08376 3.33188,-4.09399 0.0177,-0.0177 0.0354,-0.0178 2.3926,-1.63049 -5.56495,-7.65624 39.13188,-182.96991 C 87.37785,9.72385 70.39852,5.69622 46.74465,-5e-5 Z"
     style="fill:#3F72AF;fill-opacity:1"
     id="CA_4"
     inkscape:connector-curvature="0" />
</svg>
