<?xml version="1.0" encoding="UTF-8" standalone="no"?>
<svg
   xmlns:dc="http://purl.org/dc/elements/1.1/"
   xmlns:cc="http://creativecommons.org/ns#"
   xmlns:rdf="http://www.w3.org/1999/02/22-rdf-syntax-ns#"
   xmlns:svg="http://www.w3.org/2000/svg"
   xmlns="http://www.w3.org/2000/svg"
   xmlns:sodipodi="http://sodipodi.sourceforge.net/DTD/sodipodi-0.dtd"
   xmlns:inkscape="http://www.inkscape.org/namespaces/inkscape"
   version="1.0"
   width="55.090988"
   height="59.111191"
   id="svg2"
   sodipodi:docname="CA_49.svg"
   inkscape:version="0.92.2 5c3e80d, 2017-08-06">
  <metadata
     id="metadata352">
    <rdf:RDF>
      <cc:Work
         rdf:about="">
        <dc:format>image/svg+xml</dc:format>
        <dc:type
           rdf:resource="http://purl.org/dc/dcmitype/StillImage" />
      </cc:Work>
    </rdf:RDF>
  </metadata>
  <defs
     id="defs350" />
  <sodipodi:namedview
     pagecolor="#ffffff"
     bordercolor="#666666"
     borderopacity="1"
     objecttolerance="10"
     gridtolerance="10"
     guidetolerance="10"
     inkscape:pageopacity="0"
     inkscape:pageshadow="2"
     inkscape:window-width="640"
     inkscape:window-height="480"
     id="namedview348"
     showgrid="false"
     inkscape:zoom="0.12542268"
     inkscape:cx="1036.9334"
     inkscape:cy="263.76627"
     inkscape:window-x="0"
     inkscape:window-y="0"
     inkscape:window-maximized="0"
     inkscape:current-layer="svg2" />
  <path
     d="m 46.56634,59.11119 -3.81131,-4.8999 -7.47577,1.2787 -0.56781,-2.1712 -2.35313,-1.4854 -2.35313,-1.4855 -2.48329,1.7394 h -2.21038 l -2.07428,1.8772 v -2.4444 h 0.50248 l 5.03846,-5.1747 -4.77623,-5.3247 -7.04027,3.1776 -4.22294,-2.2913 -3.25459,0.3279 L 3.41264,29.31329 0,26.12549 1.23021,22.59659 h 2.54885 l 1.87719,-2.0743 v -2.2695 L 12.01263,11.22881 10.60388,9.53133 12.69574,7.21983 15.10966,7.82569 18.19428,4.6061 17.40472,1.46041 21.25229,2.0517 23.59107,0 25.34729,1.97984 27.0716,2.46349 26.49319,6.14024 27.81057,7.72758 24.3715,8.92649 c 0.26467,1.47448 0.52934,2.29375 1.23078,3.33143 l -1.76694,3.41695 c -1.89128,0.915 -4.25735,1.75812 -6.10024,2.76852 l 4.48934,4.3716 1.6988,-1.9133 3.00034,0.8442 0.33614,7.1749 21.49831,4.0297 v 3.2584 l 4.79604,4.6544 -0.30863,3.5677 -2.39572,4.8178 c 1.48655,1.0483 2.82752,1.951 4.24127,2.2713 l -0.004,1.2508 -6.32853,2.6612 v 2.7722 c -0.73003,0.3258 -1.41128,0.7594 -2.19169,0.9069 z"
     style="fill:#3F72AF"
     id="CA_49"
     inkscape:connector-curvature="0" />
</svg>
