<?xml version="1.0" encoding="UTF-8" standalone="no"?>
<svg
   xmlns:dc="http://purl.org/dc/elements/1.1/"
   xmlns:cc="http://creativecommons.org/ns#"
   xmlns:rdf="http://www.w3.org/1999/02/22-rdf-syntax-ns#"
   xmlns:svg="http://www.w3.org/2000/svg"
   xmlns="http://www.w3.org/2000/svg"
   xmlns:sodipodi="http://sodipodi.sourceforge.net/DTD/sodipodi-0.dtd"
   xmlns:inkscape="http://www.inkscape.org/namespaces/inkscape"
   version="1.0"
   width="26.28966"
   height="37.978249"
   id="svg2"
   sodipodi:docname="CA_44.svg"
   inkscape:version="0.92.2 5c3e80d, 2017-08-06">
  <metadata
     id="metadata312">
    <rdf:RDF>
      <cc:Work
         rdf:about="">
        <dc:format>image/svg+xml</dc:format>
        <dc:type
           rdf:resource="http://purl.org/dc/dcmitype/StillImage" />
      </cc:Work>
    </rdf:RDF>
  </metadata>
  <defs
     id="defs310" />
  <sodipodi:namedview
     pagecolor="#ffffff"
     bordercolor="#666666"
     borderopacity="1"
     objecttolerance="10"
     gridtolerance="10"
     guidetolerance="10"
     inkscape:pageopacity="0"
     inkscape:pageshadow="2"
     inkscape:window-width="640"
     inkscape:window-height="480"
     id="namedview308"
     showgrid="false"
     inkscape:zoom="0.12542268"
     inkscape:cx="1039.7284"
     inkscape:cy="229.89687"
     inkscape:window-x="0"
     inkscape:window-y="0"
     inkscape:window-maximized="0"
     inkscape:current-layer="svg2" />
  <path
     d="M 2.49639,37.97825 0,34.20395 1.71217,30.10625 C 0.31483,29.03086 3.2513,26.75792 4.53409,27.39322 l 2.04625,-3.56667 1.4187,-0.0642 C 9.26917,21.07773 9.62692,19.07741 9.5855,16.05064 L 7.69598,15.7085 3.90936,9.13553 5.15422,7.61495 5.33048,5.75017 8.16768,5.55876 8.30204,3.00668 h 2.96324 L 12.20506,0 c 5.36946,0.59826 8.08412,1.69758 10.88751,3.09419 l 0.30813,-0.6556 2.3922,0.91671 c 0.89119,2.37014 -0.84798,1.76246 0.31617,3.78524 l -1.93475,2.12583 2.11534,2.83445 -2.32214,2.27714 -4.13994,-0.56209 0.49741,3.61777 -2.40899,2.56422 -2.40576,-0.60376 -2.68842,2.86173 1.41867,1.70944 -6.35638,7.02398 v 2.4155 l -1.3611,1.3611 H 3.85949 Z"
     style="fill:#3F72AF"
     id="CA_44"
     inkscape:connector-curvature="0" />
</svg>
