<?xml version="1.0" encoding="UTF-8" standalone="no"?>
<svg
   xmlns:dc="http://purl.org/dc/elements/1.1/"
   xmlns:cc="http://creativecommons.org/ns#"
   xmlns:rdf="http://www.w3.org/1999/02/22-rdf-syntax-ns#"
   xmlns:svg="http://www.w3.org/2000/svg"
   xmlns="http://www.w3.org/2000/svg"
   xmlns:sodipodi="http://sodipodi.sourceforge.net/DTD/sodipodi-0.dtd"
   xmlns:inkscape="http://www.inkscape.org/namespaces/inkscape"
   version="1.0"
   width="60.822369"
   height="49.787102"
   id="svg2"
   sodipodi:docname="CA_52.svg"
   inkscape:version="0.92.2 5c3e80d, 2017-08-06">
  <metadata
     id="metadata384">
    <rdf:RDF>
      <cc:Work
         rdf:about="">
        <dc:format>image/svg+xml</dc:format>
        <dc:type
           rdf:resource="http://purl.org/dc/dcmitype/StillImage" />
      </cc:Work>
    </rdf:RDF>
  </metadata>
  <defs
     id="defs382" />
  <sodipodi:namedview
     pagecolor="#ffffff"
     bordercolor="#666666"
     borderopacity="1"
     objecttolerance="10"
     gridtolerance="10"
     guidetolerance="10"
     inkscape:pageopacity="0"
     inkscape:pageshadow="2"
     inkscape:window-width="640"
     inkscape:window-height="480"
     id="namedview380"
     showgrid="false"
     inkscape:zoom="0.12542268"
     inkscape:cx="1021.4293"
     inkscape:cy="287.47127"
     inkscape:window-x="0"
     inkscape:window-y="0"
     inkscape:window-maximized="0"
     inkscape:current-layer="svg2" />
  <path
     d="M 13.75032,49.7871 12.13131,48.5489 H 10.47428 L 12.46201,42.8367 8.72792,39.7194 6.88248,35.8355 0,33.7185 0.27991,32.7111 3.93959,31.0578 4.45489,25.4481 8.22064,22.5472 8.02393,21.1084 10.05942,19.6253 h 2.69687 l 1.88536,-1.8854 c 1.1494,1.0531 2.08158,1.6083 3.83527,2.4124 l 0.36092,1.4379 0.36086,1.4379 c 2.57334,-0.059 4.95995,-0.4299 7.53328,-1.1117 1.39962,1.988 2.30129,3.3538 4.19886,4.8439 1.14637,-0.5581 2.11824,-0.7903 3.02608,-1.6904 l -0.25512,-2.1457 6.35771,-2.8707 v -2.1296 h -0.61948 c -0.34067,0 -1.21728,-0.4703 -1.94797,-1.045 l -1.3285,-1.045 2.00769,-3.3014 0.67052,-4.9992 -5.02068,-4.8796 V 0 l 27.00128,4.8461 -3.20824,20.7037 -1.49602,0.8638 -1.42969,9.0913 H 47.867 l 0.59849,2.2885 -1.84237,1.8423 0.10871,10.0474 h -0.75059 c -0.41287,0 -0.90531,-0.2503 -1.09445,-0.5562 l -0.34373,-0.5563 -2.10002,0.1452 c -1.15496,0.08 -2.35517,0.296 -2.6671,0.4802 l -5.95485,0.3846 v -0.9985 c -2.36729,-1.0867 -4.70173,-2.2732 -7.24767,-2.8602 -0.53662,0 -1.79198,0.4596 -2.14582,0.6888 l -0.5747,2.4217 -7.66435,-0.9999 z"
     style="fill:#3F72AF"
     id="CA_52"
     inkscape:connector-curvature="0" />
</svg>
