<?xml version="1.0" encoding="UTF-8" standalone="no"?>
<svg
   xmlns:dc="http://purl.org/dc/elements/1.1/"
   xmlns:cc="http://creativecommons.org/ns#"
   xmlns:rdf="http://www.w3.org/1999/02/22-rdf-syntax-ns#"
   xmlns:svg="http://www.w3.org/2000/svg"
   xmlns="http://www.w3.org/2000/svg"
   xmlns:sodipodi="http://sodipodi.sourceforge.net/DTD/sodipodi-0.dtd"
   xmlns:inkscape="http://www.inkscape.org/namespaces/inkscape"
   version="1.0"
   width="17.084749"
   height="16.60627"
   id="svg2"
   sodipodi:docname="CA_9.svg"
   inkscape:version="0.92.2 5c3e80d, 2017-08-06">
  <metadata
     id="metadata424">
    <rdf:RDF>
      <cc:Work
         rdf:about="">
        <dc:format>image/svg+xml</dc:format>
        <dc:type
           rdf:resource="http://purl.org/dc/dcmitype/StillImage" />
      </cc:Work>
    </rdf:RDF>
  </metadata>
  <defs
     id="defs422" />
  <sodipodi:namedview
     pagecolor="#ffffff"
     bordercolor="#666666"
     borderopacity="1"
     objecttolerance="10"
     gridtolerance="10"
     guidetolerance="10"
     inkscape:pageopacity="0"
     inkscape:pageshadow="2"
     inkscape:window-width="640"
     inkscape:window-height="480"
     id="namedview420"
     showgrid="false"
     inkscape:zoom="0.12542268"
     inkscape:cx="1212.1185"
     inkscape:cy="-77.019199"
     inkscape:window-x="0"
     inkscape:window-y="0"
     inkscape:window-maximized="0"
     inkscape:current-layer="svg2" />
  <path
     d="M 2.83564,0 C 2.31246,1.14736 2.07156,2.49231 2.19762,4.28891 L 0.17722,4.8206 0,7.28409 0.92158,6.69921 3.98765,9.10951 3.39486,9.80815 4.79493,11.7931 8.93227,11.7861 c 1.00171,1.57866 1.52354,2.95968 2.0736,4.8206 l 2.7293,-0.0886 c 1.50165,-0.0528 2.88045,-0.23973 3.04832,-0.4076 l 0.30126,-0.30132 -3.25924,-4.07187 1.40303,-0.39092 -1.77693,-1.88196 C 12.77542,8.87802 11.99199,8.38337 11.69703,8.38337 c -0.29497,0 -1.39622,-0.40589 -2.44575,-0.90389 L 7.33722,6.57565 6.98277,5.35275 C 6.7807,4.68104 6.23166,3.34046 5.77762,2.35763 L 4.96237,0.5676 3.89901,0.28404 Z"
     style="opacity:1;fill:#3F72AF;fill-opacity:1"
     id="CA_9"
     inkscape:connector-curvature="0" />
</svg>
