<?xml version="1.0" encoding="UTF-8" standalone="no"?>
<svg
   xmlns:dc="http://purl.org/dc/elements/1.1/"
   xmlns:cc="http://creativecommons.org/ns#"
   xmlns:rdf="http://www.w3.org/1999/02/22-rdf-syntax-ns#"
   xmlns:svg="http://www.w3.org/2000/svg"
   xmlns="http://www.w3.org/2000/svg"
   xmlns:sodipodi="http://sodipodi.sourceforge.net/DTD/sodipodi-0.dtd"
   xmlns:inkscape="http://www.inkscape.org/namespaces/inkscape"
   version="1.0"
   width="121.66813"
   height="83.55127"
   id="svg2"
   sodipodi:docname="CO_5.svg"
   inkscape:version="0.92.2 5c3e80d, 2017-08-06">
  <metadata
     id="metadata40">
    <rdf:RDF>
      <cc:Work
         rdf:about="">
        <dc:format>image/svg+xml</dc:format>
        <dc:type
           rdf:resource="http://purl.org/dc/dcmitype/StillImage" />
      </cc:Work>
    </rdf:RDF>
  </metadata>
  <defs
     id="defs38" />
  <sodipodi:namedview
     pagecolor="#ffffff"
     bordercolor="#666666"
     borderopacity="1"
     objecttolerance="10"
     gridtolerance="10"
     guidetolerance="10"
     inkscape:pageopacity="0"
     inkscape:pageshadow="2"
     inkscape:window-width="640"
     inkscape:window-height="480"
     id="namedview36"
     showgrid="false"
     inkscape:zoom="0.12542268"
     inkscape:cx="450.43227"
     inkscape:cy="3.8015714"
     inkscape:window-x="0"
     inkscape:window-y="0"
     inkscape:window-maximized="0"
     inkscape:current-layer="svg2" />
  <path
     d="m 39.82803,0 -0.6949,2.45187 h -1.80772 v 0.54938 c 0,0.29774 -0.6087,1.12716 -1.34693,1.84316 l -3.47367,2.58753 0.26587,1.5596 -3.38508,1.48871 v 1.48872 c -1.94338,-0.0367 -6.54937,-1.69039 -6.54937,-1.69039 l -2.52468,-0.011 -3.77493,1.79003 -4.14713,-0.67347 -1.29379,-1.57735 -1.5596,1.29379 v 2.69386 H 6.20422 l -0.74436,1.1874 1.40988,1.62136 -1.28766,1.26504 0.50894,1.8451 -1.0742,2.83615 c -0.40215,0.4845 -1.02111,0.88614 -1.38237,0.88614 H 2.97867 L 1.10806,27.52531 1.68738,29.07329 0,30.51918 l 0.60382,2.62853 2.05584,0.0886 c 0.34998,0.34998 0.63802,1.05254 0.63802,1.55961 l 0.0367,0.59157 2.26914,2.78863 2.33753,-0.56225 0.65577,0.40759 c 0.36172,0.22595 1.16613,0.49426 1.78997,0.58488 0.62384,0.0906 1.45327,0.26502 1.84317,0.4076 0.3899,0.14252 0.70891,0.5221 0.70891,0.833 l -3.5268,4.57247 H 7.83471 c -0.0733,2.2367 0.11649,4.97054 -0.69116,7.37267 H 5.67254 l 1.31732,2.84421 2.73997,2.90773 0.26338,6.4487 4.83534,5.56308 7.0536,0.49443 1.38913,-1.81141 1.86086,0.0177 10.10198,12.45914 41.04594,2.83564 0.74436,-16.58851 42.74731,1.80772 1.8964,-36.77478 L 57.19266,28.53982 58.29147,11.70318 55.34949,10.35625 56.0761,7.5383 54.87095,5.28754 h -2.85334 l -3.34963,-1.73683 0.0367,-2.93285 z"
     style="fill:#3F72AF;fill-opacity:1"
     id="CO_5"
     inkscape:connector-curvature="0" />
</svg>
