<?xml version="1.0" encoding="UTF-8" standalone="no"?>
<svg
   xmlns:dc="http://purl.org/dc/elements/1.1/"
   xmlns:cc="http://creativecommons.org/ns#"
   xmlns:rdf="http://www.w3.org/1999/02/22-rdf-syntax-ns#"
   xmlns:svg="http://www.w3.org/2000/svg"
   xmlns="http://www.w3.org/2000/svg"
   xmlns:sodipodi="http://sodipodi.sourceforge.net/DTD/sodipodi-0.dtd"
   xmlns:inkscape="http://www.inkscape.org/namespaces/inkscape"
   version="1.0"
   width="34.476601"
   height="28.871189"
   id="svg2"
   sodipodi:docname="CT_1.svg"
   inkscape:version="0.92.2 5c3e80d, 2017-08-06">
  <metadata
     id="metadata8">
    <rdf:RDF>
      <cc:Work
         rdf:about="">
        <dc:format>image/svg+xml</dc:format>
        <dc:type
           rdf:resource="http://purl.org/dc/dcmitype/StillImage" />
      </cc:Work>
    </rdf:RDF>
  </metadata>
  <defs
     id="defs6" />
  <sodipodi:namedview
     pagecolor="#ffffff"
     bordercolor="#666666"
     borderopacity="1"
     objecttolerance="10"
     gridtolerance="10"
     guidetolerance="10"
     inkscape:pageopacity="0"
     inkscape:pageshadow="2"
     inkscape:window-width="640"
     inkscape:window-height="480"
     id="namedview4"
     showgrid="false"
     inkscape:zoom="0.12542268"
     inkscape:cx="-1082.2937"
     inkscape:cy="-373.46302"
     inkscape:window-x="0"
     inkscape:window-y="0"
     inkscape:window-maximized="0"
     inkscape:current-layer="svg2" />
  <path
     d="m 16.6476,28.87119 -0.9718,-4.12811 -2.5265,-0.3641 -1.7,-3.28737 c 1.1909,-0.63798 2.3858,-1.29372 3.6781,-1.6363 l 2.0551,3.91181 6.1826,-1.41793 -1.6401,-5.61132 -2.2044,-0.95242 -0.8108,-10.2456 -7.0582,1.87806 -0.07,1.67501 -1.2553,0.0216 v 3.8353 h 1.1342 v 2.1747 l -5.2262,1.99593 -1.8629,-1.18274 -1.249,1.3417 C 2.4355,17.61734 1.6407,18.2211 1.3561,18.2211 H 0.8387 L 1e-4,3.50059 12.7924,9.9999998e-6 13.7538,1.71799 l 5.7872,-0.6854 1.004,1.79389 3.6179,-1.03762 0.7582,1.22673 1.7333,-0.89632 2.3503,-1.65042 -0.152,3.56803 1.8902,1.84628 V 8.4363 l 1.8404,-0.0591 1.8934,4.18288 -2.0324,0.0648 v 4.90774 l -1.8038,0.69217 -0.9033,-0.55833 -1.3415,1.6164 1.31,2.44791 3.8729,-1.3625 v 2.65559 2.65559 l -5.0673,-0.31162 c -0.3143,0.4241 -0.7191,0.59784 -1.1747,0.79308 l -1.7429,-2.988 -5.3427,5.54008 z"
     style="fill:#3F72AF;fill-opacity:1"
     id="CT_1"
     inkscape:connector-curvature="0" />
</svg>
