<?xml version="1.0" encoding="UTF-8" standalone="no"?>
<svg
   xmlns:dc="http://purl.org/dc/elements/1.1/"
   xmlns:cc="http://creativecommons.org/ns#"
   xmlns:rdf="http://www.w3.org/1999/02/22-rdf-syntax-ns#"
   xmlns:svg="http://www.w3.org/2000/svg"
   xmlns="http://www.w3.org/2000/svg"
   xmlns:sodipodi="http://sodipodi.sourceforge.net/DTD/sodipodi-0.dtd"
   xmlns:inkscape="http://www.inkscape.org/namespaces/inkscape"
   version="1.0"
   width="53.189533"
   height="83.953293"
   id="svg2"
   sodipodi:docname="DE_0.svg"
   inkscape:version="0.92.2 5c3e80d, 2017-08-06">
  <metadata
     id="metadata8">
    <rdf:RDF>
      <cc:Work
         rdf:about="">
        <dc:format>image/svg+xml</dc:format>
        <dc:type
           rdf:resource="http://purl.org/dc/dcmitype/StillImage" />
      </cc:Work>
    </rdf:RDF>
  </metadata>
  <defs
     id="defs6" />
  <sodipodi:namedview
     pagecolor="#ffffff"
     bordercolor="#666666"
     borderopacity="1"
     objecttolerance="10"
     gridtolerance="10"
     guidetolerance="10"
     inkscape:pageopacity="0"
     inkscape:pageshadow="2"
     inkscape:window-width="640"
     inkscape:window-height="480"
     id="namedview4"
     showgrid="false"
     inkscape:zoom="0.12542268"
     inkscape:cx="-1001.9821"
     inkscape:cy="-152.15882"
     inkscape:window-x="0"
     inkscape:window-y="0"
     inkscape:window-maximized="0"
     inkscape:current-layer="svg2" />
  <path
     d="M 11.328333,4.9045359e-4 C 4.9932329,-0.06150955 -1.5389671,5.7697005 0.32243294,12.17603 l 23.46500006,71.77726 29.4021,-7.19545 c -1.8549,-5.00763 -4.2602,-11.34064 -6.0435,-16.34039 l -0.7798,-2.26852 -4.7852,-0.0177 -8.1347,-5.97254 -0.6912,-3.13696 -1.3292,-1.43552 c -0.7323,-0.7899 -2.0654,-1.73604 -2.9597,-2.10904 l -1.6305,-0.69116 -2.109,-6.7524 0.6203,-1.61274 -0.7975,-1.04568 c -0.4365,-0.5762 -0.8054,-1.49223 -0.8153,-2.03809 l -0.018,-0.99247 h -1.8077 l -0.5849,-2.26852 h -0.6203 c -0.3342,-5e-5 -1.4476,-0.57422 -2.4812,-1.27604 l -1.8786,-1.27604 -0.6203,-1.89636 -3.8813,-2.30396 -0.7443,-2.97743 1.1342,-1.13425 -1.6127,-3.26099 -2.2154001,-0.69119 v -3.17238 l 1.1343,-1.45327 C 10.161833,9.8411205 10.682933,8.9828805 10.690033,8.7201405 c 0.01,-0.26272 0.4701,-1.09465 1.0456,-1.84316 l 1.0634,-1.36466 -0.5849,-2.16218 1.4001,-2.60524005 0.3899,-0.33674 c -0.872,-0.26467 -1.7711,-0.39876 -2.6761,-0.40761999641 z"
     style="fill:#3F72AF;fill-opacity:1"
     id="DE_At-Large"
     inkscape:connector-curvature="0" />
</svg>
