<?xml version="1.0" encoding="UTF-8" standalone="no"?>
<svg
   xmlns:dc="http://purl.org/dc/elements/1.1/"
   xmlns:cc="http://creativecommons.org/ns#"
   xmlns:rdf="http://www.w3.org/1999/02/22-rdf-syntax-ns#"
   xmlns:svg="http://www.w3.org/2000/svg"
   xmlns="http://www.w3.org/2000/svg"
   xmlns:sodipodi="http://sodipodi.sourceforge.net/DTD/sodipodi-0.dtd"
   xmlns:inkscape="http://www.inkscape.org/namespaces/inkscape"
   version="1.0"
   width="100.9666"
   height="104.972"
   id="svg2"
   sodipodi:docname="FL_18.svg"
   inkscape:version="0.92.2 5c3e80d, 2017-08-06">
  <metadata
     id="metadata80">
    <rdf:RDF>
      <cc:Work
         rdf:about="">
        <dc:format>image/svg+xml</dc:format>
        <dc:type
           rdf:resource="http://purl.org/dc/dcmitype/StillImage" />
      </cc:Work>
    </rdf:RDF>
  </metadata>
  <defs
     id="defs78" />
  <sodipodi:namedview
     pagecolor="#ffffff"
     bordercolor="#666666"
     borderopacity="1"
     objecttolerance="10"
     gridtolerance="10"
     guidetolerance="10"
     inkscape:pageopacity="0"
     inkscape:pageshadow="2"
     inkscape:window-width="640"
     inkscape:window-height="480"
     id="namedview76"
     showgrid="false"
     inkscape:zoom="0.12542268"
     inkscape:cx="-881.00995"
     inkscape:cy="764.88827"
     inkscape:window-x="0"
     inkscape:window-y="0"
     inkscape:window-maximized="0"
     inkscape:current-layer="svg2" />
  <path
     d="m 98.0247,0 -0.2659,0.035 0.195,1.3469 c -1e-4,-10e-5 -0.2573,0.013 -0.319,0.3013 -0.062,0.288 -0.1407,0.494 0.1063,0.638 0.2469,0.144 0.3899,0.1241 0.3899,0.1241 l 0.018,0.4076 -2.0202,1.4213 0.6805,1.2868 -0.6169,0.344 -0.7019,-1.2088 -0.5847,0.3366 -1.4179,-2.5875 -0.2835,0.1417 1.4355,2.623 -0.3722,0.2304 -0.053,2.9775 -3.8635,2.6584 3.0128,4.218 0.3545,-2.7825 2.7647,-1.8077 1.7014,0.6557 v 3.3674 l 0.8685,0.5316 C 98.8787,11.1983 99.0411,7.1027 98.5391,3.0656 Z m -7.4968,23.3409 -0.3722,2.2331 h -2.1799 v 2.0913 l 2.8357,1.2937 v 3.5623 l -3.2256,-0.638 2.942,8.9854 0.8152,-1.6836 c 0.4465,-0.9312 1.0131,-1.7015 1.2761,-1.7014 0.263,-10e-5 0.7121,-0.5917 0.9925,-1.3292 l 0.5139,-1.347 -3.5091,-7.1245 1.3115,-3.4559 z m 9.8007,0.5494 -1.0102,0.6203 v 2.7648 h 0.5317 c 0.2934,-2e-4 0.6559,-0.203 0.8152,-0.4608 l 0.3013,-0.4786 z m -0.8684,7.8158 -2.1268,0.4076 -0.5671,3.9522 -1.9672,3.6154 -2.4812,0.3545 -0.4608,1.4178 h 2.3571 v 2.942 l 1.2938,-0.4431 1.6128,-4.2003 c 0.89,-2.3171 1.7876,-5.0803 1.9849,-6.1321 z m -6.3093,13.1503 -0.4608,0.7089 c -0.2524,0.3897 -0.4608,1.3469 -0.4608,2.1267 v 1.4178 l -1.2761,0.195 c -0.7018,0.1 -1.276,0.2703 -1.276,0.3899 0,0.1196 0.2937,0.8715 0.6558,1.6659 0.3619,0.7945 0.8204,1.4356 1.0279,1.4356 0.2074,-2e-4 0.917,-0.5743 1.5596,-1.2761 0.6423,-0.702 1.369,-1.914 1.6127,-2.6938 0.2437,-0.78 0.46,-1.9921 0.4963,-2.6939 l 0.071,-1.276 z m -19.1761,26.6018 -1.4178,1.7014 0.3722,0.6026 c 0.2012,0.3255 0.6183,0.5849 0.9216,0.5849 0.3033,0 0.6985,-0.3973 0.8861,-0.8862 l 0.3367,-0.8861 z m -9.2513,7.1955 -1.8431,1.8254 0.8152,1.3115 2.1976,-1.9672 z m -5.7244,4.1117 -1.6305,1.3469 0.3013,0.514 c 0.1709,0.2766 0.5245,0.4962 0.7798,0.4962 0.2554,0 0.769,-0.3574 1.1342,-0.7975 l 0.6558,-0.7975 z m -11.9274,0.018 -3.0484,0.3545 v 1.0988 c 1.026,0.5599 2.074,1.0644 3.1724,1.4532 0.182,0 0.4942,-0.1576 0.6912,-0.3544 l 0.3545,-0.3545 z m -6.6638,1.0988 -1.2228,0.7621 0.5848,0.9216 -1.7723,0.6912 0.7089,1.1342 h -2.3216 l -1.4179,2.2685 h -2.6052 l -0.3722,0.9571 c -0.2003,0.522 -0.8337,1.479 -1.4178,2.1267 -0.5843,0.6477 -1.485,1.6248 -2.0027,2.1799 -0.5176,0.5551 -1.6483,1.3568 -2.5166,1.79 -0.8684,0.4331 -2.326,0.9682 -3.2433,1.1697 l -1.6837,0.3545 -1.3292,1.6127 0.709,1.8432 0.9747,-0.4254 c 0.5433,-0.2329 2.1409,-0.8055 3.5445,-1.276 1.4037,-0.4704 2.9349,-1.1688 3.4028,-1.5419 0.4679,-0.3731 1.2748,-0.8284 1.79,-1.0102 0.515,-0.1817 2.2377,-1.2677 3.8282,-2.4103 l 2.8887,-2.0735 v -2.1976 l 2.4103,1.2937 2.6053,-1.1874 0.638,1.6659 1.8432,-0.9393 c 1.0194,-0.5164 2.2874,-1.3076 2.8179,-1.7723 L 48.2237,88.9686 46.54,86.3989 42.4637,85.7431 Z m -38.6002,17.2442 -0.5139,0.6381 c -0.2853,0.3577 -0.6888,1.2299 -0.9039,1.9318 L 0,104.9723 h 0.9216 c 0.5094,0 1.417,-0.2619 2.0204,-0.5849 l 1.0988,-0.5848 v -2.0913 z"
     style="color:#000000;display:inline;overflow:visible;visibility:visible;fill:#3F72AF;fill-opacity:1;fill-rule:nonzero;stroke:none;stroke-width:1;stroke-linecap:butt;stroke-linejoin:miter;stroke-miterlimit:4;stroke-dasharray:none;stroke-dashoffset:0;stroke-opacity:1;marker:none;marker-start:none;marker-mid:none;marker-end:none;enable-background:accumulate"
     id="FL_18"
     inkscape:connector-curvature="0" />
</svg>
