<?xml version="1.0" encoding="UTF-8" standalone="no"?>
<svg
   xmlns:dc="http://purl.org/dc/elements/1.1/"
   xmlns:cc="http://creativecommons.org/ns#"
   xmlns:rdf="http://www.w3.org/1999/02/22-rdf-syntax-ns#"
   xmlns:svg="http://www.w3.org/2000/svg"
   xmlns="http://www.w3.org/2000/svg"
   xmlns:sodipodi="http://sodipodi.sourceforge.net/DTD/sodipodi-0.dtd"
   xmlns:inkscape="http://www.inkscape.org/namespaces/inkscape"
   version="1.0"
   width="118.0504"
   height="56.40696"
   id="svg2"
   sodipodi:docname="FL_1.svg"
   inkscape:version="0.92.2 5c3e80d, 2017-08-06">
  <metadata
     id="metadata8">
    <rdf:RDF>
      <cc:Work
         rdf:about="">
        <dc:format>image/svg+xml</dc:format>
        <dc:type
           rdf:resource="http://purl.org/dc/dcmitype/StillImage" />
      </cc:Work>
    </rdf:RDF>
  </metadata>
  <defs
     id="defs6" />
  <sodipodi:namedview
     pagecolor="#ffffff"
     bordercolor="#666666"
     borderopacity="1"
     objecttolerance="10"
     gridtolerance="10"
     guidetolerance="10"
     inkscape:pageopacity="0"
     inkscape:pageshadow="2"
     inkscape:window-width="640"
     inkscape:window-height="480"
     id="namedview4"
     showgrid="false"
     inkscape:zoom="0.12542268"
     inkscape:cx="-522.12365"
     inkscape:cy="461.79883"
     inkscape:window-x="0"
     inkscape:window-y="0"
     inkscape:window-maximized="0"
     inkscape:current-layer="svg2" />
  <path
     d="m 14.9936,56.3547 c -0.6238,0.098 -1.7442,0.054 -2.4897,-0.096 l -1.3556,-0.2741 2.6887,-1.3404 0.2498,-3.2511 3.6557,-3.0518 -0.7283,-1.8982 h -2.8257 l -1.3486,-4.501 0.5775,-0.7269 c 0.3177,-0.3998 0.7561,-1.7162 0.9743,-2.9253 L 14.7883,36.0916 13.4371,32.8294 7.7693,30.8471 6.5609,29.4942 C 5.8962,28.7501 4.7453,27.6016 4.0032,26.9421 3.2611,26.2826 2.0568,25.1883 1.327,24.5103 L 0,23.2777 1.7258,17.4667 1.088,15.4572 C 40.3416,10.1569 73.1562,5.7448 109.9674,4e-4 l -1.0291,1.257 0.4298,1.5659 c -2.0264,2.2477 -2.6466,4.1993 -2.7487,7.8532 l 6.2092,-0.9895 0.7066,2.8151 2.5323,-0.6356 1.9829,13.0257 -2.8744,0.2774 0.9548,7.9266 -18.9035,2.7891 -1.7534,2.1133 -3.8698,0.6099 -1.4312,1.8798 0.6721,6.924 -11.7658,-2.8981 -42.6471,5.6546 -12.5892,4.2063 -2.6109,-0.1536 -2.5521,0.9779 c -1.4036,0.5378 -3.0624,1.0579 -3.6863,1.1557 z"
     style="fill:#3F72AF"
     id="FL_1"
     inkscape:connector-curvature="0" />
</svg>
