<?xml version="1.0" encoding="UTF-8" standalone="no"?>
<svg
   xmlns:dc="http://purl.org/dc/elements/1.1/"
   xmlns:cc="http://creativecommons.org/ns#"
   xmlns:rdf="http://www.w3.org/1999/02/22-rdf-syntax-ns#"
   xmlns:svg="http://www.w3.org/2000/svg"
   xmlns="http://www.w3.org/2000/svg"
   xmlns:sodipodi="http://sodipodi.sourceforge.net/DTD/sodipodi-0.dtd"
   xmlns:inkscape="http://www.inkscape.org/namespaces/inkscape"
   version="1.0"
   width="55.437099"
   height="54.284401"
   id="svg2"
   sodipodi:docname="FL_24.svg"
   inkscape:version="0.92.2 5c3e80d, 2017-08-06">
  <metadata
     id="metadata136">
    <rdf:RDF>
      <cc:Work
         rdf:about="">
        <dc:format>image/svg+xml</dc:format>
        <dc:type
           rdf:resource="http://purl.org/dc/dcmitype/StillImage" />
      </cc:Work>
    </rdf:RDF>
  </metadata>
  <defs
     id="defs134" />
  <sodipodi:namedview
     pagecolor="#ffffff"
     bordercolor="#666666"
     borderopacity="1"
     objecttolerance="10"
     gridtolerance="10"
     guidetolerance="10"
     inkscape:pageopacity="0"
     inkscape:pageshadow="2"
     inkscape:window-width="640"
     inkscape:window-height="480"
     id="namedview132"
     showgrid="false"
     inkscape:zoom="0.12542268"
     inkscape:cx="-865.34275"
     inkscape:cy="524.86837"
     inkscape:window-x="0"
     inkscape:window-y="0"
     inkscape:window-maximized="0"
     inkscape:current-layer="svg2" />
  <path
     d="m 17.8648,0 -2.1267,1.1342 v 2.8002 h -2.8357 v 3.1547 l 5.6713,5.6004 v 8.8082 l 2.7825,0.6912 0.9038,8.6841 -5.6712,1.8786 -0.3131,6.2866 L 14.8584,38.7669 10.9175,35.8 8.8616,36.9165 7.2311,35.5695 7.9755,30.9971 0,32.4497 2.4145,37.12 c 2.5517,1.906 4.119,2.155 6.2345,2.2422 l 5.1568,-0.7504 1.2234,1.6189 5.7953,-1.6128 2.3926,9.2336 -3.4148,2.587 0.2047,3.8459 26.8747,-5.4996 c 0.7257,-1.569 1.6872,-2.7135 3.1677,-3.9994 l 3.1192,0.638 -0.6026,-1.5596 2.8711,-2.6939 V 34.1517 L 50.1911,29.083 C 47.3059,26.2967 42.9035,21.755 40.4082,18.981 37.9128,16.207 35.1823,13.1496 34.347,12.1932 33.5117,11.2368 31.5977,9.089 30.0935,7.4081 28.5894,5.7271 27.0282,3.8779 26.6199,3.2964 L 25.8755,2.233 23.4652,3.5268 21.4626,1.0279 Z"
     style="fill:#3F72AF;fill-opacity:1"
     id="FL_24"
     inkscape:connector-curvature="0" />
</svg>
