<?xml version="1.0" encoding="UTF-8" standalone="no"?>
<svg
   xmlns:dc="http://purl.org/dc/elements/1.1/"
   xmlns:cc="http://creativecommons.org/ns#"
   xmlns:rdf="http://www.w3.org/1999/02/22-rdf-syntax-ns#"
   xmlns:svg="http://www.w3.org/2000/svg"
   xmlns="http://www.w3.org/2000/svg"
   xmlns:sodipodi="http://sodipodi.sourceforge.net/DTD/sodipodi-0.dtd"
   xmlns:inkscape="http://www.inkscape.org/namespaces/inkscape"
   version="1.0"
   width="14.4263"
   height="49.026501"
   id="svg2"
   sodipodi:docname="FL_22.svg"
   inkscape:version="0.92.2 5c3e80d, 2017-08-06">
  <metadata
     id="metadata120">
    <rdf:RDF>
      <cc:Work
         rdf:about="">
        <dc:format>image/svg+xml</dc:format>
        <dc:type
           rdf:resource="http://purl.org/dc/dcmitype/StillImage" />
      </cc:Work>
    </rdf:RDF>
  </metadata>
  <defs
     id="defs118" />
  <sodipodi:namedview
     pagecolor="#ffffff"
     bordercolor="#666666"
     borderopacity="1"
     objecttolerance="10"
     gridtolerance="10"
     guidetolerance="10"
     inkscape:pageopacity="0"
     inkscape:pageshadow="2"
     inkscape:window-width="640"
     inkscape:window-height="480"
     id="namedview116"
     showgrid="false"
     inkscape:zoom="0.12542268"
     inkscape:cx="-963.15505"
     inkscape:cy="652.54357"
     inkscape:window-x="0"
     inkscape:window-y="0"
     inkscape:window-maximized="0"
     inkscape:current-layer="svg2" />
  <path
     d="M 8.2125,0 0,5.9602 1.0633,7.2362 3.2432,5.8539 4.9269,6.3501 2.1621,8.5655 l 0.514,0.762 -1.8609,1.347 1.0456,1.5773 1.3647,-0.9925 -0.7798,-0.8684 4.9624,-4.6611 1.8608,2.7648 0.6558,4.5725 0.3013,7.9752 0.1417,4.218 -0.8152,0.1241 -0.053,-1.471 H 9.783 l -0.2304,-3.58 -0.319,-0.018 -0.3899,-6.8586 -0.139,0.017 0.2808,6.8242 0.4785,9.393 -4.2003,2.6584 0.018,2.2686 0.3545,1.7722 1.471,-2.3217 4.1116,-1.8254 1.4179,0.5139 0.053,1.5242 -1.028,3.261 1.2052,-0.4254 0.4608,7.5677 -3.5269,1.4709 -0.2835,-0.9924 -1.1166,0.5671 -0.4962,-0.9216 -2.3217,1.0634 3.3851,0.9039 -3.2433,1.3292 0.4253,0.9215 7.6563,-3.1546 0.6203,-0.1949 -0.319,-1.5596 C 13.9308,43.2596 13.5034,38.8571 13.1681,34.3344 12.8329,29.8115 12.3517,23.3037 12.0871,19.8726 11.8224,16.4415 11.312,12.3582 10.9528,10.7985 10.5936,9.2389 10.076,6.942 9.8008,5.6944 9.5258,4.4467 9.1367,2.6992 8.9501,1.8131 Z"
     style="fill:#3F72AF"
     id="FL_22"
     inkscape:connector-curvature="0" />
</svg>
