<?xml version="1.0" encoding="UTF-8" standalone="no"?>
<svg
   xmlns:dc="http://purl.org/dc/elements/1.1/"
   xmlns:cc="http://creativecommons.org/ns#"
   xmlns:rdf="http://www.w3.org/1999/02/22-rdf-syntax-ns#"
   xmlns:svg="http://www.w3.org/2000/svg"
   xmlns="http://www.w3.org/2000/svg"
   xmlns:sodipodi="http://sodipodi.sourceforge.net/DTD/sodipodi-0.dtd"
   xmlns:inkscape="http://www.inkscape.org/namespaces/inkscape"
   version="1.0"
   width="174.931"
   height="86.836899"
   id="svg2"
   sodipodi:docname="FL_2.svg"
   inkscape:version="0.92.2 5c3e80d, 2017-08-06">
  <metadata
     id="metadata96">
    <rdf:RDF>
      <cc:Work
         rdf:about="">
        <dc:format>image/svg+xml</dc:format>
        <dc:type
           rdf:resource="http://purl.org/dc/dcmitype/StillImage" />
      </cc:Work>
    </rdf:RDF>
  </metadata>
  <defs
     id="defs94" />
  <sodipodi:namedview
     pagecolor="#ffffff"
     bordercolor="#666666"
     borderopacity="1"
     objecttolerance="10"
     gridtolerance="10"
     guidetolerance="10"
     inkscape:pageopacity="0"
     inkscape:pageshadow="2"
     inkscape:window-width="640"
     inkscape:window-height="480"
     id="namedview92"
     showgrid="false"
     inkscape:zoom="0.12542268"
     inkscape:cx="-612.57355"
     inkscape:cy="487.84727"
     inkscape:window-x="0"
     inkscape:window-y="0"
     inkscape:window-maximized="0"
     inkscape:current-layer="svg2" />
  <path
     d="m 160.7889,86.8369 -0.036,-2.3763 -1.1342,-1.0265 c -0.6239,-0.5645 -1.1343,-1.3302 -1.1343,-1.7014 0,-0.3711 -0.4667,-1.0972 -1.0371,-1.6134 l -1.0372,-0.9386 h -3.6326 l -0.6529,-1.7014 h -0.5994 c -0.3297,0 -1.5563,-0.4222 -2.7258,-0.9382 l -2.1262,-0.938 -0.5844,-2.3229 c -0.3214,-1.2776 -0.7469,-3.0871 -0.9455,-4.0211 -0.1986,-0.934 -0.6271,-2.0186 -0.9521,-2.4103 l -0.591,-0.7121 h -3.2639 v -1.0809 l -3.8436,-1.0613 -1.1414,-1.1414 c -0.6278,-0.6278 -1.3107,-1.6747 -1.5176,-2.3265 l -0.3761,-1.1851 -5.3566,-5.3981 -3.9489,-1.4778 c -2.1719,-0.8128 -5.0973,-1.7934 -6.501,-2.1791 -1.4036,-0.3858 -4.2026,-1.571 -6.2198,-2.6339 l -3.6678,-1.9325 h -3.1563 v 1.1342 h -1.0081 c -0.5544,0 -1.5208,0.3591 -2.1474,0.798 l -1.1393,0.798 -4.4957,-0.1004 -0.7239,-1.0737 -1.2611,0.7793 v 2.8452 l -2.2257,-0.7064 -2.4457,1.3088 0.6055,4.5135 1.7353,1.3296 0.7288,3.026 -2.0845,1.0917 -1.8501,-0.2811 c -1.0176,-0.1546 -1.9864,-0.5016 -2.153,-0.7711 l -0.3029,-0.4902 -0.9663,0.4697 c -0.5314,0.2584 -1.6521,0.8274 -2.4905,1.2645 -0.8383,0.437 -2.9647,2.0707 -4.7252,3.6303 -1.7605,1.5596 -3.9692,3.5415 -4.9083,4.4042 -0.9391,0.8626 -2.8961,2.3656 -4.3489,3.3398 -1.4528,0.9744 -2.9604,2.1676 -3.3503,2.6517 L 64.341,76.5618 V 75.849 c 0,-0.392 0.2506,-1.1809 0.5568,-1.7531 l 0.5567,-1.0403 -1.8244,-0.7 -0.7787,0.6463 c -0.4284,0.3555 -0.7789,0.9411 -0.7789,1.3014 v 0.6549 l -3.5194,3.0882 h -4.5202 l -9.0292,3.9699 h -2.2136 l -0.014,-1.8432 c -0.01,-1.0137 -0.252,-2.8735 -0.5429,-4.1328 l -0.529,-2.2897 -2.3108,-2.503 C 38.1224,69.8709 36.3888,68.287 35.541,67.7279 l -1.5415,-1.0166 -3.9902,-0.01 -2.1025,-1.4286 c -1.1563,-0.7858 -2.3495,-1.8904 -2.6515,-2.4546 l -0.549,-1.026 -6.0193,-1.3472 -1.7014,-1.1553 C 16.0498,58.6542 13.6254,57.2878 11.5979,56.2531 9.5704,55.2184 6.3165,53.7941 4.367,53.0879 L 0.8224,51.804 -10e-5,45.1258 1.4882,43.1434 5.4187,42.578 6.9745,40.6502 26.0717,37.9014 25.1325,29.838 28.1247,29.4681 26.1378,15.5884 23.533,16.2421 22.819,13.3973 16.702,14.4899 c -0.091,-2.7648 1.0366,-5.1974 2.7489,-7.4704 l -0.532,-1.3864 1.7597,-1.4604 24.947,-4.1752 v 1.484 h 1.7294 c 5.3819,8.5914 4.8208,12.4828 9.1538,14.937 l 66.4307,-7.2807 0.7942,2.9041 c -1.4533,2.0776 -3.3778,3.5271 -5.4485,4.7816 l -0.7107,2.239 h -2.9697 l -2.3416,-2.1776 -3.0835,0.6016 c 0.6215,1.1491 1.2086,2.3127 1.6657,3.5328 l -7.9089,1.0222 -0.6962,2.1938 -3.1515,-0.6922 -0.6919,3.4592 -7.0387,0.5439 -0.6314,-1.901 8.2302,5.4447 2.7387,-0.6874 0.6942,-2.1871 7.3598,-1.2717 1.1561,3.3164 4.6732,2.1073 0.4249,-1.2748 2.0309,0.5311 16.0629,-2.9416 v 2.9802 l 12.5809,-2.4269 1.3277,-7.0906 c 1.1436,-1.0254 1.8114,-2.642 1.971,-3.6095 l 2.4838,-1.3293 5.7395,-0.2449 8.507,3.4711 2.4298,-0.074 4.1946,21.4717 1.5989,-0.6135 c -0.1936,1.8002 -2.8791,4.1755 -5.1041,6.4445 l 0.045,4.2053 -2.2276,0.7064 0.3213,13.9569 1.8032,1.0665 -1.7729,3.1692 0.6414,4.1597 -1.6457,2.2018 c -0.5263,5.7017 -0.991,4.5609 -6.2023,9.7079 z"
     style="fill:#3F72AF"
     id="FL_2"
     inkscape:connector-curvature="0" />
</svg>
