<?xml version="1.0" encoding="UTF-8" standalone="no"?>
<svg
   xmlns:dc="http://purl.org/dc/elements/1.1/"
   xmlns:cc="http://creativecommons.org/ns#"
   xmlns:rdf="http://www.w3.org/1999/02/22-rdf-syntax-ns#"
   xmlns:svg="http://www.w3.org/2000/svg"
   xmlns="http://www.w3.org/2000/svg"
   xmlns:sodipodi="http://sodipodi.sourceforge.net/DTD/sodipodi-0.dtd"
   xmlns:inkscape="http://www.inkscape.org/namespaces/inkscape"
   version="1.0"
   width="149.4384"
   height="66.620239"
   id="svg2"
   sodipodi:docname="FL_4.svg"
   inkscape:version="0.92.2 5c3e80d, 2017-08-06">
  <metadata
     id="metadata160">
    <rdf:RDF>
      <cc:Work
         rdf:about="">
        <dc:format>image/svg+xml</dc:format>
        <dc:type
           rdf:resource="http://purl.org/dc/dcmitype/StillImage" />
      </cc:Work>
    </rdf:RDF>
  </metadata>
  <defs
     id="defs158" />
  <sodipodi:namedview
     pagecolor="#ffffff"
     bordercolor="#666666"
     borderopacity="1"
     objecttolerance="10"
     gridtolerance="10"
     guidetolerance="10"
     inkscape:pageopacity="0"
     inkscape:pageshadow="2"
     inkscape:window-width="640"
     inkscape:window-height="480"
     id="namedview156"
     showgrid="false"
     inkscape:zoom="0.12542268"
     inkscape:cx="-707.25585"
     inkscape:cy="450.11407"
     inkscape:window-x="0"
     inkscape:window-y="0"
     inkscape:window-maximized="0"
     inkscape:current-layer="svg2" />
  <path
     d="M 114.0461,4.3903492e-4 113.3549,2.836039 l -2.4989,-0.089 0.5869,2.4454 -0.9946,0.1775 0.5672,5.4055 2.9243,3.9167 0.7443,14.001 -8.2057,1.7191 -1.9546,-2.8358 -0.362,-4.5401 -2.6634,-3.0805 0.4355,-1.8761 -73.2267,8.5476 0.8439,3.3607 c -1.7971,1.8972 -3.5942,3.5179 -5.3913,4.4639 l -1.0902,2.5918 -3.1492,0.1032 -2.4457,-2.304 -2.1542,0.6932 1.7543,3.4639 -8.2703,0.8762 -1.1799,2.5166 -2.6976,-0.7443 -0.7444,3.3673 -4.1826,0.3545 4.2358,2.6406 2.2585,-0.5256 0.8253,-2.31 8.1347,-1.2938 1.1874,3.4028 3.8379,1.9298 0.339,-1.467 2.4691,0.7424 16.4291,-2.8357 0.2658,2.6939 11.6084,-2.2331 1.3647,-6.5397 1.595,-2.2136 c -0.1286,-1.2947 0.9566,-2.4849 3.0278,-3.1524 l 6.1704,-0.3939 7.9929,3.2965 3.1724,-0.053 3.9345,21.3559 1.9672,-0.3367 v 1.4924 l -1.152,1.9278 3.8358,4.8265 4.4053,0.2956 2.4812,-2.6229 0.4076,-3.0129 2.4458,-2.2862 h 6.2384 l 2.8888,-1.3115 v -1.5242 h 2.0912 c 1.4816,-2.073 1.8045,-3.6113 1.5162,-4.8675 l 1.7697,1e-4 c 1.5662,-2.2048 2.4701,-3.9238 1.9955,-4.632 l 1.6305,-1.3646 0.3545,-2.428 4.3104,-0.6678 -1.5025,-7.7863 11.1931,-16.8009 1.311,1.5414 2.6584,-1.0279 1e-4,-1.4178 4.0593,-0.4253 0.2482,1.8076 2.1441,-0.5318 0.9045,7.4976 -5.5652,0.036 -0.3541,4.3056 5.9548,6.1677 -0.1065,3.7041 2.3033,-1.2225 5.4763,1.0456 4.1117,-1.1343 -1.7525,-8.6626 2.3196,-0.6772 c 0,-0.1754 -0.3674,-1.5153 -0.8152,-2.9775 -0.4479,-1.4622 -1.3684,-4.5086 -2.0381,-6.7701 l -1.2052,-4.1117 h -1.8963 l -0.1064,-1.5596 c -0.062,-0.8577 -0.4292,-3.6413 -0.7974,-6.1852 l -0.6558,-4.6256 -3.5446,-0.5317 -2.0558,1.0633 -12.1401,-0.7443 c -0.558,-1.03709997 -3.2758,-1.10219997 -6.5397,-0.92159997 -0.5699,-0.6686 -1.7999,-0.9706 -3.5977,-0.95699999508 z"
     style="fill:#3F72AF"
     id="FL_4"
     inkscape:connector-curvature="0" />
</svg>
