<?xml version="1.0" encoding="UTF-8" standalone="no"?>
<svg
   xmlns:dc="http://purl.org/dc/elements/1.1/"
   xmlns:cc="http://creativecommons.org/ns#"
   xmlns:rdf="http://www.w3.org/1999/02/22-rdf-syntax-ns#"
   xmlns:svg="http://www.w3.org/2000/svg"
   xmlns="http://www.w3.org/2000/svg"
   xmlns:sodipodi="http://sodipodi.sourceforge.net/DTD/sodipodi-0.dtd"
   xmlns:inkscape="http://www.inkscape.org/namespaces/inkscape"
   version="1.0"
   width="127.604"
   height="116.3457"
   id="svg2"
   sodipodi:docname="GA_1.svg"
   inkscape:version="0.92.2 5c3e80d, 2017-08-06">
  <metadata
     id="metadata8">
    <rdf:RDF>
      <cc:Work
         rdf:about="">
        <dc:format>image/svg+xml</dc:format>
        <dc:type
           rdf:resource="http://purl.org/dc/dcmitype/StillImage" />
      </cc:Work>
    </rdf:RDF>
  </metadata>
  <defs
     id="defs6" />
  <sodipodi:namedview
     pagecolor="#ffffff"
     bordercolor="#666666"
     borderopacity="1"
     objecttolerance="10"
     gridtolerance="10"
     guidetolerance="10"
     inkscape:pageopacity="0"
     inkscape:pageshadow="2"
     inkscape:window-width="640"
     inkscape:window-height="480"
     id="namedview4"
     showgrid="false"
     inkscape:zoom="0.12542268"
     inkscape:cx="-735.89585"
     inkscape:cy="412.74417"
     inkscape:window-x="0"
     inkscape:window-y="0"
     inkscape:window-maximized="0"
     inkscape:current-layer="svg2" />
  <path
     d="m 78.317,116.3457 -1.7108,-2.6112 -0.5422,-4.371 -2.4279,-2.262 0.6794,-2.7069 -52.0684,5.6712 -0.1712,-5.1909 C 15.2541,98.1299 13.6584,94.1667 7.3423,87.4638 L 0.0012,82.5601 V 76.4022 L 1.3634,72.6353 H 4.984 L 5.8346,70.6504 6.5232,58.7407 18.238,58.005 c 0.3802,-1.5551 0.5931,-3.2141 1.4867,-4.5371 0.4059,-0.6008 1.028,-3.0649 1.1619,-4.7464 0.9005,-0.7104 2.2391,-1.3957 2.3669,-2.3219 0.2763,-2.0029 1.8062,-2.6857 2.8356,-3.9091 v -5.3367 l -5.0133,-1.4802 -6.2277,-3.8954 3.7956,-6.5994 14.2739,-15.1361 c 2.4243,0.4945 4.1987,0.489 5.1623,-0.1401 l 1.9747,8.572 3.7833,2.552 h 2.7131 l 4.4466,2.2685 c 3.0009,-0.584 6.9304,0.6892 10.6774,1.5973 0.01,0.4001 0.4189,1.0911 2.4327,2.9398 l 2.0297,-1.0116 c 0.1091,-1.7535 2.2228,-3.8608 4.1803,-5.9405 l 2.447,-6.7112 2.8176,-2.2163 H 78.472 L 81.5606,8.5272 76.5599,4.9626 c 4.3507,-2.1669 7.0928,-1.9671 9.9935,-3.2253 l 3.6213,0.01 0.042,1.1557 1.0549,1.0928 c 0.6033,0.3229 1.7124,0.5028 2.5161,0.5028 l 1.9248,0.042 5.019,2.2875 7.6182,0.2953 5.6308,-6.227 c 2.0946,0.03 3.4219,-0.3657 4.5116,-0.8936 l 4.5308,2.3114 h 4.5822 v 2.3084 l -1.8826,2.8732 -2.5247,-0.6336 -1.3909,1.6759 0.6584,1.7159 h 1.8194 l -2.4262,3.0843 -3.7657,-0.3245 0.2131,3.7622 1.8807,-0.3228 -0.686,1.8996 c -0.3773,1.0447 -1.2388,2.592 -1.9144,3.4382 -0.6756,0.8463 -1.4412,1.5013 -1.7014,1.4557 -0.2601,-0.046 -1.0472,-0.053 -1.749,-0.016 l -1.2761,0.067 v 1.738 l 2.5521,0.9671 1.2861,-1.0332 0.7757,4.1349 -0.7437,4.4016 h -0.7137 c -0.3925,0 -1.5185,0.4015 -2.5022,0.8922 l -1.7885,0.8922 v 1.7506 l 1.276,-0.2768 c 0.7018,-0.1522 1.7227,-0.4644 2.2685,-0.6939 l 0.9925,-0.4172 v 0.8727 c 0,0.48 -0.7401,2.88 -1.6447,5.3334 l -1.6448,4.4608 0.5861,3.0656 h 1.0615 l -0.2478,6.8664 -1.9609,1.0494 -1.1609,3.3303 0.7085,0.7085 -2.4721,0.6466 0.6708,6.4177 -1.7685,1.8931 c -0.9726,1.0412 -1.7684,2.0923 -1.7684,2.3359 v 0.4427 l 3.6864,0.5631 1.2848,-1.03 0.5683,3.7149 -0.6039,3.4028 c -0.3321,1.8715 -0.5746,4.2494 -0.5389,5.2842 l 0.065,1.8815 1.3485,1.6247 h -0.5232 c -0.2877,0 -0.8059,-0.2827 -1.1514,-0.6283 l -0.6284,-0.6284 -3.8395,1.2672 -9.0253,-0.4958 -3.8239,-1.1763 -3.7806,0.1421 -1.4696,-1.2058 -3.9646,0.2076 -0.5724,2.8013 h -2.2685 l 0.09,2.5521 h -0.9597 l 0.5876,7.0231 2.996,3.9597 0.9412,12.8228 z"
     style="fill:#3F72AF"
     id="GA_1"
     inkscape:connector-curvature="0" />
</svg>
