<?xml version="1.0" encoding="UTF-8" standalone="no"?>
<svg
   xmlns:dc="http://purl.org/dc/elements/1.1/"
   xmlns:cc="http://creativecommons.org/ns#"
   xmlns:rdf="http://www.w3.org/1999/02/22-rdf-syntax-ns#"
   xmlns:svg="http://www.w3.org/2000/svg"
   xmlns="http://www.w3.org/2000/svg"
   xmlns:sodipodi="http://sodipodi.sourceforge.net/DTD/sodipodi-0.dtd"
   xmlns:inkscape="http://www.inkscape.org/namespaces/inkscape"
   version="1.0"
   width="47.665001"
   height="43.942329"
   id="svg2"
   sodipodi:docname="GA_13.svg"
   inkscape:version="0.92.2 5c3e80d, 2017-08-06">
  <metadata
     id="metadata40">
    <rdf:RDF>
      <cc:Work
         rdf:about="">
        <dc:format>image/svg+xml</dc:format>
        <dc:type
           rdf:resource="http://purl.org/dc/dcmitype/StillImage" />
      </cc:Work>
    </rdf:RDF>
  </metadata>
  <defs
     id="defs38" />
  <sodipodi:namedview
     pagecolor="#ffffff"
     bordercolor="#666666"
     borderopacity="1"
     objecttolerance="10"
     gridtolerance="10"
     guidetolerance="10"
     inkscape:pageopacity="0"
     inkscape:pageshadow="2"
     inkscape:window-width="640"
     inkscape:window-height="480"
     id="namedview36"
     showgrid="false"
     inkscape:zoom="0.12542268"
     inkscape:cx="-641.75255"
     inkscape:cy="251.34447"
     inkscape:window-x="0"
     inkscape:window-y="0"
     inkscape:window-maximized="0"
     inkscape:current-layer="svg2" />
  <path
     d="m 34.4254,43.87753 -0.3977,-3.9173 -5.6713,-4.4923 v -0.6187 c 0,-0.3402 -1.1441,-1.8127 -2.5426,-3.2721 l -2.7627,-2.8737 -6.4475,0.8806 -0.4405,1.0048 -4.537,0.031 -8.4029,3.0585 L 0,29.81733 v -1.8519 l 3.1649,-3.8108 -2.542,-4.9956 0.1456,-3.7908 4.4621,-0.6562 -0.7752,-6.2048 h 4.9412 l 2.0101,-3.40278 1.2439,-0.009 c 0.6842,-0.005 1.5271,-0.19617 1.873,-0.42535 0.346,-0.22918 0.9714,-1.3737 1.39,-2.5434 L 16.6746,-3e-5 h 1.3521 l 0.6529,1.70138 h 2.3041 v 3.3464 l 1.7371,0.97212 -4.4165,3.5492 -0.6695,3.34765 -5.047,2.44318 -0.7199,2.8683 3.161,3.761 4.7557,1.263 h 7.154 l 9.6412,-1.7242 c 3.63,0.3992 7.0273,1.6236 10.0797,3.6152 l 1.0055,0.8069 -0.7495,6.3777 h -0.9428 c -0.5185,0 -1.249,0.3063 -1.6233,0.6806 l -0.6805,0.6805 v 2.0612 l -6.522,3.1203 -0.5671,5.0734 z"
     style="fill:#3F72AF"
     id="GA_13"
     inkscape:connector-curvature="0" />
</svg>
