<?xml version="1.0" encoding="UTF-8" standalone="no"?>
<svg
   xmlns:dc="http://purl.org/dc/elements/1.1/"
   xmlns:cc="http://creativecommons.org/ns#"
   xmlns:rdf="http://www.w3.org/1999/02/22-rdf-syntax-ns#"
   xmlns:svg="http://www.w3.org/2000/svg"
   xmlns="http://www.w3.org/2000/svg"
   xmlns:sodipodi="http://sodipodi.sourceforge.net/DTD/sodipodi-0.dtd"
   xmlns:inkscape="http://www.inkscape.org/namespaces/inkscape"
   version="1.0"
   width="67.346603"
   height="57.315418"
   id="svg2"
   sodipodi:docname="GA_11.svg"
   inkscape:version="0.92.2 5c3e80d, 2017-08-06">
  <metadata
     id="metadata24">
    <rdf:RDF>
      <cc:Work
         rdf:about="">
        <dc:format>image/svg+xml</dc:format>
        <dc:type
           rdf:resource="http://purl.org/dc/dcmitype/StillImage" />
      </cc:Work>
    </rdf:RDF>
  </metadata>
  <defs
     id="defs22" />
  <sodipodi:namedview
     pagecolor="#ffffff"
     bordercolor="#666666"
     borderopacity="1"
     objecttolerance="10"
     gridtolerance="10"
     guidetolerance="10"
     inkscape:pageopacity="0"
     inkscape:pageshadow="2"
     inkscape:window-width="640"
     inkscape:window-height="480"
     id="namedview20"
     showgrid="false"
     inkscape:zoom="0.12542268"
     inkscape:cx="-596.64805"
     inkscape:cy="232.26577"
     inkscape:window-x="0"
     inkscape:window-y="0"
     inkscape:window-maximized="0"
     inkscape:current-layer="svg2" />
  <path
     d="M 24.227,0 12.2287,0.62033 0,3.6332 l 17.3683,53.68222 1.8255,-1.0988 c 3.0748,-0.3662 4.9396,-1.2263 7.4081,-2.9065 l 10.0665,0.4962 0.7798,-5.1927 5.3346,-0.514 2.8533,-0.9038 c 1.358,-0.087 2.7064,-0.2659 4.0054,-0.69127 l -0.7266,-6.11432 h 5.0155 l 2.0204,-3.40278 3.1015,-0.42534 c 1.079,-1.36888 1.5918,-3.04514 2.1622,-4.67881 h 2.4812 l 0.6557,1.70138 h 1.7368 v -1.20515 l 1.2584,0.77981 -0.4077,-1.34693 C 66.7192,31.07156 65.9737,29.57225 65.273,28.48052 64.5722,27.3888 63.6817,25.51212 63.288,24.31564 l -0.7266,-2.16217 -6.6815,0.7621 V 19.69003 L 51.8923,13.09716 50.7757,7.70944 35.1797,9.30448 C 31.1407,6.29122 27.8426,3.63082 24.227,0 Z"
     style="fill:#3F72AF"
     id="GA_11"
     inkscape:connector-curvature="0" />
</svg>
