<?xml version="1.0" encoding="UTF-8" standalone="no"?>
<svg
   xmlns:dc="http://purl.org/dc/elements/1.1/"
   xmlns:cc="http://creativecommons.org/ns#"
   xmlns:rdf="http://www.w3.org/1999/02/22-rdf-syntax-ns#"
   xmlns:svg="http://www.w3.org/2000/svg"
   xmlns="http://www.w3.org/2000/svg"
   xmlns:sodipodi="http://sodipodi.sourceforge.net/DTD/sodipodi-0.dtd"
   xmlns:inkscape="http://www.inkscape.org/namespaces/inkscape"
   version="1.0"
   width="42.534599"
   height="47.00605"
   id="svg2"
   sodipodi:docname="GA_7.svg"
   inkscape:version="0.92.2 5c3e80d, 2017-08-06">
  <metadata
     id="metadata88">
    <rdf:RDF>
      <cc:Work
         rdf:about="">
        <dc:format>image/svg+xml</dc:format>
        <dc:type
           rdf:resource="http://purl.org/dc/dcmitype/StillImage" />
      </cc:Work>
    </rdf:RDF>
  </metadata>
  <defs
     id="defs86" />
  <sodipodi:namedview
     pagecolor="#ffffff"
     bordercolor="#666666"
     borderopacity="1"
     objecttolerance="10"
     gridtolerance="10"
     guidetolerance="10"
     inkscape:pageopacity="0"
     inkscape:pageshadow="2"
     inkscape:window-width="640"
     inkscape:window-height="480"
     id="namedview84"
     showgrid="false"
     inkscape:zoom="0.12542268"
     inkscape:cx="-674.07885"
     inkscape:cy="236.82584"
     inkscape:window-x="0"
     inkscape:window-y="0"
     inkscape:window-maximized="0"
     inkscape:current-layer="svg2" />
  <path
     d="m 16.1632,0 0.8012,5.16291 c -1.6342,0.0959 -3.6826,0.0623 -5.3177,0.13061 L 9.0741,7.9398 H 2.2685 v 0.46079 c 0,0.25328 0.7656,1.02724 1.7014,1.71908 0.9358,0.69184 1.7014,1.51622 1.7014,1.82547 v 0.54938 l -2.8357,1.29379 v 1.55961 L 0,16.41128 v 2.44574 l 5.0333,-1.40012 4.9978,5.01557 -3.4028,2.26851 7.0891,7.7271 4.2889,-1.41779 4.0586,1.34689 0.762,2.3749 -0.7975,11.0236 8.2765,1.2051 c 0.2898,0.042 1.3107,-0.1759 2.2685,-0.4785 0.958,-0.3027 2.7064,-0.7025 3.8991,-0.8862 l 2.1799,-0.3367 -0.6912,-0.8152 c -0.3731,-0.4495 -1.0117,-0.8153 -1.4355,-0.8153 h -0.7798 l -1.5242,-6.522 2.3925,-4.7497 4.4662,-4.82055 0.6912,-6.30931 -2.1976,-1.93181 c -1.2133,-1.06637 -2.4509,-2.38857 -2.7471,-2.94198 l -0.5317,-1.01017 1.3115,-2.90653 h 0.5849 c 1.5959,-0.55806 2.9474,-1.61314 4.342,-2.55208 V 6.29155 L 37.6077,2.97742 30.6958,2.81789 28.0729,0.01769 Z"
     style="fill:#3F72AF"
     id="GA_7"
     inkscape:connector-curvature="0" />
</svg>
