<?xml version="1.0" encoding="UTF-8" standalone="no"?>
<svg
   xmlns:dc="http://purl.org/dc/elements/1.1/"
   xmlns:cc="http://creativecommons.org/ns#"
   xmlns:rdf="http://www.w3.org/1999/02/22-rdf-syntax-ns#"
   xmlns:svg="http://www.w3.org/2000/svg"
   xmlns="http://www.w3.org/2000/svg"
   xmlns:sodipodi="http://sodipodi.sourceforge.net/DTD/sodipodi-0.dtd"
   xmlns:inkscape="http://www.inkscape.org/namespaces/inkscape"
   version="1.0"
   width="148.16229"
   height="182.65091"
   id="svg2"
   sodipodi:docname="IA_5.svg"
   inkscape:version="0.92.2 5c3e80d, 2017-08-06">
  <metadata
     id="metadata40">
    <rdf:RDF>
      <cc:Work
         rdf:about="">
        <dc:format>image/svg+xml</dc:format>
        <dc:type
           rdf:resource="http://purl.org/dc/dcmitype/StillImage" />
      </cc:Work>
    </rdf:RDF>
  </metadata>
  <defs
     id="defs38" />
  <sodipodi:namedview
     pagecolor="#ffffff"
     bordercolor="#666666"
     borderopacity="1"
     objecttolerance="10"
     gridtolerance="10"
     guidetolerance="10"
     inkscape:pageopacity="0"
     inkscape:pageshadow="2"
     inkscape:window-width="640"
     inkscape:window-height="480"
     id="namedview36"
     showgrid="false"
     inkscape:zoom="0.12542268"
     inkscape:cx="-18.424954"
     inkscape:cy="-140.17823"
     inkscape:window-x="0"
     inkscape:window-y="0"
     inkscape:window-maximized="0"
     inkscape:current-layer="svg2" />
  <path
     d="M 74.5774,0 0.7266,3.50911 0.1949,6.23841 4.0408,9.41079 3.58,15.45425 1.6836,16.4999 l 1.3115,1.5596 -0.6912,1.11654 3.6332,0.35445 0.4785,1.98495 c 0.2569,1.09173 0.7343,2.4535 1.0634,3.0306 l 0.6026,1.04564 -0.7621,4.44842 -2.0027,1.08109 0.443,6.16752 -1.7368,1.71911 0.6735,1.73683 -0.4608,0.72663 c -0.2468,0.39936 -0.4713,1.19228 -0.5139,1.77228 -0.043,0.58 -0.3515,1.23027 -0.6735,1.43555 -0.322,0.20528 -1.1317,1.59224 -1.8077,3.08376 L 0,50.47445 l 0.3899,0.6203 4.856,4.66109 c 0.6406,1.65457 1.4784,3.26804 1.7368,5.03327 -0.072,0.23394 0.1104,0.42533 0.4076,0.42534 h 0.5495 l 0.053,3.9699 h 3.4205 l 1.2761,2.78248 -1.7368,2.65841 0.1772,3.43822 0.9747,0.99248 c 0.5429,0.54293 0.9925,1.30411 0.9925,1.70138 v 0.72664 l 2.2685,2.05584 v 2.58752 l -1.1343,0.70891 0.035,1.91406 0.9748,1.16971 c 0.5354,0.63901 1.4213,1.3329 1.9672,1.54188 l 0.9924,0.37218 v 4.50158 l 2.2686,0.70891 v 1.6305 h 1.7013 v 1.63049 l 2.5521,0.35446 0.089,3.9699 -0.9394,1.25831 1.1343,1.45327 c 0.6254,0.79511 1.1342,1.80823 1.1342,2.26852 v 0.85069 l 2.2686,0.58485 v 1.04564 c 0,0.57507 -0.3433,1.68366 -0.7444,2.46347 l -0.7266,1.41785 1.6482,1.25829 -0.7621,1.98495 -1.6837,-0.65572 v 0.51394 c 0,0.28367 0.2918,0.68979 0.6381,0.90389 l 0.6203,0.3899 -0.6026,3.75722 1.5951,1.32918 -0.6204,2.51664 c 0.544,0.56429 1.2139,0.95294 1.8432,1.11656 l 0.2127,-1.77228 h 2.2685 l 0.3722,2.62297 -1.2584,1.50641 0.9216,0.33676 c 0.5014,0.19237 1.5337,0.35446 2.304,0.35446 h 1.4001 l -0.3367,8.73729 2.8356,0.67347 0.3545,2.3926 -2.0559,1.52416 v 3.40277 l 3.3851,0.56713 0.3899,1.98495 h -1.9141 l 0.4076,0.99248 c 0.2249,0.54586 0.5055,2.74643 0.6204,4.89148 l 0.2126,3.89901 1.8786,1.38238 -0.5671,3.01287 1.5419,1.27604 v 2.56977 l -1.6837,0.65577 0.2482,0.72661 c 0.1332,0.40175 0.3562,1.69452 0.4962,2.87109 l 0.2481,2.12673 -2.1445,1.15201 0.018,0.69116 c 0.011,0.3789 0.5854,1.34784 1.276,2.14448 0.6906,0.79659 1.9621,1.87533 2.8179,2.4103 0.8558,0.53486 1.4998,1.17203 1.4356,1.40007 -0.064,0.22804 0.2529,0.99996 0.7089,1.71914 l 0.8329,1.31148 c 34.6374,-1.09626 67.4385,-2.44653 101.3211,-5.54725 l -2.6938,-35.30376 -31.3871,2.49893 -1.8963,-27.98428 -2.109,-0.54938 -0.7444,-15.57834 -16.2517,0.42534 L 92.3355,79.3094 81.8968,80.07148 81.1524,63.48297 h -2.7293 z"
     style="fill:#3F72AF;fill-opacity:1"
     id="IA_5"
     inkscape:connector-curvature="0" />
</svg>
