<?xml version="1.0" encoding="UTF-8" standalone="no"?>
<svg
   xmlns:dc="http://purl.org/dc/elements/1.1/"
   xmlns:cc="http://creativecommons.org/ns#"
   xmlns:rdf="http://www.w3.org/1999/02/22-rdf-syntax-ns#"
   xmlns:svg="http://www.w3.org/2000/svg"
   xmlns="http://www.w3.org/2000/svg"
   xmlns:sodipodi="http://sodipodi.sourceforge.net/DTD/sodipodi-0.dtd"
   xmlns:inkscape="http://www.inkscape.org/namespaces/inkscape"
   version="1.0"
   width="242.48296"
   height="243.74129"
   id="svg2"
   sodipodi:docname="ID_2.svg"
   inkscape:version="0.92.2 5c3e80d, 2017-08-06">
  <metadata
     id="metadata16">
    <rdf:RDF>
      <cc:Work
         rdf:about="">
        <dc:format>image/svg+xml</dc:format>
        <dc:type
           rdf:resource="http://purl.org/dc/dcmitype/StillImage" />
      </cc:Work>
    </rdf:RDF>
  </metadata>
  <defs
     id="defs14" />
  <sodipodi:namedview
     pagecolor="#ffffff"
     bordercolor="#666666"
     borderopacity="1"
     objecttolerance="10"
     gridtolerance="10"
     guidetolerance="10"
     inkscape:pageopacity="0"
     inkscape:pageshadow="2"
     inkscape:window-width="468"
     inkscape:window-height="449"
     id="namedview12"
     showgrid="false"
     inkscape:zoom="0.12542268"
     inkscape:cx="866.41992"
     inkscape:cy="-254.52558"
     inkscape:window-x="0"
     inkscape:window-y="0"
     inkscape:window-maximized="0"
     inkscape:current-layer="svg2" />
  <path
     d="m 125.60128,0 -1.77228,0.69119 0.63802,1.66594 -3.3496,1.73683 -0.63802,2.44574 -1.77228,-0.67346 v 1.54188 l -1.80772,0.69119 -1.02792,-0.63802 v 1.34693 l -2.64069,-0.51396 -1.4001,3.13693 -3.88129,1.29376 -0.56713,-0.37218 c -0.31804,-0.19654 -0.58993,-0.65644 -0.60257,-1.02792 -0.0127,-0.37149 -0.77834,-1.56075 -1.70139,-2.64069 L 103.39465,6.71693 V 5.19277 l -1.08109,0.67347 -3.20782,-1.09882 c -1.13523,0.047 -3.35873,2.2229 -5.37,4.14713 H 93.41673 V 7.7803 l -2.1799,0.0709 -1.32921,-1.87862 -1.57733,0.60258 v 4.11168 l 1.4001,-0.0177 -0.70891,1.18742 c 2.57115,2.41376 3.64935,5.18768 4.87376,7.92208 l 1.55961,0.0709 -6.45109,6.46882 c -1.39167,5.99349 -2.36028,11.99512 -3.22555,17.98861 -3.53695,3.11657 -6.9411,6.33448 -11.1299,8.98544 l -3.84584,-0.81528 c 0.13387,-1.00604 -0.52826,-2.14864 -1.61277,-3.34961 l -3.0306,1.34693 -1.15198,4.4307 -2.49891,2.26851 -3.20782,0.56713 -1.50643,1.54188 -0.0886,3.68634 1.71911,0.56713 0.70891,2.51663 -1.4001,4.78515 -3.1901,3.79267 c 1.80457,1.46194 3.37596,2.8081 3.34961,3.40277 l 1.80772,-0.0354 -0.63802,5.40544 c 2.44311,3.21906 1.73301,1.31386 5.93713,4.37753 l -1.41782,1.96723 0.56713,1.57732 1.66594,0.0355 -3.27872,1.66594 -0.30128,1.86089 1.22287,1.47099 0.90386,-0.54941 0.6203,3.15466 c -0.77095,0.96231 -2.87581,0.86289 -4.8206,0.88614 v -1.52416 l -2.37485,-1.16971 0.10634,-6.1498 -1.52416,-1.1697 -0.88614,0.88614 0.7798,0.0532 c -1.26409,3.53682 -3.57252,6.05799 -5.99029,8.4892 -3.08056,0.31326 -6.10949,0.58255 -9.51713,1.22288 -1.01301,1.19558 -1.85553,3.2478 -2.67614,5.40544 l -2.51663,-0.49624 c -1.50323,2.33715 -2.51293,4.26617 -2.94198,5.72446 -3.55234,1.91404 -5.2679,2.19903 -6.69921,2.23307 l -2.6407,2.37485 -7.05366,-0.6203 -5.61812,-8.47148 -4.92693,1.15198 c -0.69424,2.28458 -1.21062,4.55168 -1.08109,6.78782 l 1.43555,0.56713 8.70188,13.57564 c -0.69775,5.34282 -1.87174,10.60015 -3.11921,15.84416 C 8.22053,143.83849 3.65524,143.13312 2e-5,142.31398 l 0.33673,0.99247 2.48119,1.0102 -0.67347,2.53436 2.16461,1.37998 0.16065,1.35046 c 2.88246,1.56356 4.00694,4.04274 7.3289,5.56967 l 0.11478,-2.62772 2.13487,-0.62612 -0.0803,1.14959 2.28978,0.0922 -0.0732,0.97118 3.15583,0.37233 c -3.5e-4,0.9501 0.11335,1.88265 1.36234,2.64054 l 6.63494,0.21098 c 0.43366,0.60959 1.21695,1.10264 3.39361,1.13124 l 1.51129,1.35046 2.58753,0.0366 c -0.93457,6.99395 -1.20989,2.15815 -1.92471,9.88459 6.45859,0.99707 13.29011,1.9675 18.46005,3.05661 l -7.11158,47.02205 c 60.26185,9.87652 130.5412,18.1838 180.78999,23.92574 l 17.43921,-151.45881 -2.99512,-1.36465 -0.67346,-3.36733 -3.2433,-3.17237 -0.0354,-3.63317 -1.9672,-1.09881 0.7798,-0.79753 -1.66594,-3.22554 -2.17993,-1.16971 -0.74436,1.18743 -0.93928,-0.0886 c -0.51824,-0.0509 -1.36207,-0.0714 -1.87861,-0.0355 l -0.93934,0.0709 0.56713,2.19762 -3.1192,4.09396 2.56983,3.45595 -1.31149,1.31148 -3.43822,-1.98495 h -1.63049 c -0.89022,0 -2.26597,-0.2452 -3.06607,-0.54941 l -1.45327,-0.5494 v 0.40762 c 0,0.22826 -1.00801,0.72869 -2.25076,1.11654 -1.24275,0.38786 -2.65445,0.7089 -3.11921,0.70891 h -0.833 l -1.71908,-3.29644 -1.5596,0.28357 c -0.86363,0.16332 -2.89939,0.38604 -4.51934,0.47851 -1.61994,0.0925 -3.20467,0.30808 -3.50911,0.49624 l -0.54937,0.35445 -1.70139,-1.7191 h -2.90653 l -0.70892,-1.13426 c -0.38961,-0.62384 -0.98084,-1.13427 -1.31148,-1.13426 -0.33069,0 -1.28755,0.32123 -2.10904,0.70891 l -1.48871,0.70891 -0.65572,3.52683 -2.02039,1.82545 -3.61545,-2.19762 -1.54191,0.58485 -1.45326,-1.75456 H 174.853 v -1.0102 l -2.12673,-0.35445 c -1.1697,-0.1938 -2.61786,-0.36116 -3.22554,-0.37218 l -1.11651,-0.0177 -2.88884,2.1799 v 3.93445 l -1.5596,1.87862 h -1.52416 l -0.67347,-1.27604 c -0.37379,-0.70182 -1.6817,-2.16928 -2.90653,-3.26099 l -2.23307,-1.98495 -0.3899,-5.72446 -1.89631,-4.78515 1.52416,-1.84316 -0.19498,-1.47099 c -0.10554,-0.81442 -0.33784,-1.74394 -0.53168,-2.05585 -0.19379,-0.31192 -0.41582,-0.89735 -0.47849,-1.31148 -0.0628,-0.41413 -0.51586,-1.61658 -1.01023,-2.65842 l -0.90383,-1.89633 -3.45597,-2.90654 -1.64819,0.83297 c -0.89958,0.46518 -2.01557,0.85068 -2.49894,0.8507 h -0.88614 v -2.55208 l -3.84584,-3.06604 -0.28356,-1.86089 c -0.15936,-1.02911 -0.46633,-2.45285 -0.69119,-3.15466 l -0.40762,-1.27604 h 2.9597 l 0.0886,-1.5596 c 0.0485,-0.85778 0.0448,-2.13754 -0.0177,-2.85337 l -0.12406,-1.31148 -2.30396,-2.30396 0.6203,-1.61277 h -2.12673 l -0.6203,-1.79 c -0.34243,-0.98232 -0.6203,-2.11772 -0.6203,-2.53436 0,-0.41665 -0.80017,-2.05325 -1.77228,-3.63317 l -1.75455,-2.87109 0.69119,-0.70891 -1.82545,-2.78247 0.65575,-4.0408 -0.47852,-0.60257 c -0.25986,-0.33165 -0.58985,-1.30477 -0.74436,-2.16218 l -0.28356,-1.5596 0.74436,-0.99248 c 0.41462,-0.54623 0.76987,-1.4391 0.7798,-1.98495 l 0.0177,-0.99247 h -2.83564 v -0.88614 c 0,-0.48337 0.37332,-1.59229 0.83297,-2.48119 l 0.83297,-1.61277 -0.69119,-0.56713 c -0.38168,-0.30973 -1.18588,-0.66778 -1.79,-0.7798 L 128.13577,5.54733 127.63953,3.56238 C 127.363,2.47113 126.78435,1.23017 126.36349,0.79762 Z"
     style="fill:#3F72AF;fill-opacity:1"
     id="ID_2"
     inkscape:connector-curvature="0" />
</svg>
