<?xml version="1.0" encoding="UTF-8" standalone="no"?>
<svg
   xmlns:dc="http://purl.org/dc/elements/1.1/"
   xmlns:cc="http://creativecommons.org/ns#"
   xmlns:rdf="http://www.w3.org/1999/02/22-rdf-syntax-ns#"
   xmlns:svg="http://www.w3.org/2000/svg"
   xmlns="http://www.w3.org/2000/svg"
   xmlns:sodipodi="http://sodipodi.sourceforge.net/DTD/sodipodi-0.dtd"
   xmlns:inkscape="http://www.inkscape.org/namespaces/inkscape"
   version="1.0"
   width="19.3922"
   height="24.49118"
   id="svg2"
   sodipodi:docname="IL_10.svg"
   inkscape:version="0.92.2 5c3e80d, 2017-08-06">
  <metadata
     id="metadata16">
    <rdf:RDF>
      <cc:Work
         rdf:about="">
        <dc:format>image/svg+xml</dc:format>
        <dc:type
           rdf:resource="http://purl.org/dc/dcmitype/StillImage" />
      </cc:Work>
    </rdf:RDF>
  </metadata>
  <defs
     id="defs14" />
  <sodipodi:namedview
     pagecolor="#ffffff"
     bordercolor="#666666"
     borderopacity="1"
     objecttolerance="10"
     gridtolerance="10"
     guidetolerance="10"
     inkscape:pageopacity="0"
     inkscape:pageshadow="2"
     inkscape:window-width="640"
     inkscape:window-height="480"
     id="namedview12"
     showgrid="false"
     inkscape:zoom="0.12542268"
     inkscape:cx="-408.09545"
     inkscape:cy="-260.07907"
     inkscape:window-x="0"
     inkscape:window-y="0"
     inkscape:window-maximized="0"
     inkscape:current-layer="svg2" />
  <path
     d="M 5.9549,24.49118 3.4829,22.9488 C 2.1233,22.10049 0.7874,21.05346 0.5141,20.62207 0.241,20.19068 0.0135,19.39111 0.0087,18.84525 l -0.01,-0.99247 H 1.5181 L 2.7782,20.61843 5.1654,21.69444 5.2564,9.55901 4.6123,8.35545 C 4.258,7.6935 3.9681,6.65595 3.9681,6.0498 V 4.9477 L 5.7765,3.4469 7.7174,6.02 10.281,3.94413 9.1371,0.93542 11.8924,0 l -0.268,7.92802 1.0735,2.26852 c 0.5905,1.24768 2.3378,3.86699 3.883,5.82068 l 2.8095,3.55216 -3.3568,1.89726 -5.9582,1.1189 -2.7572,-0.0286 z"
     style="fill:#3F72AF;fill-opacity:1"
     id="IL_10"
     inkscape:connector-curvature="0" />
</svg>
