<?xml version="1.0" encoding="UTF-8" standalone="no"?>
<svg
   xmlns:dc="http://purl.org/dc/elements/1.1/"
   xmlns:cc="http://creativecommons.org/ns#"
   xmlns:rdf="http://www.w3.org/1999/02/22-rdf-syntax-ns#"
   xmlns:svg="http://www.w3.org/2000/svg"
   xmlns="http://www.w3.org/2000/svg"
   xmlns:sodipodi="http://sodipodi.sourceforge.net/DTD/sodipodi-0.dtd"
   xmlns:inkscape="http://www.inkscape.org/namespaces/inkscape"
   version="1.0"
   width="137.91859"
   height="166.32825"
   id="svg2"
   sodipodi:docname="IL_19.svg"
   inkscape:version="0.92.2 5c3e80d, 2017-08-06">
  <metadata
     id="metadata88">
    <rdf:RDF>
      <cc:Work
         rdf:about="">
        <dc:format>image/svg+xml</dc:format>
        <dc:type
           rdf:resource="http://purl.org/dc/dcmitype/StillImage" />
      </cc:Work>
    </rdf:RDF>
  </metadata>
  <defs
     id="defs86" />
  <sodipodi:namedview
     pagecolor="#ffffff"
     bordercolor="#666666"
     borderopacity="1"
     objecttolerance="10"
     gridtolerance="10"
     guidetolerance="10"
     inkscape:pageopacity="0"
     inkscape:pageshadow="2"
     inkscape:window-width="640"
     inkscape:window-height="480"
     id="namedview84"
     showgrid="false"
     inkscape:zoom="0.12542268"
     inkscape:cx="-317.81565"
     inkscape:cy="50.306131"
     inkscape:window-x="0"
     inkscape:window-y="0"
     inkscape:window-maximized="0"
     inkscape:current-layer="svg2" />
  <path
     d="m 55.5432,0 -1.276,1.18746 -10.7755,1.1697 -5.37,2.42799 -0.7443,3.29644 -1.9141,1.59505 -0.1949,3.27874 -3.3496,3.93445 0.1063,3.45591 4.2357,0.23043 2.5344,20.98376 15.7555,-0.74436 v -6.06118 h 4.5371 l 0.3899,2.3394 4.856,-0.63802 -1.4001,-15.31247 h 5.6536 c 0.6324,2.66465 0.7058,4.45893 0.7089,6.80554 h 6.0789 l 0.6026,7.70938 -4.9447,0.7798 0.5671,8.43604 c -5.8062,-0.0755 -5.4716,-0.73664 -10.8109,0.74436 v 3.70409 l -14.8516,1.31148 -0.5849,2.25076 -5.5472,0.72667 V 59.2827 L 34.0278,58.57379 34.8076,54.00132 18.6267,55.7204 15.7202,33.72647 5.6713,34.82528 4.0763,32.76944 2.8889,34.75439 H 0 l 0.7798,4.82059 1.861,1.45327 v 4.50158 h 4.1825 c 0.6844,3.91342 1.1686,8.14715 0.9393,13.52245 l 8.2943,2.26851 3.8635,-1.61274 h 4.5725 l 2.2685,16.03908 15.0998,-1.41782 3.1901,27.08039 27.0804,-2.60522 v 5.75988 l 21.3914,-2.65842 4.1117,33.07069 -10.0488,1.41783 -1.0279,-4.3775 -5.3523,-0.33676 2.2153,23.02191 h 5.4409 l 0.5671,3.86356 7.0537,2.00265 3.1547,2.19762 5.6712,0.74436 3.9523,2.81795 h 0.957 c 0.524,0 1.3581,-0.15063 1.8431,-0.33677 l 0.8684,-0.3367 0.7267,-3.86356 -0.6912,-2.72931 -4.1826,-4.30666 0.053,-1.73683 c 0.028,-0.94909 0.2336,-3.07447 0.4608,-4.73196 l 0.4253,-3.01287 2.6939,-1.77228 3.1547,0.63802 0.6734,-1.08111 c 0.3708,-0.59379 1.3895,-1.42979 2.2508,-1.86087 0.8613,-0.43118 3.4443,-1.2593 5.7422,-1.84316 l 4.1648,-1.06337 0.6026,-1.54191 -4.1117,-3.36733 -2.3039,-5.22819 1.4355,-3.9699 3.0661,-2.26851 -0.5849,-0.95703 h -4.3421 l -0.7798,-5.2105 -8.9854,1.31149 v 5.03327 h -6.1144 l -0.5494,-7.69169 c 3.253,-1.12297 6.7676,-1.40523 10.1906,-1.38237 l -0.7798,-7.33723 5.1928,-1.29379 -0.8507,-13.68198 3.6154,-0.95703 0.3545,-4.23571 3.6863,-0.35446 v -2.85339 l 3.2078,0.70891 1.3292,-2.94198 v -3.22555 l 2.8711,-0.7266 1.0988,-2.88884 -1.1342,-11.11215 3.4027,-1.77228 c 0,-0.19611 -0.1961,-0.62838 -0.4253,-0.97478 -1.1962,-1.10017 -2.6615,-1.81606 -4.1117,-2.53433 v -5.17505 l -9.3753,1.32918 -2.818,-19.83175 -24.6701,2.87109 -1.9849,-16.87208 -5.3877,0.3899 v -1.80772 c -1.078,-0.0712 -2.3207,-1.10851 -3.58,-2.26852 h -3.1369 l -0.7267,-3.27874 -4.4661,0.60257 V 8.09934 L 61.4979,9.81842 C 60.4334,2.04496 60.9595,0.65594 59.5838,0.15954 Z"
     style="fill:#3F72AF;fill-opacity:1"
     id="IL_19"
     inkscape:connector-curvature="0" />
</svg>
