<?xml version="1.0" encoding="UTF-8" standalone="no"?>
<svg
   xmlns:dc="http://purl.org/dc/elements/1.1/"
   xmlns:cc="http://creativecommons.org/ns#"
   xmlns:rdf="http://www.w3.org/1999/02/22-rdf-syntax-ns#"
   xmlns:svg="http://www.w3.org/2000/svg"
   xmlns="http://www.w3.org/2000/svg"
   xmlns:sodipodi="http://sodipodi.sourceforge.net/DTD/sodipodi-0.dtd"
   xmlns:inkscape="http://www.inkscape.org/namespaces/inkscape"
   version="1.0"
   width="14.0718"
   height="9.6411896"
   id="svg2"
   sodipodi:docname="IL_4.svg"
   inkscape:version="0.92.2 5c3e80d, 2017-08-06">
  <metadata
     id="metadata112">
    <rdf:RDF>
      <cc:Work
         rdf:about="">
        <dc:format>image/svg+xml</dc:format>
        <dc:type
           rdf:resource="http://purl.org/dc/dcmitype/StillImage" />
      </cc:Work>
    </rdf:RDF>
  </metadata>
  <defs
     id="defs110" />
  <sodipodi:namedview
     pagecolor="#ffffff"
     bordercolor="#666666"
     borderopacity="1"
     objecttolerance="10"
     gridtolerance="10"
     guidetolerance="10"
     inkscape:pageopacity="0"
     inkscape:pageshadow="2"
     inkscape:window-width="640"
     inkscape:window-height="480"
     id="namedview108"
     showgrid="false"
     inkscape:zoom="0.12542268"
     inkscape:cx="-419.06595"
     inkscape:cy="-246.39083"
     inkscape:window-x="0"
     inkscape:window-y="0"
     inkscape:window-maximized="0"
     inkscape:current-layer="svg2" />
  <path
     d="M 8.7905,0 8.2942,0.65575 6.7878,2.07357 3.3141,3.72179 0,3.73949 c 0.01,1.9373 0.1956,2.10514 0.8507,3.17238 L 4.0022,7.30789 4.8744,4.84688 6.9118,6.30929 10.2969,9.64117 11.353,7.99421 13.3097,8.6487 14.0718,7.33721 7.0891,5.52949 6.7701,5.8485 4.7851,4.51929 3.8812,7.07137 C 3.1796,6.98747 2.4757,6.92427 1.7722,6.8587 1.6158,6.8487 1.1683,6.5861 0.9924,6.4688 0.8165,6.35148 0.468,5.79528 0.3899,5.51177 0.3119,5.22826 0.3719,3.98762 0.3719,3.98761 H 3.2784 L 6.6103,2.44573 7.1598,2.0381 9.5346,2.92424 c 0.7869,-0.36674 1.495,-0.83171 2.1622,-1.38237 z"
     style="fill:#3F72AF;fill-opacity:1"
     id="IL_4"
     inkscape:connector-curvature="0" />
</svg>
