<?xml version="1.0" encoding="UTF-8" standalone="no"?>
<svg
   xmlns:dc="http://purl.org/dc/elements/1.1/"
   xmlns:cc="http://creativecommons.org/ns#"
   xmlns:rdf="http://www.w3.org/1999/02/22-rdf-syntax-ns#"
   xmlns:svg="http://www.w3.org/2000/svg"
   xmlns="http://www.w3.org/2000/svg"
   xmlns:sodipodi="http://sodipodi.sourceforge.net/DTD/sodipodi-0.dtd"
   xmlns:inkscape="http://www.inkscape.org/namespaces/inkscape"
   version="1.0"
   width="54.174801"
   height="85.856499"
   id="svg2"
   sodipodi:docname="IN_2.svg"
   inkscape:version="0.92.2 5c3e80d, 2017-08-06">
  <metadata
     id="metadata16">
    <rdf:RDF>
      <cc:Work
         rdf:about="">
        <dc:format>image/svg+xml</dc:format>
        <dc:type
           rdf:resource="http://purl.org/dc/dcmitype/StillImage" />
      </cc:Work>
    </rdf:RDF>
  </metadata>
  <defs
     id="defs14" />
  <sodipodi:namedview
     pagecolor="#ffffff"
     bordercolor="#666666"
     borderopacity="1"
     objecttolerance="10"
     gridtolerance="10"
     guidetolerance="10"
     inkscape:pageopacity="0"
     inkscape:pageshadow="2"
     inkscape:window-width="640"
     inkscape:window-height="480"
     id="namedview12"
     showgrid="false"
     inkscape:zoom="0.12542268"
     inkscape:cx="-462.80935"
     inkscape:cy="-169.61992"
     inkscape:window-x="0"
     inkscape:window-y="0"
     inkscape:window-maximized="0"
     inkscape:current-layer="svg2" />
  <path
     d="m 25.3674,85.8565 -1.3598,-8.11624 -3.5617,0.34147 -0.7218,-5.10416 1.2023,-1.46438 -1.2152,-1.7505 0.5682,-2.17284 h 2.1362 v -3.9699 h -4.5884 l 0.6938,-3.69813 -1.2308,-3.23729 -7.1679,0.76761 C 7.9885,43.35141 7.0322,35.995 5.9689,23.82122 l -4.429,0.74829 C 0.7054,19.49589 0.2992,16.67039 0,10.95446 L 6.7483,5.48924 44.1911,0 44.7877,0.75967 c 0.3282,0.41782 1.8089,1.33057 3.2905,2.02834 l 2.6939,1.26867 C 50.916,5.8951 50.5245,6.87709 49.5979,8.60845 h -4.9741 l -0.7194,3.27509 c 1.2913,8.82487 2.2613,15.18752 3.8737,23.90535 l -1.2048,0.40158 1.0796,5.59501 2.4075,-0.33038 0.6055,2.31533 h 3.5089 v 2.04837 l -10.2794,1.52308 4.1479,26.90725 -9.8044,1.43416 1.2881,8.14448 z"
     style="fill:#3F72AF;fill-opacity:1"
     id="IN_2"
     inkscape:connector-curvature="0" />
</svg>
