<?xml version="1.0" encoding="UTF-8" standalone="no"?>
<svg
   xmlns:dc="http://purl.org/dc/elements/1.1/"
   xmlns:cc="http://creativecommons.org/ns#"
   xmlns:rdf="http://www.w3.org/1999/02/22-rdf-syntax-ns#"
   xmlns:svg="http://www.w3.org/2000/svg"
   xmlns="http://www.w3.org/2000/svg"
   xmlns:sodipodi="http://sodipodi.sourceforge.net/DTD/sodipodi-0.dtd"
   xmlns:inkscape="http://www.inkscape.org/namespaces/inkscape"
   version="1.0"
   width="109.3564"
   height="108.82939"
   id="svg2"
   sodipodi:docname="IN_9.svg"
   inkscape:version="0.92.2 5c3e80d, 2017-08-06">
  <metadata
     id="metadata72">
    <rdf:RDF>
      <cc:Work
         rdf:about="">
        <dc:format>image/svg+xml</dc:format>
        <dc:type
           rdf:resource="http://purl.org/dc/dcmitype/StillImage" />
      </cc:Work>
    </rdf:RDF>
  </metadata>
  <defs
     id="defs70" />
  <sodipodi:namedview
     pagecolor="#ffffff"
     bordercolor="#666666"
     borderopacity="1"
     objecttolerance="10"
     gridtolerance="10"
     guidetolerance="10"
     inkscape:pageopacity="0"
     inkscape:pageshadow="2"
     inkscape:window-width="640"
     inkscape:window-height="480"
     id="namedview68"
     showgrid="false"
     inkscape:zoom="0.12542268"
     inkscape:cx="-481.92165"
     inkscape:cy="-3.0416286"
     inkscape:window-x="0"
     inkscape:window-y="0"
     inkscape:window-maximized="0"
     inkscape:current-layer="svg2" />
  <path
     d="M 8.4165,108.82939 6.677,105.46564 H 3.1948 L 0,103.31276 0.042,101.13697 c 1.9774,-2.69375 4.0949,-5.33368 5.1324,-8.38891 l 2.1471,0.60904 0.8424,-5.1877 2.1453,-0.0282 c 0.095,-2.47404 -0.036,-4.23192 -0.92,-5.05006 H 7.1274 l -2.4896,-18.50796 1.2475,-0.90706 4.8009,0.20116 0.7246,-0.66808 1.4938,0.56662 3.5366,-2.50285 6.7108,-0.75196 -1.4482,-10.00154 17.2626,-2.81489 1.3407,-5.72425 -2.4037,-12.7101 -13.6991,1.52195 -2.6944,-21.14415 c 8.184,-1.48145 16.5652,-3.0267 22.5534,-3.79777 l 1.9925,12.1171 8.9107,-1.90294 -2.2667,-3.42075 1.9269,-1.92688 2.8872,3.53763 6.4428,-1.68238 0.7218,3.84785 L 70.3089,15.3504 85.9194,1.73602 98.6161,4e-5 l 0.4973,5.80655 1.7837,1.971 -0.3309,1.55977 3.1878,0.36552 1.6328,-1.3551 v 2.80893 l -1.4178,1.52983 c -0.7798,0.84139 -1.4178,1.82496 -1.4178,2.18566 0,0.36063 0.9049,1.58246 2.0109,2.71513 l 2.011,2.05941 -1.9481,3.39427 0.7262,1.89239 h 2.0027 c 1.1016,0 2.0028,0.13657 2.0028,0.30353 0,0.1669 -0.401,0.91546 -0.891,1.66333 l -0.891,1.35986 1.2548,2.34457 h -3.8709 l -1.4121,1.70138 h -3.0953 l -6.8692,6.80555 h -1.6305 l -2.1376,-2.36204 -2.2801,0.29763 c -1.254,0.16362 -3.4225,0.50367 -4.8189,0.75565 l -2.539,0.45807 -1.1055,3.14637 1.9299,3.26706 v 2.28513 l 1.9652,3.42426 -1.201,1.31126 c -0.6606,0.72122 -1.3699,1.86892 -1.5763,2.55055 l -0.3753,1.23923 -5.039,1.92444 -0.57,2.05199 c -0.3135,1.12858 -0.5714,2.98945 -0.5731,4.13522 v 2.08317 l -2.8715,3.4127 -3.7366,-0.60637 -1.8988,1.8988 v 2.2274 l -1.985,3.03958 v 10.67824 l -1.1342,0.61284 c -0.6239,0.3371 -1.8128,1.06013 -2.6421,1.60679 l -1.5078,0.99389 -1.3861,-1.67008 -5.8696,0.24562 -3.6234,-2.58009 v -3.40011 l -1.1741,-2.19394 h -2.7958 v 2.26852 h -2.3041 l -0.575,1.49858 -3.3593,-0.49306 v 2.34088 l 1.9314,1.08083 -1.4466,1.74307 -2.4697,0.35168 0.1572,5.96994 1.3352,1.60888 -3.7609,0.36098 -0.3469,4.16715 -1.7298,1.43557 0.7851,-4.1849 h -3.4621 l -0.3505,0.56713 c -0.1928,0.31192 -0.5784,0.56713 -0.8569,0.56713 -0.2785,0 -1.3257,-1.21224 -2.327,-2.69386 -1.0013,-1.48162 -1.8948,-2.78829 -1.9858,-2.90376 -0.091,-0.11541 -0.794,-0.0521 -1.5626,0.14082 l -1.3974,0.35071 -2.434,3.93837 -4.0323,1.11333 -2.1343,1.93159 -0.01,2.32239 c 0,1.27729 -0.1569,2.87897 -0.3394,3.55918 l -0.3317,1.23686 z"
     style="fill:#3F72AF;fill-opacity:1"
     id="IN_9"
     inkscape:connector-curvature="0" />
</svg>
