<?xml version="1.0" encoding="UTF-8" standalone="no"?>
<svg
   xmlns:dc="http://purl.org/dc/elements/1.1/"
   xmlns:cc="http://creativecommons.org/ns#"
   xmlns:rdf="http://www.w3.org/1999/02/22-rdf-syntax-ns#"
   xmlns:svg="http://www.w3.org/2000/svg"
   xmlns="http://www.w3.org/2000/svg"
   xmlns:sodipodi="http://sodipodi.sourceforge.net/DTD/sodipodi-0.dtd"
   xmlns:inkscape="http://www.inkscape.org/namespaces/inkscape"
   version="1.0"
   width="298.91229"
   height="191.40697"
   id="svg2"
   sodipodi:docname="KS_1.svg"
   inkscape:version="0.92.2 5c3e80d, 2017-08-06">
  <metadata
     id="metadata8">
    <rdf:RDF>
      <cc:Work
         rdf:about="">
        <dc:format>image/svg+xml</dc:format>
        <dc:type
           rdf:resource="http://purl.org/dc/dcmitype/StillImage" />
      </cc:Work>
    </rdf:RDF>
  </metadata>
  <defs
     id="defs6" />
  <sodipodi:namedview
     pagecolor="#ffffff"
     bordercolor="#666666"
     borderopacity="1"
     objecttolerance="10"
     gridtolerance="10"
     guidetolerance="10"
     inkscape:pageopacity="0"
     inkscape:pageshadow="2"
     inkscape:window-width="640"
     inkscape:window-height="480"
     id="namedview4"
     showgrid="false"
     inkscape:zoom="0.12542268"
     inkscape:cx="235.06395"
     inkscape:cy="88.446554"
     inkscape:window-x="0"
     inkscape:window-y="0"
     inkscape:window-maximized="0"
     inkscape:current-layer="svg2" />
  <path
     d="M 298.9123,0 C 198.5006,5.08789 103.808,4.92302 4.1117,3.81037 2.9981,66.09318 1.92,124.38687 0,190.66158 c 61.2698,0.67097 118.9644,1.33355 180.9495,-0.14178 v -23.07505 h -5.5117 l -0.7267,-22.11802 37.0584,-1.15201 c 0.6587,-9.00696 -0.8051,-18.11579 -0.4077,-27.13353 8.897,-0.97603 17.9468,-0.21551 26.8677,-0.79755 v 5.42316 l 31.0503,-1.40007 0.7976,8.61327 4.8737,-0.7798 0.7798,5.86621 1.0811,0.65577 0.6912,-3.47366 18.6621,-0.74436 -2.5344,-73.53181 -1.1874,-0.35445 c -0.6555,-0.20207 -2.2807,-1.015 -3.6154,-1.78998 l -2.8002,-1.47101 1.7014,-0.97473 -0.1064,-1.04567 -1.6837,-0.63802 -0.3721,1.02792 c -2.6086,-0.7202 -4.0089,-0.83912 -6.0081,-0.7975 l -0.9038,1.61275 -1.9672,-1.32918 -1.9495,2.3394 h -2.0736 l 0.5671,7.93981 h -6.0789 V 59.6903 h -9.6412 v -0.85069 l -6.965,0.3899 0.6912,-3.45597 -1.0989,-0.69116 v -3.89901 h -2.4988 -2.4812 l -0.4077,-22.40158 33.886,-1.48872 -0.8684,-16.73029 16.1277,-0.90389 -0.3722,-5.26364 5.3877,0.0709 z"
     style="fill:#3F72AF;fill-opacity:1"
     id="KS_1"
     inkscape:connector-curvature="0" />
</svg>
