<?xml version="1.0" encoding="UTF-8" standalone="no"?>
<svg
   xmlns:dc="http://purl.org/dc/elements/1.1/"
   xmlns:cc="http://creativecommons.org/ns#"
   xmlns:rdf="http://www.w3.org/1999/02/22-rdf-syntax-ns#"
   xmlns:svg="http://www.w3.org/2000/svg"
   xmlns="http://www.w3.org/2000/svg"
   xmlns:sodipodi="http://sodipodi.sourceforge.net/DTD/sodipodi-0.dtd"
   xmlns:inkscape="http://www.inkscape.org/namespaces/inkscape"
   version="1.0"
   width="119.1105"
   height="186.70297"
   id="svg2"
   sodipodi:docname="KS_2.svg"
   inkscape:version="0.92.2 5c3e80d, 2017-08-06">
  <metadata
     id="metadata16">
    <rdf:RDF>
      <cc:Work
         rdf:about="">
        <dc:format>image/svg+xml</dc:format>
        <dc:type
           rdf:resource="http://purl.org/dc/dcmitype/StillImage" />
      </cc:Work>
    </rdf:RDF>
  </metadata>
  <defs
     id="defs14" />
  <sodipodi:namedview
     pagecolor="#ffffff"
     bordercolor="#666666"
     borderopacity="1"
     objecttolerance="10"
     gridtolerance="10"
     guidetolerance="10"
     inkscape:pageopacity="0"
     inkscape:pageshadow="2"
     inkscape:window-width="640"
     inkscape:window-height="480"
     id="namedview12"
     showgrid="false"
     inkscape:zoom="0.12542268"
     inkscape:cx="-9.9711537"
     inkscape:cy="83.033651"
     inkscape:window-x="0"
     inkscape:window-y="0"
     inkscape:window-maximized="0"
     inkscape:current-layer="svg2" />
  <path
     d="m 76.2788,0 -10.9172,0.51394 -10.9173,0.49623 0.071,4.55478 -5.5472,-0.10633 0.514,5.45861 -16.119,0.7747 0.771,16.80629 -34.134,1.45327 0.7443,21.37366 h 4.927 v 4.26481 l 1.1671,0.65339 -0.6,3.18108 6.8055,-0.62027 v 1.02792 h 9.6412 v 1.70139 h 4.8561 l -0.4431,-7.9398 h 2.4989 l 2.0382,-2.51664 1.8077,1.50641 0.7089,-1.84317 2.4457,0.23042 c 1.3452,0.12568 2.7037,0.39371 3.0129,0.58483 l 0.5671,0.33676 0.4254,-1.29379 2.4989,1.32923 v 1.5773 l -1.4179,0.56713 c 0.9819,0.22453 1.7888,0.47219 2.6762,0.85069 0.4208,0.42076 1.71,1.08776 2.8711,1.47102 l 2.109,0.69116 3.9699,106.6734 21.4268,-0.4431 0.9769,23.38765 43.3967,-2.01614 -5.5362,-107.85938 -21.1323,1.15275 v -4.413 l -9.1627,-1.40007 -1.2229,-2.69386 h -3.3673 c 0.2615,-1.31903 0.5548,-2.63335 0.7089,-3.9699 0,-0.23661 0.5317,-0.57292 1.1875,-0.74436 l 1.2051,-0.31901 -3.1901,-4.16488 2.2153,-1.63049 4.5371,0.33676 0.3367,3.47366 4.4838,1.1874 v -1.66594 l 2.8357,0.53168 v -1.54185 h 2.0381 l 1.3292,1.32918 2.1268,-1.91406 -0.3013,-12.45908 h 3.0838 l -0.053,-2.8534 -3.5446,-2.14442 -0.7798,-4.18258 2.0558,-1.66594 -3.0837,0.47849 -2.4812,-3.63314 -3.2256,-1.20515 v -1.82547 l -3.58,-3.1901 0.7622,-3.03057 h 2.2507 v -3.72178 l 1.7723,-2.51663 h 1.6305 v -1.55961 c 0,-0.85778 0.2449,-1.92143 0.5317,-2.37485 l 0.5317,-0.833 2.8002,1.50647 0.6203,-0.38991 c 0.3417,-0.21114 0.6203,-0.6451 0.6203,-0.95702 v -0.56713 l -1.152,0.70891 -2.2508,-0.70891 v -2.19763 h 2.2685 V 9.44621 L 94.4272,9.07406 94.0728,5.38773 90.7409,6.09664 V 7.58535 L 88.4547,8.31195 84.9987,7.5499 84.2189,5.67129 H 81.3833 V 3.42047 l -2.1268,-0.4076 z"
     style="fill:#3F72AF;fill-opacity:1"
     id="KS_2"
     inkscape:connector-curvature="0" />
</svg>
