<?xml version="1.0" encoding="UTF-8" standalone="no"?>
<svg
   xmlns:dc="http://purl.org/dc/elements/1.1/"
   xmlns:cc="http://creativecommons.org/ns#"
   xmlns:rdf="http://www.w3.org/1999/02/22-rdf-syntax-ns#"
   xmlns:svg="http://www.w3.org/2000/svg"
   xmlns="http://www.w3.org/2000/svg"
   xmlns:sodipodi="http://sodipodi.sourceforge.net/DTD/sodipodi-0.dtd"
   xmlns:inkscape="http://www.inkscape.org/namespaces/inkscape"
   version="1.0"
   width="116.4085"
   height="106.59005"
   id="svg2"
   sodipodi:docname="KY_2.svg"
   inkscape:version="0.92.2 5c3e80d, 2017-08-06">
  <metadata
     id="metadata16">
    <rdf:RDF>
      <cc:Work
         rdf:about="">
        <dc:format>image/svg+xml</dc:format>
        <dc:type
           rdf:resource="http://purl.org/dc/dcmitype/StillImage" />
      </cc:Work>
    </rdf:RDF>
  </metadata>
  <defs
     id="defs14" />
  <sodipodi:namedview
     pagecolor="#ffffff"
     bordercolor="#666666"
     borderopacity="1"
     objecttolerance="10"
     gridtolerance="10"
     guidetolerance="10"
     inkscape:pageopacity="0"
     inkscape:pageshadow="2"
     inkscape:window-width="640"
     inkscape:window-height="480"
     id="namedview12"
     showgrid="false"
     inkscape:zoom="0.12542268"
     inkscape:cx="-477.63435"
     inkscape:cy="55.020381"
     inkscape:window-x="0"
     inkscape:window-y="0"
     inkscape:window-maximized="0"
     inkscape:current-layer="svg2" />
  <path
     d="m 109.3193,0.00529961 c -4.4738,0.0269 -8.9943,0.35588 -13.5224,0.76205 l -1.471,3.56230999 2.2331,0.12403 2.1799,3.66864 4.3952,-1.09881 1.0988,2.12673 -6.0257,0.7975 -2.1445,-1.91406 -3.5977,1.1697 C 92.366,11.63155 91.9139,14.05932 91.189,16.48748 l -6.3127,4.25953 -7.068,0.0294 -8.0362,4.36423 c 0.447,2.01858 -0.6469,2.63028 -1.9772,3.02614 -0.8273,0.004 -2.0807,0.14864 -2.7825,0.33676 l -1.276,0.35445 v 2.69387 h -1.5773 l -1.8255,-2.8002 -5.9903,0.15947 C 53.1307,28.13967 51.9049,27.38856 50.7102,26.58948 50.5671,26.48201 50.3119,25.21504 50.143,23.77153 l -0.3013,-2.62297 -1.276,-0.42535 -0.6026,2.32172 h -1.9672 l -1.471,1.98495 -2.3394,-1.41783 v 0.53169 c 0,0.29904 0.4039,0.78354 0.9039,1.06336 l 0.9216,0.49624 -0.4077,2.16218 -3.7395,1.70139 0.6735,4.48383 1.2051,1.45327 -0.6557,1.71913 h -3.4382 v 4.34205 l -2.7293,1.47102 -1.3647,-0.85069 0.6203,-3.82812 H 33.714 c -0.2541,0 -0.7814,0.38281 -1.1697,0.85069 l -0.7089,0.8507 h -2.1267 l -1.666,-2.30396 c -0.9184,-1.26799 -1.7576,-2.56155 -1.8608,-2.87109 l -0.1773,-0.56713 -1.914,0.74436 -2.1445,3.63314 -4.5725,1.36468 -1.1343,1.41782 -0.5316,6.69921 -1.0456,0.76205 c -0.576,0.42109 -1.364,0.7621 -1.7546,0.7621 H 12.1986 L 10.1782,46.2972 H 6.8817 l -4.1488,-2.39277 0.035,3.77498 C 2.638,48.69661 3.5244,49.66544 5.39,50.58764 L 2.8937,53.42045 C 1.7304,53.39985 0.6903,53.62541 -4e-4,54.54983 l 0.023,2.23965 c 2.105,1.73689 8.3492,3.47383 13.5048,5.21072 l 5.2815,0.10572 -1.9504,3.47383 6.7887,2.0918 3.7927,-0.31901 3.704,3.4026 10.2083,-0.90389 5.9551,1.16981 5.7066,11.50075 -2.6403,1.54236 -2.1806,-2.1801 c -1.4839,0.457 -3.1395,0.87968 -6.2563,1.01006 l 0.6911,2.0221 -1.418,9.81717 5.7072,9.67737 9.2688,0.0177 v 1.77182 l 6.1863,-6.72796 -0.46,-0.69564 3.6677,-3.51109 c 0.6775,1.13153 1.6261,2.15877 4.1291,2.58832 l 1.3467,-1.73808 c 0.7833,0.36069 0.5407,1.94474 0.1063,3.75722 l 1.152,-0.0531 c 0.4337,1.83546 0.7865,3.74997 1.79,5.01552 l 1.7546,0.0354 1.8254,1.71913 c 3.2648,-3.32139 6.4917,-6.70743 10.0843,-9.12725 l -2.9775,-16.09228 -1.276,-0.81525 0.9039,-2.87109 3.1901,-1.43551 2.7293,2.94198 h 5.7953 l 4.9624,-3.40278 c 2.3332,-2.73095 4.5692,-5.40859 5.1573,-7.1423 l 4.094,-1.40007 0.7798,-3.04832 0.8861,-1.34693 0.514,-2.56983 2.1267,-2.81789 h 1.7546 l -1.0102,-8.29426 -1.4001,-19.08745 -1.3824,-2.32166 -3.3141,0.42535 -1.1875,-1.52416 -1.8077,1.41782 -1.3292,-4.78515 c 1.9251,-1.61143 0.3705,-1.55841 4.4129,-6.09663 v -3.9699 l 1.3824,-0.0177 -0.2127,-10.5095804 0.6735,-2.69385999 c -0.6372,-0.01 -1.275,-0.004 -1.9141,0 z"
     style="fill:#3F72AF;fill-opacity:1"
     id="KY_2"
     inkscape:connector-curvature="0" />
</svg>
