<?xml version="1.0" encoding="UTF-8" standalone="no"?>
<svg
   xmlns:dc="http://purl.org/dc/elements/1.1/"
   xmlns:cc="http://creativecommons.org/ns#"
   xmlns:rdf="http://www.w3.org/1999/02/22-rdf-syntax-ns#"
   xmlns:svg="http://www.w3.org/2000/svg"
   xmlns="http://www.w3.org/2000/svg"
   xmlns:sodipodi="http://sodipodi.sourceforge.net/DTD/sodipodi-0.dtd"
   xmlns:inkscape="http://www.inkscape.org/namespaces/inkscape"
   version="1.0"
   width="59.7379"
   height="67.8741"
   id="svg2"
   sodipodi:docname="LA_1.svg"
   inkscape:version="0.92.2 5c3e80d, 2017-08-06">
  <metadata
     id="metadata8">
    <rdf:RDF>
      <cc:Work
         rdf:about="">
        <dc:format>image/svg+xml</dc:format>
        <dc:type
           rdf:resource="http://purl.org/dc/dcmitype/StillImage" />
      </cc:Work>
    </rdf:RDF>
  </metadata>
  <defs
     id="defs6" />
  <sodipodi:namedview
     pagecolor="#ffffff"
     bordercolor="#666666"
     borderopacity="1"
     objecttolerance="10"
     gridtolerance="10"
     guidetolerance="10"
     inkscape:pageopacity="0"
     inkscape:pageshadow="2"
     inkscape:window-width="640"
     inkscape:window-height="480"
     id="namedview4"
     showgrid="false"
     inkscape:zoom="0.12542268"
     inkscape:cx="-366.22215"
     inkscape:cy="502.30907"
     inkscape:window-x="0"
     inkscape:window-y="0"
     inkscape:window-maximized="0"
     inkscape:current-layer="svg2" />
  <path
     d="m 25.0958,67.8741 c -0.3655,0 -0.9168,-0.319 -1.225,-0.7089 -0.3082,-0.3899 -0.7861,-1.4108 -1.0619,-2.2685 l -0.5015,-1.5596 -1.1343,-0.2836 -0.1703,3.4154 c -2.9419,0.095 -3.7835,0.2173 -5.4597,0.9857 l 0.061,-1.1611 1.9086,-1.4152 -1.7741,-2.7075 0.5125,-1.0575 4.6388,-0.7116 -1.0956,-10.7717 -1.4008,-3.8739 -3.3773,0.027 -0.7009,1.1343 -2.2455,0.1884 C 9.9857,44.9643 9.3069,44.7123 6.7673,41.7094 c 0,-0.3148 -1.1332,-2.2376 -1.757,-2.6271 L 3.876,38.3739 v -1.0161 c 0,-0.5587 -0.2262,-1.2584 -0.5026,-1.5547 L 2.8707,35.2643 3e-4,4.6397 42.8112,10e-5 c 0.1298,0.1299 -0.048,1.3544 -0.3947,2.7212 -0.347,1.3668 -0.8494,3.8633 -1.1166,5.5478 l -0.4858,3.0627 -1.1066,0.6839 -0.801,9.1822 1.8329,1.5944 c 0,0.49 0.5156,1.9017 1.1457,3.1369 l 1.1458,2.246 h 1.1112 v 1.4568 l 1.8432,1.083 c 1.0138,0.5956 2.1387,1.3744 2.4998,1.7308 0.3612,0.3564 0.9248,1.619 1.2525,2.8058 l 0.5958,2.1579 2.4458,2.6035 0.3631,4.8679 0.6041,0.2013 c 0.3322,0.1108 0.6041,0.5062 0.6041,0.8788 0,0.3725 0.5133,1.1169 1.1407,1.6541 l 1.1408,0.9767 3.1062,0.09 -0.8507,0.3127 c -0.4679,0.1721 -1.273,0.6799 -1.7891,1.1285 l -0.9384,0.8157 -4.6816,-1.4027 -1.2434,1.2435 -1.976,-1.2341 -2.5872,2.4103 -1.0972,-0.3684 0.1347,-1.7124 -4.1986,-0.4077 -5.5268,3.7157 c -2.195,-0.9862 -3.2052,-1.2724 -6.1542,-1.5047 v 9.958 h 2.2329 l -0.3772,0.9924 c -0.2074,0.5459 -1.4004,1.9496 -2.651,3.1193 -1.2505,1.1697 -2.5728,2.1267 -2.9383,2.1267 z"
     style="fill:#3F72AF;fill-opacity:1"
     id="LA_1"
     inkscape:connector-curvature="0" />
</svg>
