<?xml version="1.0" encoding="UTF-8" standalone="no"?>
<svg
   xmlns:dc="http://purl.org/dc/elements/1.1/"
   xmlns:cc="http://creativecommons.org/ns#"
   xmlns:rdf="http://www.w3.org/1999/02/22-rdf-syntax-ns#"
   xmlns:svg="http://www.w3.org/2000/svg"
   xmlns="http://www.w3.org/2000/svg"
   xmlns:sodipodi="http://sodipodi.sourceforge.net/DTD/sodipodi-0.dtd"
   xmlns:inkscape="http://www.inkscape.org/namespaces/inkscape"
   version="1.0"
   width="167.3739"
   height="86.008698"
   id="svg2"
   sodipodi:docname="LA_3.svg"
   inkscape:version="0.92.2 5c3e80d, 2017-08-06">
  <metadata
     id="metadata24">
    <rdf:RDF>
      <cc:Work
         rdf:about="">
        <dc:format>image/svg+xml</dc:format>
        <dc:type
           rdf:resource="http://purl.org/dc/dcmitype/StillImage" />
      </cc:Work>
    </rdf:RDF>
  </metadata>
  <defs
     id="defs22" />
  <sodipodi:namedview
     pagecolor="#ffffff"
     bordercolor="#666666"
     borderopacity="1"
     objecttolerance="10"
     gridtolerance="10"
     guidetolerance="10"
     inkscape:pageopacity="0"
     inkscape:pageshadow="2"
     inkscape:window-width="640"
     inkscape:window-height="480"
     id="namedview20"
     showgrid="false"
     inkscape:zoom="0.12542268"
     inkscape:cx="-293.87225"
     inkscape:cy="560.15487"
     inkscape:window-x="0"
     inkscape:window-y="0"
     inkscape:window-maximized="0"
     inkscape:current-layer="svg2" />
  <path
     d="m 12.7958,0 -1.5241,0.9394 c 1.5977,2.6853 3.3157,3.7534 4.6788,6.3801 C 10.5269,7.701 5.4529,7.7355 0,8.117 v 1.985 l 2.0204,-0.089 c -0.9253,2.852 -0.149,3.9166 0.6026,5.0155 l -1.4533,1.5596 1.2583,2.8534 -1.3292,0.6912 0.035,1.595 3.6863,-0.4962 C 4.5465,27.4482 2.9289,30.183 1.754,33.921 l 2.3217,10.8818 2.2862,-1.7368 1.8787,-0.9039 2.2508,2.2508 -0.6026,1.5419 c -0.3254,0.8559 -0.5849,2.1824 -0.5849,2.942 v 1.3823 h 0.6026 c 0.3327,0 1.4988,-0.6761 2.5875,-1.5064 l 1.985,-1.5064 8.7196,-0.1064 0.1772,5.1042 -1.2583,1.5242 5.246,-0.7798 2.0026,6.3802 0.8861,-0.3723 c 0.4857,-0.2063 1.4809,-0.5006 2.1977,-0.6557 l 1.2938,-0.2835 1.4709,2.0204 3.5446,-0.7089 0.9393,1.7013 3.899,0.4785 0.2127,0.638 c 0.1152,0.3455 0.8125,0.8503 1.5596,1.1343 l 1.3646,0.514 v 2.0735 l 1.2761,1.2938 -0.6912,1.8077 -2.7293,-0.6912 -1.2938,3.899 -2.428,1.0812 3.3141,2.3571 2.2686,0.6203 c 1.2476,0.3455 3.2527,0.6362 4.4661,0.638 h 2.2154 l 1.2583,1.6836 6.3625,0.195 1.2582,-0.7798 1.8078,1.5773 c 0.9966,0.8696 2.535,2.2719 3.4205,3.1192 l 1.6127,1.5419 v 1.7369 l 3.1192,-0.089 -1.4178,-0.5671 v -1.985 l 2.7825,-2.6052 4.3066,-0.4785 1.1343,-1.152 v -4.1826 l 4.1649,-0.3367 0.6202,-1.6482 h -1.081 c -0.5956,0 -1.1916,-0.1915 -1.3293,-0.4254 -0.1377,-0.2339 -0.025,-1.0134 0.2482,-1.7368 l 0.4962,-1.3115 2.4103,0.7621 0.8861,-1.4355 1.7546,0.7266 c 0.9646,0.3995 1.7545,0.8061 1.7545,0.9039 0,0.098 -0.2608,0.8669 -0.5848,1.719 l -0.5849,1.5596 0.7267,0.4608 c 0.402,0.2551 1.289,0.4738 1.985,0.4786 h 1.276 l 0.2481,-1.2761 c 0.1423,-0.7018 0.421,-1.9779 0.6026,-2.8356 l 0.319,-1.5596 h 2.428 l 1.8964,1.9495 c 1.0452,1.0762 1.8963,2.212 1.8963,2.5166 v 0.5494 l -1.7369,0.3722 1.8078,2.5521 h 2.233 l 0.6912,1.8254 -1.5419,0.957 0.6026,0.6026 4.4661,-2.3571 2.6939,-2.623 c 1.4816,-1.4401 2.6939,-2.8203 2.6939,-3.066 0,-0.2457 -0.2806,-0.4431 -0.6203,-0.4431 -0.3399,0 -1.0983,-0.5742 -1.6837,-1.276 -0.5855,-0.7018 -1.0707,-1.4675 -1.0811,-1.7014 l -0.018,-0.4253 h 2.2685 l -0.2836,-1.3824 2.623,-0.4077 -1.2051,-1.4355 -0.7089,-6.8764 0.7266,-2.942 h 0.7798 c 0.4237,0 1.0827,0.3828 1.471,0.8507 0.3883,0.4679 1.0298,0.8507 1.4355,0.8507 h 0.7444 l 3.4914,-3.4914 1.9849,0.4076 -0.1418,2.8002 1.5596,0.9039 v 2.5698 l -1.5773,2.1444 0.514,1.3647 4.4307,0.018 3.5091,-0.071 5.3168,2.3749 6.8055,1.3292 4.3776,4.6788 1.1165,3.1192 h 1.79 l 2.0736,1.8786 0.071,2.3749 1.0633,-2.6584 2.1622,-0.5672 0.5671,-2.1621 h 0.6026 c 0.3288,0 0.927,0.4031 1.3292,0.8861 0.4023,0.4828 1.2207,1.376 1.8255,1.9849 0.6046,0.6089 1.2426,1.0882 1.4178,1.0811 0.1751,-0.01 0.7266,-0.8365 1.2229,-1.8432 l 0.9038,-1.8254 1.2406,-0.071 c 0.6835,-0.036 1.3198,-0.1635 1.4178,-0.2835 0.098,-0.1202 0.549,-0.9976 1.0103,-1.9495 l 0.8507,-1.7192 -1.7014,-1.595 2.8711,-1.1874 -0.5849,-1.2761 c -0.3144,-0.7018 -0.7683,-1.276 -1.0102,-1.276 -0.242,0 -0.8386,0.3955 -1.3292,0.8861 l -0.8862,0.9039 -1.9849,-0.3899 -0.018,-2.7293 -0.8507,-0.2659 c -0.4612,-0.1491 -1.3951,-0.8882 -2.0913,-1.6304 -0.6963,-0.7424 -1.5589,-1.8885 -1.9141,-2.5521 l -0.6557,-1.2052 -0.5848,1.0811 c -0.3256,0.5957 -0.8667,1.2654 -1.2052,1.4887 l -0.6203,0.4076 -1.2938,-1.4001 c -0.7144,-0.7692 -1.5269,-1.4 -1.8077,-1.4 -0.2809,0 -0.6757,0.2551 -0.8684,0.5671 l -0.3545,0.5671 h -2.3216 l 0.5671,-2.1799 -7.1069,-0.3722 -1.4532,1.5596 -2.0736,-2.6938 v -0.9571 c -0.01,-0.5274 -0.2599,-1.1148 -0.5494,-1.2937 l -0.5139,-0.3191 -0.7267,2.2863 h -0.6026 c -0.3239,0 -1.0879,-0.638 -1.7014,-1.4178 l -1.1165,-1.4178 -2.4635,-0.035 -0.9924,-0.7443 c -0.5459,-0.4145 -0.9925,-1.0447 -0.9925,-1.4002 0,-0.3555 0.1914,-0.6544 0.4253,-0.6557 h 0.4254 l 0.195,-3.9699 h -1.0457 v -2.2685 h 2.3926 l -0.7089,-2.8002 1.5773,0.2304 c 0.862,0.1342 2.708,0.3737 4.1117,0.5317 l 2.552,0.2835 -1.4178,-0.5848 c -0.7798,-0.3281 -2.311,-0.9798 -3.4027,-1.4533 -1.0918,-0.4734 -2.3678,-1.0623 -2.8357,-1.2938 l -0.8507,-0.4076 -0.3721,-2.5343 9.0031,0.5494 3.7218,1.9317 -0.7798,-2.0558 1.985,-3.6686 1.719,0.1772 c 0.9526,0.095 2.1835,0.3526 2.7294,0.5849 l 0.9924,0.4253 v -2.623 l -1.2228,1.2406 -2.1091,-0.5493 -0.6025,-1.5951 h -1.7369 v -1.0457 l 7.3727,-2.4457 v -0.5317 c 0,-0.2865 -0.1068,-0.5139 -0.2481,-0.5139 -0.1413,0 -0.9163,0.3075 -1.7191,0.6735 l -1.471,0.6557 -1.3115,-1.3115 2.6762,-2.8534 h 2.6406 v -2.2685 h -1.6127 l -0.4253,-1.9849 -2.3927,5.2991 -2.4457,1.3114 -1.6305,-1.3646 v -2.1267 h -2.0381 l -0.6912,-0.6735 c -0.3743,-0.3743 -0.6735,-0.9898 -0.6735,-1.3647 v -0.6911 l 3.6864,-2.3572 -5.1573,-0.018 -1.3647,-1.3647 v 2.9243 l -3.7749,2.5876 -0.1773,6.9118 -2.4103,1.985 h -3.7749 l -3.1901,-2.7648 1.4355,-2.3394 -0.4431,0.018 c -0.2366,0.01 -0.9186,0.3928 -1.5241,0.8507 l -1.0988,0.833 h -2.6761 l -1.9318,-3.4028 h -1.0102 c -0.5568,0 -1.6172,0.4014 -2.3572,0.8862 l -1.3469,0.8861 -1.1874,-1.2583 -1.3115,1.0811 0.124,2.2508 c 1.4888,0.6076 2.9775,0.8576 4.4662,0.6912 l 1.5064,2.8356 -0.4962,0.3545 c -0.864,0.085 -1.6562,-0.6885 -2.4103,-1.7014 l -2.1622,0.3367 c -0.7251,1.3942 -1.462,2.7918 -2.8356,3.9699 l -0.9925,0.6558 0.4254,4.0408 -2.9598,-0.833 0.6558,-2.5698 -2.0736,-1.3115 -1.5898,1.8307 c -3.0394,-0.464 -4.8704,-3.453 -6.1618,-5.5558 l -0.1162,-1.9348 c -2.4541,-0.048 -4.5594,0.3035 -6.2395,1.1406 v -1.6837 l 1.7191,-1.4355 -1.7014,-2.623 0.6203,-1.6128 4.4661,-0.7266 -0.9268,-10.1831 -1.27,-3.5761 h -2.9194 l -0.7918,1.3001 c -1.8422,0.133 -3.9787,0.7368 -6.3738,1.7545 l -1.8964,3.9522 -0.7236,0.6143 -5.1844,-2.1215 -1.4646,0.8692 -0.3654,2.5992 -1.2364,0.034 -2.7935,-3.0235 -4.3952,-0.5671 -5.6181,0.9393 v 1.0456 l -3.0483,0.018 c -0.9861,1.0291 -2.1838,2.1167 -3.6332,2.6053 l -0.5672,5.3168 -0.9216,0.053 0.4254,3.1192 -4.8383,2.1622 -3.3319,0.4431 -0.5494,-1.7192 -5.6181,0.6203 -0.6203,-2.3926 -5.3169,-0.1949 0.2836,-3.3142 -2.0735,-2.552 0.8861,-1.6128 -6.2562,-0.833 c 0.3185,-1.0928 -1.0465,-2.7533 -2.3216,-4.3775 V 9.1978 L 17.6331,8.3293 19.3345,7.9926 C 19.5255,6.9861 18.3265,5.0083 16.9774,2.9239 Z M 7.5676,55.3837 6.9119,57.0851 h -3.58 l -1.3824,2.2331 1.0279,0.5493 c 0.5649,0.3024 2.6558,1.1088 4.6611,1.7901 2.0053,0.6811 3.8846,1.4441 4.1649,1.7014 l 0.4962,0.4784 3.1192,-0.2303 1.3115,-3.6332 2.3571,-0.7444 -0.7798,-0.4962 c -0.4311,-0.2731 -1.3269,-0.4915 -2.0027,-0.4963 -0.6757,0 -1.3138,-0.2091 -1.4178,-0.443 -0.1039,-0.2339 -1.0523,-0.872 -2.0913,-1.4178 l -1.8786,-0.9925 z"
     style="fill:#3F72AF"
     id="LA_3"
     inkscape:connector-curvature="0" />
</svg>
