<?xml version="1.0" encoding="UTF-8" standalone="no"?>
<svg
   xmlns:dc="http://purl.org/dc/elements/1.1/"
   xmlns:cc="http://creativecommons.org/ns#"
   xmlns:rdf="http://www.w3.org/1999/02/22-rdf-syntax-ns#"
   xmlns:svg="http://www.w3.org/2000/svg"
   xmlns="http://www.w3.org/2000/svg"
   xmlns:sodipodi="http://sodipodi.sourceforge.net/DTD/sodipodi-0.dtd"
   xmlns:inkscape="http://www.inkscape.org/namespaces/inkscape"
   version="1.0"
   width="62.415699"
   height="26.01977"
   id="svg2"
   sodipodi:docname="MA_2.svg"
   inkscape:version="0.92.2 5c3e80d, 2017-08-06">
  <metadata
     id="metadata24">
    <rdf:RDF>
      <cc:Work
         rdf:about="">
        <dc:format>image/svg+xml</dc:format>
        <dc:type
           rdf:resource="http://purl.org/dc/dcmitype/StillImage" />
      </cc:Work>
    </rdf:RDF>
  </metadata>
  <defs
     id="defs22" />
  <sodipodi:namedview
     pagecolor="#ffffff"
     bordercolor="#666666"
     borderopacity="1"
     objecttolerance="10"
     gridtolerance="10"
     guidetolerance="10"
     inkscape:pageopacity="0"
     inkscape:pageshadow="2"
     inkscape:window-width="640"
     inkscape:window-height="480"
     id="namedview20"
     showgrid="false"
     inkscape:zoom="0.12542268"
     inkscape:cx="-1093.2216"
     inkscape:cy="-405.14729"
     inkscape:window-x="0"
     inkscape:window-y="0"
     inkscape:window-maximized="0"
     inkscape:current-layer="svg2" />
  <path
     d="M 6.8813,26.01977 6.1486,23.1007 6.4564,22.79288 c 0.1694,-0.16931 1.198,-0.33874 2.2859,-0.37651 L 11.229,22.30854 11.324,20.8439 9.7631,20.40072 8.3816,17.07381 9.0023,14.77159 7.7291,13.58766 8.1888,10.51505 3.2557,10.08279 C 3.122,10.90226 2.6762,11.0434 2.0088,11.26387 L 0,7.47821 3.6517,5.66419 7.3284,6.17191 6.6044,1.48799 7.2801,1.68365 c 0.3069,0 0.7432,0.29934 0.9693,0.66521 0.2261,0.36586 0.6407,1.7057 0.9212,2.97742 0.2806,1.27172 0.5228,2.82264 0.5383,3.44648 0.015,0.62384 0.2347,2.355 0.5349,3.36874 l 1.25,1.4394 5.682,-2.28859 0.4601,0.72517 c 0.2532,0.39885 0.8164,0.89617 0.8211,1.15298 l 1.6415,0.12379 0.015,-0.55936 c 0.01,-0.30765 0.2633,-0.96884 0.5671,-1.46931 0.3038,-0.50047 1.665,-1.606 3.0249,-2.45672 l 2.4726,-1.54679 3.8317,3.22601 -0.8762,-7.07976 5.0277,-2.47939 1.0155,-0.0744 1.3285,1.45176 1.9789,-0.66107 2.3583,1.24295 -0.6763,3.38162 2.8685,2.12185 2.3281,-5.94746 C 46.5827,1.56856 47.7324,0.54708 49.141,-9.9999999e-6 L 54.3125,2.3614 l 3.4036,-0.68177 1.9059,2.55609 1.5075,-0.31355 1.2864,6.63687 -13.9604,5.15482 -0.1831,-1.12053 z"
     style="fill:#3F72AF;fill-opacity:1"
     id="MA_2"
     inkscape:connector-curvature="0" />
</svg>
