<?xml version="1.0" encoding="UTF-8" standalone="no"?>
<svg
   xmlns:dc="http://purl.org/dc/elements/1.1/"
   xmlns:cc="http://creativecommons.org/ns#"
   xmlns:rdf="http://www.w3.org/1999/02/22-rdf-syntax-ns#"
   xmlns:svg="http://www.w3.org/2000/svg"
   xmlns="http://www.w3.org/2000/svg"
   xmlns:sodipodi="http://sodipodi.sourceforge.net/DTD/sodipodi-0.dtd"
   xmlns:inkscape="http://www.inkscape.org/namespaces/inkscape"
   version="1.0"
   width="96.252197"
   height="110.00528"
   id="svg2"
   sodipodi:docname="MD_1.svg"
   inkscape:version="0.92.2 5c3e80d, 2017-08-06">
  <metadata
     id="metadata8">
    <rdf:RDF>
      <cc:Work
         rdf:about="">
        <dc:format>image/svg+xml</dc:format>
        <dc:type
           rdf:resource="http://purl.org/dc/dcmitype/StillImage" />
      </cc:Work>
    </rdf:RDF>
  </metadata>
  <defs
     id="defs6" />
  <sodipodi:namedview
     pagecolor="#ffffff"
     bordercolor="#666666"
     borderopacity="1"
     objecttolerance="10"
     gridtolerance="10"
     guidetolerance="10"
     inkscape:pageopacity="0"
     inkscape:pageshadow="2"
     inkscape:window-width="640"
     inkscape:window-height="480"
     id="namedview4"
     showgrid="false"
     inkscape:zoom="0.12542268"
     inkscape:cx="-959.61055"
     inkscape:cy="-115.86258"
     inkscape:window-x="0"
     inkscape:window-y="0"
     inkscape:window-maximized="0"
     inkscape:current-layer="svg2" />
  <path
     d="M 40.5673,0 C 34.0053,1.45725 27.5392,3.33338 21.0014,4.89149 l 2.6938,1.91406 c 1.4816,1.05015 2.6939,2.10524 2.6939,2.35713 v 0.46079 h -0.7798 c -0.4243,0 -1.7158,0.65149 -2.8711,1.43554 l -2.0913,1.41782 -1.8432,-1.02792 -2.5697,1.16971 1.0101,1.91406 -4.4661,1.43557 -3.9522,1.22284 1.2938,1.55961 -4.3775,4.48388 H 3.7748 L 3.0659,22.10033 H 0.8683 L 0,22.8676 c 2.7852,1.27467 3.5635,2.56654 5.6746,3.34634 L 6.8585,26.23844 6.256,25.5031 C 5.6897,24.87733 5.3304,24.26795 5.4585,24.15617 5.5866,24.04439 6.2316,23.6673 6.894,23.32317 l 1.2052,-0.62027 2.0204,2.23307 H 8.8081 v 1.13426 h 0.8507 c 0.4721,0 1.3651,-0.31516 1.9672,-0.69122 l 1.0811,-0.67346 1.0811,0.95703 c 0.5878,0.53202 1.2584,0.97478 1.4887,0.97478 0.2303,0 1.2587,-0.89556 2.2862,-1.98495 l 1.861,-1.96726 -1.4711,-1.24059 0.7976,-1.22285 3.2787,-0.93933 4.9269,-5.17505 v -2.09129 l 1.8432,-0.70891 1.7368,1.43555 1.1875,-0.19495 c 0.6538,-0.10695 1.6182,-0.57621 2.1444,-1.04565 l 0.957,-0.85069 0.6203,0.37218 0.6203,0.3899 -0.762,5.63584 2.0558,1.48871 -2.4457,3.43822 2.3571,0.62033 -0.7444,1.20514 h -1.4178 c -0.7819,0 -1.9133,0.2619 -2.5167,0.58483 l -1.0988,0.58488 v 2.23307 h -1.8254 l 0.6557,2.62297 -1.5064,2.19762 -0.8152,7.65624 h 1.2406 l 1.8786,3.93445 1.5773,-2.23307 h 2.1976 v 2.26852 h -1.1342 v 0.58482 c 0,0.32497 0.4925,1.13936 1.0988,1.79003 l 1.0988,1.1697 -0.8153,0.81525 c -0.4502,0.45024 -0.8152,1.05724 -0.8152,1.34693 v 0.53168 h -4.4662 l -1.6836,-2.37485 -0.7798,6.327 0.7444,3.98766 h 1.0456 l -1.0634,-2.8002 1.0988,-0.67347 1.1343,0.70891 -0.2836,-2.62297 1.985,0.15948 v -1.01017 l 2.552,0.0177 2.0913,6.71696 -0.7443,1.20515 h -2.1268 l -0.7089,-1.13426 -0.7089,0.70892 c -0.3848,0.39222 -0.7382,1.21932 -0.7975,1.84316 -0.059,0.62385 -0.1841,1.89217 -0.2658,2.8179 l -0.1418,1.68369 2.8356,0.0354 1.3824,-1.70138 2.9597,3.70403 1.0279,-0.63802 2.2863,1.2229 v 2.23307 h -1.7369 l -0.6734,1.75452 -3.0306,-0.0531 0.071,1.27604 c 0.039,0.70182 0.2609,1.70689 0.4962,2.23307 l 0.4254,0.95703 1.6127,-0.62032 v 2.85339 l -3.4028,1.1874 v 0.47854 c 0,0.26695 0.8933,1.35215 1.985,2.4103 l 1.9849,1.93175 v 1.50647 l 3.0129,1.13425 -0.6557,0.67347 c -0.3627,0.36268 -0.6558,0.84927 -0.6558,1.09881 v 0.46079 h 2.6939 l 1.4533,1.75453 0.3367,-0.49624 c 0.1835,-0.27863 1.0494,-0.69218 1.9141,-0.90383 l 1.5596,-0.37221 0.6734,1.71914 h 0.6026 c 0.332,0 1.0754,0.42098 1.6482,0.93928 l 1.0279,0.93933 -0.7089,-3.86356 -0.7798,-0.62033 C 51.1262,88.33842 50.7757,87.7642 50.7757,87.40872 V 86.75301 H 51.91 v -3.9699 h 0.6557 c 0.3654,0 1.131,0.42302 1.7014,0.93928 l 1.0456,0.93933 v 1.68364 l -1.7545,1.29379 2.8888,2.71155 v -1.8963 h 2.304 l 0.6025,1.57729 1.985,-0.51393 1.4887,1.77228 -1.4178,1.70138 h -0.9571 c -0.5232,0 -1.1947,0.25544 -1.5064,0.56713 l -0.5671,0.56713 0.4608,3.95215 1.8609,-2.19762 4.2534,-0.74436 v 0.51399 c 0,0.28702 -0.375,1.02492 -0.8329,1.6305 -0.458,0.60546 -0.8408,1.5427 -0.8507,2.09128 l -0.018,1.01017 2.2331,-1.40007 1.2761,1.27604 -2.1977,2.19763 -0.7089,3.58 1.2761,2.83564 h 2.0912 v -2.16218 l 3.8282,-3.95221 1.8963,-0.42534 c 1.0411,-0.22867 2.2866,-0.64358 2.7648,-0.92159 5.8101,-2.70446 11.939,-4.68811 17.8468,-7.16 l 0.3722,-1.43551 c 0.2115,-0.79092 0.5722,-4.97452 0.7975,-9.28674 l 0.4076,-7.83346 1.1165,-1.38238 -0.762,-6.66376 -30.3946,7.26634 z m -23.2523,41.29406 0.638,1.64825 -2.6229,2.95967 -4.5902,-0.93928 c -0.2897,0.77924 -0.5186,1.57384 -0.7444,2.37485 l 2.8179,3.22555 5.1928,-1.77228 0.9748,0.51393 c 0.5373,0.28759 1.3079,0.9225 1.7191,1.41783 l 0.762,0.90389 0.5672,-0.19498 c 0.3164,-0.10549 0.9508,-0.7413 1.4001,-1.41783 l 0.8153,-1.22284 -2.9952,-1.36468 0.5317,-1.41782 -1.2761,-3.42047 -0.8861,-0.31901 c -0.4853,-0.17672 -1.2049,-0.47395 -1.5951,-0.65577 z m 14.2491,2.64072 -0.035,1.1874 c -0.02,0.64987 0.1287,1.35175 0.3367,1.5596 0.2079,0.20797 0.4743,0.28782 0.5849,0.17723 0.1107,-0.1107 -0.038,-0.81258 -0.3367,-1.5596 z m 20.3458,51.04159 -0.035,0.56712 c -0.023,0.31192 0.074,1.20515 0.2304,1.98495 l 0.2836,1.41783 2.747,0.15947 -1.4178,-4.12937 z m 3.3319,4.71425 -0.6026,0.60258 0.3722,0.60257 c 0.2055,0.33262 0.6103,0.60258 0.9038,0.60258 0.2936,0 0.5317,-0.2382 0.5317,-0.53169 0,-0.29349 -0.27,-0.6983 -0.6026,-0.90389 z m 2.0735,4.18258 -0.8684,0.53168 v 1.34693 c 0,0.74112 0.2453,1.99998 0.5494,2.8002 l 0.5494,1.45327 h 1.1697 l 0.2836,-4.8206 z"
     style="fill:#3F72AF;fill-opacity:1"
     id="MD_1"
     inkscape:connector-curvature="0" />
</svg>
