<?xml version="1.0" encoding="UTF-8" standalone="no"?>
<svg
   xmlns:dc="http://purl.org/dc/elements/1.1/"
   xmlns:cc="http://creativecommons.org/ns#"
   xmlns:rdf="http://www.w3.org/1999/02/22-rdf-syntax-ns#"
   xmlns:svg="http://www.w3.org/2000/svg"
   xmlns="http://www.w3.org/2000/svg"
   xmlns:sodipodi="http://sodipodi.sourceforge.net/DTD/sodipodi-0.dtd"
   xmlns:inkscape="http://www.inkscape.org/namespaces/inkscape"
   version="1.0"
   width="153.0502"
   height="65.644592"
   id="svg2"
   sodipodi:docname="MD_6.svg"
   inkscape:version="0.92.2 5c3e80d, 2017-08-06">
  <metadata
     id="metadata48">
    <rdf:RDF>
      <cc:Work
         rdf:about="">
        <dc:format>image/svg+xml</dc:format>
        <dc:type
           rdf:resource="http://purl.org/dc/dcmitype/StillImage" />
      </cc:Work>
    </rdf:RDF>
  </metadata>
  <defs
     id="defs46" />
  <sodipodi:namedview
     pagecolor="#ffffff"
     bordercolor="#666666"
     borderopacity="1"
     objecttolerance="10"
     gridtolerance="10"
     guidetolerance="10"
     inkscape:pageopacity="0"
     inkscape:pageshadow="2"
     inkscape:window-width="640"
     inkscape:window-height="480"
     id="namedview44"
     showgrid="false"
     inkscape:zoom="0.12542268"
     inkscape:cx="-831.82675"
     inkscape:cy="-155.07018"
     inkscape:window-x="0"
     inkscape:window-y="0"
     inkscape:window-maximized="0"
     inkscape:current-layer="svg2" />
  <path
     d="M 6.2769,65.36109 5.8182,65.64459 0,35.38867 C 50.4761,23.59245 98.2006,12.71339 148.218,0 l 4.8322,3.71293 -4.2833,2.5781 -1.1995,-0.0172 -1.0157,-0.56843 -3.1733,1.64097 0.5663,1.05808 c 0.3596,0.82692 -0.6579,1.10212 -8.0432,3.45876 l 1.435,1.72912 -3.8027,3.9234 h -1.9791 l -0.701,-1.13426 h -2.3551 l -1.3411,1.44703 c -0.7376,0.79591 -1.3411,1.68913 -1.3411,1.98495 l -0.452,0.48472 -2.8743,0.0532 -0.7649,2.41013 0.486,0.35451 c 0.2673,0.19504 0.565,0.86498 0.6615,1.48883 0.096,0.62384 0.2402,1.57565 0.3193,2.11516 0.079,0.53951 0.3122,1.14934 0.518,1.35515 l 0.3742,0.37425 -0.6032,0.97603 h -4.4032 l -0.701,1.13426 h -5.6399 l -0.6529,1.70138 h -0.7566 c -0.4161,0 -0.9397,0.29656 -1.1638,0.65901 l -0.4072,0.65894 2.6422,2.13955 0.316,2.96365 -0.5581,1.04289 c -0.307,0.5736 -0.7439,1.04289 -0.9709,1.04289 -0.227,0 -0.6652,-0.57421 -0.9738,-1.27604 l -0.5612,-1.27604 -5.1015,0.36932 -4.537,4.25794 -4.537,-1.53487 -1.7229,-1.54543 -3.3813,0.18517 -2.3346,-0.0769 c -1.2841,-0.0423 -2.5681,-0.22124 -2.8535,-0.39762 l -0.5189,-0.32071 -0.2817,-3.69717 -0.6197,-0.74657 c -0.3407,-0.41065 -0.9712,-0.74662 -1.4008,-0.74662 h -0.7813 v -4.09285 l -2.7062,0.67919 -0.6289,-2.40497 -1.7327,0.66496 -0.6704,-1.08475 h 1.7683 v -3.40277 l -3.9699,-0.60592 v 1.87907 l -1.7878,-1.48378 -0.3821,0.57201 c -0.2102,0.31464 -0.8313,0.73777 -1.3803,0.94041 l -0.9981,0.36829 -4.9594,-3.49578 -4.5744,-0.58805 -1.3517,1.84662 h -1.5801 v 1.08787 c 0,0.59832 -0.1548,1.49155 -0.3442,1.98495 l -0.3443,0.89708 h -4.3346 l -1.7014,1.70139 -1.1018,1.58796 1.3236,0.68055 -2.5713,0.82251 1.6128,1.72957 -1.5026,2.05108 -9.6315,0.56753 -3.9743,-2.13014 -2.2173,-0.10356 -1.2698,1.88361 -1.5375,3.11921 c -0.8457,1.71556 -1.7116,3.24681 -1.9241,3.40277 -0.6666,0.89669 -0.8295,2.02096 -1.5702,2.83213 l -3.7018,-1.73201 -2.6402,1.69991 v 2.02419 l -5.7269,7.22222 -0.6532,3.26603 H 10.5832 L 9.9899,60.61751 H 9.5004 c -0.2692,0 -1.0014,1.00353 -1.6271,2.23006 -0.6257,1.22647 -1.3441,2.35761 -1.5964,2.51352 z"
     style="fill:#3F72AF;fill-opacity:1"
     id="MD_6"
     inkscape:connector-curvature="0" />
</svg>
