<?xml version="1.0" encoding="UTF-8" standalone="no"?>
<svg
   xmlns:dc="http://purl.org/dc/elements/1.1/"
   xmlns:cc="http://creativecommons.org/ns#"
   xmlns:rdf="http://www.w3.org/1999/02/22-rdf-syntax-ns#"
   xmlns:svg="http://www.w3.org/2000/svg"
   xmlns="http://www.w3.org/2000/svg"
   xmlns:sodipodi="http://sodipodi.sourceforge.net/DTD/sodipodi-0.dtd"
   xmlns:inkscape="http://www.inkscape.org/namespaces/inkscape"
   version="1.0"
   width="28.3564"
   height="18.07592"
   id="svg2"
   sodipodi:docname="MD_7.svg"
   inkscape:version="0.92.2 5c3e80d, 2017-08-06">
  <metadata
     id="metadata56">
    <rdf:RDF>
      <cc:Work
         rdf:about="">
        <dc:format>image/svg+xml</dc:format>
        <dc:type
           rdf:resource="http://purl.org/dc/dcmitype/StillImage" />
      </cc:Work>
    </rdf:RDF>
  </metadata>
  <defs
     id="defs54" />
  <sodipodi:namedview
     pagecolor="#ffffff"
     bordercolor="#666666"
     borderopacity="1"
     objecttolerance="10"
     gridtolerance="10"
     guidetolerance="10"
     inkscape:pageopacity="0"
     inkscape:pageshadow="2"
     inkscape:window-width="640"
     inkscape:window-height="480"
     id="namedview52"
     showgrid="false"
     inkscape:zoom="0.12542268"
     inkscape:cx="-942.33075"
     inkscape:cy="-177.18332"
     inkscape:window-x="0"
     inkscape:window-y="0"
     inkscape:window-maximized="0"
     inkscape:current-layer="svg2" />
  <path
     d="m 17.6033,18.07592 -0.6042,-0.97761 -3.6326,0.45977 -1.8782,-1.99131 C 10.4553,14.47159 8.7877,13.07407 7.7824,12.46118 L 5.9548,11.34683 3.9092,11.34283 1.9546,9.78323 C 0.8796,8.92545 0,8.03222 0,7.79828 0,7.56434 0.3515,7.37293 0.7812,7.37293 l 1.0292,0.0225 0.6908,-1.70139 5.3716,-0.0225 0.701,-1.13426 h 4.426 c 0.8328,-1.11611 1.215,-1.84901 2.3634,-2.53688 l 1.0406,1.68369 c 2.377,-1.05985 2.8157,-2.11964 4.0206,-2.16524 l 3.6785,-0.2446 1.5734,1.26248 1.0224,-1.06535 C 26.4857,0.323 27.5846,2.5e-4 27.8585,2.5e-4 h 0.4979 V 3.40302 H 26.8775 C 25.0154,5.4609 23.3112,6.30179 23.2522,8.63013 l -2.7585,-0.69235 -0.7413,2.33578 -2.7386,1.04119 v 1.68953 l -1.1342,0.60706 c -0.6239,0.33387 -1.1343,0.85324 -1.1343,1.15422 v 0.54716 h 4.1642 l 2.0812,-1.88349 0.6571,0.65713 -1.8136,3.82177 z"
     style="fill:#3F72AF;fill-opacity:1"
     id="MD_7"
     inkscape:connector-curvature="0" />
</svg>
