<?xml version="1.0" encoding="UTF-8" standalone="no"?>
<svg
   xmlns:dc="http://purl.org/dc/elements/1.1/"
   xmlns:cc="http://creativecommons.org/ns#"
   xmlns:rdf="http://www.w3.org/1999/02/22-rdf-syntax-ns#"
   xmlns:svg="http://www.w3.org/2000/svg"
   xmlns="http://www.w3.org/2000/svg"
   xmlns:sodipodi="http://sodipodi.sourceforge.net/DTD/sodipodi-0.dtd"
   xmlns:inkscape="http://www.inkscape.org/namespaces/inkscape"
   version="1.0"
   width="29.961304"
   height="17.99822"
   id="svg2"
   sodipodi:docname="MD_8.svg"
   inkscape:version="0.92.2 5c3e80d, 2017-08-06">
  <metadata
     id="metadata64">
    <rdf:RDF>
      <cc:Work
         rdf:about="">
        <dc:format>image/svg+xml</dc:format>
        <dc:type
           rdf:resource="http://purl.org/dc/dcmitype/StillImage" />
      </cc:Work>
    </rdf:RDF>
  </metadata>
  <defs
     id="defs62" />
  <sodipodi:namedview
     pagecolor="#ffffff"
     bordercolor="#666666"
     borderopacity="1"
     objecttolerance="10"
     gridtolerance="10"
     guidetolerance="10"
     inkscape:pageopacity="0"
     inkscape:pageshadow="2"
     inkscape:window-width="640"
     inkscape:window-height="480"
     id="namedview60"
     showgrid="false"
     inkscape:zoom="0.12542268"
     inkscape:cx="-929.85385"
     inkscape:cy="-163.64993"
     inkscape:window-x="0"
     inkscape:window-y="0"
     inkscape:window-maximized="0"
     inkscape:current-layer="svg2" />
  <path
     d="M 21.6781,17.99822 20.1819,16.44673 H 15.2844 L 14.228,13.6682 9.6528,12.43622 4.099,13.17298 1.7014,10.77544 H 0 V 8.06117 L 1.8351,6.58414 1.7014,5.07881 4.0422,2.53943 C 5.3296,1.14271 6.5753,0 6.8105,0 h 0.4276 l 1.2761,5.06814 2.4551,1.31387 1.3987,-1.91287 0.777,1.25721 1.4846,-1.23214 2.6679,3.31498 3.7005,1.86846 0.525,-1.38096 c 0.2888,-0.75955 0.7843,-1.54117 1.1011,-1.737 l 0.576,-0.35598 2.9149,0.73159 -0.371,2.06185 c -0.2041,1.13403 -0.6054,2.35813 -0.8918,2.72029 l -0.5207,0.65838 1.1372,0.70285 1.3532,-0.33966 2.1297,1.39684 c 0.5374,0.82013 1.097,1.48798 0.9983,1.78396 l -0.1793,0.53815 -4.145,-2.49049 -0.992,-0.22271 z"
     style="fill:#3F72AF;fill-opacity:1"
     id="MD_8"
     inkscape:connector-curvature="0" />
</svg>
