<?xml version="1.0" encoding="UTF-8" standalone="no"?>
<svg
   xmlns:dc="http://purl.org/dc/elements/1.1/"
   xmlns:cc="http://creativecommons.org/ns#"
   xmlns:rdf="http://www.w3.org/1999/02/22-rdf-syntax-ns#"
   xmlns:svg="http://www.w3.org/2000/svg"
   xmlns="http://www.w3.org/2000/svg"
   xmlns:sodipodi="http://sodipodi.sourceforge.net/DTD/sodipodi-0.dtd"
   xmlns:inkscape="http://www.inkscape.org/namespaces/inkscape"
   version="1.0"
   width="179.7303"
   height="246.31238"
   id="svg2"
   sodipodi:docname="ME_2.svg"
   inkscape:version="0.92.2 5c3e80d, 2017-08-06">
  <metadata
     id="metadata16">
    <rdf:RDF>
      <cc:Work
         rdf:about="">
        <dc:format>image/svg+xml</dc:format>
        <dc:type
           rdf:resource="http://purl.org/dc/dcmitype/StillImage" />
      </cc:Work>
    </rdf:RDF>
  </metadata>
  <defs
     id="defs14" />
  <sodipodi:namedview
     pagecolor="#ffffff"
     bordercolor="#666666"
     borderopacity="1"
     objecttolerance="10"
     gridtolerance="10"
     guidetolerance="10"
     inkscape:pageopacity="0"
     inkscape:pageshadow="2"
     inkscape:window-width="468"
     inkscape:window-height="449"
     id="namedview12"
     showgrid="false"
     inkscape:zoom="0.12542268"
     inkscape:cx="-1111.9023"
     inkscape:cy="-532.18695"
     inkscape:window-x="0"
     inkscape:window-y="0"
     inkscape:window-maximized="0"
     inkscape:current-layer="svg2" />
  <path
     d="m 32.9489,245.76882 -1.0157,0.54356 C 22.6222,216.42719 9.6754,187.76367 0.0071,158.03533 l -0.01,-0.70891 h 1.4492 l 1.8702,-2.18413 2.3518,0.61503 v 1.51066 l 2.7709,2.98974 2.0213,-0.38928 0.2553,-7.04711 -1.0281,-0.63539 0.702,-1.82909 -1.9054,-1.39325 0.7082,-1.8455 H 9.949 c 0.4161,0 0.9143,0.25521 1.1071,0.56713 l 0.3504,0.56713 c 1.7148,-0.0422 3.4789,0.15576 5.1452,-0.29689 l 0.2968,-0.29689 -0.5568,-2.91308 -5.5573,-3.41943 1.2257,-6.12815 c 1.2875,-1.90414 2.2586,-4.13298 4.0013,-5.66081 h 0.4824 v -1.56676 l 3.9699,-3.02799 v -2.81352 l -1.7014,-0.65288 v -1.39443 c 0,-0.76694 0.2612,-1.88243 0.5804,-2.47888 0.3192,-0.59643 1.2159,-1.72002 1.9928,-2.49684 l 1.4124,-1.41241 -0.1739,-2.71181 -0.1739,-2.7118 -3.0085,-0.35291 0.5701,-1.48568 -1.7468,-0.67033 0.6892,-3.44594 H 17.578 v -1.58003 l 1.5754,-0.6045 -0.7579,-3.770317 -2.3611,-1.051729 0.8691,-10.822176 1.2699,-0.423283 0.8585,-2.0549 c 0.4723,-1.130191 1.1329,-2.224375 1.468,-2.431513 L 21.1093,79.199858 18.183,61.765232 34.1454,7.8880076 l 1.7671,-1.3955784 5.9362,0.261321 0.5195,4.5370298 2.7156,5.587824 7.6099,2.078389 6.0012,-5.832359 4.8206,-2.07711 V 8.171572 h 1.737 l 0.6528,-1.7013861 h 4.1989 L 72.1063,5.0062515 71.3966,3.4487544 70.687,1.8912568 72.5811,0 l 6.2775,0.11593585 0.695,0.52738886 c 0.3823,0.29006364 1.9711,0.97548749 3.5307,1.52316359 1.5596,0.5476762 3.7289,1.4210476 4.8206,1.940825 1.0917,0.519778 3.1334,1.8657639 4.537,2.9910799 l 2.5521,2.0460291 3.9882,0.7301697 23.5399,65.448612 1.331,0.82258 -1.3536,2.970796 2.7585,2.556475 -1.0097,1.633642 c 1.0245,2.355575 1.2112,5.20466 2.4044,7.470622 l 0.415,0.414974 4.4784,-0.264248 2.8127,1.842941 7.6448,-0.478248 0.4402,-1.320378 h 2.0526 l 0.3443,0.897079 c 0.1893,0.493391 0.3442,1.404846 0.3442,2.02546 v 1.128382 l -0.8507,0.850693 c -0.4679,0.467882 -0.8507,1.197101 -0.8507,1.620497 v 0.769803 c 1.3884,1.463397 2.7157,3.001946 4.4103,4.111016 l 0.724,0.23325 0.1445,4.52699 -0.888,2.04965 6.6682,6.46596 3.136,1.39243 2.269,-2.26908 -0.7073,-2.81837 h 5.2308 l 10.7228,11.34258 h 0.6708 c 0.369,0 1.0232,0.44661 1.4538,0.99247 l 2.4119,3.9597 -1.1381,4.12189 h -1.6481 v 2.26851 h -0.9881 l -0.7594,5.72459 -1.6553,0.63518 v 1.44958 l -2.6013,1.70443 -1.9357,-1.41546 v -2.99416 h -0.4602 c -0.2531,0 -1.0187,0.52036 -1.7014,1.15635 l -1.2412,1.15635 v 1.73822 l 1.8534,1.85329 -1.2862,0.42873 v 1.60686 h -1.7014 v 1.26471 l -2.9722,-1.94741 -2.1829,2.18294 1.1491,5.02174 -1.9163,1.44285 -1.4504,-0.55656 -1.7014,0.65289 v 1.35714 c 0,0.74643 -0.1505,1.35715 -0.3344,1.35715 -0.1839,0 -0.7582,-0.48285 -1.2761,-1.07299 l -0.9416,-1.073 -4.2892,0.57287 0.2863,0.92834 c 0.1574,0.51059 0.4035,1.90238 0.5469,3.09287 l 0.2607,2.16452 1.3493,1.6258 h -1.8047 l 0.7439,1.98495 -1.7139,-1.39083 -1.3341,1.33412 v 2.04166 h -0.4537 c -0.2496,0 -0.7947,-0.31901 -1.2114,-0.70891 l -0.7577,-0.70891 0.5944,2.47254 -0.9031,3.76588 -0.8036,-2.55208 h -1.55 l -2.8556,-5.63535 -0.992,0.36601 c -0.5457,0.2013 -1.1796,0.63983 -1.4087,0.97451 l -0.4167,0.60849 -0.017,-1.41782 h -1.7013 v 1.66579 l -1.7014,-0.65289 v 2.63733 l 1.5246,1.3101 c 0.8386,0.72056 2.0819,1.44996 2.763,1.6209 l 1.2382,0.31078 1.399,2.61402 -0.7668,2.41611 -3.3227,1.71825 0.2839,3.65703 -3.9699,-0.32557 -1.5598,-1.55826 -0.4383,-4.92171 1.3184,-2.51341 c -0.5308,-0.75318 -1.1316,-1.32576 -1.931,-1.74006 h -0.4869 l -0.7807,3.1105 -1.0369,-3.1105 h -0.5603 c -0.3082,0 -0.925,0.36459 -1.3706,0.81019 -0.4456,0.4456 -0.8102,1.08146 -0.8102,1.41302 0,0.33155 -0.5104,0.92159 -1.1342,1.31118 l -1.1343,0.70836 v 0.64483 c 0,0.35466 0.3565,0.94067 0.7922,1.30225 l 0.7921,0.65743 -0.5839,2.23284 1.3966,1.68286 0.8349,-0.51593 1.4959,2.79523 -0.5809,0.58094 -2.4283,-0.85674 c -1.3356,-0.47122 -3.051,-0.85675 -3.8121,-0.85675 -0.7611,0 -1.859,-0.2543 -2.4397,-0.5651 l -1.0559,-0.56509 -1.7836,0.68441 v 1.58003 l -1.4178,-0.008 -0.9443,-2.97332 -0.9443,-2.97332 0.6169,-3.80442 -2.3933,1.28086 -1.6773,3.09069 -0.045,-1.41782 h -0.6439 c -0.3541,0 -1.2665,0.67186 -2.0276,1.49302 l -1.3836,1.49301 0.6399,2.54972 2.2809,0.59648 v 4.07609 h -1.1342 v 3.21373 l -0.7089,0.0717 c -0.3899,0.0394 -1.3725,0.23203 -2.1836,0.42797 l -1.4747,0.35625 -8.1189,-4.08862 -1.8582,3.89664 -2.5126,-0.35175 c -0.5166,-0.15081 -0.8338,0.57834 -1.3458,1.14654 l -3.3482,-0.007 v -7.50141 h 2.4169 l -0.3515,-2.12673 c -0.1934,-1.1697 -0.3543,-2.57335 -0.3578,-3.11921 l -0.01,-0.99247 h -2.1397 l -0.7654,-5.10416 -4.0073,0.18911 1.4887,1.29339 0.8867,0.34024 v 2.64735 l -1.2639,0.78112 0.5794,4.32032 -1.8676,1.6615 -9.9248,0.81083 -0.2779,-3.35561 -2.4389,0.37929 -0.6503,-1.69487 h -0.8967 c -0.4931,0 -1.6496,0.38937 -2.5699,0.86526 l -1.6732,0.86526 v 2.23938 h -1.0879 c -0.5983,0 -1.4915,0.15491 -1.9849,0.34424 l -0.8971,0.34425 -0.3512,4.16911 c 1.5552,-0.0502 2.4449,0.97132 4,3.93113 l 1.1116,2.53411 c 0.501,1.53172 0.9109,3.45558 0.9109,4.27527 0,0.81967 -0.2801,2.01363 -0.6224,2.65323 l -0.6224,1.16291 1.4077,5.02778 5.6262,-0.18856 -0.4581,-3.22248 1.2646,-0.72252 3.0565,3.00623 -0.2498,1.37726 c -0.1374,0.75749 -0.4101,1.63667 -0.606,1.95373 l -0.3563,0.57649 h -3.9725 l 0.4092,2.69386 c 0.225,1.48163 0.4321,3.50228 0.4601,4.49034 0.028,0.98806 0.2377,1.98298 0.4659,2.21093 l 0.4151,0.41445 -0.369,1.46979 c -0.2028,0.80839 -0.7103,1.81124 -1.1276,2.22856 l -0.7588,0.75877 -3.4146,-0.74996 c -2.2847,-1.31962 -4.869,-2.96036 -7.3102,-3.97588 l -0.7702,3.59358 -2.1086,0.31936 -1.4262,-0.27263 c -0.7844,-0.14996 -1.5651,-0.49738 -1.7349,-0.77205 -0.1697,-0.27468 -0.7742,-0.49942 -1.3433,-0.49942 h -1.0346 l -0.5267,2.01413 -2.2933,0.17275 -1.4712,-2.74911 v -3.50538 l -2.6972,-1.76727 -6.7643,7.99478 -2.2592,-0.5908 0.01,0.77506 c 0,0.42628 0.201,1.07743 0.4359,1.447 l 0.4274,0.67194 c 1.3756,0.222 2.5776,0.39847 3.8897,0.46715 l 3.5781,2.46338 -0.1312,2.68338 c -0.072,1.47586 -0.3234,3.14628 -0.5582,3.71203 l -0.4268,1.02864 1.2153,2.66738 -2.1862,0.87477 c -1.2025,0.48112 -2.3498,1.13935 -2.5497,1.46273 -0.1999,0.32339 -0.8205,0.83258 -1.379,1.13153 z"
     style="fill:#3F72AF;fill-opacity:1"
     id="ME_2"
     inkscape:connector-curvature="0" />
</svg>
