<?xml version="1.0" encoding="UTF-8" standalone="no"?>
<svg
   xmlns:dc="http://purl.org/dc/elements/1.1/"
   xmlns:cc="http://creativecommons.org/ns#"
   xmlns:rdf="http://www.w3.org/1999/02/22-rdf-syntax-ns#"
   xmlns:svg="http://www.w3.org/2000/svg"
   xmlns="http://www.w3.org/2000/svg"
   xmlns:sodipodi="http://sodipodi.sourceforge.net/DTD/sodipodi-0.dtd"
   xmlns:inkscape="http://www.inkscape.org/namespaces/inkscape"
   version="1.0"
   width="129.0041"
   height="150.00554"
   id="svg2"
   sodipodi:docname="MO_4.svg"
   inkscape:version="0.92.2 5c3e80d, 2017-08-06">
  <metadata
     id="metadata32">
    <rdf:RDF>
      <cc:Work
         rdf:about="">
        <dc:format>image/svg+xml</dc:format>
        <dc:type
           rdf:resource="http://purl.org/dc/dcmitype/StillImage" />
      </cc:Work>
    </rdf:RDF>
  </metadata>
  <defs
     id="defs30" />
  <sodipodi:namedview
     pagecolor="#ffffff"
     bordercolor="#666666"
     borderopacity="1"
     objecttolerance="10"
     gridtolerance="10"
     guidetolerance="10"
     inkscape:pageopacity="0"
     inkscape:pageshadow="2"
     inkscape:window-width="640"
     inkscape:window-height="480"
     id="namedview28"
     showgrid="false"
     inkscape:zoom="0.12542268"
     inkscape:cx="-124.42475"
     inkscape:cy="71.449361"
     inkscape:window-x="0"
     inkscape:window-y="0"
     inkscape:window-maximized="0"
     inkscape:current-layer="svg2" />
  <path
     d="M 36.8457,0 15.986,1.41782 17.0671,20.7534 19.1052,20.25716 c 0.2411,1.27383 -0.5079,1.82394 -1.2406,2.39254 h 2.0204 l 2.5521,1.89637 0.053,8.21724 c -5.0586,-0.27432 -5.942,-0.73562 -7.5095,-1.33581 l 0.055,2.06968 1.7745,0.69229 v 1.74069 l 5.4868,0.80084 c 1.0713,2.50342 0.9388,4.91428 0.7698,7.32226 L 9.4058,45.06904 10.0615,55.34825 4.0768,55.7027 C 4.0298,54.26656 4.1847,53.02166 6.0453,51.87169 L 5.5116,50.62531 5e-4,49.65257 l 4.6434,87.29132 26.0879,-0.49624 v 3.68634 L 52.584,138.99973 52.4828,128.8711 h 4.642 c -0.4797,-3.7367 0.01,-8.43916 0.971,-13.61988 h 2.0027 c 0.7364,-1.38584 0.842,-2.92939 0.6912,-4.53703 h 1.5432 l 4.5534,2.78244 6.6638,0.33676 0.8506,15.45426 4.927,-0.54943 0.7026,9.30187 0.9976,0.0964 0.462,10.85887 8.2233,-0.15953 v 1.1697 c 3.8165,-0.49635 6.8515,-0.60206 9.9248,-0.7266 l -0.3899,-11.62614 -0.8684,-0.56713 -0.5849,-13.59339 c 13.4991,-0.87724 15.8832,-0.68237 20.842,-1.55961 v -7.69168 c 1.7864,-0.46607 3.3152,-0.96854 10.3678,-0.69116 l -1.8786,-24.95366 -18.0772,0.74435 0.6203,3.04832 -8.0639,0.76205 -4.5193,-0.7266 v -3.68634 l -1.7545,-1.45327 0.638,-1.66594 -1.2052,-1.45327 3.7927,-2.58752 -0.035,-1.11656 -1.7546,-0.10634 0.035,-2.16218 -2.428,-0.0177 c -0.6719,-2.33374 -0.685,-5.59331 -1.0279,-8.7728 l 2.6584,0.0354 0.3722,-5.33452 10.9172,-0.4608 v 5.1573 l 6.0435,-0.23036 1.2052,0.74435 3.0483,-1.08112 -0.5495,-1.93175 c 1.5911,-0.5686 2.9598,-1.3061 4.0586,-2.26851 -2.5219,-1.84533 -3.4202,-3.27273 -3.4914,-4.23578 l 3.261,0.72667 4.2889,-1.16971 0.6557,-1.91406 -1.3292,-1.5596 0.3368,-1.84317 -3.9522,0.30126 -4.7852,-1.87861 -1.3824,-2.71156 c -1.9626,-0.17666 -3.0452,-0.75343 -3.9344,-1.41782 l -4.0585,-0.14178 2.1267,-2.32171 c -1.4333,-1.00133 -3.0483,-2.26432 -3.899,-2.19763 l 1.5242,-3.26099 -1.1343,-1.48871 h -1.9849 l -0.7798,-2.19762 -1.2052,-0.10634 c 0.1859,-2.26523 -0.4979,-2.72228 -1.2583,-2.99512 L 95.42,48.73757 c -7.013,0.38706 -14.1854,1.5833 -21.1965,0.72666 l -1.1165,-17.49241 6.6638,-7.35492 -0.053,-0.833 -2.2153,-0.0886 c -0.2671,-1.59046 0.6101,-2.08999 1.7545,-2.33941 -0.3861,-0.93009 0.147,-2.36169 2.109,-4.57247 l 0.089,-1.64825 -4.9978,0.97478 1.8609,-2.14448 -1.8609,-1.04562 -0.3545,-2.51663 -4.9269,-0.0177 -1.5773,-3.82812 -2.8002,0.58488 -1.3647,-2.25082 -1.0456,0.0532 0.6203,2.58753 -1.7723,2.55208 -1.5242,0.0709 -0.6734,1.77228 -2.8179,0.0709 -0.6026,1.18739 1.3115,2.0204 c -0.8988,1.5051 -2.4188,1.9807 -4.094,2.21538 l 0.2659,-2.55208 c -1.3266,-0.05 -2.3792,-0.44429 -2.8534,-1.55961 l -1.3824,0.56713 0.3368,4.46614 -2.9952,0.3367 -1.3824,-1.78997 -3.7927,0.0354 -2.2507,3.01287 -2.5344,0.0354 C 38.0102,13.26965 37.7783,6.56482 36.8468,-9e-5 Z"
     style="fill:#3F72AF;fill-opacity:1"
     id="MO_4"
     inkscape:connector-curvature="0" />
</svg>
