<?xml version="1.0" encoding="UTF-8" standalone="no"?>
<svg
   xmlns:dc="http://purl.org/dc/elements/1.1/"
   xmlns:cc="http://creativecommons.org/ns#"
   xmlns:rdf="http://www.w3.org/1999/02/22-rdf-syntax-ns#"
   xmlns:svg="http://www.w3.org/2000/svg"
   xmlns="http://www.w3.org/2000/svg"
   xmlns:sodipodi="http://sodipodi.sourceforge.net/DTD/sodipodi-0.dtd"
   xmlns:inkscape="http://www.inkscape.org/namespaces/inkscape"
   version="1.0"
   width="111.7333"
   height="122.62446"
   id="svg2"
   sodipodi:docname="MS_1.svg"
   inkscape:version="0.92.2 5c3e80d, 2017-08-06">
  <metadata
     id="metadata8">
    <rdf:RDF>
      <cc:Work
         rdf:about="">
        <dc:format>image/svg+xml</dc:format>
        <dc:type
           rdf:resource="http://purl.org/dc/dcmitype/StillImage" />
      </cc:Work>
    </rdf:RDF>
  </metadata>
  <defs
     id="defs6" />
  <sodipodi:namedview
     pagecolor="#ffffff"
     bordercolor="#666666"
     borderopacity="1"
     objecttolerance="10"
     gridtolerance="10"
     guidetolerance="10"
     inkscape:pageopacity="0"
     inkscape:pageshadow="2"
     inkscape:window-width="640"
     inkscape:window-height="480"
     id="namedview4"
     showgrid="false"
     inkscape:zoom="0.12542268"
     inkscape:cx="-355.13295"
     inkscape:cy="300.47437"
     inkscape:window-x="0"
     inkscape:window-y="0"
     inkscape:window-maximized="0"
     inkscape:current-layer="svg2" />
  <path
     d="m 62.1261,122.62446 -1.3148,-10.7874 -7.2816,0.68 -0.7213,-8.671 h 1.6797 l 2.1608,-2.4359 -6.4699,0.7383 c -0.862,-4.4207 -1.0345,-8.9524 -1.8906,-13.3697 l -32.1739,3.4237 -0.7803,-7.5267 0.8319,-0.6792 h 5.5658 l 4.0085,-1.9114 c 0.05,-7.5148 -1.2476,-14.4525 -2.4175,-21.4446 -1.5671,0.4618 -5.5367,0.9235 -9.9593,1.3853 L 12.5606,55.59906 9.2953,53.83726 7.2306,38.45433 4.4748,34.31321 5.5861,33.28478 4.5925,29.44027 6.2855,26.85939 5.2542,19.34391 H 0.0666 L 3.0552,16.99305 V 13.70886 L 0,12.10803 104.5182,0 l 2.9302,4.64178 2.612,1.19012 1.6729,99.95416 -17.3573,2.1567 -2.4125,-17.101 -16.5044,1.8124 -1.4199,-1.9417 -2.4042,1.2868 -2.1567,-0.6845 -1.1238,2.0998 2.0104,1.2555 1.38,13.9966 1.2349,2.5074 5.0685,-0.6947 -1.1702,2.1865 1.0102,1.8051 -2.1462,1.9424 -2.4354,-1.3034 -1.3676,1.135 -5.0819,0.3615 -0.5671,5.6713 z"
     style="fill:#3F72AF"
     id="MS_1"
     inkscape:connector-curvature="0" />
</svg>
