<?xml version="1.0" encoding="UTF-8" standalone="no"?>
<svg
   xmlns:dc="http://purl.org/dc/elements/1.1/"
   xmlns:cc="http://creativecommons.org/ns#"
   xmlns:rdf="http://www.w3.org/1999/02/22-rdf-syntax-ns#"
   xmlns:svg="http://www.w3.org/2000/svg"
   xmlns="http://www.w3.org/2000/svg"
   xmlns:sodipodi="http://sodipodi.sourceforge.net/DTD/sodipodi-0.dtd"
   xmlns:inkscape="http://www.inkscape.org/namespaces/inkscape"
   version="1.0"
   width="502.68085"
   height="305.3407"
   id="svg2"
   sodipodi:docname="MT_0.svg"
   inkscape:version="0.92.2 5c3e80d, 2017-08-06">
  <metadata
     id="metadata8">
    <rdf:RDF>
      <cc:Work
         rdf:about="">
        <dc:format>image/svg+xml</dc:format>
        <dc:type
           rdf:resource="http://purl.org/dc/dcmitype/StillImage" />
      </cc:Work>
    </rdf:RDF>
  </metadata>
  <defs
     id="defs6" />
  <sodipodi:namedview
     pagecolor="#ffffff"
     bordercolor="#666666"
     borderopacity="1"
     objecttolerance="10"
     gridtolerance="10"
     guidetolerance="10"
     inkscape:pageopacity="0"
     inkscape:pageshadow="2"
     inkscape:window-width="468"
     inkscape:window-height="449"
     id="namedview4"
     showgrid="false"
     inkscape:zoom="0.12542268"
     inkscape:cx="805.7648"
     inkscape:cy="-407.32491"
     inkscape:window-x="0"
     inkscape:window-y="0"
     inkscape:window-maximized="0"
     inkscape:current-layer="svg2" />
  <path
     d="M 10.57199,0 0,60.570053 c 0.72088,2.38817 2.78003,4.38565 3.8026,6.72969 0.44031,2.12907 3.45167,2.90121 3.20782,5.13961 -0.30882,1.97105 0.0378,3.56665 2.10901,4.21802 -1.03036,1.75293 1.54989,2.17154 1.87861,3.56227 -0.52862,1.72988 -0.75626,3.41026 0.51396,4.87377 0.45213,2.4142 -1.27751,3.03232 -2.81792,4.04079 0.87999,1.87261 2.21125,3.72879 2.81792,5.61812 0.37284,2.39901 -3.79957,0.51035 -3.10148,1.66594 1.99556,1.36374 2.14229,3.894567 4.43069,3.952167 1.76883,1.24409 1.86832,3.3392 2.25079,5.28139 2.18615,1.17396 4.29284,2.57706 6.69921,3.26099 1.52433,0.26979 1.89319,2.66203 2.23307,3.88129 -1.55822,2.20804 2.15477,0.53292 1.13426,3.08376 0.94355,1.15845 2.91799,1.75741 3.13693,3.68634 0.5233,2.67814 3.52579,4.13043 3.13693,6.82326 -0.63286,3.31386 2.67701,1.66553 3.08376,4.23575 0.11863,2.24201 3.00689,1.04141 1.77228,3.26099 -0.83542,2.32774 -0.78292,4.77407 1.45327,6.1498 0.82687,1.65593 2.59695,1.66429 3.58,2.55208 2.28416,1.52201 -2.16123,5.28764 1.70138,3.86356 -0.0213,-1.47851 2.59714,-1.56739 3.4205,-0.12406 1.35667,0.82626 1.20801,4.08286 -0.2304,3.72178 0.72433,2.86851 3.39635,1.86415 5.58267,2.67614 1.56525,1.56469 1.87996,-1.91598 3.77496,-0.99247 2.68512,-0.94458 5.48397,1.41098 3.52683,4.23574 -1.30712,1.98754 -0.54471,6.35405 -3.20782,6.87644 -2.22655,-0.10394 -0.33802,2.87515 -0.58486,4.25346 -1.08011,1.51467 -3.14972,2.54745 -2.60524,4.9801 -0.76766,1.72919 -0.52922,4.84192 -3.15466,4.57247 0.89518,1.27422 1.3989,2.60539 0.72664,4.11169 0.23605,1.78526 -2.33309,2.64321 -3.49139,1.45327 -1.95899,1.62117 1.02008,2.27159 1.6305,3.54455 0.62266,1.93623 -0.75552,3.08342 -1.48872,4.28891 0.24386,2.43415 2.86544,3.75742 2.00268,6.34475 -0.071,1.86451 1.64523,5.29814 -0.99248,5.88396 -2.52975,-0.23005 -4.60709,-0.77749 -5.44089,2.1799 -2.18303,1.07126 -0.69507,2.58067 0.21267,4.02307 1.27484,1.55096 0.6164,5.36198 -1.43554,5.51179 -2.96033,-0.76673 0.37374,2.19413 -1.36466,3.1192 -1.71108,1.49011 2.22806,0.93764 3.11921,1.48872 1.19056,1.7652 3.18687,6.59594 4.96238,7.01821 2.79555,-0.15594 3.05633,-3.17036 3.84584,-4.16485 1.60038,-0.36173 4.08099,0.76864 5.06871,-0.63802 1.02213,-1.65655 2.63716,-0.94973 2.71159,-3.13693 1.23418,-0.93639 3.63056,-1.20561 2.97742,-3.24327 -0.0928,-1.59753 3.35174,-1.89205 3.93446,-0.19495 1.72913,1.02363 1.22739,3.35177 2.00267,4.76743 1.5717,0.34491 3.60579,0.17549 3.58,2.30396 0.78693,1.30162 -2.57556,3.64727 -0.88614,4.04079 3.32341,-0.40436 1.25677,3.80553 1.15198,5.72446 -1.10077,1.6356 1.62079,2.92334 0.92159,4.43069 -1.15063,1.52025 -0.9093,2.96548 0.35445,4.34208 1.25398,2.08838 0.11186,3.71926 2.26852,5.67129 2.5648,1.28986 0.92648,4.9285 2.64069,6.18524 2.42576,0.24822 1.97423,1.4671 2.05584,2.99515 1.81989,1.15888 2.05423,3.19869 2.32169,5.15733 -0.78661,1.29307 -0.19549,4.41426 -2.2508,4.04079 -2.01632,-0.40911 0.18262,3.81058 0.63805,4.92693 1.09615,1.27552 3.74901,1.77672 3.38502,3.77495 -0.0791,1.88343 2.85623,-0.74791 4.07624,-0.81525 1.78889,1.54939 4.57378,2.96188 5.42317,4.90921 0.0717,1.65982 1.73309,4.57426 2.0027,7.17772 1.23844,1.90855 -1.21031,2.62722 -0.93934,3.96991 1.13245,2.16239 1.68704,4.46569 1.59505,6.91188 -0.42353,2.47845 1.90652,4.08209 3.79268,5.17505 1.8481,-0.24415 0.96378,4.0864 2.67616,2.60524 2.01382,-0.8334 -1.98665,-2.8778 0.15948,-4.05851 1.01244,-2.19292 3.31578,-2.83119 5.31683,-3.82812 2.45351,0.0703 5.09855,2.165 7.90436,2.10901 1.36723,0.8027 2.51107,1.30022 4.25346,1.48871 1.54861,1.37942 2.95344,2.0292 3.82812,-0.30128 0.14774,-1.91347 0.003,-3.10219 2.07359,-3.24327 0.75043,-1.82768 2.87228,-1.31552 4.35981,-1.20515 0.5179,2.06943 2.0086,2.5022 3.9699,2.16218 1.18348,2.24199 3.27863,1.0436 6.07888,0.79752 3.42234,-0.33401 6.92458,-1.58035 7.97525,2.69386 2.31241,-0.5519 4.4912,-2.12343 6.92963,-1.68366 2.33141,0.40293 5.14454,-0.3713 6.78779,1.73683 -1.45077,-1.95693 -1.08497,-4.13597 0.76211,-6.20297 1.62908,-1.01899 -0.63915,-4.4013 1.89631,-3.9699 2.52565,0.33035 3.05308,-0.76038 4.16488,-2.51663 1.70723,1.66871 3.81859,3.03776 4.57247,5.42317 0.55414,1.61078 2.13547,3.1572 1.98495,4.80287 -1.01652,1.74437 1.69612,2.79326 2.46344,4.20029 1.24553,1.52079 -0.20604,4.33059 3.01287,4.34208 0.69326,0.23168 0.34034,-0.26008 0.42535,-0.65574 0.64545,-10.51402 1.95739,-21.00814 3.42052,-31.4402 105.13863,11.30511 173.58471,18.77907 306.37505,24.657 4.0993,-83.29155 7.4043,-159.26228 10.6321,-245.908077 C 284.35632,42.095083 180.01819,25.686484 10.57199,0 Z"
     style="fill:#3F72AF;fill-opacity:1"
     id="MT_At-Large"
     inkscape:connector-curvature="0" />
</svg>
