<?xml version="1.0" encoding="UTF-8" standalone="no"?>
<svg
   xmlns:dc="http://purl.org/dc/elements/1.1/"
   xmlns:cc="http://creativecommons.org/ns#"
   xmlns:rdf="http://www.w3.org/1999/02/22-rdf-syntax-ns#"
   xmlns:svg="http://www.w3.org/2000/svg"
   xmlns="http://www.w3.org/2000/svg"
   xmlns:sodipodi="http://sodipodi.sourceforge.net/DTD/sodipodi-0.dtd"
   xmlns:inkscape="http://www.inkscape.org/namespaces/inkscape"
   version="1.0"
   width="121.00843"
   height="83.4543"
   id="svg2"
   sodipodi:docname="NC_11.svg"
   inkscape:version="0.92.2 5c3e80d, 2017-08-06">
  <metadata
     id="metadata24">
    <rdf:RDF>
      <cc:Work
         rdf:about="">
        <dc:format>image/svg+xml</dc:format>
        <dc:type
           rdf:resource="http://purl.org/dc/dcmitype/StillImage" />
      </cc:Work>
    </rdf:RDF>
  </metadata>
  <defs
     id="defs22" />
  <sodipodi:namedview
     pagecolor="#ffffff"
     bordercolor="#666666"
     borderopacity="1"
     objecttolerance="10"
     gridtolerance="10"
     guidetolerance="10"
     inkscape:pageopacity="0"
     inkscape:pageshadow="2"
     inkscape:window-width="640"
     inkscape:window-height="480"
     id="namedview20"
     showgrid="false"
     inkscape:zoom="0.12542268"
     inkscape:cx="-653.53815"
     inkscape:cy="148.84474"
     inkscape:window-x="0"
     inkscape:window-y="0"
     inkscape:window-maximized="0"
     inkscape:current-layer="svg2" />
  <path
     d="M 85.7142,0 83.0135,1.20288 81.7906,5.70447 77.2004,9.8339 73.8331,9.16044 73.1242,4.67655 71.4759,4.03853 l -5.1396,5.1396 -0.2658,4.20033 -1.4887,0.93928 -2.6939,-1.77228 -1.2229,1.20515 0.4431,1.6128 c 0.2467,0.88063 0.3821,1.85025 0.3013,2.16218 -0.081,0.31192 -0.2236,0.94994 -0.319,1.41782 -0.095,0.46788 -0.7697,2.00054 -1.5064,3.40277 l -1.3469,2.55208 -4.0586,-0.35446 -4.0585,2.62297 -1.152,2.46344 -2.6052,0.37221 -0.2127,1.1165 c -0.1165,0.61086 -0.5949,1.69555 -1.0633,2.4103 l -0.8507,1.29379 h -1.3647 l -1.3469,1.43552 -1.5242,1.11656 c -0.8403,0.61987 -1.8671,1.51707 -2.2685,1.98495 -0.4014,0.46788 -1.0541,1.30462 -1.4533,1.86086 l -0.7266,1.01023 -3.1015,0.26581 c -1.7122,0.13974 -4.6123,0.60655 -6.4333,1.04567 l -3.3142,0.7975 -3.6332,3.52686 h -1.9318 v 0.51393 c 0,0.28567 -1.1659,1.75311 -2.5875,3.26099 l -2.5875,2.74706 0.6203,4.07624 -0.3899,0.3899 c -0.2121,0.21194 -0.4554,0.89062 -0.5494,1.50641 L 11.4666,61.47806 12.014,63.87435 9.4817,66.40499 4.2596,68.34718 2.4635,66.58222 0,70.05588 0.8153,83.4543 C 20.2652,79.89868 39.2845,76.52761 59.9561,72.44843 l 14.7454,-7.85116 2.2863,-0.0532 1.2582,-1.09881 c 0.6994,-0.59878 1.2761,-1.38986 1.2761,-1.75453 v -0.65577 l 1.5241,-0.3899 c 0.8388,-0.21052 2.2876,-0.92708 3.2256,-1.59505 0.9381,-0.66796 2.6076,-1.67405 3.7041,-2.23307 1.0964,-0.55902 2.2923,-1.01017 2.6584,-1.01017 h 0.6735 l 1.8431,-2.83564 h 1.6837 v 1.06337 c 4.7779,-1.74109 16.4062,-2.76459 26.0879,-4.62568 0.5746,-0.78808 -1.8615,-3.8922 -3.4737,-6.36244 l 0.6203,-3.40278 c -1.0004,-1.47385 -3.0371,-2.31927 -4.7226,-2.68762 l -3.1463,3.18386 -2.8888,-1.31148 -2.8179,1.06336 -1.8255,-0.69121 -1.104,1.36315 -4.1065,0.51546 c -1.0812,-1.19131 -0.866,-3.24681 -0.9216,-5.12185 l 1.4179,0.28356 -0.2836,-3.63319 c 3.1143,-0.41792 6.9305,-1.6998 11.2185,-3.56225 l 2.4103,0.76205 5.051,-1.93176 0.7089,-2.23307 -3.5445,-8.15247 -6.7701,-4.21802 v -1.70139 h 1.6128 l 1.2937,-3.93445 C 108.9701,6.37249 108.2395,5.16343 107.205,4.19806 h -0.4253 l 0.6026,1.59505 -1.2052,0.74436 V 9.3908 l -1.4,-0.46079 c -3.8269,4.84702 -1.8081,0.69689 -5.2283,5.08647 L 98.3791,13.28981 97.6525,8.71734 94.87,6.28935 93.5408,2.284 91.3254,5.031 89.6773,2.78024 H 86.6112 L 86.434,1.48645 Z"
     style="fill:#3F72AF;fill-opacity:1"
     id="NC_11"
     inkscape:connector-curvature="0" />
</svg>
