<?xml version="1.0" encoding="UTF-8" standalone="no"?>
<svg
   xmlns:dc="http://purl.org/dc/elements/1.1/"
   xmlns:cc="http://creativecommons.org/ns#"
   xmlns:rdf="http://www.w3.org/1999/02/22-rdf-syntax-ns#"
   xmlns:svg="http://www.w3.org/2000/svg"
   xmlns="http://www.w3.org/2000/svg"
   xmlns:sodipodi="http://sodipodi.sourceforge.net/DTD/sodipodi-0.dtd"
   xmlns:inkscape="http://www.inkscape.org/namespaces/inkscape"
   version="1.0"
   width="95.065002"
   height="52.831612"
   id="svg2"
   sodipodi:docname="NC_13.svg"
   inkscape:version="0.92.2 5c3e80d, 2017-08-06">
  <metadata
     id="metadata40">
    <rdf:RDF>
      <cc:Work
         rdf:about="">
        <dc:format>image/svg+xml</dc:format>
        <dc:type
           rdf:resource="http://purl.org/dc/dcmitype/StillImage" />
      </cc:Work>
    </rdf:RDF>
  </metadata>
  <defs
     id="defs38" />
  <sodipodi:namedview
     pagecolor="#ffffff"
     bordercolor="#666666"
     borderopacity="1"
     objecttolerance="10"
     gridtolerance="10"
     guidetolerance="10"
     inkscape:pageopacity="0"
     inkscape:pageshadow="2"
     inkscape:window-width="640"
     inkscape:window-height="480"
     id="namedview36"
     showgrid="false"
     inkscape:zoom="0.12542268"
     inkscape:cx="-847.31895"
     inkscape:cy="50.873251"
     inkscape:window-x="0"
     inkscape:window-y="0"
     inkscape:window-maximized="0"
     inkscape:current-layer="svg2" />
  <path
     d="M 74.8787,0 C 50.4702,5.54726 26.1175,11.09446 0,16.64171 l 2.0027,11.16535 5.7065,-4.6893 1.261,2.68785 3.4285,-3.39353 2.1871,3.92396 -1.0836,2.38245 1.6649,2.51017 4.3021,-0.91693 0.1145,3.09573 -5.8167,4.12693 2.5911,2.78495 -0.6735,0.79749 2.623,0.33676 0.071,1.68364 1.1343,-0.0886 1.8963,-2.7293 0.1773,2.00264 1.5064,0.30132 h 0.6734 c 0.368,0 1.2361,0.39875 1.9318,0.88614 l 1.2583,0.88613 0.6912,-1.77227 2.428,-0.0709 -2.2685,-0.88614 -1.8963,1.1697 -2.1976,-1.52416 C 22.502,40.47238 21.2361,39.78763 20.913,39.78763 h -0.5849 c -0.4775,-1.01181 -0.9371,-2.031 -1.3115,-3.08376 l 2.2685,-0.7798 v -1.66594 l 3.5269,-0.70891 -1.077,-3.74827 12.7834,-2.77473 c 0.6728,2.65325 1.1877,4.96759 1.2135,7.6927 -1.3779,0.32945 -1.5688,0.66309 -4.4484,-0.53168 l -0.6735,1.77227 1.2938,1.55961 4.1116,-0.0177 3.6687,-5.61809 -1.0634,-5.90171 22.4712,-4.53238 1.9685,8.80359 3.2964,1.87862 v 1.58336 l 4.3067,-0.58488 3.6179,2.85096 2.4468,0.10877 -1.4214,4.86773 -3.2787,1.70138 v 1.22285 l -3.5268,-1.43552 1.2583,2.37485 3.3016,1.33485 -4.365,1.80205 -1.0456,2.32171 3.4559,2.55208 4.2048,-0.0693 c 0.3147,-2.06491 1.044,-3.74974 2.2286,-5.01716 l 6.6815,1.2229 0.6557,1.04561 8.188,-9.25128 -3.1015,-3.24324 h -1.9672 l -1.8023,-1.72073 c -0.8627,0.13838 -2.1642,-0.87491 -3.6032,-2.24917 l -6.522,-1.34693 -0.7266,-4.23577 0.6735,-4.90918 -2.0913,-7.9398 L 69.048,16.03917 67.7897,8.14213 73.9395,7.39046 73.2838,1.1166 Z"
     style="fill:#3F72AF;fill-opacity:1"
     id="NC_13"
     inkscape:connector-curvature="0" />
</svg>
