<?xml version="1.0" encoding="UTF-8" standalone="no"?>
<svg
   xmlns:dc="http://purl.org/dc/elements/1.1/"
   xmlns:cc="http://creativecommons.org/ns#"
   xmlns:rdf="http://www.w3.org/1999/02/22-rdf-syntax-ns#"
   xmlns:svg="http://www.w3.org/2000/svg"
   xmlns="http://www.w3.org/2000/svg"
   xmlns:sodipodi="http://sodipodi.sourceforge.net/DTD/sodipodi-0.dtd"
   xmlns:inkscape="http://www.inkscape.org/namespaces/inkscape"
   version="1.0"
   width="88.633301"
   height="66.341919"
   id="svg2"
   sodipodi:docname="NC_10.svg"
   inkscape:version="0.92.2 5c3e80d, 2017-08-06">
  <metadata
     id="metadata16">
    <rdf:RDF>
      <cc:Work
         rdf:about="">
        <dc:format>image/svg+xml</dc:format>
        <dc:type
           rdf:resource="http://purl.org/dc/dcmitype/StillImage" />
      </cc:Work>
    </rdf:RDF>
  </metadata>
  <defs
     id="defs14" />
  <sodipodi:namedview
     pagecolor="#ffffff"
     bordercolor="#666666"
     borderopacity="1"
     objecttolerance="10"
     gridtolerance="10"
     guidetolerance="10"
     inkscape:pageopacity="0"
     inkscape:pageshadow="2"
     inkscape:window-width="640"
     inkscape:window-height="480"
     id="namedview12"
     showgrid="false"
     inkscape:zoom="0.12542268"
     inkscape:cx="-736.55895"
     inkscape:cy="114.70262"
     inkscape:window-x="0"
     inkscape:window-y="0"
     inkscape:window-maximized="0"
     inkscape:current-layer="svg2" />
  <path
     d="M 21.9989,0 18.513,11.30305 c -1.439,1.25488 -3.2348,2.15293 -5.5118,2.56977 L 11.8492,11.7284 8.4287,11.21441 7.773,13.288 6.9577,13.3589 c -0.4468,0.039 -1.0506,0.10282 -1.3469,0.14178 -0.2963,0.039 -0.8685,0.3899 -1.2583,0.7798 C 3.9626,14.67039 3.3701,14.9894 3.0233,14.9894 H 2.3852 L 0,17.99376 2.8221,16.7294 l 0.8676,1.68613 0.1843,1.11089 2.8816,0.0216 1.565,1.99726 2.3766,-2.63919 1.3753,4.37398 2.7286,2.38716 0.725,4.61302 0.9857,0.57297 1.6102,-1.96578 c 0.4982,-0.36347 0.8162,-0.52641 1.1714,-0.43249 0.6787,-0.37918 1.5765,-1.63515 2.4166,-2.66018 l 1.2802,0.39734 -0.01,-2.7761 1.2324,-0.65475 -0.6155,-1.65647 0.6601,0.008 c 0.9195,0.69881 1.7226,1.9795 2.4695,3.54081 l -1.28,4.06155 -1.5992,0.0146 -0.024,1.49557 6.8178,4.1946 3.6064,8.23448 -0.8921,2.57777 -5.2126,1.9659 -2.2946,-0.71209 c -7.931,3.31566 -8.493,2.89497 -11.0263,3.47367 l 0.352,3.62349 -1.4463,-0.26615 c 0.1194,1.59511 -0.062,3.43113 0.8135,4.42088 l 3.9772,-0.43544 1.1683,-1.31387 1.7984,0.66337 2.863,-1.05537 2.8486,1.24548 3.0594,-3.19816 c 2.5528,0.64715 4.3447,1.5921 5.0235,2.97255 l -0.647,3.48274 3.5608,5.24208 v 1.00047 l 28.2379,-4.05321 2.1417,-4.39252 -0.638,-1.66594 -2.0558,1.86092 c -2.3632,-0.17082 -3.8431,-0.98942 -5.2992,-1.82548 v -2.07353 l 4.6761,-2.7225 -0.038,-0.93242 -1.8979,-0.39813 -1.0048,-2.62983 16.459,-2.8315 -0.011,-5.58543 1.7069,-1.45462 8.156,-1.48078 -2.2776,-6.12096 -5.0687,-1.84317 -2.2685,-3.49136 -3.0129,-1.29379 -0.5493,-2.09128 -5.8131,-2.94198 c -0.7156,1.8295 -1.0147,4.16493 -2.9774,5.01557 l -0.8862,0.17723 -0.7621,-2.42805 c -3.4499,1.27717 -7.5529,2.62807 -7.3372,3.49141 l -2.0176,-0.0232 C 54.262,20.2747 53.9062,16.38488 53.8671,12.85291 52.2157,9.33076 46.8151,8.07644 41.8647,7.52786 35.2653,7.90415 32.8842,9.20747 28.394,10.04727 28.133,8.40005 26.8416,6.89999 25.2939,5.43657 L 23.9292,5.95056 21.8734,3.69974 22.6696,0.60237 Z"
     style="fill:#3F72AF;fill-opacity:1"
     id="NC_10"
     inkscape:connector-curvature="0" />
</svg>
