<?xml version="1.0" encoding="UTF-8" standalone="no"?>
<svg
   xmlns:dc="http://purl.org/dc/elements/1.1/"
   xmlns:cc="http://creativecommons.org/ns#"
   xmlns:rdf="http://www.w3.org/1999/02/22-rdf-syntax-ns#"
   xmlns:svg="http://www.w3.org/2000/svg"
   xmlns="http://www.w3.org/2000/svg"
   xmlns:sodipodi="http://sodipodi.sourceforge.net/DTD/sodipodi-0.dtd"
   xmlns:inkscape="http://www.inkscape.org/namespaces/inkscape"
   version="1.0"
   width="322.56927"
   height="190.6544"
   id="svg2"
   sodipodi:docname="ND_0.svg"
   inkscape:version="0.92.2 5c3e80d, 2017-08-06">
  <metadata
     id="metadata8">
    <rdf:RDF>
      <cc:Work
         rdf:about="">
        <dc:format>image/svg+xml</dc:format>
        <dc:type
           rdf:resource="http://purl.org/dc/dcmitype/StillImage" />
      </cc:Work>
    </rdf:RDF>
  </metadata>
  <defs
     id="defs6" />
  <sodipodi:namedview
     pagecolor="#ffffff"
     bordercolor="#666666"
     borderopacity="1"
     objecttolerance="10"
     gridtolerance="10"
     guidetolerance="10"
     inkscape:pageopacity="0"
     inkscape:pageshadow="2"
     inkscape:window-width="640"
     inkscape:window-height="480"
     id="namedview4"
     showgrid="false"
     inkscape:zoom="0.12542268"
     inkscape:cx="309.47894"
     inkscape:cy="-469.58683"
     inkscape:window-x="0"
     inkscape:window-y="0"
     inkscape:window-maximized="0"
     inkscape:current-layer="svg2" />
  <path
     d="M 0,187.08891 C 3.876,119.35381 4.3497,64.68525 7.8603,0 104.31939,3.81706 192.94049,3.59633 287.97439,1.47547 l 1.295,3.9093 c 0.7122,2.15011 1.5014,4.80252 1.7539,5.89424 0.2525,1.09172 1.1372,3.66383 1.9661,5.71579 0.8289,2.05195 1.507,3.99061 1.507,4.30811 l -1.8189,4.22338 v 2.0922 c -8e-4,1.15071 0.2971,5.40991 0.6619,9.46488 0.3648,4.05497 0.6161,8.64871 0.5584,10.20831 -0.058,1.55961 -0.1185,3.47367 -0.135,4.25347 l -0.03,1.41782 c 0.8138,1.88282 1.649,3.75545 2.559,5.59377 0.3105,0.58121 0.6806,1.60204 0.8227,2.26851 0.1421,0.66648 0.3809,2.0835 0.5308,3.14893 l 0.9728,2.78103 c 0.3852,0.46413 0.7172,1.25126 0.7377,1.74918 0.021,0.49792 0.5018,1.92615 1.0694,3.17383 0.5677,1.24768 1.6627,3.67216 2.4336,5.38772 0.7708,1.71557 1.6347,3.62962 1.9198,4.25347 0.2851,0.62384 0.6346,1.75354 0.7768,2.51044 l 1.4193,2.537 0.885,13.32864 1.8424,25.34931 2.515,3.91342 -1.2521,6.23841 1.0462,5.03087 -0.487,4.96015 2.102,4.41867 1.2448,7.49419 1.7606,3.07731 3.6794,4.43015 0.3638,3.56892 1.7336,9.5544 0.081,5.52955 0.081,5.52955 c -108.2357,2.75807 -217.4214,2.66594 -322.56929,-1.70148 z"
     style="fill:#3F72AF;fill-opacity:1"
     id="ND_At-Large"
     inkscape:connector-curvature="0" />
</svg>
