<?xml version="1.0" encoding="UTF-8" standalone="no"?>
<svg
   xmlns:dc="http://purl.org/dc/elements/1.1/"
   xmlns:cc="http://creativecommons.org/ns#"
   xmlns:rdf="http://www.w3.org/1999/02/22-rdf-syntax-ns#"
   xmlns:svg="http://www.w3.org/2000/svg"
   xmlns="http://www.w3.org/2000/svg"
   xmlns:sodipodi="http://sodipodi.sourceforge.net/DTD/sodipodi-0.dtd"
   xmlns:inkscape="http://www.inkscape.org/namespaces/inkscape"
   version="1.0"
   width="53.310101"
   height="94.994057"
   id="svg2"
   sodipodi:docname="NH_1.svg"
   inkscape:version="0.92.2 5c3e80d, 2017-08-06">
  <metadata
     id="metadata8">
    <rdf:RDF>
      <cc:Work
         rdf:about="">
        <dc:format>image/svg+xml</dc:format>
        <dc:type
           rdf:resource="http://purl.org/dc/dcmitype/StillImage" />
      </cc:Work>
    </rdf:RDF>
  </metadata>
  <defs
     id="defs6" />
  <sodipodi:namedview
     pagecolor="#ffffff"
     bordercolor="#666666"
     borderopacity="1"
     objecttolerance="10"
     gridtolerance="10"
     guidetolerance="10"
     inkscape:pageopacity="0"
     inkscape:pageshadow="2"
     inkscape:window-width="468"
     inkscape:window-height="449"
     id="namedview4"
     showgrid="false"
     inkscape:zoom="0.12542268"
     inkscape:cx="-1115.305"
     inkscape:cy="-465.78102"
     inkscape:window-x="0"
     inkscape:window-y="0"
     inkscape:window-maximized="0"
     inkscape:current-layer="svg2" />
  <path
     d="M 17.0848,0 16.7481,0.93931 17.3506,3.33188 8.5424,5.56495 8.1702,17.27971 5.246,11.44891 3.8281,11.41351 2.6053,9.18044 c -0.5914,0.48343 -0.5974,0.9715 -0.3368,1.59505 l 3.4028,3.22554 -0.089,1.79 1.8254,1.22287 -0.018,3.9699 2.2508,5.33456 c -2.3325,1.84273 -5.2584,2.80554 -7.8689,4.2003 2.097,4.30394 3.7444,7.028 5.175,11.16534 l -5.1572,2.28624 c 0.5182,1.74892 0.5316,4.07566 0.4253,5.86624 L -7e-4,50.45677 v 1.55961 l 2.8002,-1.82545 h 6.2384 l 0.7444,5.63584 17.457,5.9903 -1.8432,13.25663 -5.5473,0.14179 -1.2937,3.01287 0.1772,1.20515 -5.5827,2.16217 2.9774,6.06119 1.4888,-0.58485 3.2964,7.92208 h 1.0811 c 0.5894,0 1.2223,-0.15893 1.4178,-0.35446 l 0.3545,-0.35445 -1.6837,-3.26099 1.595,-3.04832 1.8787,3.61545 h 3.2787 l 0.1772,-0.49624 c 0.104,-0.27354 1.9893,-1.39928 4.1826,-2.49891 l 3.9876,-2.00267 2.6407,1.41782 3.3319,-0.0709 0.4785,-3.59773 c 1.9544,-0.91023 3.6065,-1.39394 3.4914,-3.24326 h 4.7674 l 0.2836,-6.80555 0.5671,-1.64822 c 0.3112,-0.90433 0.5671,-2.24417 0.5671,-2.97742 v -1.32921 l -2.5521,-0.0177 -4.537,-2.5698 -0.9216,-5.8308 c -2.9055,-1.16372 -3.9822,-2.25395 -6.0966,-4.18257 l -2.2508,0.12406 -2.3217,-3.77495 0.4431,-2.35713 -1.3647,-6.50426 -1.0101,-0.92158 c -0.4151,-0.49167 -2.0724,-4.47677 -3.6864,-8.84366 -1.614,-4.3669 -4.9506,-13.68198 -7.4258,-20.7002 z"
     style="fill:#3F72AF;fill-opacity:1"
     id="NH_1"
     inkscape:connector-curvature="0" />
</svg>
