<?xml version="1.0" encoding="UTF-8" standalone="no"?>
<svg
   xmlns:dc="http://purl.org/dc/elements/1.1/"
   xmlns:cc="http://creativecommons.org/ns#"
   xmlns:rdf="http://www.w3.org/1999/02/22-rdf-syntax-ns#"
   xmlns:svg="http://www.w3.org/2000/svg"
   xmlns="http://www.w3.org/2000/svg"
   xmlns:sodipodi="http://sodipodi.sourceforge.net/DTD/sodipodi-0.dtd"
   xmlns:inkscape="http://www.inkscape.org/namespaces/inkscape"
   version="1.0"
   width="27.259399"
   height="32.902431"
   id="svg2"
   sodipodi:docname="NJ_11.svg"
   inkscape:version="0.92.2 5c3e80d, 2017-08-06">
  <metadata
     id="metadata24">
    <rdf:RDF>
      <cc:Work
         rdf:about="">
        <dc:format>image/svg+xml</dc:format>
        <dc:type
           rdf:resource="http://purl.org/dc/dcmitype/StillImage" />
      </cc:Work>
    </rdf:RDF>
  </metadata>
  <defs
     id="defs22" />
  <sodipodi:namedview
     pagecolor="#ffffff"
     bordercolor="#666666"
     borderopacity="1"
     objecttolerance="10"
     gridtolerance="10"
     guidetolerance="10"
     inkscape:pageopacity="0"
     inkscape:pageshadow="2"
     inkscape:window-width="640"
     inkscape:window-height="480"
     id="namedview20"
     showgrid="false"
     inkscape:zoom="0.12542268"
     inkscape:cx="-1025.0943"
     inkscape:cy="-291.67114"
     inkscape:window-x="0"
     inkscape:window-y="0"
     inkscape:window-maximized="0"
     inkscape:current-layer="svg2" />
  <path
     d="m 14.9987,32.90243 c -0.9506,0 -1.8986,-0.17014 -2.1065,-0.37808 -0.208,-0.20795 -0.3781,-0.82529 -0.3781,-1.37187 0,-0.54657 0.3462,-1.71628 0.7693,-2.59933 0.4231,-0.88306 1.1888,-2.45568 1.7014,-3.4947 0.5126,-1.03902 0.9321,-2.22 0.9321,-2.62441 0,-0.40442 -0.3669,-1.03978 -0.8153,-1.41194 L 14.2863,20.34547 8.0983,24.30384 5.6274,24.02066 C 4.2684,23.86491 2.4463,23.46829 1.5782,23.13927 L 0,22.54107 1.7601,20.59615 1.9753,18.10058 C 2.0936,16.72802 2.3666,15.17062 2.5819,14.63969 L 2.9734,13.67437 2.3742,12.7048 4.7021,7.99775 5.1414,5.3757 6.2863,5.75374 8.2606,2.28466 l 2.9459,-0.007 1.1759,-2.27748 0.1317,2.84461 h 0.7651 l 2.0469,-1.85578 0.7121,1.85578 h 6.2756 l 0.7534,0.99248 c 0.4144,0.54586 0.7615,1.31369 0.7714,1.70629 0.01,0.39261 0.7837,1.77074 1.7195,3.06252 l 1.7013,2.3487 v 2.05414 l -2.3266,2.16752 0.3624,1.44382 0.026,1.26253 -0.6883,1.30503 -1.3358,0.13966 -4.2743,6.45923 -2.7093,1.35073 -1.3691,3.98238 1.7829,1.78279 z"
     style="fill:#3F72AF;fill-opacity:1"
     id="NJ_11"
     inkscape:connector-curvature="0" />
</svg>
