<?xml version="1.0" encoding="UTF-8" standalone="no"?>
<svg
   xmlns:dc="http://purl.org/dc/elements/1.1/"
   xmlns:cc="http://creativecommons.org/ns#"
   xmlns:rdf="http://www.w3.org/1999/02/22-rdf-syntax-ns#"
   xmlns:svg="http://www.w3.org/2000/svg"
   xmlns="http://www.w3.org/2000/svg"
   xmlns:sodipodi="http://sodipodi.sourceforge.net/DTD/sodipodi-0.dtd"
   xmlns:inkscape="http://www.inkscape.org/namespaces/inkscape"
   version="1.0"
   width="59.438702"
   height="55.757839"
   id="svg2"
   sodipodi:docname="NJ_2.svg"
   inkscape:version="0.92.2 5c3e80d, 2017-08-06">
  <metadata
     id="metadata48">
    <rdf:RDF>
      <cc:Work
         rdf:about="">
        <dc:format>image/svg+xml</dc:format>
        <dc:type
           rdf:resource="http://purl.org/dc/dcmitype/StillImage" />
      </cc:Work>
    </rdf:RDF>
  </metadata>
  <defs
     id="defs46" />
  <sodipodi:namedview
     pagecolor="#ffffff"
     bordercolor="#666666"
     borderopacity="1"
     objecttolerance="10"
     gridtolerance="10"
     guidetolerance="10"
     inkscape:pageopacity="0"
     inkscape:pageshadow="2"
     inkscape:window-width="640"
     inkscape:window-height="480"
     id="namedview44"
     showgrid="false"
     inkscape:zoom="0.12542268"
     inkscape:cx="-1013.3207"
     inkscape:cy="-189.58795"
     inkscape:window-x="0"
     inkscape:window-y="0"
     inkscape:window-maximized="0"
     inkscape:current-layer="svg2" />
  <path
     d="m 37.7303,55.75784 0.4434,-4.96238 c 0.2438,-2.72931 0.4263,-5.80904 0.4055,-6.84388 l -0.038,-1.88145 -1.4485,-1.7454 -5.9692,0.49499 -0.3885,-1.16562 -1.9477,0.78769 c -1.0711,0.43323 -2.1516,1.12167 -2.4011,1.52988 -0.2494,0.40822 -0.6788,0.74221 -0.9542,0.74221 h -0.5007 l -0.7329,-2.3089 -5.8056,-2.80071 -1.9818,0.62901 -1.8887,-2.88249 -2.7009,0.67783 -0.699,-1.82167 H 9.0395 L 7.505,32.01616 2.9664,30.59964 3.292,24.03212 2.0219,23.36334 C 1.3234,22.9955 0.5827,22.43465 0.3759,22.11699 L 0,21.53943 1.5279,19.17802 2.314,12.10834 3.8149,10.10396 5.6368,12.65604 H 7.2339 L 7.8114,11.66356 C 8.1291,11.1177 8.772,10.18125 9.2402,9.58255 l 0.8512,-1.08853 2.1579,1.95286 2.7625,-3.52978 3.1271,1.42481 -0.9403,3.99787 4.5238,0.36908 7.7145,3.95616 0.5573,-0.34442 c 0.3065,-0.18943 1.3192,-1.85378 2.2505,-3.69856 L 33.9378,9.2679 31.1137,7.41741 C 29.5603,6.39965 28.1709,5.26931 28.026,4.90554 L 27.7625,4.24415 31.5252,2.45863 31.6162,0.43573 33.0352,0 37.6155,0.88152 40.072,3.12281 42.2466,2.43367 c 1.1959,-0.37904 3.0355,-1.05229 4.0878,-1.49612 l 1.9134,-0.80696 0.5804,0.58035 -0.842,1.29373 C 47.5231,2.71623 46.9651,4.26343 46.7461,5.4429 l -0.3982,2.14449 3.6519,5.63578 h 0.9253 c 0.509,0 1.184,-0.25859 1.5,-0.57464 l 0.5746,-0.57464 2.6369,2.80681 2.1845,-1.16912 1.6179,1.34275 -0.3528,1.49472 c -0.194,0.82209 -1.0209,2.76879 -1.8377,4.32601 l -1.4849,2.8313 -1.0366,0.77634 c -0.5702,0.42699 -2.1428,2.50205 -3.4947,4.61125 l -2.4581,3.8349 -1.159,4.18361 c -0.6374,2.30095 -1.1159,4.56641 -1.0633,5.03429 0.053,0.46788 -0.3587,2.38194 -0.9141,4.25346 -0.5554,1.87153 -1.4392,4.25829 -1.964,5.3039 l -0.9541,1.90108 -1.3526,1.07635 -1.3525,1.0763 z"
     style="fill:#3F72AF;fill-opacity:1"
     id="NJ_2"
     inkscape:connector-curvature="0" />
</svg>
