<?xml version="1.0" encoding="UTF-8" standalone="no"?>
<svg
   xmlns:dc="http://purl.org/dc/elements/1.1/"
   xmlns:cc="http://creativecommons.org/ns#"
   xmlns:rdf="http://www.w3.org/1999/02/22-rdf-syntax-ns#"
   xmlns:svg="http://www.w3.org/2000/svg"
   xmlns="http://www.w3.org/2000/svg"
   xmlns:sodipodi="http://sodipodi.sourceforge.net/DTD/sodipodi-0.dtd"
   xmlns:inkscape="http://www.inkscape.org/namespaces/inkscape"
   version="1.0"
   width="40.885101"
   height="25.44449"
   id="svg2"
   sodipodi:docname="NJ_7.svg"
   inkscape:version="0.92.2 5c3e80d, 2017-08-06">
  <metadata
     id="metadata88">
    <rdf:RDF>
      <cc:Work
         rdf:about="">
        <dc:format>image/svg+xml</dc:format>
        <dc:type
           rdf:resource="http://purl.org/dc/dcmitype/StillImage" />
      </cc:Work>
    </rdf:RDF>
  </metadata>
  <defs
     id="defs86" />
  <sodipodi:namedview
     pagecolor="#ffffff"
     bordercolor="#666666"
     borderopacity="1"
     objecttolerance="10"
     gridtolerance="10"
     guidetolerance="10"
     inkscape:pageopacity="0"
     inkscape:pageshadow="2"
     inkscape:window-width="640"
     inkscape:window-height="480"
     id="namedview84"
     showgrid="false"
     inkscape:zoom="0.12542268"
     inkscape:cx="-1014.9232"
     inkscape:cy="-279.74524"
     inkscape:window-x="0"
     inkscape:window-y="0"
     inkscape:window-maximized="0"
     inkscape:current-layer="svg2" />
  <path
     d="m 23.9016,25.44449 -3.6772,-5.12035 h -1.9533 l -0.7117,2.83564 h -1.6282 l -1.4436,-1.4436 c -0.794,-0.79398 -1.4436,-1.69619 -1.4436,-2.0049 0,-0.30872 0.4196,-1.20175 0.9325,-1.98451 l 0.9326,-1.42321 -3.1908,-3.33044 -0.9617,2.1159 c -0.5289,1.16375 -1.635,2.83168 -2.458,3.70651 L 6.8023,20.38614 4.2847,18.62275 H 1.3612 L 0,19.98386 V 17.67114 L 1.5596,15.54736 C 2.4174,14.37928 4.3018,12.07145 5.747,10.41885 l 2.6278,-3.00474 1.3715,-3.6376 1.6936,0.88767 6.8529,0.80802 6.1193,-3.91448 0.5544,0.34262 c 0.3049,0.18844 0.5543,0.68969 0.5543,1.11388 0,0.4242 -0.3461,1.49377 -0.7693,2.37683 -0.4231,0.88306 -1.1887,2.45567 -1.7014,3.49469 -0.5126,1.03902 -0.932,2.32782 -0.932,2.864 v 0.97487 l 1.3611,1.36111 h 3.109 l 0.6215,-1.00574 -1.52,-1.26153 1.2429,-3.97114 h 0.6059 c 0.3331,0 1.2423,-0.70183 2.0202,-1.55961 0.778,-0.85778 2.0917,-2.62342 2.9193,-3.92365 L 33.9826,0 39.4155,2.10306 c -0.2569,0.97691 -0.5092,1.70803 -1.0242,2.5933 l 0.055,1.89854 1.0379,1.55589 1.4005,0.26103 -0.052,2.23766 v 1.66792 l -1.0526,0.65053 -1.4171,-2.1802 -1.0929,-0.69764 -1.3179,0.86356 C 35.2273,11.4286 34.37,11.81721 34.0471,11.81721 H 33.46 V 9.67005 L 35.1614,9.01716 V 6.71305 h -1.5667 l -1.4482,1.89873 c -0.7966,1.0443 -2.0714,3.02216 -2.8329,4.39525 l -1.3845,2.49651 1.2535,1.9561 -0.7731,1.85759 c -0.4253,1.02168 -0.7676,2.40407 -0.7608,3.07197 l 0.012,1.21437 z"
     style="fill:#3F72AF;fill-opacity:1"
     id="NJ_7"
     inkscape:connector-curvature="0" />
</svg>
