<?xml version="1.0" encoding="UTF-8" standalone="no"?>
<svg
   xmlns:dc="http://purl.org/dc/elements/1.1/"
   xmlns:cc="http://creativecommons.org/ns#"
   xmlns:rdf="http://www.w3.org/1999/02/22-rdf-syntax-ns#"
   xmlns:svg="http://www.w3.org/2000/svg"
   xmlns="http://www.w3.org/2000/svg"
   xmlns:sodipodi="http://sodipodi.sourceforge.net/DTD/sodipodi-0.dtd"
   xmlns:inkscape="http://www.inkscape.org/namespaces/inkscape"
   version="1.0"
   width="61.249901"
   height="39.581669"
   id="svg2"
   sodipodi:docname="NY_1.svg"
   inkscape:version="0.92.2 5c3e80d, 2017-08-06">
  <metadata
     id="metadata8">
    <rdf:RDF>
      <cc:Work
         rdf:about="">
        <dc:format>image/svg+xml</dc:format>
        <dc:type
           rdf:resource="http://purl.org/dc/dcmitype/StillImage" />
      </cc:Work>
    </rdf:RDF>
  </metadata>
  <defs
     id="defs6" />
  <sodipodi:namedview
     pagecolor="#ffffff"
     bordercolor="#666666"
     borderopacity="1"
     objecttolerance="10"
     gridtolerance="10"
     guidetolerance="10"
     inkscape:pageopacity="0"
     inkscape:pageshadow="2"
     inkscape:window-width="640"
     inkscape:window-height="480"
     id="namedview4"
     showgrid="false"
     inkscape:zoom="0.12542268"
     inkscape:cx="-1093.7541"
     inkscape:cy="-318.25397"
     inkscape:window-x="0"
     inkscape:window-y="0"
     inkscape:window-maximized="0"
     inkscape:current-layer="svg2" />
  <path
     d="m 16.3451,38.86883 -0.9523,0.71284 -3.215,-3.71026 2.3127,-2.91783 -3.2025,-2.02015 -6.289,1.3056 -1.6605,-2.37076 H 1.3611 L 0.6806,29.18771 C 0.3063,28.81341 0,28.30937 0,28.06763 v -0.43952 l 3.288,0.65759 3.5176,-2.60064 v -2.5554 l 0.6747,-0.41699 c 0.3711,-0.22935 1.4557,-0.48044 2.4103,-0.55798 0.9546,-0.0775 3.0116,-0.53406 4.5712,-1.01447 1.5596,-0.48042 4.1117,-1.31005 5.6713,-1.84364 1.5596,-0.53359 3.6013,-1.52984 4.537,-2.21388 0.9358,-0.68405 2.4252,-1.41522 3.3099,-1.62482 l 1.6084,-0.38108 1.3742,-1.53655 c 0.7557,-0.84509 2.0098,-2.18416 2.7868,-2.97571 C 34.5263,9.77299 35.162,8.81427 35.162,8.43405 V 7.74274 l 1.4178,-1.23278 c 0.7798,-0.67803 1.4179,-1.52078 1.4179,-1.8728 0,-0.35201 0.4036,-1.13542 0.8969,-1.74089 l 0.8971,-1.10087 -0.5833,1.87838 0.9989,0.90397 c 0.5494,0.49719 1.2665,0.90398 1.5937,0.90398 0.3271,0 0.8799,0.34357 1.2284,0.7635 l 0.6337,0.7635 4.2137,-0.25582 0.2118,-0.63559 c 0.1166,-0.34957 0.512,-0.63559 0.8789,-0.63559 h 0.667 l 1.4167,2.26852 h 1.4556 L 54.9534,5.25739 C 56.299,3.88631 57.692,2.18381 58.0489,1.47404 L 58.6979,0.18355 61.2499,0 v 0.4761 c 0,0.26186 -0.6826,1.04863 -1.517,1.74839 -0.8343,0.69976 -2.9398,2.53043 -4.6788,4.06815 -1.739,1.53773 -5.9852,5.42497 -9.436,8.63833 l -6.2743,5.84246 -8.471,6.30997 c -4.6592,3.47048 -9.6196,7.38155 -11.0233,8.69127 -1.4036,1.30972 -2.9806,2.70209 -3.5044,3.09416 z"
     style="fill:#3F72AF;fill-opacity:1"
     id="NY_1"
     inkscape:connector-curvature="0" />
</svg>
