<?xml version="1.0" encoding="UTF-8" standalone="no"?>
<svg
   xmlns:dc="http://purl.org/dc/elements/1.1/"
   xmlns:cc="http://creativecommons.org/ns#"
   xmlns:rdf="http://www.w3.org/1999/02/22-rdf-syntax-ns#"
   xmlns:svg="http://www.w3.org/2000/svg"
   xmlns="http://www.w3.org/2000/svg"
   xmlns:sodipodi="http://sodipodi.sourceforge.net/DTD/sodipodi-0.dtd"
   xmlns:inkscape="http://www.inkscape.org/namespaces/inkscape"
   version="1.0"
   width="129.2018"
   height="53.653851"
   id="svg2"
   sodipodi:docname="NY_22.svg"
   inkscape:version="0.92.2 5c3e80d, 2017-08-06">
  <metadata
     id="metadata120">
    <rdf:RDF>
      <cc:Work
         rdf:about="">
        <dc:format>image/svg+xml</dc:format>
        <dc:type
           rdf:resource="http://purl.org/dc/dcmitype/StillImage" />
      </cc:Work>
    </rdf:RDF>
  </metadata>
  <defs
     id="defs118" />
  <sodipodi:namedview
     pagecolor="#ffffff"
     bordercolor="#666666"
     borderopacity="1"
     objecttolerance="10"
     gridtolerance="10"
     guidetolerance="10"
     inkscape:pageopacity="0"
     inkscape:pageshadow="2"
     inkscape:window-width="640"
     inkscape:window-height="480"
     id="namedview116"
     showgrid="false"
     inkscape:zoom="0.12542268"
     inkscape:cx="-923.73815"
     inkscape:cy="-342.3277"
     inkscape:window-x="0"
     inkscape:window-y="0"
     inkscape:window-maximized="0"
     inkscape:current-layer="svg2" />
  <path
     d="m 90.5169,53.65385 -1.651,-1.65093 -3.3521,0.67042 v -1.59659 l -2.2686,-0.72 v -1.4945 l -2.7991,-1.83409 0.5137,-1.41557 -2.6215,-8.50693 -2.2077,-1.13426 0.3922,-1.98495 h -1.8201 l -0.6529,-1.70138 h -2.6473 l -0.6704,-1.08472 c -0.8814,0.26758 -1.662,0.63293 -2.3225,1.27711 l -0.3739,0.55869 C 67.0413,32.07524 66.3035,30.9182 65.6406,29.71275 L 64.7663,28.0316 62.7312,28.0236 61.2857,26.04679 H 60.4408 L 7.25,39.73432 7.2497,38.42006 5.0015,31.19151 5.5837,29.67439 2.2662,15.69622 1.6285,15.30213 C 1.2778,15.08537 0.7679,14.13066 0.4954,13.18054 L 0,11.45303 3.8769,9.60426 4.4292,11.0569 c 0.3038,0.79895 0.5523,1.67301 0.5523,1.94234 l 1.9849,2.45313 3.5431,12.57937 -1.4516,1.5543 c 0.2338,2.03205 1.8829,3.43927 2.3955,5.30802 l 0.1582,1.07748 0.9384,-0.0472 3.2069,-0.23631 v -3.40277 h 1.4527 l 1.3004,-3.4451 2.7945,0.70136 0.7578,-1.22616 c 1.1262,0.0164 2.2736,0.062 3.3358,-0.24665 0,-0.13565 -0.2554,-0.91855 -0.5677,-1.73978 l -0.5677,-1.49313 2.1095,0.66953 1.4333,-1.727 h 3.1714 l 2.548,4.12278 c 0.8614,-1.01859 1.4411,-2.16496 1.8841,-3.41387 l 0.3204,-1.27604 9.3028,0.0922 1.4782,-1.78111 0.9207,0.56905 2.9853,-1.36015 -0.3482,-3.95745 3.9374,-1.03271 0.2053,0.61587 c 0.1129,0.33873 0.5126,0.61587 0.8883,0.61587 h 0.6829 c 1.9586,-1.88868 3.7217,-4.01927 5.8909,-5.67027 l 3.4241,4.93851 v 3.12163 l 1.8745,-0.71931 3.7105,1.22457 6.5288,7.56097 C 82.7563,21.3332 89.8957,15.56706 94.6089,8.74941 l 3.288,-3.1279 6.6657,1.55502 10.7254,-1.73638 0.4167,-0.61388 0.434,-3.69319 2.1168,-1.1329 3.4199,1.29087 1.794,14.09709 1.4598,1.7582 0.6794,2.89064 3.5932,13.62611 -0.8698,6.2784 -7.6054,1.02308 -1.1378,3.26387 -2.6064,-0.65415 -6.1527,4.59056 h -3.1979 v -2.26851 h -0.6798 l -11.8028,3.64587 0.717,3.82253 c -0.8045,-0.11569 -1.606,-0.16751 -2.4126,-0.11378 z"
     style="fill:#3F72AF;fill-opacity:1"
     id="NY_22"
     inkscape:connector-curvature="0" />
</svg>
