<?xml version="1.0" encoding="UTF-8" standalone="no"?>
<svg
   xmlns:dc="http://purl.org/dc/elements/1.1/"
   xmlns:cc="http://creativecommons.org/ns#"
   xmlns:rdf="http://www.w3.org/1999/02/22-rdf-syntax-ns#"
   xmlns:svg="http://www.w3.org/2000/svg"
   xmlns="http://www.w3.org/2000/svg"
   xmlns:sodipodi="http://sodipodi.sourceforge.net/DTD/sodipodi-0.dtd"
   xmlns:inkscape="http://www.inkscape.org/namespaces/inkscape"
   version="1.0"
   width="83.651497"
   height="34.896141"
   id="svg2"
   sodipodi:docname="NY_25.svg"
   inkscape:version="0.92.2 5c3e80d, 2017-08-06">
  <metadata
     id="metadata144">
    <rdf:RDF>
      <cc:Work
         rdf:about="">
        <dc:format>image/svg+xml</dc:format>
        <dc:type
           rdf:resource="http://purl.org/dc/dcmitype/StillImage" />
      </cc:Work>
    </rdf:RDF>
  </metadata>
  <defs
     id="defs142" />
  <sodipodi:namedview
     pagecolor="#ffffff"
     bordercolor="#666666"
     borderopacity="1"
     objecttolerance="10"
     gridtolerance="10"
     guidetolerance="10"
     inkscape:pageopacity="0"
     inkscape:pageshadow="2"
     inkscape:window-width="640"
     inkscape:window-height="480"
     id="namedview140"
     showgrid="false"
     inkscape:zoom="0.12542268"
     inkscape:cx="-863.87205"
     inkscape:cy="-406.26795"
     inkscape:window-x="0"
     inkscape:window-y="0"
     inkscape:window-maximized="0"
     inkscape:current-layer="svg2" />
  <path
     d="M 42.6232,0 40.975,5.49406 40.0003,5.86624 c -0.5296,0.20129 -1.4336,0.97742 -2.0204,1.71911 -0.5869,0.74169 -1.6077,1.5943 -2.2686,1.89633 -0.6608,0.30202 -1.7814,0.87183 -2.4811,1.27604 -0.6997,0.4042 -1.764,1.18397 -2.3749,1.73683 l -1.1165,1.0102 -3.8459,0.26584 c -2.1205,0.14391 -4.374,0.46288 -4.9978,0.70891 -0.6238,0.24605 -2.0407,0.74369 -3.1546,1.09882 -1.1139,0.35514 -2.4904,0.638 -3.0484,0.63802 H 13.682 L 7.0182,19.76089 3.0837,23.58901 1.3469,23.12822 0,25.02455 c 0.3856,0.85256 1.1133,2.35991 1.7191,3.08377 l 7.4081,-2.05585 1.5596,-1.24059 c 0.8596,-0.67621 1.8941,-1.22288 2.2863,-1.22287 h 0.7089 l 1.8963,7.46129 4.1471,-0.69119 c 1.6969,-0.74307 4.7347,-1.52727 6.5574,-1.80772 v 1.41782 c 7.5576,-1.49757 11.6748,-3.30826 17.5101,-4.96238 l -1.1697,-7.49673 5.6004,-1.20515 0.1772,2.42802 5.246,1.68366 1.0988,3.17238 h 1.3115 l 2.7293,9.12723 4.0762,-1.22287 5.3878,3.40277 15.4011,-4.87376 -5.3346,-17.20882 H 75.623 V 10.06653 L 73.8685,8.20564 68.9416,7.5499 68.9596,6.32703 62.987,5.01554 62.934,6.64604 63.9265,6.61054 64.405,7.62074 63.5898,8.94995 61.4453,8.38282 V 9.42846 L 57.1918,8.755 l -5.494,1.87861 -1.3292,-1.82544 -4.8383,1.64822 z"
     style="fill:#3F72AF;fill-opacity:1"
     id="NY_25"
     inkscape:connector-curvature="0" />
</svg>
