<?xml version="1.0" encoding="UTF-8" standalone="no"?>
<svg
   xmlns:dc="http://purl.org/dc/elements/1.1/"
   xmlns:cc="http://creativecommons.org/ns#"
   xmlns:rdf="http://www.w3.org/1999/02/22-rdf-syntax-ns#"
   xmlns:svg="http://www.w3.org/2000/svg"
   xmlns="http://www.w3.org/2000/svg"
   xmlns:sodipodi="http://sodipodi.sourceforge.net/DTD/sodipodi-0.dtd"
   xmlns:inkscape="http://www.inkscape.org/namespaces/inkscape"
   version="1.0"
   width="70.343803"
   height="54.34375"
   id="svg2"
   sodipodi:docname="NY_26.svg"
   inkscape:version="0.92.2 5c3e80d, 2017-08-06">
  <metadata
     id="metadata152">
    <rdf:RDF>
      <cc:Work
         rdf:about="">
        <dc:format>image/svg+xml</dc:format>
        <dc:type
           rdf:resource="http://purl.org/dc/dcmitype/StillImage" />
      </cc:Work>
    </rdf:RDF>
  </metadata>
  <defs
     id="defs150" />
  <sodipodi:namedview
     pagecolor="#ffffff"
     bordercolor="#666666"
     borderopacity="1"
     objecttolerance="10"
     gridtolerance="10"
     guidetolerance="10"
     inkscape:pageopacity="0"
     inkscape:pageshadow="2"
     inkscape:window-width="640"
     inkscape:window-height="480"
     id="namedview148"
     showgrid="false"
     inkscape:zoom="0.12542268"
     inkscape:cx="-809.99255"
     inkscape:cy="-367.18683"
     inkscape:window-x="0"
     inkscape:window-y="0"
     inkscape:window-maximized="0"
     inkscape:current-layer="svg2" />
  <path
     d="M 46.5,0 39.0313,3.0625 31.0938,3.25 26.5625,4.125 C 24.0671,4.61305 21.0048,5.39341 19.75,5.84375 18.4952,6.29407 15.8525,6.83297 13.875,7.0625 L 10.2813,7.5 c 0.293,2.21852 0.655,3.40852 1.3437,5.46875 L 8,14.84375 3.3125,14.15625 2.0625,15.03125 1.3125,20.625 0,21.4375 2.0625,26.0625 5.7188,26.75 7,29.5 l 1.4375,0.5625 2.9375,-0.75 0.25,-0.0625 0.062,0.25 1.8125,6.71875 4.5313,-1.40625 -0.8125,-3.03125 -0.062,-0.25 0.25,-0.0625 4.9062,-1.28125 0.25,-0.0625 0.062,0.25 0.9063,3.34375 0.062,0.21875 -0.2178,0.09375 -0.8437,0.25 0.7812,4.625 0.9375,-0.1875 0.25,-0.0312 0.031,0.21875 3.4375,15.03125 1.0312,0.40625 26.9063,-6.28125 1.3125,2.5 4.3125,-0.8125 -0.7188,-3.90625 2.3438,-0.625 v -3.25 l 7.1875,-1.21875 -1.125,-5 -4.9063,0.6875 -1.2812,-3.28125 -0.125,-2.8125 c -0.07,-1.55961 -0.3345,-3.42318 -0.5625,-4.125 l -0.4063,-1.28125 h 1.2188 v -2.3125 l -1.75,-2.625 -6.5938,1.71875 -0.9062,-6.40625 H 49.1247 L 48.406,10.2813 50.656,9.56255 v -3.3438 h 1.719 L 53.5,5.09375 C 54.1238,4.46991 54.6561,3.71978 54.6563,3.4375 v -0.5 L 49.625,0 Z"
     style="opacity:1;fill:#3F72AF;fill-opacity:1"
     id="NY_26"
     inkscape:connector-curvature="0" />
</svg>
