<?xml version="1.0" encoding="UTF-8" standalone="no"?>
<svg
   xmlns:dc="http://purl.org/dc/elements/1.1/"
   xmlns:cc="http://creativecommons.org/ns#"
   xmlns:rdf="http://www.w3.org/1999/02/22-rdf-syntax-ns#"
   xmlns:svg="http://www.w3.org/2000/svg"
   xmlns="http://www.w3.org/2000/svg"
   xmlns:sodipodi="http://sodipodi.sourceforge.net/DTD/sodipodi-0.dtd"
   xmlns:inkscape="http://www.inkscape.org/namespaces/inkscape"
   version="1.0"
   width="48.979599"
   height="38.084599"
   id="svg2"
   sodipodi:docname="OH_17.svg"
   inkscape:version="0.92.2 5c3e80d, 2017-08-06">
  <metadata
     id="metadata72">
    <rdf:RDF>
      <cc:Work
         rdf:about="">
        <dc:format>image/svg+xml</dc:format>
        <dc:type
           rdf:resource="http://purl.org/dc/dcmitype/StillImage" />
      </cc:Work>
    </rdf:RDF>
  </metadata>
  <defs
     id="defs70" />
  <sodipodi:namedview
     pagecolor="#ffffff"
     bordercolor="#666666"
     borderopacity="1"
     objecttolerance="10"
     gridtolerance="10"
     guidetolerance="10"
     inkscape:pageopacity="0"
     inkscape:pageshadow="2"
     inkscape:window-width="640"
     inkscape:window-height="480"
     id="namedview68"
     showgrid="false"
     inkscape:zoom="0.12542268"
     inkscape:cx="-716.66665"
     inkscape:cy="-239.78187"
     inkscape:window-x="0"
     inkscape:window-y="0"
     inkscape:window-maximized="0"
     inkscape:current-layer="svg2" />
  <path
     d="M 35.2329,0 22.3662,2.44574 24.1916,12.05148 6.9474,15.31247 8.0816,23.05733 5.5827,25.73346 2.5167,25.14861 0.9216,23.53584 0,25.02455 1.7546,26.95634 3.2078,26.38921 6.1676,31.47564 5.4764,34.94931 7.4783,38.0846 9.145,37.80267 8.4006,32.78713 27.169,29.06535 l -1.7014,-9.1804 10.102,-2.0204 0.4431,1.32921 c 0.2452,0.72438 0.3851,1.66258 0.3013,2.09129 l -0.1595,0.7798 7.9929,-1.38238 1.9495,4.07624 2.8827,-0.52878 C 47.3168,17.28771 46.1703,9.69508 44.4664,2.76475 l -8.1701,1.57733 z"
     style="fill:#3F72AF;fill-opacity:1"
     id="OH_17"
     inkscape:connector-curvature="0" />
</svg>
