<?xml version="1.0" encoding="UTF-8" standalone="no"?>
<svg
   xmlns:dc="http://purl.org/dc/elements/1.1/"
   xmlns:cc="http://creativecommons.org/ns#"
   xmlns:rdf="http://www.w3.org/1999/02/22-rdf-syntax-ns#"
   xmlns:svg="http://www.w3.org/2000/svg"
   xmlns="http://www.w3.org/2000/svg"
   xmlns:sodipodi="http://sodipodi.sourceforge.net/DTD/sodipodi-0.dtd"
   xmlns:inkscape="http://www.inkscape.org/namespaces/inkscape"
   version="1.0"
   width="98.485497"
   height="73.815353"
   id="svg2"
   sodipodi:docname="OH_4.svg"
   inkscape:version="0.92.2 5c3e80d, 2017-08-06">
  <metadata
     id="metadata104">
    <rdf:RDF>
      <cc:Work
         rdf:about="">
        <dc:format>image/svg+xml</dc:format>
        <dc:type
           rdf:resource="http://purl.org/dc/dcmitype/StillImage" />
      </cc:Work>
    </rdf:RDF>
  </metadata>
  <defs
     id="defs102" />
  <sodipodi:namedview
     pagecolor="#ffffff"
     bordercolor="#666666"
     borderopacity="1"
     objecttolerance="10"
     gridtolerance="10"
     guidetolerance="10"
     inkscape:pageopacity="0"
     inkscape:pageshadow="2"
     inkscape:window-width="640"
     inkscape:window-height="480"
     id="namedview100"
     showgrid="false"
     inkscape:zoom="0.12542268"
     inkscape:cx="-589.57665"
     inkscape:cy="-164.58251"
     inkscape:window-x="0"
     inkscape:window-y="0"
     inkscape:window-maximized="0"
     inkscape:current-layer="svg2" />
  <path
     d="m 41.7549,0 -20.0977,3.72178 2.2331,14.63901 -3.8281,0.95703 -2.1976,1.66594 c -1.9285,-0.12668 -3.4304,0.17325 -4.3775,1.02793 l 0.7266,2.28623 -10.8109,1.91406 v 2.74706 H 1.0102 l 1.4179,8.50693 H 0 l 3.0306,19.56594 1.3824,1.70139 1.3646,8.22336 c 6.8911,-1.42406 12.6777,-1.5596 19.0166,-2.3394 l 1.2937,9.19809 c 7.8694,-1.0666 15.824,-1.40149 23.6777,-2.56978 l -1.1874,-12.86673 -2.6408,0.65572 c -0.4608,-5.98837 -1.099,-11.9612 -1.5241,-17.95314 l 12.9731,-2.56983 0.7621,4.11168 c 3.8809,-0.68339 9.387,-0.88421 15.4719,-0.83294 L 73.9749,44.83864 86.5758,43.5803 84.4136,30.94399 C 88.9159,30.016 94.0439,29.30181 98.4855,28.10835 L 96.4119,18.41396 94.1434,18.18357 V 15.29476 L 91.485,12.79584 89.7836,2.28624 76.2434,4.73198 l 2.8002,17.61644 -26.9386,5.51181 -1.1165,-4.55478 1.276,-2.39258 -2.2863,-2.44574 -1.8254,-8.36515 -4.3598,0.70891 z"
     style="fill:#3F72AF;fill-opacity:1"
     id="OH_4"
     inkscape:connector-curvature="0" />
</svg>
