<?xml version="1.0" encoding="UTF-8" standalone="no"?>
<svg
   xmlns:dc="http://purl.org/dc/elements/1.1/"
   xmlns:cc="http://creativecommons.org/ns#"
   xmlns:rdf="http://www.w3.org/1999/02/22-rdf-syntax-ns#"
   xmlns:svg="http://www.w3.org/2000/svg"
   xmlns="http://www.w3.org/2000/svg"
   xmlns:sodipodi="http://sodipodi.sourceforge.net/DTD/sodipodi-0.dtd"
   xmlns:inkscape="http://www.inkscape.org/namespaces/inkscape"
   version="1.0"
   width="98.297401"
   height="43.845112"
   id="svg2"
   sodipodi:docname="OH_7.svg"
   inkscape:version="0.92.2 5c3e80d, 2017-08-06">
  <metadata
     id="metadata128">
    <rdf:RDF>
      <cc:Work
         rdf:about="">
        <dc:format>image/svg+xml</dc:format>
        <dc:type
           rdf:resource="http://purl.org/dc/dcmitype/StillImage" />
      </cc:Work>
    </rdf:RDF>
  </metadata>
  <defs
     id="defs126" />
  <sodipodi:namedview
     pagecolor="#ffffff"
     bordercolor="#666666"
     borderopacity="1"
     objecttolerance="10"
     gridtolerance="10"
     guidetolerance="10"
     inkscape:pageopacity="0"
     inkscape:pageshadow="2"
     inkscape:window-width="640"
     inkscape:window-height="480"
     id="namedview124"
     showgrid="false"
     inkscape:zoom="0.12542268"
     inkscape:cx="-615.04735"
     inkscape:cy="-127.77093"
     inkscape:window-x="0"
     inkscape:window-y="0"
     inkscape:window-maximized="0"
     inkscape:current-layer="svg2" />
  <path
     d="M 28.483,43.84511 27.1542,33.60753 1.8279,35.90531 0,20.97435 1.3614,20.1329 0.6015,7.62073 C 9.2814,6.46889 16.2972,6.30307 24.2376,5.15128 l -0.5409,14.87443 h -2.6628 v 4.6065 L 40.8737,22.1698 39.7606,15.077 c 3.4282,-0.22753 6.6099,-0.45501 9.9149,-1.42207 l 0.9428,-2.75772 -1.4068,-1.69504 1.1405,-1.14044 2.9864,1.36066 1.3433,2.58939 1.1567,-1.76904 0.2958,-5.22138 C 53.4183,1.54599 53.0805,-0.11411 58.2218,3.61295 L 88.6458,0 l 0.8533,5.5688 4.4122,-0.59979 0.2822,5.54777 2.7559,-0.52687 c 0.5732,2.43905 1.0995,5.27691 1.348,10.47606 l -9.7998,1.22812 0.045,-1.96896 -6.2593,0.84599 v -3.84026 l -6.3767,0.67403 0.6702,3.72071 -5.6361,0.74764 v 2.56813 c -1.2375,0.58392 -2.9835,0.76109 -5.0417,0.6885 l 0.2211,6.50326 -10.8362,1.49008 -0.2385,4.23304 1.5197,0.31737 -0.1849,2.38461 c -1.7836,1.01158 -3.6423,1.72322 -5.5903,2.07756 l -6.039,-4.95381 c -1.7438,0.64811 -3.4709,1.23792 -4.8923,0.75779 l -1.7053,4.58734 z"
     style="fill:#3F72AF;fill-opacity:1"
     id="OH_7"
     inkscape:connector-curvature="0" />
</svg>
