<?xml version="1.0" encoding="UTF-8" standalone="no"?>
<svg
   xmlns:dc="http://purl.org/dc/elements/1.1/"
   xmlns:cc="http://creativecommons.org/ns#"
   xmlns:rdf="http://www.w3.org/1999/02/22-rdf-syntax-ns#"
   xmlns:svg="http://www.w3.org/2000/svg"
   xmlns="http://www.w3.org/2000/svg"
   xmlns:sodipodi="http://sodipodi.sourceforge.net/DTD/sodipodi-0.dtd"
   xmlns:inkscape="http://www.inkscape.org/namespaces/inkscape"
   version="1.0"
   width="39.606499"
   height="78.035149"
   id="svg2"
   sodipodi:docname="OH_8.svg"
   inkscape:version="0.92.2 5c3e80d, 2017-08-06">
  <metadata
     id="metadata136">
    <rdf:RDF>
      <cc:Work
         rdf:about="">
        <dc:format>image/svg+xml</dc:format>
        <dc:type
           rdf:resource="http://purl.org/dc/dcmitype/StillImage" />
      </cc:Work>
    </rdf:RDF>
  </metadata>
  <defs
     id="defs134" />
  <sodipodi:namedview
     pagecolor="#ffffff"
     bordercolor="#666666"
     borderopacity="1"
     objecttolerance="10"
     gridtolerance="10"
     guidetolerance="10"
     inkscape:pageopacity="0"
     inkscape:pageshadow="2"
     inkscape:window-width="640"
     inkscape:window-height="480"
     id="namedview132"
     showgrid="false"
     inkscape:zoom="0.12542268"
     inkscape:cx="-576.05805"
     inkscape:cy="-115.22122"
     inkscape:window-x="0"
     inkscape:window-y="0"
     inkscape:window-maximized="0"
     inkscape:current-layer="svg2" />
  <path
     d="m 19.8165,78.03515 0.6561,-4.04278 h -1.8498 c 0.01,-1.04391 0.3909,-2.18026 1.1831,-3.41961 L 18.1273,69.92861 18.8174,68.17454 9.1775,69.84031 0,8.25683 3.8774,7.51207 V 4.81606 L 8.4977,4.07726 7.8451,1.3475 14.1662,0 l 1.933,11.98819 1.4069,1.63231 1.4157,8.89133 c 15.2778,-2.79016 12.626,-1.12382 18.9389,-2.35942 1.2421,6.90717 1.4476,14.22897 1.7458,21.51363 l -1.1464,0.65957 0.4974,5.57884 c -2.0474,6.9e-4 -3.6553,-0.58453 -5.1199,-1.36082 L 35.032,38.10714 33.296,37.22315 19.0882,39.598 22.8538,60.45178 28.264,59.70771 c -0.05,1.07522 0.7901,2.15044 2.1051,3.22566 l 1.2198,14.43728 z"
     style="fill:#3F72AF;fill-opacity:1"
     id="OH_8"
     inkscape:connector-curvature="0" />
</svg>
