<?xml version="1.0" encoding="UTF-8" standalone="no"?>
<svg
   xmlns:dc="http://purl.org/dc/elements/1.1/"
   xmlns:cc="http://creativecommons.org/ns#"
   xmlns:rdf="http://www.w3.org/1999/02/22-rdf-syntax-ns#"
   xmlns:svg="http://www.w3.org/2000/svg"
   xmlns="http://www.w3.org/2000/svg"
   xmlns:sodipodi="http://sodipodi.sourceforge.net/DTD/sodipodi-0.dtd"
   xmlns:inkscape="http://www.inkscape.org/namespaces/inkscape"
   version="1.0"
   width="116.72218"
   height="91.773888"
   id="svg2"
   sodipodi:docname="OR_5.svg"
   inkscape:version="0.92.2 5c3e80d, 2017-08-06">
  <metadata
     id="metadata40">
    <rdf:RDF>
      <cc:Work
         rdf:about="">
        <dc:format>image/svg+xml</dc:format>
        <dc:type
           rdf:resource="http://purl.org/dc/dcmitype/StillImage" />
      </cc:Work>
    </rdf:RDF>
  </metadata>
  <defs
     id="defs38" />
  <sodipodi:namedview
     pagecolor="#ffffff"
     bordercolor="#666666"
     borderopacity="1"
     objecttolerance="10"
     gridtolerance="10"
     guidetolerance="10"
     inkscape:pageopacity="0"
     inkscape:pageshadow="2"
     inkscape:window-width="640"
     inkscape:window-height="480"
     id="namedview36"
     showgrid="false"
     inkscape:zoom="0.12542268"
     inkscape:cx="1194.1434"
     inkscape:cy="-497.78907"
     inkscape:window-x="0"
     inkscape:window-y="0"
     inkscape:window-maximized="0"
     inkscape:current-layer="svg2" />
  <path
     d="m 0,88.91132 1.5942,-4.57045 c 0.87678,-2.01264 1.751236,-3.65934 1.943206,-3.65934 h 0.34901 l 0.14842,-3.68634 1.7763,-4.82059 c 0.97694,-2.65133 2.13331,-6.17289 2.56978,-7.82569 0.4364,-1.6528 0.79347,-3.72265 0.79347,-4.59967 v -1.59458 l 1.51531,-2.20587 c 0.83345,-1.21323 2.3647,-4.20394 3.40277,-6.64602 l 1.88746,-4.44016 v -2.57003 l 2.17307,-1.96661 1.1144,-2.93271 c 0.6129,-1.613 1.50726,-4.33636 1.98751,-6.05193 0.48024,-1.71556 1.16947,-4.26764 1.53164,-5.67128 0.36223,-1.40365 0.9711,-3.82812 1.35306,-5.38773 0.38196,-1.5596 1.108,-3.72887 1.61337,-4.82059 0.50536,-1.09172 1.61461,-4.22247 2.46502,-6.95721 L 29.764106,3.53227 28.414276,0.56981 28.984076,0 c 10.99223,3.17971 13.21692,4.90283 24.99347,6.5139 l -0.57611,3.99186 -5.6623,-1.40868 v 0.89457 c 0,0.49201 0.43011,1.79645 0.95572,2.89876 l 1.21954,1.92016 c 1.48994,0.71091 2.78857,1.96776 3.80415,3.2615 l -2.57664,0.2253 v 1.77783 l -2.26852,-0.72001 v 1.39974 l -0.68741,-0.68743 -1.28971,1.2897 c -0.70936,0.70933 -1.10854,1.32732 -1.32291,2.00273 l -3.82259,15.52671 -13.87724,-3.35314 -1.93998,8.78613 30.3821,7.91851 3.90032,-1.94289 -1.17418,-2.50718 h 1.86202 l -1.11974,-4.24988 2.13328,0.92354 v -2.91208 h 2.05171 l 4.1471,1.85984 0.0396,-2.34595 0.85069,-0.85069 c 0.46788,-0.46788 0.85881,-1.18794 0.86873,-1.60011 l 0.018,-0.74943 1.5068,1.98495 h 2.88101 l 1.33225,-5.55325 2.64009,-2.48026 0.7848,3.57313 1.56357,0.6 0.72723,3.87634 1.7188,0.9619 -0.57212,1.57422 2.10075,3.49444 -1.33536,3.53785 2.10439,2.32534 h 2.43298 l 1.10443,-1.10445 3.30131,1.71273 1.35419,-0.51965 0.9889,0.89812 3.68634,-1.55714 v -2.26526 l 2.860524,0.79228 2.41185,2.6105 h 2.66868 l 4.30865,4.43977 3.25968,0.38082 1.72107,6.23842 1.27814,0.57914 -0.15571,2.65047 c -3.74138,0.10084 -4.39286,2.02392 -7.42119,1.96631 l -0.61545,5.29596 h 1.59346 c -0.0311,1.08127 0.29439,1.88526 1.09521,2.64962 -1.29782,1.16083 -2.00144,2.4405 -2.58622,4.19553 l -3.04602,-0.0396 v 2.04166 l 1.77004,0.70049 0.0793,0.91264 -1.62956,0.64797 -0.90574,3.45257 c -6.319384,-1.72812 -9.272764,-2.24959 -11.061814,-3.52263 -0.86884,-0.56555 -1.84255,-1.3815 -2.16371,-1.81325 l -0.58397,-0.78498 c -1.16338,0.47275 -2.34175,0.89204 -3.55579,1.20117 l -2.32307,-4.44716 -9.6835,-2.33953 -3.86141,-2.85449 -3.24397,0.0792 -4.21456,-2.46042 -3.27233,1.01429 c -1.79973,0.55785 -4.10948,1.47644 -5.13269,2.04128 -1.02321,0.56486 -1.94837,1.02701 -2.05584,1.02701 l -0.22056,-1.78944 -4.06752,-3.2751 -2.20832,1.92653 1.60438,3.35792 0.98184,0.2104 -0.14734,1.61115 -4.34853,0.11097 -0.10981,-0.80015 -6.52119,0.79838 -1.07326,1.81811 1.14883,0.71004 -1.5017,0.92813 -1.00733,-1.52743 c -0.55403,-0.84009 -1.00904,-1.94279 -1.01108,-2.45046 l -0.004,-0.92303 c 1.89613,-1.39047 3.11882,-3.09785 3.90575,-6.07288 l -10.83856,-2.81062 -4.57543,17.30932 -5.34462,-1.28807 -1.03194,5.17254 -4.09893,-0.6485 -0.75584,0.74192 c 0.38771,0.96976 1.36337,1.54561 1.91426,2.36744 l -0.67344,0.71935 z"
     style="fill:#3F72AF;fill-opacity:1"
     id="OR_5"
     inkscape:connector-curvature="0" />
</svg>
