<?xml version="1.0" encoding="UTF-8" standalone="no"?>
<svg
   xmlns:dc="http://purl.org/dc/elements/1.1/"
   xmlns:cc="http://creativecommons.org/ns#"
   xmlns:rdf="http://www.w3.org/1999/02/22-rdf-syntax-ns#"
   xmlns:svg="http://www.w3.org/2000/svg"
   xmlns="http://www.w3.org/2000/svg"
   xmlns:sodipodi="http://sodipodi.sourceforge.net/DTD/sodipodi-0.dtd"
   xmlns:inkscape="http://www.inkscape.org/namespaces/inkscape"
   version="1.0"
   width="73.874496"
   height="51.608719"
   id="svg2"
   sodipodi:docname="PA_11.svg"
   inkscape:version="0.92.2 5c3e80d, 2017-08-06">
  <metadata
     id="metadata24">
    <rdf:RDF>
      <cc:Work
         rdf:about="">
        <dc:format>image/svg+xml</dc:format>
        <dc:type
           rdf:resource="http://purl.org/dc/dcmitype/StillImage" />
      </cc:Work>
    </rdf:RDF>
  </metadata>
  <defs
     id="defs22" />
  <sodipodi:namedview
     pagecolor="#ffffff"
     bordercolor="#666666"
     borderopacity="1"
     objecttolerance="10"
     gridtolerance="10"
     guidetolerance="10"
     inkscape:pageopacity="0"
     inkscape:pageshadow="2"
     inkscape:window-width="640"
     inkscape:window-height="480"
     id="namedview20"
     showgrid="false"
     inkscape:zoom="0.12542268"
     inkscape:cx="-940.60305"
     inkscape:cy="-284.29846"
     inkscape:window-x="0"
     inkscape:window-y="0"
     inkscape:window-maximized="0"
     inkscape:current-layer="svg2" />
  <path
     d="M 16.8415,51.60872 15.1222,48.69741 10.6452,50.00743 9.5907,47.68702 8.4188,46.42919 8.3064,42.46483 5.2358,40.65093 4.5917,37.4305 2.0112,37.419 0,32.63467 2.1378,30.90856 7.5512,20.50916 11.8053,19.84955 c 0.3787,2.05475 0.2495,4.31716 1.1105,6.23841 l 3.9844,-2.78659 0.5932,0.59326 3.6891,-4.59055 2.5008,0.62768 3.8487,-4.551 3.1192,0.63111 v 2.70342 h 2.2685 V 14.40511 L 34.1021,13.22279 32.4285,11.83385 35.7554,8.90189 38.6908,2.27198 41.3029,2.92759 42.0915,1.65174 41.406,0.8259 40.7207,4e-5 h 0.5299 c 0.2914,0 1.1096,0.78403 1.818,1.74227 l 1.2881,1.74226 -4.3478,3.86091 2.1099,2.23232 -2.9606,1.16209 v 1.78854 l 2.9043,2.90431 1.3541,4.13324 h 2.8218 c 0.7433,-1.64465 1.4671,-3.29254 2.6868,-4.63549 l 16.695,-5.86847 0.193,6.2505 4.2535,0.0196 2.6671,2.81189 1.1407,-0.70501 -0.8119,2.69412 -3.8466,4.01773 v 1.93712 l 1.4178,0.0126 -3.7147,2.92752 -1.7087,4.14901 -4.7849,4.24525 -3.9699,2.01539 c -2.1835,1.10847 -4.9111,2.58714 -6.0613,3.28593 -1.1503,0.6988 -2.7394,1.96968 -3.5312,2.82419 l -1.4399,1.55365 C 40.513,44.57444 36.6968,42.75523 31.8511,39.13421 l -0.7006,1.13341 -9.469,-0.72785 -2.3728,4.65115 v 5.54068 c -0.7477,0.74421 -1.541,1.39668 -2.4672,1.87719 z"
     style="fill:#3F72AF;fill-opacity:1"
     id="PA_11"
     inkscape:connector-curvature="0" />
</svg>
