<?xml version="1.0" encoding="UTF-8" standalone="no"?>
<svg
   xmlns:dc="http://purl.org/dc/elements/1.1/"
   xmlns:cc="http://creativecommons.org/ns#"
   xmlns:rdf="http://www.w3.org/1999/02/22-rdf-syntax-ns#"
   xmlns:svg="http://www.w3.org/2000/svg"
   xmlns="http://www.w3.org/2000/svg"
   xmlns:sodipodi="http://sodipodi.sourceforge.net/DTD/sodipodi-0.dtd"
   xmlns:inkscape="http://www.inkscape.org/namespaces/inkscape"
   version="1.0"
   width="78.387299"
   height="56.396271"
   id="svg2"
   sodipodi:docname="PA_17.svg"
   inkscape:version="0.92.2 5c3e80d, 2017-08-06">
  <metadata
     id="metadata72">
    <rdf:RDF>
      <cc:Work
         rdf:about="">
        <dc:format>image/svg+xml</dc:format>
        <dc:type
           rdf:resource="http://purl.org/dc/dcmitype/StillImage" />
      </cc:Work>
    </rdf:RDF>
  </metadata>
  <defs
     id="defs70" />
  <sodipodi:namedview
     pagecolor="#ffffff"
     bordercolor="#666666"
     borderopacity="1"
     objecttolerance="10"
     gridtolerance="10"
     guidetolerance="10"
     inkscape:pageopacity="0"
     inkscape:pageshadow="2"
     inkscape:window-width="640"
     inkscape:window-height="480"
     id="namedview68"
     showgrid="false"
     inkscape:zoom="0.12542268"
     inkscape:cx="-918.41525"
     inkscape:cy="-239.80381"
     inkscape:window-x="0"
     inkscape:window-y="0"
     inkscape:window-maximized="0"
     inkscape:current-layer="svg2" />
  <path
     d="M 33.1524,56.39627 31.3079,52.82934 29.4932,52.43077 C 28.4951,52.21156 26.768,51.52968 25.6552,50.91549 24.5424,50.3013 23.3078,49.48816 22.9117,49.1085 22.5155,48.72884 22.074,47.80864 21.9305,47.0636 21.787,46.31855 21.315,45.35433 20.8816,44.92087 l -0.7882,-0.7881 -8.4401,2.40667 -2.0413,-2.25559 -2.7104,1.77594 v 6.10796 H 5.7865 l -2.847,-5.61809 1.2053,-3.17 L 0,40.48658 l 6.4273,-5.79915 2.3401,2.32784 -0.808,2.67565 2.7,-0.0703 0.2132,-0.95745 2.2674,0.59293 v -0.67055 c 0,-0.36881 -0.2453,-1.12898 -0.5452,-1.68928 l -0.5452,-1.01871 1.3959,-1.31137 c 0.7678,-0.72126 1.3959,-1.59882 1.3959,-1.95015 0,-0.35132 0.2487,-0.97408 0.6386,-1.81363 l 0.7792,-1.87807 1.9039,-0.009 0.8507,-0.8507 c 0.4679,-0.46788 1.1322,-0.85069 1.4762,-0.85069 l 1.239,-1.59902 5.156,-2.6453 15.1331,-12.48598 0.046,-5.91637 1.981,-4.15422 9.2937,0.71438 0.6969,-1.12758 c 4.1558,2.85659 8.9444,5.36159 13.2408,7.86659 l -9.1173,9.17077 0.3516,0.50642 3.3466,1.73058 8.533,-2.20191 -1.8961,5.17186 2.1877,1.5997 2.8577,-0.59781 0.6433,0.42434 c 0.3539,0.23339 0.7393,0.93476 0.8565,1.5586 l 0.2132,1.13426 2.4338,0.34847 0.7013,2.79401 -0.6658,1.2644 c -0.3662,0.69542 -0.9465,1.4519 -1.2897,1.68107 -0.3433,0.22916 -1.1691,0.42057 -1.8353,0.42535 -0.6661,0.005 -1.9422,-0.37256 -2.8356,-0.83852 l -1.6244,-0.8472 -3.1938,-0.007 -2.4775,1.36659 -5.0788,0.0512 -0.435,2.20735 -8.0973,7.87277 -3.1192,1.43121 c -1.7156,0.78717 -4.3544,2.34727 -5.8642,3.46688 -1.5097,1.11961 -3.9011,3.05351 -5.3142,4.29755 l -2.5693,2.2619 z"
     style="fill:#3F72AF;fill-opacity:1"
     id="PA_17"
     inkscape:connector-curvature="0" />
</svg>
