<?xml version="1.0" encoding="UTF-8" standalone="no"?>
<svg
   xmlns:dc="http://purl.org/dc/elements/1.1/"
   xmlns:cc="http://creativecommons.org/ns#"
   xmlns:rdf="http://www.w3.org/1999/02/22-rdf-syntax-ns#"
   xmlns:svg="http://www.w3.org/2000/svg"
   xmlns="http://www.w3.org/2000/svg"
   xmlns:sodipodi="http://sodipodi.sourceforge.net/DTD/sodipodi-0.dtd"
   xmlns:inkscape="http://www.inkscape.org/namespaces/inkscape"
   version="1.0"
   width="52.556999"
   height="45.981991"
   id="svg2"
   sodipodi:docname="PA_4.svg"
   inkscape:version="0.92.2 5c3e80d, 2017-08-06">
  <metadata
     id="metadata112">
    <rdf:RDF>
      <cc:Work
         rdf:about="">
        <dc:format>image/svg+xml</dc:format>
        <dc:type
           rdf:resource="http://purl.org/dc/dcmitype/StillImage" />
      </cc:Work>
    </rdf:RDF>
  </metadata>
  <defs
     id="defs110" />
  <sodipodi:namedview
     pagecolor="#ffffff"
     bordercolor="#666666"
     borderopacity="1"
     objecttolerance="10"
     gridtolerance="10"
     guidetolerance="10"
     inkscape:pageopacity="0"
     inkscape:pageshadow="2"
     inkscape:window-width="640"
     inkscape:window-height="480"
     id="namedview108"
     showgrid="false"
     inkscape:zoom="0.12542268"
     inkscape:cx="-763.87115"
     inkscape:cy="-222.47529"
     inkscape:window-x="0"
     inkscape:window-y="0"
     inkscape:window-maximized="0"
     inkscape:current-layer="svg2" />
  <path
     d="M 9.4768,45.97584 0,0.44822 1.7083,0 2.0429,0.54138 c 0.184,0.29775 1.0337,0.71684 1.8882,0.9313 l 1.5536,0.38994 0.9432,3.56352 11.8178,-0.82017 2.2086,1.67584 -2.3091,4.81562 1.8658,6.52198 h 3.546 l 2.0849,8.50693 17.4252,-4.02723 1.2922,6.40733 c -0.5978,1.75261 -1.253,2.98928 -2.6535,3.88199 l 0.302,2.78349 1.6117,-0.76907 c 1.9407,1.39404 3.8488,2.76063 5.9601,3.92435 l 2.9774,1.5905 v 2.08824 l -5.5672,0.69864 0.4661,-1.97512 -3.744,-0.93098 -2.5045,-2.66739 -1.6593,-0.0573 -2.4216,1.50072 -13.5694,1.26966 -2.4199,-1.98009 -5.077,7.1899 c -0.973,-1.78343 -1.3154,-2.87894 -2.059,-5.35028 l -3.4228,1.77 1.9956,3.9289 c -1.2043,0.47772 -1.7781,0.61148 -3.0972,0.57326 z"
     style="fill:#3F72AF;fill-opacity:1"
     id="PA_4"
     inkscape:connector-curvature="0" />
</svg>
