<?xml version="1.0" encoding="UTF-8" standalone="no"?>
<svg
   xmlns:dc="http://purl.org/dc/elements/1.1/"
   xmlns:cc="http://creativecommons.org/ns#"
   xmlns:rdf="http://www.w3.org/1999/02/22-rdf-syntax-ns#"
   xmlns:svg="http://www.w3.org/2000/svg"
   xmlns="http://www.w3.org/2000/svg"
   xmlns:sodipodi="http://sodipodi.sourceforge.net/DTD/sodipodi-0.dtd"
   xmlns:inkscape="http://www.inkscape.org/namespaces/inkscape"
   version="1.0"
   width="147.8878"
   height="96.798149"
   id="svg2"
   sodipodi:docname="PA_5.svg"
   inkscape:version="0.92.2 5c3e80d, 2017-08-06">
  <metadata
     id="metadata120">
    <rdf:RDF>
      <cc:Work
         rdf:about="">
        <dc:format>image/svg+xml</dc:format>
        <dc:type
           rdf:resource="http://purl.org/dc/dcmitype/StillImage" />
      </cc:Work>
    </rdf:RDF>
  </metadata>
  <defs
     id="defs118" />
  <sodipodi:namedview
     pagecolor="#ffffff"
     bordercolor="#666666"
     borderopacity="1"
     objecttolerance="10"
     gridtolerance="10"
     guidetolerance="10"
     inkscape:pageopacity="0"
     inkscape:pageshadow="2"
     inkscape:window-width="640"
     inkscape:window-height="480"
     id="namedview116"
     showgrid="false"
     inkscape:zoom="0.12542268"
     inkscape:cx="-783.66745"
     inkscape:cy="-254.2559"
     inkscape:window-x="0"
     inkscape:window-y="0"
     inkscape:window-maximized="0"
     inkscape:current-layer="svg2" />
  <path
     d="m 121.2796,96.79815 -4.0386,-3.10395 4.6474,-7.02514 -5.8494,-2.96413 c -0.7815,0.74479 -1.7668,1.42399 -2.768,1.81304 l -4.9223,-0.009 -4.7562,4.07116 -8.9826,-1.14674 -9.9019,3.1472 -0.8686,-0.4822 0.6718,-3.35879 -1.3469,0.009 c -0.7409,0.005 -1.724,0.24709 -2.1848,0.53848 l -0.8378,0.52979 v 4.59972 l -2.0962,0.66531 -0.5098,-0.47432 -0.4147,-6.40449 2.1443,-2.47237 v -1.9693 l -1.985,-2.41523 -3.7789,3.77259 -0.4746,1.10399 -1.9309,1.66939 -0.063,2.20931 -1.4847,0.45342 -1.3424,-1.81109 -4.3565,1.21216 -1.3142,0.026 -0.6234,-3.12105 -18.6569,3.58036 -1.8181,-8.97958 -3.2887,3.81716 -4.3869,2.38236 -0.6337,-0.42445 c -0.5321,0.48158 -2.1499,1.48558 -2.4228,1.4063 -0.273,-0.0793 -1.0068,0.13214 -1.6306,0.46982 l -1.1343,0.61397 -2.1944,-0.35021 -1.5845,1.91533 0.6556,-2.06712 -1.1701,-2.18635 h -1.6525 l -4.469,-7.63666 1.6406,-1.68574 0.4272,-4.39177 1.1268,-1.12683 -0.5408,-2.06799 -2.2478,-0.58782 -2.1439,2.14383 -1.7799,-1.77997 -2.1077,0.39386 C 10.7401,69.51604 9.478,69.95244 9.0946,70.2692 l -0.697,0.57593 1.1593,2.16624 c -2.1597,0.66438 -4.0711,1.12469 -6.6967,1.4642 L -4e-4,62.05496 6.1052,53.38042 V 52.57791 L 9.9943,52.2455 7.78,44.37099 8.4416,43.96209 6.58,42.60081 l 6.8164,-1.12731 0.7212,3.84436 5.1675,-1.10539 1.3474,4.6791 4.1955,-0.63362 -3.4576,-7.08403 -2.2212,0.70498 -1.0353,-6.03129 1.0488,-1.26664 -0.2971,-2.59179 3.1786,-0.87993 0.5872,1.51848 c 0.323,0.83517 0.7258,2.34792 0.8952,3.36166 l 0.3081,1.84317 3.7148,-0.67153 0.7428,-3.95929 -1.7704,-3.20321 5.2951,-2.41583 0.4629,0.72969 c 0.2547,0.40132 0.467,1.40383 0.4717,2.2278 l 0.01,1.49812 3.0747,0.77172 1.3038,-1.78301 3.1673,-0.42623 0.9611,-3.39459 -4.4039,0.49525 -0.9838,-5.31717 C 68.9099,14.92304 98.6799,7.9446 130.6227,5.4e-4 l 4.8309,13.63635 -4.6888,2.73084 c 0.2554,1.45935 0.5242,2.91667 0.9423,4.33473 l 5.6264,-1.20812 1.7871,3.85418 2.5824,0.0223 3.4437,5.95485 h -0.5533 c -0.3042,0 -0.6925,-0.363 -0.8628,-0.80667 l -0.3095,-0.80667 -2.405,0.6289 -0.6324,-2.41833 -7.141,1.30615 -1.381,4.93227 -4.9567,0.69941 v 1.6047 l -1.7014,0.65288 v 3.16007 l -1.7014,0.65288 v 2.19098 l 7.8818,1.87254 0.7321,2.30662 2.5989,-0.65229 1.3191,1.58944 -1.1893,0.73505 v 2.20158 h 0.5671 c 0.3119,0 1.0716,-0.50454 1.6883,-1.12119 0.6167,-0.61665 2.0203,-1.49686 3.1192,-1.95601 l 1.998,-0.83483 V 44.7076 c 0,-0.30556 0.4011,-0.95661 0.8912,-1.44676 0.4902,-0.49017 1.1282,-0.89121 1.4178,-0.89121 h 0.5267 v 1.67524 l 2.8356,1.85799 v 2.56758 l -3.4027,1.40947 v 0.99665 h -2.8357 v 4.4108 l -4.5495,1.55906 c -0.3814,0.45963 -1.0451,0.83569 -1.4748,0.83569 h -0.7812 v 0.89742 c 0,0.49357 -0.7674,2.72664 -1.7052,4.96237 -0.9378,2.23573 -2.452,5.48364 -3.3649,7.21759 l -1.6599,3.15264 2.3319,9.28566 8.0844,-0.68187 v 1.72316 l -5.0689,4.0112 -2.9707,-3.55837 -4.8523,4.52613 -0.3284,2.992 z"
     style="fill:#3F72AF;fill-opacity:1"
     id="PA_5"
     inkscape:connector-curvature="0" />
</svg>
