<?xml version="1.0" encoding="UTF-8" standalone="no"?>
<svg
   xmlns:dc="http://purl.org/dc/elements/1.1/"
   xmlns:cc="http://creativecommons.org/ns#"
   xmlns:rdf="http://www.w3.org/1999/02/22-rdf-syntax-ns#"
   xmlns:svg="http://www.w3.org/2000/svg"
   xmlns="http://www.w3.org/2000/svg"
   xmlns:sodipodi="http://sodipodi.sourceforge.net/DTD/sodipodi-0.dtd"
   xmlns:inkscape="http://www.inkscape.org/namespaces/inkscape"
   version="1.0"
   width="17.2514"
   height="23.185329"
   id="svg2"
   sodipodi:docname="PA_7.svg"
   inkscape:version="0.92.2 5c3e80d, 2017-08-06">
  <metadata
     id="metadata136">
    <rdf:RDF>
      <cc:Work
         rdf:about="">
        <dc:format>image/svg+xml</dc:format>
        <dc:type
           rdf:resource="http://purl.org/dc/dcmitype/StillImage" />
      </cc:Work>
    </rdf:RDF>
  </metadata>
  <defs
     id="defs134" />
  <sodipodi:namedview
     pagecolor="#ffffff"
     bordercolor="#666666"
     borderopacity="1"
     objecttolerance="10"
     gridtolerance="10"
     guidetolerance="10"
     inkscape:pageopacity="0"
     inkscape:pageshadow="2"
     inkscape:window-width="640"
     inkscape:window-height="480"
     id="namedview132"
     showgrid="false"
     inkscape:zoom="0.12542268"
     inkscape:cx="-1005.0445"
     inkscape:cy="-236.18809"
     inkscape:window-x="0"
     inkscape:window-y="0"
     inkscape:window-maximized="0"
     inkscape:current-layer="svg2" />
  <path
     d="M 3.0121,23.18533 2.672,18.66607 0.6962,17.71043 1.4655,15.28666 0,13.52081 3.9239,10.26745 5.9445,10.23695 6.5973,8.53556 H 7.3539 C 7.77,8.53556 8.2781,8.26427 8.483,7.9327 L 8.8556,7.32983 6.9004,5.16929 4.8222,6.28147 3.6004,3.99853 H 2.1148 L 0.081,1.75129 1.5345,1e-5 l 1.9932,1.8039 0.7441,-1.204 3.622,1.84082 3.6863,3.96888 v 2.00394 l 5.6713,4.32498 v 2.97075 l -6.7648,4.13062 c 0.5785,0.73999 1.1967,1.53507 1.5883,2.33301 -3.3845,-0.58546 -6.2935,-0.33189 -9.0628,1.01243 z"
     style="fill:#3F72AF;fill-opacity:1"
     id="PA_7"
     inkscape:connector-curvature="0" />
</svg>
