<?xml version="1.0" encoding="UTF-8" standalone="no"?>
<svg
   xmlns:dc="http://purl.org/dc/elements/1.1/"
   xmlns:cc="http://creativecommons.org/ns#"
   xmlns:rdf="http://www.w3.org/1999/02/22-rdf-syntax-ns#"
   xmlns:svg="http://www.w3.org/2000/svg"
   xmlns="http://www.w3.org/2000/svg"
   xmlns:sodipodi="http://sodipodi.sourceforge.net/DTD/sodipodi-0.dtd"
   xmlns:inkscape="http://www.inkscape.org/namespaces/inkscape"
   version="1.0"
   width="37.3064"
   height="32.29089"
   id="svg2"
   sodipodi:docname="RI_1.svg"
   inkscape:version="0.92.2 5c3e80d, 2017-08-06">
  <metadata
     id="metadata8">
    <rdf:RDF>
      <cc:Work
         rdf:about="">
        <dc:format>image/svg+xml</dc:format>
        <dc:type
           rdf:resource="http://purl.org/dc/dcmitype/StillImage" />
      </cc:Work>
    </rdf:RDF>
  </metadata>
  <defs
     id="defs6" />
  <sodipodi:namedview
     pagecolor="#ffffff"
     bordercolor="#666666"
     borderopacity="1"
     objecttolerance="10"
     gridtolerance="10"
     guidetolerance="10"
     inkscape:pageopacity="0"
     inkscape:pageshadow="2"
     inkscape:window-width="640"
     inkscape:window-height="480"
     id="namedview4"
     showgrid="false"
     inkscape:zoom="0.12542268"
     inkscape:cx="-1142.0842"
     inkscape:cy="-387.97805"
     inkscape:window-x="0"
     inkscape:window-y="0"
     inkscape:window-maximized="0"
     inkscape:current-layer="svg2" />
  <path
     d="M 16.6239,0 C 10.9881,1.61643 5.4881,3.72532 0,5.77762 0.1645,7.37959 0.6605,8.94578 1.1519,10.49188 L 9.8538,7.37267 c 0.4767,0.95914 0.8491,1.96483 1.2052,2.97743 l 2.2153,0.0709 c 1.2115,0.0367 3.4062,0.41805 4.8915,0.85069 l 2.7116,0.7798 2.2331,3.68634 h 2.7647 l 0.5139,-1.41782 1.5065,1.41782 h -1.1697 l 0.5494,3.68634 0.4962,-1.47099 1.7014,1.41782 -0.3367,-3.34961 -1.6482,-1.98495 -4.3421,-1.1697 -0.5494,-1.02792 C 22.2941,11.27382 21.9305,10.14508 21.7812,9.32219 21.632,8.49927 21.3443,7.55625 21.1432,7.2309 L 20.771,6.62832 18.9988,6.94733 Z m 15.0112,17.43921 v 2.00267 l -2.3571,1.47099 0.6734,1.79 -1.2229,6.73465 1.1697,1.41782 -1.3291,1.32921 h 1.4 l 0.5317,-1.43554 0.5495,-1.43555 1.719,-0.65574 v -1.08109 c 0,-0.59387 -0.5381,-2.23159 -1.2051,-3.65089 l -1.2229,-2.58752 1.1697,-1.15198 0.9039,1.31148 c 0.5039,0.71953 0.9216,1.72583 0.9216,2.25079 0,0.52496 0.5625,1.99066 1.2406,3.26099 l 1.2229,2.32169 1.5064,-1.25832 v -2.72931 l -2.8357,-5.60039 v -2.30396 z m -7.3727,2.26851 v 1.73683 l 1.79,0.69119 1.0102,2.67614 h 1.1697 v -3.50911 l -2.2685,-0.58485 v -1.0102 z m 0.957,5.51178 c 0.2657,2.16975 0.4104,4.37627 1.0634,6.46881 l 0.3899,0.60258 1.5242,-1.52416 -1.4888,-5.05099 z"
     style="fill:#3F72AF;fill-opacity:1"
     id="RI_1"
     inkscape:connector-curvature="0" />
</svg>
