<?xml version="1.0" encoding="UTF-8" standalone="no"?>
<svg
   xmlns:dc="http://purl.org/dc/elements/1.1/"
   xmlns:cc="http://creativecommons.org/ns#"
   xmlns:rdf="http://www.w3.org/1999/02/22-rdf-syntax-ns#"
   xmlns:svg="http://www.w3.org/2000/svg"
   xmlns="http://www.w3.org/2000/svg"
   xmlns:sodipodi="http://sodipodi.sourceforge.net/DTD/sodipodi-0.dtd"
   xmlns:inkscape="http://www.inkscape.org/namespaces/inkscape"
   version="1.0"
   width="73.7267"
   height="46.36277"
   id="svg2"
   sodipodi:docname="SC_4.svg"
   inkscape:version="0.92.2 5c3e80d, 2017-08-06">
  <metadata
     id="metadata32">
    <rdf:RDF>
      <cc:Work
         rdf:about="">
        <dc:format>image/svg+xml</dc:format>
        <dc:type
           rdf:resource="http://purl.org/dc/dcmitype/StillImage" />
      </cc:Work>
    </rdf:RDF>
  </metadata>
  <defs
     id="defs30" />
  <sodipodi:namedview
     pagecolor="#ffffff"
     bordercolor="#666666"
     borderopacity="1"
     objecttolerance="10"
     gridtolerance="10"
     guidetolerance="10"
     inkscape:pageopacity="0"
     inkscape:pageshadow="2"
     inkscape:window-width="640"
     inkscape:window-height="480"
     id="namedview28"
     showgrid="false"
     inkscape:zoom="0.12542268"
     inkscape:cx="-729.69295"
     inkscape:cy="162.47352"
     inkscape:window-x="0"
     inkscape:window-y="0"
     inkscape:window-maximized="0"
     inkscape:current-layer="svg2" />
  <path
     d="M 43.4562,0 C 31.3146,2.46729 26.4453,1.67791 18.2013,4.78515 L 17.5278,3.1901 C 16.3466,4.30995 16.2996,7.35543 14.2845,6.14983 L 4.5015,11.32488 1.3114,14.58587 0,14.86943 1.5064,15.84416 c 0.9693,-0.42314 1.8231,-0.9969 2.6407,-1.68364 h 1.0102 c 0.4444,0 2.7417,-0.75712 4.218,-1.32923 l 0.9216,3.58 2.7116,-0.67347 0.1241,2.35716 6.6283,12.61861 0.6911,5.28139 3.4914,7.08911 5.9726,3.27868 2.9065,-3.56225 -0.6557,-3.66864 2.2508,-11.82106 4.3243,1.54185 1.347,2.44574 6.3625,1.59505 2.6761,2.28627 12.3705,1.15195 6.4511,3.04832 0.6557,2.28626 2.3749,-3.68633 2.747,-0.69122 -0.8862,-8.25881 -2.3216,-1.86086 -0.7976,-3.43822 -1.5418,0.76205 -0.053,-3.06601 1.1697,0.12403 c -0.795,-1.84011 -1.9466,-3.84933 -2.3926,-6.09663 l -5.7953,0.0354 -1.6482,1.2229 -1.0811,-1.24059 -5.9549,-1.34693 z"
     style="fill:#3F72AF;fill-opacity:1"
     id="SC_4"
     inkscape:connector-curvature="0" />
</svg>
