<?xml version="1.0" encoding="UTF-8" standalone="no"?>
<svg
   xmlns:dc="http://purl.org/dc/elements/1.1/"
   xmlns:cc="http://creativecommons.org/ns#"
   xmlns:rdf="http://www.w3.org/1999/02/22-rdf-syntax-ns#"
   xmlns:svg="http://www.w3.org/2000/svg"
   xmlns="http://www.w3.org/2000/svg"
   xmlns:sodipodi="http://sodipodi.sourceforge.net/DTD/sodipodi-0.dtd"
   xmlns:inkscape="http://www.inkscape.org/namespaces/inkscape"
   version="1.0"
   width="95.382599"
   height="80.896027"
   id="svg2"
   sodipodi:docname="TN_1.svg"
   inkscape:version="0.92.2 5c3e80d, 2017-08-06">
  <metadata
     id="metadata8">
    <rdf:RDF>
      <cc:Work
         rdf:about="">
        <dc:format>image/svg+xml</dc:format>
        <dc:type
           rdf:resource="http://purl.org/dc/dcmitype/StillImage" />
      </cc:Work>
    </rdf:RDF>
  </metadata>
  <defs
     id="defs6" />
  <sodipodi:namedview
     pagecolor="#ffffff"
     bordercolor="#666666"
     borderopacity="1"
     objecttolerance="10"
     gridtolerance="10"
     guidetolerance="10"
     inkscape:pageopacity="0"
     inkscape:pageshadow="2"
     inkscape:window-width="640"
     inkscape:window-height="480"
     id="namedview4"
     showgrid="false"
     inkscape:zoom="0.12542268"
     inkscape:cx="-671.48705"
     inkscape:cy="107.58748"
     inkscape:window-x="0"
     inkscape:window-y="0"
     inkscape:window-maximized="0"
     inkscape:current-layer="svg2" />
  <path
     d="M 9.6518,80.89603 H 8.9609 L 8.1911,74.73492 C 4.9491,71.5455 2.0846,67.98705 0,63.93344 l 4.969,-1.39763 c 0.4614,-1.83307 1.2466,-2.69517 2.1364,-3.24313 l 2.2098,1.18264 1.7835,-0.68441 v -4.04624 l 2.6216,2.34275 4.703,-1.30763 0.3317,0.8237 4.4967,0.16231 v -5.79401 l 1.3988,-0.53894 C 22.6013,50.03873 19.752,49.559 17.3028,48.62204 l -0.4749,1.48197 -3.7845,-0.0572 v -2.60703 l -0.9553,-0.32383 0.2512,-5.8285 2.1647,-2.16745 -0.7108,-0.71073 2.7861,-3.31112 4.0452,0.36296 0.6278,-2.40077 C 20.3299,32.00305 20.0996,30.83045 20.143,29.6122 L 17.8082,27.12699 13.9344,26.15776 C 13.6494,23.57103 13.269,20.9923 11.0815,18.56414 L 8.736,16.92128 C 33.5276,12.56335 58.3603,8.21914 82.2093,3.54702 L 83.3688,1.65996 95.3826,-3e-5 l -1.6528,2.74269 -0.3191,2.379 1.1344,2.11975 -1.2317,5.7436 1.2921,1.55694 h -0.8449 l 1.3205,1.59108 -1.4651,0.52414 -1.985,-1.02089 -0.9925,0.53191 c -0.5458,0.29252 -1.7202,1.34925 -2.6097,2.34825 l -1.6173,1.8164 -3.8392,11.40025 -0.8951,0.98907 c -0.4923,0.54399 -1.3621,1.11124 -1.9329,1.26045 l -1.0378,0.27143 -1.1526,-2.52962 -4.1328,0.25089 -2.2148,2.37741 -1.5116,-0.58001 -0.7274,0.8765 c -0.4001,0.48206 -1.0152,0.88501 -1.3669,0.89538 -0.3517,0.0104 -1.1932,0.48133 -1.8701,1.04653 l -1.2305,1.02769 -0.6588,2.49803 c -0.3623,1.37387 -1.0105,3.04747 -1.4404,3.71906 -0.4299,0.6716 -1.5367,1.75884 -2.4597,2.41603 l -1.6781,1.19488 -1.8323,-1.83228 0.6459,-2.03503 -2.9775,-2.34207 -1.2611,0.82631 c -0.6936,0.4545 -1.7829,1.40245 -2.4206,2.10654 -0.6377,0.70409 -1.7203,1.73644 -2.4058,2.29404 l -1.2465,1.0138 0.6558,2.06599 -0.6748,1.7585 -3.5586,-1.02061 -1.1801,1.17957 -0.076,6.15233 -0.6195,1.29095 c -0.3408,0.71005 -0.7623,1.73757 -0.9367,2.28343 l -0.3172,0.99248 h -4.6773 l -1.442,1.13426 c -0.7931,0.62384 -1.7627,1.13425 -2.1547,1.13425 h -0.7127 l -0.692,2.75699 -2.4343,0.36222 -0.4176,0.85069 c -0.2296,0.46788 -0.7454,1.55252 -1.1462,2.4103 l -0.7287,1.5596 h -2.0825 l -2.8421,2.90257 c -1.5631,1.59641 -3.0609,3.29354 -3.3283,3.7714 l -0.4863,0.8689 -2.9055,0.10226 c -1.5981,0.0562 -3.0764,0.27313 -3.2854,0.482 -0.2089,0.20887 -0.6906,0.3798 -1.0705,0.3798 z"
     style="fill:#3F72AF;fill-opacity:1"
     id="TN_1"
     inkscape:connector-curvature="0" />
</svg>
