<?xml version="1.0" encoding="UTF-8" standalone="no"?>
<svg
   xmlns:dc="http://purl.org/dc/elements/1.1/"
   xmlns:cc="http://creativecommons.org/ns#"
   xmlns:rdf="http://www.w3.org/1999/02/22-rdf-syntax-ns#"
   xmlns:svg="http://www.w3.org/2000/svg"
   xmlns="http://www.w3.org/2000/svg"
   xmlns:sodipodi="http://sodipodi.sourceforge.net/DTD/sodipodi-0.dtd"
   xmlns:inkscape="http://www.inkscape.org/namespaces/inkscape"
   version="1.0"
   width="58.859001"
   height="64.33741"
   id="svg2"
   sodipodi:docname="TN_2.svg"
   inkscape:version="0.92.2 5c3e80d, 2017-08-06">
  <metadata
     id="metadata16">
    <rdf:RDF>
      <cc:Work
         rdf:about="">
        <dc:format>image/svg+xml</dc:format>
        <dc:type
           rdf:resource="http://purl.org/dc/dcmitype/StillImage" />
      </cc:Work>
    </rdf:RDF>
  </metadata>
  <defs
     id="defs14" />
  <sodipodi:namedview
     pagecolor="#ffffff"
     bordercolor="#666666"
     borderopacity="1"
     objecttolerance="10"
     gridtolerance="10"
     guidetolerance="10"
     inkscape:pageopacity="0"
     inkscape:pageshadow="2"
     inkscape:window-width="640"
     inkscape:window-height="480"
     id="namedview12"
     showgrid="false"
     inkscape:zoom="0.12542268"
     inkscape:cx="-623.54205"
     inkscape:cy="136.75004"
     inkscape:window-x="0"
     inkscape:window-y="0"
     inkscape:window-maximized="0"
     inkscape:current-layer="svg2" />
  <path
     d="m 6.5147,63.04452 0.705,-1.14741 C 4.2883,61.38777 2.3259,59.91426 0,58.54005 L 8.6905,39.62976 c 2.0227,-0.71254 3.5881,-2.01308 4.9829,-3.53287 V 34.0406 l 3.9699,-4.41567 1.7014,-0.65288 v -2.90687 l 1.7014,-0.65288 v -3.38757 l 2.2403,-0.58585 2.0601,-5.59364 1.857,-1.65415 h 2.127 l 3.7581,-3.87734 -2.3515,-1.46858 5.5986,-8.31728 2.3148,1.23883 C 39.1337,0.71481 43.315,0.36603 46.7131,0 l 3.2704,3.31651 -1.3521,0.4507 0.7186,1.87283 9.509,4.29135 -0.1195,3.93638 -1.4694,0.56702 -2.2097,-1.18264 -0.8011,0.41577 c -0.9846,0.72258 -1.2416,1.57922 -1.547,2.67231 l -5.5739,1.55058 c 2.4136,4.49767 5.2209,8.37649 8.5265,11.47239 l 0.9288,5.88873 -4.851,1.34347 -1.5954,1.4945 c -0.8775,0.82199 -2.1484,1.66129 -2.8241,1.865 l -1.2286,0.37045 -1.1328,3.24942 -2.1629,0.68651 -2.5263,4.49489 1.1932,2.22944 -1.271,0.78553 0.6563,4.78872 -2.7998,2.4344 -0.9881,0.009 c -0.5435,0.005 -1.3563,0.24159 -1.8062,0.52629 l -0.8181,0.51756 -1.4167,-1.90322 -1.0256,0.61596 c -0.5642,0.33874 -1.5362,1.40313 -2.16,2.36532 l -1.0626,1.96448 -1.9117,0.53174 -1.1499,-1.35357 -6.4669,-1.95109 c -2.3432,1.40307 -4.9956,2.46735 -8.6682,2.41438 l -1.2858,1.60662 z"
     style="fill:#3F72AF;fill-opacity:1"
     id="TN_2"
     inkscape:connector-curvature="0" />
</svg>
