<?xml version="1.0" encoding="UTF-8" standalone="no"?>
<svg
   xmlns:dc="http://purl.org/dc/elements/1.1/"
   xmlns:cc="http://creativecommons.org/ns#"
   xmlns:rdf="http://www.w3.org/1999/02/22-rdf-syntax-ns#"
   xmlns:svg="http://www.w3.org/2000/svg"
   xmlns="http://www.w3.org/2000/svg"
   xmlns:sodipodi="http://sodipodi.sourceforge.net/DTD/sodipodi-0.dtd"
   xmlns:inkscape="http://www.inkscape.org/namespaces/inkscape"
   version="1.0"
   width="163.49229"
   height="116.43794"
   id="svg2"
   sodipodi:docname="TN_7.svg"
   inkscape:version="0.92.2 5c3e80d, 2017-08-06">
  <metadata
     id="metadata56">
    <rdf:RDF>
      <cc:Work
         rdf:about="">
        <dc:format>image/svg+xml</dc:format>
        <dc:type
           rdf:resource="http://purl.org/dc/dcmitype/StillImage" />
      </cc:Work>
    </rdf:RDF>
  </metadata>
  <defs
     id="defs54" />
  <sodipodi:namedview
     pagecolor="#ffffff"
     bordercolor="#666666"
     borderopacity="1"
     objecttolerance="10"
     gridtolerance="10"
     guidetolerance="10"
     inkscape:pageopacity="0"
     inkscape:pageshadow="2"
     inkscape:window-width="640"
     inkscape:window-height="480"
     id="namedview52"
     showgrid="false"
     inkscape:zoom="0.12542268"
     inkscape:cx="-368.93465"
     inkscape:cy="185.27811"
     inkscape:window-x="0"
     inkscape:window-y="0"
     inkscape:window-maximized="0"
     inkscape:current-layer="svg2" />
  <path
     d="m 18.5858,116.43794 -0.022,-2.35308 -6.0763,-0.8706 -4.6385,-2.88555 0.8335,-0.48694 c 1.3583,-1.83846 2.6558,-3.38689 2.6627,-5.02266 H 7.4967 c -0.03,0.62186 -0.2747,1.17192 -0.7187,1.65562 l -3.0636,-2.9582 c -0.8045,-1.41833 -0.8605,-2.21282 -0.8502,-2.95219 -1.2974,0.4068 -2.0258,-0.7308 -2.8646,-1.5689 l 1.8741,-0.71918 1.5032,1.24752 2.3759,-0.89301 0.9489,-1.72322 C 5.4187,95.83256 3.7906,94.38003 3.9985,93.7588 h 5.1041 l -0.1812,-0.89845 3.2975,-0.69932 0.6046,0.97835 4.2894,0.28884 c 0.2979,-1.23458 2.5417,-1.9571 5.4488,-2.50506 4.9355,0.25475 10.8967,-0.68719 16.61,-1.33979 L 38.5232,87.51709 56.93,85.68033 63.4761,80.9984 65.7778,76.94105 c 0.1513,-4.94133 -0.049,-9.83248 -0.9243,-14.62721 l 0.5145,-1.96714 3.5667,-1.11146 16.6201,-1.84913 v -1.62493 h 4.9875 l 1.256,-1.25602 1.2793,2.39027 h 2.219 l 1.4167,-2.26851 c 1.2706,-0.11836 3.03,0.81054 4.8041,1.77091 l 2.2885,-2.2604 4.5442,-0.74447 V 49.537 l 4.4819,-2.67124 0.055,-1.3129 h 2.3495 c 0.9542,-0.85648 1.687,-1.76042 1.6204,-2.83564 h 15.1736 l 1.3476,-1.62381 -0.4958,-11.85219 1.272,-0.5466 -2.5441,-2.77235 1.3531,-1.35317 -2.2118,-0.0361 2.0986,-1.58983 -0.7477,-1.20975 h 1.4443 l -1.7616,-1.7615 -5.8542,-0.13339 v -1.50788 l 4.6558,-4.65573 -2.043,-4.53056 -3.6954,0.59968 -2.7826,-2.18883 h -1.8946 l -0.9744,6.80554 h 0.5315 c 0.2923,0 0.5314,0.26321 0.5314,0.58494 0,0.32167 -0.3546,0.72104 -0.7882,0.88738 l -1.0362,0.44021 -2.4599,-2.84574 -3.4498,0.2323 -2.9218,2.48771 L 106.073,3.77892 130.65,-3e-5 l 2.0865,2.57675 0.248,8.18713 -2.1691,1.21281 3.766,6.7313 -0.6276,2.39998 3.5952,1.59601 c 0.024,1.8962 -0.2864,2.76957 -1.7112,4.36207 l 1.7502,2.75296 -1.3606,6.43935 3.4121,0.0551 c -0.1066,1.11186 0.3199,2.10955 1.242,3.00096 l 4.7118,-4.75747 7.64,0.3582 8.3911,3.21794 0.016,3.44985 1.8511,3.48444 -0.7105,3.2011 -3.1692,3.53264 -0.2205,2.82578 c -2.8666,0.22254 -6.3572,-0.10089 -11.563,-1.92506 v -1.17464 l -2.3038,-0.13753 -0.2972,-0.90746 c 1.8377,-1.3931 3.8046,-2.62116 5.5813,-4.08815 l 0.076,-4.24399 c -1.9121,0.33171 -3.9591,-0.1453 -6.0155,-0.67937 l -2.3316,4.87442 -1.3136,-0.89913 -0.052,-3.29592 h -0.9322 l -2.9089,2.30407 0.6365,-4.00546 h -1.1064 c -0.6991,0.18829 -1.4421,0.74147 -2.3597,2.75097 l -5.0307,3.04889 -5.1327,-1.64428 -2.6083,1.4561 2.2088,0.70472 -0.055,2.4703 -1.3336,1.22601 -6.6195,-1.25216 0.5865,2.50711 c 1.9041,2.12917 4.4738,4.40041 3.7808,5.30123 l -1.3106,1.57923 h -3.3278 l -3.2202,3.52555 -1.9812,-1.10873 -2.1074,0.55113 -0.042,2.85204 c 2.6401,1.57253 5.7673,3.07542 5.3851,5.07971 l -1.9401,1.41862 v 2.28814 l -1.6889,1.40165 0.6216,1.00575 h 3.903 v 1.44346 l 3.9499,2.12718 c 1.1811,7.9972 2.363,15.99649 1.6759,19.48813 l 1.1516,3.02915 h -1.1062 v 2.06038 l -28.64,3.10044 -2.022,1.11038 c -23.324,2.76923 -46.3767,5.48027 -71.0124,8.46814 z"
     style="fill:#3F72AF"
     id="TN_7"
     inkscape:connector-curvature="0" />
</svg>
