<?xml version="1.0" encoding="UTF-8" standalone="no"?>
<svg
   xmlns:dc="http://purl.org/dc/elements/1.1/"
   xmlns:cc="http://creativecommons.org/ns#"
   xmlns:rdf="http://www.w3.org/1999/02/22-rdf-syntax-ns#"
   xmlns:svg="http://www.w3.org/2000/svg"
   xmlns="http://www.w3.org/2000/svg"
   xmlns:sodipodi="http://sodipodi.sourceforge.net/DTD/sodipodi-0.dtd"
   xmlns:inkscape="http://www.inkscape.org/namespaces/inkscape"
   version="1.0"
   width="143.8026"
   height="102.7517"
   id="svg2"
   sodipodi:docname="TN_8.svg"
   inkscape:version="0.92.2 5c3e80d, 2017-08-06">
  <metadata
     id="metadata64">
    <rdf:RDF>
      <cc:Work
         rdf:about="">
        <dc:format>image/svg+xml</dc:format>
        <dc:type
           rdf:resource="http://purl.org/dc/dcmitype/StillImage" />
      </cc:Work>
    </rdf:RDF>
  </metadata>
  <defs
     id="defs62" />
  <sodipodi:namedview
     pagecolor="#ffffff"
     bordercolor="#666666"
     borderopacity="1"
     objecttolerance="10"
     gridtolerance="10"
     guidetolerance="10"
     inkscape:pageopacity="0"
     inkscape:pageshadow="2"
     inkscape:window-width="640"
     inkscape:window-height="480"
     id="namedview60"
     showgrid="false"
     inkscape:zoom="0.12542268"
     inkscape:cx="-358.75525"
     inkscape:cy="175.17584"
     inkscape:window-x="0"
     inkscape:window-y="0"
     inkscape:window-maximized="0"
     inkscape:current-layer="svg2" />
  <path
     d="m 95.1536,0 3.1547,9.48166 -1.7723,1.89636 -65.9996,7.58535 -2.4635,3.22554 -1.9849,-0.7621 v -1.5773 h -1.4179 v 4.25346 l 2.0204,2.95968 -1.1342,2.99518 h -4.0054 v 1.22284 l 4.5371,1.79003 v 2.02039 l -0.6735,0.42535 c -0.3671,0.22685 -2.2174,0.54518 -4.1117,0.7266 l -3.4382,0.33677 5.9548,3.66858 v 3.45597 l -3.8635,2.28621 -0.2658,2.37485 c -0.1485,1.31279 -0.4362,2.90302 -0.6381,3.52686 l -0.3722,1.13426 4.0054,2.56977 v 2.8534 l -1.7191,0.65571 -1.6305,-1.34693 -2.3217,0.72666 V 60.027 l 3.4028,0.74436 v 1.94951 l -1.3647,1.36468 h -2.4811 l -0.709,2.78244 -3.9344,1.87862 -1.6128,-0.62027 -1.8786,1.38238 0.638,1.66594 c 0.3498,0.92011 0.9305,1.86676 1.2938,2.09128 l 0.6735,0.4076 1.9317,-1.75453 1.2052,0.74436 v 2.747 l -4.5371,2.30396 v 0.54943 c 0,0.29837 0.6578,0.96753 1.4533,1.48872 l 1.4356,0.95703 -0.3368,2.3571 -1.7723,0.33676 -3.066,-2.83564 -1.5773,0.62026 -0.5672,2.16218 2.2509,2.87109 -1.028,3.10151 h -2.747 l -0.018,-2.74705 -1.4001,-0.4608 v 1.80773 l -2.2686,1.93181 0.071,2.30396 0.514,-1.27604 c 0.2821,-0.70182 0.6725,-1.27604 0.8684,-1.27604 1.2831,0.53304 2.4843,1.23124 3.6686,1.9672 L 4.7495,92.42423 C 4.5453,92.8992 4.2189,94.1859 4.0229,95.27763 l -0.3544,1.98495 -2.5344,0.37215 v 1.54191 l 3.6686,0.35445 1.2052,2.44574 2.0558,-1.05537 1.9076,1.83024 1.147,-0.75553 -0.8507,-1.31148 C 9.3342,98.45168 11.2437,98.97275 13.564,99.89173 L 12.742,97.66904 12.72,97.21766 c -0.9575,0.31175 -1.8599,-0.6239 -2.9709,-1.89807 l 2.4155,-0.97824 1.4728,1.24542 2.1297,-0.80243 0.8218,-1.42077 C 15.093,92.0125 13.7338,90.73396 13.8595,90.24436 l -0.035,-0.34816 5.0845,0.0386 -0.1353,-0.91359 3.7817,-0.87644 0.8071,1.11656 3.5394,0.14031 c 0.1413,-1.20951 3.0238,-1.91054 5.7085,-2.63096 4.9325,0.3105 10.5549,-0.63337 16.0214,-1.2938 l -0.5139,-1.96719 19.0874,-1.96726 6.1498,-4.69651 2.0381,-3.66864 c 0.1416,-4.86755 0.1455,-9.71548 -0.8706,-14.4176 l 0.6225,-2.2253 3.7989,-1.17367 16.5556,-1.7551 v -1.68244 l 5.0499,-0.15721 1.4841,-1.30927 1.5241,2.44574 1.6482,0.0886 1.3292,-2.23307 c 1.2339,-0.12108 2.8824,0.43028 5.1219,1.48242 l 2.109,-2.15588 4.2358,-0.53169 -0.035,-3.77497 4.7143,-2.67611 0.035,-1.43558 2.5344,-0.0709 c 0.6712,-0.82075 1.6706,-1.49631 1.4355,-2.95967 l 15.5429,-0.0709 0.9747,-1.2229 -0.4253,-11.85651 1.0279,-0.4431 -2.4989,-2.8002 1.1165,-0.93927 -2.0558,-0.14179 2.2685,-1.86092 -0.8507,-1.5064 h 1.1697 l -1.0456,-1.15201 -6.0435,-0.0886 v -1.91406 l 4.413,-4.46613 -1.8077,-4.14713 -3.5269,0.56713 -2.747,-2.19763 -1.5064,-0.0354 -0.833,6.04343 c 1.6611,0.77073 1.4988,1.65398 -1.3647,2.67617 l -2.3748,-2.74706 -3.2433,0.0886 -3.5445,3.11921 -3.7218,-13.30983 -10.616,1.70139 -0.071,-1.93176 z"
     style="fill:#3F72AF;fill-opacity:1"
     id="TN_8"
     inkscape:connector-curvature="0" />
</svg>
