<?xml version="1.0" encoding="UTF-8" standalone="no"?>
<svg
   xmlns:dc="http://purl.org/dc/elements/1.1/"
   xmlns:cc="http://creativecommons.org/ns#"
   xmlns:rdf="http://www.w3.org/1999/02/22-rdf-syntax-ns#"
   xmlns:svg="http://www.w3.org/2000/svg"
   xmlns="http://www.w3.org/2000/svg"
   xmlns:sodipodi="http://sodipodi.sourceforge.net/DTD/sodipodi-0.dtd"
   xmlns:inkscape="http://www.inkscape.org/namespaces/inkscape"
   version="1.0"
   width="16.9324"
   height="22.532"
   id="svg2"
   sodipodi:docname="TX_18.svg"
   inkscape:version="0.92.2 5c3e80d, 2017-08-06">
  <metadata
     id="metadata80">
    <rdf:RDF>
      <cc:Work
         rdf:about="">
        <dc:format>image/svg+xml</dc:format>
        <dc:type
           rdf:resource="http://purl.org/dc/dcmitype/StillImage" />
      </cc:Work>
    </rdf:RDF>
  </metadata>
  <defs
     id="defs78" />
  <sodipodi:namedview
     pagecolor="#ffffff"
     bordercolor="#666666"
     borderopacity="1"
     objecttolerance="10"
     gridtolerance="10"
     guidetolerance="10"
     inkscape:pageopacity="0"
     inkscape:pageshadow="2"
     inkscape:window-width="640"
     inkscape:window-height="480"
     id="namedview76"
     showgrid="false"
     inkscape:zoom="0.12542268"
     inkscape:cx="-103.62885"
     inkscape:cy="540.30667"
     inkscape:window-x="0"
     inkscape:window-y="0"
     inkscape:window-maximized="0"
     inkscape:current-layer="svg2" />
  <path
     d="m 11.8566,22.5233 c -0.7954,0 -1.7407,-0.1961 -2.1006,-0.4253 L 9.1017,21.6813 8.0298,18.5621 C 7.4403,16.8465 6.5864,14.8622 6.1321,14.1523 L 5.3062,12.8618 1.1384,11.7359 0.3739,8.2553 2.8261,6.5377 0,2.3422 H 3.8701 L 7.0381,0 c 2.5677,0.3811 5.1767,0.5891 7.6789,1.2975 0.2827,0.1748 0.514,0.6507 0.514,1.0579 V 3.0955 L 10.2409,5.0013 7.2912,4.2609 v 4.7346 l 1.1742,2.1939 4.5304,-0.4621 0.5338,-3.3689 1.5812,-1.3123 0.9108,0.9108 c 0.5009,0.5009 0.9108,1.2681 0.9108,1.7048 0,0.4367 -0.624,2.2049 -1.3866,3.9294 l -1.3866,3.1354 -4.2446,0.4637 0.7593,1.9787 2.2052,-0.1746 1.6513,3.3101 -1.2276,1.2276 z"
     style="fill:#3F72AF"
     id="TX_18"
     inkscape:connector-curvature="0" />
</svg>
