<?xml version="1.0" encoding="UTF-8" standalone="no"?>
<svg
   xmlns:dc="http://purl.org/dc/elements/1.1/"
   xmlns:cc="http://creativecommons.org/ns#"
   xmlns:rdf="http://www.w3.org/1999/02/22-rdf-syntax-ns#"
   xmlns:svg="http://www.w3.org/2000/svg"
   xmlns="http://www.w3.org/2000/svg"
   xmlns:sodipodi="http://sodipodi.sourceforge.net/DTD/sodipodi-0.dtd"
   xmlns:inkscape="http://www.inkscape.org/namespaces/inkscape"
   version="1.0"
   width="125.3177"
   height="68.516197"
   id="svg2"
   sodipodi:docname="TX_10.svg"
   inkscape:version="0.92.2 5c3e80d, 2017-08-06">
  <metadata
     id="metadata16">
    <rdf:RDF>
      <cc:Work
         rdf:about="">
        <dc:format>image/svg+xml</dc:format>
        <dc:type
           rdf:resource="http://purl.org/dc/dcmitype/StillImage" />
      </cc:Work>
    </rdf:RDF>
  </metadata>
  <defs
     id="defs14" />
  <sodipodi:namedview
     pagecolor="#ffffff"
     bordercolor="#666666"
     borderopacity="1"
     objecttolerance="10"
     gridtolerance="10"
     guidetolerance="10"
     inkscape:pageopacity="0"
     inkscape:pageshadow="2"
     inkscape:window-width="640"
     inkscape:window-height="480"
     id="namedview12"
     showgrid="false"
     inkscape:zoom="0.12542268"
     inkscape:cx="19.501846"
     inkscape:cy="545.21447"
     inkscape:window-x="0"
     inkscape:window-y="0"
     inkscape:window-maximized="0"
     inkscape:current-layer="svg2" />
  <path
     d="m 22.508,26.1766 1.9849,2.6938 -1.3824,2.5521 0.7798,0.4962 c 0.4221,0.2675 1.314,0.4915 1.985,0.4963 h 1.2228 l 2.2685,3.8635 3.5092,0.7621 0.9393,1.7014 9.5171,-1.5773 1.8432,6.0257 8.9677,-5.1041 2.5344,-2.8889 1.0279,0.5495 c 0.5626,0.301 1.5158,0.5149 2.1267,0.4607 0.6109,-0.054 1.2677,-0.315 1.4533,-0.5671 l 0.3367,-0.4608 2.7647,0.6912 0.6381,1.5419 c 0.3485,0.8413 0.7881,2.2562 0.9924,3.1546 l 0.3722,1.6305 4.9447,8.4538 1.8609,1.3824 c 1.0239,0.7554 2.0947,1.3646 2.3748,1.3646 0.2801,0 1.134,0.4992 1.8964,1.0988 l 1.3823,1.0811 3.3674,-0.4253 4.9446,9.7829 2.4103,0.1773 2.1445,1.9495 4.1116,0.6557 v 0.7975 L 99.2298,68.02 v -0.9393 c 0,-0.519 -0.3989,-1.5197 -0.8861,-2.2154 l -0.8862,-1.2582 1.861,-0.7267 1.0101,-2.6407 1.5774,-0.3899 c 0.8688,-0.2166 2.9695,-1.1091 4.661,-1.9849 l 3.0661,-1.5951 6.2561,3.8104 2.623,-1.1874 v -0.5849 l -2.9242,-4.8206 1.2583,-2.3571 h -1.2052 l -1.1343,-2.9952 1.8787,-2.0735 3.7217,-1.2229 0.6913,-2.7824 h 2.6052 l 0.957,-2.0027 c 0.5257,-1.1024 0.9582,-2.3146 0.957,-2.6939 0,-0.3794 -0.5268,-1.5508 -1.1697,-2.6052 l -1.1697,-1.9141 -0.8507,1.2052 -2.9951,1.2051 -0.9039,1.5419 -8.1879,1.5241 -0.7266,-9.9602 -14.1605,1.8609 -1.5596,-2.0558 -0.035,-2.2863 -1.2228,-0.5493 c -0.6764,-0.3079 -1.425,-0.95 -1.6483,-1.4179 -0.2233,-0.4678 -0.7303,-1.5643 -1.1342,-2.428 l -0.7266,-1.5596 -0.4077,0.6558 c -1.3113,1.0786 -2.9389,1.544 -4.537,2.0735 l -1.4887,-1.471 -0.7975,0.4963 c -0.4406,0.2788 -1.4447,0.5269 -2.2331,0.5317 h -1.4356 l -2.3039,-1.6128 -0.8153,0.5139 c -0.4485,0.2838 -1.3948,0.527 -2.1089,0.5317 h -1.3115 l -4.4485,-2.2685 -1.2051,-2.2685 0.5849,-1.0988 c 0.3228,-0.6033 0.5848,-1.7288 0.5848,-2.499 v -1.4 L 62.686,8.7374 64.0506,5.7599 h 1.8078 L 65.9647,4.218 67.0281,3.9345 67.4002,2.0913 65.1495,0 37.1297,17.8823 27.3113,21.799 18.5031,17.4392 16.1814,17.6164 14.3382,15.9505 11.5558,16.9607 C 10.0245,17.51 8.6457,18.104 8.4897,18.2899 8.3338,18.4758 7.5043,18.8067 6.6466,19.0166 L 5.087,19.3887 3.3856,20.5053 v 3.4204 L 5e-4,27.4526 c 0.454,0.8868 1.2263,1.4396 2.0495,1.9514 l 2.328,-0.5513 2.3869,-1.6596 3.6921,-1.1229 4.5547,5.0687 c 1.2785,0.6764 2.5695,1.3244 3.9168,1.8432 z"
     style="fill:#3F72AF"
     id="TX_10"
     inkscape:connector-curvature="0" />
</svg>
