<?xml version="1.0" encoding="UTF-8" standalone="no"?>
<svg
   xmlns:dc="http://purl.org/dc/elements/1.1/"
   xmlns:cc="http://creativecommons.org/ns#"
   xmlns:rdf="http://www.w3.org/1999/02/22-rdf-syntax-ns#"
   xmlns:svg="http://www.w3.org/2000/svg"
   xmlns="http://www.w3.org/2000/svg"
   xmlns:sodipodi="http://sodipodi.sourceforge.net/DTD/sodipodi-0.dtd"
   xmlns:inkscape="http://www.inkscape.org/namespaces/inkscape"
   version="1.0"
   width="240.46259"
   height="195.20187"
   id="svg2"
   sodipodi:docname="TX_19.svg"
   inkscape:version="0.92.2 5c3e80d, 2017-08-06">
  <metadata
     id="metadata88">
    <rdf:RDF>
      <cc:Work
         rdf:about="">
        <dc:format>image/svg+xml</dc:format>
        <dc:type
           rdf:resource="http://purl.org/dc/dcmitype/StillImage" />
      </cc:Work>
    </rdf:RDF>
  </metadata>
  <defs
     id="defs86" />
  <sodipodi:namedview
     pagecolor="#ffffff"
     bordercolor="#666666"
     borderopacity="1"
     objecttolerance="10"
     gridtolerance="10"
     guidetolerance="10"
     inkscape:pageopacity="0"
     inkscape:pageshadow="2"
     inkscape:window-width="640"
     inkscape:window-height="480"
     id="namedview84"
     showgrid="false"
     inkscape:zoom="0.12542268"
     inkscape:cx="294.00984"
     inkscape:cy="395.61987"
     inkscape:window-x="0"
     inkscape:window-y="0"
     inkscape:window-maximized="0"
     inkscape:current-layer="svg2" />
  <path
     d="M 6.39799,0 0,165.05217 l 44.23599,1.4532 v -27.3285 l 27.4173,0.6445 -1.4357,54.1721 c 8.8549,0.062 17.7106,0.5282 26.5665,0.4785 0.8621,-18.1907 0.5084,-36.4398 1.5596,-54.6216 l 27.1513,0.6026 -0.5849,27.0272 h 14.0187 l 1.8078,2.7648 -1.2406,2.3039 -8.3297,4.0054 h -3.5978 l -2.8002,1.8254 v 16.2518 l 90.4705,0.5704 c 3.6136,-2.0653 15.3966,-8.9759 18.2942,-10.8496 l 5.2814,-3.4028 -0.6203,-12.6718 c -1.6299,-0.085 -3.2619,-0.1681 -4.8738,-0.4076 l -0.7266,-27.6121 h 7.8689 l -0.7444,-40.1775 -3.5091,-0.6735 -2.6761,-2.8179 -2.5507,-0.1826 -0.4541,-1.268 -0.022,-3.5445 c -2.3298,-1.1147 -2.1938,-1.4986 -5.7109,-1.2433 l -1.8963,-3.9699 h -9.8361 l 0.7975,54.2672 -34.0809,0.7443 v 27.2222 h -28.3387 l -0.3013,-27.5058 -18.9988,-0.3013 v -27.2044 h -53.3101 v -27.7893 h 26.655 v -29.4907 l -48.4895,-0.7444 0.3368,-27.0449 h -8.2943 l 0.4254,-27.04495 z"
     style="fill:#3F72AF"
     id="TX_19"
     inkscape:connector-curvature="0" />
</svg>
