<?xml version="1.0" encoding="UTF-8" standalone="no"?>
<svg
   xmlns:dc="http://purl.org/dc/elements/1.1/"
   xmlns:cc="http://creativecommons.org/ns#"
   xmlns:rdf="http://www.w3.org/1999/02/22-rdf-syntax-ns#"
   xmlns:svg="http://www.w3.org/2000/svg"
   xmlns="http://www.w3.org/2000/svg"
   xmlns:sodipodi="http://sodipodi.sourceforge.net/DTD/sodipodi-0.dtd"
   xmlns:inkscape="http://www.inkscape.org/namespaces/inkscape"
   version="1.0"
   width="55.224327"
   height="139.77271"
   id="svg2"
   sodipodi:docname="TX_27.svg"
   inkscape:version="0.92.2 5c3e80d, 2017-08-06">
  <metadata
     id="metadata160">
    <rdf:RDF>
      <cc:Work
         rdf:about="">
        <dc:format>image/svg+xml</dc:format>
        <dc:type
           rdf:resource="http://purl.org/dc/dcmitype/StillImage" />
      </cc:Work>
    </rdf:RDF>
  </metadata>
  <defs
     id="defs158" />
  <sodipodi:namedview
     pagecolor="#ffffff"
     bordercolor="#666666"
     borderopacity="1"
     objecttolerance="10"
     gridtolerance="10"
     guidetolerance="10"
     inkscape:pageopacity="0"
     inkscape:pageshadow="2"
     inkscape:window-width="640"
     inkscape:window-height="480"
     id="namedview156"
     showgrid="false"
     inkscape:zoom="0.12542268"
     inkscape:cx="27.175746"
     inkscape:cy="778.49937"
     inkscape:window-x="0"
     inkscape:window-y="0"
     inkscape:window-maximized="0"
     inkscape:current-layer="svg2" />
  <path
     d="m 37.3241,0.7375 -1.3292,3.2079 -2.9091,1.3858 -1.6456,2.8676 h 2.6938 l 1.9673,2.1622 -1.7369,3.3319 0.6203,2.3394 -3.6509,0.7975 -0.8692,-1.2338 -1.1579,2.1478 -4.6105,-0.7789 -1.0895,-2.2441 -0.071,1.985 h -2.6111 c 0.4556,-1.5818 -0.6268,-2.4494 -2.0061,-3.504 -0.3899,0.062 -1.6669,0.4478 -2.7555,-0.041 l -1.9672,-0.8861 -1.0532,0.8397 -0.26,-2.1419 -1.5933,0.062 -4.7675,4.8737 V 31.4511 H -1e-4 l 0.3367,22.6143 4.2003,0.3544 0.8507,39.4155 h 1.8255 c -0.9633,5.6864 -2.2225,3.9232 -2.5319,10.0665 2.9294,0.7621 5.4594,0.7257 8.0791,0.8684 v 5.3168 l 4.5547,3.6687 c 2.0225,0.6363 4.1643,1.0512 5.9549,2.2153 l 0.3367,0.5494 h 3.2078 l 0.7621,1.985 -3.4205,3.0483 -4.218,1.1697 -6.5929,-0.6912 -1.7191,1.4356 v 3.704 l 1.79,0.6912 2.6407,-0.6558 2.6584,1.6837 7.0891,0.7798 0.018,0.3722 c 0.01,0.2033 0.8779,1.3292 1.9317,2.4989 l 1.9141,2.1267 h 1.5596 l 2.0204,3.4028 2.6938,-0.6734 1.4711,2.3748 h 3.2786 l -0.6557,-4.0231 0.9748,-0.319 c 0.5289,-0.1686 1.9778,-0.7883 3.2255,-1.3824 l 2.2685,-1.081 6.2207,-0.8685 0.4076,-2.0558 -1.1519,0.6026 c -0.6312,0.3378 -1.5578,0.6203 -2.0559,0.6203 h -0.9039 l -0.7089,-1.8609 2.0027,-1.471 -0.4785,-1.4001 -5.0333,-1.2229 -0.018,-1.1342 c -0.012,-0.6243 -0.2413,-1.4661 -0.4962,-1.8786 -0.2551,-0.4126 -0.5666,-1.5616 -0.7089,-2.5521 -0.1424,-0.9907 -0.2603,-2.602 -0.2659,-3.58 l -0.018,-1.7901 -2.0381,0.5317 -0.5672,-3.7749 0.4963,-0.195 c 0.2733,-0.104 0.4962,-0.5506 0.4962,-0.9924 v -0.7975 h -0.5848 c -0.3217,0 -0.7243,0.3827 -0.9039,0.8506 l -0.3367,0.8507 h -1.7014 l 0.3899,-1.276 c 0.2175,-0.7018 0.5159,-1.812 0.6735,-2.4635 l 0.2835,-1.1874 -2.6407,0.1063 0.3722,-1.6482 -1.6659,-1.2228 1.1342,-6.5043 -1.4532,-1.7369 -0.4254,-2.3925 c -0.2328,-1.3091 -0.6024,-3.3957 -0.833,-4.6434 l -0.4253,-2.2685 -3.2787,-4.8206 h -1.5774 l -0.6734,-2.109 1.1165,-2.9242 -0.9038,-5.6891 0.8152,-0.3012 c 0.4445,-0.1706 1.445,-0.3191 2.2331,-0.3191 h 1.4355 L 32.3612,67.96 c -0.2048,-0.8162 -0.529,-2.2198 -0.7089,-3.1192 l -0.319,-1.6305 c 0.8243,0.047 1.648,-0.017 2.4458,-0.1418 l 1.4355,-9.4994 h -0.514 c -0.284,0 -1.4541,0.5227 -2.6052,1.1697 l -2.0913,1.1874 -6.7524,-0.9392 v -2.818 l 0.9925,-0.1949 c 0.5448,-0.105 1.6568,-0.7387 2.4635,-1.4178 0.8066,-0.6792 2.1132,-1.803 2.9065,-2.499 l 1.4356,-1.276 0.4962,0.319 c 0.2727,0.1685 0.4962,0.7657 0.4962,1.3292 v 1.0102 l -1.1697,1.5065 -1.1874,1.4887 0.4785,-0.018 c 0.2566,-0.01 1.0988,-0.5066 1.8786,-1.1165 l 1.4178,-1.1165 1.9496,-0.018 0.8861,-1.7014 c 0.4861,-0.94 1.11,-2.7904 1.3824,-4.1117 0.2722,-1.3214 0.9136,-3.9072 1.4178,-5.7422 0.5041,-1.8349 1.2481,-4.0042 1.6659,-4.8206 0.4178,-0.8164 1.0715,-2.382 1.4533,-3.4736 0.382,-1.0918 0.8282,-2.363 0.9748,-2.8357 l 0.2658,-0.8684 -5.1928,-1.5242 -2.2508,-2.8711 v -3.0305 l 0.7089,-0.9039 c 0.3899,-0.5004 1.6022,-1.4415 2.6939,-2.0913 l 1.985,-1.1874 h 2.9774 l 1.4178,3.4028 h 1.5774 L 49.8359,13.338 C 47.1447,9.7038 44.4577,4.9798 41.5535,1.5042 40.5751,1.4812 40.6989,0.2292 39.6816,-5e-4 Z M 55.2064,16.4222 54.6393,17.84 h -1.8964 l -0.1772,2.9952 1.3469,-1.6305 c 0.7384,-0.9031 1.325,-1.9035 1.3115,-2.2154 z m -4.732,7.2486 c -0.2515,0.068 -0.9384,0.7707 -1.6482,1.7014 l -1.471,1.9318 v 2.3748 l -1.9318,1.9318 -0.1949,1.1697 c -0.099,0.6468 -0.6783,2.0402 -1.2938,3.0838 -0.6158,1.0436 -1.1165,2.2287 -1.1165,2.6407 0,0.4118 -0.3736,1.0541 -0.833,1.4355 l -0.833,0.7089 -0.3721,2.0559 c -0.2049,1.1383 -0.6431,2.419 -0.9748,2.8356 l -0.6026,0.7621 -0.124,2.6407 c -0.061,1.4548 -0.3516,3.845 -0.6558,5.3168 l -0.5494,2.6762 0.6203,0.638 0.9748,-4.8206 c 0.5366,-2.6504 1.5479,-6.5529 2.2508,-8.6665 0.7027,-2.1135 2.5323,-6.6531 4.0585,-10.0842 1.5262,-3.4311 3.2798,-7.0995 3.899,-8.1525 0.6191,-1.053 1.0232,-2.0251 0.8862,-2.1621 -0.017,-0.017 -0.053,-0.028 -0.089,-0.018 z M 37.8735,58.9569 v 5.1041 l 0.2482,-1.276 c 0.1352,-0.7018 0.135,-1.8503 0,-2.5521 z m 0.4963,14.1782 0.035,3.4028 0.2658,-1.0103 c 0.1438,-0.5518 0.1376,-1.3174 -0.018,-1.7014 z m 0.8507,4.537 -0.7267,2.8357 0.9216,0.638 0.514,6.0257 1.7545,1.9318 v 0.9748 c 0,0.5311 0.534,2.5443 1.1875,4.4838 l 1.1874,3.5268 0.638,0.3899 c 0.3513,0.2172 0.7167,0.3288 0.8152,0.2304 V 98.691 C 45.611,98.593 45.1473,97.1434 44.4841,95.4655 43.8209,93.7873 42.6715,90.5031 41.932,88.1637 41.1925,85.8243 40.289,82.5066 39.9116,80.791 Z m 6.4333,21.6395 v 1.5241 l 0.7621,-0.762 z m 0.8507,1.8964 c -0.156,0 -0.2836,0.1275 -0.2836,0.2835 0,0.156 0.1276,0.2836 0.2836,0.2836 0.156,0 0.2836,-0.1276 0.2836,-0.2836 0,-0.156 -0.1276,-0.2835 -0.2836,-0.2835 z m 0.5671,1.7013 c -0.1559,0 -0.2835,0.1276 -0.2835,0.2836 0,0.156 0.1276,0.2836 0.2835,0.2836 0.156,0 0.2836,-0.1276 0.2836,-0.2836 0,-0.156 -0.1276,-0.2836 -0.2836,-0.2836 z m 0.2836,1.5064 v 1.5242 l 0.7621,-0.762 z m 4.537,22.1181 0.089,2.1799 0.6025,-1.4887 z"
     style="fill:#3F72AF"
     id="TX_27"
     inkscape:connector-curvature="0" />
</svg>
