<?xml version="1.0" encoding="UTF-8" standalone="no"?>
<svg
   xmlns:dc="http://purl.org/dc/elements/1.1/"
   xmlns:cc="http://creativecommons.org/ns#"
   xmlns:rdf="http://www.w3.org/1999/02/22-rdf-syntax-ns#"
   xmlns:svg="http://www.w3.org/2000/svg"
   xmlns="http://www.w3.org/2000/svg"
   xmlns:sodipodi="http://sodipodi.sourceforge.net/DTD/sodipodi-0.dtd"
   xmlns:inkscape="http://www.inkscape.org/namespaces/inkscape"
   version="1.0"
   width="112.8597"
   height="75.859398"
   id="svg2"
   sodipodi:docname="TX_21.svg"
   inkscape:version="0.92.2 5c3e80d, 2017-08-06">
  <metadata
     id="metadata112">
    <rdf:RDF>
      <cc:Work
         rdf:about="">
        <dc:format>image/svg+xml</dc:format>
        <dc:type
           rdf:resource="http://purl.org/dc/dcmitype/StillImage" />
      </cc:Work>
    </rdf:RDF>
  </metadata>
  <defs
     id="defs110" />
  <sodipodi:namedview
     pagecolor="#ffffff"
     bordercolor="#666666"
     borderopacity="1"
     objecttolerance="10"
     gridtolerance="10"
     guidetolerance="10"
     inkscape:pageopacity="0"
     inkscape:pageshadow="2"
     inkscape:window-width="640"
     inkscape:window-height="480"
     id="namedview108"
     showgrid="false"
     inkscape:zoom="0.12542268"
     inkscape:cx="129.12875"
     inkscape:cy="561.29047"
     inkscape:window-x="0"
     inkscape:window-y="0"
     inkscape:window-maximized="0"
     inkscape:current-layer="svg2" />
  <path
     d="M 76.9993,75.71 80.72,75.0087 83.4192,70.4671 80.74,67.3524 h -1.7558 v 4.5371 l -2.7103,-0.6404 0.5705,-2.1815 -1.8301,-0.7023 v -1.58 h -3.1759 l -1.3611,1.3611 -1.4088,-1.4088 4.7052,-4.2503 3.1754,-0.4284 1.7897,-3.3866 -1.7399,-3.7969 -10.3496,-0.039 c -3.9863,1.547 -7.1213,3.2831 -9.4049,4.9247 l -3.7809,1.2842 c 0,0.2244 -0.8476,0.7146 -1.8835,1.0891 -1.0358,0.3746 -2.2989,0.6811 -2.8068,0.6811 H 47.8499 L 44.8219,58.8456 3.2726,58.8356 0.6249,54.2 0,45.9375 c 0.8074,-2.7869 1.6148,-5.1009 1.8547,-8.0769 h 9.6412 V 21.9809 h 19.8495 v 9.8163 L 70.6089,31.055 69.7786,8.3699 h 9.9731 l 14.6615,4.2333 2.152,-2.6576 V 7.8973 l -1.1669,-0.389 2.9539,-6.8462 c 2.0512,-0.032 3.3457,-0.064 5.3023,-0.6633 l 0.7088,0.7588 c 0.3899,0.4174 0.7089,1.0519 0.7089,1.4101 v 0.6512 l 2.7485,2.162 0.7327,3.3357 2.2724,2.8889 h 2.0339 l -0.8324,4.5519 -3.1075,2.8799 1.9995,2.2094 h -1.7014 l -1.8772,-2.0743 v -4.605 l -3.8176,-0.7162 -1.8537,0.7113 V 16.66 c 0.7045,0.8277 1.2706,1.7115 1.6833,2.7042 l 0.018,0.5024 -5.0971,-0.6986 -6.1323,-3.0475 -0.1132,19.5647 c 3.0746,3.7684 7.3018,6.8412 9.6412,11.1466 l 1.7564,5.8038 -3.1742,4.6632 c -9.928,5.0093 -12.0997,6.3297 -16.1632,9.0689 v 2.6231 l 3.1192,1.488 0.3535,3.0548 -1.2441,2.3246 z"
     style="fill:#3F72AF"
     id="TX_21"
     inkscape:connector-curvature="0" />
</svg>
