<?xml version="1.0" encoding="UTF-8" standalone="no"?>
<svg
   xmlns:dc="http://purl.org/dc/elements/1.1/"
   xmlns:cc="http://creativecommons.org/ns#"
   xmlns:rdf="http://www.w3.org/1999/02/22-rdf-syntax-ns#"
   xmlns:svg="http://www.w3.org/2000/svg"
   xmlns="http://www.w3.org/2000/svg"
   xmlns:sodipodi="http://sodipodi.sourceforge.net/DTD/sodipodi-0.dtd"
   xmlns:inkscape="http://www.inkscape.org/namespaces/inkscape"
   version="1.0"
   width="141.3855"
   height="226.2606"
   id="svg2"
   sodipodi:docname="TX_28.svg"
   inkscape:version="0.92.2 5c3e80d, 2017-08-06">
  <metadata
     id="metadata168">
    <rdf:RDF>
      <cc:Work
         rdf:about="">
        <dc:format>image/svg+xml</dc:format>
        <dc:type
           rdf:resource="http://purl.org/dc/dcmitype/StillImage" />
      </cc:Work>
    </rdf:RDF>
  </metadata>
  <defs
     id="defs166" />
  <sodipodi:namedview
     pagecolor="#ffffff"
     bordercolor="#666666"
     borderopacity="1"
     objecttolerance="10"
     gridtolerance="10"
     guidetolerance="10"
     inkscape:pageopacity="0"
     inkscape:pageshadow="2"
     inkscape:window-width="640"
     inkscape:window-height="480"
     id="namedview164"
     showgrid="false"
     inkscape:zoom="0.12542268"
     inkscape:cx="146.18415"
     inkscape:cy="760.91977"
     inkscape:window-x="0"
     inkscape:window-y="0"
     inkscape:window-maximized="0"
     inkscape:current-layer="svg2" />
  <path
     d="m 102.9843,226.2606 c -0.2498,0 -0.8848,-0.4466 -1.4111,-0.9925 -0.5263,-0.5459 -1.4529,-1.4591 -2.059,-2.0294 l -1.102,-1.0369 -1.0445,0.1369 c -0.5745,0.075 -2.0653,-0.072 -3.313,-0.3277 l -2.2685,-0.4646 -1.3102,-1.7856 -3.8934,1.8566 -5.0007,-5.5651 h -1.989 v -1.6615 l -2.059,-1.102 -4.1459,0.9351 -1.3495,-1.626 -1.5196,0.5831 v -1.0986 h -2.8511 l -2.2531,-1.4071 -2.1229,1.3258 -1.1869,-1.1868 0.619,-3.8142 -1.816,-2.7715 -2.207,-0.7005 -0.3965,-2.3866 c -0.2181,-1.3127 -0.7491,-3.0758 -1.1801,-3.9181 l -0.7837,-1.5315 v -3.2832 l -2.2685,-2.053 V 189.47 c 0,-0.487 -0.4174,-1.9787 -0.9277,-3.3148 l -0.9278,-2.4293 -0.4901,-0.071 c -0.2695,-0.039 -0.809,-0.1028 -1.1989,-0.1417 l -0.7089,-0.071 -0.3717,-3.251 -3.3759,-1.2743 0.5336,-2.0405 -2.5874,-2.7919 h -1.4165 l 0.3417,-1.8431 c 0.1879,-1.0138 0.3762,-3.5021 0.4184,-5.5295 l 0.077,-3.6864 -1.0294,-3.9277 -2.2306,-0.6093 v -1.6502 l -2.8357,-0.6705 1.737,-0.6678 1.4951,-5.8334 -1.3022,-1.569 1.1893,-0.735 v -2.3078 l -2.3902,-0.6251 0.6451,-3.9757 -2.302,-3.2328 h -1.5678 l -1.0818,-1.9331 -2.8319,1.2903 -0.582,-2.2254 -0.4742,0.083 c -0.2608,0.046 -0.9172,0.053 -1.4586,0.016 l -0.9844,-0.067 -3.0025,-4.537 h -1.4742 l -0.6604,-1.985 -3.6527,-1.7961 -0.253,-3.2922 -1.1797,-0.3932 0.6294,-2.5079 -2.3327,-2.1111 v -3.227 h -2.8065 l -0.8653,-1.6732 c -0.4759,-0.9203 -0.8653,-2.0414 -0.8653,-2.4914 v -0.8182 l -1.6501,-0.6332 -2.3428,-4.5923 -0.6974,-0.033 c -0.3835,-0.018 -1.9535,-0.6268 -3.4887,-1.3528 L 4e-4,101.6213 42.297,100.228 40.8965,52.1511 H 67.6836 V 35.1372 l 30.6412,15.7483 7.3066,-12.2849 -2.6185,-0.3699 -0.2991,-1.2132 -3.5167,-1.6626 0.3238,-2.2427 4.5214,-2.8645 -3.4652,-0.7818 v -2.2685 h 3.3628 l 1.2398,-2.3165 -0.3492,-4.1974 -3.1192,-1.4878 V 17.707 c 5.225,-3.5114 7.8,-5.0567 16.7006,-9.5084 l 3.6747,-6.1879 c 1.3577,-0.7069 2.6769,-1.5095 4.1265,-2.0117 l 2.7178,5.2187 2.6292,2.3411 c 1.446,1.2877 3.6385,2.8955 4.8721,3.573 1.2337,0.6774 2.3754,1.3641 2.5372,1.5259 l 0.2941,0.2942 -2.9782,9.556 c -1.3536,1.4672 -2.9442,2.7794 -3.946,4.5196 l 9.0466,11.7851 -25.9853,27.169 4.4523,5.3178 -14.1717,13.2958 v 31.0743 H 84.6975 v 40.2661 h 7.3907 c 1.9409,11.7108 1.7448,17.1815 1.7197,29.4907 h 4.5007 v 1.4518 l -3.9699,3.7445 -2.2686,4.4109 -3.2968,2.4375 -2.0884,3.8778 1.6989,1.074 7.0675,0.017 c 1.402,2.1501 0.5815,7.8903 0.8723,11.8355 l 3.0991,3.2344 0.3715,1.9645 c 0.2043,1.0804 0.6714,2.3472 1.038,2.8151 0.3666,0.4679 1.103,1.5525 1.6366,2.4103 l 0.9701,1.5596 z"
     style="fill:#3F72AF"
     id="TX_28"
     inkscape:connector-curvature="0" />
</svg>
