<?xml version="1.0" encoding="UTF-8" standalone="no"?>
<svg
   xmlns:dc="http://purl.org/dc/elements/1.1/"
   xmlns:cc="http://creativecommons.org/ns#"
   xmlns:rdf="http://www.w3.org/1999/02/22-rdf-syntax-ns#"
   xmlns:svg="http://www.w3.org/2000/svg"
   xmlns="http://www.w3.org/2000/svg"
   xmlns:sodipodi="http://sodipodi.sourceforge.net/DTD/sodipodi-0.dtd"
   xmlns:inkscape="http://www.inkscape.org/namespaces/inkscape"
   version="1.0"
   width="117.3425"
   height="129.3053"
   id="svg2"
   sodipodi:docname="TX_31.svg"
   inkscape:version="0.92.2 5c3e80d, 2017-08-06">
  <metadata
     id="metadata200">
    <rdf:RDF>
      <cc:Work
         rdf:about="">
        <dc:format>image/svg+xml</dc:format>
        <dc:type
           rdf:resource="http://purl.org/dc/dcmitype/StillImage" />
      </cc:Work>
    </rdf:RDF>
  </metadata>
  <defs
     id="defs198" />
  <sodipodi:namedview
     pagecolor="#ffffff"
     bordercolor="#666666"
     borderopacity="1"
     objecttolerance="10"
     gridtolerance="10"
     guidetolerance="10"
     inkscape:pageopacity="0"
     inkscape:pageshadow="2"
     inkscape:window-width="640"
     inkscape:window-height="480"
     id="namedview196"
     showgrid="false"
     inkscape:zoom="0.12542268"
     inkscape:cx="58.509646"
     inkscape:cy="497.75287"
     inkscape:window-x="0"
     inkscape:window-y="0"
     inkscape:window-maximized="0"
     inkscape:current-layer="svg2" />
  <path
     d="M 3.1546,0 3.9168,13.3984 0,15.9328 l 11.573,19.176 3.704,-2.1976 5.4941,8.7373 -15.7378,10.0666 9.9425,15.7378 4.9978,-2.6761 15.0466,24.2624 v 2.5698 l 4.5016,7.5322 -7.0005,7.6385 -4.6079,10.4033 0.8329,0.071 1.4002,-0.1418 c 0.7696,-0.084 1.6679,-0.3181 1.9849,-0.514 l 0.5671,-0.3544 2.3217,2.2153 v 0.7798 l 2.6939,2.1091 0.6557,3.3141 2.6052,2.9065 2.3692,-0.01 c 3.4356,-0.8587 0.7856,0.093 9.9549,-3.8837 l 2.5454,1.6392 1.9629,-0.095 8.5467,4.0824 9.4126,-3.7093 28.4609,-17.9833 2.3979,2.3638 5.5946,-3.2844 c 1.2549,-2.3937 4.1191,-7.5033 5.1224,-11.2549 l -3.6686,-1.2761 -3.3607,2.2685 h -5.5362 v 4.3953 l -2.7575,1.2372 c -2.369,-0.914 -2.571,-1.7119 -2.9138,-3.6485 -1.2883,-0.2088 -1.8725,-0.1662 -2.9596,-1.6827 l -1.0457,-2.7116 0.6558,-2.0381 -1.0812,-0.6557 c 1.2155,-2.7725 -1.6342,-3.5422 -2.9419,-5.7245 3.6101,-2.961 7.8149,-5.1281 11.6084,-7.8512 L 92.2825,59.8637 C 82.9808,65.895 73.599,71.8002 64.3337,77.8878 56.3362,67.5593 51.5603,59.8084 45.1754,49.3187 L 41.4536,51.6049 28.2146,30.3376 35.0202,25.8183 24.3511,0.2975 Z"
     style="fill:#3F72AF"
     id="TX_31"
     inkscape:connector-curvature="0" />
</svg>
