<?xml version="1.0" encoding="UTF-8" standalone="no"?>
<svg
   xmlns:dc="http://purl.org/dc/elements/1.1/"
   xmlns:cc="http://creativecommons.org/ns#"
   xmlns:rdf="http://www.w3.org/1999/02/22-rdf-syntax-ns#"
   xmlns:svg="http://www.w3.org/2000/svg"
   xmlns="http://www.w3.org/2000/svg"
   xmlns:sodipodi="http://sodipodi.sourceforge.net/DTD/sodipodi-0.dtd"
   xmlns:inkscape="http://www.inkscape.org/namespaces/inkscape"
   version="1.0"
   width="123.067"
   height="77.608101"
   id="svg2"
   sodipodi:docname="TX_8.svg"
   inkscape:version="0.92.2 5c3e80d, 2017-08-06">
  <metadata
     id="metadata248">
    <rdf:RDF>
      <cc:Work
         rdf:about="">
        <dc:format>image/svg+xml</dc:format>
        <dc:type
           rdf:resource="http://purl.org/dc/dcmitype/StillImage" />
      </cc:Work>
    </rdf:RDF>
  </metadata>
  <defs
     id="defs246" />
  <sodipodi:namedview
     pagecolor="#ffffff"
     bordercolor="#666666"
     borderopacity="1"
     objecttolerance="10"
     gridtolerance="10"
     guidetolerance="10"
     inkscape:pageopacity="0"
     inkscape:pageshadow="2"
     inkscape:window-width="640"
     inkscape:window-height="480"
     id="namedview244"
     showgrid="false"
     inkscape:zoom="0.12542268"
     inkscape:cx="-85.576454"
     inkscape:cy="518.08097"
     inkscape:window-x="0"
     inkscape:window-y="0"
     inkscape:window-maximized="0"
     inkscape:current-layer="svg2" />
  <path
     d="M 121.6137,0 120.0541,1.2938 117.8033,0.6913 102.1895,2.8534 96.0043,4.6612 95.7916,5.7777 73.585,12.6719 53.2215,6.8233 41.7726,20.1509 l -1.9672,-2.4812 -5.565,1.914 -2.4634,-3.5623 -1.3469,2.1445 h -2.6762 l -5.7953,-4.6788 -8.631,7.7094 -0.9925,2.6407 H 5.565 L 5.2283,24.3689 C 5.0476,24.661 4.0967,25.299 3.1192,25.7867 2.1417,26.2743 1.0464,26.6728 0.6735,26.6728 H 0 c 1.8815,10.0438 3.0491,19.0763 4.3953,29.7743 l 0.9216,17.2974 7.2663,-1.3647 0.7444,-0.7266 c 0.4121,-0.4047 1.0495,-0.7443 1.4001,-0.7443 0.3505,0 1.319,-0.6633 2.1622,-1.471 l 1.5241,-1.471 2.4458,1.3115 1.0988,2.8888 3.9521,-0.7444 v 1.0634 l 2.1622,0.8684 c 1.1874,0.4752 2.496,1.26 2.9065,1.7546 l 0.7444,0.9038 h 2.304 l 8.3297,-8.6132 -4.413,-10.5451 8.117,-4.6611 c -0.438,2.3286 -1.9457,4.4855 -1.6128,6.9651 l 1.2052,5.6712 2.623,1.4002 3.1901,0.7798 0.7798,2.0026 c 0.3327,0.9458 1.0471,2.1724 1.595,2.7116 l 0.9925,0.9748 2.0027,0.089 4.7497,-3.6332 1.8786,2.3217 c 1.1656,-1.1459 1.9577,-2.6885 3.3496,-3.6863 h 2.4635 l 0.6734,1.3824 13.487,-0.195 2.8889,-1.2761 -0.018,-2.7293 4.3067,-1.3115 4.0053,0.4431 3.3851,3.4028 -0.6735,2.1267 2.4812,0.3899 0.957,2.6585 3.9699,1.5596 5.1574,0.7798 1.9317,2.5875 0.7976,-2.8888 1.3824,-1.4888 c 0.7564,-0.8123 1.655,-2.0172 2.0026,-2.6938 l 0.6203,-1.2406 -1.3292,-0.4431 0.3899,-0.8152 c 0.2101,-0.4492 0.6958,-1.2521 1.0811,-1.79 l 0.7089,-0.9748 -1.5419,-3.7217 0.2127,-5.9549 -1.4887,-0.035 -1.8078,-2.5167 0.514,-4.218 2.6407,-2.6407 -0.5317,-0.8153 c -0.2866,-0.453 -0.527,-1.3744 -0.5317,-2.038 v -1.2052 l -1.1519,-1.1697 0.1418,-3.2255 2.1444,-1.8787 v -2.9951 l 2.9243,-2.7116 0.319,-3.7572 2.5343,-4.4839 -0.7089,-4.4484 1.9141,-2.9065 -2.4458,-1.6305 v -2.6939 h 0.8153 c 0.4494,0 0.979,-0.2588 1.1697,-0.5671 l 0.3367,-0.5494 -1.8963,-4.0231 z"
     style="fill:#3F72AF"
     id="TX_8"
     inkscape:connector-curvature="0" />
</svg>
