<?xml version="1.0" encoding="UTF-8" standalone="no"?>
<svg
   xmlns:dc="http://purl.org/dc/elements/1.1/"
   xmlns:cc="http://creativecommons.org/ns#"
   xmlns:rdf="http://www.w3.org/1999/02/22-rdf-syntax-ns#"
   xmlns:svg="http://www.w3.org/2000/svg"
   xmlns="http://www.w3.org/2000/svg"
   xmlns:sodipodi="http://sodipodi.sourceforge.net/DTD/sodipodi-0.dtd"
   xmlns:inkscape="http://www.inkscape.org/namespaces/inkscape"
   version="1.0"
   width="266.72772"
   height="252.83305"
   id="svg2"
   sodipodi:docname="UT_2.svg"
   inkscape:version="0.92.2 5c3e80d, 2017-08-06">
  <metadata
     id="metadata16">
    <rdf:RDF>
      <cc:Work
         rdf:about="">
        <dc:format>image/svg+xml</dc:format>
        <dc:type
           rdf:resource="http://purl.org/dc/dcmitype/StillImage" />
      </cc:Work>
    </rdf:RDF>
  </metadata>
  <defs
     id="defs14" />
  <sodipodi:namedview
     pagecolor="#ffffff"
     bordercolor="#666666"
     borderopacity="1"
     objecttolerance="10"
     gridtolerance="10"
     guidetolerance="10"
     inkscape:pageopacity="0"
     inkscape:pageshadow="2"
     inkscape:window-width="640"
     inkscape:window-height="480"
     id="namedview12"
     showgrid="false"
     inkscape:zoom="0.12542268"
     inkscape:cx="823.14091"
     inkscape:cy="67.302231"
     inkscape:window-x="0"
     inkscape:window-y="0"
     inkscape:window-maximized="0"
     inkscape:current-layer="svg2" />
  <path
     d="m 144.51148,0 -11.18304,1.20515 1.66594,3.2433 -0.81525,3.27868 -2.03815,-0.44304 v 2.62297 l 1.2406,1.22284 -0.62027,1.16971 c -0.34085,0.63682 -0.52465,1.82655 -0.62033,2.64072 -0.43975,4.23259 -3.31413,12.33505 -3.31413,12.33505 l 0.63802,1.66594 2.23307,-0.58488 1.27604,1.36468 c 0.70381,0.75938 1.57775,1.38237 1.93176,1.38237 h 0.63802 v -3.82811 l 3.86356,-1.84317 2.21537,-0.0532 4.16483,1.43557 1.48871,4.90918 2.99518,0.0354 1.66594,2.35716 -0.79756,2.02039 1.2406,0.0709 c 0.87202,-0.0154 2.38653,0.12556 3.34963,0.31901 l 1.73683,0.35446 1.9672,3.29643 -0.69116,1.09882 1.75453,3.38502 v 3.33188 c -0.58982,1.44379 -1.26963,2.85895 -1.70139,4.3598 l 2.07359,0.30131 0.77981,1.55961 c 0.42835,0.85778 1.26804,2.12129 1.86086,2.8002 l 1.08112,1.24059 -0.76211,1.20515 h 1.77228 v 2.71156 l 10.20831,1.40012 v 6.18522 l -18.6266,-2.44574 -2.64072,21.35597 -2.55208,-0.26587 -7.42582,59.53082 -57.79398,-7.39043 v 2.72931 l 0.83297,0.69122 c 0.4331,0.35944 1.13034,1.31568 1.59505,2.19762 l 2.10901,0.0709 -0.0532,2.83564 h 1.09881 l 1.71911,3.43822 c -0.61891,1.47817 -1.15788,3.00283 -2.19762,4.23572 l -0.60258,0.35445 0.31901,3.01287 -1.52416,0.0177 -2.62297,3.29644 C 54.19891,158.96825 42.77761,157.24968 10.73997,152.85886 l -10.74,69.98719 c 91.05955,13.17231 148.87667,19.85274 243.22732,29.98693 C 254.9833,120.30181 257.52715,94.56977 266.72768,4.46606 253.13452,3.3567 239.43121,2.18802 223.6791,0.63794 l -1.25835,9.60574 -1.02792,1.02792 -5.60039,0.0709 -5.75988,-2.17988 -3.88131,0.56713 -1.13426,1.41782 c -2.85305,0.41826 -5.71388,0.83737 -8.59551,0.99248 -1.71563,0.0597 -2.71332,-0.31124 -3.68634,-0.833 l -2.33941,1.84317 -2.16218,-1.32918 -4.94468,1.71908 -2.97742,-1.13426 -0.67347,3.38508 h -1.86086 l -1.91406,4.41294 -4.16488,0.7798 -1.22284,-1.22284 h -2.14449 l -0.60257,2.26852 c -4.04221,-0.91121 -7.21972,-4.14141 -10.66911,-6.34476 l -0.63802,-0.21267 -0.17723,-3.08376 h -0.44304 c -0.24449,-2.9e-4 -1.1824,0.75411 -2.07359,1.66594 -0.89124,0.91171 -1.71556,1.97434 -1.84317,2.3571 l -0.23037,0.69121 -3.29643,-1.09881 -2.0027,-3.58 -0.0531,-6.27386 h -1.20515 l 0.12403,-1.84317 c 0.0669,-1.0138 -0.0719,-2.40252 -0.30126,-3.08376 z"
     style="fill:#3F72AF;fill-opacity:1"
     id="UT_2"
     inkscape:connector-curvature="0" />
</svg>
