<?xml version="1.0" encoding="UTF-8" standalone="no"?>
<svg
   xmlns:dc="http://purl.org/dc/elements/1.1/"
   xmlns:cc="http://creativecommons.org/ns#"
   xmlns:rdf="http://www.w3.org/1999/02/22-rdf-syntax-ns#"
   xmlns:svg="http://www.w3.org/2000/svg"
   xmlns="http://www.w3.org/2000/svg"
   xmlns:sodipodi="http://sodipodi.sourceforge.net/DTD/sodipodi-0.dtd"
   xmlns:inkscape="http://www.inkscape.org/namespaces/inkscape"
   version="1.0"
   width="70.891098"
   height="41.914322"
   id="svg2"
   sodipodi:docname="VA_3.svg"
   inkscape:version="0.92.2 5c3e80d, 2017-08-06">
  <metadata
     id="metadata40">
    <rdf:RDF>
      <cc:Work
         rdf:about="">
        <dc:format>image/svg+xml</dc:format>
        <dc:type
           rdf:resource="http://purl.org/dc/dcmitype/StillImage" />
      </cc:Work>
    </rdf:RDF>
  </metadata>
  <defs
     id="defs38" />
  <sodipodi:namedview
     pagecolor="#ffffff"
     bordercolor="#666666"
     borderopacity="1"
     objecttolerance="10"
     gridtolerance="10"
     guidetolerance="10"
     inkscape:pageopacity="0"
     inkscape:pageshadow="2"
     inkscape:window-width="640"
     inkscape:window-height="480"
     id="namedview36"
     showgrid="false"
     inkscape:zoom="0.12542268"
     inkscape:cx="-954.80755"
     inkscape:cy="-42.224499"
     inkscape:window-x="0"
     inkscape:window-y="0"
     inkscape:window-maximized="0"
     inkscape:current-layer="svg2" />
  <path
     d="M 15.8796,0 V 1.89631 L 11.059,7.31947 4.8206,5.65353 2.2685,6.29155 v 0.8507 C 2.2685,7.60531 1.7581,8.938 1.1343,10.10198 0.5104,11.26595 0,12.68911 0,13.27433 v 1.06336 l 4.0585,-0.76205 0.6026,2.32166 0.9393,-0.56713 1.0634,1.87861 4.2357,0.26587 0.8862,1.43552 2.4989,-3.33188 -0.6912,4.28891 1.4001,2.23307 -2.5167,2.69386 2.7825,2.60527 0.7089,3.27869 1.8964,0.92158 5.8662,0.19498 3.2078,1.32918 4.9624,0.12409 2.2508,6.06119 10.0842,-10.04884 v -7.03592 l -1.1342,-0.70891 v 2.94198 l -1.5951,0.62027 -3.3673,-1.75452 -0.3721,-0.93934 -1.1343,-0.54938 -3.7395,0.33671 -0.089,-0.72661 c -0.048,-0.39359 -0.1285,-0.96412 -0.1772,-1.27604 -0.049,-0.31192 -0.2756,-1.79025 -0.514,-3.29643 L 31.7766,14.62126 30.022,14.76304 28.9941,12.06918 29.3308,10.74 c 0.1795,-0.73534 0.6975,-1.79366 1.1697,-2.33941 L 31.3689,7.40812 H 34.754 L 36.2073,5.42317 35.6047,4.71425 C 35.2803,4.3235 34.7099,4.00534 34.3286,4.00534 c -0.3813,0 -1.1555,-0.51155 -1.7191,-1.13425 L 31.5816,1.73683 30.2346,2.87109 29.8625,2.48119 C 29.5332,1.68488 29.4126,0.91404 29.4903,0.03544 H 28.2851 L 28.9764,2.21532 28.4092,2.94198 27.5053,2.32165 C 27.3094,2.00463 26.9472,1.73683 26.6901,1.73683 c -0.2571,0 -0.6084,0.53219 -0.7798,1.1874 L 25.5913,4.12938 24.3861,3.36732 V 1.1697 h -1.0988 l 0.6558,1.70139 H 23.0038 C 22.4915,2.87109 21.4854,2.4826 20.753,2.00264 20.0204,1.52268 19.1978,1.19755 18.9275,1.27604 18.6573,1.35434 17.8571,1.0979 17.1552,0.70891 Z m 31.6883,18.75069 0.7444,1.1874 -1.1165,1.36468 0.5317,3.45591 3.3495,1.87862 c 0.6621,-0.29622 1.1759,-0.75729 1.666,-1.31149 v -2.83564 l -3.6332,-3.73948 z m 12.4414,6.80554 c -1.2195,0.86635 -1.9387,2.26047 -2.8356,3.43822 l 1.9672,2.99512 0.7444,-1.08106 c 0.3962,-0.57331 0.9416,-1.05565 1.2583,-1.43557 l -0.7975,-0.53168 0.5317,-0.77981 1.2937,-0.88613 -0.3899,-0.47849 c 0,-6e-5 -0.3328,0.30625 -0.6735,0.62027 -0.3595,-0.78916 -0.4955,-1.33882 -1.0988,-1.86087 z m 9.145,7.21314 -2.109,0.63802 c -1.1596,0.35344 -2.7471,0.70687 -3.5269,0.79756 l -1.4178,0.17723 0.2836,1.38237 h -1.2229 l 2.0736,3.47366 -0.3545,1.66595 1.276,1.01016 3.3319,-1.15195 0.053,-1.87861 1.7014,-0.0355 c 0.01,-1.34165 0.5065,-1.64127 1.6482,-1.98495 V 34.2049 Z"
     style="fill:#3F72AF;fill-opacity:1"
     id="VA_3"
     inkscape:connector-curvature="0" />
</svg>
