<?xml version="1.0" encoding="UTF-8" standalone="no"?>
<svg
   xmlns:dc="http://purl.org/dc/elements/1.1/"
   xmlns:cc="http://creativecommons.org/ns#"
   xmlns:rdf="http://www.w3.org/1999/02/22-rdf-syntax-ns#"
   xmlns:svg="http://www.w3.org/2000/svg"
   xmlns="http://www.w3.org/2000/svg"
   xmlns:sodipodi="http://sodipodi.sourceforge.net/DTD/sodipodi-0.dtd"
   xmlns:inkscape="http://www.inkscape.org/namespaces/inkscape"
   version="1.0"
   width="74.561897"
   height="136.4156"
   id="svg2"
   sodipodi:docname="VA_6.svg"
   inkscape:version="0.92.2 5c3e80d, 2017-08-06">
  <metadata
     id="metadata64">
    <rdf:RDF>
      <cc:Work
         rdf:about="">
        <dc:format>image/svg+xml</dc:format>
        <dc:type
           rdf:resource="http://purl.org/dc/dcmitype/StillImage" />
      </cc:Work>
    </rdf:RDF>
  </metadata>
  <defs
     id="defs62" />
  <sodipodi:namedview
     pagecolor="#ffffff"
     bordercolor="#666666"
     borderopacity="1"
     objecttolerance="10"
     gridtolerance="10"
     guidetolerance="10"
     inkscape:pageopacity="0"
     inkscape:pageshadow="2"
     inkscape:window-width="640"
     inkscape:window-height="480"
     id="namedview60"
     showgrid="false"
     inkscape:zoom="0.12542268"
     inkscape:cx="-821.45175"
     inkscape:cy="-23.014829"
     inkscape:window-x="0"
     inkscape:window-y="0"
     inkscape:window-maximized="0"
     inkscape:current-layer="svg2" />
  <path
     d="m 9.7371,135.92765 c -0.4087,-0.64029 -0.7648,-2.07076 -1.111,-3.64664 l 4.9233,-5.28655 2.9182,-0.73244 c 0.9607,-1.37869 2.0664,-2.78154 1.5648,-3.91654 l -6.3733,-1.66526 c 0.042,-0.95561 0.6725,-1.4202 1.4654,-1.74982 -0.2221,-1.39961 0.7379,-4.51865 1.8862,-7.91173 l -3.5876,-3.70147 0.01,-1.6474 c 3.658,-3.06318 6.3281,-6.64391 7.3403,-11.09292 l 7.365,0.75456 c 0.9951,-2.09384 1.4827,-4.41606 1.8529,-6.7912 l -1.7161,-0.65849 -1.9924,2.20159 -2.4068,-1.57701 -8.2462,0.59004 0.7288,5.83286 -2.3304,2.80077 -0.038,-1.98495 -1.7607,0.15363 -0.2516,2.23897 C 7.5204,99.4159 4.483,100.27992 1.3474,101.07379 L -1e-4,98.50464 0.8908,97.14478 c 0.4901,-0.74787 0.891,-1.71783 0.891,-2.15543 V 94.19372 L 4.9005,89.50743 8.0192,84.82113 8.62,82.48507 c 0.3304,-1.28483 0.833,-3.07526 1.1168,-3.97875 l 0.5162,-1.64275 -0.7731,-1.25091 0.3285,-3.13231 1.4229,-2.54584 c 0.7826,-1.40024 1.6154,-2.5459 1.8506,-2.5459 0.2352,0 0.7095,-0.61862 1.0539,-1.37477 l 0.6264,-1.37472 -1.6079,-1.33451 0.8238,-1.59307 c 0.4531,-0.87621 1.1059,-1.68715 1.4507,-1.80205 l 0.6268,-0.20899 0.2714,-1.96901 c 0.1494,-1.08293 0.2725,-2.79844 0.2736,-3.81218 0,-1.01375 0,-2.28979 0,-2.83565 -10e-5,-0.54586 -0.022,-2.11051 -0.048,-3.47695 l -0.048,-2.48453 4.8421,0.71997 5.1041,5.63243 9.1592,0.7481 2.5637,-4.34517 0.5712,-3.1466 c 0.3142,-1.73065 0.7877,-4.29509 1.0521,-5.69873 0.2645,-1.40365 0.4961,-2.87109 0.5147,-3.26099 l 0.034,-0.70891 h 1.8507 l -0.609,-4.54106 0.6324,-2.12469 c 0.3479,-1.16863 0.8476,-2.27572 1.1105,-2.46026 0.2629,-0.18455 0.4343,-0.56736 0.381,-0.85069 -0.053,-0.28334 -0.067,-0.98618 -0.03,-1.56182 l 0.067,-1.04658 6.3562,3.5872 1.3463,-0.51665 2.0354,-8.63357 1.0375,-1.66577 1.7737,0.68061 0.9564,-1.33905 c 0.5259,-0.73647 1.0943,-1.85468 1.2631,-2.48487 L 58.8237,10.95931 61.12,10.62425 62.484,6.8521 62.1295,5.92831 62.2165,5.00446 65.7868,4.96776 C 66.7586,4.08927 67.1567,3.01127 67.0008,1.74062 68.2799,0.28083 69.8575,0.05795 71.4749,5e-5 L 71.1257,1.70694 73.1039,3.828 72.4487,5.53528 73.46,6.27232 72.8868,7.19969 74.561,8.61955 73.8748,13.0887 68.5297,23.57496 66.2232,24.05045 c -1.3414,2.28326 -1.738,4.76898 -1.63,7.3628 l -1.5023,1.52172 -0.4428,6.36704 c 2.6009,0.47525 3.8663,1.26112 4.2387,2.25462 l 3.2609,0.0584 v 1.13426 h 2.9316 c -0.651,3.56604 -1.8078,2.71637 -1.8362,5.3876 -5.6039,7.03841 -3.5629,5.88737 -7.3382,9.17144 l -0.1259,7.00007 0.6157,1.7057 c -2.2767,2.10166 -3.8447,4.89624 -5.2053,7.60865 l 1.1226,1.08702 -3.4222,4.19981 -0.097,1.52308 c -1.2914,0.20315 -2.5322,-0.45381 -3.773,-1.11146 l -3.9716,2.72171 0.6555,4.65885 c 1.0563,0.31436 2.0358,0.73613 2.8338,1.41221 l 1.3884,-0.35622 2.0179,4.30105 3.6807,0.35514 c 2.3582,3.06419 4.7679,5.94821 7.3324,8.29051 l -0.82,2.21668 -1.9819,0.73222 0.2919,0.81077 -2.8335,4.14503 -1.4178,-0.48172 0.1081,3.67238 c -1.1102,0.24897 -3.0755,1.61178 -5.949,4.71318 l -2.7645,-0.55476 -2.4732,7.57621 -2.9559,-1.05151 -0.9452,-2.91311 3.07,-4.0041 -3.5059,-2.32205 c -1.0915,1.32214 -4.8539,2.64435 -8.4038,3.96649 v -0.40192 c -0.7064,-1.16692 -2.2672,-1.90663 -4.425,-2.34786 l -2.3806,4.03473 v 2.18208 c -2.1173,0.49477 -4.2141,1.03683 -5.6712,3.05495 v 3.84678 l 1.2631,2.36028 c -1.2153,0.70891 -2.3694,1.68471 -3.0225,4.84708 l -1.7015,1.62941 -2.6862,-1.68148 -3.3696,1.1747 -1.021,-1.02095 z"
     style="fill:#3F72AF;fill-opacity:1"
     id="VA_6"
     inkscape:connector-curvature="0" />
</svg>
