<?xml version="1.0" encoding="UTF-8" standalone="no"?>
<svg
   xmlns:dc="http://purl.org/dc/elements/1.1/"
   xmlns:cc="http://creativecommons.org/ns#"
   xmlns:rdf="http://www.w3.org/1999/02/22-rdf-syntax-ns#"
   xmlns:svg="http://www.w3.org/2000/svg"
   xmlns="http://www.w3.org/2000/svg"
   xmlns:sodipodi="http://sodipodi.sourceforge.net/DTD/sodipodi-0.dtd"
   xmlns:inkscape="http://www.inkscape.org/namespaces/inkscape"
   version="1.0"
   width="183.11279"
   height="115.40269"
   id="svg2"
   sodipodi:docname="VA_9.svg"
   inkscape:version="0.92.2 5c3e80d, 2017-08-06">
  <metadata
     id="metadata88">
    <rdf:RDF>
      <cc:Work
         rdf:about="">
        <dc:format>image/svg+xml</dc:format>
        <dc:type
           rdf:resource="http://purl.org/dc/dcmitype/StillImage" />
      </cc:Work>
    </rdf:RDF>
  </metadata>
  <defs
     id="defs86" />
  <sodipodi:namedview
     pagecolor="#ffffff"
     bordercolor="#666666"
     borderopacity="1"
     objecttolerance="10"
     gridtolerance="10"
     guidetolerance="10"
     inkscape:pageopacity="0"
     inkscape:pageshadow="2"
     inkscape:window-width="640"
     inkscape:window-height="480"
     id="namedview84"
     showgrid="false"
     inkscape:zoom="0.12542268"
     inkscape:cx="-669.82535"
     inkscape:cy="44.164291"
     inkscape:window-x="0"
     inkscape:window-y="0"
     inkscape:window-maximized="0"
     inkscape:current-layer="svg2" />
  <path
     d="m 0,115.40269 6.2384,-4.23191 5.0232,-0.97104 2.1269,-2.28292 4.4939,-2.25955 c 2.4718,-1.2427 4.8825,-2.2595 5.3573,-2.2595 h 0.8633 l 0.084,-0.70891 c 0.046,-0.3899 0.1216,-1.09173 0.1676,-1.55961 0.046,-0.46788 0.4009,-1.93532 0.7886,-3.26099 l 0.7049,-2.41029 h 2.8296 l 5.5929,-2.83412 1.3024,-2.43355 -0.557,-4.15297 0.7026,-0.961 c 0.3865,-0.5285 0.9451,-0.96094 1.2414,-0.96094 0.2964,0 1.3278,-0.77141 2.2921,-1.71426 l 1.7534,-1.7142 -0.5931,-4.42168 3.8346,-3.58941 c 2.1089,-1.97412 4.5005,-4.16794 5.3146,-4.87515 0.814,-0.70721 2.5716,-1.81799 3.9057,-2.46837 l 2.4258,-1.18252 1.5441,-2.0525 c 0.8493,-1.12881 4.1892,-5.50506 7.4221,-9.7249 3.2328,-4.21983 6.1039,-7.75752 6.3802,-7.86148 l 0.5023,-0.18908 v 0.42796 c 0,0.23541 -0.4138,0.88517 -0.9195,1.44396 l -0.9195,1.01602 0.6691,1.74363 h 2.1125 l 0.6188,1.27604 c 0.3404,0.70182 0.7595,1.93108 0.9313,2.73163 l 0.3123,1.4556 1.5749,0.81292 c 0.8663,0.44712 1.9084,1.25954 2.316,1.8054 l 0.7411,0.99247 h 4.9835 l 0.4535,0.71453 c 0.2494,0.39302 1.357,1.18785 2.4613,1.76632 l 2.0078,1.05174 6.1989,-1.28687 1.0704,-1.59278 c 0.5888,-0.87605 1.9187,-2.17392 2.9552,-2.88419 l 1.8847,-1.29141 0.3792,-1.2161 c 0.2086,-0.66887 0.6338,-1.37965 0.9451,-1.57956 l 0.5658,-0.36353 3.2813,1.92313 c 1.8046,1.0577 3.6404,1.92308 4.0794,1.92308 h 0.7982 l 2.5976,-2.76509 3.1954,-1.516 c 1.7573,-0.83385 3.74,-1.57701 4.4059,-1.65153 l 1.2107,-0.13549 5.2812,-4.88332 -2.1794,-2.3761 0.7311,-1.9879 4.0799,2.7723 1.3548,-0.91087 c 0.7453,-0.50094 3.0539,-2.52877 5.1305,-4.50629 l 3.7754,-3.59542 1.7709,0.67953 -0.2478,1.13222 1.8688,1.23316 8.056,-8.15242 v -1.69322 h -1.7014 v -1.4215 l 3.4028,-3.21165 v -2.17239 h -2.7957 l -1.2142,-2.26852 1.2616,-2.35715 -0.5766,-1.5025 0.8326,-3.29025 1.4275,2.61701 c 3.1081,-0.67238 6.2006,-1.58886 9.0418,-3.0296 l 0.187,-2.29199 1.1506,-0.0817 0.1646,2.45646 2.8901,-3.38916 -0.6442,-5.65864 7.9495,-0.58953 2.2472,1.57395 2.1075,-2.21821 1.3311,0.44077 c -0.3273,2.18293 -0.7812,4.34058 -1.7366,6.39789 l -7.3142,-0.70346 c -1.2882,3.28889 -2.2191,6.43696 -7.551,11.31881 l -0.014,1.64739 3.5745,3.78303 c -1.2661,3.87429 -1.9038,6.2209 -1.7779,7.75419 -0.8284,0.22792 -1.4483,0.72853 -1.4577,2.02742 l 6.229,1.65517 c 0.6752,0.7257 -0.5819,2.14698 -1.3984,3.40969 l -2.8313,0.84865 -5.1323,5.4264 c 0.3834,1.42758 0.6264,2.99552 1.3625,4.0704 l 3.694,-1.03813 0.7516,1.01272 -0.8933,1.42939 c 1.2558,3.44457 0.5632,6.0338 1.914,7.98154 l -1.3939,1.55059 0.6857,1.62499 -2.1923,2.60398 v 2.49258 l -1.902,1.72084 8.486,-0.0238 3.1333,3.5276 2.8895,-1.09859 2.9484,5.3905 3.7034,1.67723 c -0.097,1.91576 -0.6986,3.8292 -3.6041,6.18182 l 0.5625,0.91007 c -27.6051,5.06933 -55.6852,10.77193 -81.8,13.85404 l -0.8019,-1.29759 -13.2173,1.96272 -1.4512,1.97446 C 59.9054,104.7605 45.5564,107.70713 1e-4,115.40267 Z"
     style="fill:#3F72AF;fill-opacity:1"
     id="VA_9"
     inkscape:connector-curvature="0" />
</svg>
