<?xml version="1.0" encoding="UTF-8" standalone="no"?>
<svg
   xmlns:dc="http://purl.org/dc/elements/1.1/"
   xmlns:cc="http://creativecommons.org/ns#"
   xmlns:rdf="http://www.w3.org/1999/02/22-rdf-syntax-ns#"
   xmlns:svg="http://www.w3.org/2000/svg"
   xmlns="http://www.w3.org/2000/svg"
   xmlns:sodipodi="http://sodipodi.sourceforge.net/DTD/sodipodi-0.dtd"
   xmlns:inkscape="http://www.inkscape.org/namespaces/inkscape"
   version="1.0"
   width="48.40089"
   height="21.23188"
   id="svg2"
   sodipodi:docname="WA_1.svg"
   inkscape:version="0.92.2 5c3e80d, 2017-08-06">
  <metadata
     id="metadata8">
    <rdf:RDF>
      <cc:Work
         rdf:about="">
        <dc:format>image/svg+xml</dc:format>
        <dc:type
           rdf:resource="http://purl.org/dc/dcmitype/StillImage" />
      </cc:Work>
    </rdf:RDF>
  </metadata>
  <defs
     id="defs6" />
  <sodipodi:namedview
     pagecolor="#ffffff"
     bordercolor="#666666"
     borderopacity="1"
     objecttolerance="10"
     gridtolerance="10"
     guidetolerance="10"
     inkscape:pageopacity="0"
     inkscape:pageshadow="2"
     inkscape:window-width="640"
     inkscape:window-height="480"
     id="namedview4"
     showgrid="false"
     inkscape:zoom="0.12542268"
     inkscape:cx="1099.8288"
     inkscape:cy="-682.42418"
     inkscape:window-x="0"
     inkscape:window-y="0"
     inkscape:window-maximized="0"
     inkscape:current-layer="svg2" />
  <path
     d="m 24.31564,0 v 3.615445 l -4.82059,2.215347 -3.9699,4.023069 -1.0745,-0.136213 -1.12299,3.112623 -3.72192,-0.211658 -2.55208,1.417822 C 5.65671,14.817224 3.51001,16.308279 2.26852,17.350593 L 0,19.24693 6.25614,20.664752 7.46129,20.009009 C 8.1263,19.653096 9.10341,18.843548 9.62347,18.201286 l 0.9393,-1.169703 4.30664,1.311486 1.29376,-1.754555 2.76475,0.389901 c 1.00253,1.456891 1.7818,3.172887 3.20782,4.253465 h 0.47852 l 0.0709,-0.992475 c 0.0402,-0.545861 0.14373,-1.630501 0.2304,-2.410297 0.0867,-0.779802 0.34565,-1.992045 0.56712,-2.693861 l 0.38991,-1.27604 h -1.25832 c -0.0165,-1.148362 -0.0624,-2.317838 0.24812,-3.402772 L 26.15882,11.626138 25.50308,8.329702 26.22971,7.603069 25.94615,1.66594 Z M 35.5696,2.800198 34.75436,3.899009 c -0.44276,0.605478 -0.80031,1.371108 -0.79753,1.701387 0.003,0.330284 -0.79797,1.275875 -1.79,2.091287 l -1.80772,1.47099 -0.15951,2.073564 -0.1595,2.055842 h 0.35446 c 0.19622,0 0.79613,-0.405424 1.34693,-0.903862 l 1.01019,-0.903861 0.53169,0.31901 c 0.29411,0.181776 0.96802,1.633665 1.48871,3.225544 l 0.93931,2.906535 -1.72848,1.79 3.3058,-0.762079 0.35446,0.567128 c 0.1935,0.313067 0.67256,0.567123 1.06337,0.567129 h 0.70891 l 2.51663,-3.402772 h 0.65574 c 0.36047,0 1.24527,-0.562382 1.96723,-1.240594 l 1.31149,-1.222872 V 12.299603 L 48.40089,10.61594 47.01852,8.949999 43.7398,9.428514 39.58887,3.978254 38.87154,5.63913 Z"
     style="fill:#3F72AF;fill-opacity:1"
     id="WA_1"
     inkscape:connector-curvature="0" />
</svg>
