<?xml version="1.0" encoding="UTF-8" standalone="no"?>
<svg
   xmlns:dc="http://purl.org/dc/elements/1.1/"
   xmlns:cc="http://creativecommons.org/ns#"
   xmlns:rdf="http://www.w3.org/1999/02/22-rdf-syntax-ns#"
   xmlns:svg="http://www.w3.org/2000/svg"
   xmlns="http://www.w3.org/2000/svg"
   xmlns:sodipodi="http://sodipodi.sourceforge.net/DTD/sodipodi-0.dtd"
   xmlns:inkscape="http://www.inkscape.org/namespaces/inkscape"
   version="1.0"
   width="119.13247"
   height="104.61753"
   id="svg2"
   sodipodi:docname="WA_3.svg"
   inkscape:version="0.92.2 5c3e80d, 2017-08-06">
  <metadata
     id="metadata24">
    <rdf:RDF>
      <cc:Work
         rdf:about="">
        <dc:format>image/svg+xml</dc:format>
        <dc:type
           rdf:resource="http://purl.org/dc/dcmitype/StillImage" />
      </cc:Work>
    </rdf:RDF>
  </metadata>
  <defs
     id="defs22" />
  <sodipodi:namedview
     pagecolor="#ffffff"
     bordercolor="#666666"
     borderopacity="1"
     objecttolerance="10"
     gridtolerance="10"
     guidetolerance="10"
     inkscape:pageopacity="0"
     inkscape:pageshadow="2"
     inkscape:window-width="640"
     inkscape:window-height="480"
     id="namedview20"
     showgrid="false"
     inkscape:zoom="0.12542268"
     inkscape:cx="1161.5572"
     inkscape:cy="-558.18755"
     inkscape:window-x="0"
     inkscape:window-y="0"
     inkscape:window-maximized="0"
     inkscape:current-layer="svg2" />
  <path
     d="M 60.93089,0 56.87237,1.64822 56.83697,3.0306 53.85954,2.92426 53.18608,4.74971 49.32251,3.34961 48.01103,3.93446 47.40845,7.69169 48.73766,9.28674 45.79568,21.26733 7.07142,11.57297 6.6638,12.84901 l 0.0177,1.27604 2.83565,3.40278 1.18742,-2.03812 1.61277,1.32921 1.80773,-1.50644 2.12673,2.78247 -0.33673,1.11654 -3.59773,1.02792 v 1.47099 l -2.35712,0.74436 0.28356,1.22287 c 0.16106,0.67241 0.46392,2.175 0.67346,3.33188 L 11.30715,29.1008 8.06388,31.98961 6.1321,31.54654 5.72447,32.75169 4.37754,31.91872 v -1.08109 c 0,-0.59912 0.39858,-2.09566 0.88614,-3.31416 L 6.14982,25.30812 5.79536,20.36347 4.48388,26.79684 3.19012,33.21248 2e-5,42.19792 h 0.42534 c 0.23383,0 0.58253,-0.3828 0.76208,-0.85069 l 0.31901,-0.85069 h 2.25079 l 1.09882,2.48119 c 0.60308,1.36339 1.37531,2.6586 1.71911,2.87109 l 0.62029,0.37217 4.05852,-1.91406 1.20515,1.20515 2.88881,-1.09881 1.63049,0.63802 -0.67346,1.75456 3.91673,1.63049 h 4.55475 l 1.84317,2.83564 -0.65574,3.68634 0.74435,0.97475 c 0.40493,0.5336 1.45458,1.24093 2.33941,1.57733 l 1.61277,0.6203 3.38505,-1.18743 h 4.23574 l 8.52466,10.36782 1.20515,7.49673 -0.88614,14.17822 -1.57733,3.66862 3.3496,3.5091 2.83565,1.41783 c 1.5596,0.78249 3.72136,2.10151 4.80287,2.92425 l 1.96723,1.48872 3.15465,-0.33674 0.3899,1.04565 c 0.21046,0.56944 0.65776,1.22743 0.99248,1.47099 l 0.60257,0.44307 1.98495,-0.31901 c 1.09172,-0.17472 3.00578,-0.38729 4.25347,-0.47852 1.24768,-0.0912 3.28934,-0.35946 4.53703,-0.58485 1.24768,-0.22539 3.28934,-0.71299 4.53703,-1.08109 l 2.26851,-0.65574 2.19762,-2.0204 h 2.62297 v -3.7395 l 6.34476,-0.49624 4.7497,-4.76742 2.23307,-9.14496 3.63317,0.63802 4.83831,-20.50524 5.08644,1.13426 0.74436,-1.20515 -1.38238,-6.62832 c 1.51101,-1.48377 2.88424,-3.4268 4.39525,-6.3802 l -0.67347,-2.62297 3.11921,-2.46346 -2.46347,-1.73684 -0.14178,-2.92425 -13.48703,-2.87109 -2.28623,2.46346 h -0.97476 c -0.53367,-10e-4 -1.76756,-0.47689 -2.7293,-1.06336 -0.96174,-0.58648 -2.62059,-1.24799 -3.68634,-1.47099 l -7.60307,-2.16218 c -1.75589,-1.60343 -3.28215,-2.70167 -5.40545,-3.84584 l 0.56713,-1.06337 0.56713,-1.06336 c -3.50243,-1.86299 -7.00487,-3.68006 -9.81841,-6.41565 l -4.39525,0.31901 -2.67614,-3.3496 1.77228,-3.8104 L 62.82724,12.58317 62.11833,10.3501 63.07536,9.69436 60.52328,8.09931 C 60.74225,6.00018 61.14013,4.31602 61.99427,2.39258 L 61.09041,1.93179 Z"
     style="fill:#3F72AF;fill-opacity:1"
     id="WA_3"
     inkscape:connector-curvature="0" />
</svg>
