<?xml version="1.0" encoding="UTF-8" standalone="no"?>
<svg
   xmlns:dc="http://purl.org/dc/elements/1.1/"
   xmlns:cc="http://creativecommons.org/ns#"
   xmlns:rdf="http://www.w3.org/1999/02/22-rdf-syntax-ns#"
   xmlns:svg="http://www.w3.org/2000/svg"
   xmlns="http://www.w3.org/2000/svg"
   xmlns:sodipodi="http://sodipodi.sourceforge.net/DTD/sodipodi-0.dtd"
   xmlns:inkscape="http://www.inkscape.org/namespaces/inkscape"
   version="1.0"
   width="164.04759"
   height="174.8082"
   id="svg2"
   sodipodi:docname="WA_4.svg"
   inkscape:version="0.92.2 5c3e80d, 2017-08-06">
  <metadata
     id="metadata32">
    <rdf:RDF>
      <cc:Work
         rdf:about="">
        <dc:format>image/svg+xml</dc:format>
        <dc:type
           rdf:resource="http://purl.org/dc/dcmitype/StillImage" />
      </cc:Work>
    </rdf:RDF>
  </metadata>
  <defs
     id="defs30" />
  <sodipodi:namedview
     pagecolor="#ffffff"
     bordercolor="#666666"
     borderopacity="1"
     objecttolerance="10"
     gridtolerance="10"
     guidetolerance="10"
     inkscape:pageopacity="0"
     inkscape:pageshadow="2"
     inkscape:window-width="640"
     inkscape:window-height="480"
     id="namedview28"
     showgrid="false"
     inkscape:zoom="0.12542268"
     inkscape:cx="1074.9461"
     inkscape:cy="-549.39247"
     inkscape:window-x="0"
     inkscape:window-y="0"
     inkscape:window-maximized="0"
     inkscape:current-layer="svg2" />
  <path
     d="m 56.42931,174.40705 -4.23759,-4.58406 c -5.35417,1.06973 -11.31096,2.27851 -14.8109,3.62638 l -1.44283,-1.19745 -6.31737,-0.74248 -3.58068,2.11517 -1.06036,-1.69071 0.66937,-1.96522 -5.72379,-4.55676 h -3.9585 l -3.36999,-2.83565 H 3.34646 L 0,160.84576 l 0.0464,-3.15678 5.90849,-0.45237 5.12895,-5.15222 2.04614,-8.74494 3.70487,0.79764 4.9498,-20.54831 4.58688,0.98599 1.27326,-1.71657 -1.39695,-6.69427 c 1.99745,-2.01542 3.14267,-3.83418 4.41901,-6.43962 l -0.75451,-2.37713 3.26473,-2.64384 -2.5244,-1.95915 -1.83886,-9.838827 3.51257,-1.81643 v -1.62872 l 5.17408,-5.32377 -0.42621,-4.33189 3.97945,0.2545 0.95238,-4.5241 -1.9625,-1.435 1.35686,-1.35686 v -2.10067 l -3.31646,-1.15612 0.3421,-5.11698 4.33881,-4.44334 h 2.06392 c 0.97938,-2.03686 2.89029,-2.22324 5.15366,-4.37339 2.04163,-0.14404 3.7182,-0.93009 5.59619,-1.82943 v -4.46167 l 3.26972,-1.13984 -0.90786,-4.925969 1.79457,-1.996838 -2.51665,-2.540192 -0.0808,-5.300697 3.24291,-3.684754 -0.32655,-2.492258 c 1.82296,-0.915012 3.93075,-0.904299 5.78931,-0.715558 l 3.43839,-1.778056 -0.6374,-1.66103 2.92079,-1.354711 C 70.22823,18.140777 68.92696,15.962957 68.62264,11.684442 L 66.87231,11.012769 68.64997,9.048433 67.91792,7.140766 69.71918,5.150427 69.47333,1.79529 73.44323,1.448243 74.57749,0.093904 79.34403,4e-6 79.68165,2.362423 86.22509,2.26127 85.84134,3.959546 c -0.11257,0.993105 -0.37158,2.188459 -0.57552,2.65634 -0.20394,0.467882 -0.30506,1.358892 -0.22475,1.980028 0.0803,0.621137 0.62991,1.808965 1.22137,2.639627 l 1.46915,1.858231 -1.42059,1.994983 c 3.45127,3.263644 5.68564,5.918827 8.20633,9.182472 l -1.35716,2.96361 7.5438,8.415067 0.32212,1.050356 1.83902,1.922215 0.35791,3.022042 7.28406,1.834735 1.68488,-3.37745 -0.5622,-2.149883 c 2.51355,-1.21826 3.70378,-1.667001 4.17734,-0.96633 l 1.6984,-1.28795 c 1.04452,2.254411 2.6259,1.394955 2.9188,2.68299 l -1.39702,3.158271 2.3609,2.136544 6.49941,-4.018084 2.85501,0.671566 -0.16807,1.950605 4.1186,0.563777 0.0136,-2.478273 1.61806,-1.292628 1.68689,1.257369 5.51406,-1.644225 c 0.70176,0.568087 1.51616,0.528592 2.37232,0.613078 l 1.58835,2.434349 -0.66411,2.646058 c 1.98373,2.408471 2.78633,3.170541 2.62256,4.541051 l -1.64284,1.35649 -13.08121,63.685423 -7.52675,-1.16746 0.0651,4.853 -1.51775,2.33715 2.05338,4.44746 35.40377,6.93989 0.84904,2.96131 -1.32158,2.15501 1.09507,2.04607 -0.76747,1.52151 -4.815,-2.05268 -2.8319,1.2903 -2.84909,-1.67094 -7.40266,4.17504 -1.87783,4.2097 -3.32655,4.05003 -2.37551,-0.42693 -1.66886,3.87176 h -2.7702 l -1.304,1.57122 -7.07781,0.46839 -1.7534,1.75337 2.20268,3.86326 0.71004,4.80521 -4.06121,4.4953 -5.73542,2.05184 -4.26317,-1.67024 -11.25512,-0.32449 -2.20177,-1.66531 -2.9215,-0.0361 -2.62768,2.79705 -13.66916,-0.40821 c -3.01626,0.99058 -5.38354,1.84209 -9.04877,1.58106 l -2.06781,2.02361 z"
     style="fill:#3F72AF;fill-opacity:1"
     id="WA_4"
     inkscape:connector-curvature="0" />
</svg>
