<?xml version="1.0" encoding="UTF-8" standalone="no"?>
<svg
   xmlns:dc="http://purl.org/dc/elements/1.1/"
   xmlns:cc="http://creativecommons.org/ns#"
   xmlns:rdf="http://www.w3.org/1999/02/22-rdf-syntax-ns#"
   xmlns:svg="http://www.w3.org/2000/svg"
   xmlns="http://www.w3.org/2000/svg"
   xmlns:sodipodi="http://sodipodi.sourceforge.net/DTD/sodipodi-0.dtd"
   xmlns:inkscape="http://www.inkscape.org/namespaces/inkscape"
   version="1.0"
   width="56.184681"
   height="63.943501"
   id="svg2"
   sodipodi:docname="WA_8.svg"
   inkscape:version="0.92.2 5c3e80d, 2017-08-06">
  <metadata
     id="metadata64">
    <rdf:RDF>
      <cc:Work
         rdf:about="">
        <dc:format>image/svg+xml</dc:format>
        <dc:type
           rdf:resource="http://purl.org/dc/dcmitype/StillImage" />
      </cc:Work>
    </rdf:RDF>
  </metadata>
  <defs
     id="defs62" />
  <sodipodi:namedview
     pagecolor="#ffffff"
     bordercolor="#666666"
     borderopacity="1"
     objecttolerance="10"
     gridtolerance="10"
     guidetolerance="10"
     inkscape:pageopacity="0"
     inkscape:pageshadow="2"
     inkscape:window-width="640"
     inkscape:window-height="480"
     id="namedview60"
     showgrid="false"
     inkscape:zoom="0.12542268"
     inkscape:cx="1081.8349"
     inkscape:cy="-624.82988"
     inkscape:window-x="0"
     inkscape:window-y="0"
     inkscape:window-maximized="0"
     inkscape:current-layer="svg2" />
  <path
     d="m 36.29941,63.460352 -0.20343,0.48315 -12.75864,-2.78084 -2.62694,2.46791 -0.81411,-0.002 c -0.4478,-10e-4 -1.60106,-0.48196 -2.5628,-1.06843 -0.96173,-0.58648 -2.62059,-1.24879 -3.68633,-1.4718 -1.06575,-0.22301 -3.21375,-0.80041 -4.77336,-1.28311 L 6.03816,58.927612 4.9039,57.947252 C 4.28006,57.408042 3.1922,56.669072 2.4864,56.305072 L 1.20316,55.643262 2.35579,53.489482 0,51.839412 l 1.2119,-0.74899 -0.046,-1.81145 c -0.0253,-0.9963 0.18817,-2.84824 0.47435,-4.11541 l 0.52039,-2.30396 2.61316,-3.5345 -0.66235,-2.53284 1.11594,-2.08514 h 2.40508 l 3.6767,-2.80435 0.52782,-4.85188 3.62254,-8.49751 1.63764,-0.91648 v -1.46922 l -2.26851,-2.05299 V 5.8505 C 16.24648,4.960647 17.6643,4.788359 19.08212,4.855263 l 2.04586,1.211863 3.0583,-3.696561 0.621,0.0051 2.77548,-2.37556 c 5.55044,0.928191 11.12225,2.033598 16.51121,3.667621 0.11411,0.114135 -0.18159,2.104331 -0.65713,4.422657 -0.47554,2.318334 -1.26436,5.280164 -1.75288,6.581854 l -1.16083,3.8121 2.98333,-0.94648 2.83578,2.7653 0.14838,2.49425 h 2.97809 l 4.57735,-2.33521 2.13862,-0.26227 -1.68032,1.31488 c -0.79262,0.32852 -1.7809,1.00671 -2.19615,1.50708 l -0.75508,0.90978 h -1.89347 l -4.91151,5.00445 -0.35627,5.32976 3.33024,1.25704 v 0.89649 c 0,0.49307 -0.31901,1.21992 -0.70891,1.61523 l -0.70891,0.71873 1.94417,1.43671 -0.648,3.99324 -4.13182,-0.11858 0.29304,4.7216 -5.11363,5.11361 v 1.71449 l -1.08305,0.34375 c -0.59565,0.18905 -1.394,0.7184 -1.77403,1.17631 l -0.69093,0.83257 0.70136,2.50513 c 0.38577,1.37781 0.6099,2.72253 0.498,2.98826 z"
     style="fill:#3F72AF;fill-opacity:1"
     id="WA_8"
     inkscape:connector-curvature="0" />
</svg>
