<?xml version="1.0" encoding="UTF-8" standalone="no"?>
<svg
   xmlns:dc="http://purl.org/dc/elements/1.1/"
   xmlns:cc="http://creativecommons.org/ns#"
   xmlns:rdf="http://www.w3.org/1999/02/22-rdf-syntax-ns#"
   xmlns:svg="http://www.w3.org/2000/svg"
   xmlns="http://www.w3.org/2000/svg"
   xmlns:sodipodi="http://sodipodi.sourceforge.net/DTD/sodipodi-0.dtd"
   xmlns:inkscape="http://www.inkscape.org/namespaces/inkscape"
   version="1.0"
   width="146.71271"
   height="162.25198"
   id="svg2"
   sodipodi:docname="WI_3.svg"
   inkscape:version="0.92.2 5c3e80d, 2017-08-06">
  <metadata
     id="metadata24">
    <rdf:RDF>
      <cc:Work
         rdf:about="">
        <dc:format>image/svg+xml</dc:format>
        <dc:type
           rdf:resource="http://purl.org/dc/dcmitype/StillImage" />
      </cc:Work>
    </rdf:RDF>
  </metadata>
  <defs
     id="defs22" />
  <sodipodi:namedview
     pagecolor="#ffffff"
     bordercolor="#666666"
     borderopacity="1"
     objecttolerance="10"
     gridtolerance="10"
     guidetolerance="10"
     inkscape:pageopacity="0"
     inkscape:pageshadow="2"
     inkscape:window-width="640"
     inkscape:window-height="480"
     id="namedview20"
     showgrid="false"
     inkscape:zoom="0.12542268"
     inkscape:cx="-181.19085"
     inkscape:cy="-276.92716"
     inkscape:window-x="0"
     inkscape:window-y="0"
     inkscape:window-maximized="0"
     inkscape:current-layer="svg2" />
  <path
     d="M 47.8161,0 C 32.4497,1.20983 17.7533,2.53919 1.7191,3.61545 l 0.049,3.1962 1.1742,2.7232 -2.942,3.49139 2.2685,1.22287 0.319,13.87693 -0.9215,4.07624 3.385,1.4001 1.3292,1.43554 c 0.7327,0.78782 1.9034,1.66069 2.6052,1.93178 l 1.2761,0.47852 v 2.30396 h 1.8963 l 2.1445,1.9495 9.2867,0.60258 2.2685,4.39524 3.9345,2.69387 h 2.6761 l 7.5676,2.97742 3.1724,2.9597 -0.4962,1.93179 1.4178,0.5494 0.7089,3.52683 3.1369,2.95971 4.8915,2.19762 0.6203,1.61277 h 1.5242 l 0.443,0.74436 c 0.2495,0.40555 1.267,1.29877 2.2509,1.98495 l 1.7899,1.24059 6.6283,1.16971 6.2385,7.56762 3.2397,5.35608 -0.1382,9.81461 2.2153,2.81792 -0.6203,1.64822 1.9318,4.05852 -0.638,2.41029 1.8077,1.98495 -0.4963,3.31416 4.8608,1.83011 2.6619,4.1785 -1.1956,2.2502 c -0.7293,1.07455 -1.5115,2.56246 -1.7368,3.29644 -0.2254,0.73399 -0.6726,1.67031 -1.0103,2.09129 l -0.6202,0.76208 0.3367,4.69653 2.1622,5.68901 v 2.99515 l 1.9849,0.51396 3.1724,9.00317 4.7674,2.90653 11.0945,1.98495 c 1.6863,2.50791 3.4303,5.25947 4.8029,7.83347 l 34.8606,-3.50911 -4.5192,-43.27901 5.4267,-4.22514 -0.9606,-2.34654 -5.5507,-0.75852 0.8401,-5.2706 -1.0988,-1.38238 -1.0511,-13.03345 2.423,-0.27541 -3.3224,-4.62199 0.019,-1.74024 c -2.6943,-2.33671 -5.3674,-4.7369 -7.5539,-8.59682 l 1.4284,-2.64203 c -0.471,-1.18698 -1.262,-2.32063 -2.1176,-3.44353 l -2.873,-4.67216 c 1.3833,-3.27567 3.1874,-5.22896 5.0155,-7.10683 l -0.3302,-3.6732 -18.1546,2.0427 -0.195,-0.31901 c -1.6556,-12.44189 -1.8425,-25.11395 -3.8722,-37.51133 l -20.2053,1.7645 c -0.3905,-1.68454 -2.1709,-3.25324 -3.9521,-4.82189 l -2.2409,0.26714 0.1772,5.35228 -32.0782,3.26099 C 50.1877,13.85653 49.7193,3.87386 47.8164,0 Z"
     style="fill:#3F72AF;fill-opacity:1"
     id="WI_3"
     inkscape:connector-curvature="0" />
</svg>
