<?xml version="1.0" encoding="UTF-8" standalone="no"?>
<svg
   xmlns:dc="http://purl.org/dc/elements/1.1/"
   xmlns:cc="http://creativecommons.org/ns#"
   xmlns:rdf="http://www.w3.org/1999/02/22-rdf-syntax-ns#"
   xmlns:svg="http://www.w3.org/2000/svg"
   xmlns="http://www.w3.org/2000/svg"
   xmlns:sodipodi="http://sodipodi.sourceforge.net/DTD/sodipodi-0.dtd"
   xmlns:inkscape="http://www.inkscape.org/namespaces/inkscape"
   version="1.0"
   width="40.987999"
   height="47.542511"
   id="svg2"
   sodipodi:docname="WI_5.svg"
   inkscape:version="0.92.2 5c3e80d, 2017-08-06">
  <metadata
     id="metadata40">
    <rdf:RDF>
      <cc:Work
         rdf:about="">
        <dc:format>image/svg+xml</dc:format>
        <dc:type
           rdf:resource="http://purl.org/dc/dcmitype/StillImage" />
      </cc:Work>
    </rdf:RDF>
  </metadata>
  <defs
     id="defs38" />
  <sodipodi:namedview
     pagecolor="#ffffff"
     bordercolor="#666666"
     borderopacity="1"
     objecttolerance="10"
     gridtolerance="10"
     guidetolerance="10"
     inkscape:pageopacity="0"
     inkscape:pageshadow="2"
     inkscape:window-width="640"
     inkscape:window-height="480"
     id="namedview36"
     showgrid="false"
     inkscape:zoom="0.12542268"
     inkscape:cx="-370.66495"
     inkscape:cy="-307.26251"
     inkscape:window-x="0"
     inkscape:window-y="0"
     inkscape:window-maximized="0"
     inkscape:current-layer="svg2" />
  <path
     d="M 7.4168,47.54251 7.0891,39.59804 1.1343,38.58782 V 33.71013 L 0.5672,33.35963 C 0.2552,33.16685 0,32.80366 0,32.55255 v -0.45657 l 5.3228,-0.72957 1.1425,1.14252 2.3252,-0.0196 2.6963,-2.84215 -0.5897,-3.85532 5.2651,-1.0195 L 14.361,3.17741 40.2726,-9.9999999e-6 40.6303,0.35767 c 0.1967,0.19672 0.3577,1.32819 0.3577,2.51438 v 2.1567 l -2.2697,4.51146 -0.7757,9.87454 1.7027,3.29279 -0.1873,4.69722 h -0.4466 c -0.2456,0 -0.9794,-0.53278 -1.6305,-1.18396 -0.6513,-0.65118 -1.5479,-2.05483 -1.9927,-3.11921 -0.4446,-1.06438 -0.9495,-1.93524 -1.1218,-1.93524 l -2.5072,1.17417 v 2.90787 l 1.8493,3.89698 2.1206,1.13495 v 2.07132 l -2.6386,1.60688 -0.8871,3.65456 H 28.98 l -0.929,1.65994 -15.978,2.09817 0.5362,5.75835 z"
     style="fill:#3F72AF;fill-opacity:1"
     id="WI_5"
     inkscape:connector-curvature="0" />
</svg>
