<?xml version="1.0" encoding="UTF-8" standalone="no"?>
<svg
   xmlns:dc="http://purl.org/dc/elements/1.1/"
   xmlns:cc="http://creativecommons.org/ns#"
   xmlns:rdf="http://www.w3.org/1999/02/22-rdf-syntax-ns#"
   xmlns:svg="http://www.w3.org/2000/svg"
   xmlns="http://www.w3.org/2000/svg"
   xmlns:sodipodi="http://sodipodi.sourceforge.net/DTD/sodipodi-0.dtd"
   xmlns:inkscape="http://www.inkscape.org/namespaces/inkscape"
   version="1.0"
   width="168.27769"
   height="173.96674"
   id="svg2"
   sodipodi:docname="WI_7.svg"
   inkscape:version="0.92.2 5c3e80d, 2017-08-06">
  <metadata
     id="metadata56">
    <rdf:RDF>
      <cc:Work
         rdf:about="">
        <dc:format>image/svg+xml</dc:format>
        <dc:type
           rdf:resource="http://purl.org/dc/dcmitype/StillImage" />
      </cc:Work>
    </rdf:RDF>
  </metadata>
  <defs
     id="defs54" />
  <sodipodi:namedview
     pagecolor="#ffffff"
     bordercolor="#666666"
     borderopacity="1"
     objecttolerance="10"
     gridtolerance="10"
     guidetolerance="10"
     inkscape:pageopacity="0"
     inkscape:pageshadow="2"
     inkscape:window-width="640"
     inkscape:window-height="480"
     id="namedview52"
     showgrid="false"
     inkscape:zoom="0.12542268"
     inkscape:cx="-175.51955"
     inkscape:cy="-386.02855"
     inkscape:window-x="0"
     inkscape:window-y="0"
     inkscape:window-maximized="0"
     inkscape:current-layer="svg2" />
  <path
     d="m 98.7159,0 -1.5419,0.17723 -1.5596,0.17723 -0.1773,2.4103 -0.1772,2.41029 h 1.1875 1.1873 l 0.2127,-0.70891 c 0.1192,-0.38989 0.3702,-1.55342 0.5495,-2.58752 z m -5.5118,6.78783 -2.304,1.1697 C 89.6365,8.60219 88.4286,9.39849 88.224,9.72981 l -0.3722,0.60257 0.6912,1.77228 0.9747,-0.42535 c 0.5433,-0.22843 1.5329,-0.52833 2.1976,-0.67346 L 92.9205,10.74 94.4092,7.99297 Z m -14.2846,2.32168 -2.3748,2.37485 -1.8609,-0.35445 -1.2229,1.22287 c -0.672,0.67196 -1.3682,1.62771 -1.5596,2.12673 l -0.3545,0.90386 h -1.6127 l -0.6558,1.70139 h -1.0456 c -0.5713,0 -1.2986,0.2706 -1.6305,0.60257 l -0.6026,0.60258 -1.7546,-1.73684 -0.6557,1.71911 -3.9167,1.6305 -0.9216,1.5596 -3.6863,1.79 c -2.0229,0.98028 -4.1019,1.77228 -4.6257,1.77228 h -0.957 l -10.0134,5.12188 -3.4028,0.0886 c -1.8715,0.0539 -4.0051,-0.063 -4.7497,-0.26584 -0.7445,-0.20283 -1.794,-0.76302 -2.3216,-1.24059 l -0.957,-0.86842 h -1.8964 v 1.70139 h -1.7723 l 0.7267,1.1697 -1.5065,3.36733 h -3.1192 l 2.6762,34.87841 -1.6128,1.31149 -0.8862,3.22554 -3.4736,-0.26584 -1.2229,3.52683 -2.9952,-0.58485 -0.5316,2.05584 -1.7191,0.70891 C 9.757,79.34741 8.2429,80.30182 7.3373,81.06395 L 5.689,82.44633 4.9092,84.27177 C 4.488,85.27995 3.9748,87.16589 3.7573,88.45435 l -0.3899,2.3394 -3.137,2.62298 -0.2304,8.56009 4.8738,-0.31901 1.9849,1.47099 v 1.68367 l 3.9699,4.09396 -0.035,3.7395 -1.666,2.19763 v 2.44574 l -2.1267,1.93178 0.4253,4.64337 46.3983,-3.63317 c 1.2802,3.57915 2.4821,7.99883 3.5623,21.58633 l 31.2097,-2.9597 -0.3544,-5.22822 2.8356,-0.31901 c 1.6425,1.43886 3.673,2.76688 3.9699,4.5902 l 20.4875,-1.59505 c 1.735,12.63011 2.3227,24.64841 3.8282,37.66089 l 47.9755,-4.99782 -5.7244,-48.4895 4.5193,-0.44307 0.443,-5.08644 1.7014,-1.1697 -2.6938,-31.15663 -10.8109,0.79752 -1.7369,-5.21049 -7.8866,0.88614 3.0483,2.97742 -0.4253,2.21535 -3.6332,0.14178 c -0.9165,-1.87422 -2.5543,-3.67489 -4.4661,-5.45861 l -17.8291,2.14445 -1.985,-15.36564 5.0865,-0.86842 -2.0913,-18.32534 -8.8083,-1.47099 -0.018,-0.97476 c -0.01,-0.35652 -0.5066,-1.29375 -1.1165,-2.07356 l -1.1165,-1.41782 -0.018,-1.98495 h -0.4253 c -0.234,-0.002 -0.8525,-0.74751 -1.3647,-1.64822 l -0.9215,-1.6305 -4.6612,-0.79752 v -1.5596 l -3.0483,1.15198 -0.9216,-1.66594 -2.1267,-0.72664 C 97.1408,31.36206 95.74,31.11274 95.2067,31.19207 l -0.9571,0.14179 -3.2964,-2.09129 c -1.8059,-1.14956 -3.3699,-2.31593 -3.4737,-2.58753 -0.104,-0.27159 -0.5191,-0.49623 -0.9393,-0.49623 h -0.7798 l -0.3545,2.51663 -1.9849,1.31148 c -1.0917,0.72305 -2.4279,1.68709 -2.9774,2.14446 -0.5495,0.45737 -1.3619,0.83298 -1.8078,0.83297 -0.4459,0 -0.9556,-0.21806 -1.1165,-0.47851 l -0.2835,-0.4608 1.3469,-4.44841 2.2862,-1.89634 -2.0735,-3.54455 0.6734,-0.81525 0.6912,-0.83297 h -0.4254 c -0.2367,0 0.2053,-0.64838 0.9925,-1.43555 l 1.4356,-1.41782 1.3115,-5.19277 -0.5495,-0.65574 c -0.3002,-0.35875 -1.3197,-1.109 -2.2685,-1.66594 z m 11.3603,3.8104 -2.8356,2.76475 c -1.5641,1.51726 -3.2431,2.97539 -3.7218,3.24326 l -0.8684,0.47852 v 2.78247 h 1.6659 l 1.1343,-2.14445 2.9419,-0.72663 -0.6557,-2.03812 1.2938,-0.60258 c 0.7054,-0.33831 1.7718,-0.77836 2.3748,-0.97475 l 1.0988,-0.35446 z"
     style="fill:#3F72AF;fill-opacity:1"
     id="WI_7"
     inkscape:connector-curvature="0" />
</svg>
