<?xml version="1.0" encoding="UTF-8" standalone="no"?>
<svg
   xmlns:dc="http://purl.org/dc/elements/1.1/"
   xmlns:cc="http://creativecommons.org/ns#"
   xmlns:rdf="http://www.w3.org/1999/02/22-rdf-syntax-ns#"
   xmlns:svg="http://www.w3.org/2000/svg"
   xmlns="http://www.w3.org/2000/svg"
   xmlns:sodipodi="http://sodipodi.sourceforge.net/DTD/sodipodi-0.dtd"
   xmlns:inkscape="http://www.inkscape.org/namespaces/inkscape"
   version="1.0"
   width="201.8913"
   height="138.07753"
   id="svg2"
   sodipodi:docname="WV_2.svg"
   inkscape:version="0.92.2 5c3e80d, 2017-08-06">
  <metadata
     id="metadata16">
    <rdf:RDF>
      <cc:Work
         rdf:about="">
        <dc:format>image/svg+xml</dc:format>
        <dc:type
           rdf:resource="http://purl.org/dc/dcmitype/StillImage" />
      </cc:Work>
    </rdf:RDF>
  </metadata>
  <defs
     id="defs14" />
  <sodipodi:namedview
     pagecolor="#ffffff"
     bordercolor="#666666"
     borderopacity="1"
     objecttolerance="10"
     gridtolerance="10"
     guidetolerance="10"
     inkscape:pageopacity="0"
     inkscape:pageshadow="2"
     inkscape:window-width="640"
     inkscape:window-height="480"
     id="namedview12"
     showgrid="false"
     inkscape:zoom="0.12542268"
     inkscape:cx="-714.91215"
     inkscape:cy="-59.52123"
     inkscape:window-x="0"
     inkscape:window-y="0"
     inkscape:window-maximized="0"
     inkscape:current-layer="svg2" />
  <path
     d="m 45.6538,137.89729 -2.4035,-4.81532 -2.3274,-0.0624 -0.8709,-1.36338 0.4977,-1.52932 -2.0558,-1.68749 -0.8561,0.59276 -1.439,-1.63395 h -1.9563 l -1.1268,-2.72256 -3.4298,-0.0903 c -0.1293,0.81644 0.3493,1.66248 -0.8731,2.1628 l -1.5765,-2.19235 -2.3538,2.83565 0.697,-2.49633 -1.5971,-4.95966 -1.2361,0.11683 -1.1894,0.95102 -2.2653,-0.30205 -3.6702,4.15393 -2.0745,-0.54251 -2.432,-11.48084 -8.4148,-5.42272 1.2698,-0.78479 -0.036,-3.05229 -1.6653,-2.20176 v -1.28273 c 0,-0.70551 -0.2962,-1.93278 -0.6582,-2.72721 C 1.2484,96.56583 0.738,95.91578 0.4762,95.91578 H 10e-5 V 94.4121 L 2.795,91.78641 2.367,88.25955 3.626,83.15539 5.7902,80.6873 5.0857,79.54743 l 1.3248,-0.81882 1.3708,1.8747 h 2.4009 l 1.7364,2.64997 -0.6949,3.47428 2.4687,0.78355 2.1873,-1.97945 v -1.23538 c 0,-0.67948 0.1538,-1.38924 0.3418,-1.5773 l 0.3419,-0.34186 2.7595,1.04913 0.6536,-1.70314 -1.4327,-1.72623 0.095,-3.3413 C 17.6225,75.90794 16.6501,75.12462 15.8797,74.1415 l 1.737,-0.34373 0.6159,-1.60509 c 2.7248,0.90984 5.4295,1.88292 8.1718,2.73934 l 5.336,-7.08911 5.8229,-4.99782 -0.9344,2.85419 c 2.1287,-0.24619 4.0224,1.65766 4.9965,6.31583 1.378,-1.32986 4.0352,-1.89223 7.0472,-2.24169 l 0.7346,1.1887 h 2.193 l 2.8442,2.47308 1.3418,7.26163 -2.2208,4.33553 5.2825,2.92094 c 3.7497,-4.30933 7.5449,-8.57964 11.2563,-12.92203 1.48,-0.41968 2.7803,-0.9416 3.6226,-2.30288 l -6.7607,-5.27135 -0.8002,-4.62811 5.5759,-5.87114 15.668,1.03954 1.4342,-1.19023 3.7499,1.07545 1.6403,2.3419 4.1627,-0.32134 0.3706,2.61452 -1.596,2.11948 c 1.7634,0.31407 5.403,-1.1139 9.4488,-2.91919 l 0.5107,-7.08134 1.8868,-2.21821 c 0.8862,1.29969 1.9385,2.52826 1.7183,4.30213 7.0953,0.62208 14.1906,1.23396 21.2859,0.0872 l 11.6884,6.79801 1.3728,-1.4341 1.7285,-6.80555 -3.479,-6.1424 2.135,-12.62315 c 2.9853,-5.30906 4.0963,-6.71304 5.1475,-7.99266 0.241,-2.10756 2.953,-7.59663 6.2962,-13.94932 l 8.1962,-0.32769 2.9086,-2.90863 -1.3092,-1.57753 1.8246,-0.70023 -0.4542,-1.3627 1.7462,-2.03945 h 4.285 l 2.5521,-5.74229 4.3757,0.5466 4.4419,3.56956 6.2113,-1.39003 V 1.7724 h 1.7013 v 1.62494 l -2.2685,0.72002 3.2556,4.34903 2.1322,0.40482 0.3588,3.10951 h 2.6934 l 0.8219,5.21185 1.5071,0.5783 -1.9224,11.22371 -28.3815,-14.17822 -0.1267,4.5862 0.9925,0.61341 -0.7346,2.31468 1.4847,0.91755 -2.7267,5.82147 1.4805,0.91494 -1.2514,2.61849 1.632,1.91231 -5.8081,10.00647 1.282,0.42733 -1.217,2.67084 -1.3473,-0.517 -1.9239,4.69436 -1.5111,-0.57989 c -1.9005,0.88046 -3.4871,5.31791 -4.8945,11.78686 l -7.0138,-3.38485 -1.7029,3.9699 -0.9994,6.1078 0.8962,2.53178 -2.205,0.24993 -1.6616,10.98824 -2.7081,5.78187 -7.9399,-0.73794 -4.8764,-5.57448 -5.1409,-0.77096 0.6388,-1.66475 c -0.6454,-0.81604 -0.9201,-1.70615 -1.067,-2.71331 l -2.3576,-1.77097 -0.9293,2.51204 -0.7903,-1.27865 -1.665,0.63898 v -1.64694 l -2.1059,-1.90584 -1.1279,1.44647 c -0.6083,3.88676 -1.5832,7.59022 -1.3261,11.9097 l -6.3114,6.52198 h -4.3707 l -3.8873,5.10416 0.5097,-7.65624 -6.9904,-9.49527 -1.2338,1.23385 -2.5876,-2.79203 -2.6768,1.09223 -2.4173,-0.38026 -1.3015,6.44905 -5.4717,8.57703 -4.3552,0.5492 -1.7716,-1.53022 -4.5381,4.72242 3.1905,0.36449 0.2903,1.62829 -17.2027,16.8034 c -0.9934,2.57964 -2.1111,4.66197 -3.5449,5.47982 l 0.7743,12.95186 c -1.19,0.47809 -2.4157,1.06314 -3.2857,0.58114 z"
     style="fill:#3F72AF;fill-opacity:1"
     id="WV_2"
     inkscape:connector-curvature="0" />
</svg>
