<?xml version="1.0" encoding="UTF-8" standalone="no"?>
<svg
   xmlns:dc="http://purl.org/dc/elements/1.1/"
   xmlns:cc="http://creativecommons.org/ns#"
   xmlns:rdf="http://www.w3.org/1999/02/22-rdf-syntax-ns#"
   xmlns:svg="http://www.w3.org/2000/svg"
   xmlns="http://www.w3.org/2000/svg"
   xmlns:sodipodi="http://sodipodi.sourceforge.net/DTD/sodipodi-0.dtd"
   xmlns:inkscape="http://www.inkscape.org/namespaces/inkscape"
   version="1.0"
   width="164.0596"
   height="163.3685"
   id="svg2"
   sodipodi:docname="AR_1.svg"
   inkscape:version="0.92.2 5c3e80d, 2017-08-06">
  <metadata
     id="metadata8">
    <rdf:RDF>
      <cc:Work
         rdf:about="">
        <dc:format>image/svg+xml</dc:format>
        <dc:type
           rdf:resource="http://purl.org/dc/dcmitype/StillImage" />
      </cc:Work>
    </rdf:RDF>
  </metadata>
  <defs
     id="defs6" />
  <sodipodi:namedview
     pagecolor="#ffffff"
     bordercolor="#666666"
     borderopacity="1"
     objecttolerance="10"
     gridtolerance="10"
     guidetolerance="10"
     inkscape:pageopacity="0"
     inkscape:pageshadow="2"
     inkscape:window-width="640"
     inkscape:window-height="480"
     id="namedview4"
     showgrid="false"
     inkscape:zoom="0.12542268"
     inkscape:cx="-216.24655"
     inkscape:cy="259.02717"
     inkscape:window-x="0"
     inkscape:window-y="0"
     inkscape:window-maximized="0"
     inkscape:current-layer="svg2" />
  <path
     d="M 135.1361,0 C 102.6791,3.62724 62.4483,7.25454 18.7506,10.88178 l 0.4785,6.64607 -1.3114,0.69116 c -0.7203,0.38548 -1.3115,0.93497 -1.3115,1.20515 v 0.47854 c 0.8086,-0.46459 1.6372,-0.8727 2.5166,-1.1697 l 0.319,2.26851 h -1.3469 l 2.0736,1.52416 -0.5495,1.59505 3.0009,1.24059 1.3412,2.05585 -1.2229,1.47096 0.7976,1.29379 2.109,-0.54944 1.3824,1.66595 -1.6305,1.02792 1.4178,0.0177 v 4.94462 L 5.299,38.29889 4.98,36.03037 0,35.67592 1.6305,59.61935 17.2974,58.83955 16.6239,54.60384 c 3.6292,-0.72485 7.4653,-0.62197 11.2539,-0.70891 l 0.3545,4.16482 8.7196,-0.26581 1.4533,21.49769 19.5659,-1.1874 -0.3116,-4.81163 2.5624,-1.49767 -0.638,-4.67881 c 3.7016,-0.83034 7.5256,-0.9255 11.3957,-0.74436 l 0.3545,4.82059 5.9194,0.33671 5.2872,-0.60093 c -0.2592,1.23668 -0.05,1.96215 -0.892,2.92264 l -2.7403,1.81396 -0.078,1.97332 1.0111,0.62566 -0.2791,2.23194 1.4134,1.47215 1.2537,1.66798 -0.8815,1.92971 -1.2616,2.13252 -1.2905,1.3589 1.2581,0.12703 -0.071,3.96531 -6.7878,1.17129 0.6203,3.81043 -2.942,0.74435 -1.2406,-1.68369 -2.6761,-0.69116 -6.398,2.87109 -6.5396,-0.65577 -3.2937,-1.6098 -4.0613,1.04267 v 2.94198 l 2.6938,-0.67346 0.8153,14.72765 -0.8153,9.64119 h 3.9699 l 0.7799,8.04613 16.6594,-0.7975 0.9393,15.4011 8.7905,-0.071 1.3824,4.6788 1.081,0.9038 2.5521,-0.089 1.7014,6.8056 2.0736,2.0735 2.1444,-1.9317 0.8685,0.3367 c 0.4794,0.184 0.8683,0.5821 0.8683,0.8861 0,0.304 -0.5651,0.9499 -1.2582,1.4356 l -1.2584,0.8861 h 0.8507 c 0.4679,0 1.4152,-0.4003 2.109,-0.8861 l 1.2583,-0.8862 1.1875,0.7444 1.6305,-1.3647 0.7266,1.8609 2.0381,-0.6557 0.7266,1.2051 1.1166,-0.6911 -4.0231,-4.9093 v -2.3394 l 1.1343,-0.7089 c 0.6238,-0.3896 1.1342,-0.9283 1.1342,-1.1874 0,-0.2592 0.3696,-0.8305 0.8153,-1.276 l 0.7975,-0.8153 7.4613,-0.6558 1.8786,-2.747 h 2.428 l 1.2938,1.2938 1.7722,-0.6912 v -1.1697 h -4.2889 l -2.5166,-1.7723 v -2.7647 h 2.3572 l 0.8507,0.8507 c 0.4678,0.4679 1.0583,0.8507 1.3291,0.8507 h 0.4963 l 0.3544,-4.2535 3.0306,-0.3545 1.2583,-1.5064 -1.7368,-1.7368 v -2.428 l 4.8206,0.3544 0.3545,2.5521 h 0.8684 l -0.4785,-3.2255 4.3243,-4.0763 -1.9495,-2.1445 v -2.30393 l 2.4103,-3.06601 -2.8711,-3.04832 -0.3899,-5.10416 h 2.8357 l -0.089,2.55208 h 1.4355 l 0.8861,-1.25834 c 0.4856,-0.69326 0.8862,-1.43654 0.8862,-1.64819 v -0.3899 l -3.9699,0.12403 -1.1165,-1.11651 0.7266,-6.02574 1.595,-0.60257 1.1875,1.1697 c 0.1085,1.33672 0.2176,2.6735 0.3721,4.00535 l 1.7368,-1.16971 -1.5418,-2.44574 0.4608,-2.72931 -1.8609,-2.05584 1.5773,-1.71914 2.5343,-0.0177 v 1.04561 c 0,0.5719 0.1513,1.17912 0.3368,1.36469 l 0.3367,0.3367 3.5269,-2.12673 1.6305,1.36468 -0.7621,-2.3926 2.8711,-1.87862 v -2.17987 l -1.0634,-0.33676 c -0.5827,-0.18494 -1.4736,-0.79971 -1.985,-1.36462 l -0.9215,-1.01023 0.7266,-3.70403 4.8029,0.7266 1.0633,-6.82324 4.3421,0.24812 0.4963,-1.41782 h -1.7546 l -1.2583,-2.35716 1.8963,-2.10898 -0.7444,-1.20515 h -3.3141 l -0.6912,-2.76475 0.7444,-1.20515 h 2.1799 L 146,68.23211 l -1.8432,-0.70891 -0.8153,1.96726 -1.9672,0.35445 v -4.07624 l 2.3748,-1.08111 -0.035,-1.71908 2.2685,-1.20515 1.6482,1.36462 -0.6557,2.10904 h 1.0811 l 0.5671,-2.23307 -1.6305,-1.34693 0.3367,-4.64336 4.1472,-0.33677 1.79,2.53439 0.8684,-0.86845 -3.2078,-2.76475 0.3721,-1.91406 c 1.4264,-0.82636 3.0944,-1.39349 4.2535,-2.58752 v -0.35446 l -3.7927,0.4431 -0.9393,-1.98495 c -0.5169,-1.08934 -0.9393,-2.37967 -0.9393,-2.87109 v -0.88614 l 2.7825,-1.82547 2.0381,0.63802 c 0.9417,-0.46323 1.9395,-0.8947 2.5698,-1.68364 l 1.1165,-2.76475 3.1192,-0.35445 v -1.08112 l -2.8356,-0.67347 v -3.31413 l 3.1724,-1.11656 2.2153,1.38238 v -1.75453 l -3.9699,-2.33941 v -1.75458 l -32.663,3.42052 2.2508,-6.82329 3.7572,-3.63314 v -2.05584 l 2.4103,-2.42805 c 1.3256,-1.34098 2.8392,-2.94045 3.3673,-3.56225 0.5281,-0.62197 1.0087,-1.47102 1.0634,-1.87861 L 140.2409,5.81251 136.271,5.06815 V 1.71858 h -1.1342 z"
     style="fill:#b3b3b3"
     id="AR_1"
     inkscape:connector-curvature="0" />
</svg>
