<?xml version="1.0" encoding="UTF-8" standalone="no"?>
<svg
   xmlns:dc="http://purl.org/dc/elements/1.1/"
   xmlns:cc="http://creativecommons.org/ns#"
   xmlns:rdf="http://www.w3.org/1999/02/22-rdf-syntax-ns#"
   xmlns:svg="http://www.w3.org/2000/svg"
   xmlns="http://www.w3.org/2000/svg"
   xmlns:sodipodi="http://sodipodi.sourceforge.net/DTD/sodipodi-0.dtd"
   xmlns:inkscape="http://www.inkscape.org/namespaces/inkscape"
   version="1.0"
   width="110.3242"
   height="103.00475"
   id="svg2"
   sodipodi:docname="AR_3.svg"
   inkscape:version="0.92.2 5c3e80d, 2017-08-06">
  <metadata
     id="metadata24">
    <rdf:RDF>
      <cc:Work
         rdf:about="">
        <dc:format>image/svg+xml</dc:format>
        <dc:type
           rdf:resource="http://purl.org/dc/dcmitype/StillImage" />
      </cc:Work>
    </rdf:RDF>
  </metadata>
  <defs
     id="defs22" />
  <sodipodi:namedview
     pagecolor="#ffffff"
     bordercolor="#666666"
     borderopacity="1"
     objecttolerance="10"
     gridtolerance="10"
     guidetolerance="10"
     inkscape:pageopacity="0"
     inkscape:pageshadow="2"
     inkscape:window-width="640"
     inkscape:window-height="480"
     id="namedview20"
     showgrid="false"
     inkscape:zoom="0.12542268"
     inkscape:cx="-132.24055"
     inkscape:cy="209.45662"
     inkscape:window-x="0"
     inkscape:window-y="0"
     inkscape:window-maximized="0"
     inkscape:current-layer="svg2" />
  <path
     d="M 102.2604,0 0,6.91188 l 13.2567,68.10858 1.1342,27.98429 c 4.2518,-1.55416 6.6282,-0.90486 9.6589,-2.69386 v -6.02575 l 4.094,-2.05584 -0.036,-3.04832 5.5295,-0.19497 -0.6734,-5.61809 h 5.7598 l 0.3545,-5.38773 4.8206,-0.35445 0.5671,-6.00805 2.5521,2.55208 c 2.5873,-0.94784 3.1384,-1.9055 4.0585,-2.85334 l 2.3395,1.47096 4.1648,-1.98495 1.8609,0.70891 1.6127,-2.12673 1.985,0.0177 c -0.305,1.61212 0.5682,3.12 1.7546,4.60792 l -1.3293,1.5773 4.7675,-1.34693 3.4737,1.79003 1.3823,2.23307 h 2.3571 c 1.951,1.60679 2.8785,3.67845 3.7218,5.77762 l 2.8357,-0.72666 -0.7267,3.31419 1.8609,0.70891 0.9216,-0.56713 -0.3013,-2.25082 3.4737,-1.32918 5.1573,-0.10634 -1.5596,-23.53584 h 2.0381 l -0.7621,-10.24376 -6.8586,0.31901 -1.7546,-25.23723 5.9726,0.42535 0.319,2.07353 20.4698,-0.97472 v -3.79267 h -1.1343 l -0.1595,-0.99248 1.3646,-0.70891 -0.638,-1.02792 -2.0558,0.54938 -1.4887,-1.78998 1.2406,-1.50646 -0.7798,-1.36462 c -0.8335,-0.52596 -2.2833,-1.15059 -3.4383,-1.48872 l 0.5495,-2.07359 -1.9673,-1.5596 1.3293,-0.47849 -0.195,-1.20515 -2.4812,1.22284 -0.1772,-1.04561 c 0.3284,-0.92521 1.2762,-1.68205 2.6052,-2.35716 z"
     style="fill:#b3b3b3"
     id="AR_3"
     inkscape:connector-curvature="0" />
</svg>
