<?xml version="1.0" encoding="UTF-8" standalone="no"?>
<svg
   xmlns:dc="http://purl.org/dc/elements/1.1/"
   xmlns:cc="http://creativecommons.org/ns#"
   xmlns:rdf="http://www.w3.org/1999/02/22-rdf-syntax-ns#"
   xmlns:svg="http://www.w3.org/2000/svg"
   xmlns="http://www.w3.org/2000/svg"
   xmlns:sodipodi="http://sodipodi.sourceforge.net/DTD/sodipodi-0.dtd"
   xmlns:inkscape="http://www.inkscape.org/namespaces/inkscape"
   version="1.0"
   width="234.0824"
   height="303.00623"
   id="svg2"
   sodipodi:docname="AZ_1.svg"
   inkscape:version="0.92.2 5c3e80d, 2017-08-06">
  <metadata
     id="metadata8">
    <rdf:RDF>
      <cc:Work
         rdf:about="">
        <dc:format>image/svg+xml</dc:format>
        <dc:type
           rdf:resource="http://purl.org/dc/dcmitype/StillImage" />
      </cc:Work>
    </rdf:RDF>
  </metadata>
  <defs
     id="defs6" />
  <sodipodi:namedview
     pagecolor="#ffffff"
     bordercolor="#666666"
     borderopacity="1"
     objecttolerance="10"
     gridtolerance="10"
     guidetolerance="10"
     inkscape:pageopacity="0"
     inkscape:pageshadow="2"
     inkscape:window-width="640"
     inkscape:window-height="480"
     id="namedview4"
     showgrid="false"
     inkscape:zoom="0.12542268"
     inkscape:cx="814.19093"
     inkscape:cy="352.0184"
     inkscape:window-x="0"
     inkscape:window-y="0"
     inkscape:window-maximized="0"
     inkscape:current-layer="svg2" />
  <path
     d="m 64.75902,1.8e-4 -0.31901,0.30132 -2.23109,6.82029 2.08931,0.74731 -0.37218,4.48388 -4.98009,0.0886 -3.36733,6.62832 0.90544,6.39517 -0.4092,2.2004 -1.98495,1.41782 0.58485,1.84317 c 0.32366,1.0117 0.61184,2.86859 0.65574,4.11168 l 0.0886,2.25077 6.67794,2.99064 0.30484,3.07054 c -0.40879,0.72162 -1.48166,1.98944 -2.39258,2.81795 l -1.66594,1.50641 3.59772,1.86092 0.0532,1.94951 0.65712,-0.007 2.03654,-2.72126 2.57197,2.9713 0.35249,0.60774 c 0.28435,0.15034 0.54486,0.35451 0.81525,0.56713 l 0.5494,0.46079 c 0.67277,0.61823 1.31506,1.34965 1.94951,2.00264 0.68968,0.70982 1.36406,1.31342 1.98495,1.6128 0.003,0.002 0.0144,-0.002 0.0177,0 1.86415,0.39949 3.6013,1.27054 5.31683,2.14443 l 2.8002,1.34693 c 1.85463,0.77776 3.73173,1.24559 5.77763,0.8507 l 7.03517,-7.84997 -2.39198,-2.67481 -0.0353,-2.83819 -2.26852,-2.88879 0.63802,-1.64824 2.94198,-1.34694 0.46079,0.72667 c 0.24693,0.39948 0.58948,1.74108 0.77981,2.99512 0.19027,1.25409 0.62628,2.98808 0.95702,3.84587 l 0.60258,1.5596 4.96238,-0.0886 v 2.35716 h 3.93445 l 4.00535,1.91405 0.0886,2.0204 c 0.0485,1.11186 0.0365,2.6621 -0.0354,3.43822 -0.0719,0.77611 -0.42631,1.75379 -0.7798,2.17987 -0.3536,0.42608 -1.23333,1.00365 -1.9495,1.27604 l -1.29379,0.49624 -1.91406,3.98765 h -2.12674 l 0.79756,1.27604 5.42317,-0.63802 1.36462,1.6305 h 3.82812 v -2.16218 c 1.83285,-1.11611 3.66082,-2.2409 5.5295,-3.29644 0.69735,-0.38593 1.82276,-1.10908 2.51664,-1.59505 0.37181,-0.26042 0.78955,-0.65764 1.1697,-1.08112 l 4.44844,0.79756 2.46344,-1.73683 h 4.16488 l 0.7798,-7.40812 3.5977,-1.50647 1.1697,1.04568 c 0.64392,0.58255 1.46954,1.06336 1.82547,1.06336 h 0.63802 l 0.35446,-1.91406 c 0.19787,-1.05491 0.84406,-2.71382 1.43552,-3.68633 l 1.08111,-1.77228 h 2.90654 l 3.10145,2.30396 3.98766,0.63802 4.41294,-1.84317 1.01022,1.80772 0.67347,-0.54943 c 0.36472,-0.30001 1.8641,-0.73585 3.34958,-0.95703 l 2.71161,-0.3899 0.62027,-1.01017 h 2.19762 v 3.1901 l -6.3802,8.96772 -0.56713,4.23571 -1.9672,1.79003 -3.15465,-1.20515 -3.75723,2.56978 -0.65577,2.62297 0.67347,1.08112 h 2.07359 l 0.69116,1.77227 1.13426,-0.70891 v -2.07359 l 1.40013,-0.90383 c 0.76885,-0.50373 1.7256,-0.91098 2.12673,-0.90389 l 0.7266,0.0177 1.79003,3.65089 4.78515,0.35445 0.65571,1.68364 -2.03809,1.48871 6.04344,1.40013 2.23307,-0.0177 c 0.35695,-0.35695 0.86135,-0.65572 1.11656,-0.65572 h 0.46079 l -0.30131,4.73196 3.95221,0.0886 0.3367,1.75452 -1.68363,4.0408 -7.47901,3.72178 -0.81525,1.59505 c -0.45348,0.87683 -0.833,1.83636 -0.833,2.14448 v 0.56713 l 6.80554,-1.08112 v -4.00534 l 2.78251,-2.78245 h 3.04831 l -0.72666,11.16535 -4.00534,0.0886 c -2.20302,0.0407 -4.24383,0.2087 -4.53703,0.3899 l -0.53169,0.33676 0.56713,1.06337 c 0.31277,0.58437 0.56713,1.36304 0.56713,1.73683 v 0.69116 l -6.78779,-1.41782 -0.76211,1.98495 2.07359,1.52416 -0.62032,0.63802 -22.34839,-2.30396 -1.79003,1.77227 -6.91188,-0.76205 -1.04561,-0.99247 0.93927,-1.06337 c 0.5229,-0.57779 0.95703,-1.60554 0.95703,-1.79003 l -7.47901,-0.7266 3.27874,-34.98475 h -3.73953 v 4.46613 l -3.31413,1.71909 -0.3722,2.56983 -4.53703,0.58482 0.56712,3.6332 -2.14442,0.74435 -1.2406,-1.63049 c -0.55471,-0.8465 -1.20356,-2.18838 -1.43557,-2.99518 l -0.42535,-1.47096 -1.45326,2.92423 -2.28621,1.71913 -0.93934,-1.5596 -3.08376,0.70891 -8.70185,-4.32435 -1.18746,-1.87862 0.7798,-5.5295 3.06607,-0.35446 0.69116,-2.19762 h 1.38238 c 0.75876,0 1.38237,-0.15284 1.38237,-0.33676 l -2.55207,-2.4103 1.20514,-1.24059 -3.77492,-2.92423 c -0.5331,0.11677 -0.99996,0.24057 -1.25834,0.35445 l -0.97473,0.44304 -0.3722,-0.97472 c -0.23712,0.0609 -0.46686,0.14388 -0.69116,0.24812 -1.4848,0.68946 -2.67169,2.54714 -3.03063,3.88126 -0.79103,3.29853 -3.02245,5.40575 -5.70673,6.16752 -2.73228,0.95153 -5.86186,-0.17978 -8.31198,-1.73683 -3.29562,-0.21988 -5.83601,-1.92835 -8.24109,-3.82812 -2.05286,-1.62153 -4.02708,-3.37515 -6.29158,-4.53703 l -1.29376,0.92158 -0.76208,7.10686 H 56.34069 L 55.63178,60.27548 H 52.2999 v -3.88132 l -7.37268,-0.7798 v -2.71155 c -1.51494,-0.006 -3.03938,-0.042 -4.53703,0.14178 -0.70145,6.2265 -1.69678,13.03148 -2.3394,19.26462 L 12.77811,89.00406 0,179.97504 l 29.33118,3.9876 22.43703,10.1729 2.09129,-1.4355 0.63802,-1.5419 5.95485,-6.0435 20.48753,5.5118 4.43069,0.6203 c 2.43996,0.3345 5.5531,0.6026 6.91188,0.6026 h 2.46349 l 1.82542,1.8254 -0.49624,0.638 c -0.27761,0.3569 -0.64346,1.2297 -0.81525,1.9318 l -0.31901,1.2761 h 1.82548 l 0.21267,5.8662 h 1.25829 l -0.31901,1.4178 c -0.29184,0.2102 -0.59066,0.987 -0.67346,1.7368 l -0.15948,1.3647 0.86839,0.9748 c 0.4824,0.533 0.99264,1.4833 1.11656,2.1267 0.12363,0.6433 0.675,1.9016 1.22284,2.7825 0.54785,0.881 1.48843,2.169 2.10904,2.8711 0.62038,0.7018 1.35521,1.276 1.61274,1.276 0.25754,0 0.4608,-0.2804 0.4608,-0.6203 0,-0.3399 0.57421,-1.0984 1.27604,-1.6836 0.70182,-0.5856 1.55739,-1.0708 1.89636,-1.0812 l 0.62027,-0.018 c 1.32181,4.623 3.08569,9.1465 4.05854,13.8593 l -11.71478,-1.1343 -0.7798,9.6766 -4.92693,4.5725 0.63802,4.7674 -1.87861,2.8888 -7.33723,-0.7621 v 2.9243 l -1.13426,0.7089 v 2.109 l -3.59772,0.7976 -2.92426,2.7293 -2.26851,-0.319 -1.08109,-2.4635 -9.42852,-0.7975 -0.30129,-0.4963 c -0.16974,-0.2746 -0.66225,-0.4962 -1.08108,-0.4962 h -0.76208 l -0.77981,6.7169 -2.7293,0.6735 v 2.233 c 4.34955,0.9642 8.77232,1.5159 13.11485,2.5167 l -0.74436,4.8915 -2.16218,1.152 v 1.0101 c 0,0.5505 -0.22976,1.2456 -0.51396,1.5419 l -0.51396,0.5317 -0.7798,8.5778 c 26.28199,3.7901 33.19365,4.3133 44.90951,4.9092 v -2.9242 l 2.51663,-1.7723 h 2.62297 l 1.08112,2.8711 1.71908,0.6557 v 2.1445 l 14.56812,1.5242 -0.49624,5.175 71.56455,7.479 C 219.56764,168.51016 224.87994,118.12248 234.0824,19.56594 174.58901,13.29832 130.85998,8.35772 64.759,0 Z"
     style="fill:#b3b3b3;fill-opacity:1"
     id="AZ_1"
     inkscape:connector-curvature="0" />
</svg>
