<?xml version="1.0" encoding="UTF-8" standalone="no"?>
<svg
   xmlns:dc="http://purl.org/dc/elements/1.1/"
   xmlns:cc="http://creativecommons.org/ns#"
   xmlns:rdf="http://www.w3.org/1999/02/22-rdf-syntax-ns#"
   xmlns:svg="http://www.w3.org/2000/svg"
   xmlns="http://www.w3.org/2000/svg"
   xmlns:sodipodi="http://sodipodi.sourceforge.net/DTD/sodipodi-0.dtd"
   xmlns:inkscape="http://www.inkscape.org/namespaces/inkscape"
   version="1.0"
   width="112.71359"
   height="86.350403"
   id="svg2"
   sodipodi:docname="AZ_8.svg"
   inkscape:version="0.92.2 5c3e80d, 2017-08-06">
  <metadata
     id="metadata64">
    <rdf:RDF>
      <cc:Work
         rdf:about="">
        <dc:format>image/svg+xml</dc:format>
        <dc:type
           rdf:resource="http://purl.org/dc/dcmitype/StillImage" />
      </cc:Work>
    </rdf:RDF>
  </metadata>
  <defs
     id="defs62" />
  <sodipodi:namedview
     pagecolor="#ffffff"
     bordercolor="#666666"
     borderopacity="1"
     objecttolerance="10"
     gridtolerance="10"
     guidetolerance="10"
     inkscape:pageopacity="0"
     inkscape:pageshadow="2"
     inkscape:window-width="640"
     inkscape:window-height="480"
     id="namedview60"
     showgrid="false"
     inkscape:zoom="0.12542268"
     inkscape:cx="719.94498"
     inkscape:cy="419.08957"
     inkscape:window-x="0"
     inkscape:window-y="0"
     inkscape:window-maximized="0"
     inkscape:current-layer="svg2" />
  <path
     d="m 21.48385,77.0965 0.7219,-6.2946 -1.33939,-1.6138 c -0.76857,0.089 -1.66492,0.2477 -2.32273,0 0,-0.1602 0.98414,-1.509 1.36088,-2.1123 L 17.51282,63.0623 12.91885,59.9088 9.79652,62.4446 6.19191,58.3391 2.32931,59.0061 1.72497,57.5636 2.39475,52.9031 0,48.2091 C 0.46589,43.92 0.6793,39.5936 1.3636,35.3322 l 13.50583,1.5849 1.59879,-1.3269 v -2.5209 l 2.26852,-2.053 v -1.5256 h 1.00194 l 0.65645,-2.5102 -1.5634,-1.7433 0.55919,-2.8828 -3.48983,-2.6745 V 18.2975 L 11.09099,17.6523 9.1378,19.42 7.29134,18.3067 7.93282,13.6604 6.45795,11.3065 3.84757,12.0266 1.31086,9.4725 2.4129,3.4973 19.87099,5.0758 V 1.8772 L 21.94527,0 h 1.9237 l 1.0193,2.6809 1.78827,0.6863 V 5.581 l 14.46178,1.5182 -0.36308,5.2365 71.93835,7.5138 -6.43884,66.5009 z"
     style="fill:#b3b3b3"
     id="AZ_8"
     inkscape:connector-curvature="0" />
</svg>
