<?xml version="1.0" encoding="UTF-8" standalone="no"?>
<svg
   xmlns:dc="http://purl.org/dc/elements/1.1/"
   xmlns:cc="http://creativecommons.org/ns#"
   xmlns:rdf="http://www.w3.org/1999/02/22-rdf-syntax-ns#"
   xmlns:svg="http://www.w3.org/2000/svg"
   xmlns="http://www.w3.org/2000/svg"
   xmlns:sodipodi="http://sodipodi.sourceforge.net/DTD/sodipodi-0.dtd"
   xmlns:inkscape="http://www.inkscape.org/namespaces/inkscape"
   version="1.0"
   width="103.95462"
   height="111.31801"
   id="svg2"
   sodipodi:docname="CA_19.svg"
   inkscape:version="0.92.2 5c3e80d, 2017-08-06">
  <metadata
     id="metadata88">
    <rdf:RDF>
      <cc:Work
         rdf:about="">
        <dc:format>image/svg+xml</dc:format>
        <dc:type
           rdf:resource="http://purl.org/dc/dcmitype/StillImage" />
      </cc:Work>
    </rdf:RDF>
  </metadata>
  <defs
     id="defs86" />
  <sodipodi:namedview
     pagecolor="#ffffff"
     bordercolor="#666666"
     borderopacity="1"
     objecttolerance="10"
     gridtolerance="10"
     guidetolerance="10"
     inkscape:pageopacity="0"
     inkscape:pageshadow="2"
     inkscape:window-width="640"
     inkscape:window-height="480"
     id="namedview84"
     showgrid="false"
     inkscape:zoom="0.12542268"
     inkscape:cx="1161.5622"
     inkscape:cy="9.4742214"
     inkscape:window-x="0"
     inkscape:window-y="0"
     inkscape:window-maximized="0"
     inkscape:current-layer="svg2" />
  <path
     d="m 49.18562,111.31801 v -1.59766 l -14.85151,-3.5078 -1.07777,0.66609 -0.68408,-0.56049 c -0.37623,-0.30829 -1.78169,-0.85404 -3.12317,-1.21275 l -2.43911,-0.6522 1.84651,-6.90882 -0.52601,-0.34408 C 28.04119,97.01105 27.51109,96.2988 27.1525,95.61745 26.7939,94.93616 26.50047,94.0621 26.50047,93.67509 v -0.70364 l 6.46782,5.74808 5.15299,0.5808 4.54236,-2.20216 1.98495,2.43581 v 2.45788 l 2.26851,1.94236 0.78555,2.64061 2.55717,-6.44922 -1.29147,-4.20787 -4.27456,-2.18072 h -5.46372 l -7.495,-7.19068 -0.8106,-4.79802 -1.58178,-0.60694 2.78699,-4.6736 c 4.21351,-0.35343 6.21945,-0.95278 10.42999,-0.40357 l 4.89808,0.68719 3.05965,-0.98692 -5.84539,-6.64595 0.52533,-1.51429 -0.47803,-0.97002 C 44.45645,66.10067 43.82257,64.35386 43.31068,62.7524 42.79884,61.15094 42.4835,58.79985 42.48389,57.90594 L 39.84836,44.40391 11.17955,51.74131 9.79717,51.11146 C 9.03682,50.76505 8.30006,50.18273 8.15987,49.81744 L 7.90506,49.15333 9.03064,43.46066 c 2.99801,-1.06977 4.86152,-2.9646 6.82817,-5.22042 L 11.0034,33.62138 H 8.96502 L 7.60567,38.15841 6.3336,38.10681 0.92824,34.8786 0,33.15736 3.15353,33.0542 l 0.96844,-1.20356 8.28172,-0.4706 2.96509,1.80698 4.69478,-20.23753 9.37469,17.35243 0.94138,-0.77503 c 0.51779,-0.42632 1.6491,-1.12933 2.51403,-1.56227 0.86492,-0.43301 2.30645,-1.44284 3.20337,-2.24408 l 1.63083,-1.45684 0.39875,-2.83564 2.83564,-0.39875 1.57123,-1.7856 c 0.86414,-0.98204 4.09836,-4.33763 7.18705,-7.45684 3.08876,-3.1192 6.81564,-6.75592 8.28201,-8.08158 l 2.66607,-2.4103 6.8081,-1.29504 5.18598,5.90285 c 3.68868,-1.13227 5.17784,-2.26449 9.73394,-2.03367 l -0.71777,3.55573 2.08102,2.38444 -0.60889,1.09949 0.50636,4.84798 -1.28602,2.68819 2.74303,1.17663 c -0.22039,2.83275 2.72092,2.72029 3.87349,4.74454 l 0.64596,1.88252 h 3.02302 l 2.57368,2.73958 c 1.82086,4.72741 -1.28399,3.41388 -0.5474,7.02604 l 1.29083,3.14893 2.62294,1.84776 -0.35701,1.12478 c -0.19634,0.61863 -0.37901,1.89955 -0.40595,2.84642 l -0.0489,1.72164 -3.22906,1.90742 0.55762,2.85544 c 2.59738,-0.80085 3.98657,0.0402 5.96436,-0.0171 l 1.97922,4.32526 0.8975,5.67146 -17.45874,11.59052 -0.54801,1.41782 c -0.30138,0.77981 -0.56861,2.12872 -0.5939,2.99768 l -0.0459,1.57979 -0.48025,0.29684 c -0.26411,0.16321 -0.48024,0.73545 -0.48024,1.27155 v 0.97473 l -3.45245,2.61826 -1.83614,-1.51548 -0.47724,1.41782 h -1.60684 l -0.0768,1.41782 -0.6154,-1.27604 c -0.33846,-0.70182 -0.83263,-1.2584 -1.09586,-1.27604 -0.38219,-0.0256 -0.45018,0.60037 -0.4289,1.1033 -1.64938,-1.22761 -2.10365,-0.88586 -2.59041,-0.49823 -0.43202,0.34408 0.28907,1.67502 1.11552,2.18578 l -2.26302,1.70008 -1.98495,-0.59747 c -0.0993,0.90644 0.23464,1.75776 -0.29899,2.34496 -0.24954,0 -0.923,-0.31459 -1.30751,-0.69916 l -0.69916,-0.6991 -0.67057,2.56433 -1.90901,-0.60592 -3.12887,3.07146 0.13227,0.72507 c 0.26207,0 0.0942,0.12364 -0.62509,0.74748 -0.71929,0.62384 -1.52399,1.13426 -1.78815,1.13426 h -0.48036 c -0.0924,2.8488 -0.59736,5.053 -1.51486,7.07674 l -4.00177,-0.34476 -1.92183,5.87551 2.3343,1.63504 v 1.63707 z"
     style="opacity:1;fill:#b3b3b3;fill-opacity:1"
     id="CA_19"
     inkscape:connector-curvature="0" />
</svg>
