<?xml version="1.0" encoding="UTF-8" standalone="no"?>
<svg
   xmlns:dc="http://purl.org/dc/elements/1.1/"
   xmlns:cc="http://creativecommons.org/ns#"
   xmlns:rdf="http://www.w3.org/1999/02/22-rdf-syntax-ns#"
   xmlns:svg="http://www.w3.org/2000/svg"
   xmlns="http://www.w3.org/2000/svg"
   xmlns:sodipodi="http://sodipodi.sourceforge.net/DTD/sodipodi-0.dtd"
   xmlns:inkscape="http://www.inkscape.org/namespaces/inkscape"
   version="1.0"
   width="43.244228"
   height="24.60063"
   id="svg2"
   sodipodi:docname="CA_26.svg"
   inkscape:version="0.92.2 5c3e80d, 2017-08-06">
  <metadata
     id="metadata152">
    <rdf:RDF>
      <cc:Work
         rdf:about="">
        <dc:format>image/svg+xml</dc:format>
        <dc:type
           rdf:resource="http://purl.org/dc/dcmitype/StillImage" />
      </cc:Work>
    </rdf:RDF>
  </metadata>
  <defs
     id="defs150" />
  <sodipodi:namedview
     pagecolor="#ffffff"
     bordercolor="#666666"
     borderopacity="1"
     objecttolerance="10"
     gridtolerance="10"
     guidetolerance="10"
     inkscape:pageopacity="0"
     inkscape:pageshadow="2"
     inkscape:window-width="640"
     inkscape:window-height="480"
     id="namedview148"
     showgrid="false"
     inkscape:zoom="0.12542268"
     inkscape:cx="1060.2007"
     inkscape:cy="189.82115"
     inkscape:window-x="0"
     inkscape:window-y="0"
     inkscape:window-maximized="0"
     inkscape:current-layer="svg2" />
  <path
     d="m 25.51501,24.60063 h -0.53299 l 0.64108,-3.2053 -2.83394,-1.85684 -0.72298,0.87111 c -0.39761,0.47917 -1.7218,1.38073 -2.9426,2.0035 -1.2208,0.62282 -2.34292,1.00915 -2.49355,0.85846 -0.15069,-0.15063 0.17501,-0.95913 0.72377,-1.79655 l 0.99769,-1.52268 -1.33763,-2.14188 V 15.09776 L 14.46178,13.39087 9.2817,18.0487 8.30039,16.54848 5.5875,17.01324 4.40918,15.73816 7.9398,13.84185 V 12.33601 L 6.34918,10.81208 C 5.47432,9.97392 4.48474,9.28815 4.15008,9.28815 c -0.33461,0 -0.94784,0.40901 -1.36276,0.90894 L 2.03299,11.10597 0,8.59535 V 5.93676 L 4.02633,5.1814 6.40844,3.18942 c 1.31012,-1.09558 2.9721,-2.26143 3.6932,-2.5907 L 11.41284,0 l 2.50813,3.14552 7.52477,0.24523 1.60991,1.33604 3.45013,-1.30224 4.88075,2.44546 0.37268,-5.02595 5.72403,2.37882 1.39586,2.4564 1.53672,-0.0569 0.98457,0.80204 v 1.59714 l -2.35335,0.61545 1.11372,2.08102 -0.54183,2.83423 3.6253,3.67567 h -3.78676 l -5.94981,6.2919 -3.572,-1.8472 -2.68076,0.67285 -0.60342,1.12756 c -0.33189,0.62016 -0.84332,1.12757 -1.13647,1.12757 z"
     style="opacity:1;fill:#b3b3b3"
     id="CA_26"
     inkscape:connector-curvature="0" />
</svg>
