<?xml version="1.0" encoding="UTF-8" standalone="no"?>
<svg
   xmlns:dc="http://purl.org/dc/elements/1.1/"
   xmlns:cc="http://creativecommons.org/ns#"
   xmlns:rdf="http://www.w3.org/1999/02/22-rdf-syntax-ns#"
   xmlns:svg="http://www.w3.org/2000/svg"
   xmlns="http://www.w3.org/2000/svg"
   xmlns:sodipodi="http://sodipodi.sourceforge.net/DTD/sodipodi-0.dtd"
   xmlns:inkscape="http://www.inkscape.org/namespaces/inkscape"
   version="1.0"
   width="172.25"
   height="101.625"
   id="svg2"
   sodipodi:docname="CA_22.svg"
   inkscape:version="0.92.2 5c3e80d, 2017-08-06">
  <metadata
     id="metadata120">
    <rdf:RDF>
      <cc:Work
         rdf:about="">
        <dc:format>image/svg+xml</dc:format>
        <dc:type
           rdf:resource="http://purl.org/dc/dcmitype/StillImage" />
      </cc:Work>
    </rdf:RDF>
  </metadata>
  <defs
     id="defs118" />
  <sodipodi:namedview
     pagecolor="#ffffff"
     bordercolor="#666666"
     borderopacity="1"
     objecttolerance="10"
     gridtolerance="10"
     guidetolerance="10"
     inkscape:pageopacity="0"
     inkscape:pageshadow="2"
     inkscape:window-width="640"
     inkscape:window-height="480"
     id="namedview116"
     showgrid="false"
     inkscape:zoom="0.12542268"
     inkscape:cx="1184.1637"
     inkscape:cy="148.96942"
     inkscape:window-x="0"
     inkscape:window-y="0"
     inkscape:window-maximized="0"
     inkscape:current-layer="svg2" />
  <path
     d="m 0,0 c 0.0303,0.0324 0.064,0.0605 0.0937,0.0937 0.17358,0.19406 0.33556,0.42007 0.40625,0.6875 0.058,0.2195 -0.0102,0.47077 -0.125,0.71875 0.0659,1.25856 0.42853,2.50504 0.96875,3.65625 v 0.0312 c 0.39196,1.27308 1.68444,1.98401 2.59375,3.125 0.009,0.0119 0.0219,0.0193 0.0312,0.0312 0.28939,0.29249 0.45901,0.58277 0.46875,0.875 0.0102,0.30473 -0.11925,0.58844 -0.28125,0.8125 -0.324,0.44813 -0.77684,0.83049 -0.90625,1.21875 -0.22252,0.50076 -0.12088,0.77226 0.0937,1.09375 0.21463,0.32149 0.56789,0.65888 0.8125,1.125 l 0.0312,0.0625 v 0.0625 c -0.0273,0.39858 -0.21024,0.69465 -0.46875,0.84375 -0.25851,0.1491 -0.55997,0.18435 -0.84375,0.1875 -0.28378,0.003 -0.54196,-0.0221 -0.78125,0 -0.18745,0.0173 -0.3235,0.084 -0.4375,0.15625 -0.0457,0.48725 0.10758,1.01622 0.40625,1.5625 0.31691,0.57965 0.7286,1.15436 1.03125,1.71875 l 0.0312,0.0312 v 0.0312 c 0.19397,1.09701 0.88837,1.90439 1.625,2.8125 v 0.0312 h 0.0312 c 0.52299,0.89212 1.6612,1.27391 2.71875,1.375 0.01,9.5e-4 0.0213,-9e-4 0.0312,0 0.67289,-0.16416 1.27039,-0.0416 1.65625,0.34375 0.3603,0.35981 0.4653,0.94224 0.46875,1.53125 h 0.0312 c 0.94017,1.19936 0.71262,2.59114 0.8125,3.875 v 0.0312 c -0.0128,0.48777 0.34482,0.9061 0.71875,1.375 0.18696,0.23445 0.36877,0.47125 0.5,0.75 0.13123,0.27875 0.20692,0.62327 0.125,0.96875 l -0.0312,0.0312 c -0.44719,0.93528 -0.60986,2.29922 -0.15625,3.15625 0.83976,0.74614 1.98491,1.32264 3.09375,1.28125 1.03012,0.0104 2.16451,-0.14388 3.21875,0.40625 0.0215,0.0112 0.0411,0.0194 0.0625,0.0312 0.37392,0.11286 0.65333,0.35896 0.8125,0.65625 0.1696,0.31678 0.24563,0.66952 0.1875,1 -0.0581,0.33048 -0.24771,0.65804 -0.5625,0.8125 -0.28972,0.14216 -0.66294,0.0417 -1.0625,-0.15625 v 0.0312 c -0.31278,-0.0272 -0.45223,0.0572 -0.53125,0.15625 -0.079,0.0991 -0.11293,0.29511 -0.0937,0.53125 0.0384,0.47228 0.33716,1.09883 0.5625,1.375 0.23925,0.32823 0.70872,0.79369 1,1.3125 0.14564,0.25941 0.26118,0.54125 0.25,0.84375 -0.009,0.23864 -0.1965,0.47283 -0.375,0.6875 -0.004,0.36845 0.14661,0.74576 0.34375,1.15625 0.19714,0.41049 0.45667,0.83261 0.5625,1.3125 v 0.125 l -0.0625,0.0937 c -0.6386,0.806 -0.6906,2.27756 -0.125,3.125 0.30601,0.32075 0.66979,0.66341 0.84375,1.0625 0.0898,0.206 0.1144,0.45501 0.0312,0.6875 -0.0393,0.10981 -0.16577,0.18539 -0.25,0.28125 0.27208,0.21149 0.5701,0.34274 1.03125,0.3125 0.55851,-0.0366 1.19219,-0.18619 1.75,-0.15625 0.32372,-0.1187 0.63268,-0.18113 0.875,-0.0937 0.27754,0.10008 0.46747,0.33957 0.5625,0.59375 0.19006,0.50835 0.11175,1.16028 0,1.65625 -0.20173,0.64358 -0.0845,1.0892 0.1875,1.5 0.27202,0.4108 0.73158,0.77535 1.21875,1.15625 l 0.0312,0.0312 0.0312,0.0312 c 0.32715,0.51455 0.8812,0.95279 1.375,1.46875 0.4938,0.51596 0.93809,1.13131 0.9375,1.96875 0.20878,0.26384 0.44254,0.5319 0.625,0.78125 l 1.625,2.1875 0.75,-2 -1.28125,-3.40625 0.6875,-1.125 6.65625,0.59375 1,-1.21875 c 0.55681,-0.67228 1.59525,-1.51633 2.28125,-1.90625 l 1.25,-0.71875 h 2.71875 l 0.6567,1.6881 h 1.625 l 2.125,2.90625 2.53125,0.1875 V 58.125 c 0,0.25532 0.4229,0.63436 0.96875,0.84375 0.54586,0.20938 2.22227,1.5974 3.71875,3.09375 l 2.71875,2.71875 h 2.625 l 2.21875,1.75 c 1.21257,0.96338 2.84521,2.4927 3.625,3.40625 l 1.40625,1.65625 1.71875,0.21875 c 0.93576,0.11104 2.64278,0.39479 3.8125,0.625 l 2.125,0.40625 V 74.25 l 4.8125,1.09375 -0.28125,1.34375 H 82 v 3.1875 l 12.46875,2.59375 v 1.375 l 4.78125,1.0625 2.0625,11.03125 6.125,1.4375 c 2.68904,0.52987 5.65798,1.31566 6.59375,1.75 0.93576,0.4343 2.72108,1.17282 3.96875,1.625 1.24768,0.45217 2.85471,0.85306 3.0625,0.875 0.51618,-0.97756 0.86497,-2.12973 1.375,-3.15625 l 1.4375,-0.6875 c 0.79352,-0.37448 2.00791,-0.68752 2.6875,-0.6875 l 1.5625,0.0625 0.59375,2.53125 2.375,-0.0625 1.375,-1.5625 c -0.15322,-3.27642 0.10889,-5.35597 0.71875,-8.40625 l 28,5 c 3.42913,-16.79489 6.56503,-33.65481 9.375,-50.5625 h 1.40625 L 171.84375,42.5 169.5,42.4688 171.46875,40.0313 172.25,35.43755 C 145.10312,31.01656 142.20128,30.13464 93.625,20.6563 c -0.82637,2.40496 -1.33758,4.89026 -2,7.34375 l 0.03125,4.1562 1.625,3.1875 -0.84375,5.625 -2.96875,1.5625 -1.3125,-1.5625 h -3.75 l -0.59375,2.25 h 1.53125 l 1.1875,2.21875 v 3.9375 l 8.09375,2.0625 1.1875,2.59375 1.25,-0.125 -0.15625,-6.875 c 0.76444,-0.58749 2.06308,-1.49778 2.375,-1.5 0.82656,0.22305 1.5867,0.53794 2.28125,1.0625 0.10158,5.48862 0.31567,6.79463 0.96875,10.1875 l 3.28125,1.125 v 2.8125 L 104.03125,62.5 H 101.25 L 100.09375,59.96875 95.53125,57.75 93.3125,54.625 C 89.0728,53.52648 85.32795,52.2879 81.125,50.34375 79.63833,46.8115 78.53085,44.40727 76.125,41.5 l -4.75,-3.25 -0.15625,-2.71875 C 69.65641,33.5036 66.56795,33.95413 63.09375,32 L 60.78125,33.25 58.9375,31.5 61.03125,26.625 60.375,24.53125 55.03125,23.4375 46.71875,15.53125 47.5,10.96875 Z"
     style="opacity:1;fill:#b3b3b3;fill-opacity:1"
     id="CA_22"
     inkscape:connector-curvature="0" />
</svg>
