<?xml version="1.0" encoding="UTF-8" standalone="no"?>
<svg
   xmlns:dc="http://purl.org/dc/elements/1.1/"
   xmlns:cc="http://creativecommons.org/ns#"
   xmlns:rdf="http://www.w3.org/1999/02/22-rdf-syntax-ns#"
   xmlns:svg="http://www.w3.org/2000/svg"
   xmlns="http://www.w3.org/2000/svg"
   xmlns:sodipodi="http://sodipodi.sourceforge.net/DTD/sodipodi-0.dtd"
   xmlns:inkscape="http://www.inkscape.org/namespaces/inkscape"
   version="1.0"
   width="17.196079"
   height="10.10561"
   id="svg2"
   sodipodi:docname="CA_32.svg"
   inkscape:version="0.92.2 5c3e80d, 2017-08-06">
  <metadata
     id="metadata208">
    <rdf:RDF>
      <cc:Work
         rdf:about="">
        <dc:format>image/svg+xml</dc:format>
        <dc:type
           rdf:resource="http://purl.org/dc/dcmitype/StillImage" />
      </cc:Work>
    </rdf:RDF>
  </metadata>
  <defs
     id="defs206" />
  <sodipodi:namedview
     pagecolor="#ffffff"
     bordercolor="#666666"
     borderopacity="1"
     objecttolerance="10"
     gridtolerance="10"
     guidetolerance="10"
     inkscape:pageopacity="0"
     inkscape:pageshadow="2"
     inkscape:window-width="640"
     inkscape:window-height="480"
     id="namedview204"
     showgrid="false"
     inkscape:zoom="0.12542268"
     inkscape:cx="1059.6336"
     inkscape:cy="189.25402"
     inkscape:window-x="0"
     inkscape:window-y="0"
     inkscape:window-maximized="0"
     inkscape:current-layer="svg2" />
  <path
     d="M 14.52161,10.10561 11.13035,6.70284 H 10.07408 C 9.49305,6.70284 8.29715,7.0755 7.4164,7.5309 L 5.81511,8.35896 5.41959,7.96351 C 5.20204,7.74596 4.7231,7.5575 4.35521,7.54462 3.98731,7.53172 2.85691,7.31681 1.84317,7.06699 L 0.52432,6.40299 0,5.23993 V 3.86719 h 0.4537 c 0.24954,0 0.72547,0.27177 1.05764,0.60394 L 2.11533,5.07512 9.28412,4.26407 13.91008,0 15.8796,1.44016 v 1.2212 c 0,0.67165 0.29621,1.69555 0.65821,2.27521 l 0.65827,1.05401 C 16.342,7.38747 15.49664,8.79395 14.52161,10.10561 Z"
     style="opacity:1;fill:#b3b3b3"
     id="CA_32"
     inkscape:connector-curvature="0" />
</svg>
