<?xml version="1.0" encoding="UTF-8" standalone="no"?>
<svg
   xmlns:dc="http://purl.org/dc/elements/1.1/"
   xmlns:cc="http://creativecommons.org/ns#"
   xmlns:rdf="http://www.w3.org/1999/02/22-rdf-syntax-ns#"
   xmlns:svg="http://www.w3.org/2000/svg"
   xmlns="http://www.w3.org/2000/svg"
   xmlns:sodipodi="http://sodipodi.sourceforge.net/DTD/sodipodi-0.dtd"
   xmlns:inkscape="http://www.inkscape.org/namespaces/inkscape"
   version="1.0"
   width="166.70872"
   height="107.85534"
   id="svg2"
   sodipodi:docname="CA_41.svg"
   inkscape:version="0.92.2 5c3e80d, 2017-08-06">
  <metadata
     id="metadata288">
    <rdf:RDF>
      <cc:Work
         rdf:about="">
        <dc:format>image/svg+xml</dc:format>
        <dc:type
           rdf:resource="http://purl.org/dc/dcmitype/StillImage" />
      </cc:Work>
    </rdf:RDF>
  </metadata>
  <defs
     id="defs286" />
  <sodipodi:namedview
     pagecolor="#ffffff"
     bordercolor="#666666"
     borderopacity="1"
     objecttolerance="10"
     gridtolerance="10"
     guidetolerance="10"
     inkscape:pageopacity="0"
     inkscape:pageshadow="2"
     inkscape:window-width="640"
     inkscape:window-height="480"
     id="namedview284"
     showgrid="false"
     inkscape:zoom="0.12542268"
     inkscape:cx="1020.4746"
     inkscape:cy="217.26019"
     inkscape:window-x="0"
     inkscape:window-y="0"
     inkscape:window-maximized="0"
     inkscape:current-layer="svg2" />
  <path
     d="m 24.30118,107.85534 -3.41043,-0.90048 0.34946,-2.90376 -4.65669,-1.55665 -0.64908,-1.42457 c -0.35701,-0.78355 -0.64908,-1.87193 -0.64908,-2.41875 0,-0.54677 0.28056,-1.27468 0.62345,-1.61757 l 0.6235,-0.6235 -0.33858,-1.04953 C 16.00755,94.78325 14.9976,93.41772 13.94938,92.326 12.90121,91.23428 10.98766,89.71624 9.6971,88.9526 L 7.35067,87.56416 6.72042,85.57847 4.50992,84.87688 v -1.05781 h 1.46523 l 4.92682,-5.02005 -0.68515,-1.7855 H 8.12037 L 0.45631,69.38706 1.00177,66.53372 0,64.66191 2.2414,64.07573 v -0.87032 c 0,-0.47865 -0.25424,-1.02746 -0.56503,-1.21949 l -0.42317,-0.68039 1.63711,-3.10905 2.09447,1.89546 2.47891,-2.47892 3.15863,0.63172 V 49.916 L 7.82903,47.9133 c 0.006,-0.55255 0.43477,-2.5172 0.8372,-4.0768 l 0.73166,-2.83565 c 2.28029,-1.32992 3.89831,-2.28139 6.84087,-3.13826 l 2.09435,4.64439 1.77285,-2.15124 7.51184,-3.60835 h 4.756 l 1.12785,-0.6036 c 0.62033,-0.332 2.7001,-0.85682 4.6217,-1.1663 l 3.4938,-0.56265 7.9795,-3.75337 6.23842,-1.43103 1.70677,-1.48112 3.11649,-0.39869 3.11654,-0.39869 1.70138,-0.83816 c 0.93577,-0.46096 2.33941,-1.45219 3.11921,-2.20267 0.7798,-0.75054 2.82725,-2.58055 4.54985,-4.06671 l 3.13202,-2.70209 1.97214,-0.79029 c 1.08469,-0.4347 3.06334,-1.55847 4.397,-2.49735 l 2.42487,-1.70706 2.16712,-0.0352 2.16711,-0.0352 0.79574,-0.6328 c 0.43765,-0.34805 1.56136,-0.80839 2.49712,-1.02293 0.93576,-0.21461 2.72222,-0.58466 3.9699,-0.82228 1.24769,-0.23769 2.90654,-0.77567 3.68634,-1.19557 4.555,-2.52264 8.36894,-6.60092 13.31505,-8.40371 l 34.8272,47.87865 -1.13307,8.17635 2.33102,2.96336 v 3.09686 l 4.42439,5.00894 0.44707,3.38508 c 0.24585,1.86177 0.47769,3.64028 0.51518,3.95221 0.0375,0.31192 0.4651,1.42978 0.95022,2.48413 l 0.88206,1.91707 -1.00257,4.46194 0.65611,1.06161 h 2.20159 v 0.48495 c 0,0.26672 1.53057,2.06866 3.40125,4.00438 1.87073,1.93567 3.65718,3.99752 3.9699,4.58189 0.31277,0.58443 0.56866,1.58972 0.56866,2.23409 v 1.17152 h -1.47976 l -2.17771,1.9947 -2.17772,1.99471 -1.47765,0.34997 c -0.8127,0.19249 -1.86047,0.67012 -2.32835,1.06139 -0.46788,0.39126 -1.74392,0.89691 -2.83564,1.12359 -1.09173,0.22668 -2.65196,0.79994 -3.46715,1.27394 l -1.48224,0.86175 -43.82368,-6.39154 c 0.0804,0.79534 -0.034,1.55932 -0.25459,2.26852 l -59.71491,-9.64119 -0.75235,5.67129 -6.21199,-1.75067 -1.89494,1.06047 -4.61439,-1.63401 -2.44739,2.83292 -4.92528,-0.22515 z"
     style="fill:#b3b3b3"
     id="CA_41"
     inkscape:connector-curvature="0" />
</svg>
