<?xml version="1.0" encoding="UTF-8" standalone="no"?>
<svg
   xmlns:dc="http://purl.org/dc/elements/1.1/"
   xmlns:cc="http://creativecommons.org/ns#"
   xmlns:rdf="http://www.w3.org/1999/02/22-rdf-syntax-ns#"
   xmlns:svg="http://www.w3.org/2000/svg"
   xmlns="http://www.w3.org/2000/svg"
   xmlns:sodipodi="http://sodipodi.sourceforge.net/DTD/sodipodi-0.dtd"
   xmlns:inkscape="http://www.inkscape.org/namespaces/inkscape"
   version="1.0"
   width="138.41486"
   height="53.880901"
   id="svg2"
   sodipodi:docname="CA_51.svg"
   inkscape:version="0.92.2 5c3e80d, 2017-08-06">
  <metadata
     id="metadata376">
    <rdf:RDF>
      <cc:Work
         rdf:about="">
        <dc:format>image/svg+xml</dc:format>
        <dc:type
           rdf:resource="http://purl.org/dc/dcmitype/StillImage" />
      </cc:Work>
    </rdf:RDF>
  </metadata>
  <defs
     id="defs374" />
  <sodipodi:namedview
     pagecolor="#ffffff"
     bordercolor="#666666"
     borderopacity="1"
     objecttolerance="10"
     gridtolerance="10"
     guidetolerance="10"
     inkscape:pageopacity="0"
     inkscape:pageshadow="2"
     inkscape:window-width="640"
     inkscape:window-height="480"
     id="namedview372"
     showgrid="false"
     inkscape:zoom="0.12542268"
     inkscape:cx="1021.9532"
     inkscape:cy="296.61227"
     inkscape:window-x="0"
     inkscape:window-y="0"
     inkscape:window-maximized="0"
     inkscape:current-layer="svg2" />
  <path
     d="m 62.21246,0 -3.66745,20.717 -1.43202,0.9727 -1.3394,9.3288 h -6.57518 l 0.54944,2.109 -1.87198,1.7456 0.13515,10.1819 -2.08226,0.1676 -1.65728,-0.9829 -1.45326,0.1064 c -0.79552,0.05 -1.69424,0.2347 -2.00265,0.4253 l -7.03597,0.3545 0.0721,-1.3569 -6.43453,-2.5776 c -0.89905,-0.106 -1.41364,0.1003 -2.04837,0.547 l -0.5146,2.4929 -7.95653,-1.0519 -1.91495,1.783 c -2.29506,0.1937 -1.32005,-0.01 -2.80274,-0.9698 l -1.65264,0.07 1.75458,-5.7776 -4.83835,-4.4839 -2.86669,0.8995 -0.47175,2.3737 -2.00165,0.4874 -2.10347,7.0326 123.7227,9.1095 1.1874,-1.1697 5.03326,1.3469 4.21802,-0.7975 v -2.0913 l 4.25347,-3.4205 c -0.28946,-3.4323 0.0344,-6.9118 -0.25509,-10.3441 l -8.46452,-1.158 -0.7798,-3.6331 -1.25829,-0.7976 2.77699,-4.3568 0.57259,-6.5604 -2.18539,-2.1345 2.04361,-2.5443 -0.69116,-4.3066 4.83829,0.018 0.47795,-0.7532 C 111.04423,7.9139 94.64207,5.4308 62.21247,5e-4 Z"
     style="fill:#b3b3b3"
     id="CA_51"
     inkscape:connector-curvature="0" />
</svg>
