<?xml version="1.0" encoding="UTF-8" standalone="no"?>
<svg
   xmlns:dc="http://purl.org/dc/elements/1.1/"
   xmlns:cc="http://creativecommons.org/ns#"
   xmlns:rdf="http://www.w3.org/1999/02/22-rdf-syntax-ns#"
   xmlns:svg="http://www.w3.org/2000/svg"
   xmlns="http://www.w3.org/2000/svg"
   xmlns:sodipodi="http://sodipodi.sourceforge.net/DTD/sodipodi-0.dtd"
   xmlns:inkscape="http://www.inkscape.org/namespaces/inkscape"
   version="1.0"
   width="25.37606"
   height="17.60799"
   id="svg2"
   sodipodi:docname="CO_1.svg"
   inkscape:version="0.92.2 5c3e80d, 2017-08-06">
  <metadata
     id="metadata8">
    <rdf:RDF>
      <cc:Work
         rdf:about="">
        <dc:format>image/svg+xml</dc:format>
        <dc:type
           rdf:resource="http://purl.org/dc/dcmitype/StillImage" />
      </cc:Work>
    </rdf:RDF>
  </metadata>
  <defs
     id="defs6" />
  <sodipodi:namedview
     pagecolor="#ffffff"
     bordercolor="#666666"
     borderopacity="1"
     objecttolerance="10"
     gridtolerance="10"
     guidetolerance="10"
     inkscape:pageopacity="0"
     inkscape:pageshadow="2"
     inkscape:window-width="640"
     inkscape:window-height="480"
     id="namedview4"
     showgrid="false"
     inkscape:zoom="0.12542268"
     inkscape:cx="377.4588"
     inkscape:cy="-80.838809"
     inkscape:window-x="0"
     inkscape:window-y="0"
     inkscape:window-maximized="0"
     inkscape:current-layer="svg2" />
  <path
     d="M 0.98664,17.60799 0,16.8203 0.28362,16.16572 C 0.90746,15.69438 2.34854,15.61742 2.22802,15.36148 1.57991,13.98483 2.385,14.08249 2.77491,13.69259 L 3.48382,12.98368 V 6.89186 l 6.89776,0.28153 0.67204,-1.54617 1.14623,-0.0537 -0.0285,1.32357 3.66773,-0.006 0.0789,-2.87614 2.5311,-0.12153 L 19.24731,0.67071 20.89624,2e-5 c 1.52506,0.31742 2.15639,0.59645 3.66098,0.9965 l 0.81882,0.3164 -1.12178,1.00671 c -0.28277,0.5314 0.0239,1.93113 -0.16016,2.51652 l -1.79303,0.65918 -4.48474,-0.81032 -1.41629,1.70655 0.91455,0.351 c 0.50299,0.19299 0.91455,0.57881 0.91455,0.85738 v 0.50645 h -4.46319 l -3.02818,1.15133 0.93718,3.21063 -1.8857,1.56391 1.96572,0.0755 0.2239,1.16931 -0.62758,0.84474 -1.64031,1.29038 -0.22299,-1.7218 -3.5884,-1.35073 -2.16025,0.82228 0.50758,1.61603 z"
     style="fill:#b3b3b3;fill-opacity:1"
     id="CO_1"
     inkscape:connector-curvature="0" />
</svg>
