<?xml version="1.0" encoding="UTF-8" standalone="no"?>
<svg
   xmlns:dc="http://purl.org/dc/elements/1.1/"
   xmlns:cc="http://creativecommons.org/ns#"
   xmlns:rdf="http://www.w3.org/1999/02/22-rdf-syntax-ns#"
   xmlns:svg="http://www.w3.org/2000/svg"
   xmlns="http://www.w3.org/2000/svg"
   xmlns:sodipodi="http://sodipodi.sourceforge.net/DTD/sodipodi-0.dtd"
   xmlns:inkscape="http://www.inkscape.org/namespaces/inkscape"
   version="1.0"
   width="106.58089"
   height="68.694427"
   id="svg2"
   sodipodi:docname="CO_2.svg"
   inkscape:version="0.92.2 5c3e80d, 2017-08-06">
  <metadata
     id="metadata16">
    <rdf:RDF>
      <cc:Work
         rdf:about="">
        <dc:format>image/svg+xml</dc:format>
        <dc:type
           rdf:resource="http://purl.org/dc/dcmitype/StillImage" />
      </cc:Work>
    </rdf:RDF>
  </metadata>
  <defs
     id="defs14" />
  <sodipodi:namedview
     pagecolor="#ffffff"
     bordercolor="#666666"
     borderopacity="1"
     objecttolerance="10"
     gridtolerance="10"
     guidetolerance="10"
     inkscape:pageopacity="0"
     inkscape:pageshadow="2"
     inkscape:window-width="640"
     inkscape:window-height="480"
     id="namedview12"
     showgrid="false"
     inkscape:zoom="0.12542268"
     inkscape:cx="473.21598"
     inkscape:cy="-68.222409"
     inkscape:window-x="0"
     inkscape:window-y="0"
     inkscape:window-maximized="0"
     inkscape:current-layer="svg2" />
  <path
     d="m 39.84311,68.21078 c -0.55074,0.12125 -1.68448,0.13691 -2.51941,0.0348 L 35.80561,68.05996 35.12749,67.2429 c -0.37294,-0.44934 -1.00835,-0.81701 -1.41203,-0.81701 -0.40369,0 -0.81905,0.25521 -0.92306,0.56708 L 32.0004,67.65526 0,64.67829 2.59903,31.33492 25.30471,32.22962 27.05708,6.02669 26.03767,5.36558 26.41532,0.1015 l 0.88257,0.97353 0.24783,2.11601 3.9234,1.88565 2.11249,-2.58894 0.54609,0.50327 -0.0113,1.69594 2.18174,1.80676 3.53718,-0.1449 2.19507,1.66282 0.78332,-1.82831 1.1215,0.0783 1.49285,2.31718 h 2.13728 l 1.04766,-1.26487 0.86623,1.1836 6.14893,-2.28094 2.73962,1.79508 c 0.49216,-0.7975 0.57241,-1.76451 1.06553,-2.49974 L 61.81048,3.97746 V 2e-5 l 4.0037,0.32366 -0.59656,3.6539 1.70116,3.40929 3.39449,3.20076 0.82512,3.46317 22.24817,1.52853 -1.56278,4.58716 2.29069,1.73984 c 0.23842,1.24184 0.4587,2.49508 0.8655,3.68634 l 9.68831,-3.96888 1.91259,3.23773 -1.0455,6.42387 0.56259,5.36629 -2.60352,4.46653 -4.07629,0.79137 -1.04409,-1.4227 -3.59123,-0.78882 -1.08922,1.86818 -3.90548,-0.14342 -1.71176,-2.21906 h -2.50064 l -2.72818,2.94379 -1.29832,15.83724 -19.3755,-1.2905 -0.39886,1.79184 -0.69111,0.0672 c -0.38009,0.037 -0.88251,0.037 -1.11645,0 -0.23394,-0.0369 -0.45727,0.18806 -0.49623,0.49998 -0.039,0.31192 -0.10708,0.75853 -0.15126,0.99248 -0.0442,0.23394 -0.57943,0.99956 -1.18944,1.70138 -0.60994,0.70182 -1.32572,1.27604 -1.59062,1.27604 -0.26485,0 -0.84616,0.36461 -1.29175,0.8102 -0.44559,0.44559 -0.8102,1.04046 -0.8102,1.32198 0,0.28146 -0.63802,0.85324 -1.41782,1.27059 l -1.41782,0.75882 v 1.5097 l -0.70892,-0.009 c -0.3899,-0.005 -1.72974,-0.37629 -2.97742,-0.82579 l -2.26852,-0.81723 -4.18654,-0.0498 -0.30818,0.49868 c -0.16951,0.27426 -0.75876,0.59787 -1.3095,0.71906 z"
     style="fill:#b3b3b3;fill-opacity:1"
     id="CO_2"
     inkscape:connector-curvature="0" />
</svg>
