<?xml version="1.0" encoding="UTF-8" standalone="no"?>
<svg
   xmlns:dc="http://purl.org/dc/elements/1.1/"
   xmlns:cc="http://creativecommons.org/ns#"
   xmlns:rdf="http://www.w3.org/1999/02/22-rdf-syntax-ns#"
   xmlns:svg="http://www.w3.org/2000/svg"
   xmlns="http://www.w3.org/2000/svg"
   xmlns:sodipodi="http://sodipodi.sourceforge.net/DTD/sodipodi-0.dtd"
   xmlns:inkscape="http://www.inkscape.org/namespaces/inkscape"
   version="1.0"
   width="293.41824"
   height="266.83405"
   id="svg2"
   sodipodi:docname="CO_3.svg"
   inkscape:version="0.92.2 5c3e80d, 2017-08-06">
  <metadata
     id="metadata24">
    <rdf:RDF>
      <cc:Work
         rdf:about="">
        <dc:format>image/svg+xml</dc:format>
        <dc:type
           rdf:resource="http://purl.org/dc/dcmitype/StillImage" />
      </cc:Work>
    </rdf:RDF>
  </metadata>
  <defs
     id="defs22" />
  <sodipodi:namedview
     pagecolor="#ffffff"
     bordercolor="#666666"
     borderopacity="1"
     objecttolerance="10"
     gridtolerance="10"
     guidetolerance="10"
     inkscape:pageopacity="0"
     inkscape:pageshadow="2"
     inkscape:window-width="640"
     inkscape:window-height="480"
     id="namedview20"
     showgrid="false"
     inkscape:zoom="0.12542268"
     inkscape:cx="578.74389"
     inkscape:cy="85.893451"
     inkscape:window-x="0"
     inkscape:window-y="0"
     inkscape:window-maximized="0"
     inkscape:current-layer="svg2" />
  <path
     d="M 23.57129,0 0,248.15425 c 107.82625,8.22172 180.75912,14.44426 291.57504,18.6798 l 1.8432,-39.55723 h -15.98599 l 0.6558,-12.19326 -2.7825,2.55208 h -1.8609 l -2.7647,-4.8206 -0.7621,-5.44092 1.4532,-1.15195 c 0.8013,-0.63031 1.4533,-1.3885 1.4533,-1.68369 v -0.53168 l -2.747,0.69121 -1.2938,-2.41029 0.7089,-2.23307 h -2.9065 v -2.71162 c -9.444,0.0865 -4.5991,-1.25596 -15.472,-1.71908 l -0.8152,-1.32923 -0.7798,0.10633 c -0.4347,0.0609 -1.1381,0.0901 -1.5596,0.0532 l -0.77982,-0.0709 1.06332,-23.60673 c -13.87759,-0.45473 -28.67251,-1.19205 -42.1979,-2.03815 l -0.83295,16.57082 c -13.93673,-0.62464 -26.74924,-1.78356 -41.80804,-2.83564 l -2.00265,-1.75459 c -1.10255,-0.96808 -2.0027,-2.023 -2.0027,-2.3394 0,-0.3164 -0.70182,-1.40552 -1.5596,-2.42799 -0.85779,-1.02259 -2.37304,-2.83304 -3.36733,-4.0231 l -1.80772,-2.16218 -2.32166,2.09129 -7.42587,-0.60258 -5.22819,-5.75987 -0.21267,-6.29161 -1.41782,-1.5596 c -0.77385,-0.85206 -1.69606,-2.23534 -2.05584,-3.08377 l -0.54944,-2.02039 1.68369,-0.12403 0.19493,-1.77228 c 0.0806,-0.73976 0.16889,-2.26687 0.19498,-3.40277 l 0.0531,-2.0736 2.55207,-0.7266 1.34694,-1.70139 c 0.73834,-0.94274 1.23673,-1.81163 1.11656,-1.93181 -0.12012,-0.12012 -0.89652,-0.31283 -1.73683,-0.42534 -0.84037,-0.11258 -1.7095,-0.38026 -1.91406,-0.58483 l -0.37221,-0.3722 -3.10146,0.62032 -2.42804,-3.40277 v -1.80772 h -2.71156 l -0.49624,-3.42053 1.55961,-1.29373 -0.56713,-1.48871 0.81524,-1.57736 c 0.45246,-0.86742 0.83108,-1.89631 0.83295,-2.28621 v -0.70891 h 2.12673 l 1.40013,-3.38508 -0.60258,-1.5773 1.22285,-1.22289 -1.45327,-1.75453 1.41782,-1.70139 h 2.69386 v -2.17993 l -32.62759,-3.04831 2.78244,-34.47077 22.82693,0.97473 c 0.31726,-9.59627 1.05118,-15.6206 1.6837,-25.0777 l -0.93934,-0.65577 0.76211,-6.43333 1.54185,1.27603 v 2.12674 l 3.68634,1.5064 2.07359,-2.65841 1.04561,0.65577 v 2.05584 l 1.73684,1.45327 3.63319,-0.10634 1.86087,1.68364 0.67346,-1.75453 h 1.70139 l 1.20515,2.26852 h 2.0027 l 1.5064,-1.41783 0.51399,1.38238 6.20297,-2.32171 2.71156,1.77228 0.70891,-2.25077 2.19762,-1.1697 v -4.69656 l 2.26852,0.0709 v -2.14443 h -2.03809 l -0.63802,-2.69386 c -0.34618,-1.48162 -0.91348,-3.8423 -1.25835,-5.24594 -0.34481,-1.40364 -0.83674,-3.0625 -1.09881,-3.68634 -0.26207,-0.62384 -1.0155,-2.24259 -1.68363,-3.59775 -0.66819,-1.35515 -1.2229,-2.75579 -1.2229,-3.11921 v -0.67346 l -2.26852,-1.40007 v -1.70139 h -1.13426 V 17.0493 l -2.26851,-2.05584 0.0177,-3.91676 z"
     style="fill:#b3b3b3;fill-opacity:1"
     id="CO_3"
     inkscape:connector-curvature="0" />
</svg>
