<?xml version="1.0" encoding="UTF-8" standalone="no"?>
<svg
   xmlns:dc="http://purl.org/dc/elements/1.1/"
   xmlns:cc="http://creativecommons.org/ns#"
   xmlns:rdf="http://www.w3.org/1999/02/22-rdf-syntax-ns#"
   xmlns:svg="http://www.w3.org/2000/svg"
   xmlns="http://www.w3.org/2000/svg"
   xmlns:sodipodi="http://sodipodi.sourceforge.net/DTD/sodipodi-0.dtd"
   xmlns:inkscape="http://www.inkscape.org/namespaces/inkscape"
   version="1.0"
   width="71.547791"
   height="21.784149"
   id="svg2"
   sodipodi:docname="CO_7.svg"
   inkscape:version="0.92.2 5c3e80d, 2017-08-06">
  <metadata
     id="metadata56">
    <rdf:RDF>
      <cc:Work
         rdf:about="">
        <dc:format>image/svg+xml</dc:format>
        <dc:type
           rdf:resource="http://purl.org/dc/dcmitype/StillImage" />
      </cc:Work>
    </rdf:RDF>
  </metadata>
  <defs
     id="defs54" />
  <sodipodi:namedview
     pagecolor="#ffffff"
     bordercolor="#666666"
     borderopacity="1"
     objecttolerance="10"
     gridtolerance="10"
     guidetolerance="10"
     inkscape:pageopacity="0"
     inkscape:pageshadow="2"
     inkscape:window-width="640"
     inkscape:window-height="480"
     id="namedview52"
     showgrid="false"
     inkscape:zoom="0.12542268"
     inkscape:cx="382.00263"
     inkscape:cy="-82.882579"
     inkscape:window-x="0"
     inkscape:window-y="0"
     inkscape:window-maximized="0"
     inkscape:current-layer="svg2" />
  <path
     d="M 15.01218,0 15.45425,4.36769 12.93864,9.21585 7.94479,10.21569 6.71497,8.62898 3.88766,8.05448 2.54867,10.13839 0,11.57737 0.0896,16.26951 5.83938,21.78415 6.41343,21.60483 6.05364,20.15077 7.46228,19.45961 v -6.92963 l 7.35497,0.3722 0.54938,-1.41782 h 1.73683 v 1.13426 h 2.83565 V 9.78297 h 2.85339 l 0.69116,-3.36732 1.84317,-0.56713 5.24106,1.44119 -1.55472,1.58937 v 2.53439 l -2.32166,0.74436 -4.37755,-0.74436 -0.74436,1.20515 h 1.77228 v 2.26851 l -2.69386,0.0531 c -1.48163,0.0219 -3.20422,0.23462 -3.82812,0.47855 l -1.13426,0.44304 c 19.31346,1.34942 33.2955,1.89245 55.11785,2.56983 l 0.7443,-15.41881 z"
     style="fill:#b3b3b3;fill-opacity:1"
     id="CO_7"
     inkscape:connector-curvature="0" />
</svg>
