<?xml version="1.0" encoding="UTF-8" standalone="no"?>
<svg
   xmlns:dc="http://purl.org/dc/elements/1.1/"
   xmlns:cc="http://creativecommons.org/ns#"
   xmlns:rdf="http://www.w3.org/1999/02/22-rdf-syntax-ns#"
   xmlns:svg="http://www.w3.org/2000/svg"
   xmlns="http://www.w3.org/2000/svg"
   xmlns:sodipodi="http://sodipodi.sourceforge.net/DTD/sodipodi-0.dtd"
   xmlns:inkscape="http://www.inkscape.org/namespaces/inkscape"
   version="1.0"
   width="51.646999"
   height="54.975788"
   id="svg2"
   sodipodi:docname="CT_2.svg"
   inkscape:version="0.92.2 5c3e80d, 2017-08-06">
  <metadata
     id="metadata16">
    <rdf:RDF>
      <cc:Work
         rdf:about="">
        <dc:format>image/svg+xml</dc:format>
        <dc:type
           rdf:resource="http://purl.org/dc/dcmitype/StillImage" />
      </cc:Work>
    </rdf:RDF>
  </metadata>
  <defs
     id="defs14" />
  <sodipodi:namedview
     pagecolor="#ffffff"
     bordercolor="#666666"
     borderopacity="1"
     objecttolerance="10"
     gridtolerance="10"
     guidetolerance="10"
     inkscape:pageopacity="0"
     inkscape:pageshadow="2"
     inkscape:window-width="640"
     inkscape:window-height="480"
     id="namedview12"
     showgrid="false"
     inkscape:zoom="0.12542268"
     inkscape:cx="-1099.4254"
     inkscape:cy="-359.75465"
     inkscape:window-x="0"
     inkscape:window-y="0"
     inkscape:window-maximized="0"
     inkscape:current-layer="svg2" />
  <path
     d="m 17.581,54.97579 v -0.81671 -0.8167 L 16.5369,52.78359 15.4928,52.2248 14.0435,48.93551 c -0.7972,-1.8091 -1.6036,-3.81019 -1.7922,-4.44686 l -0.3428,-1.1576 3.1382,-1.53913 3.1382,-1.53915 -0.5855,-1.0941 -0.5855,-1.09411 v -2.55589 -2.55589 l -0.5247,-0.32424 -0.5246,-0.32424 -1.5009,0.68387 -1.5009,0.68387 -0.5174,-0.81845 C 12.161,32.40345 12.0197,31.77994 12.1316,31.46802 l 0.2035,-0.56713 0.661,0.14944 c 0.3635,0.0822 1.161,-0.11819 1.7722,-0.4453 l 1.1113,-0.59474 v -2.24856 -2.24856 h 0.8507 0.8507 v -0.54789 c 0,-0.30134 -0.43,-1.44977 -0.9557,-2.55208 L 15.6696,20.40901 H 14.9239 14.1782 V 19.46119 18.51337 L 13.1986,17.43094 12.2191,16.34851 V 12.1112 L 8.3075,14.76561 7.5296,13.50683 3.4808,14.62476 2.8713,13.03634 H 0 V 10.81922 L 41.1168,0 51.647,34.1721 l -1.8526,2.04707 0.9072,1.29517 c 0.4989,0.71234 0.9071,1.71689 0.9071,2.23234 v 0.93718 l -1.7722,0.35445 c -0.9748,0.19496 -2.3511,0.35446 -3.0586,0.35446 h -1.2862 l -0.6567,1.7112 -1.5755,0.67144 c -0.8666,0.3693 -1.9697,1.14633 -2.4515,1.72674 l -0.8759,1.0553 -3.172,-1.20597 -0.5962,2.27971 h -0.7563 c -0.416,0 -0.9605,0.32513 -1.2099,0.72252 -0.2494,0.39739 -1.1553,1.1689 -2.0131,1.71446 l -1.5596,0.99194 v -0.40504 l -1.6653,1.79671 -0.036,-1.43943 -3.0812,0.77333 -2.1948,2.0447 -0.8841,-0.54641 -0.7602,1.23009 -1.5965,-0.61264 z"
     style="fill:#b3b3b3;fill-opacity:1"
     id="CT_2"
     inkscape:connector-curvature="0" />
</svg>
