<?xml version="1.0" encoding="UTF-8" standalone="no"?>
<svg
   xmlns:dc="http://purl.org/dc/elements/1.1/"
   xmlns:cc="http://creativecommons.org/ns#"
   xmlns:rdf="http://www.w3.org/1999/02/22-rdf-syntax-ns#"
   xmlns:svg="http://www.w3.org/2000/svg"
   xmlns="http://www.w3.org/2000/svg"
   xmlns:sodipodi="http://sodipodi.sourceforge.net/DTD/sodipodi-0.dtd"
   xmlns:inkscape="http://www.inkscape.org/namespaces/inkscape"
   version="1.0"
   width="23.0562"
   height="34.407101"
   id="svg2"
   sodipodi:docname="CT_4.svg"
   inkscape:version="0.92.2 5c3e80d, 2017-08-06">
  <metadata
     id="metadata32">
    <rdf:RDF>
      <cc:Work
         rdf:about="">
        <dc:format>image/svg+xml</dc:format>
        <dc:type
           rdf:resource="http://purl.org/dc/dcmitype/StillImage" />
      </cc:Work>
    </rdf:RDF>
  </metadata>
  <defs
     id="defs30" />
  <sodipodi:namedview
     pagecolor="#ffffff"
     bordercolor="#666666"
     borderopacity="1"
     objecttolerance="10"
     gridtolerance="10"
     guidetolerance="10"
     inkscape:pageopacity="0"
     inkscape:pageshadow="2"
     inkscape:window-width="640"
     inkscape:window-height="480"
     id="namedview28"
     showgrid="false"
     inkscape:zoom="0.12542268"
     inkscape:cx="-1072.5226"
     inkscape:cy="-330.99605"
     inkscape:window-x="0"
     inkscape:window-y="0"
     inkscape:window-maximized="0"
     inkscape:current-layer="svg2" />
  <path
     d="M 5.04,33.93649 4.5012,34.4071 0,30.14266 8.9192,20.34884 4.1331,15.47216 3.2029,11.34786 c 0.5825,-0.11657 0.6804,0.14687 1.0148,0.4307 0,0.23689 0.5131,0.75114 1.1401,1.14277 l 1.1402,0.71205 4.3041,-2.19576 1.176,1.86441 2.7315,-4.78108 2.7014,-0.009 L 16.8025,3.97514 17.272,3.68496 C 17.5302,3.52537 17.9093,2.6309 18.1143,1.69727 l 0.3729,-1.69753 1.7599,0.98488 1.4035,4.08273 C 20.7925,5.7565 20.0638,6.50853 19.5301,7.45103 l 3.5261,2.28802 -0.4193,1.79675 c -0.2305,0.98821 -1.0442,3.26006 -1.1377,4.88099 l 0.3782,2.81002 -2.5606,3.46336 h -2.0552 v 1.15858 l -2.7589,1.25707 -1.3444,3.2456 -1.909,1.17979 C 10.1995,30.18009 8.8529,31.33078 8.257,32.0883 L 7.1737,33.46562 H 6.3762 c -0.4386,0 -1.0399,0.21177 -1.3362,0.47061 z"
     style="fill:#b3b3b3;fill-opacity:1"
     id="CT_4"
     inkscape:connector-curvature="0" />
</svg>
