<?xml version="1.0" encoding="UTF-8" standalone="no"?>
<svg
   xmlns:dc="http://purl.org/dc/elements/1.1/"
   xmlns:cc="http://creativecommons.org/ns#"
   xmlns:rdf="http://www.w3.org/1999/02/22-rdf-syntax-ns#"
   xmlns:svg="http://www.w3.org/2000/svg"
   xmlns="http://www.w3.org/2000/svg"
   xmlns:sodipodi="http://sodipodi.sourceforge.net/DTD/sodipodi-0.dtd"
   xmlns:inkscape="http://www.inkscape.org/namespaces/inkscape"
   version="1.0"
   width="117.3071"
   height="78.476402"
   id="svg2"
   sodipodi:docname="FL_16.svg"
   inkscape:version="0.92.2 5c3e80d, 2017-08-06">
  <metadata
     id="metadata64">
    <rdf:RDF>
      <cc:Work
         rdf:about="">
        <dc:format>image/svg+xml</dc:format>
        <dc:type
           rdf:resource="http://purl.org/dc/dcmitype/StillImage" />
      </cc:Work>
    </rdf:RDF>
  </metadata>
  <defs
     id="defs62" />
  <sodipodi:namedview
     pagecolor="#ffffff"
     bordercolor="#666666"
     borderopacity="1"
     objecttolerance="10"
     gridtolerance="10"
     guidetolerance="10"
     inkscape:pageopacity="0"
     inkscape:pageshadow="2"
     inkscape:window-width="640"
     inkscape:window-height="480"
     id="namedview60"
     showgrid="false"
     inkscape:zoom="0.12542268"
     inkscape:cx="-853.89405"
     inkscape:cy="642.38847"
     inkscape:window-x="0"
     inkscape:window-y="0"
     inkscape:window-maximized="0"
     inkscape:current-layer="svg2" />
  <path
     d="M 67.4175,0 25.5031,8.2234 32.2732,44.9981 0,51.5378 2.3749,55.295 5.6359,54.5684 6.398,56.5888 5.0688,57.0319 v 2.1621 h 2.1621 c 0.353,1.8557 0.7409,3.7077 0.7444,5.6004 l -0.1595,0.7798 27.6121,-4.9978 c 1.0585,5.1713 1.9545,10.3814 3.3673,15.472 l 16.0568,-3.3496 0.9925,5.7776 c 2.5654,-0.2044 4.9656,-0.8904 7.3727,-1.8077 l -2.0558,-10.2792 2.6584,-1.5774 -0.9925,-3.3495 -2.623,0.6734 C 59.6295,60.143 58.6777,58.2011 58.4675,56.128 L 69.0303,53.9835 69.8278,42.1624 79.3449,30.0046 74.8079,9.4816 88.9684,6.3447 89.6773,2.5875 93.3282,1.914 95.7916,6.6992 92.9383,8.8791 93.5408,10.74 c -1.5299,1.9262 -3.2904,3.7092 -4.5193,5.8485 0.01,0.1999 0.7392,3.916 1.6305,8.2588 l 1.6128,7.8866 1.0279,0.7621 c 0.5662,0.4141 1.459,0.7444 1.985,0.7444 h 0.957 l 1.471,1.7723 4.0585,-0.6381 3.1192,4.9624 -0.1063,3.4914 -1.5951,1.8431 v 5.6359 l 1.7368,3.3496 h 1.0989 v -3.0837 c 1.2203,1.2851 2.3011,2.7789 3.8635,3.6508 h 0.3013 l 0.7089,-3.0306 -1.0633,-1.9495 1.9229,-1.2996 -0.7267,-0.957 2.6142,-1.8905 -1.1166,-0.4076 -2.3335,1.4867 -1.2938,-1.6837 8.4125,-6.325 -2.3572,-4.5902 c -1.2896,-2.5249 -3.5331,-6.3768 -4.9978,-8.5601 -1.4645,-2.1834 -2.8231,-4.4804 -3.0129,-5.1041 -0.1897,-0.6239 -0.9198,-1.7723 -1.6305,-2.5521 -0.7106,-0.7798 -2.735,-3.6557 -4.5015,-6.398 C 99.0407,9.2206 97.4886,6.686 97.3689,6.327 L 97.1563,5.6713 94.1788,0.7798 92.956,0 68.2859,5.0687 Z"
     style="fill:#b3b3b3;fill-opacity:1"
     id="FL_16"
     inkscape:connector-curvature="0" />
</svg>
