<?xml version="1.0" encoding="UTF-8" standalone="no"?>
<svg
   xmlns:dc="http://purl.org/dc/elements/1.1/"
   xmlns:cc="http://creativecommons.org/ns#"
   xmlns:rdf="http://www.w3.org/1999/02/22-rdf-syntax-ns#"
   xmlns:svg="http://www.w3.org/2000/svg"
   xmlns="http://www.w3.org/2000/svg"
   xmlns:sodipodi="http://sodipodi.sourceforge.net/DTD/sodipodi-0.dtd"
   xmlns:inkscape="http://www.inkscape.org/namespaces/inkscape"
   version="1.0"
   width="10.5071"
   height="30.7034"
   id="svg2"
   sodipodi:docname="FL_19.svg"
   inkscape:version="0.92.2 5c3e80d, 2017-08-06">
  <metadata
     id="metadata88">
    <rdf:RDF>
      <cc:Work
         rdf:about="">
        <dc:format>image/svg+xml</dc:format>
        <dc:type
           rdf:resource="http://purl.org/dc/dcmitype/StillImage" />
      </cc:Work>
    </rdf:RDF>
  </metadata>
  <defs
     id="defs86" />
  <sodipodi:namedview
     pagecolor="#ffffff"
     bordercolor="#666666"
     borderopacity="1"
     objecttolerance="10"
     gridtolerance="10"
     guidetolerance="10"
     inkscape:pageopacity="0"
     inkscape:pageshadow="2"
     inkscape:window-width="640"
     inkscape:window-height="480"
     id="namedview84"
     showgrid="false"
     inkscape:zoom="0.12542268"
     inkscape:cx="-965.21335"
     inkscape:cy="643.10497"
     inkscape:window-x="0"
     inkscape:window-y="0"
     inkscape:window-maximized="0"
     inkscape:current-layer="svg2" />
  <path
     d="M 5.4384,0 2.6559,1.595 1.0431,5.6181 3.2407,9.0209 1.9292,11.4666 2.6736,19.5836 0,22.6685 2.0913,30.7034 5.208,29.5261 5.0485,29.1362 6.9803,28.0551 7.8664,29.597 8.4512,29.278 8.3622,29.0299 7.9546,29.1189 7.7951,28.5163 8.3977,26.9036 9.2838,26.4428 9.1597,25.9111 9.8155,25.468 10.2409,26.2832 10.5067,25.3616 10.3826,23.9793 9.142,23.5717 5.1721,25.344 3.5239,27.9669 2.9321,25.6727 2.9041,23.1817 7.2284,20.3816 6.5549,4.5906 4.2155,3.5449 4.8358,2.4107 C 5.171,1.7842 5.4384,0.9884 5.4384,0.6384 Z"
     style="fill:#b3b3b3"
     id="FL_19"
     inkscape:connector-curvature="0" />
</svg>
