<?xml version="1.0" encoding="UTF-8" standalone="no"?>
<svg
   xmlns:dc="http://purl.org/dc/elements/1.1/"
   xmlns:cc="http://creativecommons.org/ns#"
   xmlns:rdf="http://www.w3.org/1999/02/22-rdf-syntax-ns#"
   xmlns:svg="http://www.w3.org/2000/svg"
   xmlns="http://www.w3.org/2000/svg"
   xmlns:sodipodi="http://sodipodi.sourceforge.net/DTD/sodipodi-0.dtd"
   xmlns:inkscape="http://www.inkscape.org/namespaces/inkscape"
   version="1.0"
   width="48.897202"
   height="65.566498"
   id="svg2"
   sodipodi:docname="FL_14.svg"
   inkscape:version="0.92.2 5c3e80d, 2017-08-06">
  <metadata
     id="metadata48">
    <rdf:RDF>
      <cc:Work
         rdf:about="">
        <dc:format>image/svg+xml</dc:format>
        <dc:type
           rdf:resource="http://purl.org/dc/dcmitype/StillImage" />
      </cc:Work>
    </rdf:RDF>
  </metadata>
  <defs
     id="defs46" />
  <sodipodi:namedview
     pagecolor="#ffffff"
     bordercolor="#666666"
     borderopacity="1"
     objecttolerance="10"
     gridtolerance="10"
     guidetolerance="10"
     inkscape:pageopacity="0"
     inkscape:pageshadow="2"
     inkscape:window-width="640"
     inkscape:window-height="480"
     id="namedview44"
     showgrid="false"
     inkscape:zoom="0.12542268"
     inkscape:cx="-848.18735"
     inkscape:cy="681.07727"
     inkscape:window-x="0"
     inkscape:window-y="0"
     inkscape:window-maximized="0"
     inkscape:current-layer="svg2" />
  <path
     d="M 0.4785,0.9138 1.2406,6.4611 H 0 v 1.7014 h 3.2255 l 1.3647,3.0128 -3.0128,3.1369 1.5418,3.5092 0.8862,-2.6585 3.1546,0.4786 1.4533,-1.7546 C 7.5532,11.5139 6.3356,9.1931 5.6713,6.6738 V 5.894 H 7.4081 L 8.0461,4.228 6.7524,2.3671 C 6.0445,1.3423 5.3368,0.109 5.2568,0 Z m 39.7345,9.0386 -25.5917,4.7143 -0.514,1.3292 -0.4962,5.7777 H 12.1756 L 10.7578,19.505 H 9.9602 c -0.4468,0 -0.9894,0.2644 -1.1874,0.5849 l -0.3544,0.5848 3.2964,3.0838 3.1901,8.1879 0.4962,-0.3013 0.4785,-1.8608 2.109,-0.6558 c 0.8053,0.2335 1.3944,0.5472 1.8609,1.2051 v 0.514 h 2.8357 v 1.1165 l 1.8431,0.833 c 1.0138,0.454 2.5251,1.4433 3.3497,2.1976 0.8244,0.7543 2.1356,2.3667 2.9242,3.58 l 1.4356,2.1977 4.2534,12.4768 c 1.0265,1.4382 1.8149,3.1399 3.2078,4.2535 h 0.4254 l 0.638,3.1192 4.3243,4.9446 0.3722,-2.4812 3.4383,-1.4533 -5.8663,-4.9269 0.7089,-2.7824 -3.1015,-2.4812 c 0.7505,-0.971 1.4089,-1.9846 1.8964,-3.1015 l -1.8964,-2.2862 0.2659,-6.5929 -1.2052,-0.7444 1.2052,-2.233 -0.7266,-4.8029 5.2105,-2.5344 c -1.9849,-6.3036 -3.3842,-12.755 -4.8738,-19.1938 -0.013,-0.014 -0.1171,-0.02 -0.3013,0 z M 4.413,20.657 3.4028,21.2773 c 0.3402,0.8137 0.8546,1.5308 1.4356,2.0736 z m 1.2583,3.1547 c -0.075,0.5982 0.095,1.0507 0.3722,1.5596 l 0.3899,0.3722 0.5848,-0.5849 z m 4.6788,8.95 c -0.094,0.013 -0.1418,0.036 -0.1418,0.071 0,0.1407 0.9571,0.7649 2.1268,1.3823 l 2.1267,1.1166 2.9774,0.053 1.4001,-1.6836 -1.8963,-0.7266 -1.2406,1.2228 -0.9039,-0.4608 c -0.498,-0.2533 -1.7333,-0.6232 -2.747,-0.8152 -0.7603,-0.1442 -1.4206,-0.1981 -1.7014,-0.1595 z"
     style="fill:#b3b3b3"
     id="FL_14"
     inkscape:connector-curvature="0" />
</svg>
