<?xml version="1.0" encoding="UTF-8" standalone="no"?>
<svg
   xmlns:dc="http://purl.org/dc/elements/1.1/"
   xmlns:cc="http://creativecommons.org/ns#"
   xmlns:rdf="http://www.w3.org/1999/02/22-rdf-syntax-ns#"
   xmlns:svg="http://www.w3.org/2000/svg"
   xmlns="http://www.w3.org/2000/svg"
   xmlns:sodipodi="http://sodipodi.sourceforge.net/DTD/sodipodi-0.dtd"
   xmlns:inkscape="http://www.inkscape.org/namespaces/inkscape"
   version="1.0"
   width="65.874298"
   height="98.130898"
   id="svg2"
   sodipodi:docname="FL_23.svg"
   inkscape:version="0.92.2 5c3e80d, 2017-08-06">
  <metadata
     id="metadata128">
    <rdf:RDF>
      <cc:Work
         rdf:about="">
        <dc:format>image/svg+xml</dc:format>
        <dc:type
           rdf:resource="http://purl.org/dc/dcmitype/StillImage" />
      </cc:Work>
    </rdf:RDF>
  </metadata>
  <defs
     id="defs126" />
  <sodipodi:namedview
     pagecolor="#ffffff"
     bordercolor="#666666"
     borderopacity="1"
     objecttolerance="10"
     gridtolerance="10"
     guidetolerance="10"
     inkscape:pageopacity="0"
     inkscape:pageshadow="2"
     inkscape:window-width="640"
     inkscape:window-height="480"
     id="namedview124"
     showgrid="false"
     inkscape:zoom="0.12542268"
     inkscape:cx="-909.75755"
     inkscape:cy="664.38237"
     inkscape:window-x="0"
     inkscape:window-y="0"
     inkscape:window-maximized="0"
     inkscape:current-layer="svg2" />
  <path
     d="m 37.2165,0 -2.9242,0.9038 -0.6912,3.6864 -13.8592,2.9774 4.218,20.0799 -9.4285,12.1401 -0.8153,12.3528 -10.6691,2.0026 1.485,5.0156 2.9457,-0.6912 0.7976,4.2712 -2.304,1.7723 C 6.694,67.8506 7.5196,71.1693 8.1689,74.5242 5.2586,75.6728 2.7698,76.1189 0,76.6118 l 2.0014,9.5209 21.1939,-4.4434 4.1851,16.4416 10.3463,-2.038 0.8064,1.2039 13.4604,-2.8167 C 51.9375,89.4865 51.5543,88.521 50.5618,82.8717 l 3.9876,0.7443 2.5166,-5.1396 2.4103,-1.152 0.4963,1.2406 1.0456,-0.3899 -0.7089,-1.1519 1.4887,-0.7267 0.709,1.5242 -1.7369,2.0912 3.066,1.8255 1.6305,-0.638 0.4077,-2.0382 -1.1875,-1.0456 -0.1594,-1.5773 0.2481,-1.347 0.8507,-2.5697 -0.3545,-0.7976 -0.5494,0.3899 0.1595,0.5495 -0.9039,0.4962 -0.5848,1.5418 0.1063,0.4963 0.3899,-0.1064 0.1418,0.4608 -0.7798,0.3368 -0.8507,-1.5419 -1.7368,0.9925 0.1418,0.4076 -3.4082,1.3469 -2.2277,-8.3297 2.3926,-3.0306 -0.7444,-8.117 1.3115,-2.4457 -1.9495,-3.6686 c 0.3742,-0.9127 1.8255,-3.9522 1.8255,-3.9522 l 3.0483,-1.6837 0.035,0.7975 c -0.073,1.5301 -1.0456,2.9243 -1.0456,2.9243 l 2.2862,0.9038 0.3367,6.9651 h 0.4254 l 0.1595,3.899 h -0.2233 l 0.035,1.152 0.5424,-0.1404 -0.514,-11.7679 -0.6026,-4.8029 -1.7191,-2.5166 -4.6611,4.342 0.6912,0.8685 -1.5419,1.3469 -0.7975,3.6155 h -0.957 l -2.7825,-2.7825 v 2.2153 h -2.0559 l -1.914,-4.0053 0.047,-5.6865 1.7951,-1.9798 -0.047,-3.1458 -2.8433,-4.565 -4.0281,0.5394 -1.352,-1.6369 -1.8837,-0.1848 -2.2584,-1.3735 -3.5888,-16.6594 4.518,-5.8043 -0.5823,-1.8292 2.7268,-2.3356 z"
     style="fill:#b3b3b3"
     id="FL_23"
     inkscape:connector-curvature="0" />
</svg>
