<?xml version="1.0" encoding="UTF-8" standalone="no"?>
<svg
   xmlns:dc="http://purl.org/dc/elements/1.1/"
   xmlns:cc="http://creativecommons.org/ns#"
   xmlns:rdf="http://www.w3.org/1999/02/22-rdf-syntax-ns#"
   xmlns:svg="http://www.w3.org/2000/svg"
   xmlns="http://www.w3.org/2000/svg"
   xmlns:sodipodi="http://sodipodi.sourceforge.net/DTD/sodipodi-0.dtd"
   xmlns:inkscape="http://www.inkscape.org/namespaces/inkscape"
   version="1.0"
   width="84.187401"
   height="81.046204"
   id="svg2"
   sodipodi:docname="FL_25.svg"
   inkscape:version="0.92.2 5c3e80d, 2017-08-06">
  <metadata
     id="metadata144">
    <rdf:RDF>
      <cc:Work
         rdf:about="">
        <dc:format>image/svg+xml</dc:format>
        <dc:type
           rdf:resource="http://purl.org/dc/dcmitype/StillImage" />
      </cc:Work>
    </rdf:RDF>
  </metadata>
  <defs
     id="defs142" />
  <sodipodi:namedview
     pagecolor="#ffffff"
     bordercolor="#666666"
     borderopacity="1"
     objecttolerance="10"
     gridtolerance="10"
     guidetolerance="10"
     inkscape:pageopacity="0"
     inkscape:pageshadow="2"
     inkscape:window-width="640"
     inkscape:window-height="480"
     id="namedview140"
     showgrid="false"
     inkscape:zoom="0.12542268"
     inkscape:cx="-888.31135"
     inkscape:cy="718.32557"
     inkscape:window-x="0"
     inkscape:window-y="0"
     inkscape:window-maximized="0"
     inkscape:current-layer="svg2" />
  <path
     d="M 19.8516,0 4.5391,3.066 5.8152,7.5741 0.6224,10.2438 1.3668,14.6745 0,16.8331 1.2583,17.484 0.9946,24.3866 3.0504,26.7437 1.1187,29.6856 4.167,31.901 3.5467,34.8784 9.6965,40.2662 h 0.8684 c 0.4716,0 1.0161,-0.2435 1.2051,-0.5495 l 0.3368,-0.5493 2.2153,0.1417 c 1.2165,0.081 2.3985,0.3249 2.623,0.5494 0.2246,0.2245 0.9842,0.4076 1.7014,0.4077 h 1.3115 l 2.1444,0.9747 c 1.1803,0.5366 2.2721,1.0741 2.428,1.1874 0.1561,0.1132 0.3126,0.8874 0.3545,1.7191 0.042,0.8318 0.2571,2.0716 0.4785,2.7471 l 0.4076,1.2228 2.5521,0.638 2.6407,2.818 2.6407,2.8356 v 1.7014 l 2.2685,1.2229 v 1.7722 l 4.537,5.1396 v 1.542 h 1.5774 l 0.3367,0.9038 c 0.1894,0.4934 0.3545,1.2761 0.3545,1.7368 v 0.833 l -1.0457,-0.6558 -0.7798,6.2562 0.8862,1.2761 c 0.4932,0.7018 1.23,1.6741 1.6305,2.1444 0.4005,0.4703 1.3647,1.28 2.1444,1.8077 l 1.4178,0.957 0.8507,-0.3367 c 0.4679,-0.1877 1.6773,-0.4597 2.6939,-0.6025 l 1.8431,-0.2659 0.6381,-1.0102 h 2.2685 l 3.2787,-3.5977 6.7701,-0.3899 0.6557,1.0456 2.2685,-0.5848 v -1.2938 l 1.542,-0.7089 c 0.8395,-0.3899 1.8394,-0.709 2.233,-0.7089 h 0.7089 l 1.2229,-4.537 0.9748,0.018 c 0.5338,0 1.6766,0.3677 2.5343,0.8152 l 1.5596,0.8153 v -0.5317 c 0,-0.2925 0.8931,-1.5208 1.9849,-2.7293 l 1.985,-2.1977 -3.58,-10.4918 3.58,0.7798 V 51.804 L 80.109,50.5102 v -2.8711 h 2.2686 v -2.3748 l 1.7013,0.638 0.1085,-3.0172 h -1.515 l -1.4291,-1.5553 1.1343,-2.109 -1.312,-0.2572 c -1.0586,-2.0049 -1.6108,-3.7565 -2.0908,-6.123 l 0.8684,-1.6659 c 0.476,-0.9204 1.0764,-1.6837 1.347,-1.6837 0.2705,0 0.6437,-0.3929 0.8329,-0.8861 L 82.3776,27.701 C 81.2629,26.3666 80.6906,24.4899 80.263,22.5047 L 59.5684,26.8149 58.824,25.6275 c -3.4745,0.592 -6.9119,1.6458 -10.4387,1.8254 L 44.2932,11.3003 23.3076,15.7204 Z"
     style="fill:#b3b3b3"
     id="FL_25"
     inkscape:connector-curvature="0" />
</svg>
