<?xml version="1.0" encoding="UTF-8" standalone="no"?>
<svg
   xmlns:dc="http://purl.org/dc/elements/1.1/"
   xmlns:cc="http://creativecommons.org/ns#"
   xmlns:rdf="http://www.w3.org/1999/02/22-rdf-syntax-ns#"
   xmlns:svg="http://www.w3.org/2000/svg"
   xmlns="http://www.w3.org/2000/svg"
   xmlns:sodipodi="http://sodipodi.sourceforge.net/DTD/sodipodi-0.dtd"
   xmlns:inkscape="http://www.inkscape.org/namespaces/inkscape"
   version="1.0"
   width="43.492859"
   height="37.058399"
   id="svg2"
   sodipodi:docname="FL_9.svg"
   inkscape:version="0.92.2 5c3e80d, 2017-08-06">
  <metadata
     id="metadata200">
    <rdf:RDF>
      <cc:Work
         rdf:about="">
        <dc:format>image/svg+xml</dc:format>
        <dc:type
           rdf:resource="http://purl.org/dc/dcmitype/StillImage" />
      </cc:Work>
    </rdf:RDF>
  </metadata>
  <defs
     id="defs198" />
  <sodipodi:namedview
     pagecolor="#ffffff"
     bordercolor="#666666"
     borderopacity="1"
     objecttolerance="10"
     gridtolerance="10"
     guidetolerance="10"
     inkscape:pageopacity="0"
     inkscape:pageshadow="2"
     inkscape:window-width="640"
     inkscape:window-height="480"
     id="namedview196"
     showgrid="false"
     inkscape:zoom="0.12542268"
     inkscape:cx="-805.65275"
     inkscape:cy="572.13547"
     inkscape:window-x="0"
     inkscape:window-y="0"
     inkscape:window-maximized="0"
     inkscape:current-layer="svg2" />
  <path
     d="M 9.6411,0 6.9473,0.3899 C 5.4657,0.6069 4.0343,1.009 3.7572,1.276 L 3.2432,1.7546 3.0128,4.4839 C 2.8848,5.9846 2.6683,8.1064 2.5343,9.1982 2.4003,10.2899 2.1195,12.0763 1.914,13.1681 1.7085,14.2598 1.2048,15.6543 0.7798,16.2695 0.3547,16.8848 0,17.7143 0,18.1127 v 0.7266 h 1.7013 v 1.5242 l 4.1826,5.37 -1.9849,4.5016 c 0.9215,0.9462 1.7078,0.9595 2.9065,1.0279 l -1.0456,-1.0102 5.2991,-1.9495 1.5064,-2.1267 15.667,-7.8512 5.4408,6.9118 -1.4178,2.18 c 0.7538,4.0866 1.4488,5.8779 2.942,9.6412 l 5.1219,-1.347 -0.7267,-4.7851 1.7723,-0.7267 c 0.9705,-0.402 1.8879,-0.9265 2.0381,-1.1697 0.1503,-0.2431 0.1062,-0.8571 -0.089,-1.3646 l -0.3544,-0.9216 -3.2078,-1.6659 -1.1697,-4.2181 2.871,-2.9951 -1.276,-7.355 L 9.4635,16.0037 7.5672,12.0692 6.2734,11.892 6.3624,4.7675 9.641,1.6128 Z"
     style="fill:#b3b3b3"
     id="FL_9"
     inkscape:connector-curvature="0" />
</svg>
