<?xml version="1.0" encoding="UTF-8" standalone="no"?>
<svg
   xmlns:dc="http://purl.org/dc/elements/1.1/"
   xmlns:cc="http://creativecommons.org/ns#"
   xmlns:rdf="http://www.w3.org/1999/02/22-rdf-syntax-ns#"
   xmlns:svg="http://www.w3.org/2000/svg"
   xmlns="http://www.w3.org/2000/svg"
   xmlns:sodipodi="http://sodipodi.sourceforge.net/DTD/sodipodi-0.dtd"
   xmlns:inkscape="http://www.inkscape.org/namespaces/inkscape"
   version="1.0"
   width="129.1436"
   height="117.71665"
   id="svg2"
   sodipodi:docname="GA_10.svg"
   inkscape:version="0.92.2 5c3e80d, 2017-08-06">
  <metadata
     id="metadata16">
    <rdf:RDF>
      <cc:Work
         rdf:about="">
        <dc:format>image/svg+xml</dc:format>
        <dc:type
           rdf:resource="http://purl.org/dc/dcmitype/StillImage" />
      </cc:Work>
    </rdf:RDF>
  </metadata>
  <defs
     id="defs14" />
  <sodipodi:namedview
     pagecolor="#ffffff"
     bordercolor="#666666"
     borderopacity="1"
     objecttolerance="10"
     gridtolerance="10"
     guidetolerance="10"
     inkscape:pageopacity="0"
     inkscape:pageshadow="2"
     inkscape:window-width="640"
     inkscape:window-height="480"
     id="namedview12"
     showgrid="false"
     inkscape:zoom="0.12542268"
     inkscape:cx="-674.69155"
     inkscape:cy="256.70877"
     inkscape:window-x="0"
     inkscape:window-y="0"
     inkscape:window-maximized="0"
     inkscape:current-layer="svg2" />
  <path
     d="m 60.6179,117.71665 c -2.7579,-0.9429 -6.451,-1.4823 -10.4726,-1.9514 l -0.3631,-4.537 c -1.623,-1.642 -2.6685,-3.4764 -3.3232,-5.4411 v -6.6125 l -7.9155,-3.1974 -2.0733,-2.0464 H 35.76 l -1.2243,-6.037 c 0.4955,-2.5184 2.3972,-5.57772 6.3648,-9.38815 l 0.7446,-6.88375 c -3.9142,-3.17524 -4.6897,-4.28341 -5.3625,-5.32403 l 1.1049,-2.34934 c 1.2039,-0.0682 3.0513,-1.69923 5.0171,-2.98649 l -0.021,-4.17821 -5.5203,-3.68634 h -6.2911 l -2.7493,-2.74405 -2.5291,-0.10492 c 0.1816,-3.61045 1.6654,-3.13259 4.2697,-10.46789 -2.511,-1.93612 -5.0563,-4.38697 -7.648,-7.5338 -1.4402,-3.19968 -2.2374,-6.39942 -2.962,-9.5991 L 15.231,17.36843 C 8.5188,11.98139 7.0153,12.01514 3e-4,7.65777 15.1714,5.21918 26.7613,2.59212 39.0157,0 L 38.3725,3.21642 35.8999,5.89718 C 34.54,7.3716 33.4247,8.87874 33.4214,9.24636 c 0,0.36761 -0.3486,1.0109 -0.7672,1.4295 -0.4186,0.4186 -1.0763,1.34999 -1.4615,2.06979 l -0.7004,1.30865 0.5689,1.48253 -1.7514,2.50059 1.207,2.64911 2.7253,1.58093 c 1.4989,0.86947 2.8104,1.78175 2.9143,2.02726 l 0.1891,0.44639 h 3.6447 l 1.3039,0.99247 c 0.7172,0.54586 1.9773,1.58756 2.8002,2.31485 0.823,0.72729 2.6043,1.82712 3.9586,2.44404 l 2.4623,1.12173 0.694,-0.57604 c 0.3817,-0.3168 1.7124,-0.73885 2.957,-0.93786 l 2.263,-0.36188 1.6169,3.03085 c 0.8892,1.66696 2.2272,3.66887 2.9733,4.44867 0.7461,0.7798 2.1137,2.25604 3.0394,3.28055 l 1.6829,1.86274 v 0.8537 c 0,0.46958 0.5208,1.8747 1.1574,3.12249 l 1.1575,2.2688 1.2528,0.52488 c 0.6891,0.28867 1.6995,0.88075 2.2453,1.31574 0.5459,0.43493 0.9925,1.0151 0.9925,1.28925 0,0.27421 0.6442,1.13931 1.4316,1.92245 0.7873,0.78315 1.9996,2.30124 2.6939,3.37346 l 1.2622,1.94956 3.6864,0.95397 v 1.07879 l 2.2459,1.14577 c 1.2353,0.63019 2.5911,1.14577 3.013,1.14577 0.422,0 2.091,0.63864 3.7089,1.41918 1.6181,0.78054 2.9434,1.60997 2.9454,1.84317 0,0.2332 0.7676,0.85875 1.7014,1.39009 l 1.6978,0.9661 v 2.14545 l 1.1994,1.08038 c 0.6596,0.59424 1.4162,1.6474 1.6812,2.34043 l 0.4819,1.25999 4.1307,1.72588 0.9639,-0.59565 3.7646,1.57293 4.3837,4.13444 h 0.9415 c 0.5178,0 1.2059,0.2644 1.5291,0.5875 l 0.5875,0.5876 -0.4118,2.6734 c -0.2264,1.4704 -0.2949,2.8685 -0.152,3.1069 0.1428,0.2384 1.2992,0.9637 2.5696,1.6119 1.2705,0.6482 2.6182,1.4664 2.995,1.8183 l 0.685,0.6399 -0.5054,1.9325 1.7281,0.8937 c 0.9505,0.4915 2.1236,0.8936 2.607,0.8936 h 0.8789 v 1.7014 l 2.1523,2.1523 -6.3866,0.798 -3.745,3.2881 c -1.2474,-0.1091 -2.4035,0.074 -3.2499,1.2477 h -6.7128 l -7.6678,-3.2326 -8.7843,-8.7272 -1.966,-4.36 c -4.7127,-0.6462 -10.0859,-1.5616 -12.7533,-1.3746 l -1.2849,-1.2849 -1.505,0.773 -0.1817,1.2812 2.7601,2.4868 0.3592,6.9935 1.8804,3.2339 c -0.8947,0.812 -1.8864,1.5755 -1.6878,2.9341 l -3.2344,1.6726 -1.8025,2.1557 c -0.9913,1.1856 -1.9862,2.3447 -2.2109,2.5756 -0.2246,0.231 -1.2109,1.0604 -2.1917,1.8432 -0.9808,0.7828 -1.9852,1.4232 -2.232,1.4232 -0.2468,0 -0.9755,0.4915 -1.6195,1.0923 l -1.1708,1.0921 z"
     style="fill:#b3b3b3"
     id="GA_10"
     inkscape:connector-curvature="0" />
</svg>
