<?xml version="1.0" encoding="UTF-8" standalone="no"?>
<svg
   xmlns:dc="http://purl.org/dc/elements/1.1/"
   xmlns:cc="http://creativecommons.org/ns#"
   xmlns:rdf="http://www.w3.org/1999/02/22-rdf-syntax-ns#"
   xmlns:svg="http://www.w3.org/2000/svg"
   xmlns="http://www.w3.org/2000/svg"
   xmlns:sodipodi="http://sodipodi.sourceforge.net/DTD/sodipodi-0.dtd"
   xmlns:inkscape="http://www.inkscape.org/namespaces/inkscape"
   version="1.0"
   width="75.1446"
   height="145.47264"
   id="svg2"
   sodipodi:docname="GA_8.svg"
   inkscape:version="0.92.2 5c3e80d, 2017-08-06">
  <metadata
     id="metadata96">
    <rdf:RDF>
      <cc:Work
         rdf:about="">
        <dc:format>image/svg+xml</dc:format>
        <dc:type
           rdf:resource="http://purl.org/dc/dcmitype/StillImage" />
      </cc:Work>
    </rdf:RDF>
  </metadata>
  <defs
     id="defs94" />
  <sodipodi:namedview
     pagecolor="#ffffff"
     bordercolor="#666666"
     borderopacity="1"
     objecttolerance="10"
     gridtolerance="10"
     guidetolerance="10"
     inkscape:pageopacity="0"
     inkscape:pageshadow="2"
     inkscape:window-width="640"
     inkscape:window-height="480"
     id="namedview92"
     showgrid="false"
     inkscape:zoom="0.12542268"
     inkscape:cx="-694.49545"
     inkscape:cy="380.83991"
     inkscape:window-x="0"
     inkscape:window-y="0"
     inkscape:window-maximized="0"
     inkscape:current-layer="svg2" />
  <path
     d="M 18.6976,0 10.1906,1.985 1.5242,0.6912 0,2.747 v 4.3244 l 1.1203,0.889 5.2108,-0.011 2.743,3.8242 c -0.9386,-0.1451 -2.007,2.3391 -3.4402,5.6559 l -0.1869,9.8003 1.7664,2.9833 4.2947,-0.7089 4.2967,7.9988 c 0.01,2.9784 1.9243,5.2304 2.7864,8.0266 l -3.7749,0.089 1.2583,4.661 14.3555,0.053 1.1342,3.3673 3.4382,2.942 4.9979,1.7191 -5.0865,2.9774 -0.8862,19.0166 h 9.6412 c -0.2421,2.2763 0.4104,2.4919 -2.8356,11.7147 v 11.5376 H 30.0578 l -1.0456,12.7604 2.3926,2.5697 0.4962,6.7879 H 18.8748 c -0.8951,2.9809 -0.6716,11.8259 -0.7267,19.1937 3.1677,0.7168 9.8144,0.7888 21.5509,-0.089 v -2.0204 l 1.3824,-0.7975 v -4.7852 l 1.4356,-4.0939 3.2964,-0.035 0.8862,-1.985 0.6557,-11.9097 11.8388,-0.5671 c 1.0231,-5.3009 2.0802,-4.2852 2.7293,-9.2868 3.1473,-1.4824 1.1481,-3.266 5.1928,-6.132 l -0.053,-4.608 -4.7497,-1.3823 -6.6992,-4.3598 4.0408,-7.1246 14.0542,-14.7099 c -1.4966,-0.6677 -2.5554,-0.5807 -5.0156,-2.747 v -1.7191 c 3.7746,-1.4856 5.9667,-4.0304 6.4511,-6.9119 L 74.7726,55.8089 68.5519,49.8718 62.1717,49.1275 C 58.317,46.1253 52.97,44.8773 40.5145,38.8837 38.6234,33.0641 37.7672,26.9316 37.3421,20.8419 35.3814,20.4289 32.7524,20.1224 29.9517,19.8494 L 29.5441,15.082 C 28.2798,14.0155 27.1954,11.9715 26.2122,9.4993 l -0.071,-6.3802 z"
     style="fill:#b3b3b3"
     id="GA_8"
     inkscape:connector-curvature="0" />
</svg>
