<?xml version="1.0" encoding="UTF-8" standalone="no"?>
<svg
   xmlns:dc="http://purl.org/dc/elements/1.1/"
   xmlns:cc="http://creativecommons.org/ns#"
   xmlns:rdf="http://www.w3.org/1999/02/22-rdf-syntax-ns#"
   xmlns:svg="http://www.w3.org/2000/svg"
   xmlns="http://www.w3.org/2000/svg"
   xmlns:sodipodi="http://sodipodi.sourceforge.net/DTD/sodipodi-0.dtd"
   xmlns:inkscape="http://www.inkscape.org/namespaces/inkscape"
   version="1.0"
   width="22.130421"
   height="14.873757"
   id="svg2"
   sodipodi:docname="HI_1.svg"
   inkscape:version="0.92.2 5c3e80d, 2017-08-06">
  <metadata
     id="metadata8">
    <rdf:RDF>
      <cc:Work
         rdf:about="">
        <dc:format>image/svg+xml</dc:format>
        <dc:type
           rdf:resource="http://purl.org/dc/dcmitype/StillImage" />
      </cc:Work>
    </rdf:RDF>
  </metadata>
  <defs
     id="defs6" />
  <sodipodi:namedview
     pagecolor="#ffffff"
     bordercolor="#666666"
     borderopacity="1"
     objecttolerance="10"
     gridtolerance="10"
     guidetolerance="10"
     inkscape:pageopacity="0"
     inkscape:pageshadow="2"
     inkscape:window-width="640"
     inkscape:window-height="480"
     id="namedview4"
     showgrid="false"
     inkscape:zoom="0.12542268"
     inkscape:cx="510.47742"
     inkscape:cy="629.10833"
     inkscape:window-x="0"
     inkscape:window-y="0"
     inkscape:window-maximized="0"
     inkscape:current-layer="svg2" />
  <path
     d="m 13.58421,14.8618 c -0.26978,-0.065 -0.47253,-0.2806 -0.6835,-0.4501 -0.50032,-0.4275 -0.88807,-0.975 -1.43178,-1.3534 C 11.14788,12.832 10.79524,12.5934 10.38731,12.592 9.86929,12.4775 9.4233,12.1368 9.08807,11.7352 8.87114,11.4738 8.65416,11.2124 8.43718,10.951 7.74398,11.3839 7.05077,11.8169 6.35757,12.2498 5.83167,11.8134 5.30583,11.3769 4.77999,10.9405 3.6729,11.2365 2.56581,11.5326 1.45871,11.8287 0.9724,10.8915 0.48615,9.9543 0,9.017 0.73483,8.2269 1.46972,7.4368 2.20466,6.6468 2.00991,5.6494 1.81516,4.652 1.62046,3.6546 2.0208,2.9066 2.42113,2.1586 2.82141,1.4105 3.95011,1.2239 5.08386,1.0659 6.20677,0.8458 6.99973,0.6801 7.80245,0.5249 8.55378,0.2134 8.73906,0.1424 8.9244,0.0711 9.10968,0 c 0.79449,1.7962 1.58904,3.5924 2.38364,5.3886 0.89952,0.8447 1.78991,1.6991 2.69619,2.5364 1.13698,1.0046 2.34298,1.9371 3.63421,2.7357 0.83459,0.4936 1.72634,0.8913 2.64555,1.1988 0.32938,0.11 0.67091,0.1902 1.02009,0.1839 0.2201,0.029 0.4773,0.046 0.63785,0.2176 0.0332,0.2284 -0.19901,0.408 -0.31538,0.5904 -0.56809,0.6868 -1.20044,1.3296 -1.92347,1.8539 -0.1347,0.1 -0.28969,0.1877 -0.46227,0.1648 -0.0585,-0.014 -0.23961,0.041 -0.14853,-0.057 0.20575,-0.3331 0.41156,-0.6661 0.61743,-0.9992 -0.3591,-0.222 -0.71821,-0.4439 -1.07737,-0.6658 -1.49853,0.5144 -2.98571,1.0636 -4.50159,1.5258 -0.24205,0.068 -0.48245,0.1514 -0.73182,0.1876 z"
     style="fill:#b3b3b3"
     id="HI_1"
     inkscape:connector-curvature="0" />
</svg>
