<?xml version="1.0" encoding="UTF-8" standalone="no"?>
<svg
   xmlns:dc="http://purl.org/dc/elements/1.1/"
   xmlns:cc="http://creativecommons.org/ns#"
   xmlns:rdf="http://www.w3.org/1999/02/22-rdf-syntax-ns#"
   xmlns:svg="http://www.w3.org/2000/svg"
   xmlns="http://www.w3.org/2000/svg"
   xmlns:sodipodi="http://sodipodi.sourceforge.net/DTD/sodipodi-0.dtd"
   xmlns:inkscape="http://www.inkscape.org/namespaces/inkscape"
   version="1.0"
   width="317.08246"
   height="204.65071"
   id="svg2"
   sodipodi:docname="HI_2.svg"
   inkscape:version="0.92.2 5c3e80d, 2017-08-06">
  <metadata
     id="metadata16">
    <rdf:RDF>
      <cc:Work
         rdf:about="">
        <dc:format>image/svg+xml</dc:format>
        <dc:type
           rdf:resource="http://purl.org/dc/dcmitype/StillImage" />
      </cc:Work>
    </rdf:RDF>
  </metadata>
  <defs
     id="defs14" />
  <sodipodi:namedview
     pagecolor="#ffffff"
     bordercolor="#666666"
     borderopacity="1"
     objecttolerance="10"
     gridtolerance="10"
     guidetolerance="10"
     inkscape:pageopacity="0"
     inkscape:pageshadow="2"
     inkscape:window-width="640"
     inkscape:window-height="480"
     id="namedview12"
     showgrid="false"
     inkscape:zoom="0.12542268"
     inkscape:cx="637.50366"
     inkscape:cy="773.19528"
     inkscape:window-x="0"
     inkscape:window-y="0"
     inkscape:window-maximized="0"
     inkscape:current-layer="svg2" />
  <path
     d="m 40.05218,0 c -3.35978,1.2909 -6.11297,3.898 -9.69439,4.6966 -0.94109,2.0094 -1.7793,4.2309 -3.68633,5.5295 0.097,1.2308 -0.19022,2.6324 0.14008,3.7596 1.68341,1.7864 3.94166,2.8223 6.27556,3.4713 1.27632,1.1888 2.39731,2.7149 3.76829,3.6982 3.14734,0.046 6.21182,0.7324 9.27567,1.3527 1.46166,0.4036 2.22524,-1.2381 3.3185,-1.9138 1.32509,-1.1365 2.64367,-2.2805 3.96559,-3.4207 -0.15863,-1.4543 -0.61874,-2.9587 -0.57291,-4.3876 1.00035,-2.0465 2.00066,-4.0931 3.0009,-6.1397 C 54.61979,5.4917 54.91798,3.4596 53.98704,2.4371 52.74838,1.69 51.64962,0.554 50.08934,0.7009 48.0492,0.4732 46.00902,0.2455 43.96888,0.0178 43.30517,1.1781 42.53155,1.7959 41.4168,0.7267 40.96191,0.4845 40.50707,0.2422 40.05218,0 Z M 10.29562,13.4162 c -1.6947496,0.6341 -2.7832996,2.1137 -3.6769296,3.5423 -1.66543,0.9526 -3.66767,1.469 -4.70121,3.2157 -0.82296,0.865 -1.5904,1.7567 -1.59176,3.0171 -0.23439,1.1273 -0.68827,2.2858 0.20241,3.2488 0.76273,2.0506 2.35228,1.1337 2.76475,-0.392 0.77816,-1.1393 1.35113,-2.548 2.27328,-3.5091 1.45746,-0.468 2.91589,-0.9328 4.375,-1.3957 0.2856096,-1.6059 0.3154996,-3.3222 0.7566596,-4.861 0.901,-0.9069 1.66663,-1.7631 0.12205,-2.4331 -0.17473,-0.1443 -0.34952,-0.2887 -0.52425,-0.433 z m 121.71999,19.814 c -1.51735,0.4595 -3.42755,0.176 -4.45133,1.5986 -1.72566,0.9383 -1.15791,3.0408 -2.77581,3.9212 -1.03326,0.8023 -1.94503,1.9422 -3.06358,2.5264 -2.44778,0 -4.89556,0 -7.34341,0 0.79183,0.9885 1.99074,1.8458 2.52809,2.9164 0.0396,1.1101 -0.83787,2.4887 0.27903,3.2801 1.15609,1.3186 2.46185,2.7911 2.62961,4.513 0.84513,0.9295 2.08329,1.6888 2.698,2.718 0.0508,1.2008 0.452,3.8793 1.94298,3.498 1.94849,-0.1909 4.48315,-0.8694 2.23075,-3.0468 -0.48859,-1.6142 2.42402,-2.1603 1.73898,-3.9985 -0.50151,-2.9159 0.89573,-5.147 4.10068,-5.0774 2.84132,-1.5536 4.94485,-0.4011 5.54119,2.6796 0.47588,1.2691 0.972,2.5239 2.15787,3.293 2.34666,2.0853 4.7763,4.599 7.98557,5.1042 -0.74929,-1.0291 -2.25944,-1.7751 -1.87862,-3.2433 0.41276,-1.2755 -0.83175,-1.7844 -1.61575,-2.4946 -0.40901,-0.7075 0.78077,-2.2516 0.31056,-2.769 -0.96825,0.097 -2.62739,-0.4965 -2.09758,1.0988 0.004,2.4792 -1.72855,1.3289 -2.50098,0.045 -0.71713,-1.0666 -3.3768,-3.1613 -2.0183,-4.2806 1.50562,-1.3438 -0.23604,-2.5549 -1.10306,-3.5499 -1.66957,-1.8153 -3.47798,-3.6389 -4.0159,-6.1238 -0.39642,-0.8836 -0.85228,-1.7391 -1.27899,-2.6082 z m 57.6699,28.7464 c -1.82615,0.76 -0.81315,4.1415 -3.65299,2.8351 -2.98014,-0.3206 -6.01133,-0.5308 -8.95819,-1.0035 -1.12348,-0.4526 -2.17375,-1.4587 -3.43606,-0.8572 -1.45049,-0.1211 -0.72508,1.6968 -1.01976,2.6056 -1.03257,1.2189 -2.06038,2.4419 -3.08376,3.6686 0.006,1.4329 0.57507,2.2093 2.07047,1.8254 4.58337,0.038 9.18976,-0.075 13.75883,0.056 3.15176,0.9738 6.2877,2.0011 9.46107,2.9034 1.40455,-1.3496 3.6375,-0.9887 5.18242,-1.9086 1.67995,-1.5979 3.35434,-3.2016 5.02589,-4.8083 -1.01618,-0.6817 -1.93407,-1.758 -3.02217,-2.1868 -3.73193,0.4848 -7.57865,1.5086 -11.29783,0.4677 -0.34504,-1.1986 -0.68764,-2.3978 -1.02792,-3.5977 z m 21.16099,12.2109 c -1.28222,0.7058 -2.79917,1.1581 -3.95305,1.9916 -0.98976,1.6514 -1.55615,3.4986 -2.05494,5.3457 1.61416,0.3173 0.46488,1.5831 1.11883,2.456 1.25449,1.3783 1.92155,3.4358 3.82767,4.035 1.764,0.8824 3.52102,1.7784 5.27951,2.6717 0.8858,-0.5056 1.7382,-2.4562 2.69347,-1.1743 1.22755,0.5027 1.19034,1.7472 1.35918,2.869 0.44559,2.6696 0.85642,5.3576 0.83884,8.0705 0.95612,0.6463 1.81663,1.645 2.84602,2.0533 2.17726,-0.3377 4.46744,-0.2702 6.56814,-0.9008 1.66901,-0.6164 3.24653,-1.6949 4.9638,-2.038 1.37472,0 2.83405,0.2801 4.15858,0.073 1.32402,-1.1651 3.15863,-1.4735 4.64275,-1.9214 1.38804,-1.4175 2.77002,-2.8409 4.14922,-4.267 -0.0992,-1.0395 0.18642,-2.2322 -0.1297,-3.1854 -0.86929,-0.7712 -1.56244,-1.9365 -2.52242,-2.4859 -1.06887,-0.114 -2.45306,0.4414 -2.98372,-0.8152 -0.43578,-1.7316 -2.04036,0.4565 -2.48635,-0.7274 -0.56894,-0.7673 -0.66354,-2.2781 -1.93805,-1.8601 -1.23441,-0.053 -1.95001,-1.4792 -2.9616,-2.1219 -1.05378,-0.7484 -1.86636,-2.0114 -3.07117,-2.4376 -1.44669,-0.14 -2.93506,-0.6145 -4.35249,-0.5882 -2.81987,1.3866 -5.7572,2.5282 -8.76163,3.4462 -0.83158,-2.4703 -2.95298,-3.9893 -3.68735,-6.4851 -0.7903,-0.9428 -2.2958,-1.2215 -3.3612,-1.9129 l -0.16878,-0.084 z m -24.86502,6.5929 c -0.82817,0.8437 -1.66123,1.6825 -2.49894,2.5166 1.59965,1.3237 3.1947,2.653 4.78515,3.9877 0.0944,1.6423 -0.61261,3.4695 0.51399,4.8737 0.26984,1.5617 1.53777,1.1531 2.71093,0.9318 1.93873,-0.3309 3.99662,-0.7524 5.72074,-1.6625 0.68351,-1.1007 2.20908,-1.8871 1.84754,-3.3612 0.39098,-1.3038 -0.60887,-2.03 -1.46858,-2.8158 -1.66668,-1.545 -3.29865,-3.3762 -5.36612,-4.316 -2.08136,-0.061 -4.16289,-0.1115 -6.24471,-0.1543 z m 25.62713,20.0445 c -2.33821,1.505 -4.66684,3.0263 -6.92963,4.6434 0.8453,0.5877 1.38958,2.3813 2.50597,2.0058 2.39595,-0.9839 5.208,-0.2746 7.50742,-1.4565 -0.15539,-1.7421 0.12795,-3.6924 -0.93933,-5.1927 -0.71481,0 -1.42962,0 -2.14443,0 z m 42.55235,19.7786 c -0.73341,0.8619 -1.82837,1.5741 -2.33941,2.5281 0.13311,1.8123 -0.27347,3.733 0.21869,5.4731 0.98374,2.6817 2.52837,5.0993 4.31834,7.3113 -0.19362,1.1306 0.52471,2.6465 -0.67653,3.3515 -1.40228,1.5358 -3.36415,2.6721 -3.9471,4.7834 -0.59866,0.7194 -0.66813,2.7098 -1.59499,2.6296 -1.21071,-0.9639 -1.95762,0.081 -2.73022,1.014 -1.40494,1.6519 -3.30029,2.9827 -3.90246,5.1611 -1.12627,1.473 -0.20009,3.1581 0.9222,4.365 1.64609,0.7291 -1.05418,2.1494 0.81117,2.4007 0.95045,0.4743 2.20352,0.6637 2.39062,1.9059 1.04952,2.5778 1.49081,5.3474 2.13444,8.0443 1.21706,0.1983 1.80761,0.8283 1.48871,2.085 0.17389,1.7984 1.53579,3.1749 1.81419,5.2271 1.05044,1.5597 0.13861,3.3822 0.0619,5.0929 -0.5927,4.1332 -1.08367,8.2958 -1.00767,12.4778 1.65811,0.5507 1.67603,2.9018 3.0989,3.4608 1.77585,0.5976 3.84406,0.6076 5.1776,2.0864 1.1494,1.3608 3.41298,1.0765 4.34756,2.4926 0.72496,0.7485 0.93275,2.4418 2.23913,2.1153 1.1325,-0.082 1.67162,-1.5408 2.55736,-2.1955 1.8608,-1.6191 2.47393,-4.0696 4.24944,-5.7519 0.51138,-0.9863 -0.42853,-2.533 0.79375,-3.2312 1.02735,-0.9431 1.87702,-2.2815 2.99767,-2.9996 1.24326,0.3029 2.07978,-0.4053 2.83854,-1.3068 0.80918,-0.6526 1.47209,-1.6688 2.37196,-2.0959 1.32061,0.3658 2.04812,-0.7724 2.91957,-1.5456 1.13534,-0.9389 2.13326,-2.2374 3.35423,-2.952 2.72023,-0.013 5.52383,0.2625 8.19229,0.069 3.27403,-2.363 6.98787,-4.0154 10.55955,-5.8216 3.0737,-2.9223 6.1473,-5.8445 9.2209,-8.7668 -0.1998,-1.0116 0.5961,-2.671 -0.8626,-2.8633 -2.1257,-1.0295 -4.5082,-1.6393 -6.1822,-3.3995 -1.0003,-0.9548 -2.4001,-1.7067 -3.1651,-2.7696 -0.0954,-1.3653 0.1362,-2.8433 -0.1487,-4.1436 -0.76889,-0.6077 -1.05534,-2.3585 -2.26304,-1.8893 -1.51565,0.2187 -3.03363,0.4199 -4.55166,0.6213 0.21267,-2.5521 0.42534,-5.1042 0.63801,-7.6563 -3.87433,-4.3686 -8.25858,-8.3725 -13.61437,-10.8414 -5.24861,-2.5758 -10.63026,-5.6764 -16.65612,-5.6231 -2.54357,-1.9151 -5.35602,-3.4172 -8.20567,-4.8206 0.45591,-1.4627 -1.29249,-1.5489 -2.20432,-2.1576 -1.79377,-0.892 -3.69666,-1.5089 -5.66459,-1.8654 z"
     style="fill:#b3b3b3"
     id="HI_2"
     inkscape:connector-curvature="0" />
</svg>
