<?xml version="1.0" encoding="UTF-8" standalone="no"?>
<svg
   xmlns:dc="http://purl.org/dc/elements/1.1/"
   xmlns:cc="http://creativecommons.org/ns#"
   xmlns:rdf="http://www.w3.org/1999/02/22-rdf-syntax-ns#"
   xmlns:svg="http://www.w3.org/2000/svg"
   xmlns="http://www.w3.org/2000/svg"
   xmlns:sodipodi="http://sodipodi.sourceforge.net/DTD/sodipodi-0.dtd"
   xmlns:inkscape="http://www.inkscape.org/namespaces/inkscape"
   version="1.0"
   width="164.87598"
   height="441.03098"
   id="svg2"
   sodipodi:docname="ID_1.svg"
   inkscape:version="0.92.2 5c3e80d, 2017-08-06">
  <metadata
     id="metadata8">
    <rdf:RDF>
      <cc:Work
         rdf:about="">
        <dc:format>image/svg+xml</dc:format>
        <dc:type
           rdf:resource="http://purl.org/dc/dcmitype/StillImage" />
      </cc:Work>
    </rdf:RDF>
  </metadata>
  <defs
     id="defs6" />
  <sodipodi:namedview
     pagecolor="#ffffff"
     bordercolor="#666666"
     borderopacity="1"
     objecttolerance="10"
     gridtolerance="10"
     guidetolerance="10"
     inkscape:pageopacity="0"
     inkscape:pageshadow="2"
     inkscape:window-width="468"
     inkscape:window-height="449"
     id="namedview4"
     showgrid="false"
     inkscape:zoom="0.12542268"
     inkscape:cx="912.07575"
     inkscape:cy="-278.62718"
     inkscape:window-x="0"
     inkscape:window-y="0"
     inkscape:window-maximized="0"
     inkscape:current-layer="svg2" />
  <path
     d="m 0,425.89461 20.44474,-112.18402 1.16302,-1.01853 c 0.63966,-0.56019 1.50311,-1.67399 1.91871,-2.47512 0.41564,-0.80113 0.75569,-2.03814 0.75569,-2.74892 v -1.29231 l 1.59443,-0.61184 0.78882,-3.59152 -0.62447,-0.62451 c -0.34351,-0.34347 -0.62452,-1.08387 -0.62452,-1.64533 v -1.02083 h 1.64365 l 2.9869,-3.91604 -0.38372,-2.03881 -2.54544,-1.11966 v -3.16941 L 26.4089,288.1786 c -0.3899,-0.14254 -1.21933,-0.33332 -1.84317,-0.42395 -0.62384,-0.0906 -1.45741,-0.36645 -1.85241,-0.61292 l -0.71816,-0.44813 0.65753,-1.06389 -1.78776,-0.68601 -1.81691,1.50792 -2.20137,-2.71858 1.76423,-0.98733 v -2.55243 l -1.32351,-1.32348 2.03542,-4.51366 -0.6763,-1.76238 h 0.49102 c 0.27001,0 1.28285,-0.69485 2.25071,-1.54411 0.96781,-0.84926 1.75969,-1.74756 1.75969,-1.99623 0,-0.24865 0.69337,-1.53166 1.54083,-2.85113 0.84746,-1.31946 2.00287,-3.16465 2.56762,-4.10041 0.56469,-0.93576 1.18053,-2.16102 1.36848,-2.72278 l 0.34175,-1.0214 1.63951,-0.3279 c 0.90168,-0.18034 1.77682,-0.55013 1.94469,-0.82177 l 0.30523,-0.49387 2.20159,-1.47119 2.31343,-2.24183 c 1.27235,-1.23301 2.58537,-2.74075 2.91776,-3.35053 l 0.60439,-1.10871 0.17666,-5.56702 3.63916,-2.99102 -0.0102,-1.37791 2.28581,-1.22333 1.07987,-2.38572 4.00699,-7.37986 v -2.02066 l 3.26099,-4.16357 c 1.79355,-2.28997 3.76483,-5.14558 4.38062,-6.34579 l 1.11956,-2.18221 1.31376,-0.86079 c 0.72252,-0.47343 1.56913,-1.3381 1.88139,-1.92147 l 0.56764,-1.06068 -2.31564,-5.23487 -0.0377,-4.10928 -2.08113,-2.4929 -3.068,-0.77003 -1.0235,-2.69192 -0.86475,-0.0709 c -0.4756,-0.039 -1.17322,-0.10279 -1.55036,-0.14178 l -0.68566,-0.0709 -0.71215,-3.48197 -2.58712,-3.49931 0.70879,-1.14691 -0.61771,-1.60719 c -0.33977,-0.88396 -0.71867,-2.59497 -0.84202,-3.80225 l -0.2243,-2.19505 -1.29861,-1.56475 h 1.14084 l 0.35882,-0.99247 c 0.1973,-0.54587 0.72405,-1.62053 1.17055,-2.38815 l 0.81179,-1.39567 -1.12348,-1.35368 -0.34601,-6.96863 -0.65327,-0.65323 c -0.35928,-0.35928 -0.65322,-1.09135 -0.65322,-1.62681 v -0.97357 l -1.22659,-0.40886 1.74273,-3.372 L 77.20812,-2e-5 l 38.75729,6.822955 -10.43313,61.013037 4.66991,9.66316 1.39622,0.002 0.32944,1.3126 c 0.1812,0.72193 0.28345,1.55136 0.22719,1.84317 -0.0562,0.29181 -0.072,1.10478 -0.035,1.8066 l 0.0671,1.27604 h 1.70139 v 1.6572 l 2.36629,2.20455 -1.31262,2.45273 1.93164,2.94807 -2.98531,2.17463 v 0.77338 c 0,0.42536 0.61783,1.93532 1.3729,3.35547 l 1.37291,2.582088 h -3.31294 v 2.18619 l 1.30621,1.03364 c 0.71838,0.5685 1.47601,1.48025 1.68358,2.02611 l 0.37737,0.99248 h 1.48491 l 1.95347,2.28148 v 1.01938 c 0,0.56065 0.31901,1.42464 0.70892,1.91996 0.3899,0.49533 1.9829,1.56494 3.54001,2.37691 1.55717,0.81198 3.12454,1.47633 3.48308,1.47633 h 0.65197 l 0.68906,2.74551 -0.68378,1.78195 1.81906,0.69805 v 1.54012 l 2.18713,1.17051 1.3023,2.69569 c 0.71628,1.48263 1.75543,3.30433 2.30924,4.04821 l 1.00688,1.35253 v 3.2498 h 1.49988 l 2.82674,4.31749 -1.00132,3.00406 1.9081,4.02103 h 1.29929 l 1.41675,2.26851 h 1.69174 v 1.02083 c 0,0.56146 -0.26354,1.28441 -0.58573,1.60655 l -0.58573,0.58573 0.76755,2.00019 3.52312,-0.70196 0.18903,-0.55428 c 0.10401,-0.30486 0.53338,-0.55429 0.9543,-0.55429 h 0.76517 l 0.76495,2.41012 -1.36259,0.84214 1.8375,3.55329 h 3.4482 l 2.26999,1.21487 2.71966,-1.782 h 2.80865 l 0.57995,0.93837 -2.49021,8.13569 h -2.02833 l -0.65288,1.70138 0.43368,0.99248 c 0.23854,0.54586 0.36926,1.36822 0.29043,1.82746 -0.0788,0.45925 -0.62946,1.17554 -1.2237,1.59177 l -1.08043,0.75677 v 3.83864 l -1.13426,0.70101 v 2.20158 h -1.737 l -0.65838,1.71583 1.30995,1.57844 -0.72286,2.88025 -3.57943,0.34746 -0.34952,3.02184 2.33447,0.74093 v 2.05319 l -1.75181,1.45388 0.37425,1.7528 c 0.20587,0.96404 0.66383,2.11089 1.01771,2.54854 l 0.64341,0.79574 0.10657,2.0399 c 0.0586,1.12195 0.18618,2.55032 0.28356,3.17417 l 0.177,1.13425 -4.72997,0.34436 -0.98527,1.5292 c -0.54189,0.84107 -1.32793,1.7333 -1.7467,1.98274 l -0.76143,0.45353 v 0.74337 c 0,0.40885 0.59487,1.61997 1.32198,2.69137 l 1.32192,1.948 -1.0759,2.41122 -2.77808,0.69725 0.12528,1.25572 c 0.069,0.69065 -0.0693,1.95754 -0.3071,2.81532 l -0.43243,1.55961 c -1.61401,0.52783 -3.3025,2.32196 -4.98121,3.94986 v -1.11422 h -2.42703 l -1.37886,-1.88568 -1.8654,0.71582 v 4.57263 h 1.20118 l -0.56945,0.92144 c 1.50455,1.22451 3.16551,3.56618 5.14074,8.15262 h 1.13505 l -6.30851,6.10654 c -1.27738,5.95176 -2.47952,11.90352 -3.35616,17.85528 -3.17561,3.23065 -6.73479,6.22526 -10.7865,8.91677 l -3.47021,-0.69404 c 0.10786,-1.139 -0.8644,-2.278 -1.65692,-3.417 l -3.43975,1.42477 -1.18422,4.39792 -2.30459,2.14705 -3.18749,0.63751 -1.83812,1.8381 v 3.92448 l 1.65823,0.63631 0.66904,2.10797 -1.25772,4.67087 -3.33806,4.22744 c 1.60333,1.19188 3.36205,2.3773 3.40277,3.63429 h 1.83018 l -0.77209,5.1487 c 2.55339,3.10366 3.43823,2.21292 6.06746,4.35591 l -1.47383,1.69419 0.70806,1.84516 1.29646,0.0167 -2.82561,1.42959 -0.38723,2.01095 1.3564,1.63441 0.87604,-0.54142 0.54473,2.84949 c -0.59102,0.63071 -2.32135,0.79535 -4.38498,0.82362 l 5e-5,-1.37791 -2.44548,-1.28992 0.17697,-5.98378 -1.74948,-1.45192 -1.31302,1.31304 h 0.81707 c -0.98264,2.66748 -2.82584,5.36683 -5.62859,8.10172 l -9.68718,1.11584 c -1.02796,1.77032 -2.04351,3.5442 -2.60969,5.44647 l -2.40004,-0.53776 c -1.68859,2.47177 -2.57465,4.31936 -3.05277,5.84965 -2.51805,1.27446 -4.96228,2.39458 -6.75005,2.1421 l -2.65635,2.5016 -6.72123,-0.64941 -5.62275,-8.54149 -5.29874,1.13499 c -1.01564,2.34854 -1.18866,4.80943 -1.20441,7.29129 l 1.65698,0.63586 8.54635,13.32546 c -0.77056,5.16319 -1.85601,10.38937 -2.95702,15.61865 l -13.06544,-2.35122 0.5048,1.37565 2.43729,1.10183 -0.62997,2.50981 2.37276,1.4818 v 1.42854 h 0.47366 c 3.09546,1.90385 3.99146,4.08578 7.46614,5.63569 v -2.77981 l 1.70138,-0.55176 v 1.09866 h 2.26852 v 1.05892 l 3.11921,0.3589 c -0.25229,0.93153 0.29731,1.82087 1.32402,2.6851 l 6.61578,0.15054 c 0.59428,0.84451 1.92397,1.19873 3.73046,1.2351 l 1.31698,1.31698 h 2.41234 c -0.54729,5.88919 -1.43968,2.10586 -2.07852,9.96237 6.1246,1.03209 12.36322,1.5592 18.40219,3.03045 L 89.35494,441.0306 C 59.56997,436.853 29.785,431.18075 3e-5,425.89423 Z"
     style="fill:#b3b3b3;fill-opacity:1"
     id="ID_1"
     inkscape:connector-curvature="0" />
</svg>
