<?xml version="1.0" encoding="UTF-8" standalone="no"?>
<svg
   xmlns:dc="http://purl.org/dc/elements/1.1/"
   xmlns:cc="http://creativecommons.org/ns#"
   xmlns:rdf="http://www.w3.org/1999/02/22-rdf-syntax-ns#"
   xmlns:svg="http://www.w3.org/2000/svg"
   xmlns="http://www.w3.org/2000/svg"
   xmlns:sodipodi="http://sodipodi.sourceforge.net/DTD/sodipodi-0.dtd"
   xmlns:inkscape="http://www.inkscape.org/namespaces/inkscape"
   version="1.0"
   width="88.9506"
   height="206.70065"
   id="svg2"
   sodipodi:docname="IL_15.svg"
   inkscape:version="0.92.2 5c3e80d, 2017-08-06">
  <metadata
     id="metadata56">
    <rdf:RDF>
      <cc:Work
         rdf:about="">
        <dc:format>image/svg+xml</dc:format>
        <dc:type
           rdf:resource="http://purl.org/dc/dcmitype/StillImage" />
      </cc:Work>
    </rdf:RDF>
  </metadata>
  <defs
     id="defs54" />
  <sodipodi:namedview
     pagecolor="#ffffff"
     bordercolor="#666666"
     borderopacity="1"
     objecttolerance="10"
     gridtolerance="10"
     guidetolerance="10"
     inkscape:pageopacity="0"
     inkscape:pageshadow="2"
     inkscape:window-width="640"
     inkscape:window-height="480"
     id="namedview52"
     showgrid="false"
     inkscape:zoom="0.12542268"
     inkscape:cx="-374.82985"
     inkscape:cy="5.7687714"
     inkscape:window-x="0"
     inkscape:window-y="0"
     inkscape:window-maximized="0"
     inkscape:current-layer="svg2" />
  <path
     d="m 31.4757,0 -27.2222,3.43822 2.3571,21.33822 6.9119,-1.2229 -0.1064,6.48653 -4.98,1.25835 -3.4206,4.7497 1.5596,2.8002 0.035,5.81307 -1.7545,1.45326 0.7975,1.22285 15.4542,-1.27604 c 0.5247,2.32199 0.6239,4.71442 0.9393,7.07141 l -22.0471,2.46344 1.9141,14.16052 18.3962,-2.46349 1.6837,12.95537 -7.7272,1.22284 3.6687,1.77228 -1.7014,2.95973 -5.246,-1.70138 -1.5596,1.98495 0.6735,7.00046 10.6868,-1.20514 v 4.8029 l 4.3776,-0.74436 0.6911,3.47366 h 2.7293 c 1.5621,1.38266 3.1977,2.92633 3.9345,2.65842 l 0.053,1.41782 5.4586,-0.3899 2.0381,16.83663 24.8296,-2.94198 2.6052,19.77862 9.2518,-1.20708 -0.037,5.60187 3.8123,1.9875 0.7599,1.98353 -3.4375,1.87652 1.3477,10.74142 -1.437,3.24465 -2.6397,0.70631 0.1068,2.97861 -1.79,3.45597 -3.0141,-0.69121 v 2.42611 l -3.632,0.42728 -0.3544,4.25346 -3.6686,1.08107 0.8329,13.61108 -5.0711,1.34722 0.8545,7.26634 c -3.26,0.20966 -6.8233,0.27193 -10.2452,1.45298 l 0.7267,6.71696 h 4.9446 l 0.035,-4.87379 c 1.2064,-0.48819 6.194,-0.98284 10.0311,-1.47096 l 0.7798,5.21049 4.0762,0.0531 0.6203,1.34693 0.4963,-0.63802 -0.9216,-4.16482 c -0.091,-0.46788 -0.3751,-1.29737 -0.6203,-1.84317 l -0.4431,-0.99248 0.4254,-0.99247 c 0.2324,-0.54586 0.3656,-1.80024 0.3012,-2.7825 l -0.1063,-1.77228 1.1342,-0.70891 -1.6127,-3.88126 0.3367,-0.88614 c 0.1862,-0.48535 0.546,-0.88614 0.8152,-0.88614 h 0.4963 l -0.2481,-4.23577 1.2583,-0.56713 c 0.6959,-0.30863 1.3907,-0.882 1.5419,-1.27604 l 0.2835,-0.70891 -3.3673,-1.75452 v -3.36733 h 1.1343 v -3.52686 l 2.8356,0.53168 v -1.66594 l 2.2685,0.58488 v -3.79267 l 2.3572,-1.66594 1.5064,-4.3598 -1.0456,-1.93181 1.276,-0.69116 c 0.6993,-0.37431 1.5884,-1.0036 1.985,-1.40013 l 0.7266,-0.70891 -0.1241,-1.04562 c -0.066,-0.56792 0.079,-2.30396 0.319,-3.86356 0.2402,-1.55961 0.6775,-3.3895 0.9571,-4.07624 l 0.4962,-1.25834 3.3496,-1.73684 0.7798,-4.59017 -0.9038,-1.38237 c -0.4971,-0.75865 -0.9039,-1.77988 -0.9039,-2.26852 v -0.88614 l -1.7014,-0.65577 v -2.7293 l 1.3115,-2.09129 -0.709,-1.87861 -2.7115,-1.02792 -0.7267,-4.55473 -1.0101,-0.74436 c -0.5503,-0.40691 -1.4446,-1.43942 -1.985,-2.28626 l -0.9748,-1.54185 V 115.836 l 0.8862,-0.72666 c 0.4849,-0.40244 1.1119,-1.18094 1.4001,-1.71908 l 0.5317,-0.97479 -2.2863,-2.88878 0.4608,-4.21802 2.5698,-1.93181 L 69.1177,1.47092 38.4219,6.23838 h -6.1675 z"
     style="fill:#b3b3b3;fill-opacity:1"
     id="IL_15"
     inkscape:connector-curvature="0" />
</svg>
