<?xml version="1.0" encoding="UTF-8" standalone="no"?>
<svg
   xmlns:dc="http://purl.org/dc/elements/1.1/"
   xmlns:cc="http://creativecommons.org/ns#"
   xmlns:rdf="http://www.w3.org/1999/02/22-rdf-syntax-ns#"
   xmlns:svg="http://www.w3.org/2000/svg"
   xmlns="http://www.w3.org/2000/svg"
   xmlns:sodipodi="http://sodipodi.sourceforge.net/DTD/sodipodi-0.dtd"
   xmlns:inkscape="http://www.inkscape.org/namespaces/inkscape"
   version="1.0"
   width="84.563004"
   height="115.54109"
   id="svg2"
   sodipodi:docname="IL_12.svg"
   inkscape:version="0.92.2 5c3e80d, 2017-08-06">
  <metadata
     id="metadata32">
    <rdf:RDF>
      <cc:Work
         rdf:about="">
        <dc:format>image/svg+xml</dc:format>
        <dc:type
           rdf:resource="http://purl.org/dc/dcmitype/StillImage" />
      </cc:Work>
    </rdf:RDF>
  </metadata>
  <defs
     id="defs30" />
  <sodipodi:namedview
     pagecolor="#ffffff"
     bordercolor="#666666"
     borderopacity="1"
     objecttolerance="10"
     gridtolerance="10"
     guidetolerance="10"
     inkscape:pageopacity="0"
     inkscape:pageshadow="2"
     inkscape:window-width="640"
     inkscape:window-height="480"
     id="namedview28"
     showgrid="false"
     inkscape:zoom="0.12542268"
     inkscape:cx="-330.28195"
     inkscape:cy="59.795514"
     inkscape:window-x="0"
     inkscape:window-y="0"
     inkscape:window-maximized="0"
     inkscape:current-layer="svg2" />
  <path
     d="m 66.8423,115.51198 c -0.1537,0.15369 -0.5941,-0.31663 -0.9786,-1.04522 -0.3846,-0.72853 -1.3623,-2.00537 -2.1727,-2.8374 l -1.4735,-1.51287 -3.1192,0.60586 v 2.05981 l 2.2685,0.72003 v 1.80075 l -0.9925,-0.82898 c -0.5458,-0.45585 -1.7108,-1.1355 -2.5888,-1.51026 l -1.5964,-0.68141 0.6972,-2.19671 -1.996,-2.11619 c -1.0978,-1.16386 -2.3866,-2.9392 -2.8639,-3.94511 -0.4773,-1.00592 -0.8679,-2.36465 -0.8679,-3.01928 V 99.81465 H 49.596 l -1.4399,-1.73496 1.2767,-2.80207 h 2.2164 l 0.7513,-2.36714 -0.6971,-3.71554 -1.1166,-1.01062 c -0.6142,-0.55579 -1.8853,-2.20823 -2.8246,-3.67205 -0.9394,-1.46382 -1.7079,-2.95814 -1.7079,-3.32071 v -0.65929 h 0.8173 c 0.4494,0 0.9866,-0.27409 1.1937,-0.60909 l 0.3764,-0.60915 -2.4188,-2.57471 -0.4758,-3.75933 -0.7389,-0.46867 c -0.4064,-0.25771 -1.1459,-0.47253 -1.6434,-0.4773 l -0.9046,-0.009 -2.0855,-2.30452 -2.3313,0.31957 -0.296,-3.14728 -1.3628,-0.51813 c -0.7494,-0.28492 -1.518,-0.76942 -1.7078,-1.07658 -0.1899,-0.30715 -1.1079,-0.72598 -2.0401,-0.93071 l -1.6948,-0.37226 -1.7832,-2.21226 -1.7832,-0.73863 -2.0032,2.47387 h -2.2938 l -0.7458,-2.34978 1.9147,-2.11579 -0.8112,-1.3125 -2.928,0.5597 -1.7305,-1.28625 c -0.9518,-0.70744 -2.4018,-1.44459 -3.2223,-1.6381 L 13.8635,55.02358 13.2874,52.82046 8.8414,51.62325 6.5612,49.20552 C 5.3072,47.87578 3.6077,46.33557 2.7846,45.78279 L 1.2881,44.77778 0,39.99399 0.6482,35.26482 3.5197,31.03347 v -1.76399 c 0,-0.97025 0.2542,-2.66784 0.5611,-3.77243 L 4.6387,23.48862 7.4864,19.6288 V 17.28032 L 5.2101,13.03332 9.1878,7.87256 V 3.99794 L 3.8,1.52214 7.2028,0.05083 l 4.1634,-0.0512 2.516,15.8796 14.9078,-1.00347 3.3179,27.09326 26.9872,-2.90698 v 5.74076 l 21.4584,-2.53603 4.0063,31.88806 -8.9403,1.39916 -0.9992,-4.27848 -6.6065,-0.38479 2.4394,24.19547 5.601,-0.0747 0.3941,3.66853 h -3.6538 l -4.0582,4.7412 v 1.89415 l -3.4028,4.69742 v 0.88375 c 0,0.48609 0.4016,1.66044 0.8925,2.6097 0.4909,0.94926 0.7668,1.85168 0.6131,2.00537 z"
     style="fill:#b3b3b3;fill-opacity:1"
     id="IL_12"
     inkscape:connector-curvature="0" />
</svg>
