<?xml version="1.0" encoding="UTF-8" standalone="no"?>
<svg
   xmlns:dc="http://purl.org/dc/elements/1.1/"
   xmlns:cc="http://creativecommons.org/ns#"
   xmlns:rdf="http://www.w3.org/1999/02/22-rdf-syntax-ns#"
   xmlns:svg="http://www.w3.org/2000/svg"
   xmlns="http://www.w3.org/2000/svg"
   xmlns:sodipodi="http://sodipodi.sourceforge.net/DTD/sodipodi-0.dtd"
   xmlns:inkscape="http://www.inkscape.org/namespaces/inkscape"
   version="1.0"
   width="29.9902"
   height="33.963631"
   id="svg2"
   sodipodi:docname="IL_8.svg"
   inkscape:version="0.92.2 5c3e80d, 2017-08-06">
  <metadata
     id="metadata144">
    <rdf:RDF>
      <cc:Work
         rdf:about="">
        <dc:format>image/svg+xml</dc:format>
        <dc:type
           rdf:resource="http://purl.org/dc/dcmitype/StillImage" />
      </cc:Work>
    </rdf:RDF>
  </metadata>
  <defs
     id="defs142" />
  <sodipodi:namedview
     pagecolor="#ffffff"
     bordercolor="#666666"
     borderopacity="1"
     objecttolerance="10"
     gridtolerance="10"
     guidetolerance="10"
     inkscape:pageopacity="0"
     inkscape:pageshadow="2"
     inkscape:window-width="640"
     inkscape:window-height="480"
     id="namedview140"
     showgrid="false"
     inkscape:zoom="0.12542268"
     inkscape:cx="-390.01495"
     inkscape:cy="-255.43899"
     inkscape:window-x="0"
     inkscape:window-y="0"
     inkscape:window-maximized="0"
     inkscape:current-layer="svg2" />
  <path
     d="M 11.8421,29.06245 13.7355,28.13731 12.867,23.24699 14.3708,22.97561 13.9818,17.01386 9.29,16.99646 6.6298,15.77534 6.1708,18.58898 C 4.7111,18.8426 3.2333,19.28606 1.7552,19.02567 L 0,3.5464 29.6147,-3e-5 c 0.4173,1.60746 0.3338,2.71428 0.3755,4.44691 -1.1601,0.23892 -2.3342,0.46547 -3.4027,0.94895 l 1.2011,3.36092 -1.9128,1.3987 L 23.86,7.66606 21.4833,9.81695 c -0.065,1.98764 0.6634,3.89183 1.4331,5.21193 l -0.057,11.02615 -1.5988,-0.9218 -1.1602,-3.01524 h -2.587 c -0.032,1.75081 0.186,3.37645 1.1551,4.50144 l 5.1743,3.03232 -1.5335,2.0495 -4.3269,0.33262 -0.06,-3.60251 c -2.5043,0.31665 -3.7153,0.80018 -4.8846,2.32675 l 2.191,3.20549 c -2.8811,-0.7993 -2.9669,-2.01581 -3.3864,-4.90118 z"
     style="fill:#b3b3b3;fill-opacity:1"
     id="IL_8"
     inkscape:connector-curvature="0" />
</svg>
