<?xml version="1.0" encoding="UTF-8" standalone="no"?>
<svg
   xmlns:dc="http://purl.org/dc/elements/1.1/"
   xmlns:cc="http://creativecommons.org/ns#"
   xmlns:rdf="http://www.w3.org/1999/02/22-rdf-syntax-ns#"
   xmlns:svg="http://www.w3.org/2000/svg"
   xmlns="http://www.w3.org/2000/svg"
   xmlns:sodipodi="http://sodipodi.sourceforge.net/DTD/sodipodi-0.dtd"
   xmlns:inkscape="http://www.inkscape.org/namespaces/inkscape"
   version="1.0"
   width="46.8979"
   height="105.6533"
   id="svg2"
   sodipodi:docname="IN_5.svg"
   inkscape:version="0.92.2 5c3e80d, 2017-08-06">
  <metadata
     id="metadata40">
    <rdf:RDF>
      <cc:Work
         rdf:about="">
        <dc:format>image/svg+xml</dc:format>
        <dc:type
           rdf:resource="http://purl.org/dc/dcmitype/StillImage" />
      </cc:Work>
    </rdf:RDF>
  </metadata>
  <defs
     id="defs38" />
  <sodipodi:namedview
     pagecolor="#ffffff"
     bordercolor="#666666"
     borderopacity="1"
     objecttolerance="10"
     gridtolerance="10"
     guidetolerance="10"
     inkscape:pageopacity="0"
     inkscape:pageshadow="2"
     inkscape:window-width="640"
     inkscape:window-height="480"
     id="namedview36"
     showgrid="false"
     inkscape:zoom="0.12542268"
     inkscape:cx="-501.63415"
     inkscape:cy="-108.39764"
     inkscape:window-x="0"
     inkscape:window-y="0"
     inkscape:window-maximized="0"
     inkscape:current-layer="svg2" />
  <path
     d="M 35.8943,105.6533 35.0791,95.35407 h -2.0786 l -0.7654,-5.10415 c -1.6125,0.4381 -3.1543,0.77021 -4.4378,0.7148 l 1.2107,7.07386 -3.8152,0.54178 -1.5856,-9.33466 -8.8243,1.59295 -0.9713,-1.38941 9.38,-2.13325 0.6585,-2.62399 3.542,-1.23476 C 26.8295,79.97695 26.4299,76.55098 26.3633,73.23605 L 19.7696,75.10639 14.4994,72.41791 11.9473,72.71186 7.7648,45.11503 4.5746,44.31249 V 42.04398 L 1.1973,42.26379 0,34.7938 9.6788,33.41988 5.6636,6.51926 15.9172,4.91349 V 1.97405 L 27.2597,0 v 2.96688 l 16.2393,-2.7027 3.3989,21.0796 c -2.1725,-0.0891 -3.943,0.30421 -5.099,1.43495 l 2.586,16.31107 c -6.3996,1.05032 -12.8423,1.88582 -19.2053,3.14382 l 3.9345,27.03253 c 4.7782,-0.12681 8.5932,-1.492 13.5916,-1.86653 l 0.7079,4.03529 -0.9081,0.19265 0.5413,4.75277 -1.7258,1.70626 1.4714,7.16562 -4.1901,-0.79982 v 4.10952 l 4.3834,-0.70091 2.5189,16.4097 z"
     style="fill:#b3b3b3;fill-opacity:1"
     id="IN_5"
     inkscape:connector-curvature="0" />
</svg>
