<?xml version="1.0" encoding="UTF-8" standalone="no"?>
<svg
   xmlns:dc="http://purl.org/dc/elements/1.1/"
   xmlns:cc="http://creativecommons.org/ns#"
   xmlns:rdf="http://www.w3.org/1999/02/22-rdf-syntax-ns#"
   xmlns:svg="http://www.w3.org/2000/svg"
   xmlns="http://www.w3.org/2000/svg"
   xmlns:sodipodi="http://sodipodi.sourceforge.net/DTD/sodipodi-0.dtd"
   xmlns:inkscape="http://www.inkscape.org/namespaces/inkscape"
   version="1.0"
   width="59.9562"
   height="171.91821"
   id="svg2"
   sodipodi:docname="IN_8.svg"
   inkscape:version="0.92.2 5c3e80d, 2017-08-06">
  <metadata
     id="metadata64">
    <rdf:RDF>
      <cc:Work
         rdf:about="">
        <dc:format>image/svg+xml</dc:format>
        <dc:type
           rdf:resource="http://purl.org/dc/dcmitype/StillImage" />
      </cc:Work>
    </rdf:RDF>
  </metadata>
  <defs
     id="defs62" />
  <sodipodi:namedview
     pagecolor="#ffffff"
     bordercolor="#666666"
     borderopacity="1"
     objecttolerance="10"
     gridtolerance="10"
     guidetolerance="10"
     inkscape:pageopacity="0"
     inkscape:pageshadow="2"
     inkscape:window-width="640"
     inkscape:window-height="480"
     id="namedview60"
     showgrid="false"
     inkscape:zoom="0.12542268"
     inkscape:cx="-444.81705"
     inkscape:cy="2.6141214"
     inkscape:window-x="0"
     inkscape:window-y="0"
     inkscape:window-maximized="0"
     inkscape:current-layer="svg2" />
  <path
     d="m 4.5625,2.36215 8.6233,70.29084 -2.3571,1.66594 -0.3545,3.20779 1.0811,1.36469 c 0.5889,0.74872 1.0633,1.68942 1.0633,2.09128 0,0.40193 -0.6666,1.52195 -1.4887,2.49889 l -1.5064,1.79002 1.2406,2.71156 2.8356,1.84317 0.709,4.8029 3.3141,1.25829 v 3.68633 l -1.7545,1.93181 0.762,0.77981 c 0.4169,0.42699 1.3442,1.90107 2.0559,3.27868 l 1.2937,2.51663 -0.7798,5.5827 -3.7926,2.25077 -0.6912,2.17993 0.7089,2.26851 H 14.32 v 5.63584 l -3.3496,2.48119 0.5672,0.93928 -1.2406,4.60792 -2.7825,2.42805 v 3.70403 l -3.9167,1.86092 -1.1875,-0.74436 v 2.83565 l -0.5671,0.35445 c -0.3119,0.19271 -0.5671,0.70585 -0.5671,1.13426 v 0.7798 l 2.2685,0.70891 1.152,2.17988 -1.3824,2.21537 -2.0381,0.53168 0.6912,3.45592 -1.7546,1.77227 1.6837,4.05855 -1.3115,1.57729 0.7444,2.95974 -1.3293,1.59504 1.4001,1.68364 -0.6557,1.71914 1.2583,0.0177 c 0.692,0.005 1.6314,0.24086 2.0913,0.53168 l 0.8329,0.53169 2.1622,-2.32166 -1.2051,-1.6128 c -0.662,-0.89532 -1.2052,-1.98149 -1.2052,-2.39254 0,-0.41117 0.4006,-1.30945 0.8862,-2.00271 l 0.8861,-1.25828 h 2.109 l 2.3749,3.01287 1.8254,-0.88614 c 1.0098,-0.48212 2.5216,-1.17804 3.3496,-1.5596 l 1.5065,-0.69122 1.3114,0.79755 -0.3544,3.58 h 2.1445 l 1.2228,-1.93181 -2.5875,-2.76475 0.7621,-4.09393 2.1799,-0.28357 1.4178,2.83565 2.3039,0.3367 2.0913,-2.32165 h 3.2788 l 1.5418,0.7798 c 0.8423,0.42835 2.0984,0.95323 2.8002,1.1697 l 1.2761,0.3899 v -2.16218 c 2.2025,-3.18431 4.3084,-6.31492 5.1396,-8.73735 l 2.0913,0.65577 0.7798,-5.1396 h 2.1976 c 0.1087,-2.4449 -0.1806,-3.79529 -0.6912,-4.53703 h -2.5521 l -2.4989,-18.89248 1.4887,-0.97478 4.7852,0.24812 0.7089,-0.72661 1.5596,0.60258 3.4028,-2.42805 6.5397,-0.76205 -6.9855,-49.26471 2.6303,-2.25309 -1.3797,-7.27093 -3.1797,0.78207 1.3366,-10.5423 -1.9141,-0.0582 -2.3113,-14.05186 -18.9275,2.62796 -0.8688,-5.33957 -5.1524,0.49856 -0.742,-6.18754 -4.2485,-0.11632 -0.8784,-6.80555 h -3.4806 l 3.4428,-5.55496 h 4.927 l -0.638,3.26099 c 1.6296,0.2142 3.2253,0.765 4.8556,0.88069 L 23.7485,0 Z"
     style="fill:#b3b3b3;fill-opacity:1"
     id="IN_8"
     inkscape:connector-curvature="0" />
</svg>
