<?xml version="1.0" encoding="UTF-8" standalone="no"?>
<svg
   xmlns:dc="http://purl.org/dc/elements/1.1/"
   xmlns:cc="http://creativecommons.org/ns#"
   xmlns:rdf="http://www.w3.org/1999/02/22-rdf-syntax-ns#"
   xmlns:svg="http://www.w3.org/2000/svg"
   xmlns="http://www.w3.org/2000/svg"
   xmlns:sodipodi="http://sodipodi.sourceforge.net/DTD/sodipodi-0.dtd"
   xmlns:inkscape="http://www.inkscape.org/namespaces/inkscape"
   version="1.0"
   width="232.9836"
   height="102.34903"
   id="svg2"
   sodipodi:docname="KY_1.svg"
   inkscape:version="0.92.2 5c3e80d, 2017-08-06">
  <metadata
     id="metadata8">
    <rdf:RDF>
      <cc:Work
         rdf:about="">
        <dc:format>image/svg+xml</dc:format>
        <dc:type
           rdf:resource="http://purl.org/dc/dcmitype/StillImage" />
      </cc:Work>
    </rdf:RDF>
  </metadata>
  <defs
     id="defs6" />
  <sodipodi:namedview
     pagecolor="#ffffff"
     bordercolor="#666666"
     borderopacity="1"
     objecttolerance="10"
     gridtolerance="10"
     guidetolerance="10"
     inkscape:pageopacity="0"
     inkscape:pageshadow="2"
     inkscape:window-width="640"
     inkscape:window-height="480"
     id="namedview4"
     showgrid="false"
     inkscape:zoom="0.12542268"
     inkscape:cx="-380.69605"
     inkscape:cy="91.139391"
     inkscape:window-x="0"
     inkscape:window-y="0"
     inkscape:window-maximized="0"
     inkscape:current-layer="svg2" />
  <path
     d="m 85.601,0 -0.8861,3.34963 2.233,2.37485 v 2.4103 L 85.158,9.90705 H 81.9679 L 81.2767,8.11703 81.6311,6.6992 81.9856,5.26369 80.9222,5.79537 C 80.3355,6.08262 79.0015,6.74565 77.9625,7.26633 76.9234,7.78701 75.6819,8.20567 75.1978,8.20567 H 74.3116 L 71.5823,5.08646 70.7671,6.18527 c -0.4551,0.60552 -0.833,1.39463 -0.833,1.75453 0,0.35995 0.5104,1.11911 1.1342,1.68369 l 1.1343,1.02792 -0.035,1.80772 -2.2331,2.67611 -3.8281,-1.32918 -0.7444,3.93446 -2.747,1.78997 -1.8255,3.86356 2.2154,4.12944 4.0939,3.86356 v 2.10898 l -0.6734,0.69122 -11.0499,3.21074 -2.2747,2.69114 -2.7854,-0.67369 -2.4989,1.75458 -0.8155,7.26906 0.5673,1.04289 c 0.5507,0.85246 1.5873,2.08948 2.304,2.76476 l 1.2938,1.24059 0.7444,2.94198 -0.7622,5.13961 -5.0509,1.08111 -4.2535,-2.81795 -5.689,-1.08106 -6.0789,-3.13696 -7.0182,-0.46079 -3.5269,4.44845 -0.7089,2.85333 -2.7647,3.20785 v 1.1874 c 0,0.65333 0.2075,1.49053 0.4431,1.86092 0.2354,0.37039 1.1255,0.94932 1.9849,1.27604 l 1.5773,0.58482 0.6558,1.73683 -0.7798,6.25617 -2.3217,2.16218 0.6734,1.77228 2.8711,1.02792 -0.6911,1.80772 h -2.7471 l -0.6203,1.6305 2.5521,3.45591 -0.6203,1.29379 c -0.3429,0.70647 -0.7871,2.04342 -0.9925,2.97742 -0.2053,0.93401 -0.6319,2.01864 -0.957,2.4103 L 16.4826,97.812 h -2.6052 l -2.8002,-3.5623 -1.666,0.63802 -0.7266,6.66376 65.4325,-7.69168 1.152,-1.15196 -3.1901,-10.20831 h 12.0337 v 1.77227 l 61.3385,-9.64118 1.5242,0.58482 2.1444,-1.15195 5.9194,-0.58488 41.6486,-4.05849 16.4999,-3.36733 4.4307,-0.3722 4.1177,-0.51978 0.8801,-1.37653 -1.4741,-4.31267 0.3782,-2.18833 -0.9808,-1.85281 -3.5944,-3.59157 4.9799,-5.29891 v -2.60521 l 2.8239,0.48126 2.1385,-3.05109 -3.7927,-2.8179 -0.035,-4.64336 9.9248,-12.19327 -0.2304,-0.65577 c -0.1282,-0.35894 -0.3835,-1.80415 -0.5671,-3.20779 l -0.3368,-2.55208 -4.2889,-0.56713 -2.233,-3.40277 V 8.89683 l -1.6128,-0.62027 -0.3722,-2.35716 -4.2889,2.92429 -6.3093,0.21267 0.7621,8.22337 h -1.6128 l -1.0811,1.18739 c -0.59,0.65198 -1.0681,1.4814 -1.0811,1.84317 -0.013,0.36183 -0.2287,1.4852 -0.4785,2.49894 l -1.0513,1.69555 -0.7387,2.6997 -3.9699,1.27604 -0.6735,1.29373 c -0.3655,0.71481 -1.5707,2.39589 -2.6938,3.73954 l -2.0381,2.44574 -5.0156,3.43822 h -5.7953 l -2.942,-2.94198 -2.5698,1.1697 -0.7975,2.48119 1.1165,0.70891 3.2078,16.34039 -1.3823,0.88614 c -0.7657,0.48087 -3.1755,2.59331 -5.3346,4.71426 l -3.9167,3.86356 -1.8786,-1.70138 h -1.861 l -0.5316,-0.99248 c -0.2922,-0.54586 -0.5932,-1.24768 -0.6735,-1.5596 -0.08,-0.31192 -0.2649,-1.01374 -0.4076,-1.55961 l -0.2481,-0.99247 h -1.1343 l 0.2481,-1.70139 c 0.1374,-0.93576 0.1199,-1.70138 -0.035,-1.70138 -0.1553,0 -0.7411,0.86589 -1.3115,1.38215 l -3.1724,-0.81502 -1.3115,-1.57736 -3.1369,2.99518 0.4076,0.85069 -2.9951,3.40277 c -1.6474,1.87153 -3.1957,3.40277 -3.4382,3.40277 h -0.4431 v -1.70138 h -9.0918 l -5.8308,-9.92475 1.4001,-9.88931 -0.7266,-2.30396 1.0279,-0.0709 c 0.5669,-0.0403 1.6659,-0.14088 2.4457,-0.21268 0.7798,-0.0719 1.8074,-0.28872 2.2863,-0.49623 l 0.8684,-0.37221 2.3039,2.14448 2.1977,-1.24371 -5.5827,-11.05589 -5.7599,-1.11656 -10.2083,0.90389 -3.7218,-3.47367 -3.7927,0.31901 -7.2101,-2.14743 1.8933,-3.39982 -4.7497,-0.0354 c -4.4263,-1.49971 -9.0485,-2.63567 -13.1858,-4.85604 l -0.7089,-0.54937 v -2.4635 l 0.6735,-0.69116 c 0.3743,-0.37436 1.0997,-0.67346 1.6128,-0.67346 h 0.9393 l 2.1445,-2.35716 -1.985,-1.11651 -0.5494,-1.06336 -0.036,-4.8206 -2.1444,-0.99247 C 96.0598,1.84678 94.6027,1.40016 94.0202,1.40016 H 92.9745 L 89.9085,4.32439 86.2576,2.44578 Z M 1.1875,98.29049 0,99.46019 1.8964,102.34903 H 4.218 L 3.8636,98.66269 Z"
     style="fill:#b3b3b3;fill-opacity:1"
     id="KY_1"
     inkscape:connector-curvature="0" />
</svg>
