<?xml version="1.0" encoding="UTF-8" standalone="no"?>
<svg
   xmlns:dc="http://purl.org/dc/elements/1.1/"
   xmlns:cc="http://creativecommons.org/ns#"
   xmlns:rdf="http://www.w3.org/1999/02/22-rdf-syntax-ns#"
   xmlns:svg="http://www.w3.org/2000/svg"
   xmlns="http://www.w3.org/2000/svg"
   xmlns:sodipodi="http://sodipodi.sourceforge.net/DTD/sodipodi-0.dtd"
   xmlns:inkscape="http://www.inkscape.org/namespaces/inkscape"
   version="1.0"
   width="146.2271"
   height="62.580597"
   id="svg2"
   sodipodi:docname="KY_4.svg"
   inkscape:version="0.92.2 5c3e80d, 2017-08-06">
  <metadata
     id="metadata32">
    <rdf:RDF>
      <cc:Work
         rdf:about="">
        <dc:format>image/svg+xml</dc:format>
        <dc:type
           rdf:resource="http://purl.org/dc/dcmitype/StillImage" />
      </cc:Work>
    </rdf:RDF>
  </metadata>
  <defs
     id="defs30" />
  <sodipodi:namedview
     pagecolor="#ffffff"
     bordercolor="#666666"
     borderopacity="1"
     objecttolerance="10"
     gridtolerance="10"
     guidetolerance="10"
     inkscape:pageopacity="0"
     inkscape:pageshadow="2"
     inkscape:window-width="640"
     inkscape:window-height="480"
     id="namedview28"
     showgrid="false"
     inkscape:zoom="0.12542268"
     inkscape:cx="-556.68325"
     inkscape:cy="-41.37092"
     inkscape:window-x="0"
     inkscape:window-y="0"
     inkscape:window-maximized="0"
     inkscape:current-layer="svg2" />
  <path
     d="m 92.8775,62.5805 -6.5096,-6.96219 -4.6314,-0.74061 -0.6408,-1.66997 0.7161,-1.1587 -1.5097,-0.93304 -3.0681,0.61358 -1.2089,-2.25888 -2.582,-0.74923 -4.537,-5.40519 -6.5514,6.7507 -0.7169,-0.71691 c -0.8568,0.7827 -2.2958,1.20147 -3.7907,1.58536 v -2.19411 l -4.0747,0.41797 -0.8366,1.35357 -1.8847,-0.7232 -0.7401,1.89182 -3.4704,-0.69405 -1.3387,1.79224 -2.7037,-3.21324 -7.6131,0.27007 -0.6684,-1.08157 -4.1502,3.42092 c -4.4386,0.11564 -8.858,0.21761 -13.8486,0.72757 l -1.4707,3.65202 C 12.6804,56.85891 10.4297,57.3945 8.3867,58.34546 5.6044,56.83095 2.4961,55.7606 0,53.78978 0,53.56655 0.2486,52.72987 0.5526,51.93039 l 0.5526,-1.4535 4.6973,-1.87952 0.7523,-1.80046 C 6.9685,45.80664 7.7046,44.66649 8.1905,44.2632 L 9.074,43.53002 V 41.05008 L 7.4087,38.84832 7.3907,37.79975 C 7.3807,37.2231 6.9599,35.88155 6.4556,34.81864 L 5.5385,32.88609 6.8453,31.31152 8.6685,30.99517 c 1.0029,-0.17405 2.6685,-0.48739 3.7014,-0.69638 l 1.878,-0.37997 2.243,2.40752 h 2.8331 l 7.0474,-6.85449 1.4179,-0.29338 c 0.7798,-0.16129 1.8609,-0.5331 2.4025,-0.82619 l 0.9849,-0.53287 h 3.9593 l -0.019,-2.12674 c -0.01,-1.1697 0.06,-2.89235 0.1548,-3.82812 l 0.1732,-1.70138 -4.2535,-0.35202 v -0.42449 c 0,-0.23349 0.3747,-0.91989 0.8327,-1.52541 0.4579,-0.60547 0.8408,-1.47289 0.8507,-1.92761 l 0.018,-0.82682 -3.9837,-4.07964 6.0656,-6.51756 0.7354,0.88608 c 0.4044,0.48728 1.9028,1.40246 3.3297,2.03367 l 2.5945,1.14759 3.1223,-2.30845 h 2.238 L 47.7147,0 h 1.0362 l 0.3726,1.5596 c 0.2049,0.85779 0.6238,1.87862 0.9309,2.26852 l 0.5584,0.70891 h 4.2223 l 0.9386,1.03711 c 0.5163,0.57042 0.9386,1.32056 0.9386,1.6669 0,0.3464 1.0209,1.80926 2.2685,3.25084 l 2.2686,2.62104 v 3.30767 l 2.552,1.59584 7.6523,0.73001 3.329,-1.72152 5.2641,0.7215 1.7496,2.67021 h 2.1662 l 1.0382,2.73056 1.5935,0.305 c 0.8765,0.1677 2.4231,0.4668 3.4368,0.66467 l 1.8432,0.35979 0.065,-0.75394 c 0.036,-0.41468 0.021,-1.19647 -0.034,-1.73729 l -0.099,-0.98328 5.1745,-2.51397 3.7647,1.36133 h 4.659 l 0.7495,0.83102 c 0.4122,0.45705 1.0785,1.22267 1.4807,1.70138 0.4022,0.47872 0.9674,0.87038 1.256,0.87038 0.2887,0 0.7981,-0.51042 1.1319,-1.13426 l 0.6071,-1.13426 h 3.6776 l 2.5209,-1.7657 v -2.01671 l 3.4027,-3.03187 v -1.69265 h 2.3884 l 3.3789,-2.84324 0.4565,0.28209 c 0.251,0.15516 0.5883,1.1139 0.7494,2.13053 0.1611,1.01664 0.7358,3.07843 1.2771,4.58178 l 0.9842,2.73339 2.6972,1.76723 3.9296,-0.63768 4.6627,3.8956 h 1.5061 l 0.5706,1.84317 c 0.3138,1.01374 0.7448,2.7364 0.9578,3.82812 0.2129,1.09172 0.7065,2.36776 1.0969,2.83564 0.3903,0.46789 0.8516,1.61632 1.0251,2.55208 l 0.3154,1.70139 -4.9,0.13492 -2.5945,2.41716 h -2.4829 l -1.2632,1.52217 0.6922,0.69235 c -1.4172,1.60038 -2.5492,2.18214 -3.3989,1.75538 l -1.3084,1.57662 2.1856,3.8111 c -2.6711,3.37606 -4.4715,5.99019 -4.5544,7.10153 l -5.9214,1.24519 c -0.8786,-0.24631 -1.993,-0.25691 -3.1944,-0.18046 l -2.9419,-2.30442 -0.7118,-3.33114 1.4508,-0.82931 0.3953,-2.80769 c -1.6616,-0.15074 -3.3231,-1.05985 -4.9846,-2.58871 l -2.3881,-4.91185 -4.7907,-4.87067 -2.5991,1.82037 0.3336,0.91132 -1.6908,1.8536 -0.043,5.50898 -5.1042,5.83479 0.091,1.41107 -2.0761,1.44885 c 1.2646,2.2131 2.3121,4.44436 2.6106,6.738 -1.316,0.87995 -2.6823,1.48338 -4.16,1.47442 z"
     style="fill:#b3b3b3;fill-opacity:1"
     id="KY_4"
     inkscape:connector-curvature="0" />
</svg>
