<?xml version="1.0" encoding="UTF-8" standalone="no"?>
<svg
   xmlns:dc="http://purl.org/dc/elements/1.1/"
   xmlns:cc="http://creativecommons.org/ns#"
   xmlns:rdf="http://www.w3.org/1999/02/22-rdf-syntax-ns#"
   xmlns:svg="http://www.w3.org/2000/svg"
   xmlns="http://www.w3.org/2000/svg"
   xmlns:sodipodi="http://sodipodi.sourceforge.net/DTD/sodipodi-0.dtd"
   xmlns:inkscape="http://www.inkscape.org/namespaces/inkscape"
   version="1.0"
   width="140.5406"
   height="121.76452"
   id="svg2"
   sodipodi:docname="KY_5.svg"
   inkscape:version="0.92.2 5c3e80d, 2017-08-06">
  <metadata
     id="metadata40">
    <rdf:RDF>
      <cc:Work
         rdf:about="">
        <dc:format>image/svg+xml</dc:format>
        <dc:type
           rdf:resource="http://purl.org/dc/dcmitype/StillImage" />
      </cc:Work>
    </rdf:RDF>
  </metadata>
  <defs
     id="defs38" />
  <sodipodi:namedview
     pagecolor="#ffffff"
     bordercolor="#666666"
     borderopacity="1"
     objecttolerance="10"
     gridtolerance="10"
     guidetolerance="10"
     inkscape:pageopacity="0"
     inkscape:pageshadow="2"
     inkscape:window-width="640"
     inkscape:window-height="480"
     id="namedview36"
     showgrid="false"
     inkscape:zoom="0.12542268"
     inkscape:cx="-598.19095"
     inkscape:cy="53.841327"
     inkscape:window-x="0"
     inkscape:window-y="0"
     inkscape:window-maximized="0"
     inkscape:current-layer="svg2" />
  <path
     d="m 4.8921,121.76043 0.7012,-1.41453 -1.6256,-4.32708 0.4887,-1.98887 C 4.256,112.66652 1.9299,110.38326 0,108.60809 l 4.8672,-4.90595 0.1296,-2.61764 2.2238,0.58154 2.621,-3.54665 -3.9374,-3.15103 V 90.81239 L 20.1339,73.53572 c 0.6857,0.53253 1.4351,0.81315 2.2613,1.01737 0.67,-1.75214 1.2354,-5.18032 1.7327,-9.69592 l 3.6107,-0.3498 c -0.1265,-1.81515 0.5075,-3.03374 1.0675,-4.24819 l 3.5714,0.97586 3.7031,-1.31835 0.713,-2.24634 c 1.6707,-0.51694 3.3386,-1.04749 5.1778,-0.72201 l 4.2929,-2.14205 3.5081,1.56891 1.1293,-5.16337 1.0417,-1.20555 1.2038,0.93401 -0.8376,-2.85527 3.4334,-3.80798 1.4215,-0.002 2.2767,-6.63337 C 57.6271,36.00222 55.9077,34.2972 53.0068,33.41021 l -0.1395,-1.60185 -1.4617,-0.58352 0.1524,-4.27808 c 1.6806,-0.29491 3.1208,-0.79608 4.1968,-1.60917 -0.068,-2.40956 -0.9677,-4.65255 -2.3295,-6.80327 l 1.8514,-1.3538 -0.032,-1.7011 5.0717,-5.57544 -0.01,-5.60352 1.7295,-1.96357 -0.4249,-0.84326 2.3635,-1.49404 4.5355,4.53334 2.1914,4.8739 c 1.7528,1.57804 3.4825,2.74048 5.1494,2.77037 l -0.267,2.3216 -1.5589,0.98221 0.6765,3.55969 3.1699,2.46486 c 1.3787,-0.14133 2.4841,-0.13084 3.0864,0.15914 l 6.3353,-1.23589 c 0.2152,-1.78929 2.6221,-4.73672 4.7217,-7.42718 L 89.719,9.26567 90.8317,7.9585 c 1.1415,0.18783 2.2327,-0.46669 3.719,-2.17517 l -0.6393,-0.73029 0.9872,-1.17089 2.4574,0.0635 2.7542,-2.29092 4.0232,-0.1149 -1.1236,2.00242 1.233,0.76205 v 2.20159 h -1.7014 v 0.76392 c 0,0.42013 0.4766,1.31336 1.059,1.98496 0.5825,0.67153 1.2047,1.22102 1.3829,1.22102 0.1781,0 1.0712,0.70182 1.9846,1.55961 0.9134,0.85778 2.107,2.26142 2.6523,3.1192 l 0.9915,1.55961 h 1.4496 l 0.6109,1.59199 -0.6378,2.43905 1.0666,0.9619 c 0.5866,0.52902 1.3856,0.98743 1.7755,1.01862 0.3899,0.0312 0.9753,0.095 1.3009,0.14179 l 0.592,0.0851 -0.3323,1.44686 2.3934,3.04265 2.9715,1.35391 0.3689,1.19 c 0.2029,0.65447 0.8383,1.85678 1.412,2.6718 l 1.043,1.48185 -0.5915,0.59152 3.591,1.25176 1.012,-0.62543 0.6805,1.7733 h 1.9736 l 1.1443,0.99248 c 0.6294,0.54586 1.1789,1.18388 1.221,1.41782 0.042,0.23394 0.077,0.69212 0.077,1.01817 v 0.59281 l 3.8401,-0.72036 0.7924,1.28228 2.1731,-0.68975 v 0.38021 c 0,0.2091 -2.6899,3.86299 -5.9775,8.11981 -3.2875,4.25675 -6.5158,8.44142 -7.1739,9.2992 -0.658,0.85779 -1.4258,1.55961 -1.706,1.55961 -0.2803,0 -1.8372,0.8592 -3.4598,1.90935 l -2.9502,1.90935 -3.9008,3.76194 c -2.1455,2.06905 -4.1264,3.76193 -4.402,3.76193 h -0.501 l 0.7082,4.42933 -2.0737,3.51047 -1.7404,0.0356 -2.0904,2.86967 0.6942,2.766 -0.7,2.78931 -1.9617,1.1574 c -1.0789,0.6366 -3.0744,1.43761 -4.4342,1.78004 l -2.4726,0.6226 -0.8978,2.74496 c -0.4938,1.50969 -0.8979,3.08331 -0.8979,3.49686 v 0.75184 l -8.7905,4.11378 -4.4094,3.52697 -0.9145,0.0603 c -0.503,0.0332 -1.3395,0.097 -1.859,0.14178 -0.5195,0.0448 -2.3421,0.97473 -4.0502,2.06645 l -3.1056,1.98495 -1.7315,2.85328 c -27.0588,3.659 -61.398,8.49723 -64.8503,8.33271 z"
     style="fill:#b3b3b3;fill-opacity:1"
     id="KY_5"
     inkscape:connector-curvature="0" />
</svg>
