<?xml version="1.0" encoding="UTF-8" standalone="no"?>
<svg
   xmlns:dc="http://purl.org/dc/elements/1.1/"
   xmlns:cc="http://creativecommons.org/ns#"
   xmlns:rdf="http://www.w3.org/1999/02/22-rdf-syntax-ns#"
   xmlns:svg="http://www.w3.org/2000/svg"
   xmlns="http://www.w3.org/2000/svg"
   xmlns:sodipodi="http://sodipodi.sourceforge.net/DTD/sodipodi-0.dtd"
   xmlns:inkscape="http://www.inkscape.org/namespaces/inkscape"
   version="1.0"
   width="74.490303"
   height="70.330254"
   id="svg2"
   sodipodi:docname="KY_6.svg"
   inkscape:version="0.92.2 5c3e80d, 2017-08-06">
  <metadata
     id="metadata48">
    <rdf:RDF>
      <cc:Work
         rdf:about="">
        <dc:format>image/svg+xml</dc:format>
        <dc:type
           rdf:resource="http://purl.org/dc/dcmitype/StillImage" />
      </cc:Work>
    </rdf:RDF>
  </metadata>
  <defs
     id="defs46" />
  <sodipodi:namedview
     pagecolor="#ffffff"
     bordercolor="#666666"
     borderopacity="1"
     objecttolerance="10"
     gridtolerance="10"
     guidetolerance="10"
     inkscape:pageopacity="0"
     inkscape:pageshadow="2"
     inkscape:window-width="640"
     inkscape:window-height="480"
     id="namedview44"
     showgrid="false"
     inkscape:zoom="0.12542268"
     inkscape:cx="-582.80585"
     inkscape:cy="10.309541"
     inkscape:window-x="0"
     inkscape:window-y="0"
     inkscape:window-maximized="0"
     inkscape:current-layer="svg2" />
  <path
     d="M 31.0853,70.33025 C 30.5829,69.21278 30.2878,66.47843 29.9662,63.95119 L 25.5612,63.313 23.4882,60.00465 V 57.59198 L 21.8716,56.95322 21.3493,54.19601 16.8675,57.41038 10.6266,57.61205 9.2362,38.58642 7.6215,35.96282 4.2294,36.44505 2.9784,34.80531 1.2669,36.18332 0,31.8318 c 1.4278,-0.991 1.1041,-2.49281 4.5023,-6.09283 V 21.85612 H 5.7132 L 5.5839,11.36424 6.3359,8.24503 4.6985,8.22583 8.381,5.17979 8.9673,6.22625 16.5107,5.97087 19.2974,9.3344 20.805,7.2958 24.2796,8.07146 25.0532,6.22137 26.8725,6.83359 27.7529,5.52778 31.4651,5.12092 31.3881,7.3642 C 33.6418,6.89853 34.7994,6.36435 35.4164,5.79637 L 36.2659,6.61332 42.706,3e-5 l 4.4492,5.01495 2.6597,0.7308 1.1539,2.3144 3.0898,-0.67562 1.3745,0.76108 -0.7607,1.12768 0.8879,2.01144 4.4982,0.71923 6.5378,7.03274 -0.2354,4.57236 1.6598,0.63694 v 1.44243 c 2.2651,0.45195 4.3508,2.39777 6.4696,4.0687 l -2.1397,6.27721 h -1.3767 l -3.5673,4.06285 0.755,2.45913 -0.843,-0.79671 -1.3736,1.37353 -0.9349,4.97315 -3.2493,-1.48179 -4.48,2.13666 c -1.3681,-0.23786 -2.9957,-0.1297 -5.2828,0.85772 l -0.7105,2.23869 -3.5345,1.18405 -3.5346,-0.98091 c -0.7252,1.0966 -1.4352,2.21118 -1.358,4.26056 l -3.627,0.35099 c -0.4528,3.57269 -0.8816,7.49608 -1.622,9.63144 -0.7148,-0.0735 -1.277,-0.44242 -2.0938,-1.12723 z"
     style="fill:#b3b3b3;fill-opacity:1"
     id="KY_6"
     inkscape:connector-curvature="0" />
</svg>
