<?xml version="1.0" encoding="UTF-8" standalone="no"?>
<svg
   xmlns:dc="http://purl.org/dc/elements/1.1/"
   xmlns:cc="http://creativecommons.org/ns#"
   xmlns:rdf="http://www.w3.org/1999/02/22-rdf-syntax-ns#"
   xmlns:svg="http://www.w3.org/2000/svg"
   xmlns="http://www.w3.org/2000/svg"
   xmlns:sodipodi="http://sodipodi.sourceforge.net/DTD/sodipodi-0.dtd"
   xmlns:inkscape="http://www.inkscape.org/namespaces/inkscape"
   version="1.0"
   width="33.2379"
   height="27.0471"
   id="svg2"
   sodipodi:docname="LA_2.svg"
   inkscape:version="0.92.2 5c3e80d, 2017-08-06">
  <metadata
     id="metadata16">
    <rdf:RDF>
      <cc:Work
         rdf:about="">
        <dc:format>image/svg+xml</dc:format>
        <dc:type
           rdf:resource="http://purl.org/dc/dcmitype/StillImage" />
      </cc:Work>
    </rdf:RDF>
  </metadata>
  <defs
     id="defs14" />
  <sodipodi:namedview
     pagecolor="#ffffff"
     bordercolor="#666666"
     borderopacity="1"
     objecttolerance="10"
     gridtolerance="10"
     guidetolerance="10"
     inkscape:pageopacity="0"
     inkscape:pageshadow="2"
     inkscape:window-width="640"
     inkscape:window-height="480"
     id="namedview12"
     showgrid="false"
     inkscape:zoom="0.12542268"
     inkscape:cx="-387.91125"
     inkscape:cy="511.38307"
     inkscape:window-x="0"
     inkscape:window-y="0"
     inkscape:window-maximized="0"
     inkscape:current-layer="svg2" />
  <path
     d="M 9.4107,26.3862 10.0489,23.8438 7.5665,22.1073 6.1134,23.9573 2.8661,22.4478 0.1967,18.5522 0,13.827 0.4069,14.8539 c 0.3536,0.9357 1.032,2.148 1.5076,2.6938 l 0.8646,0.9925 H 4.2668 L 6.1714,16.6356 C 7.219,15.5881 8.3364,14.6311 8.6547,14.5089 L 9.2333,14.2868 9.9975,11.1675 H 7.7074 V 2.1648 l 2.1267,0.3266 c 1.1697,0.1797 2.4135,0.5508 2.7639,0.8249 L 13.2353,3.8147 18.9039,0 22.4527,0.5208 v 1.4513 l 1.6291,0.6251 2.7349,-2.1513 1.7651,1.1243 1.1458,-1.2358 3.5103,0.9095 -2.8453,3.0686 v 1.6744 l -2.3647,0.7506 0.7435,3.0122 -1.4413,-1.4178 h -3.7958 l -1.9322,3.3956 -3.0523,0.01 -0.7621,1.233 -2.365,-0.6184 -1.4769,1.2257 v 1.3284 1.3284 l 1.097,0.5871 c 0.6033,0.3229 1.7428,0.5871 2.5321,0.5871 h 1.4352 l 1.2141,2.2685 h -0.5177 c -0.2847,0 -0.8461,-0.3958 -1.2475,-0.8794 l -0.7298,-0.8793 -2.8067,0.3409 -1.045,1.9565 c -0.5747,1.0761 -1.413,2.1625 -1.8629,2.4143 l -0.8179,0.4577 0.4914,3.9619 z"
     style="fill:#b3b3b3;fill-opacity:1"
     id="LA_2"
     inkscape:connector-curvature="0" />
</svg>
