<?xml version="1.0" encoding="UTF-8" standalone="no"?>
<svg
   xmlns:dc="http://purl.org/dc/elements/1.1/"
   xmlns:cc="http://creativecommons.org/ns#"
   xmlns:rdf="http://www.w3.org/1999/02/22-rdf-syntax-ns#"
   xmlns:svg="http://www.w3.org/2000/svg"
   xmlns="http://www.w3.org/2000/svg"
   xmlns:sodipodi="http://sodipodi.sourceforge.net/DTD/sodipodi-0.dtd"
   xmlns:inkscape="http://www.inkscape.org/namespaces/inkscape"
   version="1.0"
   width="104.4758"
   height="172.27252"
   id="svg2"
   sodipodi:docname="LA_5.svg"
   inkscape:version="0.92.2 5c3e80d, 2017-08-06">
  <metadata
     id="metadata40">
    <rdf:RDF>
      <cc:Work
         rdf:about="">
        <dc:format>image/svg+xml</dc:format>
        <dc:type
           rdf:resource="http://purl.org/dc/dcmitype/StillImage" />
      </cc:Work>
    </rdf:RDF>
  </metadata>
  <defs
     id="defs38" />
  <sodipodi:namedview
     pagecolor="#ffffff"
     bordercolor="#666666"
     borderopacity="1"
     objecttolerance="10"
     gridtolerance="10"
     guidetolerance="10"
     inkscape:pageopacity="0"
     inkscape:pageshadow="2"
     inkscape:window-width="640"
     inkscape:window-height="480"
     id="namedview36"
     showgrid="false"
     inkscape:zoom="0.12542268"
     inkscape:cx="-234.99715"
     inkscape:cy="490.26339"
     inkscape:window-x="0"
     inkscape:window-y="0"
     inkscape:window-maximized="0"
     inkscape:current-layer="svg2" />
  <path
     d="M 86.2745,0 C 60.6089,2.0601 35.3061,4.1605 6.9296,5.9194 L 7.1777,6.7878 8.188,21.5509 2.9597,22.2598 c 0.1805,0.9856 -0.053,2.3392 -1.276,4.5725 l -0.4431,9.1804 0.6912,4.2534 h 4.8738 c 0.8836,5.366 1.1214,8.6184 1.4178,14.1605 -0.7921,0.6569 -1.5042,2.0739 -1.9849,5.689 h -6.079 c -0.023,3.672 3.711,-0.5826 2.9243,18.414 L 0.9748,79.1145 0,87.4619 l 18.3431,-1.9672 -0.3545,-5.246 13.239,-0.9216 2.2153,1.8963 -1.7014,3.4028 1.4356,0.9039 -1.3647,4.6434 c 0.7141,1.1601 2.2929,1.5792 4.094,1.8077 l 0.6557,3.2964 h 1.4887 l 0.3545,2.5521 3.1192,-0.3722 v 1.5065 l -22.4016,7.1954 -3.4028,-0.3899 0.071,-3.1192 h -0.8507 l -0.3544,-3.0306 -1.4888,-0.4963 -0.5615,2.0403 c -2.0846,0.5988 -5.5196,5.9534 -7.839,6.0236 l 0.6557,1.7014 c -1.5409,0.042 -2.4438,0.7226 -3.0483,1.7014 1.9373,0.061 3.7674,0.1678 4.6256,0.6912 v 1.5064 l 2.0913,0.6557 1.2584,4.2358 1.914,21.2673 H 4.0409 l 0.3367,6.4688 2.8357,0.6735 c 1.0149,3.3313 2.8984,4.9254 5,6.0833 l 2.7271,-3.5844 3.3496,-0.035 c -0.4632,4.0441 -0.9219,8.1189 -1.8431,9.1095 H 18.29 c -0.9239,2.1321 -0.9996,3.5372 0.2659,3.7927 l 5.3877,0.7266 c 0.03,-1.5064 0.3951,-3.0129 1.8255,-4.5193 l -0.5672,-2.2154 c 1.0149,-0.4603 3.8863,-0.3901 8.188,0.089 l 2.5697,-1.3823 -2.3748,-1.666 v -1.4887 l 2.3748,-0.638 -0.6557,-1.0811 c 1.0853,-0.9404 3.597,-1.4529 6.2207,-1.9318 v -1.152 l 3.8104,0.7089 1.6305,-0.6202 -0.4431,-3.8282 -2.1622,-0.5671 v -4.5548 l 22.118,-1.8608 v 2.8356 l 2.2686,0.7089 c 0.3722,2.4043 1.2587,4.1658 2.2508,5.7953 -0.7965,4.0922 -1.169,7.9763 0.5139,10.8287 l 4.6434,3.2078 c 1.0147,1.7713 2.3952,3.4055 2.233,5.6181 l -1.4178,0.089 1.4178,0.5671 v 2.0204 l 1.1343,1.4533 c 0.6238,0.7931 1.1343,1.7211 1.1343,2.0558 v 0.6026 c 5.6954,1.2089 9.794,0.9984 14.1427,1.0102 l 0.6558,-2.0735 1.595,0.6203 2.8534,-2.0913 0.035,-1.5774 2.2331,-1.6659 -6.6992,0.8152 -3.3141,-3.4027 c -3.2741,-0.7885 -0.2656,-1.2911 -7.5322,-6.8942 v -0.7621 l 3.4027,-0.4076 v -0.9924 c -1.7745,-0.8541 -4.1332,-0.8295 -6.522,-0.7621 l -0.9215,-5.0865 3.1901,-5.0687 2.9242,0.8153 3.7218,-2.3217 -1.3647,-2.3217 -3.2609,2.1267 h -3.3851 l -2.2153,1.028 -3.1192,-1.6483 3.5623,-2.8356 0.319,-5.7953 -2.1977,-1.7723 -2.8179,0.7443 -0.1595,0.9039 2.2862,-0.1418 1.152,3.4737 -5.6536,0.089 c 0.08,-4.8872 -0.2716,-7.8787 -0.9747,-9.3222 l -1.6659,-1.3824 -0.8507,1.3824 c -0.7547,-0.2238 -1.3974,-1.319 -1.8964,-1.8963 l 4.4307,-1.4888 1.3469,1.5951 -0.7443,1.1874 h 0.3722 l 3.6686,-2.3394 v -1.5419 l -3.9699,-2.4457 0.018,-0.957 c 0.01,-0.5204 0.3928,-1.4327 0.8507,-2.0381 0.4579,-0.6056 0.833,-1.456 0.833,-1.8786 v -0.7622 l -1.6837,-0.957 c -0.9309,-0.5313 -1.8364,-1.3251 -2.0027,-1.7545 l -0.3012,-0.7798 1.2406,-1.5065 5.8662,-0.3367 0.3544,-2.4457 -1.0279,-0.7621 c -0.5636,-0.4248 -1.345,-1.2773 -1.7368,-1.8963 -0.3919,-0.6192 -0.8775,-1.4818 -1.0811,-1.9141 l -0.3722,-0.7976 0.5671,-0.9038 c 0.3171,-0.5035 0.9875,-1.0001 1.4888,-1.0988 l 0.9215,-0.1772 0.3545,1.4355 c 0.1977,0.7877 0.7107,1.722 1.1343,2.0736 l 0.7621,0.638 1.276,-0.7975 -3.0838,-3.2256 -0.9393,-5.9016 0.6026,-0.9571 h 2.5166 l 1.2584,-0.8861 c 0.6932,-0.4856 1.2582,-1.1272 1.2582,-1.4356 v -0.5671 l -3.9876,0.7443 -1.6836,-1.4 v -2.623 l 1.1342,-0.7089 1.2584,0.8861 c 0.6937,0.4859 1.714,0.8862 2.2685,0.8862 h 1.0101 v -6.3093 l 1.2052,-2.2509 0.3899,-5.8485 1.0102,-0.7266 c 0.5556,-0.4062 1.3562,-0.7443 1.7723,-0.7443 h 0.762 l 0.5672,1.5064 c 0.3129,0.823 0.6966,1.359 0.8507,1.2051 0.1539,-0.154 0.055,-0.8717 -0.2127,-1.595 l -0.4962,-1.3115 3.5977,-3.1547 v -3.4027 l 1.471,-1.7546 h 0.957 c 0.526,0 1.4504,-0.371 2.0558,-0.833 l 1.0989,-0.8507 -0.8507,-0.5671 c -0.4679,-0.313 -1.4329,-0.5624 -2.1445,-0.5671 l -1.2938,-0.018 -0.6911,-1.79 0.9216,-0.9039 3.4382,0.5848 c -0.1051,-1.2267 0.6902,-1.5144 1.4709,-2.3394 l 1.7014,-1.7013 v -1.79 h -1.0633 l -0.3545,2.4812 -6.8055,0.071 v -4.9802 l 0.8507,-0.3899 c 0.4678,-0.2194 1.4292,-0.7029 2.1267,-1.0633 0.6976,-0.3604 1.6547,-0.6557 2.1267,-0.6557 h 0.8507 v -1.1343 h 2.0382 l 1.4887,1.4178 -0.7976,-4.8206 0.7621,-0.071 c 0.4173,-0.037 0.9738,-0.03 1.2406,0.018 0.2667,0.048 0.841,-0.206 1.2761,-0.5671 0.435,-0.361 0.7975,-0.8783 0.7975,-1.152 v -0.4962 h -1.3824 c -0.7595,0 -2.0356,-0.2453 -2.8357,-0.5494 l -1.4532,-0.5494 v -0.7267 c 0,-0.3976 0.3969,-1.4706 0.8684,-2.3748 0.4716,-0.9042 0.7592,-1.7398 0.638,-1.8609 -0.1212,-0.1212 -0.8719,0.081 -1.6659,0.4431 l -1.4533,0.6557 -4.3421,-2.1267 -0.1949,-1.0279 c -0.1057,-0.5706 -0.03,-1.6552 0.1595,-2.4103 l 0.3367,-1.3824 0.7089,0.018 c 0.384,0.01 1.3292,0.5066 2.109,1.1166 0.7798,0.6099 1.7885,1.1095 2.2509,1.1165 l 0.8506,0.018 -2.0912,-1.4178 c -1.1476,-0.7798 -2.4698,-1.4178 -2.942,-1.4178 h -0.8685 l 4.5725,-4.5194 -0.762,-1.2582 -1.3115,2.6229 -4.3776,1.666 -1.5596,-2.1268 V 20.986 l 4.537,-4.413 -0.8861,-0.3367 C 92.8856,16.046 91.6403,15.8818 90.6166,15.8818 H 88.7557 L 88.0468,10.7776 89.3051,8.0483 91.3964,7.4812 92.7256,4.5924 90.8115,0.5693 H 89.7127 L 90.014,5.2304 88.2063,6.4178 85.3175,5.6912 84.644,3.9189 Z"
     style="fill:#b3b3b3"
     id="LA_5"
     inkscape:connector-curvature="0" />
</svg>
