<?xml version="1.0" encoding="UTF-8" standalone="no"?>
<svg
   xmlns:dc="http://purl.org/dc/elements/1.1/"
   xmlns:cc="http://creativecommons.org/ns#"
   xmlns:rdf="http://www.w3.org/1999/02/22-rdf-syntax-ns#"
   xmlns:svg="http://www.w3.org/2000/svg"
   xmlns="http://www.w3.org/2000/svg"
   xmlns:sodipodi="http://sodipodi.sourceforge.net/DTD/sodipodi-0.dtd"
   xmlns:inkscape="http://www.inkscape.org/namespaces/inkscape"
   version="1.0"
   width="50.509899"
   height="39.661732"
   id="svg2"
   sodipodi:docname="MA_3.svg"
   inkscape:version="0.92.2 5c3e80d, 2017-08-06">
  <metadata
     id="metadata32">
    <rdf:RDF>
      <cc:Work
         rdf:about="">
        <dc:format>image/svg+xml</dc:format>
        <dc:type
           rdf:resource="http://purl.org/dc/dcmitype/StillImage" />
      </cc:Work>
    </rdf:RDF>
  </metadata>
  <defs
     id="defs30" />
  <sodipodi:namedview
     pagecolor="#ffffff"
     bordercolor="#666666"
     borderopacity="1"
     objecttolerance="10"
     gridtolerance="10"
     guidetolerance="10"
     inkscape:pageopacity="0"
     inkscape:pageshadow="2"
     inkscape:window-width="640"
     inkscape:window-height="480"
     id="namedview28"
     showgrid="false"
     inkscape:zoom="0.12542268"
     inkscape:cx="-1124.3099"
     inkscape:cy="-404.25251"
     inkscape:window-x="0"
     inkscape:window-y="0"
     inkscape:window-maximized="0"
     inkscape:current-layer="svg2" />
  <path
     d="M 6.3961,0 5.2283,0.12281 C 4.5763,0.71288 3.4738,2.39549 3.4737,2.70975 L 0,8.68233 l 2.8369,4.7057 1.7002,-0.0978 0.7621,1.24059 2.1444,-0.56713 2.818,1.31149 -0.6381,3.47366 2.1561,1.71973 1.9556,-5.38834 c 1.4004,-1.02476 2.7103,-2.22218 4.3066,-2.92426 l 4.927,2.39257 3.7395,-0.60257 2.0204,2.55208 1.617,-0.20655 1.7154,6.82326 3.4554,-0.83909 2.0027,6.94733 1.914,-0.33673 2.3217,6.7701 3.58,0.72663 4.0053,3.27871 c 0.6373,-2.28402 1.0767,-4.4196 1.1697,-7.00049 l -3.6685,0.58485 -1.985,-4.14713 0.5317,-0.86842 -5.7599,-5.58267 -2.1622,-4.78515 -3.1901,0.63802 C 33.1558,16.59567 31.9181,14.73741 31.263,12.61676 V 11.87241 L 28.9945,10.45458 V 8.89498 L 25.8044,8.25696 C 24.9101,6.57626 24.5601,5.19242 24.4575,2.62112 l -4.6611,1.82544 -0.5671,1.471 h -3.137 L 15.348,1.27419 c -0.6861,0.4929 -1.1206,1.23825 -1.7277,1.81689 l 0.2518,1.19783 -0.8318,0.8201 -4.309,1.5694 z"
     style="fill:#b3b3b3;fill-opacity:1"
     id="MA_3"
     inkscape:connector-curvature="0" />
</svg>
