<?xml version="1.0" encoding="UTF-8" standalone="no"?>
<svg
   xmlns:dc="http://purl.org/dc/elements/1.1/"
   xmlns:cc="http://creativecommons.org/ns#"
   xmlns:rdf="http://www.w3.org/1999/02/22-rdf-syntax-ns#"
   xmlns:svg="http://www.w3.org/2000/svg"
   xmlns="http://www.w3.org/2000/svg"
   xmlns:sodipodi="http://sodipodi.sourceforge.net/DTD/sodipodi-0.dtd"
   xmlns:inkscape="http://www.inkscape.org/namespaces/inkscape"
   version="1.0"
   width="43.279099"
   height="50.208618"
   id="svg2"
   sodipodi:docname="MA_4.svg"
   inkscape:version="0.92.2 5c3e80d, 2017-08-06">
  <metadata
     id="metadata40">
    <rdf:RDF>
      <cc:Work
         rdf:about="">
        <dc:format>image/svg+xml</dc:format>
        <dc:type
           rdf:resource="http://purl.org/dc/dcmitype/StillImage" />
      </cc:Work>
    </rdf:RDF>
  </metadata>
  <defs
     id="defs38" />
  <sodipodi:namedview
     pagecolor="#ffffff"
     bordercolor="#666666"
     borderopacity="1"
     objecttolerance="10"
     gridtolerance="10"
     guidetolerance="10"
     inkscape:pageopacity="0"
     inkscape:pageshadow="2"
     inkscape:window-width="640"
     inkscape:window-height="480"
     id="namedview36"
     showgrid="false"
     inkscape:zoom="0.12542268"
     inkscape:cx="-1153.6925"
     inkscape:cy="-394.37597"
     inkscape:window-x="0"
     inkscape:window-y="0"
     inkscape:window-maximized="0"
     inkscape:current-layer="svg2" />
  <path
     d="M 8.8969,0 7.2487,0.10634 C 4.4454,2.75978 7.1967,0.86098 3.2433,4.96238 3.2073,6.62615 4.1295,7.16355 4.927,7.81575 5.4672,8.26347 5.0355,8.73102 4.6434,8.86139 L 0,8.96773 l 0.1773,2.12673 2.2685,1.22287 v 0.85069 c 10e-5,0.47309 0.5743,1.88257 1.276,3.11921 l 1.4179,2.4103 3.2255,-0.47852 2.1267,4.53703 6.1321,6.02575 -0.6557,0.95703 1.8786,3.63316 3.899,-0.74435 c -0.3906,3.32955 -0.7217,6.36159 -1.5288,8.62006 l 3.7796,-0.06 v 3.40277 h 0.8861 l 2.1799,5.61812 0.5849,-0.46079 c 0.3268,-0.2547 1.247,-0.60933 2.0381,-0.79753 l 1.4355,-0.33673 2.6053,-3.50911 -1.0811,-1.36465 0.1241,-1.13426 c 0.074,-0.62384 0.3131,-1.54677 0.5317,-2.05584 l 0.4076,-0.92159 4.7497,-0.81524 -1.4179,-0.54941 v -1.61277 h 2.0204 l -0.035,-3.11921 1.4178,0.28356 v -0.53168 c 10e-5,-0.29351 -0.2551,-0.69337 -0.5671,-0.88614 -0.3118,-0.19278 -0.5671,-0.59264 -0.5671,-0.88614 v -0.53168 h 3.9699 v -3.43822 l -1.5538,-0.69412 -3.6035,1.81066 c -2.1314,-0.83916 -3.6043,-2.94085 -5.1042,-4.5902 l -3.5446,-3.98762 0.6558,-1.06337 c 0.3658,-0.58562 0.6735,-1.40737 0.6734,-1.82545 v -0.76208 l -3.4027,0.51396 -0.1123,5.28714 -4.2976,1.2643 -2.4488,-2.15619 h -4.8738 l -1.1343,-2.55208 0.4786,-3.9699 -2.818,-2.64069 c -1.1183,1.75422 -1.9372,3.81712 -3.5268,5.19277 L 7.255,15.15587 4.3633,14.98757 5.3557,13.38346 3.5982,11.57293 3.7136,10.56274 H 8.1175 V 7.51442 L 5.3527,7.47902 7.0541,3.66863 8.0466,4.18259 10.7228,3.47368 C 10.5657,2.01193 11.2563,2.38104 11.1835,0.70893 L 8.1884,1.41784 Z"
     style="fill:#b3b3b3;fill-opacity:1"
     id="MA_4"
     inkscape:connector-curvature="0" />
</svg>
