<?xml version="1.0" encoding="UTF-8" standalone="no"?>
<svg
   xmlns:dc="http://purl.org/dc/elements/1.1/"
   xmlns:cc="http://creativecommons.org/ns#"
   xmlns:rdf="http://www.w3.org/1999/02/22-rdf-syntax-ns#"
   xmlns:svg="http://www.w3.org/2000/svg"
   xmlns="http://www.w3.org/2000/svg"
   xmlns:sodipodi="http://sodipodi.sourceforge.net/DTD/sodipodi-0.dtd"
   xmlns:inkscape="http://www.inkscape.org/namespaces/inkscape"
   version="1.0"
   width="25.7157"
   height="36.8102"
   id="svg2"
   sodipodi:docname="MA_5.svg"
   inkscape:version="0.92.2 5c3e80d, 2017-08-06">
  <metadata
     id="metadata48">
    <rdf:RDF>
      <cc:Work
         rdf:about="">
        <dc:format>image/svg+xml</dc:format>
        <dc:type
           rdf:resource="http://purl.org/dc/dcmitype/StillImage" />
      </cc:Work>
    </rdf:RDF>
  </metadata>
  <defs
     id="defs46" />
  <sodipodi:namedview
     pagecolor="#ffffff"
     bordercolor="#666666"
     borderopacity="1"
     objecttolerance="10"
     gridtolerance="10"
     guidetolerance="10"
     inkscape:pageopacity="0"
     inkscape:pageshadow="2"
     inkscape:window-width="640"
     inkscape:window-height="480"
     id="namedview44"
     showgrid="false"
     inkscape:zoom="0.12542268"
     inkscape:cx="-1136.2197"
     inkscape:cy="-438.56379"
     inkscape:window-x="0"
     inkscape:window-y="0"
     inkscape:window-maximized="0"
     inkscape:current-layer="svg2" />
  <path
     d="m 23.0396,0 -0.3545,3.3496 h -3.1547 l -1.7368,1.98495 0.4431,1.13426 c 0.2527,0.62384 0.4921,1.43952 0.5139,1.80772 l 0.169,1.07419 -2.9082,0.0205 c -0.6391,1.25523 -0.8649,2.56276 -1.717,3.6859 L 3.5445,16.02136 5.0687,18.20127 3.1901,21.4977 H 0.7089 L 0,23.73077 l 1.2365,4.88589 -1.2325,0.48778 1.5201,5.01187 1.6517,-1.79864 0.7586,-0.0445 0.7798,4.53703 h 2.1622 l 0.5048,-1.19379 5.7336,-2.31532 0.1836,2.06538 c 2.9003,-0.67046 3.6436,-0.71352 5.4254,0.32856 l 0.759,-0.71573 -0.5904,-3.34415 -1.9495,-1.41782 1.79,-3.43822 -0.6162,-0.46807 c -0.2609,-0.28034 -0.499,-1.09519 -0.6952,-1.74728 l -0.3545,-1.1697 4.6256,-2.09129 -0.5671,-2.19762 0.4962,-0.92159 c 0.2694,-0.50991 0.5293,-0.16234 0.7058,-0.72798 l -0.048,-2.26717 2.0554,0.88524 1.2569,-0.9384 L 21.6219,9.7298 V 7.46129 l 3.2965,-0.65575 0.7975,-4.76742 z"
     style="fill:#b3b3b3;fill-opacity:1"
     id="MA_5"
     inkscape:connector-curvature="0" />
</svg>
