<?xml version="1.0" encoding="UTF-8" standalone="no"?>
<svg
   xmlns:dc="http://purl.org/dc/elements/1.1/"
   xmlns:cc="http://creativecommons.org/ns#"
   xmlns:rdf="http://www.w3.org/1999/02/22-rdf-syntax-ns#"
   xmlns:svg="http://www.w3.org/2000/svg"
   xmlns="http://www.w3.org/2000/svg"
   xmlns:sodipodi="http://sodipodi.sourceforge.net/DTD/sodipodi-0.dtd"
   xmlns:inkscape="http://www.inkscape.org/namespaces/inkscape"
   version="1.0"
   width="27.7006"
   height="29.692381"
   id="svg2"
   sodipodi:docname="MA_6.svg"
   inkscape:version="0.92.2 5c3e80d, 2017-08-06">
  <metadata
     id="metadata56">
    <rdf:RDF>
      <cc:Work
         rdf:about="">
        <dc:format>image/svg+xml</dc:format>
        <dc:type
           rdf:resource="http://purl.org/dc/dcmitype/StillImage" />
      </cc:Work>
    </rdf:RDF>
  </metadata>
  <defs
     id="defs54" />
  <sodipodi:namedview
     pagecolor="#ffffff"
     bordercolor="#666666"
     borderopacity="1"
     objecttolerance="10"
     gridtolerance="10"
     guidetolerance="10"
     inkscape:pageopacity="0"
     inkscape:pageshadow="2"
     inkscape:window-width="640"
     inkscape:window-height="480"
     id="namedview52"
     showgrid="false"
     inkscape:zoom="0.12542268"
     inkscape:cx="-1153.9602"
     inkscape:cy="-449.15527"
     inkscape:window-x="0"
     inkscape:window-y="0"
     inkscape:window-maximized="0"
     inkscape:current-layer="svg2" />
  <path
     d="M 8.9854,0 8.7646,0.97186 5.3699,2.99514 8.5969,5.22262 7.7448,10.72227 4.4484,11.44891 v 1.75455 l 3.9699,5.40545 -1.6837,1.4001 -1.7191,-0.67347 0.037,1.88556 -0.7511,0.41031 -0.4568,0.94316 0.7103,2.32592 -4.5547,2.32168 0.6025,2.28624 0.7171,0.18397 c 0.2645,0 0.5129,-0.64692 0.8248,-1.22961 l 0.5671,-1.06337 2.8711,0.54941 0.3545,-1.79 c 0.1957,-0.97872 0.5739,-1.89574 0.833,-2.05584 l 0.4608,-0.30129 c 2.5883,1.30567 5.1472,2.66724 7.7093,4.02307 0.3684,-0.80049 0.7586,-1.70281 0.9748,-2.14446 l 0.638,-1.27604 h 1.4356 l 0.7089,-2.26851 h 0.5317 c 0.2908,0 0.5317,-0.25522 0.5316,-0.56713 v -0.56713 h -1.5773 l -0.6912,-1.79 0.319,-0.53168 c 0.1754,-0.28378 0.6577,-0.51397 1.0811,-0.51396 0.4235,0 0.8531,-0.19638 0.9571,-0.44307 0.1039,-0.24669 1.427,-1.26752 2.9242,-2.26852 1.4973,-1.00099 2.9648,-1.82545 3.261,-1.82544 h 0.5317 v -2.76476 l 0.5671,-0.35445 c 0.3119,-0.19278 0.5672,-0.59195 0.5671,-0.90386 V 9.03861 l -1.0101,0.6203 -1.3824,-1.68367 -1.0102,0.6203 v 2.19762 H 21.5333 L 20.8244,9.65891 h -2.1976 v -0.6203 c 0,-0.34175 -0.5409,-1.37118 -1.2052,-2.30396 C 16.7575,5.80188 15.6602,3.97496 14.9936,2.67613 L 13.7885,0.30128 Z"
     style="fill:#b3b3b3;fill-opacity:1"
     id="MA_6"
     inkscape:connector-curvature="0" />
</svg>
