<?xml version="1.0" encoding="UTF-8" standalone="no"?>
<svg
   xmlns:dc="http://purl.org/dc/elements/1.1/"
   xmlns:cc="http://creativecommons.org/ns#"
   xmlns:rdf="http://www.w3.org/1999/02/22-rdf-syntax-ns#"
   xmlns:svg="http://www.w3.org/2000/svg"
   xmlns="http://www.w3.org/2000/svg"
   xmlns:sodipodi="http://sodipodi.sourceforge.net/DTD/sodipodi-0.dtd"
   xmlns:inkscape="http://www.inkscape.org/namespaces/inkscape"
   version="1.0"
   width="38.298901"
   height="36.33168"
   id="svg2"
   sodipodi:docname="MD_2.svg"
   inkscape:version="0.92.2 5c3e80d, 2017-08-06">
  <metadata
     id="metadata16">
    <rdf:RDF>
      <cc:Work
         rdf:about="">
        <dc:format>image/svg+xml</dc:format>
        <dc:type
           rdf:resource="http://purl.org/dc/dcmitype/StillImage" />
      </cc:Work>
    </rdf:RDF>
  </metadata>
  <defs
     id="defs14" />
  <sodipodi:namedview
     pagecolor="#ffffff"
     bordercolor="#666666"
     borderopacity="1"
     objecttolerance="10"
     gridtolerance="10"
     guidetolerance="10"
     inkscape:pageopacity="0"
     inkscape:pageshadow="2"
     inkscape:window-width="640"
     inkscape:window-height="480"
     id="namedview12"
     showgrid="false"
     inkscape:zoom="0.12542268"
     inkscape:cx="-954.09865"
     inkscape:cy="-177.73281"
     inkscape:window-x="0"
     inkscape:window-y="0"
     inkscape:window-maximized="0"
     inkscape:current-layer="svg2" />
  <path
     d="m 34.2227,0 -1.2584,0.6203 0.071,1.50643 -5.3877,5.81307 -1.5596,0.3899 c -0.8607,0.21432 -1.6937,0.59095 -1.8432,0.833 l -0.2658,0.44304 1.6482,1.36468 -4.8383,4.53703 -2.3748,-2.05584 -2.8889,1.54185 -1.8431,-0.7266 0.2126,-1.6305 0.9571,0.12403 -1.347,-1.43551 -2.2507,1.1697 c 0.8895,0.93491 1.4691,1.74806 2.0913,2.44574 L 11.1477,14.6922 9.7476,14.12508 9.2159,13.71742 C 8.4361,13.11457 7.2086,12.29926 6.4866,11.9097 L 5.1751,11.20079 4.1827,12.79584 3.0839,14.17822 0.585,14.19592 9.9999999e-5,15.82641 0.5141,16.10998 c 0.2376,0.38417 0.4979,1.08605 0.5848,1.5596 0.087,0.47333 -0.051,1.83449 0.319,2.53433 l 0.7089,1.34693 1.4887,-1.25829 1.2229,1.6305 2.1622,-1.11657 -0.053,-0.54937 c 0,-0.38259 -0.1574,-0.84871 -0.3544,-1.04568 L 6.2387,18.83928 3.9702,20.06213 2.9777,18.52027 3.4385,14.51493 c 0.4401,-0.67647 0.7473,-1.16681 1.4001,-1.47102 l 2.0027,0.72666 c 1.4602,0.53469 2.9136,0.98998 3.2255,1.01017 l 1.985,0.3899 1.6482,0.14178 c 0.396,0.39818 0.8272,0.75706 1.3824,1.06337 l -0.3368,2.64072 c 0.6827,-0.4064 1.1712,-0.56656 1.8432,-0.46079 l 0.3013,-0.86844 c -0.13,-0.12829 -0.251,-0.28408 -0.4076,-0.47849 l -0.4608,-0.67347 0.8152,-1.18745 3.261,1.08112 c -0.8138,0.85347 -1.0806,1.47748 -2.3748,1.66594 l -0.3899,0.65571 -0.3367,0.67347 -0.089,1.64824 c 0.043,1.09173 -0.043,1.77109 -0.5494,1.82542 l 0.053,6.13208 -3.5446,0.10634 -1.3292,1.11656 1.2938,2.07353 -1.3646,3.01288 0.6202,0.99247 1.79,-0.69116 -0.5671,-4.21802 4.0763,-1.93181 1.3114,1.79003 h 4.1294 v -0.3899 c 0,-0.21693 -0.6572,-1.10023 -1.4709,-1.94951 l -1.4888,-1.54191 0.6912,-1.1165 4.2535,0.40759 1.3115,-2.78244 -0.6203,-4.60792 2.3571,-0.60258 -1.0279,-2.69386 1.152,-0.70891 1.6482,0.63802 v 1.80772 l 1.1874,-0.74435 -0.3367,-2.44575 1.9495,-0.0178 0.8507,-1.1165 c 0.4687,-0.6205 0.8584,-1.47284 0.8684,-1.87862 L 34.1696,10.81079 38.299,7.03587 37.466,5.68894 35.9596,6.25607 34.7545,4.82049 35.7824,1.27594 Z"
     style="fill:#b3b3b3;fill-opacity:1"
     id="MD_2"
     inkscape:connector-curvature="0" />
</svg>
