<?xml version="1.0" encoding="UTF-8" standalone="no"?>
<svg
   xmlns:dc="http://purl.org/dc/elements/1.1/"
   xmlns:cc="http://creativecommons.org/ns#"
   xmlns:rdf="http://www.w3.org/1999/02/22-rdf-syntax-ns#"
   xmlns:svg="http://www.w3.org/2000/svg"
   xmlns="http://www.w3.org/2000/svg"
   xmlns:sodipodi="http://sodipodi.sourceforge.net/DTD/sodipodi-0.dtd"
   xmlns:inkscape="http://www.inkscape.org/namespaces/inkscape"
   version="1.0"
   width="29.4897"
   height="40.81155"
   id="svg2"
   sodipodi:docname="MI_15.svg"
   inkscape:version="0.92.2 5c3e80d, 2017-08-06">
  <metadata
     id="metadata56">
    <rdf:RDF>
      <cc:Work
         rdf:about="">
        <dc:format>image/svg+xml</dc:format>
        <dc:type
           rdf:resource="http://purl.org/dc/dcmitype/StillImage" />
      </cc:Work>
    </rdf:RDF>
  </metadata>
  <defs
     id="defs54" />
  <sodipodi:namedview
     pagecolor="#ffffff"
     bordercolor="#666666"
     borderopacity="1"
     objecttolerance="10"
     gridtolerance="10"
     guidetolerance="10"
     inkscape:pageopacity="0"
     inkscape:pageshadow="2"
     inkscape:window-width="640"
     inkscape:window-height="480"
     id="namedview52"
     showgrid="false"
     inkscape:zoom="0.12542268"
     inkscape:cx="-603.18875"
     inkscape:cy="-270.87557"
     inkscape:window-x="0"
     inkscape:window-y="0"
     inkscape:window-maximized="0"
     inkscape:current-layer="svg2" />
  <path
     d="M 6.9821,40.81155 2.841,20.29955 2.831,11.46386 -0.0037,4.94748 3.1145,3.14846 10.0687,2.39394 c 0.5343,4.08622 1.3315,8.1661 2.7862,12.03207 l 5.3459,-1.36467 C 17.2067,8.48467 16.8052,7.26637 17.2927,5.5542 L 20.9791,4.46895 V 1.43962 L 22.7137,0 25.4723,2.59151 24.3865,4.62028 26.6504,9.9017 v 5.01012 h 1.7294 l 0.5531,1.45475 c 0.3042,0.8001 0.5531,1.78189 0.5531,2.18174 0,0.39984 -0.5104,1.31551 -1.1343,2.0348 -0.6238,0.7193 -1.1342,1.65789 -1.1342,2.08577 v 0.77795 l -2.8357,1.07811 -0.086,1.00651 c -0.048,0.55358 -0.1457,1.26172 -0.2182,1.57364 -0.072,0.31192 -0.1612,0.88614 -0.1972,1.27604 l -0.065,0.70891 h -1.4831 l -0.9599,2.17552 c -0.5278,1.19653 -0.9598,2.71272 -0.9598,3.3693 v 1.19379 l 0.5672,0.3505 c 0.3119,0.19278 0.5671,0.57345 0.5671,0.84595 v 0.49544 z"
     style="fill:#b3b3b3;fill-opacity:1"
     id="MI_15"
     inkscape:connector-curvature="0" />
</svg>
