<?xml version="1.0" encoding="UTF-8" standalone="no"?>
<svg
   xmlns:dc="http://purl.org/dc/elements/1.1/"
   xmlns:cc="http://creativecommons.org/ns#"
   xmlns:rdf="http://www.w3.org/1999/02/22-rdf-syntax-ns#"
   xmlns:svg="http://www.w3.org/2000/svg"
   xmlns="http://www.w3.org/2000/svg"
   xmlns:sodipodi="http://sodipodi.sourceforge.net/DTD/sodipodi-0.dtd"
   xmlns:inkscape="http://www.inkscape.org/namespaces/inkscape"
   version="1.0"
   width="43.827202"
   height="60.374039"
   id="svg2"
   sodipodi:docname="MI_5.svg"
   inkscape:version="0.92.2 5c3e80d, 2017-08-06">
  <metadata
     id="metadata88">
    <rdf:RDF>
      <cc:Work
         rdf:about="">
        <dc:format>image/svg+xml</dc:format>
        <dc:type
           rdf:resource="http://purl.org/dc/dcmitype/StillImage" />
      </cc:Work>
    </rdf:RDF>
  </metadata>
  <defs
     id="defs86" />
  <sodipodi:namedview
     pagecolor="#ffffff"
     bordercolor="#666666"
     borderopacity="1"
     objecttolerance="10"
     gridtolerance="10"
     guidetolerance="10"
     inkscape:pageopacity="0"
     inkscape:pageshadow="2"
     inkscape:window-width="640"
     inkscape:window-height="480"
     id="namedview84"
     showgrid="false"
     inkscape:zoom="0.12542268"
     inkscape:cx="-578.11515"
     inkscape:cy="-334.35956"
     inkscape:window-x="0"
     inkscape:window-y="0"
     inkscape:window-maximized="0"
     inkscape:current-layer="svg2" />
  <path
     d="M 13.8454,60.37404 8.7245,33.89875 17.927,32.62749 15.8835,35.19496 12.0268,24.6851 7.5185,23.3732 6.1965,20.78234 6.9027,18.17447 5.916,14.9958 0,15.80713 0.034,13.36147 3.7151,12.85459 3.817,7.70284 5.5959,6.67303 l 7.2834,1.17544 3.2952,1.8058 0.8271,-1.0765 C 17.4565,7.9857 18.5894,5.90623 19.5192,3.95672 l 1.6904,-3.54455 h 2.7287 L 24.3228,2.72874 39.5375,0 l 4.2897,20.59766 -10.8925,2.14169 0.7417,5.39256 -4.6799,0.98656 4.2863,21.68612 -10.4185,2.40787 0.6649,5.61396 z"
     style="fill:#b3b3b3;fill-opacity:1"
     id="MI_5"
     inkscape:connector-curvature="0" />
</svg>
