<?xml version="1.0" encoding="UTF-8" standalone="no"?>
<svg
   xmlns:dc="http://purl.org/dc/elements/1.1/"
   xmlns:cc="http://creativecommons.org/ns#"
   xmlns:rdf="http://www.w3.org/1999/02/22-rdf-syntax-ns#"
   xmlns:svg="http://www.w3.org/2000/svg"
   xmlns="http://www.w3.org/2000/svg"
   xmlns:sodipodi="http://sodipodi.sourceforge.net/DTD/sodipodi-0.dtd"
   xmlns:inkscape="http://www.inkscape.org/namespaces/inkscape"
   version="1.0"
   width="235.2166"
   height="69.756828"
   id="svg2"
   sodipodi:docname="MN_1.svg"
   inkscape:version="0.92.2 5c3e80d, 2017-08-06">
  <metadata
     id="metadata8">
    <rdf:RDF>
      <cc:Work
         rdf:about="">
        <dc:format>image/svg+xml</dc:format>
        <dc:type
           rdf:resource="http://purl.org/dc/dcmitype/StillImage" />
      </cc:Work>
    </rdf:RDF>
  </metadata>
  <defs
     id="defs6" />
  <sodipodi:namedview
     pagecolor="#ffffff"
     bordercolor="#666666"
     borderopacity="1"
     objecttolerance="10"
     gridtolerance="10"
     guidetolerance="10"
     inkscape:pageopacity="0"
     inkscape:pageshadow="2"
     inkscape:window-width="640"
     inkscape:window-height="480"
     id="namedview4"
     showgrid="false"
     inkscape:zoom="0.12542268"
     inkscape:cx="-23.192354"
     inkscape:cy="-320.59607"
     inkscape:window-x="0"
     inkscape:window-y="0"
     inkscape:window-maximized="0"
     inkscape:current-layer="svg2" />
  <path
     d="m 177.1922,0.74435 0.6558,5.49406 h -5.5118 l 0.9393,10.72228 -54.9229,4.02307 v -2.67614 l -10.7754,0.56713 V 16.64168 L 110.8914,12.21099 109.0482,9.09178 110.4128,7.7094 110.199,5.33608 72.7546,7.5499 70.7308,5.60001 69.4201,6.09892 70.2353,18.71524 c -3.6213,0.2304 -8.2405,-0.10938 -10.864,0.69119 v 4.89149 C 39.5809,25.37424 20.1468,26.09421 0,26.88544 L 2.1445,69.75683 C 82.931,66.12588 153.3989,61.7583 235.2166,54.44435 l -1.2583,-2.35713 0.6912,-1.79 -2.4635,-2.62297 -0.1417,-10.52732 -0.8685,-1.55961 c -0.471,-0.85879 -2.5011,-3.57684 -4.5193,-6.04346 L 222.9879,25.06 c -2.0008,-0.29416 -3.9988,-0.60548 -5.9903,-0.95703 -0.5881,-0.11325 -1.4871,-0.54776 -1.985,-0.95703 -0.4978,-0.40927 -1.3489,-1.13879 -1.8963,-1.6305 -0.5473,-0.49171 -1.4097,-1.05798 -1.9318,-1.25831 l -0.957,-0.37218 V 18.6798 l -7.9044,-4.21802 -1.1519,-4.48386 -1.7723,-0.99248 0.638,-1.96723 -1.2938,-1.15198 c -0.7047,-0.62789 -2.8169,-1.77619 -4.6965,-2.5698 -1.8796,-0.79361 -4.4971,-1.63855 -5.813,-1.86089 L 185.841,1.04564 185.2029,0 Z"
     style="fill:#b3b3b3;fill-opacity:1"
     id="MN_1"
     inkscape:connector-curvature="0" />
</svg>
