<?xml version="1.0" encoding="UTF-8" standalone="no"?>
<svg
   xmlns:dc="http://purl.org/dc/elements/1.1/"
   xmlns:cc="http://creativecommons.org/ns#"
   xmlns:rdf="http://www.w3.org/1999/02/22-rdf-syntax-ns#"
   xmlns:svg="http://www.w3.org/2000/svg"
   xmlns="http://www.w3.org/2000/svg"
   xmlns:sodipodi="http://sodipodi.sourceforge.net/DTD/sodipodi-0.dtd"
   xmlns:inkscape="http://www.inkscape.org/namespaces/inkscape"
   version="1.0"
   width="90.7229"
   height="55.77356"
   id="svg2"
   sodipodi:docname="MN_6.svg"
   inkscape:version="0.92.2 5c3e80d, 2017-08-06">
  <metadata
     id="metadata48">
    <rdf:RDF>
      <cc:Work
         rdf:about="">
        <dc:format>image/svg+xml</dc:format>
        <dc:type
           rdf:resource="http://purl.org/dc/dcmitype/StillImage" />
      </cc:Work>
    </rdf:RDF>
  </metadata>
  <defs
     id="defs46" />
  <sodipodi:namedview
     pagecolor="#ffffff"
     bordercolor="#666666"
     borderopacity="1"
     objecttolerance="10"
     gridtolerance="10"
     guidetolerance="10"
     inkscape:pageopacity="0"
     inkscape:pageshadow="2"
     inkscape:window-width="640"
     inkscape:window-height="480"
     id="namedview44"
     showgrid="false"
     inkscape:zoom="0.12542268"
     inkscape:cx="-92.080754"
     inkscape:cy="-414.17231"
     inkscape:window-x="0"
     inkscape:window-y="0"
     inkscape:window-maximized="0"
     inkscape:current-layer="svg2" />
  <path
     d="M 43.2081,0 18.5557,1.34693 21.6572,3.88129 0,5.29911 l 0.833,15.43653 3.899,3.58 -2.7116,3.98763 0.4963,4.27118 16.3226,-1.24059 v 2.88881 h 5.5473 c 0.5298,6.5093 0.9151,12.58505 1.2608,18.54192 l 20.9116,-1.39018 0.07,-6.37629 h 1.0102 l 0.7089,-2.81792 3.3674,-2.68996 -1.6418,-1.55961 c 0.7535,-1.05285 3.9397,-2.1057 6.8345,-3.15855 l 4.3776,1.1697 0.4253,1.27604 3.2964,-1.73683 2.623,1.20515 1.2761,4.27118 12.0981,-0.83557 1.0698,14.65934 c 3.225,-0.43467 5.7541,0.66165 8.6311,0.99247 L 90.0143,45.5298 C 88.9217,45.04515 88.23,44.15945 88.0648,42.74732 l 2.6585,-2.65841 -1.1697,-2.12673 -0.3899,-8.59555 -11.3426,0.46079 v -6.85871 l -21.9585,1.43555 -0.1595,-8.43604 -11.1654,0.0532 z"
     style="fill:#b3b3b3;fill-opacity:1"
     id="MN_6"
     inkscape:connector-curvature="0" />
</svg>
