<?xml version="1.0" encoding="UTF-8" standalone="no"?>
<svg
   xmlns:dc="http://purl.org/dc/elements/1.1/"
   xmlns:cc="http://creativecommons.org/ns#"
   xmlns:rdf="http://www.w3.org/1999/02/22-rdf-syntax-ns#"
   xmlns:svg="http://www.w3.org/2000/svg"
   xmlns="http://www.w3.org/2000/svg"
   xmlns:sodipodi="http://sodipodi.sourceforge.net/DTD/sodipodi-0.dtd"
   xmlns:inkscape="http://www.inkscape.org/namespaces/inkscape"
   version="1.0"
   width="160.10249"
   height="321.38159"
   id="svg2"
   sodipodi:docname="MN_7.svg"
   inkscape:version="0.92.2 5c3e80d, 2017-08-06">
  <metadata
     id="metadata56">
    <rdf:RDF>
      <cc:Work
         rdf:about="">
        <dc:format>image/svg+xml</dc:format>
        <dc:type
           rdf:resource="http://purl.org/dc/dcmitype/StillImage" />
      </cc:Work>
    </rdf:RDF>
  </metadata>
  <defs
     id="defs54" />
  <sodipodi:namedview
     pagecolor="#ffffff"
     bordercolor="#666666"
     borderopacity="1"
     objecttolerance="10"
     gridtolerance="10"
     guidetolerance="10"
     inkscape:pageopacity="0"
     inkscape:pageshadow="2"
     inkscape:window-width="640"
     inkscape:window-height="480"
     id="namedview52"
     showgrid="false"
     inkscape:zoom="0.12542268"
     inkscape:cx="20.258846"
     inkscape:cy="-364.01943"
     inkscape:window-x="0"
     inkscape:window-y="0"
     inkscape:window-maximized="0"
     inkscape:current-layer="svg2" />
  <path
     d="m 43.5625,321.38159 -2.6403,-68.36034 -1.6448,-3.93647 -5.9282,-2.7514 -3.2972,-0.34052 -2.0377,-3.7988 c -1.1208,-2.08933 -2.7444,-4.6718 -3.608,-5.73883 l -1.5704,-1.94004 0.6935,-1.80699 7.803,-6.38388 3.4381,-6.5435 -0.486,-18.024 -1.6309,-8.69148 -0.1551,-3.3672 -3.9786,-4.92425 -2.1959,-4.56796 -0.7907,-5.59346 -2.2487,-3.8112 0.5542,-5.76745 -0.9752,-4.34052 1.5538,-7.41279 -1.3471,-1.45364 c -0.741,-0.7995 -1.3698,-1.7595 -1.3973,-2.13333 -0.028,-0.37383 -0.1423,-1.95573 -0.255,-3.51533 -0.1127,-1.55961 -0.3729,-4.87731 -0.5782,-7.37268 -0.2054,-2.49536 -0.47,-5.68546 -0.588,-7.08911 -0.1181,-1.40364 -0.3784,-3.82812 -0.5786,-5.38772 -0.2002,-1.5596 -0.4759,-5.63724 -0.6126,-9.06142 l -0.2487,-6.22577 -0.4828,-0.58183 c -0.2656,-0.32001 -1.1772,-2.62257 -2.0256,-5.1168 -0.8485,-2.49423 -1.8903,-4.93788 -2.3151,-5.43032 -0.4247,-0.49244 -0.7723,-1.16509 -0.7723,-1.49477 0,-0.32969 -0.3812,-1.33043 -0.8472,-2.22386 -0.466,-0.89344 -0.8488,-2.08003 -0.8506,-2.63686 0,-0.55684 -0.3619,-1.57767 -0.7998,-2.26852 L 9.9224,90.03246 9.1221,85.0671 5.6123,78.20969 5.817,74.76345 C 5.9295,72.86802 6.0067,70.6792 5.9885,69.8994 5.9705,69.11959 5.6577,65.29147 5.294,61.39246 4.9303,57.49346 4.639,53.61001 4.6466,52.7626 l 0.014,-1.54076 1.75,-3.38414 V 44.63098 L 5.6526,43.51232 C 5.2357,42.89705 4.47,41.06966 3.9512,39.45145 3.4323,37.83324 3.0085,36.17438 3.0095,35.76511 3.0104,35.35584 2.3398,33.43951 1.5194,31.5066 L 0,26.62385 c 30.1939,-0.88708 59.8199,-1.8774 86.478,-3.40734 L 85.1141,0.675921 89.8457,1.432534 92.5224,0 94.1677,1.171552 c 0.9049,0.644349 2.0002,1.250649 2.434,1.347322 l 0.7886,0.17577 c 1.2132,4.347526 2.0597,8.830976 3.7721,13.015606 l 0.5258,0.53877 v 6.01156 h 1.5882 l 1.3714,5.71647 0.2308,7.28418 1.441,1.33547 c 0.7926,0.73451 2.3078,1.73868 3.3672,2.23149 1.0594,0.49281 2.9908,1.06908 4.292,1.28061 l 2.3659,0.38459 3.8988,56.50893 -15.7197,0.81391 v 11.21505 h -5.6712 v 3.31026 l 3.8202,2.36102 h 2.9853 v 4.36892 c -5.2319,0.34522 -10.4575,0.69298 -16.4467,0.73524 v 6.23842 h 1.309 l 3.3312,58.69508 17.8778,-0.93845 0.3781,1.05001 3.0597,0.17474 2.5672,34.74444 -5.9654,0.41754 0.8205,16.16317 3.8345,3.42693 -2.6704,3.84459 0.5656,4.98106 16.2926,-1.21518 v 2.85725 h 5.5425 l 1.3946,18.47835 10.6439,-0.46552 1.3046,16.01489 h 5.5009 v 2.26852 h 5.1042 v 1.72946 c -1.7266,0.31821 -3.47,1.22479 -5.2639,3.90138 l 0.6935,5.06006 -2.0846,2.57435 -37.0613,2.18016 -2.1789,-1.97189 -1.9035,0.73042 0.7879,12.45111 c -4.1058,-0.0631 -7.689,0.18741 -10.8364,0.69941 v 4.89026 z"
     style="fill:#b3b3b3;fill-opacity:1"
     id="MN_7"
     inkscape:connector-curvature="0" />
</svg>
