<?xml version="1.0" encoding="UTF-8" standalone="no"?>
<svg
   xmlns:dc="http://purl.org/dc/elements/1.1/"
   xmlns:cc="http://creativecommons.org/ns#"
   xmlns:rdf="http://www.w3.org/1999/02/22-rdf-syntax-ns#"
   xmlns:svg="http://www.w3.org/2000/svg"
   xmlns="http://www.w3.org/2000/svg"
   xmlns:sodipodi="http://sodipodi.sourceforge.net/DTD/sodipodi-0.dtd"
   xmlns:inkscape="http://www.inkscape.org/namespaces/inkscape"
   version="1.0"
   width="233.5152"
   height="205.1588"
   id="svg2"
   sodipodi:docname="MN_8.svg"
   inkscape:version="0.92.2 5c3e80d, 2017-08-06">
  <metadata
     id="metadata64">
    <rdf:RDF>
      <cc:Work
         rdf:about="">
        <dc:format>image/svg+xml</dc:format>
        <dc:type
           rdf:resource="http://purl.org/dc/dcmitype/StillImage" />
      </cc:Work>
    </rdf:RDF>
  </metadata>
  <defs
     id="defs62" />
  <sodipodi:namedview
     pagecolor="#ffffff"
     bordercolor="#666666"
     borderopacity="1"
     objecttolerance="10"
     gridtolerance="10"
     guidetolerance="10"
     inkscape:pageopacity="0"
     inkscape:pageshadow="2"
     inkscape:window-width="640"
     inkscape:window-height="480"
     id="namedview60"
     showgrid="false"
     inkscape:zoom="0.12542268"
     inkscape:cx="-69.519654"
     inkscape:cy="-440.68558"
     inkscape:window-x="0"
     inkscape:window-y="0"
     inkscape:window-maximized="0"
     inkscape:current-layer="svg2" />
  <path
     d="M 33.7442,0 27.364,0.90386 31.1566,57.98891 15.3125,58.80415 V 70.04039 H 9.6412 v 2.58753 l 3.2964,1.9495 h 3.5091 v 5.49406 C 11.1946,80.47301 5.8797,80.83267 0,80.81584 v 5.03326 l 1.1343,0.0709 3.4736,58.64465 17.7937,-0.7798 0.3722,1.11653 h 3.2078 l 2.5521,35.16198 14.5858,-0.72663 -3.6154,-2.56981 26.8145,-1.45326 1.3292,15.95049 10.8995,-0.14178 0.3722,8.48921 21.994,-1.54188 0.035,7.0891 10.7046,-0.47851 2.3394,-2.10901 0.035,-2.37485 1.666,-2.19763 v -2.48118 l -3.9345,-4.28891 0.514,-0.83297 -1.7723,-1.47099 -2.5344,-0.10634 c -1.3924,-0.0587 -2.7058,-0.27787 -2.9242,-0.49624 l -0.3899,-0.40762 0.124,-8.93228 3.5446,-2.99515 v -2.09128 l 1.152,-0.70892 -0.6912,-1.11653 0.9748,-2.10901 c 0.5332,-1.15402 1.7518,-2.92072 2.7115,-3.93446 l 1.7546,-1.84316 h 1.5418 l 3.2079,-3.50911 2.2685,0.70891 1.2406,-3.58 3.4205,0.67346 v -2.25079 l 1.9849,-1.70138 -2.5521,-36.4203 3.1724,0.63802 1.3292,-2.10901 -1.3823,-0.49624 3.4027,-3.52683 2.5699,-0.0355 -1.4356,-2.35712 3.6863,-3.38505 c 2.0275,-1.86767 4.5796,-4.08838 5.6713,-4.92693 1.0917,-0.83854 3.58,-3.12767 5.5295,-5.08644 1.9495,-1.95877 3.544,-3.74522 3.5446,-3.9699 5e-4,-0.22467 0.9722,-1.30085 2.1621,-2.39257 1.1899,-1.09173 2.7856,-2.52231 3.5446,-3.17238 0.7591,-0.65007 2.1929,-2.18131 3.1901,-3.40277 0.9971,-1.22146 2.656,-3.35137 3.6863,-4.73198 1.0303,-1.38062 2.5805,-3.49275 3.4382,-4.69654 0.8578,-1.20378 1.5597,-2.39008 1.5597,-2.64069 0,-0.25062 0.8187,-1.45618 1.8254,-2.67614 1.0068,-1.21996 4.6434,-5.03745 8.0816,-8.48921 l 6.2561,-6.27386 5.0156,-3.54455 c 2.7561,-1.9454 6.3289,-4.13452 7.9398,-4.87377 1.6108,-0.73924 4.4555,-2.02379 6.327,-2.85336 1.8715,-0.82957 3.9132,-1.71697 4.537,-1.96723 0.6239,-0.25027 2.8455,-1.26266 4.9447,-2.25079 l 3.8281,-1.79 0.8684,-1.54188 6.2384,-2.81792 5.9903,-5.86624 2.0913,0.67346 0.5671,-1.45326 -10.0133,0.0532 -2.1267,1.93178 h -1.3293 c -0.7284,0 -2.2827,-0.42172 -3.4559,-0.93931 l -2.1267,-0.93931 -0.514,-1.96722 -2.8002,-1.84317 -4.4307,-0.19495 -3.6863,0.72663 c -2.0275,0.39888 -4.8348,0.79527 -6.2384,0.86842 -1.4037,0.0731 -3.4134,0.32484 -4.4662,0.56713 l -1.914,0.44307 -0.7975,-1.27604 -1.9318,0.79752 c -1.069,0.43948 -2.7337,0.96681 -3.6864,1.1697 l -1.7191,0.35446 -2.5698,-5.1396 h -1.6305 V 16.748 l -2.4103,0.92158 c -1.3256,0.51005 -2.6655,1.23752 -2.9774,1.61277 -0.3119,0.37526 -1.3328,1.08741 -2.2685,1.57733 l -1.7014,0.88614 -3.4382,3.40277 -3.4382,3.4205 -1.666,0.35445 c -0.9175,0.19742 -2.3444,0.72234 -3.1723,1.1697 -0.828,0.44737 -1.8855,0.81526 -2.3572,0.81525 h -0.8684 l -0.4253,-1.27604 -4.7852,2.44574 -0.6734,-3.3496 -5.6004,-0.76208 0.3367,-1.98495 -1.6128,-3.01287 -1.7368,-0.0886 c -0.9611,-0.0462 -2.1631,-0.10999 -2.6584,-0.14179 -0.4955,-0.0318 -1.3046,-0.39957 -1.8077,-0.81524 l -0.9216,-0.74436 -2.3217,0.72663 v -0.46079 c 0,-0.25898 -0.5743,-0.72002 -1.2761,-1.02792 l -1.276,-0.56713 -0.3722,-3.20782 -2.2862,-2.28624 -2.3571,0.35446 c -1.2959,0.19552 -3.1228,0.43521 -4.0586,0.53168 l -1.7014,0.17723 -0.3544,3.65089 1.3292,1.61277 -0.6558,1.71911 h -0.8683 c -0.482,0 -1.4211,0.31902 -2.0736,0.70891 l -1.1874,0.70891 -0.6381,-1.06336 c -0.357,-0.58533 -1.6175,-2.4994 -2.8002,-4.25347 l -2.1621,-3.1901 0.5671,-2.99515 -2.0558,-1.84316 -5.8663,1.25831 -2.8002,-1.82544 V 9.19811 c 0,-0.38271 0.1961,-0.98136 0.4253,-1.32921 0.2292,-0.34786 1.018,-0.80345 1.7369,-1.02792 l 1.3115,-0.40763 -0.4785,-1.3292 -3.7218,0.31901 C 94.663,4.08188 91.207,3.08339 88.0459,1.45325 L 87.9041,1.13424 H 73.85 l -1.0988,0.99248 c -0.5989,0.54196 -1.9224,1.27509 -2.942,1.6305 L 67.9661,4.39523 68.4977,6.48652 67.842,7.03593 C 67.4733,7.34188 65.1916,8.13188 62.791,8.79048 L 58.4312,9.99563 53.0257,9.64118 52.8663,7.93979 C 52.7753,7.00403 52.4236,5.53658 52.0865,4.6788 L 51.4661,3.1192 35.4447,3.1015 33.7611,2.03814 Z"
     style="fill:#b3b3b3;fill-opacity:1"
     id="MN_8"
     inkscape:connector-curvature="0" />
</svg>
