<?xml version="1.0" encoding="UTF-8" standalone="no"?>
<svg
   xmlns:dc="http://purl.org/dc/elements/1.1/"
   xmlns:cc="http://creativecommons.org/ns#"
   xmlns:rdf="http://www.w3.org/1999/02/22-rdf-syntax-ns#"
   xmlns:svg="http://www.w3.org/2000/svg"
   xmlns="http://www.w3.org/2000/svg"
   xmlns:sodipodi="http://sodipodi.sourceforge.net/DTD/sodipodi-0.dtd"
   xmlns:inkscape="http://www.inkscape.org/namespaces/inkscape"
   version="1.0"
   width="16.3734"
   height="16.65601"
   id="svg2"
   sodipodi:docname="MO_1.svg"
   inkscape:version="0.92.2 5c3e80d, 2017-08-06">
  <metadata
     id="metadata8">
    <rdf:RDF>
      <cc:Work
         rdf:about="">
        <dc:format>image/svg+xml</dc:format>
        <dc:type
           rdf:resource="http://purl.org/dc/dcmitype/StillImage" />
      </cc:Work>
    </rdf:RDF>
  </metadata>
  <defs
     id="defs6" />
  <sodipodi:namedview
     pagecolor="#ffffff"
     bordercolor="#666666"
     borderopacity="1"
     objecttolerance="10"
     gridtolerance="10"
     guidetolerance="10"
     inkscape:pageopacity="0"
     inkscape:pageshadow="2"
     inkscape:window-width="640"
     inkscape:window-height="480"
     id="namedview4"
     showgrid="false"
     inkscape:zoom="0.12542268"
     inkscape:cx="-321.96525"
     inkscape:cy="-36.197159"
     inkscape:window-x="0"
     inkscape:window-y="0"
     inkscape:window-maximized="0"
     inkscape:current-layer="svg2" />
  <path
     d="M 0.4938,15.16117 0.3505,13.8232 3.0439,10.05916 0,7.63724 1.1941,4.41652 5.5466,4.48022 5.9201,2.48903 C 6.1256,1.39385 6.4749,0.38578 6.6964,0.24888 L 7.0992,-4e-5 12.6187,3.9241 16.3734,3.21972 v 0.54235 c 0,0.29831 -0.4466,0.94869 -0.9925,1.44538 -0.5458,0.49664 -1.4826,1.81839 -2.0816,2.93727 l -1.0892,2.0343 1.231,2.19019 c 0.677,1.20458 1.2309,2.60692 1.2309,3.11626 v 0.92606 L 11.1479,16.0121 11.1099,14.9898 7.2887,14.12141 4.978,16.65597 Z"
     style="fill:#b3b3b3;fill-opacity:1"
     id="MO_1"
     inkscape:connector-curvature="0" />
</svg>
