<?xml version="1.0" encoding="UTF-8" standalone="no"?>
<svg
   xmlns:dc="http://purl.org/dc/elements/1.1/"
   xmlns:cc="http://creativecommons.org/ns#"
   xmlns:rdf="http://www.w3.org/1999/02/22-rdf-syntax-ns#"
   xmlns:svg="http://www.w3.org/2000/svg"
   xmlns="http://www.w3.org/2000/svg"
   xmlns:sodipodi="http://sodipodi.sourceforge.net/DTD/sodipodi-0.dtd"
   xmlns:inkscape="http://www.inkscape.org/namespaces/inkscape"
   version="1.0"
   width="42.012199"
   height="49.94838"
   id="svg2"
   sodipodi:docname="MO_3.svg"
   inkscape:version="0.92.2 5c3e80d, 2017-08-06">
  <metadata
     id="metadata24">
    <rdf:RDF>
      <cc:Work
         rdf:about="">
        <dc:format>image/svg+xml</dc:format>
        <dc:type
           rdf:resource="http://purl.org/dc/dcmitype/StillImage" />
      </cc:Work>
    </rdf:RDF>
  </metadata>
  <defs
     id="defs22" />
  <sodipodi:namedview
     pagecolor="#ffffff"
     bordercolor="#666666"
     borderopacity="1"
     objecttolerance="10"
     gridtolerance="10"
     guidetolerance="10"
     inkscape:pageopacity="0"
     inkscape:pageshadow="2"
     inkscape:window-width="640"
     inkscape:window-height="480"
     id="namedview20"
     showgrid="false"
     inkscape:zoom="0.12542268"
     inkscape:cx="-311.10545"
     inkscape:cy="21.951051"
     inkscape:window-x="0"
     inkscape:window-y="0"
     inkscape:window-maximized="0"
     inkscape:current-layer="svg2" />
  <path
     d="M 31.1036,49.94838 17.6146,38.67795 c 1.8778,-2.33623 3.9553,-4.53017 5.6487,-7.00637 l -4.8788,-3.74985 -3.9244,1.65573 c -2.1585,0.91064 -4.2509,1.65567 -4.6498,1.65567 H 9.0851 V 27.38619 C 7.9221,27.01568 6.7482,26.73178 5.5405,26.6031 5.3066,26.6543 5.1152,26.42995 5.1152,26.1047 5.1152,25.7794 3.9643,24.28286 2.5576,22.779 L 0,20.04471 0.7543,3.44383 H 2.2795 V 4.57809 H 4.6804 L 4.0637,2.21996 5.9193,2.93205 7.6673,0.74583 15.4158,0 14.7527,1.07295 15.4914,2.99789 19.1111,2.41046 18.8197,5.33747 c -0.1603,1.6098 -0.2834,4.66736 -0.2737,6.79454 l 0.018,3.86765 2.2495,3.04021 2.9787,1.46126 1.9212,3.25243 4.0721,2.23318 1.4108,-0.51711 1.1012,2.89616 3.1593,0.74776 3.7036,2.75766 2.2512,-0.71452 v 0.40107 c 0,0.22055 -0.4151,0.70454 -0.9225,1.07556 l -0.9225,0.67454 c 0.5526,1.09229 1.1019,2.18078 1.9468,3.07333 l 0.499,0.32746 -1.1263,1.43188 c -0.6195,0.78752 -2.0624,3.57507 -3.2065,6.19452 -1.1441,2.61946 -2.1699,4.86279 -2.2796,4.98524 l -1.9494,-1.22982 c -0.7256,0.70188 -1.48,1.35583 -2.3468,1.85791 z"
     style="fill:#b3b3b3;fill-opacity:1"
     id="MO_3"
     inkscape:connector-curvature="0" />
</svg>
