<?xml version="1.0" encoding="UTF-8" standalone="no"?>
<svg
   xmlns:dc="http://purl.org/dc/elements/1.1/"
   xmlns:cc="http://creativecommons.org/ns#"
   xmlns:rdf="http://www.w3.org/1999/02/22-rdf-syntax-ns#"
   xmlns:svg="http://www.w3.org/2000/svg"
   xmlns="http://www.w3.org/2000/svg"
   xmlns:sodipodi="http://sodipodi.sourceforge.net/DTD/sodipodi-0.dtd"
   xmlns:inkscape="http://www.inkscape.org/namespaces/inkscape"
   version="1.0"
   width="161.6431"
   height="120.42406"
   id="svg2"
   sodipodi:docname="MO_6.svg"
   inkscape:version="0.92.2 5c3e80d, 2017-08-06">
  <metadata
     id="metadata48">
    <rdf:RDF>
      <cc:Work
         rdf:about="">
        <dc:format>image/svg+xml</dc:format>
        <dc:type
           rdf:resource="http://purl.org/dc/dcmitype/StillImage" />
      </cc:Work>
    </rdf:RDF>
  </metadata>
  <defs
     id="defs46" />
  <sodipodi:namedview
     pagecolor="#ffffff"
     bordercolor="#666666"
     borderopacity="1"
     objecttolerance="10"
     gridtolerance="10"
     guidetolerance="10"
     inkscape:pageopacity="0"
     inkscape:pageshadow="2"
     inkscape:window-width="640"
     inkscape:window-height="480"
     id="namedview44"
     showgrid="false"
     inkscape:zoom="0.12542268"
     inkscape:cx="-63.848354"
     inkscape:cy="-29.413105"
     inkscape:window-x="0"
     inkscape:window-y="0"
     inkscape:window-maximized="0"
     inkscape:current-layer="svg2" />
  <path
     d="M 158.9719,0 C 106.4739,5.45028 53.5632,9.24942 0,10.43874 v 2.48119 l 1.0988,0.69116 1.985,-2.32165 h 2.0558 l 0.6558,1.71908 -1.7368,3.61544 0.2658,0.4608 c 0.1524,0.24658 0.6612,0.44309 1.1342,0.44309 h 0.8685 l -0.319,3.11921 1.6127,5.40542 1.5774,0.69122 c 0.8662,0.38337 1.6092,0.89844 1.6481,1.13425 0.039,0.23581 0.1029,0.71901 0.1418,1.08106 l 0.071,0.65577 3.9699,1.34693 -0.2835,3.54456 2.2685,1.20515 v 1.66594 h 1.5773 l 0.5494,3.68633 -0.957,1.84317 0.3544,0.35446 c 0.197,0.19691 0.9555,0.35445 1.6837,0.35445 h 1.3292 l 4.3776,4.50159 3.1192,1.1874 -0.6204,1.6128 3.0129,-0.21268 0.035,1.59505 1.1342,0.44304 c 0.6239,0.24347 1.5464,0.45666 2.0559,0.47855 l 0.9393,0.0354 0.5494,-2.10904 4.3421,-0.81524 1.4,1.89636 -0.6202,1.5773 2.9597,1.11656 v 2.69386 l -2.5521,1.27604 3.4027,-0.24812 0.3368,2.37486 -1.8432,1.52415 -3.3141,-1.24059 v 3.89901 l -2.8002,1.06337 -0.2836,1.29373 c -0.1553,0.71288 -0.3558,1.93181 -0.4431,2.71161 l -0.1595,1.41782 -2.5521,0.37215 v 1.57736 l 3.4028,2.51663 v 2.03809 l 2.7648,0.69122 2.5166,3.66859 2.4989,-0.47849 0.6735,1.77228 -1.6837,1.68363 0.7089,2.83564 3.8636,2.28627 v 2.87109 h 2.0204 l 1.9672,2.30396 1.0811,-0.58488 c 0.599,-0.32054 1.4965,-0.58482 1.9849,-0.58482 h 0.8862 v 1.66594 l 3.58,-0.70891 -0.7922,4.16459 c 1.5372,-1.30541 3.1061,-2.79027 4.46,-3.05693 l 0.8494,-0.0282 c 0.296,0.68781 0.5402,1.53085 1.0167,1.677 0.8358,-0.35531 1.9773,-1.66611 3.0545,-2.77581 l -0.5745,-2.2777 1.9941,2.32006 1.3608,-0.82818 0.6173,2.55946 1.6439,-0.0359 v 1.12484 c -1.4646,5.08454 -2.8718,6.43748 -4.2735,7.44124 l 7.4979,1.3239 -0.018,-1.66594 -1.7014,-0.65571 v -2.42805 c 2.0445,0.90922 4.7044,1.14169 7.3727,1.36468 v -7.97524 l -2.5166,-1.77228 h -2.2508 c 0.9901,-0.72071 1.7402,-1.65693 1.4604,-2.37763 l -2.1445,0.56713 -1.1075,-19.92732 21.4557,-1.28727 c 0.538,5.36946 1.0976,9.54988 1.55,19.62232 h 2.1091 l 2.1267,-2.83565 h 4.1294 l 1.4533,1.75453 2.3748,-0.33671 -0.3721,-4.25346 1.8963,-0.72666 c 0.5253,0.86277 1.1563,1.65511 3.0128,1.63049 l -0.2835,2.56983 c 1.615,-0.42886 2.8857,-1.01663 3.3318,-1.98495 l -1.0633,-1.96725 0.7589,-1.55303 2.6454,-0.0677 0.7235,-1.70139 1.703,-0.16923 1.4871,-2.2219 -0.6542,-2.88226 h 1.5774 l 1.2824,2.28621 2.9356,-0.70891 1.5435,3.84428 4.9962,-0.0339 0.2867,2.72131 2.2685,1.22285 -1.861,1.72237 4.6935,-0.89913 -0.1314,2.03072 c -1.3747,1.54939 -2.6244,3.23053 -2.1371,4.70393 -1.3845,0.35038 -1.7933,1.00887 -1.7014,1.82548 h 2.2685 v 1.47096 l -6.5597,7.31653 1.0657,16.6801 c 5.9132,0.78179 13.42,-0.1597 20.5229,-0.65571 l 4.6434,-15.13525 c -1.3547,-1.18309 -2.6238,-1.90878 -3.8458,-2.42805 1.2533,-6.02756 3.8955,-12.07298 5.1687,-18.09038 l -13.5048,-3.98765 -0.8621,-22.60105 h -7.603 l -3.1015,-40.17755 23.2168,-2.60522 z"
     style="fill:#b3b3b3;fill-opacity:1"
     id="MO_6"
     inkscape:connector-curvature="0" />
</svg>
