<?xml version="1.0" encoding="UTF-8" standalone="no"?>
<svg
   xmlns:dc="http://purl.org/dc/elements/1.1/"
   xmlns:cc="http://creativecommons.org/ns#"
   xmlns:rdf="http://www.w3.org/1999/02/22-rdf-syntax-ns#"
   xmlns:svg="http://www.w3.org/2000/svg"
   xmlns="http://www.w3.org/2000/svg"
   xmlns:sodipodi="http://sodipodi.sourceforge.net/DTD/sodipodi-0.dtd"
   xmlns:inkscape="http://www.inkscape.org/namespaces/inkscape"
   version="1.0"
   width="84.927628"
   height="79.504349"
   id="svg2"
   sodipodi:docname="MO_7.svg"
   inkscape:version="0.92.2 5c3e80d, 2017-08-06">
  <metadata
     id="metadata56">
    <rdf:RDF>
      <cc:Work
         rdf:about="">
        <dc:format>image/svg+xml</dc:format>
        <dc:type
           rdf:resource="http://purl.org/dc/dcmitype/StillImage" />
      </cc:Work>
    </rdf:RDF>
  </metadata>
  <defs
     id="defs54" />
  <sodipodi:namedview
     pagecolor="#ffffff"
     bordercolor="#666666"
     borderopacity="1"
     objecttolerance="10"
     gridtolerance="10"
     guidetolerance="10"
     inkscape:pageopacity="0"
     inkscape:pageshadow="2"
     inkscape:window-width="640"
     inkscape:window-height="480"
     id="namedview52"
     showgrid="false"
     inkscape:zoom="0.12542268"
     inkscape:cx="-129.20983"
     inkscape:cy="112.22949"
     inkscape:window-x="0"
     inkscape:window-y="0"
     inkscape:window-maximized="0"
     inkscape:current-layer="svg2" />
  <path
     d="m 56.571224,0 v 1.1697 c 0,0.64431 -0.262,1.6652 -0.5848,2.26851 l -0.5849,1.09881 h -1.5773 l -1.2052,8.61327 0.089,4.90918 -4.6079,-0.12403 0.2304,10.13743 -22.951,1.29373 V 25.76891 L 5.2376721e-4,26.33603 C -0.02047623,44.06334 2.5871238,61.77772 2.9070238,79.50435 l 77.4131002,-5.24594 -1.5242,-3.65089 -1.8963,-0.3899 0.6203,-1.57736 -2.7293,-2.7293 0.6203,-2.37486 -1.8255,-0.70891 v -7.1068 c 3.7809,-0.72882 6.967,-0.67403 11.3426,-0.70891 l -0.7266,-16.88983 -8.3474,0.19498 V 27.22217 h -1.1343 l -0.7444,-9.19814 -4.7674,0.65577 -0.7266,-15.84416 h -6.2916 L 57.298224,0 Z"
     style="fill:#b3b3b3;fill-opacity:1"
     id="MO_7"
     inkscape:connector-curvature="0" />
</svg>
