<?xml version="1.0" encoding="UTF-8" standalone="no"?>
<svg
   xmlns:dc="http://purl.org/dc/elements/1.1/"
   xmlns:cc="http://creativecommons.org/ns#"
   xmlns:rdf="http://www.w3.org/1999/02/22-rdf-syntax-ns#"
   xmlns:svg="http://www.w3.org/2000/svg"
   xmlns="http://www.w3.org/2000/svg"
   xmlns:sodipodi="http://sodipodi.sourceforge.net/DTD/sodipodi-0.dtd"
   xmlns:inkscape="http://www.inkscape.org/namespaces/inkscape"
   version="1.0"
   width="197.6443"
   height="134.53133"
   id="svg2"
   sodipodi:docname="MO_8.svg"
   inkscape:version="0.92.2 5c3e80d, 2017-08-06">
  <metadata
     id="metadata64">
    <rdf:RDF>
      <cc:Work
         rdf:about="">
        <dc:format>image/svg+xml</dc:format>
        <dc:type
           rdf:resource="http://purl.org/dc/dcmitype/StillImage" />
      </cc:Work>
    </rdf:RDF>
  </metadata>
  <defs
     id="defs62" />
  <sodipodi:namedview
     pagecolor="#ffffff"
     bordercolor="#666666"
     borderopacity="1"
     objecttolerance="10"
     gridtolerance="10"
     guidetolerance="10"
     inkscape:pageopacity="0"
     inkscape:pageshadow="2"
     inkscape:window-width="640"
     inkscape:window-height="480"
     id="namedview60"
     showgrid="false"
     inkscape:zoom="0.12542268"
     inkscape:cx="-203.36205"
     inkscape:cy="126.84292"
     inkscape:window-x="0"
     inkscape:window-y="0"
     inkscape:window-maximized="0"
     inkscape:current-layer="svg2" />
  <path
     d="m 141.8205,134.53132 0.5354,-1.40818 c 0.2944,-0.77453 0.9585,-2.22643 1.4756,-3.22651 0.5171,-1.00002 1.5436,-2.29284 2.2811,-2.8729 l 1.3408,-1.05475 v -2.27503 l 2.473,-2.36589 c 1.3601,-1.30122 2.6281,-2.81245 2.8178,-3.35831 0.1897,-0.54587 0.5805,-0.99248 0.8684,-0.99248 h 0.5234 l 0.5504,-2.55208 -0.711,-6.17064 -3.7268,-0.9614 0.5276,-0.85364 c -0.6299,-1.35385 -1.2602,-2.70759 -1.9039,-4.05497 -47.3371,4.32362 -94.4159,9.2932 -142.2949,12.26217 l -1.1401,-3.9057 -2.051,-0.65095 0.6865,-1.11072 -2.8645,-2.65473 0.6629,-2.53473 L 0,102.74268 V 96.682 C 3.3156,95.82541 7.498,96.00888 11.5146,95.99351 L 10.7452,79.71153 c 4.3566,-0.52386 7.9654,-0.79846 10.5507,-0.73188 L 20.8051,66.4541 19.721,65.81829 19.2324,53.06538 C 26.4097,52.69437 33.744,52.41749 40.2191,51.6251 v -8.091 c 1.6036,-0.64318 6.2931,-0.37872 10.257,-0.32774 l -1.758,-25.61295 2.6965,-0.43079 v -1.89041 c 0.6926,0.35383 2.1113,-0.17575 3.4229,-0.85353 l 12.568,-1.34477 c 0.2649,-2.43174 -0.2186,-4.22199 -0.6632,-6.04565 1.4621,-0.21347 3.2,-0.35712 4.6668,-0.28056 l 1.9925,22.45211 10.631,-0.79199 c 0.6184,1.58008 0.8643,3.2843 0.4712,5.20153 L 92.367,33.2651 92.8208,30.39657 94.8233,29.82666 92.3858,1.43002 107.265,0 c 2.4532,2.54896 5.4989,5.39425 5.7164,6.82545 l 3.2817,0.82829 v 3.83759 c 2.9428,-0.38774 6.2946,-1.59346 9.9122,-3.33063 1.4021,1.04289 2.8075,2.08136 4.2049,3.13061 -1.5127,2.60096 -3.8036,4.69548 -5.6634,7.05621 l 14.2527,12.01559 2.226,-2.01444 2.1506,1.46954 c 2.3183,-5.13932 4.669,-10.52183 6.6611,-13.21495 l 2.6538,-0.008 2.016,-2.48964 2.8329,3.05677 h 1.8046 l 4.3038,2.92655 V 22.463 l 1.6205,0.43618 c 0.8913,0.23984 2.0398,0.81043 2.5521,1.26787 l 0.9316,0.8317 2.8356,0.38701 -0.3508,2.061 2.2975,3.89385 h -1.6631 v 1.19034 c 0,0.65464 0.3852,2.00208 0.856,2.99427 0.4708,0.99219 1.8745,3.03641 3.1192,4.5427 l 2.2632,2.73878 v 3.03057 l -3.3516,1.26509 -0.7623,3.03715 1.2539,2.75199 h 1.7257 v 0.91574 c 0,0.50361 0.6884,2.18044 1.5297,3.72621 l 1.5297,2.81052 2.0448,1.09438 v 2.79572 l 2.2685,2.26852 h 1.5625 l 0.706,0.85069 c 0.3883,0.46788 1.0486,0.85069 1.4673,0.85069 h 0.7613 l 1.2202,-2.27997 -3.0473,-2.82419 h 0.5916 c 0.3254,0 1.3835,0.69485 2.3514,1.54413 l 1.7597,1.54412 v 0.65492 c 0,0.36024 0.4035,0.98986 0.8967,1.39922 l 0.8968,0.74424 2.3101,-1.44272 1.1215,1.1215 -0.8031,5.83938 -2.1535,1.34489 v 2.99104 l 0.7089,0.57552 c 0.3899,0.31657 1.2193,0.70103 1.8432,0.85438 l 1.1342,0.2788 -2.8923,0.13157 -0.6806,0.68056 -0.6805,0.68055 v 2.25213 l 2.4803,2.64021 -1.3461,1.34608 v 1.34166 c 0,0.73794 -0.2642,1.83534 -0.5871,2.43865 l -0.5871,1.097 h -1.5842 l -2.423,-3.40278 h -2.6195 l -1.1462,1.41783 -0.4099,3.1192 c -0.2255,1.71557 -0.7515,3.94864 -1.1688,4.96238 l -0.7589,1.84317 h -1.1102 l 0.6279,-6.08331 -0.501,-0.30965 c -0.2756,-0.17025 -1.4492,-0.4875 -2.6082,-0.70489 l -2.1071,-0.39534 -1.3341,2.92808 3.0766,4.6491 -0.7272,3.31101 2.2935,2.91578 -0.601,1.56635 -4.1468,0.34623 -0.4124,2.17352 2.6715,2.05471 1.985,0.0252 v 1.08287 l -1.8432,0.30557 c -1.0137,0.16804 -2.864,0.37102 -4.1117,0.45104 l -2.2685,0.14547 v 1.70139 l 5.9549,3.9163 v 1.92648 l -3.9699,2.3423 -0.01,2.1459 c 0,1.1802 -0.1962,2.41807 -0.4253,2.7508 l -0.4167,0.60496 z"
     style="fill:#b3b3b3;fill-opacity:1"
     id="MO_8"
     inkscape:connector-curvature="0" />
</svg>
