<?xml version="1.0" encoding="UTF-8" standalone="no"?>
<svg
   xmlns:dc="http://purl.org/dc/elements/1.1/"
   xmlns:cc="http://creativecommons.org/ns#"
   xmlns:rdf="http://www.w3.org/1999/02/22-rdf-syntax-ns#"
   xmlns:svg="http://www.w3.org/2000/svg"
   xmlns="http://www.w3.org/2000/svg"
   xmlns:sodipodi="http://sodipodi.sourceforge.net/DTD/sodipodi-0.dtd"
   xmlns:inkscape="http://www.inkscape.org/namespaces/inkscape"
   version="1.0"
   width="118.8672"
   height="178.78812"
   id="svg2"
   sodipodi:docname="MO_9.svg"
   inkscape:version="0.92.2 5c3e80d, 2017-08-06">
  <metadata
     id="metadata72">
    <rdf:RDF>
      <cc:Work
         rdf:about="">
        <dc:format>image/svg+xml</dc:format>
        <dc:type
           rdf:resource="http://purl.org/dc/dcmitype/StillImage" />
      </cc:Work>
    </rdf:RDF>
  </metadata>
  <defs
     id="defs70" />
  <sodipodi:namedview
     pagecolor="#ffffff"
     bordercolor="#666666"
     borderopacity="1"
     objecttolerance="10"
     gridtolerance="10"
     guidetolerance="10"
     inkscape:pageopacity="0"
     inkscape:pageshadow="2"
     inkscape:window-width="640"
     inkscape:window-height="480"
     id="namedview68"
     showgrid="false"
     inkscape:zoom="0.12542268"
     inkscape:cx="-200.97885"
     inkscape:cy="25.407931"
     inkscape:window-x="0"
     inkscape:window-y="0"
     inkscape:window-maximized="0"
     inkscape:current-layer="svg2" />
  <path
     d="m 87.4525,178.78812 c 0.2353,-1.76026 -0.3216,-3.52057 -0.7315,-5.28082 l -10.3904,0.77901 -2.0608,-22.11286 c -1.3882,-0.26258 -3.2331,-0.27137 -5.8415,0.14399 1.0786,2.74394 1.0827,4.48979 0.8761,5.94856 l -12.1584,1.27882 c -1.2686,0.97926 -2.5201,1.56459 -3.7212,0.99134 l 0.051,1.93623 c -0.5067,0.6049 -12.8734,0.93179 -21.3344,1.35028 l 0.5324,3.06856 -7.5209,0.6915 -4.2835,-0.80827 v -3.39222 l -1.5239,-1.27667 0.6383,-1.66344 -1.1301,-1.36179 3.3791,-2.49832 v -1.66741 h -1.7014 v -2.26852 h -2.3041 c -0.7327,-2.16541 -0.8819,-5.04381 -1.0167,-7.9398 h 2.5388 l 0.4984,-5.38772 10.1794,-0.45507 -0.076,5.13144 6.3432,-0.16265 1.1503,0.7109 3.5668,-1.34631 -0.5392,-1.89245 c 1.7358,-0.72043 3.2946,-1.52938 4.0887,-2.72063 -1.5373,-0.95601 -2.8222,-2.11863 -3.6146,-3.68413 l 3.0473,0.76483 4.4261,-1.19182 0.7292,-2.29766 -1.2969,-1.56278 0.3526,-2.06912 -3.9699,0.32775 -4.7999,-1.83149 -1.4065,-2.65138 c -1.6873,-0.29156 -3.0822,-0.75377 -3.9564,-1.51968 l -3.7364,-0.0764 1.9527,-2.03503 c -1.6485,-1.23628 -3.0818,-2.22139 -3.9198,-2.51215 l 1.438,-3.15607 -1.3067,-1.57447 h -2.0531 l -0.7201,-2.26851 h -1.0578 v -2.12407 c -2.3273,-2.41807 -3.9282,-3.38326 -5.3116,-3.91353 l 0.017,-0.82579 5.2943,-17.34932 -13.53,-3.79647 -0.8241,-23.0324 H 3.1046 C 2.2786,47.39312 1.2584,34.38807 2e-4,21.1451 L 23.2859,18.50682 C 23.3912,13.54416 22.7233,8.5887 22.536,3.62859 L 50.5818,-9.9999996e-6 51.3262,0.75314 c 0.4094,0.41423 0.8996,1.16346 1.0893,1.66497 l 0.3448,0.91183 3.5755,0.7151 -0.659,1.06625 3.8501,4.20254 1.1326,-0.7 0.6769,3.38434 h 0.605 c 0.3328,0 1.1009,0.46192 1.7069,1.0265 l 1.1018,1.02656 -0.5673,1.95086 c -0.3121,1.07301 -0.7174,4.12019 -0.9007,6.77152 l -0.3332,4.82059 2.33,8.28275 1.274,2.09707 c 0.7006,1.15337 1.5309,2.27181 1.8448,2.4855 l 0.5709,0.38843 -1.5266,2.85248 1.3192,3.17615 3.379,1.93221 v 4.54139 l 2.0682,1.58382 c 1.1374,0.87106 3.0187,2.41319 4.1804,3.42694 1.1617,1.01374 2.3969,1.84317 2.7448,1.84317 h 0.6326 l 1.6235,3.88556 3.0863,0.3679 0.9808,1.83687 c 0.5394,1.01029 1.3245,2.25111 1.7447,2.75733 0.4202,0.50627 1.8357,1.46614 3.1457,2.13308 1.3099,0.66689 3.9894,2.22127 5.9544,3.45421 1.965,1.23294 4.4121,3.10611 5.438,4.1625 l 1.8653,1.92081 0.2661,0.78615 -21.5375,1.6643 0.3781,5.39719 -3.4973,0.69944 c -0.1914,3.16645 0.2773,6.33296 0.7155,9.49941 h 3.1642 l 0.7474,3.40277 h 3.8798 v 3.49306 l 7.3727,-0.78956 0.017,4.38561 1.0287,1.62567 8.5952,0.32315 -1.2443,-2.74621 c 1.038,-0.31061 1.6082,-0.28123 2.617,-0.29638 l -0.5731,2.34446 2.4999,2.33129 3.344,-0.94846 5.4888,0.65129 -1.6173,2.30549 -4.3981,-0.0406 -3.3892,3.48381 0.9588,9.84371 -0.8112,17.07857 -15.3884,1.46365 2.6359,28.58045 -1.9365,0.50633 -0.3796,2.68343 z"
     style="fill:#b3b3b3;fill-opacity:1"
     id="MO_9"
     inkscape:connector-curvature="0" />
</svg>
