<?xml version="1.0" encoding="UTF-8" standalone="no"?>
<svg
   xmlns:dc="http://purl.org/dc/elements/1.1/"
   xmlns:cc="http://creativecommons.org/ns#"
   xmlns:rdf="http://www.w3.org/1999/02/22-rdf-syntax-ns#"
   xmlns:svg="http://www.w3.org/2000/svg"
   xmlns="http://www.w3.org/2000/svg"
   xmlns:sodipodi="http://sodipodi.sourceforge.net/DTD/sodipodi-0.dtd"
   xmlns:inkscape="http://www.inkscape.org/namespaces/inkscape"
   version="1.0"
   width="85.157501"
   height="131.9283"
   id="svg2"
   sodipodi:docname="MS_4.svg"
   inkscape:version="0.92.2 5c3e80d, 2017-08-06">
  <metadata
     id="metadata32">
    <rdf:RDF>
      <cc:Work
         rdf:about="">
        <dc:format>image/svg+xml</dc:format>
        <dc:type
           rdf:resource="http://purl.org/dc/dcmitype/StillImage" />
      </cc:Work>
    </rdf:RDF>
  </metadata>
  <defs
     id="defs30" />
  <sodipodi:namedview
     pagecolor="#ffffff"
     bordercolor="#666666"
     borderopacity="1"
     objecttolerance="10"
     gridtolerance="10"
     guidetolerance="10"
     inkscape:pageopacity="0"
     inkscape:pageshadow="2"
     inkscape:window-width="640"
     inkscape:window-height="480"
     id="namedview28"
     showgrid="false"
     inkscape:zoom="0.12542268"
     inkscape:cx="-399.50035"
     inkscape:cy="482.22777"
     inkscape:window-x="0"
     inkscape:window-y="0"
     inkscape:window-maximized="0"
     inkscape:current-layer="svg2" />
  <path
     d="m 69.2779,0 -33.7442,4.3243 -0.3367,5.884 -3.6332,0.957 0.195,4.5725 -1.3115,0.053 1.3647,3.5091 h 1.9672 l 2.304,-2.942 3.1723,0.7975 1.0457,1.985 -0.6912,3.8281 -2.1976,0.5671 -0.1773,2.2863 c -2.0077,-0.3091 -3.839,-0.677 -5.494,-2.0736 l -2.2694,1.9746 -3.012,1.0028 0.3899,4.927 -1.3115,2.428 0.7444,2.304 3.4373,-0.3562 0.5503,2.5538 -0.7266,2.8711 -2.8179,1.2937 -3.415,-3.0202 L 25,55.0044 11.9979,56.3405 v 3.7927 h -3.385 l -3.4382,6.8055 -2.0918,-0.3527 -1.1562,1.6997 1.5643,0.443 0.029,6.088 -1.2501,-0.057 -2.2703,4.6891 4.6252,-0.034 c -0.1577,1.552 0.037,2.4575 0.5849,3.6863 l 5.4941,-0.3722 0.6734,2.5875 -0.4962,0.5849 c -0.2713,0.3281 -0.4853,1.2406 -0.4785,2.0204 0.01,0.7798 -0.3515,2.8215 -0.7975,4.537 -0.4461,1.7156 -1.0673,3.6296 -1.3824,4.2535 l -0.5671,1.1342 -0.2127,6.6638 0.4962,0.638 c 0.2753,0.3516 0.6591,1.3045 0.8507,2.109 l 0.3367,1.4533 3.7572,4.7497 4.1649,2.8179 0.7798,4.1117 3.3674,3.8281 -0.6913,1.8077 0.9748,2.0736 c 0.5405,1.1413 1.3201,2.4564 1.7191,2.9243 l 0.7267,0.8507 6.6992,0.053 0.7443,-3.9876 2.5167,-2.2508 c 1.3769,-1.2374 2.4988,-2.448 2.4988,-2.6939 0,-0.2458 -0.6603,-0.7803 -1.4709,-1.2051 l -1.471,-0.7798 1.8963,-1.8963 h 2.0027 l 1.914,2.1089 -0.7266,1.861 h 0.6735 c 0.3711,0 3.119,-1.2731 6.0966,-2.8357 l 5.4054,-2.8534 6.203,-1.7899 3.7927,0.443 0.5317,-2.0381 1.0456,0.3899 c 0.5748,0.2125 1.1733,0.523 1.3292,0.7089 0.156,0.1859 0.9787,0.7905 1.8255,1.3292 l 1.5418,0.9748 h 2.7294 l 1.471,-1.7546 8.0284,0.7089 0.5316,0.5317 c 0.2964,0.2862 1.0221,0.514 1.6128,0.514 h 1.0811 l 0.5849,-2.2685 h 1.081 c 0.5875,0 1.0634,-0.1645 1.0634,-0.3722 C 80.2319,83.1743 74.5382,51.6919 69.2775,20.1497 Z"
     style="fill:#b3b3b3"
     id="MS_4"
     inkscape:connector-curvature="0" />
</svg>
