<?xml version="1.0" encoding="UTF-8" standalone="no"?>
<svg
   xmlns:dc="http://purl.org/dc/elements/1.1/"
   xmlns:cc="http://creativecommons.org/ns#"
   xmlns:rdf="http://www.w3.org/1999/02/22-rdf-syntax-ns#"
   xmlns:svg="http://www.w3.org/2000/svg"
   xmlns="http://www.w3.org/2000/svg"
   xmlns:sodipodi="http://sodipodi.sourceforge.net/DTD/sodipodi-0.dtd"
   xmlns:inkscape="http://www.inkscape.org/namespaces/inkscape"
   version="1.0"
   width="54.940601"
   height="74.116692"
   id="svg2"
   sodipodi:docname="NC_12.svg"
   inkscape:version="0.92.2 5c3e80d, 2017-08-06">
  <metadata
     id="metadata32">
    <rdf:RDF>
      <cc:Work
         rdf:about="">
        <dc:format>image/svg+xml</dc:format>
        <dc:type
           rdf:resource="http://purl.org/dc/dcmitype/StillImage" />
      </cc:Work>
    </rdf:RDF>
  </metadata>
  <defs
     id="defs30" />
  <sodipodi:namedview
     pagecolor="#ffffff"
     bordercolor="#666666"
     borderopacity="1"
     objecttolerance="10"
     gridtolerance="10"
     guidetolerance="10"
     inkscape:pageopacity="0"
     inkscape:pageshadow="2"
     inkscape:window-width="640"
     inkscape:window-height="480"
     id="namedview28"
     showgrid="false"
     inkscape:zoom="0.12542268"
     inkscape:cx="-815.36475"
     inkscape:cy="109.28751"
     inkscape:window-x="0"
     inkscape:window-y="0"
     inkscape:window-maximized="0"
     inkscape:current-layer="svg2" />
  <path
     d="m 25.975,0 -3.8569,3.45597 4.4661,4.85604 c -0.165,1.40829 -0.3768,2.78534 1.7546,5.72448 l -0.6912,1.09882 c -1.3829,-0.47883 -3.2076,0.0244 -5.6004,1.78997 l 1.4134,6.13661 -1.9806,-0.6248 -0.3193,0.60019 2.0207,1.84776 v 0.7354 l -1.3469,-0.0641 -2.0559,2.05585 c -0.4327,1.19868 0.1731,2.93585 1.5353,3.91012 C 14.4268,29.93532 15.875,29.10606 7.346,27.56114 l -0.6189,14.76855 1.1928,0.55488 2.4702,6.82788 -6.277,1.14787 c 2.1124,1.22551 3.8287,1.93845 4.8192,1.70553 l 1.1497,1.88298 0.055,6.05682 H 7.8684 V 58.80426 C 7.2804,58.30962 5.8837,59.7356 4.4125,61.33859 l 1.7546,1.27604 v 2.42805 H 2.1972 v 3.50911 L -5e-4,69.13661 1.3288,71.2811 h 3.1546 l -0.7089,2.83564 h 3.5091 l 1.0279,-2.55208 -1.2938,-2.88884 0.9571,-1.66594 5.3346,-1.20515 -1.4179,-1.50641 c 0.6383,-2.03111 1.4766,-3.79176 1.152,-7.10686 l 1.1874,-3.17234 c -1.0328,-0.34521 -0.7627,-3.03006 -0.7266,-5.29914 0.2944,-4.29946 1.3479,-6.54047 2.4103,-8.75505 l -1.1165,-1.11651 -2.4458,1.31149 -2.1976,-2.94198 3.1192,-3.26099 6.1498,3.04832 1.276,1.43551 1.8078,-0.69116 1.0279,-5.01557 c 1.2547,0.17978 2.4726,0.13753 3.6154,-0.35446 v -3.5268 l 5.2814,-3.42052 -1.7191,-2.25077 -2.9952,1.31149 -1.3114,-1.1697 0.071,-5.61815 3.5024,-1.20067 0.6979,-1.93623 h 2.6584 l 3.1723,3.9699 c 1.6171,0.43533 4.7921,-3.02422 7.6917,-5.79538 l -0.7266,-2.30396 4.3244,0.69122 2.0381,-1.84317 0.1241,2.72931 1.2228,-3.11921 h 2.6762 l 1.081,-3.10151 -1.7014,-0.30126 -0.035,-1.77228 -1.6482,2.58752 -1.5242,0.0531 V 4.66113 L 47.2844,4.43076 46.8768,4.90925 44.3247,4.27123 43.6158,6.1144 41.56,5.01558 39.9472,6.00806 c 1.0797,0.3536 2.0333,0.89618 2.4457,2.25082 l -2.2153,4.31324 -1.7966,0.0933 -0.3988,-1.01709 -4.1405,-0.0532 -3.035,-6.50865 v -2.4103 l -4.537,-0.97921 z"
     style="fill:#b3b3b3;fill-opacity:1"
     id="NC_12"
     inkscape:connector-curvature="0" />
</svg>
