<?xml version="1.0" encoding="UTF-8" standalone="no"?>
<svg
   xmlns:dc="http://purl.org/dc/elements/1.1/"
   xmlns:cc="http://creativecommons.org/ns#"
   xmlns:rdf="http://www.w3.org/1999/02/22-rdf-syntax-ns#"
   xmlns:svg="http://www.w3.org/2000/svg"
   xmlns="http://www.w3.org/2000/svg"
   xmlns:sodipodi="http://sodipodi.sourceforge.net/DTD/sodipodi-0.dtd"
   xmlns:inkscape="http://www.inkscape.org/namespaces/inkscape"
   version="1.0"
   width="84.614998"
   height="107.76437"
   id="svg2"
   sodipodi:docname="NC_2.svg"
   inkscape:version="0.92.2 5c3e80d, 2017-08-06">
  <metadata
     id="metadata48">
    <rdf:RDF>
      <cc:Work
         rdf:about="">
        <dc:format>image/svg+xml</dc:format>
        <dc:type
           rdf:resource="http://purl.org/dc/dcmitype/StillImage" />
      </cc:Work>
    </rdf:RDF>
  </metadata>
  <defs
     id="defs46" />
  <sodipodi:namedview
     pagecolor="#ffffff"
     bordercolor="#666666"
     borderopacity="1"
     objecttolerance="10"
     gridtolerance="10"
     guidetolerance="10"
     inkscape:pageopacity="0"
     inkscape:pageshadow="2"
     inkscape:window-width="640"
     inkscape:window-height="480"
     id="namedview44"
     showgrid="false"
     inkscape:zoom="0.12542268"
     inkscape:cx="-879.95285"
     inkscape:cy="114.73523"
     inkscape:window-x="0"
     inkscape:window-y="0"
     inkscape:window-maximized="0"
     inkscape:current-layer="svg2" />
  <path
     d="m 80.8096,107.76437 -4.0969,-2.20284 -0.5086,-1.40415 c -3.4674,-3.34629 -6.4208,-7.01969 -10.8103,-9.77917 l -3.0159,-5.54125 v -3.96105 c 1.2491,-1.02253 2.6343,-1.56868 4.0672,-1.94763 l -1.2316,2.5155 3.4696,2.77938 1.6046,-1.33162 0.5177,-3.86844 1.5461,-0.20496 -1.5454,-1.97854 c 0.9243,-1.41918 1.2593,-2.56104 1.213,-4.8815 l -3.007,3.24284 -1.5044,-2.68728 0.6478,-4.67093 -2.8704,-0.72043 -0.3205,-4.02933 -5.8684,1.22602 -3.5456,-2.87228 -2.4858,5.18508 -4.2564,0.58681 c -1.5725,-0.007 -1.3552,-1.17282 -7.2945,1.64541 l -4.1937,4.03036 1.3798,4.35095 c 1.2938,-0.67488 2.719,-1.13924 4.9259,-0.35298 l 0.96,2.11091 -0.9869,1.58331 -5.797,0.89862 -1.1432,-1.39962 -3.5837,4.23345 -2.4564,-5.07433 v -4.17895 h -2.1156 c -1.5398,-1.27513 -3.2778,-2.31904 -5.3713,-2.94833 0.9444,-0.48002 1.2242,-1.49166 1.2484,-2.70775 l -3.7775,-1.57838 -6.5129,-6.35859 0.3637,-1.14605 0.3638,-1.14611 C 11.2623,61.7264 7.3656,63.98068 3.618,64.16386 L 0,44.80005 l 11.0527,-2.41824 1.0442,3.76352 7.2214,-2.12344 7.0067,5.77921 1.2911,-1.29101 1.8683,-0.0693 v 4.85684 l 15.596,2.46689 5.0201,-8.05901 -4.8659,-3.9268 c -0.1,-1.13062 0.7289,-2.68983 1.8219,-4.37108 l 6.2473,1.14474 0.9571,1.37892 c 2.7301,-3.4617 5.9451,-6.51239 8.6835,-9.95867 l -3.5598,-3.88551 -1.9985,-0.0306 -1.8768,-1.58671 c -0.909,0.0815 -2.374,-1.22732 -3.7879,-2.40808 l -5.7404,-1.32504 -0.7017,-3.19481 0.7398,-5.97952 -1.2323,-3.21953 3.4863,-7.30485 4.5907,-3.03799 1.6688,2.35449 -0.7703,3.06862 8.332,-0.32848 1.7014,1.06217 9.5529,0.28204 c 0.2719,0.72972 0.9514,1.3737 2.9678,1.73615 L 84.615,6.47324 82.1579,25.75562 h -1.954 l -13.289,10.86862 1.4766,1.07618 3.2053,5.88737 3.3558,1.29407 -1.848,9.8622 0.5908,5.02397 c -3.2714,2.56149 -5.0177,2.24577 -6.3826,4.77255 l 3.2663,3.23116 5.4042,1.09416 1.1531,6.79704 3.4952,10.17991 -0.1056,11.93811 h 3.3358 l 0.7317,1.18394 c -1.3067,1.88916 -2.5697,4.7843 -3.7839,8.79945 z"
     style="fill:#b3b3b3;fill-opacity:1"
     id="NC_2"
     inkscape:connector-curvature="0" />
</svg>
