<?xml version="1.0" encoding="UTF-8" standalone="no"?>
<svg
   xmlns:dc="http://purl.org/dc/elements/1.1/"
   xmlns:cc="http://creativecommons.org/ns#"
   xmlns:rdf="http://www.w3.org/1999/02/22-rdf-syntax-ns#"
   xmlns:svg="http://www.w3.org/2000/svg"
   xmlns="http://www.w3.org/2000/svg"
   xmlns:sodipodi="http://sodipodi.sourceforge.net/DTD/sodipodi-0.dtd"
   xmlns:inkscape="http://www.inkscape.org/namespaces/inkscape"
   version="1.0"
   width="136.67799"
   height="146.99268"
   id="svg2"
   sodipodi:docname="NC_3.svg"
   inkscape:version="0.92.2 5c3e80d, 2017-08-06">
  <metadata
     id="metadata56">
    <rdf:RDF>
      <cc:Work
         rdf:about="">
        <dc:format>image/svg+xml</dc:format>
        <dc:type
           rdf:resource="http://purl.org/dc/dcmitype/StillImage" />
      </cc:Work>
    </rdf:RDF>
  </metadata>
  <defs
     id="defs54" />
  <sodipodi:namedview
     pagecolor="#ffffff"
     bordercolor="#666666"
     borderopacity="1"
     objecttolerance="10"
     gridtolerance="10"
     guidetolerance="10"
     inkscape:pageopacity="0"
     inkscape:pageshadow="2"
     inkscape:window-width="640"
     inkscape:window-height="480"
     id="namedview52"
     showgrid="false"
     inkscape:zoom="0.12542268"
     inkscape:cx="-947.43485"
     inkscape:cy="113.68276"
     inkscape:window-x="0"
     inkscape:window-y="0"
     inkscape:window-maximized="0"
     inkscape:current-layer="svg2" />
  <path
     d="M 99.5489,0 68.9594,7.95749 c -1e-4,0.20695 0.8918,1.10006 1.7013,1.6305 0.8096,0.53043 2.9984,1.47572 4.8738,2.09129 3.5504,0.53253 5.3589,1.48548 6.2561,2.65841 l 1.9318,-0.58482 0.1241,1.50641 1.5241,0.0177 -0.053,0.95703 3.6686,0.97472 -1.7546,1.71914 4.5902,0.74435 0.9571,1.06337 c 0.5305,0.58624 1.2843,1.06337 1.6659,1.06337 0.3813,0 0.9809,0.34243 1.3292,0.76205 l 0.638,0.76211 8.7905,-0.17723 4.0762,4.32435 h 1.347 l -0.8153,-1.5596 c -0.4494,-0.85778 -1.2886,-2.07013 -1.8608,-2.69386 -0.5724,-0.62384 -1.7475,-2.17386 -2.6053,-3.43822 -0.8578,-1.26447 -1.5596,-2.47676 -1.5596,-2.69386 0,-0.21721 -0.3891,-0.83663 -0.8684,-1.38238 -0.4793,-0.54586 -1.5001,-1.80171 -2.2685,-2.7825 L 99.2477,11.14754 V 8.89678 L 94.7461,8.18787 92.4067,5.67123 92.7434,3.9344 h 6.7878 l 1.1166,2.55208 h 1.3115 l 0.957,2.03809 c 0.5301,1.11708 1.0917,1.90357 1.2406,1.75459 0.149,-0.14905 -0.8053,-2.40996 -2.1091,-5.01558 C 101.2294,3.60371 100.4922,1.5435 99.549,-5e-5 Z m 5.6535,11.50205 -0.3721,2.46349 2.3571,1.66594 v 0.69116 c 0,0.3878 0.3044,1.01329 0.6734,1.38238 0.3692,0.36914 0.7795,0.54972 0.9216,0.40765 0.1421,-0.14212 -0.6088,-1.68721 -1.6659,-3.43822 z m 6.6106,10.86409 0.9747,2.69386 c 0.5341,1.48162 1.3365,3.26802 1.7901,3.9699 l 0.8152,1.27604 h 0.7798 c 0.4216,0 1.4166,0.52374 2.2153,1.15195 0.7987,0.62821 1.5665,1.00342 1.7192,0.85069 0.1527,-0.15273 -0.9551,-1.68891 -2.4812,-3.42046 -1.5261,-1.73168 -3.2929,-3.90542 -3.9168,-4.8206 -0.6238,-0.91529 -1.3136,-1.67161 -1.5241,-1.68369 z m -1.8963,11.82106 -1.5064,0.3722 c -0.8253,0.20712 -1.8199,0.64647 -2.2154,0.97473 l -0.7266,0.60257 1.1874,1.41782 -1.347,2.95973 h -2.7115 l -1.6128,-3.82811 -1.8254,-0.70892 -2.6408,0.65572 c -1.4591,0.35684 -3.5516,1.10011 -4.6433,1.64824 -1.0917,0.54819 -3.1201,2.03316 -4.5016,3.31413 l -2.1267,2.37486 2.0027,3.19009 -1.2229,4.85604 1.6482,5.79538 -22.0294,5.1573 -6.3802,4.55478 -9.8007,-2.81795 -0.9748,2.44574 1.7014,0.54944 0.1418,2.53432 0.6558,0.23043 c 0.3569,0.11898 0.956,0.53072 1.3469,0.92158 0.3907,0.39081 1.2492,1.00042 1.8963,1.34693 l 1.1697,0.62027 2.3749,-1.66594 2.4812,4.07624 -2.428,2.55208 4.2711,3.04831 1.6305,-3.42046 h 4.9624 l 11.4135,2.88878 1.2051,-1.09881 c 0.6608,-0.60382 1.8459,-1.2875 2.623,-1.52416 0.777,-0.23672 2.5562,-0.50928 3.9522,-0.60257 l 2.5343,-0.15948 1.2052,0.99248 2.2508,-0.56713 c 1.237,-0.31533 3.144,-0.68424 4.2357,-0.81525 1.0917,-0.13095 2.9032,-0.23615 4.0231,-0.23042 l 2.0381,0.0177 4.1117,-3.75723 -0.6735,-2.58753 2.4103,-0.62032 v -4.34205 l 1.1343,-0.70891 v -2.8002 l 1.7013,-0.65577 v -1.5773 l 2.304,-2.30396 1.1166,0.67346 2.233,-0.70891 1.8078,-3.81042 -1.2938,-2.42799 1.276,-1.54191 -2.3394,-4.83829 v -2.48119 l -5.1751,-6.66376 z m 12.0869,0.40765 c -0.1166,0.10821 -0.013,0.66354 0.2304,1.22284 0.2437,0.5593 0.4122,1.39304 0.3722,1.86092 l -0.071,0.85069 0.319,-0.74435 0.3367,-0.74436 0.8153,1.1697 c 0.4522,0.64568 1.0783,1.16971 1.3824,1.16971 h 0.5493 l -1.8608,-2.48119 c -1.0236,-1.36939 -1.9571,-2.41223 -2.0736,-2.30396 z m -3.4382,0.24812 -2.5876,0.0886 0.709,0.28357 c 0.3859,0.15596 1.4706,0.96536 2.4103,1.79003 l 1.7013,1.48871 v 1.93175 c 0.7095,0.22215 1.4357,0.30035 2.1622,0.33676 0.096,-0.0648 -0.1943,-0.99423 -0.638,-2.05584 l -0.7975,-1.93181 z m 11.3249,9.35762 v 0.86839 c -0.01,0.47644 0.3863,1.44873 0.8861,2.16218 l 0.9216,1.29379 0.5848,-0.58488 -1.1874,-1.87862 z m 4.7319,11.21849 c -0.1481,0.14813 -0.081,1.64013 0.1418,3.31418 l 0.4076,3.04832 0.2482,-0.74436 c 0.1372,-0.40941 0.07,-1.90141 -0.1418,-3.31418 -0.2119,-1.41272 -0.5076,-2.4521 -0.6558,-2.30396 z m 1.0457,7.49676 0.035,4.53703 0.2481,-1.27604 c 0.1357,-0.70545 0.1243,-1.72634 -0.018,-2.26852 z M 11.254,67.59465 C 7.7968,70.8169 4.0034,73.82915 0,76.75729 c 1.8669,0.46913 3.1035,4.21536 4.4662,6.57518 l 3.8458,1.34693 -2.0558,9.99564 0.1949,2.0381 c 0.1033,1.12297 0.3628,2.33469 0.5849,2.69386 l 0.4076,0.65577 -1.3292,0.51393 c -0.7335,0.27886 -1.6761,0.9175 -2.0913,1.41782 -0.4153,0.50038 -1.0795,0.90389 -1.471,0.90389 -0.3915,0 -1.0501,0.40028 -1.4533,0.88614 l -0.7266,0.88614 2.8888,2.88878 2.7116,0.49624 2.7116,0.51399 3.5445,3.9699 4.1117,-0.0354 1.152,1.82542 8.3652,1.11656 4.6256,-4.20032 2.4103,4.59022 -0.7089,3.50911 H 30.625 v 0.60258 c 0,0.33245 0.2618,1.09796 0.5849,1.70138 l 0.5848,1.09882 h 1.6659 v 2.25076 l -2.8356,1.84317 v 2.21537 l 1.276,-0.3899 c 0.7018,-0.21783 1.4874,-0.74271 1.7368,-1.1697 l 0.4431,-0.7798 h 4.3598 l 0.7975,5.38772 8.9501,13.66423 3.1369,1.2229 5.1041,-5.17505 c 2.8073,-2.84387 5.9974,-6.20394 7.0891,-7.46132 l 1.985,-2.28621 3.1724,-2.05584 c 1.7463,-1.13199 4.9363,-2.87432 7.0891,-3.88131 2.1527,-1.007 5.3204,-2.33703 7.0359,-2.94198 l 3.1192,-1.09882 7.4081,0.0178 3.0838,1.1697 v 2.23307 l 0.9925,0.62027 0.5849,-4.34205 3.9344,-9.81842 h -1.9849 l -0.6912,-1.80772 1.9495,-3.29644 h 1.3823 l 0.3545,-1.27604 c 0.1966,-0.70182 0.6314,-1.85337 0.9748,-2.55208 l 0.6202,-1.25834 -1.9849,-2.21532 0.6735,-1.08112 -0.9039,-0.35445 c -0.4916,-0.18863 -1.3227,-0.32939 -1.8432,-0.31901 l -0.9393,0.0178 1.2761,1.06336 c 0.7018,0.58545 1.276,1.31183 1.276,1.61275 v 0.54943 l -3.4559,0.69116 -2.2154,-1.38237 -1.7545,-3.70403 h -1.0811 v 4.04079 l -6.0967,2.78244 -1.8608,-0.70891 -0.6912,-2.76475 0.8329,-0.95703 c 0.4526,-0.53327 1.252,-1.90946 1.7723,-3.04832 l 0.9393,-2.07353 v -1.6128 c 0,-0.88864 0.3835,-2.63369 0.833,-3.88126 0.4495,-1.24768 0.837,-2.82975 0.8507,-3.50911 l 0.018,-1.2229 -1.8609,-1.87861 -2.3394,0.30131 c -1.2796,0.1639 -2.4949,0.30308 -2.7116,0.31901 l -0.3899,0.0354 0.2127,6.36244 -9.9779,3.82812 C 65.6542,88.9688 61.4103,87.1963 52.3534,84.41362 l 0.1595,-5.01551 -3.3142,-1.48872 0.6204,-3.84587 -1.7546,-0.67346 -2.0913,1.96725 -1.4355,-1.32923 -1.8432,0.92158 -0.8861,3.56231 h -3.1192 l -0.7621,-4.8206 -2.5167,-1.86092 C 34.0248,70.80701 32.5419,69.83246 32.114,69.66828 l -0.7798,-0.30126 -0.638,1.47096 0.6557,0.79755 -3.2255,4.20027 -1.0102,0.26587 c -0.5617,0.14689 -1.028,0.45109 -1.028,0.65571 0,0.20462 0.9048,0.84435 2.0027,1.43558 l 1.985,1.08106 3.2078,-3.06601 1.5242,2.21531 c 0.8433,1.21695 1.5039,2.43628 1.4532,2.71162 -0.051,0.27528 -0.072,0.80356 -0.035,1.1697 0.037,0.36591 0.7343,1.45043 1.5419,2.4103 l 1.4709,1.73683 h 2.1977 l -0.319,-3.06607 3.1901,-1.15195 0.5139,0.83294 c 0.2888,0.45654 0.5447,1.43325 0.5494,2.16218 v 1.32924 l 3.3142,1.24059 -1.5773,3.04832 8.1879,4.09393 3.4559,0.0177 2.2154,2.03809 c 1.2182,1.11577 2.7,2.27782 3.2787,2.58752 l 1.0456,0.56713 -2.9065,3.81043 v 0.85069 c 0,0.47026 0.2191,0.99157 0.4785,1.15195 l 0.4608,0.28357 1.4355,7.97524 2.2686,-1.20514 -0.7444,-2.90654 6.2916,0.63802 1.4355,-3.03057 3.6864,-0.35445 c 0,2.63789 0.2052,3.96848 0.7089,6.30931 h -3.4028 l -1.4178,1.70138 0.833,1.29374 -0.7089,1.82547 -10.102,3.79267 -2.6053,-0.49623 0.5317,-1.57736 -5.1042,-4.83829 -3.1723,0.15948 -2.0027,1.75458 -4.1826,-0.97478 v -4.41298 l -1.1874,-2.23307 1.4178,-3.93446 h 1.471 v -1.02792 c 0,-0.56145 0.2698,-1.28001 0.6026,-1.6128 l 0.6025,-0.60257 -7.4612,-2.99512 -6.8056,-0.0354 -0.7266,-2.80019 H 32.398 L 31.689,94.39153 H 29.5623 L 29.2079,93.8244 c -0.1928,-0.31192 -0.5626,-0.56713 -0.8153,-0.56713 h -0.4608 l -0.6734,4.21802 2.9065,3.04832 -0.7089,2.23307 -5.4763,0.70891 -1.3824,-8.48924 -3.3142,1.71914 v 2.64067 l -3.385,1.152 c -0.052,2.29841 -0.2221,4.47794 -0.957,6.71691 l -4.1649,-3.95215 v -2.48119 l 2.1445,-0.56713 -1.2761,-4.8029 3.385,-2.71156 0.8507,0.33671 c 0.4679,0.18624 1.1059,0.4444 1.4179,0.56713 0.3119,0.12278 0.9099,0.001 1.3292,-0.26582 l 0.762,-0.47854 -1.8431,-3.56225 c 1.4283,-0.0853 2.3946,-0.2547 3.4027,-0.88614 l -1.7368,-6.59287 1.9318,-1.41782 -3.1192,-3.95221 c -1.0721,0.35293 -1.6432,1.14044 -2.7647,1.31149 l -3.9168,-0.0709 c 0,-0.20819 0.6555,-1.22262 1.4533,-2.26852 l 1.4532,-1.91406 -1.5064,-2.94198 z m 125.2291,0.42535 -0.4431,4.82059 -3.3319,1.73683 v 1.11651 l -1.9672,0.93933 -1.9495,0.93928 -0.3013,0.74436 c -0.1598,0.41667 -0.1856,0.76211 -0.071,0.76211 0.1149,0 1.5324,-0.89323 3.1547,-1.98495 l 2.942,-1.98496 h 2.1621 z m -10.4387,11.62613 -1.4178,1.70139 h 0.5316 c 0.2905,0 1.0249,-0.3751 1.6305,-0.833 l 1.0988,-0.83294 z m -2.7648,2.88879 c -0.2805,-0.005 -1.5495,1.02111 -2.942,2.3926 l -2.6938,2.65842 h -0.6912 c -0.3793,0 -0.6912,0.21862 -0.6912,0.47848 0,0.25997 0.1735,0.65197 0.3899,0.86845 l 0.3899,0.3899 3.2788,-3.2433 c 1.8029,-1.78413 3.1501,-3.37192 2.9951,-3.5268 -0.01,-0.01 -0.017,-0.0174 -0.035,-0.0177 z m -9.7121,9.02092 c -0.2339,10e-4 -1.421,1.94854 -2.6406,4.32435 -1.2197,2.37576 -3.0701,5.55696 -4.1117,7.07136 -1.0417,1.5144 -1.89,2.94862 -1.8786,3.1901 0.011,0.24148 0.6593,-0.32258 1.4355,-1.25829 0.7761,-0.93576 2.3421,-3.36029 3.4737,-5.38772 1.1317,-2.02749 2.5249,-4.36485 3.1015,-5.1928 0.5763,-0.82795 1.0456,-1.78498 1.0456,-2.12673 0,-0.34176 -0.1914,-0.62169 -0.4254,-0.62027 z"
     style="fill:#b3b3b3;fill-opacity:1"
     id="NC_3"
     inkscape:connector-curvature="0" />
</svg>
