<?xml version="1.0" encoding="UTF-8" standalone="no"?>
<svg
   xmlns:dc="http://purl.org/dc/elements/1.1/"
   xmlns:cc="http://creativecommons.org/ns#"
   xmlns:rdf="http://www.w3.org/1999/02/22-rdf-syntax-ns#"
   xmlns:svg="http://www.w3.org/2000/svg"
   xmlns="http://www.w3.org/2000/svg"
   xmlns:sodipodi="http://sodipodi.sourceforge.net/DTD/sodipodi-0.dtd"
   xmlns:inkscape="http://www.inkscape.org/namespaces/inkscape"
   version="1.0"
   width="40.8269"
   height="42.15757"
   id="svg2"
   sodipodi:docname="NC_4.svg"
   inkscape:version="0.92.2 5c3e80d, 2017-08-06">
  <metadata
     id="metadata64">
    <rdf:RDF>
      <cc:Work
         rdf:about="">
        <dc:format>image/svg+xml</dc:format>
        <dc:type
           rdf:resource="http://purl.org/dc/dcmitype/StillImage" />
      </cc:Work>
    </rdf:RDF>
  </metadata>
  <defs
     id="defs62" />
  <sodipodi:namedview
     pagecolor="#ffffff"
     bordercolor="#666666"
     borderopacity="1"
     objecttolerance="10"
     gridtolerance="10"
     guidetolerance="10"
     inkscape:pageopacity="0"
     inkscape:pageshadow="2"
     inkscape:window-width="640"
     inkscape:window-height="480"
     id="namedview60"
     showgrid="false"
     inkscape:zoom="0.12542268"
     inkscape:cx="-888.59555"
     inkscape:cy="62.151401"
     inkscape:window-x="0"
     inkscape:window-y="0"
     inkscape:window-maximized="0"
     inkscape:current-layer="svg2" />
  <path
     d="M 35.6622,42.15757 21.4088,39.77155 v -4.92086 l -2.5732,0.0525 -1.2135,1.36531 C 15.2878,34.33646 13.0323,32.30625 10.6454,30.44 L 3.915,32.43941 2.9792,29.2855 4.9621,28.81841 0,4.47997 21.1952,-9.9999999e-6 23.1776,8.4915 26.513,10.40516 v 1.88916 l 4.9602,-0.74384 3.4269,2.88356 2.0837,0.10498 -1.1951,4.07142 -3.5327,1.71261 -0.051,0.95618 -3.8431,-1.77018 2.0021,3.88761 2.002,0.88994 -3.0566,1.05577 -1.6245,3.14149 3.8046,2.80655 4.9314,-0.10503 4.4064,3.6615 c -1.7208,2.42067 -3.054,5.20459 -5.1647,7.31068 z"
     style="fill:#b3b3b3;fill-opacity:1"
     id="NC_4"
     inkscape:connector-curvature="0" />
</svg>
