<?xml version="1.0" encoding="UTF-8" standalone="no"?>
<svg
   xmlns:dc="http://purl.org/dc/elements/1.1/"
   xmlns:cc="http://creativecommons.org/ns#"
   xmlns:rdf="http://www.w3.org/1999/02/22-rdf-syntax-ns#"
   xmlns:svg="http://www.w3.org/2000/svg"
   xmlns="http://www.w3.org/2000/svg"
   xmlns:sodipodi="http://sodipodi.sourceforge.net/DTD/sodipodi-0.dtd"
   xmlns:inkscape="http://www.inkscape.org/namespaces/inkscape"
   version="1.0"
   width="103.3816"
   height="62.703171"
   id="svg2"
   sodipodi:docname="NC_5.svg"
   inkscape:version="0.92.2 5c3e80d, 2017-08-06">
  <metadata
     id="metadata72">
    <rdf:RDF>
      <cc:Work
         rdf:about="">
        <dc:format>image/svg+xml</dc:format>
        <dc:type
           rdf:resource="http://purl.org/dc/dcmitype/StillImage" />
      </cc:Work>
    </rdf:RDF>
  </metadata>
  <defs
     id="defs70" />
  <sodipodi:namedview
     pagecolor="#ffffff"
     bordercolor="#666666"
     borderopacity="1"
     objecttolerance="10"
     gridtolerance="10"
     guidetolerance="10"
     inkscape:pageopacity="0"
     inkscape:pageshadow="2"
     inkscape:window-width="640"
     inkscape:window-height="480"
     id="namedview68"
     showgrid="false"
     inkscape:zoom="0.12542268"
     inkscape:cx="-758.65195"
     inkscape:cy="77.475111"
     inkscape:window-x="0"
     inkscape:window-y="0"
     inkscape:window-maximized="0"
     inkscape:current-layer="svg2" />
  <path
     d="M 88.1495,0 C 60.783,4.80199 31.0179,10.56345 8.5246,13.41617 l -1.0456,3.1192 1.0633,3.08377 -1.0456,4.87373 1.0279,3.10151 h 1.0457 v 1.75453 L 3.8104,29.0831 0,33.24792 l 1.0988,0.67346 -0.9393,3.31419 1.7014,1.86086 1.4178,-0.42534 c 2.141,1.97298 3.0056,3.17478 3.3673,4.55478 1.7774,-0.11235 5.929,-2.15957 12.9199,-2.56983 8.767,1.31301 10.233,2.02646 12.7073,5.56495 -0.01,2.44665 0.1432,5.23499 1.7013,11.39577 l 1.1697,0.0354 c 0.9821,-1.07601 5.356,-2.58752 7.9575,-3.29643 l 0.833,2.44574 c 1.4821,0.22561 2.4617,-1.91377 3.3496,-5.35228 l 6.2916,3.22555 0.5849,2.17987 3.066,1.18746 2.0913,3.36732 c 1.2868,0.41735 2.5808,0.81735 3.8458,1.29374 L 63.731,47.35521 c 7.8685,1.39332 8.8481,2.73826 13.2921,4.05854 -1.3597,-1.11639 -1.2337,-2.20222 -1.0295,-3.5141 l 2.4004,-2.15725 1.2872,0.0855 0.1073,2.57807 -0.1252,-3.00813 -2.1555,-1.8654 0.6117,-1.00115 1.7925,0.49953 -1.4571,-5.82328 c 2.379,-2.10819 4.3147,-2.61985 5.9484,-2.04472 l 0.4019,-0.70512 c -2.0723,-1.92744 -2.0337,-3.85488 -2.0753,-5.78233 l -4.4307,-4.73195 4.3952,-4.16488 0.6558,2.05584 4.4838,0.76211 v 2.99512 l 2.9234,6.0845 3.715,-0.028 c -1.2498,-3.7823 -2.0965,-9.16559 -3.0858,-14.90199 l 11.995,-2.12021 -1.777,-2.62768 1.0811,-2.41029 -1.6659,-3.1901 -3.4383,3.43822 -1.276,-2.76476 -6.0434,5.1573 z"
     style="fill:#b3b3b3;fill-opacity:1"
     id="NC_5"
     inkscape:connector-curvature="0" />
</svg>
