<?xml version="1.0" encoding="UTF-8" standalone="no"?>
<svg
   xmlns:dc="http://purl.org/dc/elements/1.1/"
   xmlns:cc="http://creativecommons.org/ns#"
   xmlns:rdf="http://www.w3.org/1999/02/22-rdf-syntax-ns#"
   xmlns:svg="http://www.w3.org/2000/svg"
   xmlns="http://www.w3.org/2000/svg"
   xmlns:sodipodi="http://sodipodi.sourceforge.net/DTD/sodipodi-0.dtd"
   xmlns:inkscape="http://www.inkscape.org/namespaces/inkscape"
   version="1.0"
   width="97.839302"
   height="88.264961"
   id="svg2"
   sodipodi:docname="NC_7.svg"
   inkscape:version="0.92.2 5c3e80d, 2017-08-06">
  <metadata
     id="metadata88">
    <rdf:RDF>
      <cc:Work
         rdf:about="">
        <dc:format>image/svg+xml</dc:format>
        <dc:type
           rdf:resource="http://purl.org/dc/dcmitype/StillImage" />
      </cc:Work>
    </rdf:RDF>
  </metadata>
  <defs
     id="defs86" />
  <sodipodi:namedview
     pagecolor="#ffffff"
     bordercolor="#666666"
     borderopacity="1"
     objecttolerance="10"
     gridtolerance="10"
     guidetolerance="10"
     inkscape:pageopacity="0"
     inkscape:pageshadow="2"
     inkscape:window-width="640"
     inkscape:window-height="480"
     id="namedview84"
     showgrid="false"
     inkscape:zoom="0.12542268"
     inkscape:cx="-900.08295"
     inkscape:cy="161.26066"
     inkscape:window-x="0"
     inkscape:window-y="0"
     inkscape:window-maximized="0"
     inkscape:current-layer="svg2" />
  <path
     d="M 56.1188,88.26496 0,51.2158 4.2321,41.8077 2.5488,38.17621 10.3732,36.7779 17.4871,25.75586 20.592,26.72038 23.3353,24.83195 21.9354,21.366 24.8361,16.98272 23.5569,14.17515 c -2.1777,-0.28283 -3.1531,-0.4731 -4.8683,0.40022 L 17.7174,11.25608 22.363,6.92407 C 29.907,3.47082 24.9186,6.90817 33.2026,5.02725 L 35.5657,0 38.999,2.88889 44.5163,1.62187 v 3.9234 l 2.9523,0.74095 -0.7293,3.88744 1.7858,3.45342 1.0654,-0.57014 c 0.586,-0.31362 1.1951,-0.89209 1.3536,-1.28556 l 0.2882,-0.71544 0.045,0.74618 c 0.025,0.41043 -0.2282,1.25619 -0.5618,1.87946 l -0.6064,1.13318 1.3518,1.62891 h -1.1282 l -0.7151,4.47192 -1.121,0.69286 -2.8153,-2.04558 1.2902,-3.289 -1.6529,0.41264 c -0.909,0.22697 -2.0994,0.81514 -2.6453,1.30706 l -0.9925,0.89442 v 3.76897 l 2.9995,6.11574 1.5079,0.89068 c 0.8293,0.48989 2.8979,2.30379 4.5968,4.03081 l 3.0891,3.14008 1.7615,1.48151 0.3654,1.45548 4.5254,2.85685 0.4323,-0.47361 c 0.2377,-0.26048 0.8753,-1.87725 1.4169,-3.59281 0.5415,-1.71557 1.3556,-3.7105 1.809,-4.43319 L 65.009,32.81452 63.66,31.18901 H 60.9632 V 19.97331 C 59.8898,16.4262 59.037,12.79499 57.6036,9.37237 57.3522,9.05063 57.0087,7.7028 56.8403,6.37713 L 56.5341,3.96684 h 0.5132 c 0.2822,0 0.5131,0.237 0.5131,0.52663 0,0.28963 0.4011,0.92765 0.8912,1.41782 l 0.8913,0.89119 h 3.8325 l 0.9474,1.69293 9.2661,1.24701 4.1604,-4.04062 2.1033,4.12546 -0.6642,2.64651 h -1.5785 l 0.01,0.70891 c 0,0.3899 0.1594,1.27467 0.3448,1.96617 l 0.337,1.25727 2.1461,0.68112 v 1.4945 l -2.8357,1.85797 v 2.93245 l 3.1193,-0.75218 1.2593,-1.63928 h 3.4615 l 0.7744,4.82059 9.2501,14.358 2.1796,0.38735 0.3854,1.1731 -2.5696,3.5314 c -1.4133,1.94224 -3.422,5.12361 -4.4639,7.06971 -1.0419,1.94605 -2.4308,5.19711 -3.0864,7.2246 l -1.192,3.68633 -0.8718,7.65624 c -0.4795,4.21093 -0.8721,8.48566 -0.8725,9.49941 l -7e-4,1.84317 h -2.1471 l -0.6014,-1.56715 -4.3406,-0.54944 -3.4028,0.52375 c -1.8715,0.28804 -5.1359,1.12518 -7.2542,1.86029 l -3.8514,1.3365 z"
     style="fill:#b3b3b3;fill-opacity:1"
     id="NC_7"
     inkscape:connector-curvature="0" />
</svg>
