<?xml version="1.0" encoding="UTF-8" standalone="no"?>
<svg
   xmlns:dc="http://purl.org/dc/elements/1.1/"
   xmlns:cc="http://creativecommons.org/ns#"
   xmlns:rdf="http://www.w3.org/1999/02/22-rdf-syntax-ns#"
   xmlns:svg="http://www.w3.org/2000/svg"
   xmlns="http://www.w3.org/2000/svg"
   xmlns:sodipodi="http://sodipodi.sourceforge.net/DTD/sodipodi-0.dtd"
   xmlns:inkscape="http://www.inkscape.org/namespaces/inkscape"
   version="1.0"
   width="93.701797"
   height="49.290291"
   id="svg2"
   sodipodi:docname="NC_8.svg"
   inkscape:version="0.92.2 5c3e80d, 2017-08-06">
  <metadata
     id="metadata96">
    <rdf:RDF>
      <cc:Work
         rdf:about="">
        <dc:format>image/svg+xml</dc:format>
        <dc:type
           rdf:resource="http://purl.org/dc/dcmitype/StillImage" />
      </cc:Work>
    </rdf:RDF>
  </metadata>
  <defs
     id="defs94" />
  <sodipodi:namedview
     pagecolor="#ffffff"
     bordercolor="#666666"
     borderopacity="1"
     objecttolerance="10"
     gridtolerance="10"
     guidetolerance="10"
     inkscape:pageopacity="0"
     inkscape:pageshadow="2"
     inkscape:window-width="640"
     inkscape:window-height="480"
     id="namedview92"
     showgrid="false"
     inkscape:zoom="0.12542268"
     inkscape:cx="-829.06265"
     inkscape:cy="123.94637"
     inkscape:window-x="0"
     inkscape:window-y="0"
     inkscape:window-maximized="0"
     inkscape:current-layer="svg2" />
  <path
     d="M 70.4046,49.29029 58.0654,41.29706 18.274,48.8853 15.0877,41.95187 12.4739,40.95809 11.8015,39.20617 12.9406,38.5022 14.6077,39.14192 18.5461,37.26381 19.2188,35.1444 16.1894,31.75388 16.9489,27.86887 16.1881,26.63792 14.6414,27.9215 2.7862,23.75333 0,17.62318 1.0933,14.6398 C 0.2218,12.54404 0.354,11.02186 0.6132,9.57222 L 43.3899,0 c 3.2878,6.62934 5.842,12.15833 6.5193,14.87204 l 2.6761,1.01743 v 1.62307 l 5.5901,4.01612 0.3647,3.17938 h 7.1918 c 1.9096,-4.20713 4.7254,-8.21288 8.1082,-12.09266 2.1336,1.04618 4.4766,1.5338 7.1016,1.26952 v 1.73388 l 2.8225,5.76191 3.8905,-4.3704 0.7603,1.23021 5.0036,-0.75036 -1.0339,1.83505 1.3171,3.48955 -2.2682,1.66407 -3.247,-0.90503 -6.9613,11.02867 -8.2234,1.38578 1.8771,4.38475 z"
     style="fill:#b3b3b3;fill-opacity:1"
     id="NC_8"
     inkscape:connector-curvature="0" />
</svg>
