<?xml version="1.0" encoding="UTF-8" standalone="no"?>
<svg
   xmlns:dc="http://purl.org/dc/elements/1.1/"
   xmlns:cc="http://creativecommons.org/ns#"
   xmlns:rdf="http://www.w3.org/1999/02/22-rdf-syntax-ns#"
   xmlns:svg="http://www.w3.org/2000/svg"
   xmlns="http://www.w3.org/2000/svg"
   xmlns:sodipodi="http://sodipodi.sourceforge.net/DTD/sodipodi-0.dtd"
   xmlns:inkscape="http://www.inkscape.org/namespaces/inkscape"
   version="1.0"
   width="120.3553"
   height="171.39693"
   id="svg2"
   sodipodi:docname="NE_1.svg"
   inkscape:version="0.92.2 5c3e80d, 2017-08-06">
  <metadata
     id="metadata8">
    <rdf:RDF>
      <cc:Work
         rdf:about="">
        <dc:format>image/svg+xml</dc:format>
        <dc:type
           rdf:resource="http://purl.org/dc/dcmitype/StillImage" />
      </cc:Work>
    </rdf:RDF>
  </metadata>
  <defs
     id="defs6" />
  <sodipodi:namedview
     pagecolor="#ffffff"
     bordercolor="#666666"
     borderopacity="1"
     objecttolerance="10"
     gridtolerance="10"
     guidetolerance="10"
     inkscape:pageopacity="0"
     inkscape:pageshadow="2"
     inkscape:window-width="640"
     inkscape:window-height="480"
     id="namedview4"
     showgrid="false"
     inkscape:zoom="0.12542268"
     inkscape:cx="35.558646"
     inkscape:cy="-101.56034"
     inkscape:window-x="0"
     inkscape:window-y="0"
     inkscape:window-maximized="0"
     inkscape:current-layer="svg2" />
  <path
     d="M 36.4557,0 V 4.5193 L 34.5594,6.73465 31.3516,6.09663 v 2.33941 l -4.2535,0.35445 -0.319,16.69485 -5.7599,0.76208 0.8684,16.26951 L 0,42.53463 0.7266,63.89057 27.2044,63.37664 27.9488,85.47691 c -1.6188,0.0385 -3.2835,-0.14576 -4.856,0.28356 l 0.8861,42.81822 21.3737,-0.56713 1.4887,43.38534 73.514,-3.1369 -0.6025,-0.97478 -1.0811,0.65577 -2.2508,-0.70891 v -2.76475 h 0.8507 v -2.83564 h -1.4533 l -0.3722,-0.99248 c -0.2036,-0.54586 -0.8489,-1.33281 -1.4355,-1.75458 l -1.0634,-0.76205 0.3545,-3.43822 -3.9167,-1.27604 c -0.1896,-0.97319 -0.4007,-1.88015 -1.0457,-2.58753 -0.234,0.0184 -0.6168,0.0168 -0.8507,-0.0177 -0.2339,-0.0345 -0.9996,-0.0214 -1.7014,0.0354 l -1.276,0.10634 v -2.26852 l 1.1874,-0.3899 -1.8431,-4.41294 0.5848,-2.21538 -2.1268,-0.54937 -0.3544,-3.01288 2.1622,-1.80772 -0.9393,-1.50646 -0.9039,2.46349 h -3.4382 l -0.4076,-6.78785 -0.7267,-0.85069 c -0.3928,-0.47333 -1.0043,-0.86839 -1.3646,-0.86839 h -0.6558 l -3.0837,-3.52686 v -2.67611 l 2.109,-1.11656 -0.8913,-5.51782 2.1262,-0.74958 -0.2727,-1.90101 -1.4178,-1.25653 0.7676,-2.8526 -2.0372,-1.2795 -0.3838,-3.01373 -1.028,0.63802 -1.8077,-0.69121 v -1.5773 h -3.2787 l -0.6203,-1.59505 -3.5091,-0.76211 -1.7191,-2.64066 -9.2336,-0.81525 -2.8222,-3.3401 1.3867,-2.1894 -2.8888,-2.67617 V 87.28463 C 66.0416,86.35448 64.6151,85.5318 64.0155,84.31458 l 24.6662,-1.67939 0.2399,-3.13083 -4.2245,-0.70891 -0.7266,-1.18745 1.2583,-1.27604 -0.071,-2.32166 -1.0279,2.55208 -0.7266,-0.0177 c -0.4,-0.01 -1.1733,-0.34776 -1.7192,-0.76205 l -1.0932,-1.3665 0.7052,-2.28258 -1.845,-1.38419 0.6734,-3.42052 -1.2583,-1.52416 0.6558,-1.71908 h 1.9495 l -2.109,-1.54191 c 0.6392,-1.42561 1.3965,-2.8067 1.8963,-4.28891 L 78.9903,57.38636 V 55.4723 l -1.1697,-1.47099 -1.1697,-1.48871 0.3544,-1.45327 c 0.1884,-0.7933 0.4758,-1.88217 0.638,-2.42802 l 0.2836,-0.99247 -2.3021,-0.20146 -0.2015,-1.50261 -1.5109,-0.19316 -0.7529,-2.07267 H 71.1746 L 70.5365,41.2232 71.6708,39.11419 70.696,38.74201 c -0.5355,-0.20549 -1.4873,-0.88477 -2.109,-1.50644 l -1.1342,-1.13426 -0.4254,-4.34208 h 1.1874 v -1.52415 l -2.2685,-2.05584 0.5849,-0.58486 -2.5344,-2.69386 -0.2835,-4.71426 1.8963,-2.109 L 64.369,16.1632 59.7611,17.03161 58.5382,14.74537 54.1607,15.43656 53.3455,12.76042 49.9249,9.58805 50.563,5.67131 H 45.5297 V 3.52686 L 40.8154,1.64825 C 40.352,2.2085 39.825,2.57234 39.1672,2.83567 L 37.6253,3e-5 Z"
     style="fill:#b3b3b3;fill-opacity:1"
     id="NE_1"
     inkscape:connector-curvature="0" />
</svg>
