<?xml version="1.0" encoding="UTF-8" standalone="no"?>
<svg
   xmlns:dc="http://purl.org/dc/elements/1.1/"
   xmlns:cc="http://creativecommons.org/ns#"
   xmlns:rdf="http://www.w3.org/1999/02/22-rdf-syntax-ns#"
   xmlns:svg="http://www.w3.org/2000/svg"
   xmlns="http://www.w3.org/2000/svg"
   xmlns:sodipodi="http://sodipodi.sourceforge.net/DTD/sodipodi-0.dtd"
   xmlns:inkscape="http://www.inkscape.org/namespaces/inkscape"
   version="1.0"
   width="333.578"
   height="189.918"
   id="svg2"
   sodipodi:docname="NE_3.svg"
   inkscape:version="0.92.2 5c3e80d, 2017-08-06">
  <metadata
     id="metadata24">
    <rdf:RDF>
      <cc:Work
         rdf:about="">
        <dc:format>image/svg+xml</dc:format>
        <dc:type
           rdf:resource="http://purl.org/dc/dcmitype/StillImage" />
      </cc:Work>
    </rdf:RDF>
  </metadata>
  <defs
     id="defs22" />
  <sodipodi:namedview
     pagecolor="#ffffff"
     bordercolor="#666666"
     borderopacity="1"
     objecttolerance="10"
     gridtolerance="10"
     guidetolerance="10"
     inkscape:pageopacity="0"
     inkscape:pageshadow="2"
     inkscape:window-width="640"
     inkscape:window-height="480"
     id="namedview20"
     showgrid="false"
     inkscape:zoom="0.12542268"
     inkscape:cx="323.09284"
     inkscape:cy="-99.645506"
     inkscape:window-x="0"
     inkscape:window-y="0"
     inkscape:window-maximized="0"
     inkscape:current-layer="svg2" />
  <path
     d="M 5.2636,0 C 3.5074,43.01045 1.7561,82.41979 0,123.63406 c 34.98679,2.00542 58.82919,2.40417 93.09769,3.33188 -0.172,20.77404 -0.4667,41.01168 -0.8862,62.31326 87.9985,0.93304 147.261,1.15281 241.3665,-1.5064 l -1.2052,-42.58785 -21.2851,0.60257 -1.4178,-43.95247 5.246,-0.0886 -0.7444,-21.21418 -26.4778,0.60257 c -0.1047,-11.6777 -0.2167,-14.12582 -0.7444,-22.56109 h 21.8345 l -0.833,-16.44673 5.8308,-0.69119 -0.018,-16.55307 4.5547,-0.33673 v -2.4103 l 3.7573,0.60258 1.5596,-1.94951 -0.089,-4.2003 -1.9141,-0.5494 -2.5875,0.65574 c -1.155,-1.91584 -2.8538,-2.52366 -4.9801,-3.26099 l 0.1595,-1.93178 c -4.721,-0.48802 -8.7094,0.34264 -26.1411,0.51396 l -1.8609,-0.99248 c -1.6754,0.32957 -1.2997,2.5639 -1.9495,3.84585 l -2.8487,2.61591 -4.6764,0.098 -4.6504,-4.34445 -2.3926,-0.0354 c -1.8427,-1.79341 -3.9562,-2.34508 -5.0865,-2.26852 -0.8387,-1.40128 -2.5199,-2.76594 -7.4612,-4.09396 l -1.2406,-2.99515 C 170.21039,4.35875 91.32779,3.43863 5.2629,-10e-6 Z"
     style="fill:#b3b3b3;fill-opacity:1"
     id="NE_3"
     inkscape:connector-curvature="0" />
</svg>
