<?xml version="1.0" encoding="UTF-8" standalone="no"?>
<svg
   xmlns:dc="http://purl.org/dc/elements/1.1/"
   xmlns:cc="http://creativecommons.org/ns#"
   xmlns:rdf="http://www.w3.org/1999/02/22-rdf-syntax-ns#"
   xmlns:svg="http://www.w3.org/2000/svg"
   xmlns="http://www.w3.org/2000/svg"
   xmlns:sodipodi="http://sodipodi.sourceforge.net/DTD/sodipodi-0.dtd"
   xmlns:inkscape="http://www.inkscape.org/namespaces/inkscape"
   version="1.0"
   width="66.496101"
   height="169.24529"
   id="svg2"
   sodipodi:docname="NH_2.svg"
   inkscape:version="0.92.2 5c3e80d, 2017-08-06">
  <metadata
     id="metadata16">
    <rdf:RDF>
      <cc:Work
         rdf:about="">
        <dc:format>image/svg+xml</dc:format>
        <dc:type
           rdf:resource="http://purl.org/dc/dcmitype/StillImage" />
      </cc:Work>
    </rdf:RDF>
  </metadata>
  <defs
     id="defs14" />
  <sodipodi:namedview
     pagecolor="#ffffff"
     bordercolor="#666666"
     borderopacity="1"
     objecttolerance="10"
     gridtolerance="10"
     guidetolerance="10"
     inkscape:pageopacity="0"
     inkscape:pageshadow="2"
     inkscape:window-width="468"
     inkscape:window-height="449"
     id="namedview12"
     showgrid="false"
     inkscape:zoom="0.12542268"
     inkscape:cx="-1088.1434"
     inkscape:cy="-449.55822"
     inkscape:window-x="0"
     inkscape:window-y="0"
     inkscape:window-maximized="0"
     inkscape:current-layer="svg2" />
  <path
     d="m 10.163,169.24529 0.1979,-1.91306 -1.9956,0.50949 -2.075,-2.41691 -0.4152,-1.2381 C 5.6467,163.50576 5.402,161.54497 5.3314,159.82941 L 5.203,156.7102 5.9069,155.85951 c 0.3872,-0.46789 0.889,-1.45678 1.1152,-2.19754 l 0.4114,-1.34684 -1.4432,-0.89195 0.1631,-4.33735 -2.2202,-4.25947 -0.3774,-11.47234 -1.9388,-1.08502 0.5902,-0.95491 -0.5229,-3.3158 c -0.2876,-1.8237 -0.7842,-4.3316 -1.1036,-5.57313 L 0,118.16785 l 1.5041,-1.72379 -0.09,-8.60698 2.4514,-3.11638 -0.175,-8.88056 1.48,-1.78322 L 4.5814,92.5218 5.529,90.98856 3.9672,89.78901 5.8749,81.93726 4.4765,81.47112 V 79.4501 L 2.208,76.56615 V 73.69278 L 1.0073,72.95073 1.7776,69.44342 2.9853,68.43429 C 3.6495,67.87927 4.5119,67.41668 4.9018,67.4063 l 0.7089,-0.0189 v -1.13426 h 2.6599 l 2.0593,-2.27547 -0.7093,-0.70931 0.5671,-1.05969 c 0.3119,-0.58283 0.824,-1.05969 1.138,-1.05969 0.314,0 1.036,-0.44661 1.6045,-0.99247 0.5685,-0.54586 1.3235,-1.54992 1.6777,-2.23123 0.3542,-0.68132 0.644,-1.63835 0.644,-2.12674 v -0.88797 l 2.1911,-2.19112 -0.8777,-3.19661 1.2254,-2.74556 -1.4045,-0.46817 v -0.80343 c 0,-0.44188 -0.4466,-1.26656 -0.9925,-1.8326 -0.5459,-0.56605 -1.7858,-2.03749 -2.7556,-3.26986 l -1.763,-2.24067 0.5734,-1.40896 c 0.3154,-0.77493 0.6307,-2.5574 0.7007,-3.96104 l 0.1273,-2.55208 1.341,-3.36906 -1.7684,-1.29302 V 23.83984 L 10.02,23.13794 11.4106,21.46241 10.6898,17.62003 12.0213,14.36087 11.7657,7.57066 10.4313,6.722 12.4163,6.7046 V 6.13747 c 0,-0.31192 0.028,-0.75854 0.062,-0.99248 0.034,-0.23394 0.5549,-1.11701 1.1568,-1.96239 l 1.0945,-1.53705 2.2616,2.26162 2.3426,-0.28235 C 20.6221,3.46953 21.868,3.14192 22.1023,2.8968 22.3365,2.65168 22.6137,1.89962 22.718,1.22554 l 0.1899,-1.2256 21.2824,57.26299 -0.8308,1.33394 0.1191,2.32684 -8.3089,2.35226 -0.1998,10.63338 -2.3607,-4.8206 h -1.4381 l -1.231,-2.30028 -0.5387,0.33292 c -0.2963,0.1831 -0.5387,0.66282 -0.5387,1.06603 v 0.73311 l 3.4028,3.56068 v 1.57282 l 1.7262,1.4326 -0.2176,3.52688 2.5042,4.85949 c -2.1252,1.98567 -5.2207,3.04452 -7.8759,4.27955 1.9491,4.38908 4.3029,8.94006 4.9973,11.46734 l -5.0885,1.94335 c 0.5885,1.986 0.5296,3.68867 0.5515,5.95798 l -2.2685,0.59323 v 3.01907 l 3.2943,-2.34576 h 5.6474 l 0.6995,5.48831 17.2974,5.93913 -1.6857,12.39197 h -5.2658 l -0.646,1.5596 c -0.3553,0.85779 -0.6523,1.81481 -0.6599,2.12674 l -0.014,0.56712 -5.6623,2.50701 3.5068,6.94703 1.376,-0.48424 3.2357,7.7605 c 1.7576,0.0363 3.3129,-0.29156 3.9372,-0.98374 l -1.8505,-3.57858 1.0828,-1.93494 1.4099,3.09449 h 4.355 l 0.6071,-1.24142 7.1928,-3.80653 2.0439,1.40673 -1.9328,2.35715 1.135,2.98545 h -2.7196 l -1.217,3.68634 z"
     style="fill:#b3b3b3;fill-opacity:1"
     id="NH_2"
     inkscape:connector-curvature="0" />
</svg>
