<?xml version="1.0" encoding="UTF-8" standalone="no"?>
<svg
   xmlns:dc="http://purl.org/dc/elements/1.1/"
   xmlns:cc="http://creativecommons.org/ns#"
   xmlns:rdf="http://www.w3.org/1999/02/22-rdf-syntax-ns#"
   xmlns:svg="http://www.w3.org/2000/svg"
   xmlns="http://www.w3.org/2000/svg"
   xmlns:sodipodi="http://sodipodi.sourceforge.net/DTD/sodipodi-0.dtd"
   xmlns:inkscape="http://www.inkscape.org/namespaces/inkscape"
   version="1.0"
   width="46.3694"
   height="34.018379"
   id="svg2"
   sodipodi:docname="NJ_3.svg"
   inkscape:version="0.92.2 5c3e80d, 2017-08-06">
  <metadata
     id="metadata56">
    <rdf:RDF>
      <cc:Work
         rdf:about="">
        <dc:format>image/svg+xml</dc:format>
        <dc:type
           rdf:resource="http://purl.org/dc/dcmitype/StillImage" />
      </cc:Work>
    </rdf:RDF>
  </metadata>
  <defs
     id="defs54" />
  <sodipodi:namedview
     pagecolor="#ffffff"
     bordercolor="#666666"
     borderopacity="1"
     objecttolerance="10"
     gridtolerance="10"
     guidetolerance="10"
     inkscape:pageopacity="0"
     inkscape:pageshadow="2"
     inkscape:window-width="640"
     inkscape:window-height="480"
     id="namedview52"
     showgrid="false"
     inkscape:zoom="0.12542268"
     inkscape:cx="-1030.8795"
     inkscape:cy="-231.08925"
     inkscape:window-x="0"
     inkscape:window-y="0"
     inkscape:window-maximized="0"
     inkscape:current-layer="svg2" />
  <path
     d="M 38.0239,34.01838 35.4406,31.2686 34.866,31.84324 c -0.316,0.31605 -0.9702,0.56532 -1.4537,0.55393 l -0.8791,-0.0207 -3.1789,-5.01808 0.399,-2.14907 c 0.2194,-1.18199 0.7812,-2.73639 1.2484,-3.45423 l 0.8495,-1.30515 -1.1368,-1.13685 -8.2015,3.00444 -2.4565,-2.22907 -4.7305,-0.71353 -1.7915,0.68747 -0.01,1.8636 c -1.1436,0.52926 -2.2684,1.11516 -3.4955,1.41782 -0.2434,0 -0.9633,-1.02083 -1.5998,-2.26852 C 7.7925,19.82762 7.0855,18.81583 6.858,18.82689 L 3.6466,20.39587 C 2.7228,19.10895 1.6572,17.89253 1.0564,16.41729 V 15.94954 L 3.7683,16.63018 4.6213,16.32283 4.4029,15.60346 -0.0012,12.21859 4.4357,7.02778 9.1519,9.3612 10.5944,7.38853 c 1.695,0.84995 3.3476,1.81716 5.1752,2.3442 h 0.5802 L 19.2008,4.10656 17.8742,1.19503 19.0692,0 c 3.6244,4.47415 6.6994,9.43517 10.6026,13.68221 l 0.7346,0.60965 6.3091,-11.00434 C 35.9818,2.25041 35.1802,1.22936 34.6202,0.1027 c 3.1264,0.58329 6.3348,0.90887 9.3647,1.89508 l 2.3833,12.83306 -0.508,3.12125 c -0.9473,4.7945 -2.088,9.57087 -3.5611,14.23309 z"
     style="fill:#b3b3b3;fill-opacity:1"
     id="NJ_3"
     inkscape:connector-curvature="0" />
</svg>
