<?xml version="1.0" encoding="UTF-8" standalone="no"?>
<svg
   xmlns:dc="http://purl.org/dc/elements/1.1/"
   xmlns:cc="http://creativecommons.org/ns#"
   xmlns:rdf="http://www.w3.org/1999/02/22-rdf-syntax-ns#"
   xmlns:svg="http://www.w3.org/2000/svg"
   xmlns="http://www.w3.org/2000/svg"
   xmlns:sodipodi="http://sodipodi.sourceforge.net/DTD/sodipodi-0.dtd"
   xmlns:inkscape="http://www.inkscape.org/namespaces/inkscape"
   version="1.0"
   width="28.8881"
   height="22.118019"
   id="svg2"
   sodipodi:docname="NJ_6.svg"
   inkscape:version="0.92.2 5c3e80d, 2017-08-06">
  <metadata
     id="metadata80">
    <rdf:RDF>
      <cc:Work
         rdf:about="">
        <dc:format>image/svg+xml</dc:format>
        <dc:type
           rdf:resource="http://purl.org/dc/dcmitype/StillImage" />
      </cc:Work>
    </rdf:RDF>
  </metadata>
  <defs
     id="defs78" />
  <sodipodi:namedview
     pagecolor="#ffffff"
     bordercolor="#666666"
     borderopacity="1"
     objecttolerance="10"
     gridtolerance="10"
     guidetolerance="10"
     inkscape:pageopacity="0"
     inkscape:pageshadow="2"
     inkscape:window-width="640"
     inkscape:window-height="480"
     id="namedview76"
     showgrid="false"
     inkscape:zoom="0.12542268"
     inkscape:cx="-1045.0165"
     inkscape:cy="-275.79291"
     inkscape:window-x="0"
     inkscape:window-y="0"
     inkscape:window-maximized="0"
     inkscape:current-layer="svg2" />
  <path
     d="M 4.0231,0 C 3.7641,0 2.767,1.1209 1.79,2.48119 L 0,4.94466 2.8357,7.60307 2.1445,10.8109 l 5.175,-2.51664 2.8711,2.69386 1.2583,-1.25831 1.347,0.62029 c 0.7415,0.33787 1.3469,0.80929 1.3469,1.04565 0,0.23634 -0.1561,0.84736 -0.3545,1.36465 l -0.3721,0.93931 -2.4635,0.9393 0.4962,4.28892 0.638,-0.86842 c 0.3504,-0.47914 1.2128,-1.05346 1.9141,-1.27604 l 1.276,-0.40762 -0.6557,-2.65842 1.9672,-2.99515 1.5774,-0.83297 c 0.874,-0.45194 1.9646,-0.81526 2.428,-0.81525 h 0.8507 l 2.5343,4.51931 1.0457,-1.71911 c 0.5087,-0.83663 1.2191,-1.66021 1.6837,-1.9495 l 1.2582,2.28623 -0.1063,1.4001 h -0.018 l -0.7443,3.40278 h -1.6128 v 0.70891 c 0,0.3899 -0.1578,1.24729 -0.3367,1.91406 l -0.3368,1.22287 c 1.2084,0.4342 2.405,0.90812 3.6509,1.22287 l 0.4253,0.0354 V 17.86452 13.61105 L 27.6827,9.55254 27.0624,7.93977 25.0066,7.86887 C 23.8703,7.83197 22.1674,7.63723 21.2316,7.4258 L 19.5302,7.0359 15.8439,9.05629 V 7.93976 H 13.0791 L 12.3702,6.78778 11.1119,7.56758 7.4433,3.20778 5.9369,4.20025 4.4127,4.92254 2.7999,4.71792 V 2.23302 L 4.5013,1.57728 V -5e-5 Z"
     style="fill:#b3b3b3;fill-opacity:1"
     id="NJ_6"
     inkscape:connector-curvature="0" />
</svg>
