<?xml version="1.0" encoding="UTF-8" standalone="no"?>
<svg
   xmlns:dc="http://purl.org/dc/elements/1.1/"
   xmlns:cc="http://creativecommons.org/ns#"
   xmlns:rdf="http://www.w3.org/1999/02/22-rdf-syntax-ns#"
   xmlns:svg="http://www.w3.org/2000/svg"
   xmlns="http://www.w3.org/2000/svg"
   xmlns:sodipodi="http://sodipodi.sourceforge.net/DTD/sodipodi-0.dtd"
   xmlns:inkscape="http://www.inkscape.org/namespaces/inkscape"
   version="1.0"
   width="306.46219"
   height="231.72527"
   id="svg2"
   sodipodi:docname="NM_3.svg"
   inkscape:version="0.92.2 5c3e80d, 2017-08-06">
  <metadata
     id="metadata24">
    <rdf:RDF>
      <cc:Work
         rdf:about="">
        <dc:format>image/svg+xml</dc:format>
        <dc:type
           rdf:resource="http://purl.org/dc/dcmitype/StillImage" />
      </cc:Work>
    </rdf:RDF>
  </metadata>
  <defs
     id="defs22" />
  <sodipodi:namedview
     pagecolor="#ffffff"
     bordercolor="#666666"
     borderopacity="1"
     objecttolerance="10"
     gridtolerance="10"
     guidetolerance="10"
     inkscape:pageopacity="0"
     inkscape:pageshadow="2"
     inkscape:window-width="640"
     inkscape:window-height="480"
     id="namedview20"
     showgrid="false"
     inkscape:zoom="0.12542268"
     inkscape:cx="589.51933"
     inkscape:cy="300.40987"
     inkscape:window-x="0"
     inkscape:window-y="0"
     inkscape:window-maximized="0"
     inkscape:current-layer="svg2" />
  <path
     d="M 10.95267,0 C 7.76847,37.35785 4.20049,72.95181 0,110.35973 h 3.36732 l 2.10904,3.40277 c 2.41676,-0.11995 2.7288,-0.66507 3.68634,-1.32923 l 2.41029,2.41029 0.0886,4.0231 c 1.51015,-0.55306 3.02387,-1.10341 4.53703,-1.64825 l 5.10416,-0.0177 2.09128,1.59505 2.72931,-1.24059 v -1.75459 c 0,-0.96576 -0.25101,-2.64979 -0.56713,-3.73947 l -0.58482,-1.98495 0.67346,-3.11921 c 10.42338,0.27982 40.1775,3.33188 40.1775,3.33188 v -2.81795 l 5.33458,0.33676 0.67347,2.83564 19.14059,1.55961 1.6305,5.5295 23.57128,2.0204 0.58483,1.9495 h 1.13425 l -0.54937,-2.10903 5.75987,-0.76206 v -0.44309 c 0,-0.23882 -0.24239,-0.68549 -0.54938,-0.99248 l -0.56713,-0.54938 2.97743,-4.20032 2.67611,0.67346 v -1.1165 l 7.88666,-0.76211 0.76205,-5.1573 4.98013,0.8507 -0.74436,13.18574 4.69651,2.12673 v 4.3598 h -2.26852 v 5.51176 l 44.48416,2.64072 0.4431,-11.1299 59.53076,3.20779 -2.21532,38.33443 h 9.41077 l -1.34693,32.8934 h 5.38772 l -0.74436,16.3759 6.13212,0.3544 -0.2304,9.8007 10.7222,0.6912 v 5.6358 l 22.508,0.6026 6.41559,-183.18256 h 2.2685 l 0.7444,-29.93379 C 206.80648,15.00708 109.45243,7.64756 10.95267,0 Z"
     style="fill:#b3b3b3"
     id="NM_3"
     inkscape:connector-curvature="0" />
</svg>
