<?xml version="1.0" encoding="UTF-8" standalone="no"?>
<svg
   xmlns:dc="http://purl.org/dc/elements/1.1/"
   xmlns:cc="http://creativecommons.org/ns#"
   xmlns:rdf="http://www.w3.org/1999/02/22-rdf-syntax-ns#"
   xmlns:svg="http://www.w3.org/2000/svg"
   xmlns="http://www.w3.org/2000/svg"
   xmlns:sodipodi="http://sodipodi.sourceforge.net/DTD/sodipodi-0.dtd"
   xmlns:inkscape="http://www.inkscape.org/namespaces/inkscape"
   version="1.0"
   width="95.596626"
   height="104.51116"
   id="svg2"
   sodipodi:docname="NV_3.svg"
   inkscape:version="0.92.2 5c3e80d, 2017-08-06">
  <metadata
     id="metadata24">
    <rdf:RDF>
      <cc:Work
         rdf:about="">
        <dc:format>image/svg+xml</dc:format>
        <dc:type
           rdf:resource="http://purl.org/dc/dcmitype/StillImage" />
      </cc:Work>
    </rdf:RDF>
  </metadata>
  <defs
     id="defs22" />
  <sodipodi:namedview
     pagecolor="#ffffff"
     bordercolor="#666666"
     borderopacity="1"
     objecttolerance="10"
     gridtolerance="10"
     guidetolerance="10"
     inkscape:pageopacity="0"
     inkscape:pageshadow="2"
     inkscape:window-width="640"
     inkscape:window-height="480"
     id="namedview20"
     showgrid="false"
     inkscape:zoom="0.12542268"
     inkscape:cx="921.81955"
     inkscape:cy="155.13136"
     inkscape:window-x="0"
     inkscape:window-y="0"
     inkscape:window-maximized="0"
     inkscape:current-layer="svg2" />
  <path
     d="m 95.59663,0 -4.3598,1.50641 -3.24324,-1.34693 -3.88131,0.3722 c -2.13042,0.20485 -4.62931,0.65889 -5.56495,1.01017 -0.93577,0.35123 -2.33952,1.07415 -3.11921,1.6128 -0.7798,0.53849 -2.22105,1.14742 -3.2078,1.34694 L 70.4126,4.85604 69.66825,2.48119 67.66554,3.10146 C 66.63213,2.25326 65.208,1.44567 64.03739,0.81525 l 1.74954,3.36733 -2.65842,5.99029 -10.77544,8.24106 -1.47096,2.76475 0.60257,4.50159 -3.06607,2.92428 h -7.58534 v 0.31901 c 0,0.1765 0.26575,0.84168 0.60257,1.47097 l 0.62033,1.152 -1.04568,1.15196 c -0.5707,0.64097 -1.87889,1.53238 -2.90653,1.96725 l -2.534,0.96338 -2.12706,-4.75605 h -6.14983 l -0.69116,-1.09881 1.20515,-2.25082 4.44839,-1.20515 0.72666,-2.26852 -7.46132,-11.04125 V 10.72225 L 17.29743,2.55208 C 12.9306,2.04161 8.58329,1.10097 4.18257,0.99248 2.59503,8.59478 1.27145,16.26208 0,23.92574 l 2.3926,0.14179 -0.7621,6.09663 3.63319,0.7266 7.81572,6.3802 -1.89631,2.87109 c 0.82789,0.64239 1.65292,1.24899 2.67611,1.50646 l 5.1396,-1.09881 1.13426,1.40007 10.88178,-0.0177 1.79003,-1.48871 1.22284,2.26851 4.8206,0.72661 c 1.12438,-0.44923 2.25475,-0.89834 3.43821,-1.09882 l 0.93934,8.20568 -3.52686,1.45326 v 2.12674 c -0.77487,-0.0539 -2.1451,0.49436 -2.83676,0.82466 l -1.0977,3.8364 c 0.81403,0.12613 1.54812,0.43294 2.23307,0.81524 l -3.40277,6.98278 0.0177,0.99247 1.64819,3.17241 -0.60257,0.95703 h -3.66859 l -4.413,2.32165 22.41934,30.48317 2.26851,-2.26852 -1.98495,-1.43551 0.72661,-1.87862 h 2.88884 l 0.97472,-2.55208 -0.28356,-13.66428 -1.84317,-3.56225 v -4.94468 l 1.01023,-1.08106 0.7798,-5.83082 -1.13426,-0.69116 0.54938,-10.84634 2.23307,-4.00535 -0.49624,-0.65577 c -0.27846,-0.35859 -0.75689,-1.66917 -1.06337,-2.92423 l -0.35445,-3.9699 c 0.10906,-0.92827 0.245,-2.84993 0.31901,-4.25346 l 0.14178,-2.55208 4.71426,-0.62033 1.52416,-1.20514 6.06236,-0.15948 1.84385,2.00678 5.36402,0.28062 2.14561,2.24248 c 0.79556,1.04471 0.77131,2.70742 1.01319,3.48722 l 2.48119,3.1128 4.4565,-0.16776 1.8544,-4.14338 c 0.18052,-0.56889 2.27197,-3.79744 2.94039,-4.5148 l 1.22284,-1.31149 C 92.0959,24.26788 93.83534,12.13235 95.59658,-9.9999995e-6 Z"
     style="fill:#b3b3b3;fill-opacity:1"
     id="NV_3"
     inkscape:connector-curvature="0" />
</svg>
