<?xml version="1.0" encoding="UTF-8" standalone="no"?>
<svg
   xmlns:dc="http://purl.org/dc/elements/1.1/"
   xmlns:cc="http://creativecommons.org/ns#"
   xmlns:rdf="http://www.w3.org/1999/02/22-rdf-syntax-ns#"
   xmlns:svg="http://www.w3.org/2000/svg"
   xmlns="http://www.w3.org/2000/svg"
   xmlns:sodipodi="http://sodipodi.sourceforge.net/DTD/sodipodi-0.dtd"
   xmlns:inkscape="http://www.inkscape.org/namespaces/inkscape"
   version="1.0"
   width="19.3887"
   height="19.50889"
   id="svg2"
   sodipodi:docname="NY_18.svg"
   inkscape:version="0.92.2 5c3e80d, 2017-08-06">
  <metadata
     id="metadata80">
    <rdf:RDF>
      <cc:Work
         rdf:about="">
        <dc:format>image/svg+xml</dc:format>
        <dc:type
           rdf:resource="http://purl.org/dc/dcmitype/StillImage" />
      </cc:Work>
    </rdf:RDF>
  </metadata>
  <defs
     id="defs78" />
  <sodipodi:namedview
     pagecolor="#ffffff"
     bordercolor="#666666"
     borderopacity="1"
     objecttolerance="10"
     gridtolerance="10"
     guidetolerance="10"
     inkscape:pageopacity="0"
     inkscape:pageshadow="2"
     inkscape:window-width="640"
     inkscape:window-height="480"
     id="namedview76"
     showgrid="false"
     inkscape:zoom="0.12542268"
     inkscape:cx="-1056.8908"
     inkscape:cy="-322.42213"
     inkscape:window-x="0"
     inkscape:window-y="0"
     inkscape:window-maximized="0"
     inkscape:current-layer="svg2" />
  <path
     d="M 11.3603,0.33346 7.3726,1.9994 V 3.61218 L 5.6358,5.04772 2.9419,2.53109 0,4.44515 V 5.4199 c 0,0.52835 0.319,1.35153 0.7089,1.84317 0.3899,0.49161 1.0917,1.02066 1.5596,1.1697 L 3.1192,8.69861 4.732,7.88336 C 5.6187,7.43528 6.4306,7.17167 6.5397,7.28079 l 3.1015,4.46614 1.6142,0.17341 -0.5154,6.59669 c 0.6033,-0.3229 1.6481,-0.58487 2.3217,-0.58486 h 1.2228 l 0.2555,1.28024 1.0101,0.29648 0.3295,-0.92097 2.7647,-3.27872 0.7444,-2.97742 -5.37,-5.7599 C 15.5502,4.66628 17.247,2.9035 18.9279,1.13099 L 18.0112,0 17.0138,1.20188 15.4897,2.05257 c -0.4452,0 -1.5473,-0.39464 -2.4635,-0.86841 z"
     style="fill:#b3b3b3;fill-opacity:1"
     id="NY_18"
     inkscape:connector-curvature="0" />
</svg>
