<?xml version="1.0" encoding="UTF-8" standalone="no"?>
<svg
   xmlns:dc="http://purl.org/dc/elements/1.1/"
   xmlns:cc="http://creativecommons.org/ns#"
   xmlns:rdf="http://www.w3.org/1999/02/22-rdf-syntax-ns#"
   xmlns:svg="http://www.w3.org/2000/svg"
   xmlns="http://www.w3.org/2000/svg"
   xmlns:sodipodi="http://sodipodi.sourceforge.net/DTD/sodipodi-0.dtd"
   xmlns:inkscape="http://www.inkscape.org/namespaces/inkscape"
   version="1.0"
   width="60.3461"
   height="44.696831"
   id="svg2"
   sodipodi:docname="NY_19.svg"
   inkscape:version="0.92.2 5c3e80d, 2017-08-06">
  <metadata
     id="metadata88">
    <rdf:RDF>
      <cc:Work
         rdf:about="">
        <dc:format>image/svg+xml</dc:format>
        <dc:type
           rdf:resource="http://purl.org/dc/dcmitype/StillImage" />
      </cc:Work>
    </rdf:RDF>
  </metadata>
  <defs
     id="defs86" />
  <sodipodi:namedview
     pagecolor="#ffffff"
     bordercolor="#666666"
     borderopacity="1"
     objecttolerance="10"
     gridtolerance="10"
     guidetolerance="10"
     inkscape:pageopacity="0"
     inkscape:pageshadow="2"
     inkscape:window-width="640"
     inkscape:window-height="480"
     id="namedview84"
     showgrid="false"
     inkscape:zoom="0.12542268"
     inkscape:cx="-1019.4248"
     inkscape:cy="-332.08043"
     inkscape:window-x="0"
     inkscape:window-y="0"
     inkscape:window-maximized="0"
     inkscape:current-layer="svg2" />
  <path
     d="m 50.2796,0 -4.2004,1.1697 c 0.5536,2.121 1.1865,4.22537 1.5951,6.3802 V 7.97525 H 44.443 l -4.7794,2.90653 -3.899,-1.29376 V 5.70673 h -3.879 l 2.1421,8.7905 -0.6734,6.45109 -7.9044,1.34693 -1.1519,3.33188 -3.0306,-0.67347 -6.1321,4.57248 H 11.378 V 27.25762 H 10.9527 L 0,30.76673 0.3722,31.9896 c 0.2085,0.67223 0.7361,1.43055 1.1697,1.68367 l 0.7798,0.46079 -0.6557,1.08109 1.0279,0.35445 c 0.5656,0.20024 1.5383,0.80939 2.1622,1.34693 l 1.1342,0.97476 22.8447,6.80554 2.428,-4.32436 c 1.8836,-0.34068 3.8588,-0.41296 5.6358,-1.15198 l 3.5091,-2.41029 2.6408,2.48119 1.2228,-0.76208 v -2.07357 l 4.5725,-1.82544 1.6659,0.85069 c 0.9088,0.46995 1.9586,0.85068 2.3394,0.85069 0.3809,0 1.1266,-0.39792 1.666,-0.88614 l 0.9924,-0.88613 1.1166,1.1697 3.7218,-3.88129 -4.4485,-4.87376 z"
     style="fill:#b3b3b3;fill-opacity:1"
     id="NY_19"
     inkscape:connector-curvature="0" />
</svg>
