<?xml version="1.0" encoding="UTF-8" standalone="no"?>
<svg
   xmlns:dc="http://purl.org/dc/elements/1.1/"
   xmlns:cc="http://creativecommons.org/ns#"
   xmlns:rdf="http://www.w3.org/1999/02/22-rdf-syntax-ns#"
   xmlns:svg="http://www.w3.org/2000/svg"
   xmlns="http://www.w3.org/2000/svg"
   xmlns:sodipodi="http://sodipodi.sourceforge.net/DTD/sodipodi-0.dtd"
   xmlns:inkscape="http://www.inkscape.org/namespaces/inkscape"
   version="1.0"
   width="52.9687"
   height="68.65625"
   id="svg2"
   sodipodi:docname="NY_27.svg"
   inkscape:version="0.92.2 5c3e80d, 2017-08-06">
  <metadata
     id="metadata160">
    <rdf:RDF>
      <cc:Work
         rdf:about="">
        <dc:format>image/svg+xml</dc:format>
        <dc:type
           rdf:resource="http://purl.org/dc/dcmitype/StillImage" />
      </cc:Work>
    </rdf:RDF>
  </metadata>
  <defs
     id="defs158" />
  <sodipodi:namedview
     pagecolor="#ffffff"
     bordercolor="#666666"
     borderopacity="1"
     objecttolerance="10"
     gridtolerance="10"
     guidetolerance="10"
     inkscape:pageopacity="0"
     inkscape:pageshadow="2"
     inkscape:window-width="640"
     inkscape:window-height="480"
     id="namedview156"
     showgrid="false"
     inkscape:zoom="0.12542268"
     inkscape:cx="-784.46135"
     inkscape:cy="-322.99933"
     inkscape:window-x="0"
     inkscape:window-y="0"
     inkscape:window-maximized="0"
     inkscape:current-layer="svg2" />
  <path
     d="M 36.7812,0 34.25,0.59375 V 3.4375 L 32.6875,4.71875 30.75,4 31.4062,1.4375 29.5937,0.75 l -2.25,1.5625 0.5938,0.375 c 0.3258,0.20145 1.1037,1.51551 1.7187,2.90625 l 1.125,2.53125 h 0.9375 L 33.25,13.25 32.1875,14.5 c -0.5838,0.68142 -1.7176,1.90341 -2.5,2.71875 C 28.9049,18.03411 27.699,19.00086 27,19.375 l -1.2813,0.6875 v 2.84375 l -0.7812,1.25 c -0.4309,0.69085 -0.9283,1.93178 -1.125,2.78125 l -0.625,2.625 -1.625,1.09375 c -1.504,1.00758 -3.9364,3.04345 -5.4375,4.53125 l -2.75,2.6875 -0.75,2.46875 L 6.4062,46.75 0,52.84375 l 3.5625,15.8125 30.5,-6.59375 -7.3438,-32.6875 3.375,-0.34375 2.7813,3.3125 3.5625,1.25 c 2.6999,-1.39044 5.0777,-3.34396 7.7187,-4.84375 2.9159,-1.61102 5.8738,-3.14961 8.8125,-4.71875 L 49.6562,9.375 48.6875,9.5625 48.4375,9.625 48.3755,9.375 47.5317,4.25 47.5007,4.03125 47.7194,3.96875 48.5319,3.71875 47.7194,0.875 43.2819,2 l 0.8438,3.03125 0.062,0.21875 -0.25,0.0937 -5.0313,1.5625 -0.2187,0.0937 -0.094,-0.25 z"
     style="opacity:1;fill:#b3b3b3;fill-opacity:1"
     id="NY_27"
     inkscape:connector-curvature="0" />
</svg>
