<?xml version="1.0" encoding="UTF-8" standalone="no"?>
<svg
   xmlns:dc="http://purl.org/dc/elements/1.1/"
   xmlns:cc="http://creativecommons.org/ns#"
   xmlns:rdf="http://www.w3.org/1999/02/22-rdf-syntax-ns#"
   xmlns:svg="http://www.w3.org/2000/svg"
   xmlns="http://www.w3.org/2000/svg"
   xmlns:sodipodi="http://sodipodi.sourceforge.net/DTD/sodipodi-0.dtd"
   xmlns:inkscape="http://www.inkscape.org/namespaces/inkscape"
   version="1.0"
   width="132.967"
   height="165.81731"
   id="svg2"
   sodipodi:docname="NY_23.svg"
   inkscape:version="0.92.2 5c3e80d, 2017-08-06">
  <metadata
     id="metadata128">
    <rdf:RDF>
      <cc:Work
         rdf:about="">
        <dc:format>image/svg+xml</dc:format>
        <dc:type
           rdf:resource="http://purl.org/dc/dcmitype/StillImage" />
      </cc:Work>
    </rdf:RDF>
  </metadata>
  <defs
     id="defs126" />
  <sodipodi:namedview
     pagecolor="#ffffff"
     bordercolor="#666666"
     borderopacity="1"
     objecttolerance="10"
     gridtolerance="10"
     guidetolerance="10"
     inkscape:pageopacity="0"
     inkscape:pageshadow="2"
     inkscape:window-width="640"
     inkscape:window-height="480"
     id="namedview124"
     showgrid="false"
     inkscape:zoom="0.12542268"
     inkscape:cx="-906.78585"
     inkscape:cy="-407.4731"
     inkscape:window-x="0"
     inkscape:window-y="0"
     inkscape:window-maximized="0"
     inkscape:current-layer="svg2" />
  <path
     d="M 113.5428,0 53.7816,16.94603 51.708,16.66246 50.2725,17.99167 c -0.7915,0.73224 -2.1315,1.63717 -2.9774,2.02039 l -1.5419,0.70892 v 0.62029 c 0,0.33956 -0.9205,1.4813 -2.0559,2.55208 -1.1353,1.07078 -2.2837,1.94951 -2.552,1.94951 -0.2683,0 -0.4963,0.24999 -0.4963,0.5494 0,0.29942 -1.276,1.73128 -2.8356,3.1901 -1.5596,1.45883 -2.8357,2.90549 -2.8357,3.20782 0,0.30233 -0.8294,1.58318 -1.8431,2.85337 -1.0138,1.27018 -2.3536,3.14966 -2.9775,4.18257 -0.6238,1.03292 -3.2566,5.59528 -5.8485,10.11971 l -4.7142,8.22336 -0.8684,5.56495 -3.9345,5.47634 -4.0762,2.14446 -1.4356,2.67613 -2.0913,0.65575 v 3.95217 l -2.7293,2.72931 -2.942,0.74436 -0.018,0.9393 c -0.014,0.51205 -0.3593,1.84997 -0.7622,2.97743 l -0.7266,2.03812 1.2761,1.75455 2.7647,0.3899 0.4254,2.17991 2.3039,1.87861 5.5472,-0.33673 1.8432,3.84584 -3.5622,3.56228 -1.0457,-0.63802 -1.8077,0.69118 v 1.4001 l 2.9065,1.32921 3.9345,8.50693 1.2405,6.1498 -0.7089,2.62297 -2.9774,2.14446 -4.4307,0.24812 -1.4001,1.31148 c -0.7683,0.72182 -1.4001,1.53165 -1.4001,1.79 0,0.25836 -1.0208,1.38942 -2.2685,2.51664 l -2.6514,2.37493 2.8963,10.3905 4.835,-1.59997 1.2229,1.8158 5.2895,-1.86581 4.0361,0.68323 v -0.97476 l 2.2701,0.57837 0.6365,-1.05383 -0.316,-0.65255 -1.1374,-0.0113 -0.045,-2.30537 6.783,1.42895 -0.079,1.17462 4.6433,0.6203 2.0043,1.98808 0.023,2.62308 2.6778,0.0273 6.7878,21.16099 c 8.8804,-3.40709 17.327,-5.72994 25.715,-7.90639 l 0.9054,-4.33654 -1.1485,-3.43397 -8.139,2.65066 -1.2194,-4.16134 -4.4177,1.3292 -2.3736,-6.22419 -1.7545,0.67346 c -1.7741,-2.57012 -4.8919,-4.8914 -8.9103,-7.04591 0.7591,-1.7891 1.6796,-2.47839 2.853,-3.44837 -0.1609,-2.03071 3.5419,-3.32167 3.3259,-5.13997 l 3.8337,-0.0312 1.0167,-2.22033 -1.4278,-5.66778 c 2.8832,-2.07151 10.072,-3.45662 15.7633,-4.96653 l -15.1962,-41.1304 6.0257,1.64822 8.5832,-3.32341 13.1272,34.19647 -1.5773,9.76525 7.5083,1.5627 2.6114,6.3771 c -1.5477,2.09714 -1.0814,4.05043 -2.2695,5.32045 0.4268,1.80819 1.2492,2.78926 2.5751,3.26686 l 11.2851,0.75259 -1.3469,-5.56495 7.7837,-5.48276 3.0614,7.62722 7.6043,-1.47099 -17.3934,-43.42903 14.8767,-6.54919 0.1314,-1.48566 -3.7823,-1.3677 -2.0735,-7.10684 -2.3079,1.28338 -2.2001,-0.89562 2.8243,-2.6031 -3.3319,-8.0107 -4.6788,2.37486 C 96.1155,57.47239 94.5637,54.2874 92.749,49.13148 l 10.0008,-4.02398 1.7546,2.99515 c 2.0671,-0.93868 4.016,-2.31767 6.2384,-2.83565 l 5.1219,11.48436 2.9065,0.35446 2.4281,6.3093 -1.0103,1.27604 1.3824,3.9699 9.7121,0.31901 0.6912,2.8002 h 0.9925 l -1.0811,-4.82059 -2.0027,-2.26852 -1.7212,-6.02393 -2.0485,-0.14754 0.4733,-11.97665 1.7014,-3.40277 -2.9952,-5.90168 0.5494,-4.96238 -0.9039,-1.66594 c -0.4962,-0.90947 -1.3827,-2.22243 -1.9849,-2.92425 -0.6023,-0.70183 -1.3971,-1.27604 -1.7545,-1.27604 h -0.6558 l -2.1799,-4.92693 -0.5494,-10.08426 -2.8357,-2.07357 0.6204,-6.11435 z"
     style="fill:#b3b3b3;fill-opacity:1"
     id="NY_23"
     inkscape:connector-curvature="0" />
</svg>
