<?xml version="1.0" encoding="UTF-8" standalone="no"?>
<svg
   xmlns:dc="http://purl.org/dc/elements/1.1/"
   xmlns:cc="http://creativecommons.org/ns#"
   xmlns:rdf="http://www.w3.org/1999/02/22-rdf-syntax-ns#"
   xmlns:svg="http://www.w3.org/2000/svg"
   xmlns="http://www.w3.org/2000/svg"
   xmlns:sodipodi="http://sodipodi.sourceforge.net/DTD/sodipodi-0.dtd"
   xmlns:inkscape="http://www.inkscape.org/namespaces/inkscape"
   version="1.0"
   width="118.5061"
   height="87.241447"
   id="svg2"
   sodipodi:docname="NY_29.svg"
   inkscape:version="0.92.2 5c3e80d, 2017-08-06">
  <metadata
     id="metadata176">
    <rdf:RDF>
      <cc:Work
         rdf:about="">
        <dc:format>image/svg+xml</dc:format>
        <dc:type
           rdf:resource="http://purl.org/dc/dcmitype/StillImage" />
      </cc:Work>
    </rdf:RDF>
  </metadata>
  <defs
     id="defs174" />
  <sodipodi:namedview
     pagecolor="#ffffff"
     bordercolor="#666666"
     borderopacity="1"
     objecttolerance="10"
     gridtolerance="10"
     guidetolerance="10"
     inkscape:pageopacity="0"
     inkscape:pageshadow="2"
     inkscape:window-width="640"
     inkscape:window-height="480"
     id="namedview172"
     showgrid="false"
     inkscape:zoom="0.12542268"
     inkscape:cx="-811.91495"
     inkscape:cy="-329.76513"
     inkscape:window-x="0"
     inkscape:window-y="0"
     inkscape:window-maximized="0"
     inkscape:current-layer="svg2" />
  <path
     d="M 7.2762,87.24145 0,55.28656 2.0185,54.97189 4.8778,58.21412 9.2231,59.61949 C 16.2556,54.69584 20.0672,53.0969 25.4892,49.8356 l 1.4795,0.58572 c 9.6262,-2.58965 17.0186,-4.19228 26.3851,-6.2105 l 0.5333,0.32965 c 0.2934,0.1813 0.5334,0.73078 0.5334,1.22107 v 0.89142 l 6.076,-1.18307 -0.9333,-3.80975 2.4378,-0.72728 -0.2078,-2.8068 7.4399,-1.40381 -1.3496,-6.11672 -5.2972,0.7027 -1.0463,-3.09899 -0.2213,-5.16708 -0.5683,-2.0584 h 1.0428 v -2.89197 c -0.5792,-1.14788 -1.1542,-2.3039 -1.8966,-3.34644 -2.1393,0.4629 -4.2029,1.44967 -6.4003,1.53331 l -0.9352,-6.07034 h -4.856 l -0.7998,-3.95329 2.5042,-0.80045 -0.093,-3.06471 1.4608,-0.14559 0.8814,-0.9773 1.6389,3.4218 7.7912,-2.22985 C 62.2326,1.58634 63.3041,0.57617 64.6317,0 h 0.417 l 1.9689,7.51038 2.5766,-0.35316 c 1.4171,-0.19423 2.8575,-0.57476 3.2009,-0.8456 0.3434,-0.27084 1.5577,-0.66044 2.6986,-0.86579 l 2.0741,-0.37336 0.217,1.43009 7.6176,-1.76049 1.4238,5.44243 -2.3436,0.67909 2.934,8.67423 2.7331,0.31168 v 0.68191 c 0,0.37506 0.7621,1.4682 1.6936,2.42923 l 1.6936,1.7473 c 0.7512,2.51839 1.0013,5.27794 2.2256,7.6184 l 8.3036,-2.11663 4.3229,15.29782 7.0578,-1.07989 1.3613,5.76325 -0.8289,1.7337 2.527,7.34916 v 1.33258 C 66.7363,74.03961 53.7566,76.74682 7.2763,87.24145 Z"
     style="opacity:1;fill:#b3b3b3;fill-opacity:1"
     id="NY_29"
     inkscape:connector-curvature="0" />
</svg>
