<?xml version="1.0" encoding="UTF-8" standalone="no"?>
<svg
   xmlns:dc="http://purl.org/dc/elements/1.1/"
   xmlns:cc="http://creativecommons.org/ns#"
   xmlns:rdf="http://www.w3.org/1999/02/22-rdf-syntax-ns#"
   xmlns:svg="http://www.w3.org/2000/svg"
   xmlns="http://www.w3.org/2000/svg"
   xmlns:sodipodi="http://sodipodi.sourceforge.net/DTD/sodipodi-0.dtd"
   xmlns:inkscape="http://www.inkscape.org/namespaces/inkscape"
   version="1.0"
   width="65.718803"
   height="35.729477"
   id="svg2"
   sodipodi:docname="NY_28.svg"
   inkscape:version="0.92.2 5c3e80d, 2017-08-06">
  <metadata
     id="metadata168">
    <rdf:RDF>
      <cc:Work
         rdf:about="">
        <dc:format>image/svg+xml</dc:format>
        <dc:type
           rdf:resource="http://purl.org/dc/dcmitype/StillImage" />
      </cc:Work>
    </rdf:RDF>
  </metadata>
  <defs
     id="defs166" />
  <sodipodi:namedview
     pagecolor="#ffffff"
     bordercolor="#666666"
     borderopacity="1"
     objecttolerance="10"
     gridtolerance="10"
     guidetolerance="10"
     inkscape:pageopacity="0"
     inkscape:pageshadow="2"
     inkscape:window-width="640"
     inkscape:window-height="480"
     id="namedview164"
     showgrid="false"
     inkscape:zoom="0.12542268"
     inkscape:cx="-802.31035"
     inkscape:cy="-387.642"
     inkscape:window-x="0"
     inkscape:window-y="0"
     inkscape:window-maximized="0"
     inkscape:current-layer="svg2" />
  <path
     d="m 14.933,35.68121 c -0.3314,0.1089 -0.7733,0.0272 -0.9821,-0.18156 l -0.3796,-0.37958 0.6307,-2.51293 -2.4834,-0.64944 -1.2107,0.67291 c -0.6659,0.3701 -1.3711,0.89307 -1.5672,1.16217 l -0.3566,0.48927 -3.2568,-1.57613 0.3723,-4.223 H 2.2081 L 2.2481,23.66233 -4e-4,17.13825 1.6414,16.2892 c 0.9031,-0.46698 2.7398,-1.58364 4.0815,-2.48147 1.3418,-0.89782 5.2469,-3.05481 8.6781,-4.79332 l 6.2384,-3.16091 4.537,-1.10428 c 2.4954,-0.60736 6.3235,-1.54331 8.5069,-2.07988 2.1835,-0.53658 5.9936,-1.32135 8.467,-1.74392 L 46.6473,0.1571 57.15,0 58.8318,1.1975 c 0.9249,0.65863 2.0596,1.1975 2.5215,1.1975 0.4619,0 1.633,0.33351 2.6025,0.74113 l 1.7626,0.74113 -0.6767,0.67669 C 64.6695,4.92613 64.1831,5.23064 63.9608,5.23064 L 57.5286,1.26074 H 54.189 L 46.7273,4.34347 38.7875,4.5127 c -6.1366,1.10408 -9.1101,1.98541 -13.732,3.44589 l -7.6651,0.82086 c 0.1738,2.28861 0.6594,4.08717 1.3232,5.93027 l -3.397,1.40705 -4.3184,-0.66576 -1.823,1.04936 -0.5606,5.40954 -1.7777,1.12134 2.7136,5.35498 3.1759,0.69755 1.4944,2.43002 1.7171,0.82621 v 2.65312 z"
     style="fill:#b3b3b3;fill-opacity:1"
     id="NY_28"
     inkscape:connector-curvature="0" />
</svg>
