<?xml version="1.0" encoding="UTF-8" standalone="no"?>
<svg
   xmlns:dc="http://purl.org/dc/elements/1.1/"
   xmlns:cc="http://creativecommons.org/ns#"
   xmlns:rdf="http://www.w3.org/1999/02/22-rdf-syntax-ns#"
   xmlns:svg="http://www.w3.org/2000/svg"
   xmlns="http://www.w3.org/2000/svg"
   xmlns:sodipodi="http://sodipodi.sourceforge.net/DTD/sodipodi-0.dtd"
   xmlns:inkscape="http://www.inkscape.org/namespaces/inkscape"
   version="1.0"
   width="24.945499"
   height="20.83436"
   id="svg2"
   sodipodi:docname="NY_3.svg"
   inkscape:version="0.92.2 5c3e80d, 2017-08-06">
  <metadata
     id="metadata184">
    <rdf:RDF>
      <cc:Work
         rdf:about="">
        <dc:format>image/svg+xml</dc:format>
        <dc:type
           rdf:resource="http://purl.org/dc/dcmitype/StillImage" />
      </cc:Work>
    </rdf:RDF>
  </metadata>
  <defs
     id="defs182" />
  <sodipodi:namedview
     pagecolor="#ffffff"
     bordercolor="#666666"
     borderopacity="1"
     objecttolerance="10"
     gridtolerance="10"
     guidetolerance="10"
     inkscape:pageopacity="0"
     inkscape:pageshadow="2"
     inkscape:window-width="640"
     inkscape:window-height="480"
     id="namedview180"
     showgrid="false"
     inkscape:zoom="0.12542268"
     inkscape:cx="-1078.6158"
     inkscape:cy="-306.10557"
     inkscape:window-x="0"
     inkscape:window-y="0"
     inkscape:window-maximized="0"
     inkscape:current-layer="svg2" />
  <path
     d="m 6.8983,20.83436 2.5085,-1.0452 1.5678,-1.14972 1.7072,-0.3484 6.5151,-4.32017 0.7316,1.0452 4.6338,-2.29944 -1.1498,-0.97553 1.533,-1.08004 -0.3135,-1.42844 -3.5189,2.4388 -1.4633,-1.84652 -2.2297,0.94068 0.1393,0.80132 -0.7316,0.55744 -1.0453,-0.48775 0.2788,2.12524 -1.1498,0.83616 -3.0659,-5.95765 c 0,0 -3.3098,-0.41808 -3.4491,-0.45292 C 8.2571,8.15262 6.8635,7.42094 6.8635,7.42094 L 9.4416,3.90209 6.8635,0 4.7383,0.97552 3.1007,1.2194 1.0801,2.16009 V 3.24013 L 0,3.86725 5.7486,7.94353 11.3579,14.38895 10.0688,15.71287 9.163,15.05091 c 0,0 -0.871,0.27872 -0.7665,0.5226 0.1045,0.24388 1.7768,2.05557 1.7768,2.05557 l -2.3343,1.742 -1.3936,0.3484 z"
     style="fill:#b3b3b3;fill-opacity:1;fill-rule:evenodd;stroke:none;stroke-width:0.1;stroke-miterlimit:4;stroke-dasharray:none;stroke-opacity:1"
     id="NY_3"
     inkscape:connector-curvature="0" />
</svg>
