<?xml version="1.0" encoding="UTF-8" standalone="no"?>
<svg
   xmlns:dc="http://purl.org/dc/elements/1.1/"
   xmlns:cc="http://creativecommons.org/ns#"
   xmlns:rdf="http://www.w3.org/1999/02/22-rdf-syntax-ns#"
   xmlns:svg="http://www.w3.org/2000/svg"
   xmlns="http://www.w3.org/2000/svg"
   xmlns:sodipodi="http://sodipodi.sourceforge.net/DTD/sodipodi-0.dtd"
   xmlns:inkscape="http://www.inkscape.org/namespaces/inkscape"
   version="1.0"
   width="62.342098"
   height="45.101212"
   id="svg2"
   sodipodi:docname="OH_16.svg"
   inkscape:version="0.92.2 5c3e80d, 2017-08-06">
  <metadata
     id="metadata64">
    <rdf:RDF>
      <cc:Work
         rdf:about="">
        <dc:format>image/svg+xml</dc:format>
        <dc:type
           rdf:resource="http://purl.org/dc/dcmitype/StillImage" />
      </cc:Work>
    </rdf:RDF>
  </metadata>
  <defs
     id="defs62" />
  <sodipodi:namedview
     pagecolor="#ffffff"
     bordercolor="#666666"
     borderopacity="1"
     objecttolerance="10"
     gridtolerance="10"
     guidetolerance="10"
     inkscape:pageopacity="0"
     inkscape:pageshadow="2"
     inkscape:window-width="640"
     inkscape:window-height="480"
     id="namedview60"
     showgrid="false"
     inkscape:zoom="0.12542268"
     inkscape:cx="-681.02155"
     inkscape:cy="-210.50905"
     inkscape:window-x="0"
     inkscape:window-y="0"
     inkscape:window-maximized="0"
     inkscape:current-layer="svg2" />
  <path
     d="m 7.3884,45.10121 -1.995,-10.271 H 3.2656 V 31.99457 L 0.8416,29.57055 C 0.4694,28.01377 0.0987,26.45181 0,24.8628 4.2355,24.11139 8.5653,23.99526 12.7967,23.21963 L 12.2168,16.74488 9.8093,16.39853 8.5409,8.641 12.8349,7.60447 12.2182,3.8042 15.9272,3.06241 18.0978,5.02675 20.0396,2.45249 C 23.0468,1.6474 26.0981,0.98337 29.0524,0 l 2.6636,13.27932 h 2.1027 l 0.3554,3.68634 c 4.014,0.06 7.6298,-0.41078 11.2008,-0.94145 l -0.6851,-4.99778 14.4068,-2.75077 3.2455,15.10097 -6.9721,1.64219 0.7094,4.53642 -8.2754,1.30507 -9.9435,3.32839 v -2.27057 l -26.7403,5.40563 0.7467,6.43385 z"
     style="fill:#b3b3b3;fill-opacity:1"
     id="OH_16"
     inkscape:connector-curvature="0" />
</svg>
