<?xml version="1.0" encoding="UTF-8" standalone="no"?>
<svg
   xmlns:dc="http://purl.org/dc/elements/1.1/"
   xmlns:cc="http://creativecommons.org/ns#"
   xmlns:rdf="http://www.w3.org/1999/02/22-rdf-syntax-ns#"
   xmlns:svg="http://www.w3.org/2000/svg"
   xmlns="http://www.w3.org/2000/svg"
   xmlns:sodipodi="http://sodipodi.sourceforge.net/DTD/sodipodi-0.dtd"
   xmlns:inkscape="http://www.inkscape.org/namespaces/inkscape"
   version="1.0"
   width="110.8205"
   height="130.86497"
   id="svg2"
   sodipodi:docname="OH_18.svg"
   inkscape:version="0.92.2 5c3e80d, 2017-08-06">
  <metadata
     id="metadata80">
    <rdf:RDF>
      <cc:Work
         rdf:about="">
        <dc:format>image/svg+xml</dc:format>
        <dc:type
           rdf:resource="http://purl.org/dc/dcmitype/StillImage" />
      </cc:Work>
    </rdf:RDF>
  </metadata>
  <defs
     id="defs78" />
  <sodipodi:namedview
     pagecolor="#ffffff"
     bordercolor="#666666"
     borderopacity="1"
     objecttolerance="10"
     gridtolerance="10"
     guidetolerance="10"
     inkscape:pageopacity="0"
     inkscape:pageshadow="2"
     inkscape:window-width="640"
     inkscape:window-height="480"
     id="namedview76"
     showgrid="false"
     inkscape:zoom="0.12542268"
     inkscape:cx="-653.59135"
     inkscape:cy="-102.21605"
     inkscape:window-x="0"
     inkscape:window-y="0"
     inkscape:window-maximized="0"
     inkscape:current-layer="svg2" />
  <path
     d="m 97.5816,0 c -4.8751,0.75282 -9.67,1.4972 -14.1555,2.75085 l 0.6204,4.66108 -8.4614,1.31781 -10.8818,3.56987 0.1038,-2.31913 -25.6107,5.23073 0.7153,6.46374 c -4.4789,1.54254 -10.6626,3.03494 -18.928,4.46614 l 2.2976,12.53383 -4.5458,0.56333 -0.02,4.3598 12.6895,-1.91406 0.7089,1.08106 5.1042,-0.12403 1.2659,9.35887 -3.18,3.80912 -5.3168,1.34693 0.7089,6.26502 19.7786,-2.34826 0.738,5.47881 4.4561,-0.65067 0.2975,5.56376 2.59,-0.66212 c 0.9049,2.14091 1.4223,6.37486 1.7723,11.51226 l -10.9172,1.34693 0.1253,-1.93181 -6.1549,0.86963 -0.1253,-3.91285 -5.2941,0.65821 0.6672,3.53066 -5.7485,0.8216 v 2.60522 c -1.7759,0.59441 -3.3787,1.04295 -4.932,0.85829 l 0.1152,6.29156 -10.9945,1.40648 -0.1949,3.68634 1.4697,0.29241 -0.1253,3.03312 c -1.6687,1.09013 -3.7876,1.73002 -6.008,2.26851 L 6.1855,99.19436 c -1.5773,0.95697 -3.0703,0.98709 -4.537,0.72666 l -1.6482,4.53703 0.2177,5.86247 c 0.6102,0.88687 0.9926,1.89801 2.7723,2.14686 l -0.083,2.50025 27.2222,-3.38503 1.3292,14.10733 2.428,-0.69122 0.4608,5.86627 7.8158,-0.60257 0.9924,-1.04568 5.2814,-0.0886 c -0.3756,-4.80369 -0.6223,-10.40211 -1.4178,-12.47683 h 5.8662 c -0.6248,-3.20615 -1.0562,-7.0227 -1.3469,-11.34258 l 1.7191,-0.0354 -0.3899,-6.07894 1.9672,-1.27604 0.089,1.13426 1.4532,0.10633 -0.1595,-5.05096 4.537,-0.72666 v -6.07888 c 4.5023,-0.3058 7.3324,-0.82432 10.2083,-1.34693 l 0.035,-2.55208 5.3523,-0.0354 -0.071,-2.64072 -1.347,-1.24059 0.4254,-3.22555 4.7497,-0.44304 c 0.3788,-1.61201 0.071,-3.12346 -0.319,-4.62567 l -3.0306,0.0886 c 0.063,-1.83194 0,-3.29003 -0.7089,-5.12191 l -2.4457,0.67347 c -0.4825,-2.23948 -0.9973,-4.52694 -0.9394,-5.90166 l 5.3878,-0.95703 -0.7266,-3.72178 c 1.9096,0.01 3.8869,-0.0614 5.2459,-0.60257 l 0.018,-1.87862 3.1192,-0.72666 v -1.50641 c 2.0781,-0.92583 4.0985,-1.48542 5.9548,-1.08111 l 0.7622,-1.02792 -2.18,-13.04396 c 3.4776,-0.82943 6.7362,-1.1337 9.9957,-1.41783 l 0.018,2.28627 h 2.3394 l 0.7621,5.1573 4.7142,-0.72661 0.7621,2.37485 h 1.985 c -0.049,-1.88337 -0.264,-3.91075 -0.8685,-6.23841 h -2.2507 C 105.9688,31.06 104.3137,24.32659 103.892,18.11271 l -3.6509,0.47851 -0.035,-8.75505 2.0204,-0.51396 -0.7089,-4.5193 -2.9774,0.0532 z"
     style="fill:#b3b3b3;fill-opacity:1"
     id="OH_18"
     inkscape:connector-curvature="0" />
</svg>
