<?xml version="1.0" encoding="UTF-8" standalone="no"?>
<svg
   xmlns:dc="http://purl.org/dc/elements/1.1/"
   xmlns:cc="http://creativecommons.org/ns#"
   xmlns:rdf="http://www.w3.org/1999/02/22-rdf-syntax-ns#"
   xmlns:svg="http://www.w3.org/2000/svg"
   xmlns="http://www.w3.org/2000/svg"
   xmlns:sodipodi="http://sodipodi.sourceforge.net/DTD/sodipodi-0.dtd"
   xmlns:inkscape="http://www.inkscape.org/namespaces/inkscape"
   version="1.0"
   width="91.210518"
   height="30.674431"
   id="svg2"
   sodipodi:docname="OH_9.svg"
   inkscape:version="0.92.2 5c3e80d, 2017-08-06">
  <metadata
     id="metadata144">
    <rdf:RDF>
      <cc:Work
         rdf:about="">
        <dc:format>image/svg+xml</dc:format>
        <dc:type
           rdf:resource="http://purl.org/dc/dcmitype/StillImage" />
      </cc:Work>
    </rdf:RDF>
  </metadata>
  <defs
     id="defs142" />
  <sodipodi:namedview
     pagecolor="#ffffff"
     bordercolor="#666666"
     borderopacity="1"
     objecttolerance="10"
     gridtolerance="10"
     guidetolerance="10"
     inkscape:pageopacity="0"
     inkscape:pageshadow="2"
     inkscape:window-width="640"
     inkscape:window-height="480"
     id="namedview140"
     showgrid="false"
     inkscape:zoom="0.12542268"
     inkscape:cx="-605.55344"
     inkscape:cy="-241.72917"
     inkscape:window-x="0"
     inkscape:window-y="0"
     inkscape:window-maximized="0"
     inkscape:current-layer="svg2" />
  <path
     d="m 77.164019,30.67443 -3.0131,-13.31841 -22.609,3.67993 -1.9925,-8.58795 -4.8434,1.05848 v -1.58194 l -17.2329,2.95005 -0.9152,-0.67664 v -1.70628 l -3.7442,-0.34321 -0.9042,-6.46233 -8.4381,1.42429 -0.4726,2.99752 -4.3055004,3.48729 -3.7453,0.0307 -1.1698,-3.35552 -3.14930003,0.62987 c -0.1951,-2.38099 -0.7054,-4.76516 -0.6192,-7.15728 C 5.9653186,2.51411 11.872519,0.80962 17.909219,0 l 0.7089,0.0148 v 1.08286 l 4.1504,0.77863 2.0521,-1.28155 5.333,2.8356 6.16,0.72399 1.5023,1.25322 c 0.8263,0.68926 2.3191,1.67193 3.3173,2.1837 l 1.8151,0.93048 h 2.8109 l 0.8912,-0.8912 c 0.4902,-0.49016 0.9206,-1.19198 0.9566,-1.55961 0.036,-0.36762 0.02,-1.11501 -0.036,-1.66087 -0.055,-0.54587 0.053,-0.99248 0.242,-0.99248 0.1886,0 0.8992,0.51827 1.5791,1.15171 l 1.2362,1.15172 3.1514,-0.69217 v 2.39424 l 0.9925,0.36706 c 0.5459,0.20189 2.0475,1.1641 3.3371,2.13825 l 2.3445,1.77118 4.5677,1.50747 2.686,-0.67414 3.7228,-3.32371 4.1839,-0.97101 4.8206,0.34878 v 2.89665 l 3.977,-0.74609 2.3938,4.05707 2.0781,-0.65958 2.3265,2.32653 v 2.71429 l -4.3427,0.9745 0.6446,3.87687 -4.1344,0.93597 0.5928,4.42017 z"
     style="fill:#b3b3b3;fill-opacity:1"
     id="OH_9"
     inkscape:connector-curvature="0" />
</svg>
