<?xml version="1.0" encoding="UTF-8" standalone="no"?>
<svg
   xmlns:dc="http://purl.org/dc/elements/1.1/"
   xmlns:cc="http://creativecommons.org/ns#"
   xmlns:rdf="http://www.w3.org/1999/02/22-rdf-syntax-ns#"
   xmlns:svg="http://www.w3.org/2000/svg"
   xmlns="http://www.w3.org/2000/svg"
   xmlns:sodipodi="http://sodipodi.sourceforge.net/DTD/sodipodi-0.dtd"
   xmlns:inkscape="http://www.inkscape.org/namespaces/inkscape"
   version="1.0"
   width="126.1006"
   height="210.07521"
   id="svg2"
   sodipodi:docname="OK_2.svg"
   inkscape:version="0.92.2 5c3e80d, 2017-08-06">
  <metadata
     id="metadata16">
    <rdf:RDF>
      <cc:Work
         rdf:about="">
        <dc:format>image/svg+xml</dc:format>
        <dc:type
           rdf:resource="http://purl.org/dc/dcmitype/StillImage" />
      </cc:Work>
    </rdf:RDF>
  </metadata>
  <defs
     id="defs14" />
  <sodipodi:namedview
     pagecolor="#ffffff"
     bordercolor="#666666"
     borderopacity="1"
     objecttolerance="10"
     gridtolerance="10"
     guidetolerance="10"
     inkscape:pageopacity="0"
     inkscape:pageshadow="2"
     inkscape:window-width="640"
     inkscape:window-height="480"
     id="namedview12"
     showgrid="false"
     inkscape:zoom="0.12542268"
     inkscape:cx="-21.880854"
     inkscape:cy="292.04317"
     inkscape:window-x="0"
     inkscape:window-y="0"
     inkscape:window-maximized="0"
     inkscape:current-layer="svg2" />
  <path
     d="m 30.6249,210.07521 -0.047,-1.5567 -3.8509,-4.3593 -3.4593,0.7598 -1.3315,-2.9225 c -1.8963,0.5633 -3.5538,0.092 -5.0162,-1.2245 l 1.6572,-1.8947 -0.2671,-5.4032 -1.8632,-2.8201 h 2.2685 v -2.0417 l 1.2781,-1.2781 c -2.2617,-3.9605 -3.9128,-5.3256 -5.6154,-6.9094 L 2e-4,180.91601 v -9.5444 h 2.2685 v -10.6074 c 6.4511,-0.4128 12.6866,-0.61 18.8501,-0.7352 l -0.8015,-10.691 5.2037,-0.7804 V 133.4409 l -1.6846,1.11622 -2.1362,-1.14322 -0.7162,0.71623 -0.7065,-11.94078 2.6914,-0.6742 -0.9525,-21.60177 h -1.7581 l -1.4404,1.96987 -2.2083,-1.99851 -1.4535,1.37161 1.9341,2.51686 -4.0461,-0.11473 V 89.13794 c 6.9946,0.0258 13.9892,-0.18579 20.9838,-0.73818 V 75.07394 l 26.3715,-0.96491 0.5671,3.93996 2.8049,1.39479 c 1.1839,-1.35271 3.4046,-2.30668 6.4684,-2.93636 l 1.5593,0.59832 2.7785,-1.53868 4.6229,-0.0402 c 0.7331,-0.88756 1.681,-1.64065 2.412,-2.47296 l 0.1084,-1.69192 c -1.3763,-0.0601 -2.1611,-0.71186 -2.8215,-1.4878 l 0.4809,-4.4683 c 2.1429,-1.88978 2.5565,-4.31171 2.8536,-6.76947 l -17.2674,0.16015 -1.5098,-3.1192 c -1.1766,0.22016 -2.1773,-0.26378 -2.9205,-1.77784 l -4.2112,0.59736 -2.6831,-3.62912 0.044,-9.65219 1.6092,-7.68499 4.9291,-3.07593 -2.6605,-3.11411 -6.5004,-0.0196 -1.244,-20.98376 h 1.2224 V 2.93441 C 69.6463,1.91017 88.2431,0.88333 107.2704,3e-5 l 1.9784,31.60234 13.2267,68.02748 3.6252,109.16329 -0.6972,0.6971 -3.7161,-3.4731 -3.1574,0.3677 -4.904,-2.7532 -6.2975,-0.6661 -3.4559,-3.3412 -2.3312,-3.1611 -3.9552,-0.7051 -0.9325,-1.3512 -3.536,-2.7071 -5.5446,-1.3666 c -1.0526,0.9778 -2.1677,1.6046 -1.9366,3.7235 l -1.1342,1.5442 -2.8357,-0.5422 v 1.3381 l -9.5372,-0.7142 -0.6927,-2.7601 h -3.2423 l -1.412,1.7014 h -1.9907 l -1.2516,1.5081 -3.4244,-0.5026 0.4888,3.4106 -4.1751,0.4309 -4.2018,-2.2778 c -2.4858,1.9948 -5.2932,3.2262 -8.9308,2.4856 l -0.116,1.1038 -2.2326,-0.7289 -1.0866,4.8144 -2.6373,1.0661 c -1.5381,-0.8255 -3.0762,-0.844 -4.6143,-0.8184 l -0.3491,3.6019 z"
     style="fill:#b3b3b3"
     id="OK_2"
     inkscape:connector-curvature="0" />
</svg>
