<?xml version="1.0" encoding="UTF-8" standalone="no"?>
<svg
   xmlns:dc="http://purl.org/dc/elements/1.1/"
   xmlns:cc="http://creativecommons.org/ns#"
   xmlns:rdf="http://www.w3.org/1999/02/22-rdf-syntax-ns#"
   xmlns:svg="http://www.w3.org/2000/svg"
   xmlns="http://www.w3.org/2000/svg"
   xmlns:sodipodi="http://sodipodi.sourceforge.net/DTD/sodipodi-0.dtd"
   xmlns:inkscape="http://www.inkscape.org/namespaces/inkscape"
   version="1.0"
   width="142.91589"
   height="109.57988"
   id="svg2"
   sodipodi:docname="OK_4.svg"
   inkscape:version="0.92.2 5c3e80d, 2017-08-06">
  <metadata
     id="metadata32">
    <rdf:RDF>
      <cc:Work
         rdf:about="">
        <dc:format>image/svg+xml</dc:format>
        <dc:type
           rdf:resource="http://purl.org/dc/dcmitype/StillImage" />
      </cc:Work>
    </rdf:RDF>
  </metadata>
  <defs
     id="defs30" />
  <sodipodi:namedview
     pagecolor="#ffffff"
     bordercolor="#666666"
     borderopacity="1"
     objecttolerance="10"
     gridtolerance="10"
     guidetolerance="10"
     inkscape:pageopacity="0"
     inkscape:pageshadow="2"
     inkscape:window-width="640"
     inkscape:window-height="480"
     id="namedview28"
     showgrid="false"
     inkscape:zoom="0.12542268"
     inkscape:cx="96.081346"
     inkscape:cy="291.38897"
     inkscape:window-x="0"
     inkscape:window-y="0"
     inkscape:window-maximized="0"
     inkscape:current-layer="svg2" />
  <path
     d="m 97.5101,0 -1.2583,0.44304 c -0.6914,0.24359 -2.2792,0.45274 -3.5268,0.4608 l -2.2686,0.0177 0.1939,6.25497 -12.9542,0.26701 V 1.63045 L 75.9238,1.9849 C 74.949,2.17988 73.4177,2.33936 72.521,2.33936 h -1.6305 v 7.9398 h -1.6482 l -1.152,-1.98495 -0.035,1.41782 H 67.24 c -0.4456,0 -1.2111,-0.39597 -1.7014,-0.88614 L 64.6525,7.93975 v 0.88614 c 0,0.49017 -0.1355,0.88614 -0.3013,0.88614 -0.166,0 -1.2196,-0.38287 -2.3394,-0.85069 C 60.892,8.39346 59.3794,8.01065 58.6445,8.01065 h -1.3469 l 0.7443,32.87568 -37.0583,0.018 v 16.7303 l -8.9677,-0.3722 -0.5672,-2.1799 H 7.3016 l 0.7444,1.2051 -1.9672,2.1799 -2.6762,-0.6734 v 2.9597 H 2.357 l -2.3566,7.1379 0.797,1.0855 c 0.511,0.7798 0.7702,1.4178 0.5848,1.4178 l 1.4887,1.8254 -0.4076,1.2051 c -0.2233,0.669 -0.3655,1.6057 -0.319,2.0736 0.047,0.4679 0.1964,1.4887 0.3367,2.2685 0.1404,0.7798 0.2752,1.7688 0.3013,2.1977 l 0.053,0.7798 7.7248,0.5157 1.9341,-1.2955 1.2583,0.3899 c 0.699,0.2118 1.7864,0.8014 2.4103,1.3115 0.6238,0.51 1.7031,1.2455 2.3926,1.6305 l 1.2406,0.6911 1.6659,-0.638 3.0838,2.0204 3.4737,-0.2658 1.8431,-1.666 h 3.5091 l 5.565,6.3448 0.8152,-0.7976 c 0.4432,-0.4384 1.2441,-0.963 1.79,-1.1697 l 0.9925,-0.3721 v -2.1268 l 2.1267,-1.9318 1.5065,0.3722 c 0.8193,0.2057 1.6184,0.6087 1.7899,0.8862 l 1.15,0.7455 5.8075,0.8667 2.4754,-2.9005 0.9881,0.083 1.2406,2.304 -1.6836,3.3673 1.5442,3.8952 7.4412,0.2014 -1.1519,7.246 h 0.8152 c 0.4485,0 1.5591,0.4277 2.4812,0.957 l 1.6836,0.9747 3.0306,-2.0026 0.3722,-0.957 c 0.1997,-0.5277 0.6276,-1.2302 0.957,-1.5596 0.3294,-0.3294 1.0226,-0.7607 1.5419,-0.9571 l 0.9571,-0.3544 1.5241,-3.1901 2.2508,-0.3013 3.6863,2.2685 v 3.4205 h 0.3899 c 0.2118,0 1.2126,-0.3045 2.2331,-0.6735 l 1.8609,-0.6734 2.8888,1.3292 v 4.5547 h 3.8636 l 1.2406,-3.5445 3.8635,0.6203 0.6735,-2.6762 2.4103,-0.7621 2.0204,2.1091 0.7443,3.6154 -2.2862,1.2052 0.8862,2.1267 c 0.4836,1.1677 1.1422,2.45 1.4709,2.8533 l 0.6026,0.7444 1.8077,-0.3367 0.3545,-5.4409 1.6305,-0.6381 v -1.5772 h 1.6837 l 1.7899,-2.7471 -0.7443,-3.9345 1.4532,-0.8861 0.4254,1.276 2.8888,-1.3114 1.5773,2.1444 v 1.0634 c 0,0.5847 0.2636,1.5619 0.5849,2.1622 l 0.5848,1.081 2.0559,-1.276 3.0128,0.7444 v 2.2508 h 0.6026 c 0.3325,0 1.0689,-0.2488 1.6305,-0.5495 l 1.0102,-0.5493 0.7444,-4.5725 h 2.1799 l 0.3544,0.5671 c 0.1928,0.3119 0.7334,0.5671 1.2052,0.5671 l 1.367,0.9972 -0.127,-4.6053 -2.0957,-2.9063 0.4658,-0.8582 h 1.8609 l -0.098,-1.6244 1.2322,-1.034 -1.4002,-2.2154 c -0.7728,-1.2166 -1.9162,-2.6731 -2.5343,-3.2256 l -1.1343,-0.9924 -14.9048,0.514 v -10.7046 h 2.2685 v -10.5982 c 6.5231,-0.4143 11.5921,-0.704 18.8216,-0.7444 l -0.7975,-10.6336 5.2282,-0.7798 V 34.5949 l -1.1166,0.69116 -2.3039,-1.24059 -1.9673,3.45597 h -1.4355 l -0.9791,-3.03726 -3.7212,1.28761 -2.3722,-2.29177 -1.7191,0.61426 1.1354,1.14089 c 0.4814,0.53186 0.8684,1.10658 0.8684,1.29379 0,0.1871 -0.3961,0.75037 -0.8862,1.2406 -0.4901,0.49017 -1.1392,0.88614 -1.4355,0.88614 h -0.5317 l -1.276,-2.78251 -2.3926,-0.3367 0.319,-1.89637 -1.1343,-0.70891 -3.0483,2.0027 -1.6659,-2.51663 h -2.1268 v 1.68363 l -3.1441,1.73627 -6.3198,-1.5076 c -0.3954,-9.8745 -0.3754,-17.67167 -1.4355,-27.37995 l -5.1513,-0.0875 z"
     style="fill:#b3b3b3"
     id="OK_4"
     inkscape:connector-curvature="0" />
</svg>
