<?xml version="1.0" encoding="UTF-8" standalone="no"?>
<svg
   xmlns:dc="http://purl.org/dc/elements/1.1/"
   xmlns:cc="http://creativecommons.org/ns#"
   xmlns:rdf="http://www.w3.org/1999/02/22-rdf-syntax-ns#"
   xmlns:svg="http://www.w3.org/2000/svg"
   xmlns="http://www.w3.org/2000/svg"
   xmlns:sodipodi="http://sodipodi.sourceforge.net/DTD/sodipodi-0.dtd"
   xmlns:inkscape="http://www.inkscape.org/namespaces/inkscape"
   version="1.0"
   width="62.115799"
   height="52.875278"
   id="svg2"
   sodipodi:docname="OK_5.svg"
   inkscape:version="0.92.2 5c3e80d, 2017-08-06">
  <metadata
     id="metadata40">
    <rdf:RDF>
      <cc:Work
         rdf:about="">
        <dc:format>image/svg+xml</dc:format>
        <dc:type
           rdf:resource="http://purl.org/dc/dcmitype/StillImage" />
      </cc:Work>
    </rdf:RDF>
  </metadata>
  <defs
     id="defs38" />
  <sodipodi:namedview
     pagecolor="#ffffff"
     bordercolor="#666666"
     borderopacity="1"
     objecttolerance="10"
     gridtolerance="10"
     guidetolerance="10"
     inkscape:pageopacity="0"
     inkscape:pageshadow="2"
     inkscape:window-width="640"
     inkscape:window-height="480"
     id="namedview36"
     showgrid="false"
     inkscape:zoom="0.12542268"
     inkscape:cx="17.969446"
     inkscape:cy="219.87897"
     inkscape:window-x="0"
     inkscape:window-y="0"
     inkscape:window-maximized="0"
     inkscape:current-layer="svg2" />
  <path
     d="m 48.946,52.87528 -1.6987,-2.83565 h -2.2572 l 0.5831,-1.51967 -1.6771,-1.39185 -2.9701,1.9461 -1.7072,-2.43735 h -2.6241 l -0.095,2.08862 -2.6984,1.33054 -5.6893,-1.18944 C 27.6296,39.61643 27.6747,30.36622 26.6648,21.11607 h -5.46 l -1.67,-7.03931 -2.2773,0.85381 -5.531,0.13849 0.051,6.33057 L 0.2786,21.72148 10e-5,0.71804 25.4999,0 26.2393,16.16611 52.3272,15.33935 v 3.98079 h 5.1042 c 0.052,-0.77379 -0.4615,-1.38657 -0.8568,-2.01052 l -0.8567,-1.22324 0.7067,-0.64421 1.0119,0.85954 c 0.3855,0.46448 1.0251,0.84446 1.4215,0.84446 h 0.7205 l 0.3265,-0.85069 c 0.1795,-0.46788 0.5567,-0.8507 0.8381,-0.8507 h 0.5116 l 0.8612,20.7002 -2.4312,0.36444 0.7012,12.11239 -1.0975,3.00578 -0.8997,0.10487 -0.9573,-2.82708 -3.9907,1.32577 -2.3719,-2.39407 -2.4548,0.87854 2.051,2.57845 c -0.477,0.66853 -1.0125,1.19737 -1.7189,1.58121 z"
     style="fill:#b3b3b3"
     id="OK_5"
     inkscape:connector-curvature="0" />
</svg>
