<?xml version="1.0" encoding="UTF-8" standalone="no"?>
<svg
   xmlns:dc="http://purl.org/dc/elements/1.1/"
   xmlns:cc="http://creativecommons.org/ns#"
   xmlns:rdf="http://www.w3.org/1999/02/22-rdf-syntax-ns#"
   xmlns:svg="http://www.w3.org/2000/svg"
   xmlns="http://www.w3.org/2000/svg"
   xmlns:sodipodi="http://sodipodi.sourceforge.net/DTD/sodipodi-0.dtd"
   xmlns:inkscape="http://www.inkscape.org/namespaces/inkscape"
   version="1.0"
   width="345.41684"
   height="268.31674"
   id="svg2"
   sodipodi:docname="OR_2.svg"
   inkscape:version="0.92.2 5c3e80d, 2017-08-06">
  <metadata
     id="metadata16">
    <rdf:RDF>
      <cc:Work
         rdf:about="">
        <dc:format>image/svg+xml</dc:format>
        <dc:type
           rdf:resource="http://purl.org/dc/dcmitype/StillImage" />
      </cc:Work>
    </rdf:RDF>
  </metadata>
  <defs
     id="defs14" />
  <sodipodi:namedview
     pagecolor="#ffffff"
     bordercolor="#666666"
     borderopacity="1"
     objecttolerance="10"
     gridtolerance="10"
     guidetolerance="10"
     inkscape:pageopacity="0"
     inkscape:pageshadow="2"
     inkscape:window-width="640"
     inkscape:window-height="480"
     id="namedview12"
     showgrid="false"
     inkscape:zoom="0.12542268"
     inkscape:cx="1194.6457"
     inkscape:cy="-293.8407"
     inkscape:window-x="0"
     inkscape:window-y="0"
     inkscape:window-maximized="0"
     inkscape:current-layer="svg2" />
  <path
     d="m 301.51956,129.55346 -3.3162,-3.15465 2.23852,-1.8091 -1.58459,-2.86745 1.88406,-4.90013 -0.58711,-2.01402 3.01787,-1.39739 7.70303,-13.57835 4.83832,-1.47099 6.45109,-7.07139 0.0686,-5.9485 4.28617,-3.37912 0.10997,-1.39465 2.43984,-1.35331 4.53248,-9.29352 -0.0931,-2.61118 c 2.71432,-3.3062 5.52104,-6.56986 7.65486,-10.29556 l 1.11654,-2.19762 3.13693,-2.32168 -0.0354,-2.90654 -1.66594,-2.19762 v -4.53703 l -2.46347,-2.62297 h -2.03811 l -1.75456,-3.36733 -2.53435,-0.0354 -0.86842,-3.11921 -2.23307,-2.83565 -1.18743,-5.72445 C 300.71053,19.45793 273.48625,14.52356 243.77679,8.40063 l -7.81574,2.99515 c -2.05679,-0.36284 -3.35723,-0.72569 -4.87377,-1.73683 l -11.04128,-0.2304 -2.17939,-1.49897 -2.12725,-0.0252 -2.67613,2.85337 -14.03644,-0.44307 c -2.9263,0.99575 -5.6768,1.46979 -8.63099,1.5596 l -2.1799,1.96723 -13.0577,-0.48025 -3.37131,-4.42896 c -4.89149,1.23469 -12.65507,2.34341 -14.67446,3.70406 -1.54467,-1.76236 -4.22306,-2.13906 -7.35495,-2.3394 l -4.32244,2.69698 -1.6576,-2.74875 0.62985,-2.07583 -5.1052,-3.94488 -4.20134,0.0504 -3.36732,-2.6089 -8.91456,-0.0354 L 119.98323,9e-5 h -2.83565 l -2.92425,2.5698 -1.34693,6.75237 0.72663,0.56713 c 0.40119,0.31192 1.14866,1.58797 1.66594,2.83565 0.51734,1.24768 1.09155,2.97034 1.27604,3.82812 l 0.33673,1.5596 2.62297,1.57733 -0.19495,6.38019 -0.80005,1.16317 0.0557,2.7004 -3.49139,0.76208 1.36465,4.99782 1.34318,0.66996 -0.28764,3.27915 c -3.80945,-0.34974 -3.93884,2.02419 -7.31168,1.75762 l -0.44306,4.50159 h 1.45326 c 0.0806,1.31661 0.63949,2.40453 1.40624,3.09741 -1.55668,1.5171 -2.26092,2.99262 -3.0899,4.84239 h -2.85337 l -0.0416,1.12542 1.74297,0.70002 v 1.61277 l -1.61277,0.6203 -3.77495,14.08961 -1.84317,0.40762 -2.552084,13.89465 1.470994,0.92159 -0.141784,6.02574 -1.02792,0.33673 0.44307,2.51664 -2.28624,3.68633 -1.71911,0.29404 v 2.25804 c -2.48408,2.40033 -2.94534,3.96568 -3.50911,5.49406 l -2.28624,-0.60257 -3.33752,2.83402 -0.34881,5.10578 -1.29377,1.29376 c 0.23308,3.6396 -1.47447,3.92722 -1.41782,7.3904 -3.8332,0.84988 -5.19652,2.17022 -7.08911,2.02039 l -2.37485,2.37485 1.15198,1.16971 c -0.24973,1.39176 -1.08754,2.07785 -1.80772,2.58752 l 3.03059,3.59772 0.1905,2.15511 1.0501,1.05272 0.31901,7.51445 -2.24435,1.60471 -5.51823,8.55044 -8.41831,-1.68366 -0.74436,3.9699 -4.59262,-1.20515 -4.25104,2.83564 -3.98763,-0.90386 -2.71158,2.07356 -3.34579,-0.15573 c -3.31694,3.0024 -4.00481,2.89273 -5.22585,2.81674 l -2.20381,2.37226 -3.6386,-1.02454 -4.3012,0.0143 -1.70138,0.31901 -5.6004,-1.41782 -4.66109,2.05584 -2.16218,8.68416 -2.64069,2.48119 -8.294256,0.37218 -1.34693,2.92426 0.72664,3.84584 h 1.54188 l 1.240586,2.32168 -2.410296,3.89901 0.60258,0.99248 6.993416,-0.89751 -4.70175,17.06895 c 96.009004,24.52737 163.690724,39.0746 277.341234,60.08363 l 20.53769,-112.67537 c 2.32666,-2.05722 4.10348,-3.89449 3.84584,-7.65624 l 2.48935,-0.43988 0.5844,-2.68296 c -1.19635,-1.0867 -1.84285,-2.50331 -1.9395,-4.24983 h 2.36303 l 2.77884,-4.4575 -3.0006,-1.78318 0.055,-3.03015 -4.88329,-1.30466 0.0431,-1.59323 -0.74617,-0.12996 z"
     style="fill:#b3b3b3;fill-opacity:1"
     id="OR_2"
     inkscape:connector-curvature="0" />
</svg>
