<?xml version="1.0" encoding="UTF-8" standalone="no"?>
<svg
   xmlns:dc="http://purl.org/dc/elements/1.1/"
   xmlns:cc="http://creativecommons.org/ns#"
   xmlns:rdf="http://www.w3.org/1999/02/22-rdf-syntax-ns#"
   xmlns:svg="http://www.w3.org/2000/svg"
   xmlns="http://www.w3.org/2000/svg"
   xmlns:sodipodi="http://sodipodi.sourceforge.net/DTD/sodipodi-0.dtd"
   xmlns:inkscape="http://www.inkscape.org/namespaces/inkscape"
   version="1.0"
   width="149.01372"
   height="167.50496"
   id="svg2"
   sodipodi:docname="OR_4.svg"
   inkscape:version="0.92.2 5c3e80d, 2017-08-06">
  <metadata
     id="metadata32">
    <rdf:RDF>
      <cc:Work
         rdf:about="">
        <dc:format>image/svg+xml</dc:format>
        <dc:type
           rdf:resource="http://purl.org/dc/dcmitype/StillImage" />
      </cc:Work>
    </rdf:RDF>
  </metadata>
  <defs
     id="defs30" />
  <sodipodi:namedview
     pagecolor="#ffffff"
     bordercolor="#666666"
     borderopacity="1"
     objecttolerance="10"
     gridtolerance="10"
     guidetolerance="10"
     inkscape:pageopacity="0"
     inkscape:pageshadow="2"
     inkscape:window-width="640"
     inkscape:window-height="480"
     id="namedview28"
     showgrid="false"
     inkscape:zoom="0.12542268"
     inkscape:cx="1238.7583"
     inkscape:cy="-354.01418"
     inkscape:window-x="0"
     inkscape:window-y="0"
     inkscape:window-maximized="0"
     inkscape:current-layer="svg2" />
  <path
     d="m 73.567871,0 -4.69654,17.26198 -5.40544,-1.32921 -0.85069,5.26367 -4.99783,-0.70891 2.12674,2.28623 -1.38238,1.4001 -13.983266,-2.85336 c -0.04384,0.0604 -1.1619,3.42404 -2.49891,7.47901 -1.33695,4.05497 -3.83374,10.81797 -5.5295,15.02891 -1.69583,4.21093 -4.56623,10.73755 -6.3802,14.49722 l -3.29644,6.82327 -6.3093,8.45376 -3.15466,1.79 -0.65574,3.88129 -3.50911,6.91188 c -1.92313,3.79604 -3.4913795,7.05742 -3.4913795,7.26634 l -6.805547,8.77277 v 6.25614 h 1.081089 l 1.15198,4.14713 -0.549406,0.88614 1.15198,0.70891 v 6.45109 l -1.169703,1.70138 c -0.635071,0.93576 -1.487804,2.50713 -1.914059,3.49139 -0.426311,0.98426 -1.112112,3.28113 -1.50643602,5.10416 -0.394381,1.82303 -0.771013,4.20737 -0.850693,5.29911 -0.07974,1.09172 -0.14995,2.49535 -0.14178199715,3.1192 0.008199997,0.62384 0.0802799972,3.17591 0.15950499715,5.67129 0.07928,2.49537 0.18395,4.95697 0.230396,5.47634 0.04645,0.51936 0.58766,1.54019 1.20514802,2.26851 0.61749,0.72832 1.574521,1.90804 2.126733,2.60525 l 1.010198,1.25832 42.9261325,10.83565 4.13417,-16.3965 -5.961196,0.86431 -1.22287,-1.48871 2.39257,-3.88129 -0.70891,-1.82544 h -2.00267 l -0.72663,-4.55476 1.73683,-3.36732 8.506926,-0.35446 2.07356,-2.21535 2.09519,-8.87255 5.5256,-2.25735 5.2109,1.56073 1.34653,-0.40875 c 1.50323,-0.0611 3.83552,0.0648 5.19277,0.26585 l 2.94813,0.88613 2.40117,-2.39349 1.60941,-0.0813 3.47703,-2.87856 3.38598,0.2013 2.43006,-2.13195 4.25347,0.95702 4.253459,-2.7293 4.35981,1.1697 0.86841,-4.21802 8.38287,1.77228 5.35228,-8.27654 2.32168,-1.70138 -0.17722,-6.52198 -1.22288,-1.31149 -0.31901,-2.28624 -3.13693,-3.7395 c 1.34471,-0.62364 1.72061,-1.45084 1.96723,-2.48119 l -1.27604,-1.25831 2.99515,-2.88882 c 1.32815,0.53992 1.39269,-0.49771 6.78782,-1.66594 -0.28803,-3.30683 1.58622,-3.4586 1.27604,-7.40812 l 1.29376,-1.29376 0.19495,-5.05099 3.95218,-3.17237 1.94951,0.51396 c 0.55624,-2.28515 1.76617,-3.79305 3.42049,-4.9801 l 0.19495,-2.67614 1.89634,-0.28357 1.77228,-2.78247 -0.28357,-3.36733 0.95703,-0.28356 v -5.54723 l -1.52416,-0.88614 2.58753,-14.37317 1.9495,-0.62029 2.46347,-9.81842 -9.87159,-2.71158 c -1.86686,-0.94868 -2.94929,-2.06139 -3.65089,-3.33188 l -3.98762,1.11653 -2.33941,-4.5902 -9.03861,-2.16218 -4.12941,-2.88881 h -2.97742 l -4.2003,-2.37485 c -4.20436,0.99551 -6.836,2.10987 -10.633659,4.04079 l -0.44307,-2.07356 -3.72178,-3.03059 -1.66594,1.66594 0.65574,1.45326 c 0.36438,0.79971 0.87242,1.45328 1.13426,1.45327 h 0.47851 v 2.26852 l -5.10416,0.28356 V 9.28678 l -5.95485,0.69119 -0.79752,1.20515 1.36465,0.90386 -2.23307,1.71911 c -1.40546,-1.91064 -2.33127,-3.32577 -2.51663,-5.72445 1.78633,-1.21154 2.84995,-3.15421 3.86356,-5.42317 z"
     style="fill:#b3b3b3;fill-opacity:1"
     id="OR_4"
     inkscape:connector-curvature="0" />
</svg>
