<?xml version="1.0" encoding="UTF-8" standalone="no"?>
<svg
   xmlns:dc="http://purl.org/dc/elements/1.1/"
   xmlns:cc="http://creativecommons.org/ns#"
   xmlns:rdf="http://www.w3.org/1999/02/22-rdf-syntax-ns#"
   xmlns:svg="http://www.w3.org/2000/svg"
   xmlns="http://www.w3.org/2000/svg"
   xmlns:sodipodi="http://sodipodi.sourceforge.net/DTD/sodipodi-0.dtd"
   xmlns:inkscape="http://www.inkscape.org/namespaces/inkscape"
   version="1.0"
   width="115.8184"
   height="100.96664"
   id="svg2"
   sodipodi:docname="PA_10.svg"
   inkscape:version="0.92.2 5c3e80d, 2017-08-06">
  <metadata
     id="metadata16">
    <rdf:RDF>
      <cc:Work
         rdf:about="">
        <dc:format>image/svg+xml</dc:format>
        <dc:type
           rdf:resource="http://purl.org/dc/dcmitype/StillImage" />
      </cc:Work>
    </rdf:RDF>
  </metadata>
  <defs
     id="defs14" />
  <sodipodi:namedview
     pagecolor="#ffffff"
     bordercolor="#666666"
     borderopacity="1"
     objecttolerance="10"
     gridtolerance="10"
     guidetolerance="10"
     inkscape:pageopacity="0"
     inkscape:pageshadow="2"
     inkscape:window-width="640"
     inkscape:window-height="480"
     id="namedview12"
     showgrid="false"
     inkscape:zoom="0.12542268"
     inkscape:cx="-907.73585"
     inkscape:cy="-267.8531"
     inkscape:window-x="0"
     inkscape:window-y="0"
     inkscape:window-maximized="0"
     inkscape:current-layer="svg2" />
  <path
     d="m 75.9776,0 -68.7289,17.59872 4.661,13.87693 c -1.385,1.10371 -2.9382,1.9702 -4.4484,2.90653 0,1.2496 0.2917,2.49508 0.5849,3.72178 l 5.5649,-1.34693 1.5951,3.79268 2.5875,0.0177 3.7218,6.20297 -0.3899,1.59505 -2.2331,-2.39258 -2.2153,0.51397 -0.7976,-2.23307 -6.1852,1.25831 -1.5596,4.67881 -4.6788,0.92159 -0.2836,1.61277 -1.471,0.60258 v 2.87108 L 0,56.85464 v 1.52416 l 7.6031,1.79 0.7621,2.3394 2.5166,-0.35445 1.6659,2.03811 -1.3646,0.86842 0.1064,1.47099 1.4887,-1.1697 2.9419,-1.86089 1.8609,-0.6203 v -0.51396 c 0,-0.28773 0.5104,-1.04211 1.1343,-1.66594 l 1.1342,-1.13426 h 1.7014 v 2.14446 l 2.8357,1.86089 v 2.76475 l -3.4028,1.77228 v 1.09881 H 18.219 l -0.3544,4.16485 -1.985,0.60257 c -1.0917,0.33824 -2.5591,1.00606 -3.261,1.47099 l -1.276,0.83297 v 0.65575 C 9.8147,82.14124 6.9847,86.8924 4.5902,91.73305 l 2.2508,8.64871 8.7551,-0.69118 2.2685,-1.32921 3.6863,0.1595 2.0027,1.82545 3.1015,-1.08109 v 1.70139 h 2.3039 l 0.6558,-1.70139 h 0.762 c 0.419,0 0.9558,-0.31902 1.2052,-0.70891 0.2494,-0.3899 1.644,-1.25435 3.0838,-1.93178 L 37.271,95.38394 49.2516,85.33513 C 48.889,84.24802 48.2019,83.28587 47.5502,82.32226 l -4.2889,1.34693 c -0.9365,-2.0917 -1.4114,-2.83681 -2.5344,-4.18257 L 40.6206,75.55216 37.5014,73.72672 37.1469,71.19236 34.2759,70.85563 32.22,65.078 34.0455,64.12097 c 2.3357,-3.55471 3.9397,-7.55766 5.9371,-11.30713 l 5.175,-0.65574 0.833,6.36248 3.775,-2.87109 0.5671,0.56713 3.6686,-4.62565 2.3571,0.74436 4.0408,-4.5902 3.6864,0.60258 v 2.71158 h 1.1342 v -3.7395 l 1.1875,-1.18743 -1.7723,-1.45327 3.4559,-3.54455 3.1724,-6.23842 2.747,0.56713 0.2836,-0.63802 c 0,-0.22118 -0.387,-0.83276 -0.8684,-1.36465 l -0.8861,-0.97475 1.6659,-0.63802 4.023,4.9092 -4.5016,3.40278 c 0.6186,0.82259 1.4364,1.39136 2.3572,1.89633 l -1.3647,1.6305 h -2.1267 l 0.018,0.70891 c 0.01,0.3899 0.3654,1.15551 0.7798,1.70138 0.4144,0.54587 1.0108,0.99247 1.3292,0.99248 h 0.5672 l 1.2937,5.10416 h 2.2331 l 0.7798,-1.84317 c 0.4237,-1.01374 1.3081,-2.42129 1.8077,-2.83564 l 17.8468,-6.43337 v 6.57515 h 3.7927 l 1.0279,1.13426 c 0.5646,0.62384 1.3066,1.12538 1.6483,1.11653 l 0.6202,-0.0177 3.8636,-6.3802 0.2836,-6.71693 0.7266,-1.80772 c 0.3989,-0.98843 1.0627,-2.00137 1.471,-2.2508 l 0.7444,-0.44306 v -1.50644 l 2.3926,-0.63802 -1.5419,-1.64822 -1.471,-1.06336 -6.8942,0.30128 -1.6482,-1.63049 -2.5875,0.65574 -3.5623,-3.95218 c -9e-4,-0.20995 -0.7794,-0.90033 -1.7191,-1.52416 L 94.6931,20.1508 95.3843,16.97842 94.1082,15.45426 93.2398,10.50961 90.7409,9.32218 V 7.88664 L 89.2699,6.41565 85.0696,5.91941 83.6872,6.82327 81.3124,4.55476 80.3199,2.28624 78.2641,1.8609 c 0,-0.23689 -0.5072,-0.76031 -1.1343,-1.15198 z"
     style="fill:#b3b3b3;fill-opacity:1"
     id="PA_10"
     inkscape:connector-curvature="0" />
</svg>
