<?xml version="1.0" encoding="UTF-8" standalone="no"?>
<svg
   xmlns:dc="http://purl.org/dc/elements/1.1/"
   xmlns:cc="http://creativecommons.org/ns#"
   xmlns:rdf="http://www.w3.org/1999/02/22-rdf-syntax-ns#"
   xmlns:svg="http://www.w3.org/2000/svg"
   xmlns="http://www.w3.org/2000/svg"
   xmlns:sodipodi="http://sodipodi.sourceforge.net/DTD/sodipodi-0.dtd"
   xmlns:inkscape="http://www.inkscape.org/namespaces/inkscape"
   version="1.0"
   width="83.544693"
   height="78.169243"
   id="svg2"
   sodipodi:docname="PA_12.svg"
   inkscape:version="0.92.2 5c3e80d, 2017-08-06">
  <metadata
     id="metadata32">
    <rdf:RDF>
      <cc:Work
         rdf:about="">
        <dc:format>image/svg+xml</dc:format>
        <dc:type
           rdf:resource="http://purl.org/dc/dcmitype/StillImage" />
      </cc:Work>
    </rdf:RDF>
  </metadata>
  <defs
     id="defs30" />
  <sodipodi:namedview
     pagecolor="#ffffff"
     bordercolor="#666666"
     borderopacity="1"
     objecttolerance="10"
     gridtolerance="10"
     guidetolerance="10"
     inkscape:pageopacity="0"
     inkscape:pageshadow="2"
     inkscape:window-width="640"
     inkscape:window-height="480"
     id="namedview28"
     showgrid="false"
     inkscape:zoom="0.12542268"
     inkscape:cx="-779.99595"
     inkscape:cy="-176.34005"
     inkscape:window-x="0"
     inkscape:window-y="0"
     inkscape:window-maximized="0"
     inkscape:current-layer="svg2" />
  <path
     d="M 3.0481,78.16924 0,64.34871 1.6256,64.30631 C 6.5483,59.71625 6.1681,61.69825 8.6433,58.9665 l 5.8235,-0.24585 2.2101,-2.00015 -2.7722,-2.38466 1.2247,-5.97861 -2.233,-1.64728 -4.2646,0.81093 C 8.0582,48.77974 7.1209,50.17731 5.8641,50.42532 5.9101,48.44224 5.5245,47.47903 4.7088,46.03988 L 5.307,45.07185 h 2.5419 l 1.2478,-1.36111 1.2238,2.37344 3.8598,-1.74897 1.9163,1.8709 2.8917,-0.0993 0.9318,-2.28955 -2.2956,-3.91756 5.934,0.87156 -2.4388,0.95026 v 0.91603 l 2.2685,0.86524 -0.2779,3.93865 2.6235,0.42075 0.3264,-4.03501 2.9486,-2.44167 0.08,-4.03229 2.7698,-1.46977 c 0.7384,2.34607 2.2926,3.06046 3.4389,4.59069 0,0.27855 -0.4004,0.6601 -0.8898,0.8479 l -0.3685,0.16015 c -0.044,2.16788 -0.2928,3.7466 -0.677,5.21194 l 2.7786,0.19623 1.8477,1.59828 0.9573,-1.38192 1.5361,0.45665 0.112,-1.31046 -0.9485,-1.08248 1.8424,-2.66167 -1.0687,-1.69038 -0.017,-4.11458 1.4216,-1.40603 1.8925,0.78736 2.2892,-1.85073 0.3852,1.05011 c -0.752,1.1494 -1.6627,2.36678 -1.4177,3.58416 l 0.8506,4.5596 6.1129,3.04672 0.7876,1.36684 2.452,-0.64119 2.3866,-5.54763 1.7972,0.52625 c -0.278,-2.93277 0.2826,-1.10647 2.4975,-9.68213 l -9.0618,-3.90352 -1.618,3.43427 h -5.6429 l 0.7437,-3.76377 -1.7061,-0.25845 c -1.3709,1.37134 -1.6087,2.38009 -2.0278,5.15648 l -0.6001,0.40792 -1.5821,-2.1093 c 0.9845,-2.11742 1.2437,-4.64276 1.7297,-6.98681 l -4.6614,-1.29753 -0.641,-0.87483 c -0.3525,-0.48117 -1.4627,-1.2995 -2.4671,-1.81852 l -1.8263,-0.94367 -1.8381,2.8052 -3.1921,-2.36 -1.242,0.76765 v -2.26852 c 1.1553,-0.70573 2.0841,-2.13665 2.7862,-3.88485 l -1.1448,-4.1461 2.4057,-3.37856 2.3273,-0.02 -1.3142,-3.57221 c 1.2529,-0.9948 2.1886,-0.90181 5.2545,-0.9448 l -0.78,5.67129 h 3.4768 l 0.9962,-3.95828 7.0781,-0.0684 -6.4216,14.78462 0.3916,2.56957 c 1.3426,-0.26207 2.5893,0.91357 3.884,1.37036 l 1.3758,-1.14187 0.7691,1.24441 1.4679,-1.21828 1.3973,2.08438 0.079,-0.94112 3.7074,3.59341 1.3772,-3.02263 c 1.3223,-0.12794 2.405,0.83439 3.6794,1.77276 0.592,-0.80723 1.474,-1.25423 2.3502,-0.93305 l 1.3597,-2.93186 2.2819,0.35434 1.5309,-7.75057 -5.0715,-2.97216 h -4.4429 c -0.7321,0.9025 -1.525,1.89135 -2.5122,2.47184 l -1.6425,-2.41427 1.9084,-4.00206 1.5034,1.24773 1.7014,-1.41202 c -0.2513,-1.44451 0.3107,-2.41459 1.0761,-3.52023 2.3493,1.94803 4.0208,2.70999 6.2346,3.6075 L 67.409,5.69926 68.0795,0.92501 69.278,3.9999999e-5 71.5947,0.19335 V 2.5372 l -2.7123,0.63281 1.2882,2.30029 3.9619,-0.80866 2.1687,0.62923 -0.1695,7.36453 6.6902,1.28916 c 0.8401,2.17866 0.7491,3.76914 0.6825,5.80076 l -1.8931,2.09183 -0.5024,6.05773 -5.2413,1.58094 -0.9369,4.82059 -2.7612,0.44113 -1.705,3.61094 1.1081,2.0704 -2.9052,1.90353 -1.7376,-0.6668 -6.1876,4.03755 -0.3675,2.52004 -1.8002,1.5148 1.1978,2.43729 -0.9035,1.95569 -5.4039,-1.96 -0.017,-2.3613 c -2.3386,-0.69496 -4.8733,-1.1938 -7.3099,-1.32504 l -1.6106,2.29943 -4.4328,-1.59511 0.6864,2.98202 -2.1725,3.68639 2.2105,0.76194 -0.024,1.86075 -1.1938,-0.11473 -1.1447,2.87137 -1.7566,0.0129 -2.5804,5.62898 -2.5071,-3.09675 -3.4028,2.83899 3.6864,3.39874 v 2.06923 z"
     style="fill:#b3b3b3;fill-opacity:1"
     id="PA_12"
     inkscape:connector-curvature="0" />
</svg>
