<?xml version="1.0" encoding="UTF-8" standalone="no"?>
<svg
   xmlns:dc="http://purl.org/dc/elements/1.1/"
   xmlns:cc="http://creativecommons.org/ns#"
   xmlns:rdf="http://www.w3.org/1999/02/22-rdf-syntax-ns#"
   xmlns:svg="http://www.w3.org/2000/svg"
   xmlns="http://www.w3.org/2000/svg"
   xmlns:sodipodi="http://sodipodi.sourceforge.net/DTD/sodipodi-0.dtd"
   xmlns:inkscape="http://www.inkscape.org/namespaces/inkscape"
   version="1.0"
   width="38.635601"
   height="29.393496"
   id="svg2"
   sodipodi:docname="PA_8.svg"
   inkscape:version="0.92.2 5c3e80d, 2017-08-06">
  <metadata
     id="metadata144">
    <rdf:RDF>
      <cc:Work
         rdf:about="">
        <dc:format>image/svg+xml</dc:format>
        <dc:type
           rdf:resource="http://purl.org/dc/dcmitype/StillImage" />
      </cc:Work>
    </rdf:RDF>
  </metadata>
  <defs
     id="defs142" />
  <sodipodi:namedview
     pagecolor="#ffffff"
     bordercolor="#666666"
     borderopacity="1"
     objecttolerance="10"
     gridtolerance="10"
     guidetolerance="10"
     inkscape:pageopacity="0"
     inkscape:pageshadow="2"
     inkscape:window-width="640"
     inkscape:window-height="480"
     id="namedview140"
     showgrid="false"
     inkscape:zoom="0.12542268"
     inkscape:cx="-1003.687"
     inkscape:cy="-257.17485"
     inkscape:window-x="0"
     inkscape:window-y="0"
     inkscape:window-maximized="0"
     inkscape:current-layer="svg2" />
  <path
     d="M 8.9677,0 C 4.552,5.98123 3.1931,8.02272 0,14.07188 l 26.1943,11.1299 -0.5849,1.29376 -0.3013,-0.10633 -0.3544,0.69118 1.0456,0.42535 0.6735,-0.65574 -0.9393,-0.31901 0.5494,-1.29376 3.4382,1.50643 -0.5317,1.02792 c -0.4923,0.98674 -0.717,1.71238 -0.4962,1.61277 0.2208,-0.0996 1.3685,-0.81525 2.5521,-1.59504 l 2.1622,-1.41783 0.6557,-3.1192 h 1.9318 l 2.6406,-2.8002 -1.081,-0.40763 C 36.962,19.82292 36.1367,19.1753 35.7291,18.60891 l -0.7443,-1.02792 h -2.1977 l -4.3952,-3.9699 H 26.6551 L 23.27,9.39307 19.7609,9.65891 17.6342,7.53218 16.8366,2.26851 13.5756,0.56713 12.8667,1.70139 H 10.102 V 0 Z"
     style="fill:#b3b3b3;fill-opacity:1"
     id="PA_8"
     inkscape:connector-curvature="0" />
</svg>
