<?xml version="1.0" encoding="UTF-8" standalone="no"?>
<svg
   xmlns:dc="http://purl.org/dc/elements/1.1/"
   xmlns:cc="http://creativecommons.org/ns#"
   xmlns:rdf="http://www.w3.org/1999/02/22-rdf-syntax-ns#"
   xmlns:svg="http://www.w3.org/2000/svg"
   xmlns="http://www.w3.org/2000/svg"
   xmlns:sodipodi="http://sodipodi.sourceforge.net/DTD/sodipodi-0.dtd"
   xmlns:inkscape="http://www.inkscape.org/namespaces/inkscape"
   version="1.0"
   width="78.284515"
   height="135.57596"
   id="svg2"
   sodipodi:docname="SC_2.svg"
   inkscape:version="0.92.2 5c3e80d, 2017-08-06">
  <metadata
     id="metadata16">
    <rdf:RDF>
      <cc:Work
         rdf:about="">
        <dc:format>image/svg+xml</dc:format>
        <dc:type
           rdf:resource="http://purl.org/dc/dcmitype/StillImage" />
      </cc:Work>
    </rdf:RDF>
  </metadata>
  <defs
     id="defs14" />
  <sodipodi:namedview
     pagecolor="#ffffff"
     bordercolor="#666666"
     borderopacity="1"
     objecttolerance="10"
     gridtolerance="10"
     guidetolerance="10"
     inkscape:pageopacity="0"
     inkscape:pageshadow="2"
     inkscape:window-width="640"
     inkscape:window-height="480"
     id="namedview12"
     showgrid="false"
     inkscape:zoom="0.12542268"
     inkscape:cx="-801.66204"
     inkscape:cy="297.50957"
     inkscape:window-x="0"
     inkscape:window-y="0"
     inkscape:window-maximized="0"
     inkscape:current-layer="svg2" />
  <path
     d="m 58.435015,134.50136 -0.8507,1.0746 -4.9548,-2.3915 -2.0264,1.2655 c -1.5455,-0.027 -2.7994,-0.3874 -3.5387,-1.3357 l -0.6725,-4.2054 -2.5744,-2.4186 1.238,-3.2799 -1.9146,-4.0151 -1.4362,-0.048 c -2.0502,-2.3117 -2.5669,-4.1121 -2.5521,-5.7354 l -4.4869,-3.1595 -1.2847,-2.5127 -2.9306,0.5602 -4.4318,-2.31 0.7106,-3.9517 -2.3219,-0.991 -1.4202,-8.901 -2.0595,-0.059 c -0.3428,-2.2627 -1.7962,-3.5258 -3.2666,-4.7736 l 0.6955,-4.181 c -3.1461,-1.9949 -6.119,-1.7401 -7.8806,-4.0379 l -6.5828003,-1.3523 -2.8196,-2.5953 10.8402003,-15.4697 -2.9336003,-1.05271 -3.5639,0.67131 -4.1308,-2.03151 -1.26460002,-2.77553 c -0.1169,-2.96058 0.2514,-6.21216 1.28760002,-9.86452 l 2.5752,-3.40964 1.7501,-7.21705 -1.5805,-2.55792 -1.5805,-1.00047 2.8336,-13.45882 4.5672,0.6146 -3.6366,-3.75366 1.1285,-2.96806 h 1.5377 L 10.760615,6.33635 h 1.5981 c 1.6947,2.70293 4.1682,0.30103 4.1757,2.26851 h 2.2016 V 6.41279 c 5.4334,-1.96464 10.0449,-4.66474 15.7811,-6.41309 l -1.0983,4.88831 9.486,5.97964 0.8041,2.3411 -8.8473,3.33591 c -0.3505,0 -1.0992,0.51042 -1.6638,1.13426 l -1.0265,1.13426 -1.7932,0.0433 -1.7724,-1.68704 0.067,-1.89149 c 0.7145,0.0939 1.561,-1.5178 2.5047,-3.3722 l -2.096,-2.13881 -4.4521,0.93928 -1.3187,3.30585 1.8949,4.14746 1.5595,0.0433 c 3.872,5.19161 0.3431,2.63817 4.9385,8.16087 l 5.4051,2.0665 c 1.0762,-0.91092 2.132,-0.18182 4.0286,0.82716 l 2.9174,0.29269 -4.1473,9.24136 2.0987,4.16494 -1.0599,2.74485 -1.7563,-0.11048 -0.6265,1.97395 -3.0304,1.38073 -9.1411,1.04164 -1.492,2.00322 c 2.138,14.30895 2.9782,15.12015 2.7368,19.08945 l 5.711,4.9364 3.61,1.5575 8.7102,8.6146 2.3457,0.7728 c 2.3619,3.1078 4.6374,6.2156 5.4852,8.1554 l 5.1955,1.2442 1.4361,-1.1192 c 2.5364,1.6149 3.6452,3.1 5.1434,4.9746 l 2.5803,0.2533 c 4.0472,1.4646 2.081,1.7611 6.4309,4.2639 l 0.029,1.8092 0.9925,0.8524 c 0.5458,0.4688 1.4391,1.0107 1.9849,1.2043 l 0.9925,0.352 v 1.351 c 0,0.743 -0.2801,2.1547 -0.6226,3.137 -0.3424,0.9823 -0.789,1.7901 -0.9925,1.7951 -0.2034,0 -1.2339,0.7706 -2.2899,1.7014 -1.0559,0.9307 -2.151,1.6923 -2.4332,1.6923 -0.2823,0 -1.2686,0.5584 -2.1917,1.2409 l -1.6784,1.2409 v 0.9976 c 0,0.5487 -0.628,2.1788 -1.3956,3.6224 l -1.3956,2.6247 -1.5709,1.2334 c -0.8639,0.6783 -1.7576,1.1727 -1.9859,1.0986 -0.2284,-0.074 -0.8714,0.5121 -1.4289,1.3026 -0.5575,0.7906 -1.3964,1.921 -1.8643,2.5121 z"
     style="fill:#b3b3b3"
     id="SC_2"
     inkscape:connector-curvature="0" />
</svg>
