<?xml version="1.0" encoding="UTF-8" standalone="no"?>
<svg
   xmlns:dc="http://purl.org/dc/elements/1.1/"
   xmlns:cc="http://creativecommons.org/ns#"
   xmlns:rdf="http://www.w3.org/1999/02/22-rdf-syntax-ns#"
   xmlns:svg="http://www.w3.org/2000/svg"
   xmlns="http://www.w3.org/2000/svg"
   xmlns:sodipodi="http://sodipodi.sourceforge.net/DTD/sodipodi-0.dtd"
   xmlns:inkscape="http://www.inkscape.org/namespaces/inkscape"
   version="1.0"
   width="148.7258"
   height="69.631844"
   id="svg2"
   sodipodi:docname="SC_5.svg"
   inkscape:version="0.92.2 5c3e80d, 2017-08-06">
  <metadata
     id="metadata40">
    <rdf:RDF>
      <cc:Work
         rdf:about="">
        <dc:format>image/svg+xml</dc:format>
        <dc:type
           rdf:resource="http://purl.org/dc/dcmitype/StillImage" />
      </cc:Work>
    </rdf:RDF>
  </metadata>
  <defs
     id="defs38" />
  <sodipodi:namedview
     pagecolor="#ffffff"
     bordercolor="#666666"
     borderopacity="1"
     objecttolerance="10"
     gridtolerance="10"
     guidetolerance="10"
     inkscape:pageopacity="0"
     inkscape:pageshadow="2"
     inkscape:window-width="640"
     inkscape:window-height="480"
     id="namedview36"
     showgrid="false"
     inkscape:zoom="0.12542268"
     inkscape:cx="-774.00505"
     inkscape:cy="179.90961"
     inkscape:window-x="0"
     inkscape:window-y="0"
     inkscape:window-maximized="0"
     inkscape:current-layer="svg2" />
  <path
     d="m 17.8592,64.78277 -1.8969,1.71665 h -4.6099 l -0.6853,1.78566 -2.9096,-2.09282 c 0.9282,-2.20772 1.6014,-4.38992 1.205,-6.46515 l 4.9982,-5.36635 c 1.1477,-6.2421 1.201,-2.21441 4.9554,-10.96288 l 4.1829,2.22723 1.1822,2.66034 2.4877,-3.87167 3.2809,-1.14373 -1.1345,-8.63283 -2.4175,-2.2523 -0.6756,-3.37816 -1.5472,0.59368 v -1.66578 h 1.1342 C 24.845,24.51925 23.8296,24.76311 23.115,20.5456 L 16.6187,20.75822 15.1145,21.90688 14.3502,20.70445 8.6789,19.50719 0,5.92406 39.5231,0 l 1.7744,1.77444 -0.9328,2.30152 1.6514,2.38687 4.8881,-4.79734 9.13,8.88487 c -0.4994,2.35795 0.1355,4.81044 0.7255,7.25919 l 55.8942,-10.90124 36.0719,24.09503 -0.9588,2.4838 -3.2391,-1.54843 -2.7214,2.71376 -8.5103,-1.1372 -2.7318,0.94489 -5.4267,6.21675 -9.3991,0.50225 c -0.6029,2.56807 -2.3414,3.57467 -5.0828,3.20224 -2.6193,3.17155 -5.2824,6.30749 -7.8643,9.50955 -1.6198,-0.36001 -2.0631,-1.54565 -4.4197,-1.82037 l -5.1786,6.48903 h -1.8624 c -1.1423,2.56065 -1.3187,5.12123 -1.2689,7.68188 l -3.5984,2.1307 -2.7704,-1.78226 -1.9813,0.61919 c -1.0407,-0.94546 -1.8692,-2.49724 -1.9807,-6.09743 l -2.3437,-2.55208 c -1.571,-0.18278 -4.429,1.24326 -7.5895,3.04724 l -8.151,-5.29346 1.3225,-5.29415 c -4.0603,0.46108 -11.429,4.53136 -17.1435,6.69677 v 2.09923 l -1.2403,-0.0592 c -0.7354,-2.7301 -2.3734,1.01107 -4.0907,-2.33073 h -2.3905 l -2.0018,4.53703 h -1.5083 l -1.2586,3.61034 3.0342,3.16701 -4.097,-0.52453 -0.6922,1.11985 -2.3715,0.29678 c -3.5727,-1.82695 -7.1268,-3.67256 -11.35,-4.84907 z"
     style="fill:#b3b3b3"
     id="SC_5"
     inkscape:connector-curvature="0" />
</svg>
