<?xml version="1.0" encoding="UTF-8" standalone="no"?>
<svg
   xmlns:dc="http://purl.org/dc/elements/1.1/"
   xmlns:cc="http://creativecommons.org/ns#"
   xmlns:rdf="http://www.w3.org/1999/02/22-rdf-syntax-ns#"
   xmlns:svg="http://www.w3.org/2000/svg"
   xmlns="http://www.w3.org/2000/svg"
   xmlns:sodipodi="http://sodipodi.sourceforge.net/DTD/sodipodi-0.dtd"
   xmlns:inkscape="http://www.inkscape.org/namespaces/inkscape"
   version="1.0"
   width="100.2223"
   height="123.66952"
   id="svg2"
   sodipodi:docname="SC_6.svg"
   inkscape:version="0.92.2 5c3e80d, 2017-08-06">
  <metadata
     id="metadata48">
    <rdf:RDF>
      <cc:Work
         rdf:about="">
        <dc:format>image/svg+xml</dc:format>
        <dc:type
           rdf:resource="http://purl.org/dc/dcmitype/StillImage" />
      </cc:Work>
    </rdf:RDF>
  </metadata>
  <defs
     id="defs46" />
  <sodipodi:namedview
     pagecolor="#ffffff"
     bordercolor="#666666"
     borderopacity="1"
     objecttolerance="10"
     gridtolerance="10"
     guidetolerance="10"
     inkscape:pageopacity="0"
     inkscape:pageshadow="2"
     inkscape:window-width="640"
     inkscape:window-height="480"
     id="namedview44"
     showgrid="false"
     inkscape:zoom="0.12542268"
     inkscape:cx="-825.43135"
     inkscape:cy="266.45307"
     inkscape:window-x="0"
     inkscape:window-y="0"
     inkscape:window-maximized="0"
     inkscape:current-layer="svg2" />
  <path
     d="M 93.2572,0 90.3507,2.58752 82.34,1.54185 l -3.0838,0.7798 -5.1927,6.09664 -9.34,0.7798 c -0.6669,2.12945 -2.0835,3.56588 -5.3877,3.26099 l -7.8157,9.39307 c -2.027,-0.57983 -2.4857,-1.50199 -4.3598,-1.9672 l -5.2991,6.73465 h -1.471 c -0.9731,1.79496 -1.4363,4.14775 -1.1875,7.26634 l -4.218,2.48119 -2.8179,-1.80773 -2.0913,0.70891 C 28.4757,33.10364 27.5754,30.90636 27.807,28.64 l -1.8255,-2.0204 c -0.959,-0.40379 -3.7957,1.06467 -6.646,2.55208 l 1.2229,3.43822 -9.5171,3.65089 C 9.9289,36.71149 9.1835,37.64175 8.4006,38.5293 H 6.6815 L 4.6079,36.65069 V 33.99228 C 5.5359,34.35399 6.19,32.31374 6.9296,30.9794 L 5.3345,29.3666 1.1165,30.16416 0,33.14158 l 1.7545,3.68634 1.4356,0.0177 c 3.8326,4.94293 1.0665,3.90191 5.1041,8.31201 l 4.8915,1.89631 c 1.4018,-0.79608 3.0298,0.21778 4.6434,1.11656 l 2.8223,0.20491 -3.9211,9.59576 2.0912,4.23577 -1.5108,3.05937 -1.5596,-0.082 -0.5096,1.73684 -3.3141,1.71908 -9.2158,1.06336 -1.1388,1.51753 c 1.6885,10.35666 3.231,16.38796 2.7163,18.79926 l 5.3877,4.7851 3.757,1.4823 8.6133,8.7323 2.304,0.7443 c 3.0232,3.4138 4.4368,5.8032 5.7953,8.1576 l 4.608,1.2406 1.5418,-1.2761 c 1.4923,0.4502 3.2937,2.7236 5.3928,5.1461 3.8522,-0.5749 6.1684,2.9945 9.1222,4.4773 l 0.3012,-0.443 c 0.1605,-0.2475 0.8455,-0.6213 1.5242,-0.833 l 1.2229,-0.3899 1.0279,1.8255 1.471,-1.7723 h 2.4103 l 5.4586,-5.6713 h 1.6305 v -0.957 l -5.7973,-3.1695 0.4304,-5.41 -1.3469,-1.6128 0.878,-3.1111 c 2.0601,-0.1043 3.0501,-0.7192 3.9553,-1.5933 l -2.8321,-3.0064 -2.1815,0.1449 -3.3142,-3.3142 c 0.8566,-1.4554 -0.8647,-3.5704 -3.3063,-5.8696 l 0.6895,-4.7978 -2.2926,-2.0578 c 3.804,-7.84214 5.0675,-9.32365 7.0539,-12.0335 l 4.6965,-1.43557 c 0.5348,0.19509 1.3527,0.86197 4.8987,6.0757 l 0.043,2.60823 5.7988,7.83364 v 6.8056 l -4.1612,1.4322 -0.021,2.2683 c 2.3474,1.0244 4.0932,2.8913 5.1394,4.9906 1.1182,-1.9519 1.7034,-3.9032 1.4071,-5.459 l 2.4491,-1.1408 -0.085,-2.3186 2.8357,-3.1756 -0.17,-2.0457 c 3.361,-2.8446 1.4529,-3.9044 5.6851,-11.33819 l 2.8415,-1.83182 1.8854,0.55124 0.9802,-4.12155 3.7641,-1.52773 1.2869,-5.84494 c -2.2542,-0.66847 -1.46,-2.75545 -4.5548,-4.11168 v -2.19763 l 3.5446,-4.94462 -0.7266,-1.91406 2.5166,-12.49458 2.3749,-0.93928 -4.5371,-4.30666 -1.1165,-5.51176 -3.5268,-1.13425 C 90.692,22.56675 90.0622,21.76239 89.3057,21.33818 l -0.089,-2.23307 1.4887,-0.3899 -0.1949,-1.93181 2.2862,-2.07354 -0.638,-2.3926 C 94.2646,9.46931 92.8218,8.7617 96.3413,1.32914 Z"
     style="fill:#b3b3b3"
     id="SC_6"
     inkscape:connector-curvature="0" />
</svg>
