<?xml version="1.0" encoding="UTF-8" standalone="no"?>
<svg
   xmlns:dc="http://purl.org/dc/elements/1.1/"
   xmlns:cc="http://creativecommons.org/ns#"
   xmlns:rdf="http://www.w3.org/1999/02/22-rdf-syntax-ns#"
   xmlns:svg="http://www.w3.org/2000/svg"
   xmlns="http://www.w3.org/2000/svg"
   xmlns:sodipodi="http://sodipodi.sourceforge.net/DTD/sodipodi-0.dtd"
   xmlns:inkscape="http://www.inkscape.org/namespaces/inkscape"
   version="1.0"
   width="97.351196"
   height="114.34732"
   id="svg2"
   sodipodi:docname="TN_3.svg"
   inkscape:version="0.92.2 5c3e80d, 2017-08-06">
  <metadata
     id="metadata24">
    <rdf:RDF>
      <cc:Work
         rdf:about="">
        <dc:format>image/svg+xml</dc:format>
        <dc:type
           rdf:resource="http://purl.org/dc/dcmitype/StillImage" />
      </cc:Work>
    </rdf:RDF>
  </metadata>
  <defs
     id="defs22" />
  <sodipodi:namedview
     pagecolor="#ffffff"
     bordercolor="#666666"
     borderopacity="1"
     objecttolerance="10"
     gridtolerance="10"
     guidetolerance="10"
     inkscape:pageopacity="0"
     inkscape:pageshadow="2"
     inkscape:window-width="640"
     inkscape:window-height="480"
     id="namedview20"
     showgrid="false"
     inkscape:zoom="0.12542268"
     inkscape:cx="-598.29625"
     inkscape:cy="158.00738"
     inkscape:window-x="0"
     inkscape:window-y="0"
     inkscape:window-maximized="0"
     inkscape:current-layer="svg2" />
  <path
     d="M 81.2412,0 70.9974,1.59505 70.2176,2.85339 56.004,4.85604 c 0.44,3.75575 3.8261,6.68922 5.6713,9.81841 l -0.4431,1.6128 -2.0027,-0.40765 0.1064,7.26634 -3.6155,1.77227 c 0.091,0.87276 0.07,1.95773 -0.8684,2.97743 l -7.3195,-0.3367 0.6026,4.60792 C 46.6292,32.02411 45.3707,31.48681 44.307,30.60725 l -4.2535,0.54938 v 1.57736 l -2.4812,2.78244 c 2.628,2.4644 6.3526,3.86822 7.6562,7.47901 l -4.5015,5.37003 c 0.8443,1.2985 1.7516,2.58157 1.595,4.02304 l -3.1192,2.71161 v 2.92423 c -1.9689,1.66884 -3.4707,3.58516 -4.9978,5.9903 l -2.0204,-0.53168 -0.638,1.66594 C 29.4322,63.76443 27.5922,62.38138 26.212,62.17148 l 0.036,-2.21532 c -1.5563,-0.47264 -2.1824,-1.12614 -3.0483,-1.73683 -1.4983,1.93969 -3.0034,3.9306 -4.5016,4.00535 -2.0647,4.70042 -4.7272,9.40685 -7.674,14.10732 l 0.7089,2.21532 -1.8609,1.87862 1.7369,1.93181 -2.0382,2.49888 -0.6026,-0.60258 c -2.719,10.81209 -7.7061,20.90329 -7.9929,22.64971 l 2.3571,0.62032 -0.7798,3.1901 -0.7266,0.56713 c -0.4054,0.31311 -0.9296,1.14254 -1.152,1.84317 L 5e-4,114.34732 c 18.3268,-2.63618 36.6493,-5.74773 54.9761,-8.96772 l -0.8684,-13.18574 -2.1091,0.53168 -1.2583,-1.52416 -6.2384,-1.80772 c -1.8237,1.17543 -3.924,2.2502 -8.6487,2.4103 l -1.2938,1.57735 -3.1192,-1.50646 0.638,-1.06337 c -2.5154,-0.51121 -4.9514,-1.6593 -7.3194,-3.34958 l 8.8404,-19.33818 c 1.2214,-3.9e-4 2.967,-1.26764 5.0276,-3.29598 l -0.039,-1.9845 3.9178,-4.52534 1.8065,-0.81406 V 54.5736 l 1.691,-0.65639 -0.016,-3.31391 2.3323,-0.71951 c 0.5479,-0.49584 1.2265,-3.67341 2.0525,-5.36175 l 1.9003,-1.83171 2.2212,-0.0526 3.4048,-3.56497 -2.4813,-1.33695 5.9326,-8.81499 2.4665,1.22976 c 0.4753,-0.72723 4.7114,-1.18309 8.1698,-1.62017 l 3.8674,3.63643 -1.5419,0.53168 0.4963,1.32918 9.4285,4.28891 2.7647,2.42805 4.8206,-1.29379 0.6912,0.93933 3.6863,0.17723 v -5.79537 l 1.152,-0.37215 c -1.7547,-1.00257 -4.692,-1.56284 -6.6815,-2.4635 l -0.4962,1.36468 h -4.1826 v -2.76475 l -0.957,-0.21267 0.1241,-6.07894 2.109,-1.98495 -0.7975,-0.95703 3.0128,-3.79267 4.0763,0.40765 0.3721,-1.73683 c -0.9291,-1.14623 -0.9185,-2.292 -0.9925,-3.43822 L 90.9535,10.5805 86.6114,9.51713 C 86.7383,6.94498 85.5709,4.59253 84.1125,2.02037 Z"
     style="fill:#b3b3b3;fill-opacity:1"
     id="TN_3"
     inkscape:connector-curvature="0" />
</svg>
