<?xml version="1.0" encoding="UTF-8" standalone="no"?>
<svg
   xmlns:dc="http://purl.org/dc/elements/1.1/"
   xmlns:cc="http://creativecommons.org/ns#"
   xmlns:rdf="http://www.w3.org/1999/02/22-rdf-syntax-ns#"
   xmlns:svg="http://www.w3.org/2000/svg"
   xmlns="http://www.w3.org/2000/svg"
   xmlns:sodipodi="http://sodipodi.sourceforge.net/DTD/sodipodi-0.dtd"
   xmlns:inkscape="http://www.inkscape.org/namespaces/inkscape"
   version="1.0"
   width="181.76511"
   height="123.89466"
   id="svg2"
   sodipodi:docname="TN_4.svg"
   inkscape:version="0.92.2 5c3e80d, 2017-08-06">
  <metadata
     id="metadata32">
    <rdf:RDF>
      <cc:Work
         rdf:about="">
        <dc:format>image/svg+xml</dc:format>
        <dc:type
           rdf:resource="http://purl.org/dc/dcmitype/StillImage" />
      </cc:Work>
    </rdf:RDF>
  </metadata>
  <defs
     id="defs30" />
  <sodipodi:namedview
     pagecolor="#ffffff"
     bordercolor="#666666"
     borderopacity="1"
     objecttolerance="10"
     gridtolerance="10"
     guidetolerance="10"
     inkscape:pageopacity="0"
     inkscape:pageshadow="2"
     inkscape:window-width="640"
     inkscape:window-height="480"
     id="namedview28"
     showgrid="false"
     inkscape:zoom="0.12542268"
     inkscape:cx="-477.74975"
     inkscape:cy="172.52276"
     inkscape:window-x="0"
     inkscape:window-y="0"
     inkscape:window-maximized="0"
     inkscape:current-layer="svg2" />
  <path
     d="m 11.8072,123.89466 -0.026,-1.69974 1.1019,-0.0754 -1.1346,-3.24074 c 1.0335,-3.54523 -0.7372,-12.30255 -1.697,-19.96299 L 6.1355,97.0576 6.0585,95.48631 2.3449,95.46071 1.7636,94.80601 3.351,93.6599 v -2.41472 l 1.8552,-1.2326 C 5.703,86.9895 2.5935,85.80449 -5e-4,84.4254 v -2.29863 l 1.5717,-0.48274 2.055,1.23963 3.3883,-3.50763 h 3.1201 c 4.1657,-2.95701 0.3736,-4.90147 -1.9952,-7.50555 l -0.5706,-2.02845 6.2303,1.09461 1.6154,-1.34069 v -2.73238 l -1.8255,-0.70052 1.9051,-1.02519 5.2938,1.80006 5.1492,-3.15647 c 0.9138,-2.27781 1.9443,-2.64531 2.791,-2.70736 l -0.6875,4.37007 3.4253,-2.64305 h 0.6004 v 2.96768 l 1.7008,1.23293 2.4548,-4.98165 c 1.8371,0.66008 3.6742,1.04822 5.5113,0.75541 l -0.1282,3.58584 -5.6996,4.21071 0.6143,1.27751 2.1471,0.1538 v 1.15973 c 2.4084,1.0062 4.6923,1.45151 6.9664,1.8532 l -0.6595,11.44886 -1.8739,3.72836 -2.7316,1.7898 v 2.17369 l 1.7014,0.65288 c 0.3786,1.92058 0.6952,3.85494 2.2685,5.50999 l 2.0947,1.1211 1.1643,-1.1642 0.7325,2.91867 h 3.9674 l 4.4804,-4.79649 2.7006,-0.71787 -0.5212,-2.5958 5.6009,-0.42087 1.8041,2.18231 2.1643,-0.022 -0.022,-1.84555 c 1.6716,-0.41594 4.0325,-2.29693 7.4684,-5.88856 0.2429,-6.24 -1.4979,-10.28425 -2.2156,-16.74646 l 2.2324,-0.51642 c 1.7184,1.0645 4.0399,1.79405 6.5,2.44653 l 4.3782,-1.48485 -0.8078,-4.50306 3.4056,-6.68923 2.0599,-1.90096 9.0239,-0.31521 -0.099,-3.36245 1.0743,-0.83311 -1.7822,-4.57463 1.3002,-0.6987 -0.8119,-1.91525 5.4895,-5.16144 10.0832,1.52007 2.0003,2.90784 2.0028,0.0445 -0.3234,-7.76428 4.2564,-0.72127 2.1511,-2.42885 -0.612,-0.65503 1.2765,-3.43867 -2.7733,-5.53966 -0.9784,-5.6406 -2.7875,-4.77897 -2.912,-2.28468 -2.1865,-0.13537 -0.035,-1.25438 -1.4445,0.46193 -0.6259,-5.21344 C 133.9353,6.18718 155.0588,3.29602 175.575,3e-5 c 1.5246,3.77606 3.7246,6.97319 6.1896,9.94319 l -0.1814,0.94257 -2.2786,-0.59589 0.1361,7.51446 -3.9021,2.03985 c 0.5391,0.74793 0.5854,1.58546 -0.3561,2.60255 l -7.5445,-0.26955 0.6327,4.5271 c -0.9182,-0.0464 -2.0189,-0.51836 -3.3419,-1.50913 l -4.769,0.56617 0.1015,1.87515 -2.7505,3.02852 c 3.4173,2.07711 6.6213,4.54435 7.7635,7.29056 l -4.5646,5.43354 c 1.1672,1.28546 1.9023,2.61016 1.5912,4.03002 l -2.8357,2.66392 v 2.68178 c -1.942,1.93515 -3.7975,3.88472 -4.9418,5.95281 l -2.0766,-0.64415 -0.4555,1.63628 c -1.8011,-1.25483 -3.6933,-2.6739 -4.846,-2.76152 l 0.059,-2.37405 c -1.1485,0.18601 -2.297,-0.83357 -3.4455,-1.8307 -1.8304,2.0377 -3.8043,4.50635 -4.8609,4.22267 -2.0752,4.66895 -4.6527,9.4495 -7.9415,14.38817 l 0.903,2.05221 -2.0603,1.99959 1.9316,2.13433 -1.5008,1.8692 -0.9443,-0.61035 c -1.8315,7.04096 -5.0427,14.38857 -8.0344,21.68735 l -0.3757,2.00275 2.1634,0.56572 c 0.245,2.15803 -1.8344,2.9798 -2.2277,4.75157 l -0.8354,1.68982 C 83.9879,114.444 47.795,119.48793 11.8071,123.89469 Z"
     style="fill:#b3b3b3;fill-opacity:1"
     id="TN_4"
     inkscape:connector-curvature="0" />
</svg>
