<?xml version="1.0" encoding="UTF-8" standalone="no"?>
<svg
   xmlns:dc="http://purl.org/dc/elements/1.1/"
   xmlns:cc="http://creativecommons.org/ns#"
   xmlns:rdf="http://www.w3.org/1999/02/22-rdf-syntax-ns#"
   xmlns:svg="http://www.w3.org/2000/svg"
   xmlns="http://www.w3.org/2000/svg"
   xmlns:sodipodi="http://sodipodi.sourceforge.net/DTD/sodipodi-0.dtd"
   xmlns:inkscape="http://www.inkscape.org/namespaces/inkscape"
   version="1.0"
   width="103.182"
   height="201.8978"
   id="svg2"
   sodipodi:docname="TX_15.svg"
   inkscape:version="0.92.2 5c3e80d, 2017-08-06">
  <metadata
     id="metadata56">
    <rdf:RDF>
      <cc:Work
         rdf:about="">
        <dc:format>image/svg+xml</dc:format>
        <dc:type
           rdf:resource="http://purl.org/dc/dcmitype/StillImage" />
      </cc:Work>
    </rdf:RDF>
  </metadata>
  <defs
     id="defs54" />
  <sodipodi:namedview
     pagecolor="#ffffff"
     bordercolor="#666666"
     borderopacity="1"
     objecttolerance="10"
     gridtolerance="10"
     guidetolerance="10"
     inkscape:pageopacity="0"
     inkscape:pageshadow="2"
     inkscape:window-width="640"
     inkscape:window-height="480"
     id="namedview52"
     showgrid="false"
     inkscape:zoom="0.12542268"
     inkscape:cx="60.919946"
     inkscape:cy="767.15677"
     inkscape:window-x="0"
     inkscape:window-y="0"
     inkscape:window-maximized="0"
     inkscape:current-layer="svg2" />
  <path
     d="M 78.6714,0 62.136,14.1782 56.3762,8.4892 30.7136,35.4101 35.162,40.7092 20.9838,54.019 V 85.6364 H 0 v 39.1319 h 7.1246 c 0.1732,5.1519 2.1175,6.1092 2.1976,29.4375 l 4.4372,0.057 -0.145,2.1636 -0.9426,1.1467 c -0.8833,0.8928 -2.4422,2.6783 -3.456,3.9522 -1.0137,1.2736 -1.8431,2.5634 -1.8431,2.871 0,0.3076 -0.6909,1.1029 -1.5419,1.7723 -0.8509,0.6694 -1.9938,1.8877 -2.5344,2.7116 l -0.9924,1.5064 1.3823,0.8684 7.0183,0.018 0.7798,2.4634 -0.089,7.8335 0.5848,1.5064 c 0.3154,0.8295 1.0662,1.9756 1.6659,2.5344 l 1.0812,1.0102 0.3367,1.5419 c 0.1857,0.8491 0.4515,1.797 0.5848,2.109 0.1334,0.3119 0.6971,1.3327 1.2583,2.2685 l 1.0279,1.7014 2.4281,1.0988 0.3367,2.304 3.7218,0.3544 -0.319,1.8077 3.4027,1.0102 7.6563,0.018 v 0.5316 c 0,0.2948 0.2552,0.5317 0.5671,0.5317 h 0.5671 v -1.2406 l 3.5091,0.2659 c 1.9321,0.1544 3.8461,0.1563 4.2535,0 l 0.7444,-0.2836 v -3.6686 l 2.2508,-2.0381 6.6283,0.6912 4.1648,-1.152 3.0129,-2.5876 -0.8152,-1.3291 h -2.6939 l -0.6164,-0.7359 c -1.7046,-0.9441 -3.2695,-1.3756 -5.5334,-1.9934 l -5.1928,-3.7927 -0.071,-5.3877 c -2.8744,-0.01 -4.5369,0.075 -8.0638,-0.7267 l 0.762,-5.7776 0.4431,-0.2836 c 0.2425,-0.1619 0.6002,-1.1307 0.7975,-2.1444 l 0.3545,-1.8432 h -1.4887 c -0.3597,-14.6835 -0.4963,-25.4618 -0.7444,-39.699 h -4.537 v -23.8197 h 6.2384 V 89.3582 l 5.3523,-5.4231 h 2.0204 v 1.8963 l 0.7089,-0.7089 c 2.1183,1.33 3.3307,1.127 4.8915,1.0633 l 1.5241,1.0988 c 0.6424,0.6896 0.8153,1.6077 0.8153,1.861 v 0.4607 h 1.5419 L 56.1807,87.905 h 1.6305 l 1.1342,2.1444 3.7218,0.5317 1.5242,-2.1622 1.3647,1.1343 2.5697,-0.6558 -0.638,-1.6305 1.7723,-3.4205 -1.3469,-1.6127 h -3.8459 l 2.5698,-3.9168 2.499,-1.1342 c 0.7099,-1.294 1.3463,-2.8501 2.3039,-3.8636 l 2.2331,-0.7266 0.5671,0.9925 c 0.5939,0.8567 1.5302,0.6824 2.2153,1.8254 l 1.6128,1.7546 c 4.3982,-2.5088 7.6058,-4.4555 11.3072,-7.9398 l -4.8029,-2.3217 -0.6735,-2.6762 17.9709,-3.6332 -0.4785,-3.3141 1.79,-2.7293 -1.5596,-1.2938 -0.5494,1.471 -5.2283,-4.8206 h -0.5671 v 1.2583 L 94.2846,50.758 c -0.5458,-0.228 -1.6963,-0.4823 -2.552,-0.5494 l -1.5596,-0.124 -2.0559,-1.861 -6.8941,-1.1873 -1.3115,-3.1725 0.6026,-10.5273 -0.8507,-1.2051 c -0.4608,-0.6579 -0.833,-1.6235 -0.833,-2.1445 v -0.9393 l -1.5242,-0.5848 -0.7975,0.5139 c -0.4395,0.2783 -1.3717,0.5092 -2.0736,0.514 h -1.276 l 0.018,-1.9849 17.1378,-14.9935 z"
     style="fill:#b3b3b3"
     id="TX_15"
     inkscape:connector-curvature="0" />
</svg>
