<?xml version="1.0" encoding="UTF-8" standalone="no"?>
<svg
   xmlns:dc="http://purl.org/dc/elements/1.1/"
   xmlns:cc="http://creativecommons.org/ns#"
   xmlns:rdf="http://www.w3.org/1999/02/22-rdf-syntax-ns#"
   xmlns:svg="http://www.w3.org/2000/svg"
   xmlns="http://www.w3.org/2000/svg"
   xmlns:sodipodi="http://sodipodi.sourceforge.net/DTD/sodipodi-0.dtd"
   xmlns:inkscape="http://www.inkscape.org/namespaces/inkscape"
   version="1.0"
   width="28.89883"
   height="35.214001"
   id="svg2"
   sodipodi:docname="TX_16.svg"
   inkscape:version="0.92.2 5c3e80d, 2017-08-06">
  <metadata
     id="metadata64">
    <rdf:RDF>
      <cc:Work
         rdf:about="">
        <dc:format>image/svg+xml</dc:format>
        <dc:type
           rdf:resource="http://purl.org/dc/dcmitype/StillImage" />
      </cc:Work>
    </rdf:RDF>
  </metadata>
  <defs
     id="defs62" />
  <sodipodi:namedview
     pagecolor="#ffffff"
     bordercolor="#666666"
     borderopacity="1"
     objecttolerance="10"
     gridtolerance="10"
     guidetolerance="10"
     inkscape:pageopacity="0"
     inkscape:pageshadow="2"
     inkscape:window-width="640"
     inkscape:window-height="480"
     id="namedview60"
     showgrid="false"
     inkscape:zoom="0.12542268"
     inkscape:cx="482.71017"
     inkscape:cy="424.61247"
     inkscape:window-x="0"
     inkscape:window-y="0"
     inkscape:window-maximized="0"
     inkscape:current-layer="svg2" />
  <path
     d="M 23.16851,35.214 19.74186,32.475 19.36092,30.867 C 19.15142,29.9827 18.5324,28.7487 17.98535,28.1248 17.4383,27.501 16.82586,26.3526 16.62441,25.5728 16.42297,24.793 15.43662,22.4462 14.43252,20.3579 L 12.60687,16.5608 8.46967,14.223 5.85311,14.5138 4.25454,11.2546 2.16779,10.709 1.15382,9.2086 C 0.59616,8.3834 0.10843,7.2553 0.06992,6.7018 L 2e-5,5.6953 0.98075,5.0892 V 0 l 27.9181,1.7534 -1.38441,6.8055 h -4.26725 l -1.25846,14.988 -3.45721,2.3371 1.27547,3.6587 h 4.24399 l 1.3555,2.975 c -0.6087,1.0485 -1.28376,1.9852 -2.23795,2.6963 z"
     style="fill:#b3b3b3"
     id="TX_16"
     inkscape:connector-curvature="0" />
</svg>
