<?xml version="1.0" encoding="UTF-8" standalone="no"?>
<svg
   xmlns:dc="http://purl.org/dc/elements/1.1/"
   xmlns:cc="http://creativecommons.org/ns#"
   xmlns:rdf="http://www.w3.org/1999/02/22-rdf-syntax-ns#"
   xmlns:svg="http://www.w3.org/2000/svg"
   xmlns="http://www.w3.org/2000/svg"
   xmlns:sodipodi="http://sodipodi.sourceforge.net/DTD/sodipodi-0.dtd"
   xmlns:inkscape="http://www.inkscape.org/namespaces/inkscape"
   version="1.0"
   width="131.39661"
   height="141.21689"
   id="svg2"
   sodipodi:docname="TX_17.svg"
   inkscape:version="0.92.2 5c3e80d, 2017-08-06">
  <metadata
     id="metadata72">
    <rdf:RDF>
      <cc:Work
         rdf:about="">
        <dc:format>image/svg+xml</dc:format>
        <dc:type
           rdf:resource="http://purl.org/dc/dcmitype/StillImage" />
      </cc:Work>
    </rdf:RDF>
  </metadata>
  <defs
     id="defs70" />
  <sodipodi:namedview
     pagecolor="#ffffff"
     bordercolor="#666666"
     borderopacity="1"
     objecttolerance="10"
     gridtolerance="10"
     guidetolerance="10"
     inkscape:pageopacity="0"
     inkscape:pageshadow="2"
     inkscape:window-width="640"
     inkscape:window-height="480"
     id="namedview68"
     showgrid="false"
     inkscape:zoom="0.12542268"
     inkscape:cx="33.697746"
     inkscape:cy="506.27758"
     inkscape:window-x="0"
     inkscape:window-y="0"
     inkscape:window-maximized="0"
     inkscape:current-layer="svg2" />
  <path
     d="m 50.2972,0.0018746 c -17.3932,-0.022 -32.904,0.1384 -50.2972,0.7443 v 2.5521 L 10.7754,29.173575 c -2.0129,1.809 -4.499,3.0226 -6.6992,4.5901 3.399,7.2978 8.6855,13.6442 12.4946,20.718 l 4.1294,-2.1799 c 6.127,9.5078 11.6185,19.547 18.7861,28.3209 l 28.2679,-18.0594 11.5552,18.7861 c -3.9075,2.5325 -7.8915,4.944 -11.7857,7.4967 0.8897,1.4432 2.1966,2.6187 3.4383,3.8104 l -0.5317,2.0559 h 1.1165 l -0.6912,2.8356 c 0.6678,2.3898 1.2339,3.074995 2.304,3.402795 h 1.5596 l 0.6558,3.261 1.8431,0.7089 2.1799,-1.1697 v -4.501595 h 5.7776 l 3.4028,-2.4103 4.4307,1.8963 c -1.2971,3.969995 -3.3768,8.051695 -5.1573,11.821095 l -5.6536,3.1547 -0.6557,2.5521 h -1.0102 v 1.7014 h -2.1977 l -0.7975,2.5166 4.1294,3.1546 v 1.4533 c 0,0.8003 -0.2564,1.9358 -0.5671,2.5166 l -0.5671,1.0457 0.7089,1.8431 4.3421,2.2154 h 1.2051 c 0.6568,0 1.6932,-0.258 2.304,-0.5849 l 1.1165,-0.6026 3.0837,1.666 3.7041,-1.2406 1.4001,1.7546 3.6863,-1.5596 0.9571,-1.4887 3.0837,5.5826 2.1977,0.5849 v 1.0633 c 0,0.5917 0.3219,1.5957 0.7089,2.2154 0.3869,0.6196 0.8335,1.1191 0.9924,1.1165 4.5683,-0.4437 9.1651,-0.8812 13.6643,-1.8077 l -0.3544,-3.4914 c -0.1871,-1.922 -0.5951,-5.9158 -0.9039,-8.8791 -0.3088,-2.9632 -1.2014,-9.471 -1.985,-14.4618 -0.7836,-4.9907 -1.5321,-9.454 -1.6659,-9.9247 l -0.2304,-0.8685 2.3217,-0.7089 c 1.2795,-0.3993 2.6991,-1.103995 3.1546,-1.559595 l 0.833,-0.8329 6.5397,-0.2127 -3.2078,-4.2535 0.3545,-1.8786 c 0.2007,-1.0314 0.5949,-2.0168 0.8684,-2.1976 l 0.4962,-0.3368 -0.6203,-1.6127 -16.9075,-0.2836 -3.5269,1.7014 -2.9065,2.304 c -1.5986,1.2635 -3.7978,2.6623 -4.8915,3.1192 l -1.9849,0.8329 -2.0913,-2.233 1.1342,-2.9775 -2.0912,-1.8963 -2.9952,-10.2083 0.4254,-5.8308 -1.0102,-1.5419 c -0.5554,-0.8466 -1.6273,-1.9515 -2.3749,-2.4635 -0.7475,-0.5119 -3.0336,-2.7391 -5.0864,-4.9446 -2.0529,-2.2055 -4.0316,-4.5663 -4.3953,-5.2459 l -0.6557,-1.2406 h -1.152 c -0.6284,0 -1.8553,-0.3633 -2.7293,-0.8153 l -1.5773,-0.833 -1.8609,-2.8002 1.7545,-4.2002 c -4.365,-6.0851 -6.5661,-9.5724 -12.8135,-19.6014 l -2.1976,1.0279 -8.312,-13.0617 z"
     style="fill:#b3b3b3"
     id="TX_17"
     inkscape:connector-curvature="0" />
</svg>
