<?xml version="1.0" encoding="UTF-8" standalone="no"?>
<svg
   xmlns:dc="http://purl.org/dc/elements/1.1/"
   xmlns:cc="http://creativecommons.org/ns#"
   xmlns:rdf="http://www.w3.org/1999/02/22-rdf-syntax-ns#"
   xmlns:svg="http://www.w3.org/2000/svg"
   xmlns="http://www.w3.org/2000/svg"
   xmlns:sodipodi="http://sodipodi.sourceforge.net/DTD/sodipodi-0.dtd"
   xmlns:inkscape="http://www.inkscape.org/namespaces/inkscape"
   version="1.0"
   width="324.69067"
   height="176.71941"
   id="svg2"
   sodipodi:docname="TX_11.svg"
   inkscape:version="0.92.2 5c3e80d, 2017-08-06">
  <metadata
     id="metadata24">
    <rdf:RDF>
      <cc:Work
         rdf:about="">
        <dc:format>image/svg+xml</dc:format>
        <dc:type
           rdf:resource="http://purl.org/dc/dcmitype/StillImage" />
      </cc:Work>
    </rdf:RDF>
  </metadata>
  <defs
     id="defs22" />
  <sodipodi:namedview
     pagecolor="#ffffff"
     bordercolor="#666666"
     borderopacity="1"
     objecttolerance="10"
     gridtolerance="10"
     guidetolerance="10"
     inkscape:pageopacity="0"
     inkscape:pageshadow="2"
     inkscape:window-width="640"
     inkscape:window-height="480"
     id="namedview20"
     showgrid="false"
     inkscape:zoom="0.12542268"
     inkscape:cx="344.26232"
     inkscape:cy="516.66157"
     inkscape:window-x="0"
     inkscape:window-y="0"
     inkscape:window-maximized="0"
     inkscape:current-layer="svg2" />
  <path
     d="m 247.04617,176.7194 v -9.8155 h -58.3378 l -0.7204,-2.2697 -7.7645,-5.2715 -3.0383,-7.1489 c -5.6252,-4.0702 -7.4623,-5.1385 -12.3727,-5.7779 v -5.6199 h -6.2384 v -23.0674 c -25.4263,-0.3454 -50.8526,-0.604 -76.2788,-1.9352 l -1.4178,-1.8693 v -4.8873 c -4.4728,-4.1721 -5.3004,-4.842 -7.8434,-5.0116 l -0.6488,0.6488 c -1.3972,-1.3967 -2.6223,-3.0215 -4.2583,-4.1441 -1.7562,0.3959 -2.6548,1.2206 -3.9822,2.4742 l -4.0535,0.9296 -5.5567,-5.1017 -4.17489,-1.1896 -0.8132,-1.0824 h -2.6968 l -0.7862,0.9198 c -3.0962,-0.1957 -5.3346,-0.4629 -8.2878,-1.6593 l -1.1601,-2.1907 c -3.0172,0.7176 -5.661,-0.7368 -8.5917,-0.7555 -0.8406,-0.018 -1.7338,-0.2381 -1.985,-0.4891 -0.251,-0.2511 -0.5256,-1.0094 -0.6101,-1.6854 l -0.9807,-10.303 -3.6863,-0.3554 -2.7685,-2.5033 -0.2659,-2.4158 -1.4651,-0.2357 -0.7188,-2.265 -3.00506,0.5961 -3.07247,-2.6511 C 9.39405,68.1754 8.91997,66.0659 8.14437,63.6547 L 6.09102,64.3064 3.74793,62.3002 V 59.7166 H 2.61367 L 2.64717,57.9576 -1.9999999e-5,57.137 49.11816,58.7644 50.43546,26.4511 95.05565,27.6925 V 0 l 26.2716,0.7352 -1.4415,54.2912 c 9.2367,0.06 18.4749,0.5662 27.7126,0.4992 0.8592,-18.1931 0.4907,-36.4458 1.5517,-54.6295 l 26.0384,0.592 -0.6282,27.0364 h 13.9906 c 0.7562,0.6584 1.3542,1.3813 1.7824,2.2685 0,0.2674 -0.4425,1.2308 -0.9833,1.7716 l -7.9397,3.9041 -3.8374,0.1577 -3.1192,2.1837 v 16.7726 l 91.2323,0.7311 c 6.501,-3.6972 12.6869,-7.9946 19.3779,-11.3426 l 11.9479,19.3389 4.1613,-2.2479 4.5687,7.8663 -15.7191,10.0655 10.6066,16.5393 4.9002,-2.6382 14.6763,23.6449 0.01,2.5758 4.4774,7.509 -7.037,7.4868 -7.8258,18.2931 1.4514,0.6553 -0.01,1.1986 -2.0223,2.0041 -14.2625,-3.9699 h -10.6562 l 0.8284,22.6852 z"
     style="fill:#b3b3b3"
     id="TX_11"
     inkscape:connector-curvature="0" />
</svg>
