<?xml version="1.0" encoding="UTF-8" standalone="no"?>
<svg
   xmlns:dc="http://purl.org/dc/elements/1.1/"
   xmlns:cc="http://creativecommons.org/ns#"
   xmlns:rdf="http://www.w3.org/1999/02/22-rdf-syntax-ns#"
   xmlns:svg="http://www.w3.org/2000/svg"
   xmlns="http://www.w3.org/2000/svg"
   xmlns:sodipodi="http://sodipodi.sourceforge.net/DTD/sodipodi-0.dtd"
   xmlns:inkscape="http://www.inkscape.org/namespaces/inkscape"
   version="1.0"
   width="93.357002"
   height="49.003899"
   id="svg2"
   sodipodi:docname="TX_2.svg"
   inkscape:version="0.92.2 5c3e80d, 2017-08-06">
  <metadata
     id="metadata96">
    <rdf:RDF>
      <cc:Work
         rdf:about="">
        <dc:format>image/svg+xml</dc:format>
        <dc:type
           rdf:resource="http://purl.org/dc/dcmitype/StillImage" />
      </cc:Work>
    </rdf:RDF>
  </metadata>
  <defs
     id="defs94" />
  <sodipodi:namedview
     pagecolor="#ffffff"
     bordercolor="#666666"
     borderopacity="1"
     objecttolerance="10"
     gridtolerance="10"
     guidetolerance="10"
     inkscape:pageopacity="0"
     inkscape:pageshadow="2"
     inkscape:window-width="640"
     inkscape:window-height="480"
     id="namedview92"
     showgrid="false"
     inkscape:zoom="0.12542268"
     inkscape:cx="-103.81745"
     inkscape:cy="542.57517"
     inkscape:window-x="0"
     inkscape:window-y="0"
     inkscape:window-maximized="0"
     inkscape:current-layer="svg2" />
  <path
     d="M 66.9747,49.0039 65.357,29.0672 c -15.183,0.874 -23.4005,1.4425 -35.1008,2.8054 l 5.0508,3.5188 -0.9822,5.6727 h -2.8223 l -1.035,-5.0509 -2.0409,1.081 h -4.8773 v -2.8356 l -4.7986,-0.3799 -0.3142,-2.3339 c 0,-0.8468 -0.1962,-1.8135 -0.4254,-2.1482 C 17.782,29.0619 17.1479,28.6234 16.602,28.4219 L 15.4873,27.8113 15.6095,25.2282 6.5798,23.597 3.2866,26.2161 0,26.1181 1.4355,23.4753 c 0.6215,-1.2183 1.1301,-2.5725 1.1301,-3.0092 0,-0.4368 -0.6303,-1.723 -1.4008,-2.8583 -0.7704,-1.1352 -1.217,-2.056 -0.9925,-2.046 0.2246,0.01 0.8178,0.3299 1.3183,0.711 0.5004,0.3813 1.1011,1.2955 1.3348,2.0317 l 0.4248,1.3385 3.7821,-0.6138 0.7637,1.0784 3.726,1.1717 1.9948,2.2042 h 2.4029 l 8.918,-8.9706 -4.2256,-10.437 0.4761,-0.4291 c 0.2619,-0.236 1.7357,-1.153 3.275,-2.0377 L 27.162,4e-4 26.6871,1.1083 c -0.2612,0.6093 -0.596,1.9746 -0.7438,3.0339 l -0.2689,1.9259 1.3013,5.8148 1.2642,0.7937 c 0.6954,0.4365 2.0108,0.9477 2.9232,1.136 l 1.6591,0.3425 0.5399,1.6868 c 0.2969,0.9277 1.0623,2.261 1.7008,2.9628 l 1.161,1.2761 h 2.4796 c 1.4891,-0.9676 2.8953,-2.0985 4.5162,-2.8357 0.1857,0 0.6678,0.4466 1.0713,0.9925 l 0.7336,0.9925 3.9149,-4.2535 h 1.7106 l 0.645,1.6807 13.9382,-0.3181 3.4028,-1.6614 v -2.2533 l 3.9699,-1.3995 3.717,0.6808 2.7237,2.7586 -0.419,2.7807 h 2.3078 l 0.5881,2.2489 3.4134,1.7028 1.5696,0.4867 4.5556,0.7696 1.6983,3.2841 -1.5681,3.7529 -2.9904,1.9594 v 3.4122 l 0.8507,0.3265 c 0.4679,0.1795 0.8507,0.5739 0.8507,0.8765 0,0.3025 0.7771,1.3271 1.7268,2.2769 l 1.7268,1.7268 -0.3197,0.3197 c -0.1758,0.1759 -2.3519,0.354 -4.8358,0.3958 l -4.5162,0.076 c -5.5738,2.7065 -11.0884,5.5393 -16.7106,8.1445 z"
     style="fill:#b3b3b3"
     id="TX_2"
     inkscape:connector-curvature="0" />
</svg>
