<?xml version="1.0" encoding="UTF-8" standalone="no"?>
<svg
   xmlns:dc="http://purl.org/dc/elements/1.1/"
   xmlns:cc="http://creativecommons.org/ns#"
   xmlns:rdf="http://www.w3.org/1999/02/22-rdf-syntax-ns#"
   xmlns:svg="http://www.w3.org/2000/svg"
   xmlns="http://www.w3.org/2000/svg"
   xmlns:sodipodi="http://sodipodi.sourceforge.net/DTD/sodipodi-0.dtd"
   xmlns:inkscape="http://www.inkscape.org/namespaces/inkscape"
   version="1.0"
   width="20.3962"
   height="13.4522"
   id="svg2"
   sodipodi:docname="TX_20.svg"
   inkscape:version="0.92.2 5c3e80d, 2017-08-06">
  <metadata
     id="metadata104">
    <rdf:RDF>
      <cc:Work
         rdf:about="">
        <dc:format>image/svg+xml</dc:format>
        <dc:type
           rdf:resource="http://purl.org/dc/dcmitype/StillImage" />
      </cc:Work>
    </rdf:RDF>
  </metadata>
  <defs
     id="defs102" />
  <sodipodi:namedview
     pagecolor="#ffffff"
     bordercolor="#666666"
     borderopacity="1"
     objecttolerance="10"
     gridtolerance="10"
     guidetolerance="10"
     inkscape:pageopacity="0"
     inkscape:pageshadow="2"
     inkscape:window-width="640"
     inkscape:window-height="480"
     id="namedview100"
     showgrid="false"
     inkscape:zoom="0.12542268"
     inkscape:cx="66.582146"
     inkscape:cy="565.95767"
     inkscape:window-x="0"
     inkscape:window-y="0"
     inkscape:window-maximized="0"
     inkscape:current-layer="svg2" />
  <path
     d="M 5.0219,13.4522 0,11.5291 1.1739,9.3356 0.0404,5.2302 C 0.7989,3.9625 1.1167,2.2335 2.5868,1.6383 l 0.092,-1.5169 1.9037,2.118 1.7973,-1.9754 1.6143,1.1727 1.4924,-1.3811 2.6088,-0.056 0.019,1.6435 1.7734,0.6849 -0.6761,2.1926 3.0113,0.8288 0.4561,-0.4996 0.035,-4.1675 1.2171,-0.016 2.4655,2.6333 -2.5407,4.3422 -3.9509,0.8048 0.1923,0.4758 1.4293,0.2833 -4.4763,0.1491 C 7.9726,11.1442 6.446,11.9837 5.0223,13.452 Z"
     style="fill:#b3b3b3"
     id="TX_20"
     inkscape:connector-curvature="0" />
</svg>
