<?xml version="1.0" encoding="UTF-8" standalone="no"?>
<svg
   xmlns:dc="http://purl.org/dc/elements/1.1/"
   xmlns:cc="http://creativecommons.org/ns#"
   xmlns:rdf="http://www.w3.org/1999/02/22-rdf-syntax-ns#"
   xmlns:svg="http://www.w3.org/2000/svg"
   xmlns="http://www.w3.org/2000/svg"
   xmlns:sodipodi="http://sodipodi.sourceforge.net/DTD/sodipodi-0.dtd"
   xmlns:inkscape="http://www.inkscape.org/namespaces/inkscape"
   version="1.0"
   width="164.39642"
   height="156.75789"
   id="svg2"
   sodipodi:docname="UT_3.svg"
   inkscape:version="0.92.2 5c3e80d, 2017-08-06">
  <metadata
     id="metadata24">
    <rdf:RDF>
      <cc:Work
         rdf:about="">
        <dc:format>image/svg+xml</dc:format>
        <dc:type
           rdf:resource="http://purl.org/dc/dcmitype/StillImage" />
      </cc:Work>
    </rdf:RDF>
  </metadata>
  <defs
     id="defs22" />
  <sodipodi:namedview
     pagecolor="#ffffff"
     bordercolor="#666666"
     borderopacity="1"
     objecttolerance="10"
     gridtolerance="10"
     guidetolerance="10"
     inkscape:pageopacity="0"
     inkscape:pageshadow="2"
     inkscape:window-width="640"
     inkscape:window-height="480"
     id="namedview20"
     showgrid="false"
     inkscape:zoom="0.12542268"
     inkscape:cx="812.29458"
     inkscape:cy="-22.623109"
     inkscape:window-x="0"
     inkscape:window-y="0"
     inkscape:window-maximized="0"
     inkscape:current-layer="svg2" />
  <path
     d="m 108.88871,0 -0.28356,0.99248 c -0.1567,0.5458 -0.26241,2.90653 -0.24812,5.24594 0.0143,2.3394 -0.14048,5.09298 -0.3367,6.11433 l -0.56713,3.1192 -1.38238,-0.26581 0.46079,8.56007 -0.92158,0.56713 1.02792,8.96596 -1.40013,1.50278 0.72666,3.26644 -1.80171,2.45623 1.37637,4.84555 h 1.5773 l 0.0409,3.8263 1.38629,1.24088 0.2742,2.28349 -1.13426,0.0929 0.0144,2.96728 -1.62715,2.73945 -1.9495,-1.08111 -4.18258,4.18257 c -1.99187,1.98541 -4.68607,4.14407 -5.5827,4.69656 L 92.15842,70.87335 12.58317,60.32833 C 8.81718,92.59205 4.89032,110.32441 0,146.00021 l 75.8003,10.75769 1.80772,-1.80772 c 0.99581,-0.99577 2.0099,-1.82542 2.26852,-1.82542 h 0.47851 l -0.6203,-2.37485 0.58485,-0.37221 c 0.32167,-0.20201 0.96738,-1.28568 1.43555,-2.41029 l 0.85069,-2.03809 c -1.69078,-3.79455 -1.78508,-1.79656 -2.44574,-2.8534 l -0.17723,-2.58752 -2.28624,-0.15948 -0.19495,-1.09881 -2.14445,-2.0204 v -3.45597 l 57.75854,7.17775 7.60304,-59.33584 2.69386,0.24812 c 0.75893,-7.11185 1.45605,-13.10424 2.51664,-21.03696 l 18.46712,2.23307 v -5.05096 l -10.20831,-1.40013 v -2.56977 l -1.78997,-0.46079 0.74435,-1.45327 -1.1697,-1.34693 c -0.43397,-0.5263 -1.06535,-1.52767 -1.48871,-2.37485 l -0.81525,-1.48871 -2.23307,-0.21268 c 0.16532,-1.3632 0.47043,-2.0361 1.11651,-3.47366 l 0.53168,-0.88614 v -3.61544 l -1.70139,-3.26099 0.60258,-1.54191 -1.73683,-2.78245 -2.55208,-0.47854 -3.61545,-0.0177 -0.76205,-1.2229 1.24059,-1.25829 -1.86091,-2.05584 h -2.62297 l -1.55961,-5.03327 -3.1901,-1.20514 h -2.71155 l -3.34964,1.73683 v 3.93445 h -2.83564 v -0.51399 c 0,-0.28963 -0.39648,-0.92827 -0.88614,-1.41782 l -0.90383,-0.90383 -2.16218,0.67346 -1.06337,-2.21537 c 0.86312,-2.62575 1.66249,-5.27157 2.44575,-7.92205 0.47536,-1.61819 0.86827,-3.61119 0.86838,-4.43069 0,-0.81979 0.27954,-2.0039 0.62033,-2.64072 l 0.62027,-1.16971 -1.2406,-1.22284 V 1.18741 L 114.41822,9.9999995e-6 112.09656,1.24061 111.47624,0.62028 C 111.13551,0.27949 110.42161,9.9999995e-6 109.88119,9.9999995e-6 Z"
     style="fill:#b3b3b3;fill-opacity:1"
     id="UT_3"
     inkscape:connector-curvature="0" />
</svg>
