<?xml version="1.0" encoding="UTF-8" standalone="no"?>
<svg
   xmlns:dc="http://purl.org/dc/elements/1.1/"
   xmlns:cc="http://creativecommons.org/ns#"
   xmlns:rdf="http://www.w3.org/1999/02/22-rdf-syntax-ns#"
   xmlns:svg="http://www.w3.org/2000/svg"
   xmlns="http://www.w3.org/2000/svg"
   xmlns:sodipodi="http://sodipodi.sourceforge.net/DTD/sodipodi-0.dtd"
   xmlns:inkscape="http://www.inkscape.org/namespaces/inkscape"
   version="1.0"
   width="66.956833"
   height="40.851021"
   id="svg2"
   sodipodi:docname="VA_10.svg"
   inkscape:version="0.92.2 5c3e80d, 2017-08-06">
  <metadata
     id="metadata16">
    <rdf:RDF>
      <cc:Work
         rdf:about="">
        <dc:format>image/svg+xml</dc:format>
        <dc:type
           rdf:resource="http://purl.org/dc/dcmitype/StillImage" />
      </cc:Work>
    </rdf:RDF>
  </metadata>
  <defs
     id="defs14" />
  <sodipodi:namedview
     pagecolor="#ffffff"
     bordercolor="#666666"
     borderopacity="1"
     objecttolerance="10"
     gridtolerance="10"
     guidetolerance="10"
     inkscape:pageopacity="0"
     inkscape:pageshadow="2"
     inkscape:window-width="640"
     inkscape:window-height="480"
     id="namedview12"
     showgrid="false"
     inkscape:zoom="0.12542268"
     inkscape:cx="-883.88105"
     inkscape:cy="-140.24912"
     inkscape:window-x="0"
     inkscape:window-y="0"
     inkscape:window-maximized="0"
     inkscape:current-layer="svg2" />
  <path
     d="M 3.3496,0 C 4.059,1.82661 5.0848,3.67296 4.2889,5.40548 L 5.3522,6.16753 3.163,12.00266 4.8345,13.44526 3.58,16.11003 5.051,17.58099 0,26.10568 h 3.4736 c 0.5872,-0.94427 0.8297,-1.61337 0.6568,-2.5949 0.2401,-0.46788 1.5287,-1.42117 2.3739,-1.8358 l 2.8533,-0.30131 -0.3545,1.96725 1.9495,2.16218 -0.6557,1.70139 1.0988,0.69116 -0.5671,0.92158 1.6836,1.40013 -0.7266,4.67881 -1.4001,2.94198 c 1.8488,1.49921 3.4578,1.90345 4.9624,1.87861 v 1.13426 h 1.7546 l 2.0913,-1.98495 1.4709,-6.11438 7.3904,4.60792 1.4533,-2.747 h 2.8002 l 2.8357,3.04831 2.1267,-1.91406 c 0.5417,0.43028 1.0213,0.96407 0.762,2.72931 l 6.6815,-3.26099 -3.4559,-3.9699 -0.071,-4.413 6.3447,2.56983 4.1117,4.11168 v 1.66594 h 0.5317 c 0.2935,0 0.6934,-0.2552 0.8861,-0.56712 l 0.3545,-0.56713 h 3.8281 l 0.6735,-1.09881 -4.5725,-4.12944 0.1063,-2.14443 2.6408,-2.25082 c -0.036,-2.23823 -0.5253,-4.13726 -1.0988,-5.97254 l 1.595,-2.17993 3.9876,2.46349 h 6.3802 c 0.014,-0.72405 -0.6055,-1.34256 -1.4001,-1.93181 l -5.0864,-0.0531 -1.4001,-2.81795 -3.1724,-0.86838 -6.5751,0.7266 -2.2509,-2.42799 -2.0026,-0.0532 -0.2304,-3.82812 1.79,-1.78997 -0.3722,-1.89636 C 43.6256,3.42045 42.295,2.26811 40.9927,1.09886 l -6.7879,0.28356 -2.1444,13.07941 z"
     style="fill:#b3b3b3;fill-opacity:1"
     id="VA_10"
     inkscape:connector-curvature="0" />
</svg>
