<?xml version="1.0" encoding="UTF-8" standalone="no"?>
<svg
   xmlns:dc="http://purl.org/dc/elements/1.1/"
   xmlns:cc="http://creativecommons.org/ns#"
   xmlns:rdf="http://www.w3.org/1999/02/22-rdf-syntax-ns#"
   xmlns:svg="http://www.w3.org/2000/svg"
   xmlns="http://www.w3.org/2000/svg"
   xmlns:sodipodi="http://sodipodi.sourceforge.net/DTD/sodipodi-0.dtd"
   xmlns:inkscape="http://www.inkscape.org/namespaces/inkscape"
   version="1.0"
   width="125.9942"
   height="132.69279"
   id="svg2"
   sodipodi:docname="VA_5.svg"
   inkscape:version="0.92.2 5c3e80d, 2017-08-06">
  <metadata
     id="metadata56">
    <rdf:RDF>
      <cc:Work
         rdf:about="">
        <dc:format>image/svg+xml</dc:format>
        <dc:type
           rdf:resource="http://purl.org/dc/dcmitype/StillImage" />
      </cc:Work>
    </rdf:RDF>
  </metadata>
  <defs
     id="defs54" />
  <sodipodi:namedview
     pagecolor="#ffffff"
     bordercolor="#666666"
     borderopacity="1"
     objecttolerance="10"
     gridtolerance="10"
     guidetolerance="10"
     inkscape:pageopacity="0"
     inkscape:pageshadow="2"
     inkscape:window-width="640"
     inkscape:window-height="480"
     id="namedview52"
     showgrid="false"
     inkscape:zoom="0.12542268"
     inkscape:cx="-832.45535"
     inkscape:cy="12.717401"
     inkscape:window-x="0"
     inkscape:window-y="0"
     inkscape:window-maximized="0"
     inkscape:current-layer="svg2" />
  <path
     d="m 17.9688,132.6928 -0.5229,-0.84615 c 2.2779,-1.81096 3.5267,-3.90656 3.3903,-6.38531 l -3.7393,-1.78311 -3.1072,-5.52757 -2.9048,1.19386 -3.0918,-3.50599 -7.9931,0.0771 1.5538,-1.43818 v -2.45584 l 2.0991,-2.70503 -0.5628,-1.43665 1.3391,-1.61359 C 3.2261,104.81522 3.8155,102.78587 2.5545,98.25105 l 0.8624,-1.45406 3.2695,-1.20475 2.7151,1.74641 1.8519,-1.76099 c 0.8398,-1.75861 0.9257,-3.9306 3.2181,-4.89262 l -1.2778,-2.42629 v -3.90559 c 1.456,-1.8692 3.6863,-2.41058 5.6437,-2.82589 l 0.046,-2.42555 2.1719,-3.70278 c 1.4861,-0.064 2.8871,1.00552 4.0533,1.83886 l 0.1675,1.01005 c 3.7422,-1.31625 7.0045,-2.6325 8.5917,-3.94874 l 2.9634,1.90725 -2.9911,3.83056 1.0144,3.22322 3.5475,1.33405 2.2848,-7.72996 2.6884,0.51393 c 2.2999,-2.04229 5.0504,-4.98597 6.2051,-4.73774 l -0.1484,-3.6624 1.2464,0.44196 3.0056,-4.33944 -0.2766,-0.80651 1.7865,-0.59696 0.9536,-2.52009 c -2.7086,-2.59728 -5.0398,-5.3685 -7.3543,-8.49117 l -3.6747,-0.39506 -2.1486,-4.50039 -1.292,0.62718 C 40.6842,47.48611 39.8271,47.25682 38.9612,46.98347 L 38.4144,42.681 41.9661,40.22902 c 1.2811,1.08633 2.6887,1.16063 4.0985,1.21689 l 0.098,-1.93437 3.5735,-4.33002 -1.1694,-1.03342 c 1.1268,-2.64339 2.9064,-5.14176 5.2181,-7.52183 l -0.7913,-1.81187 0.2426,-6.80554 1.6647,-1.72838 c 0.9156,-0.95062 1.6647,-1.92852 1.6647,-2.17307 0,-0.2446 0.8932,-1.53476 1.9849,-2.86706 l 1.985,-2.42238 v -0.9006 c 0,-0.49533 0.2202,-1.03665 0.4893,-1.20299 0.2692,-0.16634 0.8172,-1.52127 1.2179,-3.01089 0.4007,-1.48967 0.9275,-2.93234 1.1707,-3.20598 L 63.8556,3e-5 65.1773,4.9649 c 2.5621,2.3841 5.1104,4.9064 7.7996,6.02007 l -1.7201,4.89154 8.3725,1.85213 -3.0067,8.70146 12.7516,3.70392 -2.3165,10.23145 4.1111,1.96051 -0.6538,2.05998 2.0265,0.78167 v 12.1842 l -3.1941,4.01203 -0.1172,4.28381 c 1.0867,5.37508 2.2946,10.62907 3.7751,15.61045 3.356,0.78604 3.9946,1.27666 4.3709,1.73881 l 5.2454,1.54384 2.5123,-1.32436 2.6101,18.16037 1.4334,1.52983 3.0852,-2.02153 -0.706,-5.32216 7.4872,-10.92466 c 1.2147,1.16301 2.5971,2.0327 4.3369,2.27674 l 2.6137,10.8418 -2.7913,10.90225 C 90.5556,116.78606 54.7418,124.76227 17.969,132.69283 Z"
     style="fill:#b3b3b3;fill-opacity:1"
     id="VA_5"
     inkscape:connector-curvature="0" />
</svg>
