<?xml version="1.0" encoding="UTF-8" standalone="no"?>
<svg
   xmlns:dc="http://purl.org/dc/elements/1.1/"
   xmlns:cc="http://creativecommons.org/ns#"
   xmlns:rdf="http://www.w3.org/1999/02/22-rdf-syntax-ns#"
   xmlns:svg="http://www.w3.org/2000/svg"
   xmlns="http://www.w3.org/2000/svg"
   xmlns:sodipodi="http://sodipodi.sourceforge.net/DTD/sodipodi-0.dtd"
   xmlns:inkscape="http://www.inkscape.org/namespaces/inkscape"
   version="1.0"
   width="82.233597"
   height="156.30811"
   id="svg2"
   sodipodi:docname="VT_0.svg"
   inkscape:version="0.92.2 5c3e80d, 2017-08-06">
  <metadata
     id="metadata8">
    <rdf:RDF>
      <cc:Work
         rdf:about="">
        <dc:format>image/svg+xml</dc:format>
        <dc:type
           rdf:resource="http://purl.org/dc/dcmitype/StillImage" />
      </cc:Work>
    </rdf:RDF>
  </metadata>
  <defs
     id="defs6" />
  <sodipodi:namedview
     pagecolor="#ffffff"
     bordercolor="#666666"
     borderopacity="1"
     objecttolerance="10"
     gridtolerance="10"
     guidetolerance="10"
     inkscape:pageopacity="0"
     inkscape:pageshadow="2"
     inkscape:window-width="640"
     inkscape:window-height="480"
     id="namedview4"
     showgrid="false"
     inkscape:zoom="0.12542268"
     inkscape:cx="-1021.7288"
     inkscape:cy="-440.71456"
     inkscape:window-x="0"
     inkscape:window-y="0"
     inkscape:window-maximized="0"
     inkscape:current-layer="svg2" />
  <path
     d="M 41.4793,156.30811 29.7742,108.84683 c -0.5822,-1.82164 -2.1793,-1.46165 -3.1805,-1.74939 l -1.4387,-3.20984 -3.6041,1.86376 -0.1161,3.09008 -1.0119,-3.9699 0.7,-8.28576 -2.2852,-2.48969 -0.812,-3.9699 -1.9664,-2.26851 -1.9866,-6.52198 h -1.5959 v -8.94381 l 1.8825,-5.82882 -2.6739,-5.70878 0.3009,-4.89241 -0.8329,-1.91665 C 10.6954,52.99106 9.647,51.42675 8.8237,50.56896 8.0004,49.71118 7.1129,49.00936 6.8514,49.00936 6.5899,49.00936 6.082,48.2996 5.7227,47.43212 5.3634,46.56463 4.9332,44.84198 4.7668,43.604 4.6004,42.36602 4.4072,39.86381 4.3374,38.04355 L 4.2105,34.73398 1.4178,32.62529 1.8085,26.28861 C 1.1459,25.31673 0.5084,24.33094 0,23.27443 L 76.627,0 75.4586,1.56335 77.1295,2.50481 V 3.3632 c 0,0.47211 0.3068,1.34959 0.6817,1.94995 l 0.6817,1.09156 -1.3666,2.62208 0.3694,4.32649 -0.7502,1.44613 c -0.4127,0.79538 -0.7503,1.63491 -0.7503,1.86563 l 6.2384,7.64317 v 2.016 l -0.2308,2.26852 -0.053,2.87725 -1.476,0.91194 -0.1795,1.36639 c -0.099,0.75152 -0.3558,1.78089 -0.5713,2.28749 l -0.3919,0.92109 -3.8999,2.10029 -0.7137,3.80432 -0.9209,0.29145 c -0.5065,0.16029 -1.6157,0.5508 -2.465,0.86779 -0.8492,0.317 -2.1253,1.12449 -2.8356,1.79444 l -1.2916,1.21809 -1.2511,3.49685 1.5347,2.0988 v 2.81311 l 1.8546,2.04934 0.1535,1.39788 c 0.084,0.76883 0.3225,1.67134 0.529,2.00557 l 0.3756,0.60769 -1.2558,6.04929 0.9644,4.42627 -1.4928,2.83565 0.6854,7.37267 -2.6552,3.36315 -0.1074,8.77396 -1.125,1.47398 0.155,4.15903 1.1993,1.51226 0.7768,7.90834 0.3966,0.2993 c 0.2182,0.1646 0.5054,0.6821 0.6381,1.14998 l 0.5792,10.31455 1.845,3.5801 0.3178,5.62603 1.2063,0.40211 -0.3362,0.95583 c -0.1849,0.52571 -0.8169,1.49156 -1.4044,2.14632 l -1.0683,1.1905 1.0572,2.78058 -0.6009,3.14363 0.7749,1.51869 c 0.4262,0.83528 1.4165,2.14951 2.2006,2.92051 l 1.4258,1.40182 1.4178,-0.30128 c 0.07,0.4175 -0.054,0.81917 -0.1417,1.18606 z"
     style="fill:#b3b3b3;fill-opacity:1"
     id="VT_At-Large"
     inkscape:connector-curvature="0" />
</svg>
