<?xml version="1.0" encoding="UTF-8" standalone="no"?>
<svg
   xmlns:dc="http://purl.org/dc/elements/1.1/"
   xmlns:cc="http://creativecommons.org/ns#"
   xmlns:rdf="http://www.w3.org/1999/02/22-rdf-syntax-ns#"
   xmlns:svg="http://www.w3.org/2000/svg"
   xmlns="http://www.w3.org/2000/svg"
   xmlns:sodipodi="http://sodipodi.sourceforge.net/DTD/sodipodi-0.dtd"
   xmlns:inkscape="http://www.inkscape.org/namespaces/inkscape"
   version="1.0"
   width="105.00743"
   height="102.73891"
   id="svg2"
   sodipodi:docname="WA_2.svg"
   inkscape:version="0.92.2 5c3e80d, 2017-08-06">
  <metadata
     id="metadata16">
    <rdf:RDF>
      <cc:Work
         rdf:about="">
        <dc:format>image/svg+xml</dc:format>
        <dc:type
           rdf:resource="http://purl.org/dc/dcmitype/StillImage" />
      </cc:Work>
    </rdf:RDF>
  </metadata>
  <defs
     id="defs14" />
  <sodipodi:namedview
     pagecolor="#ffffff"
     bordercolor="#666666"
     borderopacity="1"
     objecttolerance="10"
     gridtolerance="10"
     guidetolerance="10"
     inkscape:pageopacity="0"
     inkscape:pageshadow="2"
     inkscape:window-width="640"
     inkscape:window-height="480"
     id="namedview12"
     showgrid="false"
     inkscape:zoom="0.12542268"
     inkscape:cx="1091.4991"
     inkscape:cy="-666.54458"
     inkscape:window-x="0"
     inkscape:window-y="0"
     inkscape:window-maximized="0"
     inkscape:current-layer="svg2" />
  <path
     d="m 24.5106,0 -1.71911,0.7443564 c -0.94036,0.4162562 -1.7015,0.9616512 -1.70139,1.2051482 0,0.243498 0.63791,0.678273 1.41782,0.974753 l 1.41783,0.549406 v 0.549406 c -10e-6,0.301953 -0.51036,0.909857 -1.13426,1.34693 l -1.13426,0.779802 2.26852,2.055842 v 2.7115844 l 1.86089,2.835643 -0.60258,1.258317 c -0.32876,0.68768 -0.74101,1.706453 -0.92158,2.268515 L 23.94347,18.307624 25.06,17.616436 v 1.187425 h 1.16971 L 25.06,16.62396 26.54872,15.454257 c 0.82108,-0.645849 1.6969,-1.187425 1.9495,-1.187425 0.25248,-1e-6 1.18371,0.61437 2.05584,1.364653 l 1.57733,1.364654 -1.96723,2.179901 v 4.271188 l 2.23307,2.853366 -1.20515,2.268515 -2.46346,-0.478515 -0.17723,4.962376 -1.34693,1.612772 -2.14446,-1.15198 v -2.516634 l -1.98495,-1.205148 -1.45326,0.07089 c -0.79552,0.04245 -1.75254,0.265001 -2.12674,0.496238 -0.37414,0.231238 -0.67358,0.655584 -0.67346,0.939307 v 0.51396 l 1.57732,-0.602574 0.81525,1.311485 -0.62029,0.63802 c -0.34709,0.347128 -0.63814,0.959157 -0.63802,1.364653 v 0.726634 h 3.17237 l 0.67347,-0.673466 c 0.37431,-0.374303 0.71081,-0.565712 0.72663,-0.425346 0.0156,0.140366 0.11759,1.322584 0.2304,2.62297 l 0.19495,2.357129 4.00534,3.77495 1.13426,3.012871 -2.19762,1.984951 -2.16218,-1.949505 -0.67347,1.098812 -2.1799,-0.567129 -1.09881,3.934455 0.6203,3.190099 3.79267,3.792673 v -0.549405 c 0,-0.303908 -0.27667,-0.726861 -0.6203,-0.939307 -0.34373,-0.212447 -0.99346,-1.245863 -1.43554,-2.303961 l -0.79752,-1.931782 2.49891,-3.385049 h 2.00267 l 1.09881,4.005346 -1.0102,3.509109 1.18743,2.339406 c 0.64852,1.290388 1.57072,2.797946 2.05584,3.349604 l 0.88614,1.010198 -1.04564,4.218019 -3.68634,0.354456 v 0.443069 c -10e-6,0.237786 0.66598,1.051525 1.48871,1.807723 l 1.50644,1.364653 0.9436,-1.662208 4.24917,5.58379 3.15465,-0.607423 1.96723,2.179901 -2.53436,2.073564 -0.0489,1.888312 c 6.57384,1.156959 11.19258,2.167282 16.49561,3.764135 -0.55567,5.841806 -1.99128,9.903441 -3.50053,14.260481 l 2.40171,-0.63055 3.36733,3.615442 v 1.57733 h 2.30396 l 4.21802,-2.10901 5.35228,-0.779802 2.87109,-1.08109 v -4.62564 l 3.20782,-1.22288 -0.85069,-4.643362 1.79,-1.98495 -2.37486,-2.55208 -0.0709,-5.299108 3.10149,-3.686337 -0.35446,-2.62297 1.50644,-0.584852 c 0.82233,-0.312652 2.21832,-0.567128 3.11921,-0.567128 h 1.64821 l 2.88882,-1.311485 -0.47908,-1.94148 c 0,0 2.76171,-1.146202 2.88993,-1.222316 -1.61177,-3.3233 -2.88141,-6.744351 -2.97798,-9.578877 l -1.86089,-0.708911 1.87861,-2.073565 -0.72663,-1.914059 1.9495,-2.144455 -0.0817,-3.618619 4.09507,-0.439896 1.13593,-1.368944 5.23625,-0.04888 0.35445,2.552079 h 3.72178 l 1.16486,-3.430194 -2.24912,-0.02146 -1.11336,-3.229836 6.89416,-4.696534 -2.48119,-5.121881 1.34693,-3.58 -1.11653,-1.116535 v -3.119208 l 1.4764,-1.14713 -0.63541,-0.895839 -2.61383,0.642312 -1.18575,-2.533798 0.42535,-1.089671 z m -15.50743,13.079406 -1.13425,1.134257 1.48871,1.807723 1.13426,-1.134257 z m -8.3297,0.05317 v 0.673466 c 0,0.372833 0.67894,1.387033 1.50644,2.250792 l 1.50643,1.577326 0.47852,-0.301287 c 0.26421,-0.163277 0.47851,-0.543002 0.47851,-0.850693 0,-0.307689 -0.63447,-1.183881 -1.4001,-1.949505 C 2.47765,13.767053 1.58442,13.132576 1.25832,13.132576 Z m 22.68515,1.612773 -1.41782,0.460792 -0.37218,1.896336 h 1.79 z m -10.49188,0.08861 -5.58268,4.253466 -0.19495,2.605247 1.80773,1.116535 -2.14446,-0.31901 -1.04564,-1.949505 C 5.13031,19.464599 4.29496,18.364026 3.84585,18.112672 L 3.0306,17.669603 1.8609,17.846831 c -0.64035,0.09772 -1.31118,0.33645 -1.50644,0.531683 L 0,18.732969 l 0.92159,1.488713 0.10634,4.785148 4.41297,4.288911 4.21802,1.896337 1.29376,2.42802 3.61544,-0.354456 0.0532,-3.13693 2.44574,-1.719109 -0.58485,-1.541881 1.20515,-0.76208 -0.70891,-4.466138 h 0.53168 c 0.29214,0 1.02503,-0.367416 1.6305,-0.815248 l 1.09881,-0.815247 -5.05099,-5.17505 z m 10.72227,4.147129 c -0.0251,0.0044 -0.0542,0.01881 -0.0709,0.03545 -0.1331,0.133123 0.10348,0.77825 0.51396,1.435544 l 0.74436,1.205149 0.3899,-1.187426 -0.70891,-0.850693 C 24.11983,19.212297 23.76473,18.950229 23.589,18.981092 Z m -3.20782,3.77495 -1.5596,1.293763 v 3.828119 h 2.14445 l 0.44307,-0.992476 c 0.23854,-0.54586 0.3624,-1.375287 0.28357,-1.843168 -0.0788,-0.467881 -0.40298,-1.165857 -0.72664,-1.559604 z m 2.74703,3.438218 -0.44307,0.708911 c -0.24347,0.383288 -0.45602,0.868845 -0.46079,1.081089 -0.005,0.212246 0.57422,0.472758 1.27604,0.584852 0.70182,0.112093 1.35295,0.14936 1.45327,0.08861 0.10032,-0.06075 -0.26133,-0.629158 -0.81525,-1.276039 z m -3.66861,10.119703 -0.69119,1.311485 c -0.38299,0.720517 -1.79028,2.440384 -3.13693,3.810396 -1.34659,1.370013 -2.6114,2.967512 -2.8002,3.562277 l -0.33673,1.081089 1.02792,1.541881 c 0.57172,0.84251 1.19551,1.908485 1.38238,2.374852 l 0.33673,0.850693 h 2.16218 l -0.10634,1.98495 c -0.0549,1.091723 -0.20706,3.133386 -0.35446,4.53703 l -0.26584,2.552079 1.6305,1.843168 -0.33673,1.559604 h 3.40277 l 0.0709,3.828119 2.12673,1.559604 2.62297,-2.463465 v -4.73198 l -1.20515,-1.08109 c -0.66688,-0.594209 -1.57369,-1.910514 -2.00267,-2.924257 l -0.7798,-1.843168 h -1.22287 l -0.30129,1.134257 c -0.16316,0.623842 -0.48277,1.134258 -0.72663,1.134258 h -0.44307 l 0.1595,-9.729802 -2.35713,-1.914059 0.46079,-1.400099 h 1.55961 l 1.18742,-1.984951 1.64822,2.126733 2.88881,-0.726634 V 43.54485 c 0,-0.419875 -0.57421,-1.498559 -1.27604,-2.392574 l -1.27604,-1.630495 v -2.853367 z"
     style="fill:#b3b3b3;fill-opacity:1"
     id="WA_2"
     inkscape:connector-curvature="0" />
</svg>
