<?xml version="1.0" encoding="UTF-8" standalone="no"?>
<svg
   xmlns:dc="http://purl.org/dc/elements/1.1/"
   xmlns:cc="http://creativecommons.org/ns#"
   xmlns:rdf="http://www.w3.org/1999/02/22-rdf-syntax-ns#"
   xmlns:svg="http://www.w3.org/2000/svg"
   xmlns="http://www.w3.org/2000/svg"
   xmlns:sodipodi="http://sodipodi.sourceforge.net/DTD/sodipodi-0.dtd"
   xmlns:inkscape="http://www.inkscape.org/namespaces/inkscape"
   version="1.0"
   width="35.16198"
   height="37.557991"
   id="svg2"
   sodipodi:docname="WA_9.svg"
   inkscape:version="0.92.2 5c3e80d, 2017-08-06">
  <metadata
     id="metadata72">
    <rdf:RDF>
      <cc:Work
         rdf:about="">
        <dc:format>image/svg+xml</dc:format>
        <dc:type
           rdf:resource="http://purl.org/dc/dcmitype/StillImage" />
      </cc:Work>
    </rdf:RDF>
  </metadata>
  <defs
     id="defs70" />
  <sodipodi:namedview
     pagecolor="#ffffff"
     bordercolor="#666666"
     borderopacity="1"
     objecttolerance="10"
     gridtolerance="10"
     guidetolerance="10"
     inkscape:pageopacity="0"
     inkscape:pageshadow="2"
     inkscape:window-width="640"
     inkscape:window-height="480"
     id="namedview68"
     showgrid="false"
     inkscape:zoom="0.12542268"
     inkscape:cx="1100.4668"
     inkscape:cy="-637.0639"
     inkscape:window-x="0"
     inkscape:window-y="0"
     inkscape:window-maximized="0"
     inkscape:current-layer="svg2" />
  <path
     d="M 17.86456,37.55799 15.31248,36.06364 C 13.90883,35.24175 12.21051,34.07423 11.53841,33.46915 L 10.31636,32.369 6.31368,32.71386 4.08157,29.87619 4.85632,28.47684 C 5.28247,27.7072 5.64015,26.78369 5.65121,26.4246 L 5.67131,25.77171 2.12614,23.9554 1.53129,22.56056 2.72819,21.52927 2e-5,19.94848 l 0.003,-0.68896 c 0.002,-0.37892 0.26167,-1.61975 0.57768,-2.75738 l 0.5745,-2.06843 2.98786,-1.9577 0.975,1.29263 1.11556,0.96482 1.67222,-0.36779 0.78882,-3.16778 1.78453,-1.31724 0.45461,0.28095 c 0.24999,0.15452 1.09093,1.289 1.86869,2.52108 0.77782,1.23207 2.42629,3.25228 3.66337,4.48936 l 2.24923,2.24922 h 2.24549 L 23.32222,14.79207 21.59276,12.1526 23.26613,10.76383 21.99009,9.22636 27.50558,8.36225 27.78915,0 29.24576,1.20889 33.40423,0.27101 34.283,1.24208 c 0.48336,0.53408 0.87882,1.17804 0.87882,1.43102 0,0.25297 -0.37334,0.74329 -0.82965,1.0896 l -0.82971,0.62965 -3.60081,8.50693 -0.52568,4.82493 -3.17972,2.26418 h -2.31269 l -1.73496,2.47703 0.68226,2.71835 -2.60556,3.52422 -0.50815,2.30396 c -0.27948,1.26717 -0.55545,3.17531 -0.61329,4.24028 l -0.10521,1.93633 z"
     style="fill:#b3b3b3;fill-opacity:1"
     id="WA_9"
     inkscape:connector-curvature="0" />
</svg>
