<?xml version="1.0" encoding="UTF-8" standalone="no"?>
<svg
   xmlns:dc="http://purl.org/dc/elements/1.1/"
   xmlns:cc="http://creativecommons.org/ns#"
   xmlns:rdf="http://www.w3.org/1999/02/22-rdf-syntax-ns#"
   xmlns:svg="http://www.w3.org/2000/svg"
   xmlns="http://www.w3.org/2000/svg"
   xmlns:sodipodi="http://sodipodi.sourceforge.net/DTD/sodipodi-0.dtd"
   xmlns:inkscape="http://www.inkscape.org/namespaces/inkscape"
   version="1.0"
   width="138.858"
   height="120.39607"
   id="svg2"
   sodipodi:docname="WV_1.svg"
   inkscape:version="0.92.2 5c3e80d, 2017-08-06">
  <metadata
     id="metadata8">
    <rdf:RDF>
      <cc:Work
         rdf:about="">
        <dc:format>image/svg+xml</dc:format>
        <dc:type
           rdf:resource="http://purl.org/dc/dcmitype/StillImage" />
      </cc:Work>
    </rdf:RDF>
  </metadata>
  <defs
     id="defs6" />
  <sodipodi:namedview
     pagecolor="#ffffff"
     bordercolor="#666666"
     borderopacity="1"
     objecttolerance="10"
     gridtolerance="10"
     guidetolerance="10"
     inkscape:pageopacity="0"
     inkscape:pageshadow="2"
     inkscape:window-width="640"
     inkscape:window-height="480"
     id="namedview4"
     showgrid="false"
     inkscape:zoom="0.12542268"
     inkscape:cx="-731.99685"
     inkscape:cy="-110.20905"
     inkscape:window-x="0"
     inkscape:window-y="0"
     inkscape:window-maximized="0"
     inkscape:current-layer="svg2" />
  <path
     d="m 38.3397,0 c -0.5374,0.25655 -1.1491,0.82151 -1.4409,1.47627 l -1.8077,-0.69119 -1.8609,2.85337 1.4001,1.54188 c 0.768,0.84385 1.8147,2.21924 2.3394,3.06604 l 0.957,1.54188 v 5.17505 l 1.7014,4.07624 v 4.25349 l -1.595,1.32918 -0.3722,2.37485 c -0.6435,6.34714 -0.2937,12.75603 -0.4253,19.1229 h -2.2154 l 1.7368,2.48119 -1.3469,1.61275 0.319,3.65089 -1.8077,1.50646 3.6509,3.50911 -1.9141,1.08106 v 4.90924 l -2.8533,1.1697 -5.689,8.13472 -1.2583,4.18258 -2.1268,0.54943 -1.7014,4.07624 h -1.914 l -4.1826,4.09393 -2.2154,-0.70891 -1.2937,-2.81789 H 10.74 l -3.5445,4.67881 0.6557,4.39525 -5.6536,1.25829 v 2.81794 L 0,99.4832 l 0.7621,1.82547 c 0.4176,0.99946 0.7869,1.99913 0.8153,2.23307 0.028,0.23394 0.053,0.63116 0.053,0.88614 v 0.46079 l 7.674,2.49889 4.8206,-6.61057 7.0142,-5.99602 -0.9176,3.51483 h 1.6305 l 2.3217,2.55208 0.7621,3.22555 c 1.2447,-0.94387 3.9572,-1.39843 6.646,-1.86092 l 0.7443,1.18745 h 2.4103 l 3.1901,3.04832 v 1.31148 c 0,0.71697 0.3052,2.4158 0.6735,3.79268 l 0.6735,2.51663 -2.1611,3.73834 4.5359,2.58866 11.4844,-12.86673 1.8609,-0.63802 1.2228,-1.22284 -6.6637,-4.90924 -0.957,-5.1573 c 2.0188,-2.77541 3.388,-4.25913 6.0611,-6.3802 l 1.7014,0.26582 c 4.6364,0.5344 9.3122,0.64176 13.9656,0.95703 l 1.4178,-1.1874 4.1649,1.15195 1.2583,2.33941 3.4559,-0.69116 1.5419,1.27604 v 2.46343 l -1.3646,1.36469 h 0.9038 c 2.4921,-0.58863 4.7876,-1.73468 7.1245,-2.76476 l 0.4963,-6.91188 2.5521,-2.51663 1.0988,1.34693 c 0.6048,0.7363 1.0988,1.677 1.0988,2.09129 v 0.74435 l 2.4103,0.31901 c 1.3256,0.17848 4.5795,0.38327 7.2309,0.44304 2.6513,0.0597 6.2052,-0.0596 7.9043,-0.26581 l 3.1015,-0.37221 0.5849,0.47855 c 3.6532,2.23777 7.4835,4.19193 11.2362,6.25611 l 0.4431,-0.28357 c 0.247,-0.15267 0.6314,-1.35209 0.8507,-2.67611 0.2193,-1.32407 0.6389,-2.88464 0.9393,-3.45597 l 0.5494,-1.02792 -1.3824,-2.09128 c -0.7599,-1.14838 -1.5491,-2.61373 -1.7546,-3.26099 l -0.3721,-1.1874 2.1976,-12.93762 1.5419,-2.83565 c 0.855,-1.5596 1.997,-3.34606 2.5344,-3.9699 l 0.9747,-1.13426 0.6912,-2.26851 c 0.3756,-1.24768 1.6743,-4.24638 2.8888,-6.66376 l 2.2154,-4.39525 -6.7701,-2.19762 c -0.8617,3.66745 -3.9097,6.54058 -4.6789,10.2969 -0.3732,0.54972 -0.718,0.89549 -1.471,1.06336 l -1.8963,-0.53168 -1.8963,-0.51393 -1.4533,0.49624 -0.8507,2.05584 c -0.4723,1.13017 -1.0439,2.19019 -1.276,2.3571 -1.6986,1.9199 -3.1214,4.07227 -4.6434,6.13208 v 1.80772 l -2.8357,0.70891 v 0.51399 c 0,0.27806 -0.3978,0.94285 -0.8861,1.48871 -0.4883,0.54586 -1.4506,1.88571 -2.1444,2.97743 l -1.2761,1.98495 -1.5419,0.93928 L 98.4322,45.4465 49.9781,55.77885 Z"
     style="fill:#b3b3b3;fill-opacity:1"
     id="WV_1"
     inkscape:connector-curvature="0" />
</svg>
