<?xml version="1.0" encoding="UTF-8" standalone="no"?>
<svg
   xmlns:dc="http://purl.org/dc/elements/1.1/"
   xmlns:cc="http://creativecommons.org/ns#"
   xmlns:rdf="http://www.w3.org/1999/02/22-rdf-syntax-ns#"
   xmlns:svg="http://www.w3.org/2000/svg"
   xmlns="http://www.w3.org/2000/svg"
   xmlns:sodipodi="http://sodipodi.sourceforge.net/DTD/sodipodi-0.dtd"
   xmlns:inkscape="http://www.inkscape.org/namespaces/inkscape"
   version="1.0"
   width="96.783997"
   height="109.0128"
   id="svg2"
   sodipodi:docname="AL_1.svg"
   inkscape:version="0.92.2 5c3e80d, 2017-08-06">
  <metadata
     id="metadata83">
    <rdf:RDF>
      <cc:Work
         rdf:about="">
        <dc:format>image/svg+xml</dc:format>
        <dc:type
           rdf:resource="http://purl.org/dc/dcmitype/StillImage" />
        <dc:title />
      </cc:Work>
    </rdf:RDF>
  </metadata>
  <defs
     id="defs81" />
  <sodipodi:namedview
     pagecolor="#ffffff"
     bordercolor="#666666"
     borderopacity="1"
     objecttolerance="10"
     gridtolerance="10"
     guidetolerance="10"
     inkscape:pageopacity="0"
     inkscape:pageshadow="2"
     inkscape:window-width="640"
     inkscape:window-height="480"
     id="namedview79"
     showgrid="false"
     fit-margin-top="0"
     fit-margin-left="0"
     fit-margin-right="0"
     fit-margin-bottom="0"
     inkscape:zoom="0.12542268"
     inkscape:cx="-472.44685"
     inkscape:cy="468.84707"
     inkscape:window-x="0"
     inkscape:window-y="0"
     inkscape:window-maximized="0"
     inkscape:current-layer="svg2" />
  <path
     d="M 38.2989,0 23.1105,2.0382 23.6777,3.5269 28.0906,2.818 27.9182,5.1729 c -2.1406,0.5857 -2.5175,1.206 -4.3469,2.4834 l -1.5773,-1.3115 -1.3292,3.2078 0.6997,2.1337 2.6789,2.7187 6.8829,4.647 v 3.0484 l -3.3496,1.4 -2.2679,3.1625 -4.201,-5.5019 -2.1125,1.1824 L 18.1998,20.9995 0,23.5004 l 12.9731,79.7348 3.7749,-0.6026 v 1.1874 l 3.2788,-1.2406 3.8103,1.1166 -0.1417,1.8432 3.2078,-0.1064 0.2836,-1.471 c 0.1557,-0.8107 0.254,-4.3534 0.2127,-7.8689 l -0.071,-6.3802 1.276,-1.276 -0.6558,-3.2256 1.8432,-0.7089 v -0.7443 c 0,-0.4161 0.2379,-0.9173 0.5317,-1.0989 l 0.5317,-0.319 4.5547,1.4179 0.5317,1.1342 c 0.2909,0.6304 0.8346,2.1728 1.2052,3.4205 l 0.6734,2.2686 -1.1342,2.9596 1.8786,5.246 1.7014,0.6912 c 0.941,0.3827 2.4085,1.3499 3.261,2.1444 0.8522,0.7946 2.1961,2.0072 2.9774,2.6939 l 1.4178,1.2406 -0.6734,1.7368 -2.1977,0.6026 c -1.2156,0.3273 -2.2153,0.7067 -2.2153,0.8507 0,0.1439 0.4516,0.2658 1.0102,0.2658 0.5584,0 3.3513,-0.7593 6.203,-1.6837 2.8516,-0.9243 6.3127,-2.2053 7.6916,-2.8533 l 2.5167,-1.1874 -0.514,-2.6762 2.1445,-0.6734 0.6734,-2.5521 0.6912,-2.5521 h 0.7798 c 0.4309,0 1.0804,-0.3519 1.4356,-0.7798 l 0.638,-0.7798 -3.2256,-0.638 -1.7722,-4.5193 0.7975,-1.5419 c 0.437,-0.8424 0.9217,-2.2685 1.0811,-3.1724 l 0.2835,-1.6482 -1.1874,-2.2154 -5.1751,-1.9495 -8.8436,-8.5955 2.0558,-5.4763 -0.3722,-3.5269 47.0363,-6.3625 -1.4887,-10.6868 -3.6155,0.4254 -0.7443,-4.3953 -35.6228,4.6611 4.1294,-4.4307 c 0,-0.3572 0.9563,-2.552 1.6305,-3.7395 0.6742,-1.1876 2.171,-3.183 3.3319,-4.4307 1.161,-1.2476 2.4363,-2.8721 2.8179,-3.6154 0.3816,-0.7435 0.7945,-2.4024 0.9216,-3.6863 0.1271,-1.2842 0.2947,-3.1803 0.3722,-4.2181 l 0.1418,-1.8963 3.4204,-2.3571 -0.035,-2.8889 2.8888,-0.319 4.9092,-2.9597 -0.9393,-4.4306 -30.4122,4.1471 -0.5849,2.3748 1.1165,5.565 -2.9065,0.3899 1.2583,8.8791 -2.5698,2.4635 0.3899,1.2406 2.9242,0.2481 0.3368,1.5064 -2.2154,4.5725 -2.9774,-1.5242 c -0.3906,1.0869 -1.2594,1.6648 -2.1267,2.3572 -0.5902,1.2006 -0.6202,2.1255 0,3.8103 l -1.5064,0.1418 -1.4002,-1.5242 -0.1772,1.8964 -1.5596,1.6305 2.9243,3.1547 -3.1547,-0.9394 -1.8077,3.1724 1.4278,1.4278 -6.6837,1.7148 0.8784,-3.3198 -3.1192,-0.3545 c -0.3847,-1.4929 0.3409,-1.0347 1.8972,-1.5205 0.089,-0.4446 -0.179,-1.5333 0.085,-2.1571 l 2.502,-3.6596 -0.6734,-1.7546 -2.8583,2.3019 1.9172,-4.5301 -1.1325,-1.3834 1.337,-4.7003 2.2239,0.4828 -0.6544,-1.4398 1.7546,-4.3598 2.8282,0.6034 0.6917,-1.0642 h 3.0021 l 0.74,-2.1402 -5.2845,-1.0314 1.8761,-9.4367 1.8311,0.7617 -1.1537,-3.6803 -0.9687,0.042 -0.1219,1.5804 -2.5349,-1.9454 0.069,-2.7766 1.4178,-0.5671 -2.6912,-1.1204 1.1048,-1.8013 1.455,0.6886 0.83,-1.2583 h 1.8535 z"
     style="fill:#D64541"
     id="AL_1"
     inkscape:connector-curvature="0" />
</svg>
