<?xml version="1.0" encoding="UTF-8" standalone="no"?>
<svg
   xmlns:dc="http://purl.org/dc/elements/1.1/"
   xmlns:cc="http://creativecommons.org/ns#"
   xmlns:rdf="http://www.w3.org/1999/02/22-rdf-syntax-ns#"
   xmlns:svg="http://www.w3.org/2000/svg"
   xmlns="http://www.w3.org/2000/svg"
   xmlns:sodipodi="http://sodipodi.sourceforge.net/DTD/sodipodi-0.dtd"
   xmlns:inkscape="http://www.inkscape.org/namespaces/inkscape"
   version="1.0"
   width="89.8899"
   height="162.46468"
   id="svg2"
   sodipodi:docname="AL_3.svg"
   inkscape:version="0.92.2 5c3e80d, 2017-08-06">
  <metadata
     id="metadata21">
    <rdf:RDF>
      <cc:Work
         rdf:about="">
        <dc:format>image/svg+xml</dc:format>
        <dc:type
           rdf:resource="http://purl.org/dc/dcmitype/StillImage" />
      </cc:Work>
    </rdf:RDF>
  </metadata>
  <defs
     id="defs19" />
  <sodipodi:namedview
     pagecolor="#ffffff"
     bordercolor="#666666"
     borderopacity="1"
     objecttolerance="10"
     gridtolerance="10"
     guidetolerance="10"
     inkscape:pageopacity="0"
     inkscape:pageshadow="2"
     inkscape:window-width="640"
     inkscape:window-height="480"
     id="namedview17"
     showgrid="false"
     inkscape:zoom="0.12542268"
     inkscape:cx="-561.22025"
     inkscape:cy="351.06157"
     inkscape:window-x="0"
     inkscape:window-y="0"
     inkscape:window-maximized="0"
     inkscape:current-layer="svg2" />
  <path
     d="m 37.3419,0 -2.0027,1.80772 c 0.2296,3.04497 -0.715,5.43899 -2.5875,7.83346 l -5.689,7.83347 -1.5419,0.19498 -0.3013,1.70138 h -1.471 l 1.3469,7.46126 2.6762,-1.52416 -0.638,1.48872 4.6256,7.39045 v 3.3141 l -6.5929,-0.1772 -1.3469,0.833 v 2.1976 l -3.261,-0.018 -0.9747,3.3674 c -1.2796,0.1947 -2.458,0.8963 -3.1015,4.2712 l 1.7545,1.9317 -4.6256,4.5016 v 2.3926 c -2.3052,-0.5441 -1.2014,-1.1989 -3.0306,-1.1342 l 2.5698,2.747 -0.7444,3.4205 -1.8254,0.3545 2.0913,2.1089 c -1.0841,1.4711 -1.8438,2.942 -2.4281,4.413 l -1.3291,-0.035 -0.5495,-0.6735 -2.2153,6.0435 -1.6837,1.2229 2.3394,2.1267 -1.276,1.5241 0.6558,2.4458 -4.4839,4.6788 v 2.5166 H 0 v 0.6735 l 2.6407,3.1723 -1.2051,1.347 14.8162,-2.2862 3.704,2.2507 -1.4178,1.4533 h -2.2862 l -3.3673,5.3168 1.3291,2.8002 -2.9596,4.4662 0.6911,6.5219 23.8549,-3.704 c -0.079,1.9941 -0.4132,4.0646 -1.471,4.5902 0.2971,0.9426 0.5656,1.7217 1.7723,1.7546 0.7243,6.6652 2.1756,9.0102 2.1799,13.3275 l -3.1192,-0.2127 v 1.0811 l -2.8534,-0.7089 0.6026,1.5596 -3.7041,1.8786 c -1.5134,0.1641 -2.5326,-0.2759 -3.2964,-1.0279 l -1.6128,1.3292 -1.3469,-1.3647 1.3115,8.2411 -3.6155,1.6305 -5.689,-3.3673 0.071,4.0939 -2.1267,3.6155 1.8077,11.1122 5.3877,-0.6026 0.6735,4.9624 15.8087,-2.304 -2.9242,-18.8216 4.856,-0.7443 0.3367,-2.3394 1.9318,1.9495 -0.638,1.6659 1.7191,0.6381 21.8167,-2.9598 1.0102,4.9978 8.4892,-1.4887 4.8029,4.5903 5.9017,-0.9925 -0.8861,-3.9345 0.9392,-1.5596 c 0.5204,-0.8595 1.9946,-2.5173 3.261,-3.6863 l 2.304,-2.1267 0.3899,-2.1091 -1.985,-1.0634 c -1.0868,-0.5895 -2.4267,-1.081 -2.9774,-1.081 h -0.9925 v -2.7648 l 1.0811,-0.6734 -0.3544,-3.8459 -1.8609,-1.8609 v -2.7116 l -5.0333,-4.2002 -0.6557,-2.6585 h -1.1166 l -0.018,-0.9924 c -0.01,-0.5459 -0.3928,-1.486 -0.8507,-2.0913 l -0.833,-1.0988 v -2.0559 h -1.1342 v -2.0913 l -2.2685,-2.0558 v -2.0913 h -1.0634 z"
     style="fill:#D64541"
     id="AL_3"
     inkscape:connector-curvature="0" />
</svg>
