<?xml version="1.0" encoding="UTF-8" standalone="no"?>
<svg
   xmlns:dc="http://purl.org/dc/elements/1.1/"
   xmlns:cc="http://creativecommons.org/ns#"
   xmlns:rdf="http://www.w3.org/1999/02/22-rdf-syntax-ns#"
   xmlns:svg="http://www.w3.org/2000/svg"
   xmlns="http://www.w3.org/2000/svg"
   xmlns:sodipodi="http://sodipodi.sourceforge.net/DTD/sodipodi-0.dtd"
   xmlns:inkscape="http://www.inkscape.org/namespaces/inkscape"
   version="1.0"
   width="131.9039"
   height="127.7738"
   id="svg2"
   sodipodi:docname="AL_4.svg"
   inkscape:version="0.92.2 5c3e80d, 2017-08-06">
  <metadata
     id="metadata8">
    <rdf:RDF>
      <cc:Work
         rdf:about="">
        <dc:format>image/svg+xml</dc:format>
        <dc:type
           rdf:resource="http://purl.org/dc/dcmitype/StillImage" />
      </cc:Work>
    </rdf:RDF>
  </metadata>
  <defs
     id="defs6" />
  <sodipodi:namedview
     pagecolor="#ffffff"
     bordercolor="#666666"
     borderopacity="1"
     objecttolerance="10"
     gridtolerance="10"
     guidetolerance="10"
     inkscape:pageopacity="0"
     inkscape:pageshadow="2"
     inkscape:window-width="640"
     inkscape:window-height="480"
     id="namedview4"
     showgrid="false"
     inkscape:zoom="0.12542268"
     inkscape:cx="-466.49055"
     inkscape:cy="296.48387"
     inkscape:window-x="0"
     inkscape:window-y="0"
     inkscape:window-maximized="0"
     inkscape:current-layer="svg2" />
  <path
     d="m 17.0791,127.7734 -2.2738,-1.5552 0.6582,-4.0564 -2.3709,-2.0301 1.6629,-1.8374 -2.5092,-2.3421 -0.042,-2.907 c 0.7234,0.1772 2.2651,-2.0094 3.9771,-4.6881 l -2.0041,-1.4655 0.5238,-3.9519 -2.8085,-0.02 -1.0835,2.0245 -2.1928,-0.5734 1.2618,4.08 -1.0272,1.8325 c -1.5378,0.3917 -3.1835,-0.6728 -4.9432,-3.2775 -0.6928,-0.3505 -1.6353,0.1787 -2.3281,0.6001 L 0,34.21368 l 29.6002,-3.0976 2.897,16.19918 21.313,-2.67668 -1.5218,-17.15348 2.1747,0.55329 v 2.71427 c 1.6333,0.21835 2.9055,0.72548 3.8759,1.47409 l 0.8044,4.28777 1.6526,0.63417 2.4111,-2.4111 c -3.0387,-3.56185 -5.6553,-7.14383 -5.9415,-10.8368 3.5851,1.74131 7.2829,3.1821 11.6539,2.8277 l 3.241,-3.06493 1.7233,2.55207 h 1.5232 l 1.3469,-2.44557 2.2019,0.17706 c 0.6135,3.10667 1.8244,1.36604 2.0394,4.47272 l 3.8093,1.03166 1.2386,-0.95748 0.5927,0.59265 1.8303,-2.79328 3.144,-0.36132 v -4.39644 l 2.2685,-1.42463 5.3877,-0.67919 c 0.1449,3.08813 1.1929,4.73127 3.4028,4.51531 -0.1294,1.66617 0.542,2.65791 1.529,3.38389 l 5.2052,-2.74258 c 0.037,-1.14316 4.7945,-5.92814 8.774,-10.11276 L 121.0087,7.78395 123.1642,6.01848 123.8,1.27876 125.3408,0 l 6.5631,19.40028 -2.3142,2.06786 -0.2656,3.27636 c -0.7814,4.2563 -1.1644,2.00537 -7.6562,12.23768 l -1.8518,0.23025 -0.033,1.48004 h -1.9243 l 1.669,8.68398 2.565,-1.75951 -0.7083,0.86181 4.7584,7.60385 v 3.045 l -6.4716,-0.245 -1.5567,1.042 0.088,1.873 -3.1372,0.044 -0.9187,3.4582 c -1.1761,0.147 -2.1377,0.7586 -2.608,2.4346 l -1.5561,-0.9142 -7.8362,4.1319 0.631,-1.2939 -1.3598,-1.647 -5.5105,-1.1211 -3.7163,4.4641 -0.061,-0.6057 c -2.1539,1.4329 -4.5673,2.6091 -6.6055,2.5369 l -0.3044,2.5687 -2.5216,0.2656 -6.6523,-3.6683 h -6.1178 l -5.5075,4.537 h -1.7835 l -0.1516,6.8498 -1.3387,-0.044 0.6529,1.7014 H 60.134 v 2.2685 h -2.8356 v 1.1343 l -1.9897,0.5755 -0.051,2.9832 0.897,0.7991 c -0.7469,0.8338 -1.7256,0.9726 -2.8258,0.7464 v 1.6657 l -1.2588,-0.52 -0.6639,1.2998 h -1.6129 l -0.408,-4.1909 c -1.725,0.067 -3.2701,-0.013 -3.7126,-0.9951 l -12.7604,1.2677 v 1.5084 l -1.8105,0.6947 0.6451,3.2258 -9.1132,1.2384 3.4344,22.9218 c -3.7275,1.7384 -6.1164,4.8484 -8.9894,7.6549 z"
     style="fill:#D64541"
     id="AL_4"
     inkscape:connector-curvature="0" />
</svg>
