<?xml version="1.0" encoding="UTF-8" standalone="no"?>
<svg
   xmlns:dc="http://purl.org/dc/elements/1.1/"
   xmlns:cc="http://creativecommons.org/ns#"
   xmlns:rdf="http://www.w3.org/1999/02/22-rdf-syntax-ns#"
   xmlns:svg="http://www.w3.org/2000/svg"
   xmlns="http://www.w3.org/2000/svg"
   xmlns:sodipodi="http://sodipodi.sourceforge.net/DTD/sodipodi-0.dtd"
   xmlns:inkscape="http://www.inkscape.org/namespaces/inkscape"
   version="1.0"
   width="84.785698"
   height="161.22411"
   id="svg2"
   sodipodi:docname="AL_7.svg"
   inkscape:version="0.92.2 5c3e80d, 2017-08-06">
  <metadata
     id="metadata50">
    <rdf:RDF>
      <cc:Work
         rdf:about="">
        <dc:format>image/svg+xml</dc:format>
        <dc:type
           rdf:resource="http://purl.org/dc/dcmitype/StillImage" />
      </cc:Work>
    </rdf:RDF>
  </metadata>
  <defs
     id="defs48" />
  <sodipodi:namedview
     pagecolor="#ffffff"
     bordercolor="#666666"
     borderopacity="1"
     objecttolerance="10"
     gridtolerance="10"
     guidetolerance="10"
     inkscape:pageopacity="0"
     inkscape:pageshadow="2"
     inkscape:window-width="640"
     inkscape:window-height="480"
     id="namedview46"
     showgrid="false"
     inkscape:zoom="0.12542268"
     inkscape:cx="-468.06935"
     inkscape:cy="410.59237"
     inkscape:window-x="0"
     inkscape:window-y="0"
     inkscape:window-maximized="0"
     inkscape:current-layer="svg2" />
  <path
     d="M 78.4587,0 76.2966,5.3878 72.7697,6.3625 68.3213,2.8357 66.3186,2.7647 65.3261,3.7572 V 5.299 l 4.0763,1.4887 -0.3545,3.137 -3.6686,0.089 c 0.2337,0.6555 0.7615,1.3116 2.3394,1.9672 l -2.6584,2.7825 1.4355,2.3217 c -1.0902,1.6639 -2.195,3.3167 -5.6889,3.899 -2.7905,3.011 -3.9665,3.5698 -4.6789,3.4028 l -2.1976,3.261 -0.053,2.8887 -5.7776,2.7116 -2.109,-3.3318 c -1.1457,-0.1148 -1.9464,0.7808 -2.7293,1.7545 l -3.0306,0.6203 -3.1369,2.304 -2.2154,-3.0661 h -1.5064 c 0.1055,0.9269 0.4039,2.0087 1.3646,3.6687 -0.6261,-0.6756 -3.9702,2.5061 -7.2309,5.4231 l -2.7824,0.1595 -0.2836,-0.6557 c -1.8991,0.5645 -5.7803,4.4086 -8.9677,7.5499 l -2.8534,-1.8609 0.6735,-4.1472 -2.3926,-2.1444 1.7369,-1.914 -2.2863,-2.0559 v -3.7927 c 0.9321,0.6362 2.2975,-2.0611 3.58,-4.1116 l -1.8077,-1.0103 0.638,-3.9521 h -2.1444 l -1.3824,2.233 -1.666,-0.638 1.0457,3.6509 -1.1343,2.1267 C 5.0661,30.2195 3.2735,29.1509 2.0915,26.8503 1.2952,26.9233 0.6489,27.1563 2e-4,27.6655 l 2.0381,93.0269 2.2154,12.6009 18.4316,-2.4103 0.7976,1.2583 2.1267,-1.1342 4.0231,5.1041 1.7368,-2.2508 3.3673,-1.7545 v -2.1977 l -6.5928,-4.8383 -2.8002,-2.8711 -0.833,-2.5343 1.79,-3.4737 1.6482,1.3646 c 1.3957,-1.2733 2.6769,-1.8415 3.9522,-2.3925 v -1.276 l -4.3775,0.7443 -0.638,-2.4103 16.3581,-2.2862 v 2.9242 h -2.1977 l -0.7443,1.2052 -1.5596,-0.5849 -0.7089,1.152 3.066,1.2761 -1.8254,0.9924 v 2.0559 l 1.7013,1.4178 v -1.276 h 1.5951 l 1.471,4.7497 -2.1445,-0.7976 -1.7899,8.312 5.4054,1.0988 -0.9925,2.8534 -3.0483,0.053 -0.7089,1.1342 -2.623,-0.514 -1.6127,3.8105 0.9924,1.8786 -2.6584,-0.3722 -1.1165,4.3598 1.0988,1.0988 -1.4179,3.1546 1.8078,-1.4 1.152,2.1621 -2.9066,4.5725 c 0.093,0.5794 0.1655,1.1585 0.1241,1.7545 l -1.985,0.5317 3.3497,0.3545 -0.9216,3.3319 5.4586,-1.2938 -1.2584,-1.2583 2.2331,-3.7749 1.9141,0.6911 -2.109,-2.4103 1.8254,-1.8254 v -2.1976 h 0.5849 c 0.9163,0.5281 1.1222,1.848 2.3748,1.7014 -0.679,-1.1477 -0.2206,-2.4883 0.071,-3.7573 1.4619,-0.5561 1.905,-1.548 2.5167,-2.7116 l 2.8356,1.5065 1.8609,-4.1649 -0.6735,-1.0811 h -2.2331 l -0.638,-1.6482 2.4281,-2.5875 -1.0812,-9.0918 2.5699,-0.3367 -1.0634,-5.7777 0.6203,-2.4634 30.8376,-4.1826 -0.9216,-7.8512 2.5875,-0.8329 -0.8329,-4.3598 h -2.4989 l -1.347,-11.2186 4.0231,-0.7443 -2.5166,-2.0381 c 1.2241,-1.3133 0.8943,-2.492 0.6911,-3.6864 l 1.8432,-2.0381 -2.8888,-2.8888 0.7621,-1.6305 -1.3292,-0.1418 -3.4028,-5.9548 c 1.2308,-1.0308 -0.37,-4.1446 -1.8963,-7.2132 l -4.5902,0.5849 -1.6305,-10.6691 -15.7201,2.2685 v -2.4103 l -5.565,0.5317 -0.638,-8.7551 c 1.7669,0.1225 3.6707,-0.095 5.0687,-0.833 l -0.7089,-4.3952 1.5242,-3.1724 4.0762,-0.5317 -0.319,-4.3598 2.4812,-2.7825 2.2862,0.7089 0.6558,-1.7014 3.0483,-0.089 v -1.8787 c 2.4421,-3.2769 4.2195,-6.3346 3.9699,-8.755 l 3.8813,-2.9597 1.7191,-5.1219 h 2.2153 C 78.4042,8.0406 79.1888,6.6399 78.973,5.6532 L 81.7909,2.9593 80.1072,1.5592 V -4e-4 Z"
     style="fill:#D64541"
     id="AL_7"
     inkscape:connector-curvature="0" />
</svg>
