<?xml version="1.0" encoding="UTF-8" standalone="no"?>
<svg
   xmlns:dc="http://purl.org/dc/elements/1.1/"
   xmlns:cc="http://creativecommons.org/ns#"
   xmlns:rdf="http://www.w3.org/1999/02/22-rdf-syntax-ns#"
   xmlns:svg="http://www.w3.org/2000/svg"
   xmlns="http://www.w3.org/2000/svg"
   xmlns:sodipodi="http://sodipodi.sourceforge.net/DTD/sodipodi-0.dtd"
   xmlns:inkscape="http://www.inkscape.org/namespaces/inkscape"
   version="1.0"
   width="115.2689"
   height="85.636391"
   id="svg2"
   sodipodi:docname="AR_2.svg"
   inkscape:version="0.92.2 5c3e80d, 2017-08-06">
  <metadata
     id="metadata16">
    <rdf:RDF>
      <cc:Work
         rdf:about="">
        <dc:format>image/svg+xml</dc:format>
        <dc:type
           rdf:resource="http://purl.org/dc/dcmitype/StillImage" />
      </cc:Work>
    </rdf:RDF>
  </metadata>
  <defs
     id="defs14" />
  <sodipodi:namedview
     pagecolor="#ffffff"
     bordercolor="#666666"
     borderopacity="1"
     objecttolerance="10"
     gridtolerance="10"
     guidetolerance="10"
     inkscape:pageopacity="0"
     inkscape:pageshadow="2"
     inkscape:window-width="640"
     inkscape:window-height="480"
     id="namedview12"
     showgrid="false"
     inkscape:zoom="0.12542268"
     inkscape:cx="-182.80365"
     inkscape:cy="235.75717"
     inkscape:window-x="0"
     inkscape:window-y="0"
     inkscape:window-maximized="0"
     inkscape:current-layer="svg2" />
  <path
     d="M 60.8245,0 C 56.9299,0.0758 54.4064,0.006 50.7403,0.69116 l 0.5848,4.41299 -9.2158,0.45694 0.7443,10.88564 H 40.975 l 1.7172,23.34948 -6.0424,0.15619 -3.1006,1.04034 0.3367,2.25082 -1.4394,0.97665 -2.3178,-1.31341 0.638,-2.53433 -2.2331,0.58482 -0.6911,-1.61274 C 27.4621,38.45274 26.6357,37.13984 26.017,36.43802 l -1.1165,-1.27604 h -2.499 l -1.8608,-2.55208 0.3012,6.23841 -9.3044,0.33671 -3.1724,5.01557 -6.2384,0.0709 L 0,45.88423 l 1.3823,23.18139 15.2062,-1.11651 0.4569,-1.88196 22.118,-1.86086 -0.4569,9.09511 5.1041,-0.5671 v 2.6938 h 3.8459 l 1.5064,5.1042 h 2.5876 v 1.7014 h 2.8356 v 3.4027 l 2.7892,-0.076 1.6238,-2.7595 h 2.8356 c 1.5537,0 3.6155,-0.1595 4.5902,-0.3545 l 1.7723,-0.3544 v -2.5166 l 18.8393,-1.2052 -0.833,-7.47901 h -4.1648 l 1.0279,-9.25128 -0.7975,-14.95802 -2.7293,0.53168 v -3.95221 l 4.8206,-1.13425 3.9522,1.66594 4.537,0.28356 c 0.9458,-0.14348 3.0942,-0.79823 4.7851,-1.45327 l 3.0838,-1.18739 1.4533,0.35445 c 0.8014,0.20105 1.7956,0.69672 2.1976,1.09881 l 0.7266,0.72661 1.4356,-0.54938 -0.4431,-3.79267 6.6283,-0.99248 0.1063,-3.1192 h -0.957 V 33.4607 h 0.514 c 1.3466,-0.98714 2.0101,-2.63301 2.8888,-4.0231 l -0.9216,-1.38237 c -0.5016,-0.76557 -1.1585,-1.40007 -1.471,-1.40007 h -0.5671 l 0.5317,-2.83565 h -0.833 v -2.87109 l 2.9243,-2.28626 0.2303,-1.55961 -5.1041,0.31901 -6.0967,-0.26581 -0.035,-4.67881 c -4.5016,-0.22339 -6.9831,0.0123 -10.2615,0.7266 l 0.7444,4.48389 -2.8888,1.41782 0.6025,5.06872 -20.8065,1.25829 -1.471,-21.58634 -8.6664,0.35445 z"
     style="fill:#D64541"
     id="AR_2"
     inkscape:connector-curvature="0" />
</svg>
