<?xml version="1.0" encoding="UTF-8" standalone="no"?>
<svg
   xmlns:dc="http://purl.org/dc/elements/1.1/"
   xmlns:cc="http://creativecommons.org/ns#"
   xmlns:rdf="http://www.w3.org/1999/02/22-rdf-syntax-ns#"
   xmlns:svg="http://www.w3.org/2000/svg"
   xmlns="http://www.w3.org/2000/svg"
   xmlns:sodipodi="http://sodipodi.sourceforge.net/DTD/sodipodi-0.dtd"
   xmlns:inkscape="http://www.inkscape.org/namespaces/inkscape"
   version="1.0"
   width="183.7675"
   height="150.85628"
   id="svg2"
   sodipodi:docname="AR_4.svg"
   inkscape:version="0.92.2 5c3e80d, 2017-08-06">
  <metadata
     id="metadata32">
    <rdf:RDF>
      <cc:Work
         rdf:about="">
        <dc:format>image/svg+xml</dc:format>
        <dc:type
           rdf:resource="http://purl.org/dc/dcmitype/StillImage" />
      </cc:Work>
    </rdf:RDF>
  </metadata>
  <defs
     id="defs30" />
  <sodipodi:namedview
     pagecolor="#ffffff"
     bordercolor="#666666"
     borderopacity="1"
     objecttolerance="10"
     gridtolerance="10"
     guidetolerance="10"
     inkscape:pageopacity="0"
     inkscape:pageshadow="2"
     inkscape:window-width="640"
     inkscape:window-height="480"
     id="namedview28"
     showgrid="false"
     inkscape:zoom="0.12542268"
     inkscape:cx="-146.64915"
     inkscape:cy="327.06497"
     inkscape:window-x="0"
     inkscape:window-y="0"
     inkscape:window-maximized="0"
     inkscape:current-layer="svg2" />
  <path
     d="m 46.7704,0 -1.4532,2.3394 -2.18,-0.70891 -4.1293,1.9672 -2.2509,-1.40007 c -0.8668,0.94523 -1.8079,1.89041 -4.3243,2.83564 l -2.0913,-2.32171 -0.5671,5.51181 -4.7674,0.35446 -0.3368,5.31683 -5.6751,0.0632 0.89,5.89167 h -5.7068 v 2.86871 l -3.9699,1.84555 v 6.48653 C 6.2715,32.95343 3.7911,32.33197 0,33.99229 l 2.4281,79.8411 1.8254,-0.1241 -0.2836,2.6052 3.4205,1.4356 -0.6025,0.6026 h 4.5547 v -1.0279 l 1.1874,0.7443 1.6305,-1.3646 1.8609,0.7089 1.595,-1.3115 2.7293,1.2406 3.8105,-0.6203 1.3115,1.5596 2.1712,32.5745 c 52.9249,-3.1119 100.0937,-6.7132 147.1431,-10.3147 l 1.1165,-1.1166 1.1343,-1.1342 -0.319,-0.7975 -0.3013,-0.8153 h -0.7621 c -0.4188,0 -1.317,-0.5132 -2.0027,-1.152 l -1.2583,-1.1697 1.2583,-2.3394 1.7901,0.2659 c 0.9835,0.1501 2.1197,0.1603 2.5166,0.018 l 0.7089,-0.2658 -0.6912,-5.3346 1.8077,-1.5064 -0.035,-1.8432 -2.3395,3.1192 -0.4784,-0.2835 c -0.2651,-0.1638 -0.877,-1.0962 -1.3647,-2.0736 l -0.8862,-1.79 v -3.58 l 3.4028,-3.261 -0.089,-2.3394 -0.319,0.8507 c -0.1703,0.4679 -0.9553,1.5525 -1.7546,2.4103 l -1.4532,1.5596 h -0.9748 c -0.5399,0 -1.3852,-0.1475 -1.8786,-0.3368 l -0.9039,-0.3544 v -0.7798 c 0,-0.4345 0.1914,-0.7964 0.4254,-0.7975 0.2339,0 1.2436,-0.5025 2.2508,-1.1166 l 1.8432,-1.1165 -0.319,-0.833 c -0.1736,-0.4523 -0.6868,-0.9625 -1.1343,-1.1342 l -0.8152,-0.3013 0.6734,2.623 -3.4205,1.4178 -1.0988,-0.6735 0.3013,-1.1342 c 0.163,-0.6236 0.4845,-1.1343 0.7266,-1.1343 0.2422,0 0.6106,-0.4417 0.8153,-0.9748 l 0.3722,-0.957 -2.3394,-1.7723 -0.4786,-2.4634 5.0687,-1.9318 -0.3721,-1.2583 -6.0612,-3.261 3.6331,-2.8711 4.5371,2.5521 2.7293,-0.6912 -0.6026,-1.5596 -4.2357,0.5671 -1.4356,-1.7545 0.3545,-3.7573 7.6562,0.1064 v -0.9571 H 179 c -0.4259,0 -1.4467,-0.5232 -2.2685,-1.1697 l -1.4887,-1.1874 v -2.5875 l 2.2685,-3.2078 c -1.1129,-0.6679 -2.4022,-0.9758 -3.6864,-1.2761 l -0.3721,-1.914 1.4178,-0.5317 c 0.7722,-0.2937 1.5676,-0.8032 1.7723,-1.1343 0.2047,-0.3311 0.5959,-0.6025 0.8684,-0.6025 0.2725,0 0.6527,0.5104 0.8507,1.1342 l 0.3544,1.1343 h 1.0988 l -0.6202,-1.1697 -0.6203,-1.152 0.4431,-1.3292 1.8254,-0.089 c 1.0068,-0.051 1.9068,-0.1876 2.0027,-0.3012 0.3941,-1.0818 0.6722,-2.2051 0.9216,-3.3319 h -2.8002 l -1.3293,-1.4178 -7.4081,0.3899 -0.7621,0.762 c -0.4167,0.4168 -0.7621,1.0305 -0.7621,1.3647 v 0.6026 h -1.5773 l -0.3544,0.9038 c -0.1894,0.4934 -0.3368,1.1005 -0.3368,1.3647 0,0.2641 0.319,0.8377 0.7089,1.2583 0.3899,0.4206 1.2772,1.5576 1.9673,2.5344 l 1.2583,1.7723 -1.5596,1.2937 -0.7621,-1.2406 -2.1799,0.6912 -0.6912,-1.8077 -1.5241,1.276 -1.152,-0.7266 c -1.6377,1.1376 -3.0014,1.7727 -3.8636,1.4887 l -0.9925,-0.4076 1.2761,-0.8685 c 0.7018,-0.477 1.276,-1.0908 1.276,-1.3646 v -0.4962 h -1.6482 l -1.6659,1.8077 -2.499,-2.5166 -1.5064,-6.5575 -2.9419,0.035 c -1.1767,-1.3635 -1.9033,-3.3734 -2.2863,-5.3377 l -8.8082,-0.086 -0.9393,-15.2061 -34.9848,1.7723 v 2.6938 c -2.69,0.4771 -5.5633,0.8707 -9.6589,0.7089 l -1.2938,2.8357 h -3.7926 v -3.4028 h -2.8357 v -1.7014 h -2.3039 l -1.5612,-5.1041 H 79.398 l -0.048,-2.6569 -5.0556,0.3883 0.3883,-8.89141 -20.9468,1.696 -0.5316,1.98495 -16.1986,1.2406 -1.4179,-23.8903 2.7456,-2.14908 5.7082,-0.0485 3.6686,-5.10416 8.836,0.0485 -0.4,-6.25151 L 53.8777,5.06773 47.438,6.5996 46.7692,7.8905 49.8192,4.25248 49.004,3.15367 C 48.5619,2.54911 48.2064,1.59106 48.2064,1.02694 V -9.8e-4 Z"
     style="fill:#D64541"
     id="AR_4"
     inkscape:connector-curvature="0" />
</svg>
