<?xml version="1.0" encoding="UTF-8" standalone="no"?>
<svg
   xmlns:dc="http://purl.org/dc/elements/1.1/"
   xmlns:cc="http://creativecommons.org/ns#"
   xmlns:rdf="http://www.w3.org/1999/02/22-rdf-syntax-ns#"
   xmlns:svg="http://www.w3.org/2000/svg"
   xmlns="http://www.w3.org/2000/svg"
   xmlns:sodipodi="http://sodipodi.sourceforge.net/DTD/sodipodi-0.dtd"
   xmlns:inkscape="http://www.inkscape.org/namespaces/inkscape"
   version="1.0"
   width="238.63716"
   height="248.13658"
   id="svg2"
   sodipodi:docname="AZ_2.svg"
   inkscape:version="0.92.2 5c3e80d, 2017-08-06">
  <metadata
     id="metadata16">
    <rdf:RDF>
      <cc:Work
         rdf:about="">
        <dc:format>image/svg+xml</dc:format>
        <dc:type
           rdf:resource="http://purl.org/dc/dcmitype/StillImage" />
      </cc:Work>
    </rdf:RDF>
  </metadata>
  <defs
     id="defs14" />
  <sodipodi:namedview
     pagecolor="#ffffff"
     bordercolor="#666666"
     borderopacity="1"
     objecttolerance="10"
     gridtolerance="10"
     guidetolerance="10"
     inkscape:pageopacity="0"
     inkscape:pageshadow="2"
     inkscape:window-width="640"
     inkscape:window-height="480"
     id="namedview12"
     showgrid="false"
     inkscape:zoom="0.12542268"
     inkscape:cx="872.1976"
     inkscape:cy="286.79881"
     inkscape:window-x="0"
     inkscape:window-y="0"
     inkscape:window-maximized="0"
     inkscape:current-layer="svg2" />
  <path
     d="M 48.77312,0 41.7549,48.98574 c -1.01669,1.29192 -2.07501,2.54901 -3.19009,3.75722 -0.62385,0.66145 -1.14002,1.45673 -1.15198,1.75459 L 35.23292,59.2827 H 29.4553 L 26.86778,56.05715 26.37154,52.54804 24.01441,50.5099 18.83936,50.03141 17.24431,48.50725 c -1.67824,0.0169 -3.35513,-0.039 -5.03327,-0.0177 -0.33067,0.008 -1.14948,0.91954 -1.82544,0.97478 l -4.30664,0.88614 0.44307,4.57247 -1.20514,1.43552 0.62029,2.46349 c 0.3434,1.34949 0.91582,3.00125 1.25832,3.68634 l 0.6203,1.25829 -0.97476,2.05584 C 6.3029,66.95651 5.73556,68.8252 5.58273,69.96955 5.42994,71.1139 5.28294,73.31918 5.26372,74.87879 l -0.0355,2.83564 1.29376,3.1901 -1.36465,2.48119 0.31901,2.05584 -1.1697,1.40007 -0.26584,3.91676 2.07356,3.17235 0.1595,15.40111 -1.20514,2.4103 -3.17238,0.28356 0.90386,0.88614 c 0.49017,0.49017 0.88614,1.20101 0.88614,1.5773 0,0.37629 -0.48017,1.09581 -1.06337,1.59505 L 1.55961,116.98809 0,126.54064 l 2.55208,2.58752 v 3.15465 l 1.25832,1.64825 c 0.69519,0.89986 1.57503,1.94905 1.9495,2.33941 l 0.67347,0.70891 0.70891,3.26099 c 0.38225,1.79332 0.73394,3.6438 0.79753,4.11168 0.0636,0.46788 0.43078,1.6162 0.81524,2.55208 l 0.70891,1.70139 -0.62029,5.38772 h 1.64821 l 1.13426,1.13426 c 0.62384,0.62384 1.13426,1.27672 1.13426,1.45326 0,0.17627 1.33984,1.67184 2.97743,3.31413 l 2.97742,2.97743 0.99248,1.84317 0.0886,1.1697 3.47366,1.40013 1.68367,2.26851 8.25881,1.16971 0.97475,1.57729 5.42317,0.4608 1.32921,1.82547 4.1294,-0.67347 0.65575,1.06337 h 2.09128 c 1.06128,1.29612 2.27899,2.50648 2.94198,4.05849 0,0.30795 -0.63802,1.9461 -1.41782,3.65089 l -1.41782,3.1015 v 1.152 c 0,0.63 -0.3839,1.8795 -0.85069,2.7825 l -0.8507,1.6305 1.02792,2.7115 c 3.1374,1.3329 6.58925,2.2347 9.74753,3.261 l -2.83565,21.7636 30.51862,10.3324 0.10633,6.2029 2.33941,2.1622 4.7497,-1.0633 6.62832,0.762 -0.35446,1.79 c -0.30701,1.6481 -0.65342,0.7619 -0.83297,2.428 l -0.17722,5.7777 4.57247,0.6557 0.3899,-1.8431 c 0.21676,-1.0138 0.62489,-2.1339 0.90386,-2.4812 l 0.51396,-0.6204 0.0709,-7.8157 1.86089,-5.3346 5.93712,-0.7443 1.77228,-2.7116 h 2.1799 l 0.26584,-0.9924 c 0.147,-0.5459 0.19294,-2.0136 0.10634,-3.261 l -0.1595,-2.2685 -1.96723,-4.5371 -0.0177,-3.4027 -1.73684,-1.985 0.65575,-2.2154 c 0.71701,-1.6712 0.77438,-2.6338 -0.26584,-4.023 l -2.21535,1.2406 -22.66743,-10.2615 -29.86287,-4.2712 12.84901,-91.8394 C 78.66062,93.24689 87.07803,87.84635 95.40169,82.3046 l 2.42802,-19.61908 h 5.67129 v 2.747 l 7.37267,0.79755 v 3.82812 h 3.33189 l 0.70891,2.26852 h 5.54722 l 0.76208,-6.75241 1.6305,-1.1165 c 5.20026,2.50614 8.69037,8.13251 14.79851,8.50693 5.06482,3.84853 12.14328,2.18049 13.68201,-4.23578 0.38088,-1.4168 1.56942,-3.31407 3.17235,-4.05848 0.37771,-0.17547 0.78315,-0.28357 1.1697,-0.35446 l 0.26587,0.81525 2.00265,-0.74436 4.28891,3.47367 -0.14178,1.34693 0.7621,0.90383 c 0.41985,0.49244 0.76205,1.19426 0.76205,1.55961 v 0.65577 h -2.76475 l -0.70891,2.26851 -3.04832,0.28357 -0.47848,4.28891 c -0.0422,0.45722 0.17394,0.8102 0.3899,1.1697 l 0.67346,0.92158 8.3474,4.20027 2.87109,-0.7266 0.88614,1.45326 1.15201,-1.04567 c 0.63495,-0.57461 1.31585,-1.54418 1.5064,-2.14443 l 0.33677,-1.09881 1.8963,0.37215 0.12409,2.49894 1.93175,2.94198 1.34694,-0.49624 -0.23037,-0.7798 -0.33676,-3.04831 4.53703,-0.56713 0.3722,-2.56983 3.31413,-1.71908 v -4.21802 h 4.92693 l -3.29643,34.80752 8.01069,0.7798 -0.0177,0.35446 c -0.01,0.19362 -0.39285,0.84769 -0.8507,1.45327 -0.45801,0.60552 -0.833,1.27921 -0.833,1.48871 v 0.37215 l 6.50429,0.76211 1.29373,-1.75459 21.83446,2.28627 -1.29373,-1.55961 0.70891,-1.84316 1.06336,-0.74436 6.16753,1.31148 -1.31149,-2.87108 1.08106,-1.06337 8.18792,-0.31901 0.72667,-9.92475 h -2.33941 l -2.35716,2.99512 v 3.72178 l -7.9398,1.32924 v -2.48119 l 1.96726,-3.34963 7.08911,-3.33189 c 0.62253,-1.54865 1.34211,-3.06697 1.71908,-4.6965 l -3.17235,0.0709 -1.52416,-0.93934 0.63802,-3.24323 c -2.22263,-0.0244 -4.4088,-0.39541 -6.57518,-0.86845 l -2.97742,-0.69116 v -1.43557 l 0.85069,-0.31901 c 0.46788,-0.17955 0.85069,-0.59991 0.85069,-0.92159 v -0.58482 h -5.06871 c -0.6535,-1.30196 -1.31551,-2.59943 -2.03809,-3.86356 l -3.10151,1.71908 v 2.17993 l -1.86087,0.70891 -0.63802,-0.8507 c -0.346,-0.47315 -1.19573,-1.03597 -1.89636,-1.25834 l -1.27604,-0.4076 c -0.11728,-1.34902 0.40238,-3.00084 1.11656,-4.3598 l 3.89901,-2.41029 2.94198,0.7266 1.68364,-1.40007 v -2.83564 c 0.3519,-0.99713 4.14996,-7.00382 6.80554,-10.10198 v -2.23307 h -0.81525 c -0.44945,0 -0.97041,0.23762 -1.15195,0.53168 l -0.31901,0.53168 -5.37003,0.77981 -1.41782,1.13425 -1.54185,-1.27604 -3.59775,1.25829 -5.1573,-0.7798 -2.17993,-2.17987 h -2.09129 l -1.77227,1.98495 -1.2406,4.6965 -1.82541,1.50647 -2.0736,-2.55208 c -1.14236,0.27455 -2.2921,0.50525 -3.22554,1.24059 -0.0999,0.16163 -0.4604,3.29218 -0.90383,7.74483 h -5.03327 l -1.64825,1.36468 -4.51928,-0.76211 -9.12725,5.95485 v 1.94951 l -4.44839,0.17722 -1.84317,-1.73683 -5.1396,0.63802 -1.32924,-2.19762 2.33941,-0.15948 1.84317,-3.88131 3.15465,-1.50641 c 0.69502,-0.45745 0.91393,-1.50267 1.08112,-2.60528 l -0.28357,-4.23571 -3.20785,-1.82547 -4.64336,-0.37215 v -2.0204 l -4.50159,0.0177 -0.90383,-1.36462 -0.60257,-1.73683 c -0.27586,-1.57543 -0.6061,-2.81841 -0.63802,-4.413 l -0.74436,-1.70139 -2.42805,1.02792 -0.37215,0.92159 2.25076,3.1724 v 2.78245 l 2.32172,2.95973 -7.35498,8.17017 c -5.19085,1.06405 -9.31808,-3.31969 -14.12505,-4.34205 -1.87218,-0.85756 -3.76612,-4.089 -5.79535,-4.85604 v -0.40765 l -2.41029,-2.78245 -1.70139,2.55208 h -1.55961 v -1.66594 l -3.40277,-1.77228 V 57.3864 l 4.05852,-3.72178 -0.37218,-2.60522 -7.08911,-3.06607 V 45.8489 c -0.002,-1.18597 -0.27409,-3.1238 -0.60257,-4.30666 l -0.60258,-2.16218 2.26852,-1.93175 0.14178,-1.13426 -0.70891,-6.84099 3.04831,-7.05366 0.63802,-0.0709 4.60793,-0.21267 0.35445,-3.77498 -2.4103,-0.62027 0.40763,-0.92159 c 0.21857,-0.50485 0.68984,-1.98591 1.04564,-3.29643 0.35582,-1.31058 0.84042,-2.59513 1.08109,-2.83564 l 0.44307,-0.42535 z"
     style="fill:#D64541"
     id="AZ_2"
     inkscape:connector-curvature="0" />
</svg>
