<?xml version="1.0" encoding="UTF-8" standalone="no"?>
<svg
   xmlns:dc="http://purl.org/dc/elements/1.1/"
   xmlns:cc="http://creativecommons.org/ns#"
   xmlns:rdf="http://www.w3.org/1999/02/22-rdf-syntax-ns#"
   xmlns:svg="http://www.w3.org/2000/svg"
   xmlns="http://www.w3.org/2000/svg"
   xmlns:sodipodi="http://sodipodi.sourceforge.net/DTD/sodipodi-0.dtd"
   xmlns:inkscape="http://www.inkscape.org/namespaces/inkscape"
   version="1.0"
   width="33.109032"
   height="24.457399"
   id="svg2"
   sodipodi:docname="AZ_6.svg"
   inkscape:version="0.92.2 5c3e80d, 2017-08-06">
  <metadata
     id="metadata48">
    <rdf:RDF>
      <cc:Work
         rdf:about="">
        <dc:format>image/svg+xml</dc:format>
        <dc:type
           rdf:resource="http://purl.org/dc/dcmitype/StillImage" />
      </cc:Work>
    </rdf:RDF>
  </metadata>
  <defs
     id="defs46" />
  <sodipodi:namedview
     pagecolor="#ffffff"
     bordercolor="#666666"
     borderopacity="1"
     objecttolerance="10"
     gridtolerance="10"
     guidetolerance="10"
     inkscape:pageopacity="0"
     inkscape:pageshadow="2"
     inkscape:window-width="640"
     inkscape:window-height="480"
     id="namedview44"
     showgrid="false"
     inkscape:zoom="0.12542268"
     inkscape:cx="747.21474"
     inkscape:cy="297.57557"
     inkscape:window-x="0"
     inkscape:window-y="0"
     inkscape:window-maximized="0"
     inkscape:current-layer="svg2" />
  <path
     d="m 25.35224,24.3855 c -0.64908,-0.039 -2.83905,-0.2798 -4.86653,-0.5339 -2.02749,-0.2541 -5.04201,-0.6249 -6.69893,-0.824 l -3.01259,-0.362 0.37448,-2.9969 0.37442,-2.997 L 5.76157,16.2632 0,15.8547 0.38712,14.0594 0.77424,12.2642 1.55591,11.8106 2.33759,11.3571 V 9.7221 8.0871 L 3.4432,7.7362 4.54882,7.3853 4.71924,4.4418 4.88967,1.4982 6.45868,0.7491 8.02765,0 h 3.71792 3.71793 l 0.6679,0.5454 0.66797,0.5454 7.49086,0.9079 c 4.11996,0.4993 7.78963,0.9078 8.1548,0.9078 h 0.664 l -0.39008,4.6789 -0.39001,4.6788 -2.57096,2.3966 -2.57103,2.3967 0.3966,2.3475 0.39659,2.3474 -0.72383,1.3525 -0.72388,1.3525 z"
     style="fill:#D64541"
     id="AZ_6"
     inkscape:connector-curvature="0" />
</svg>
