<?xml version="1.0" encoding="UTF-8" standalone="no"?>
<svg
   xmlns:dc="http://purl.org/dc/elements/1.1/"
   xmlns:cc="http://creativecommons.org/ns#"
   xmlns:rdf="http://www.w3.org/1999/02/22-rdf-syntax-ns#"
   xmlns:svg="http://www.w3.org/2000/svg"
   xmlns="http://www.w3.org/2000/svg"
   xmlns:sodipodi="http://sodipodi.sourceforge.net/DTD/sodipodi-0.dtd"
   xmlns:inkscape="http://www.inkscape.org/namespaces/inkscape"
   version="1.0"
   width="205.17653"
   height="204.75127"
   id="svg2"
   sodipodi:docname="AZ_7.svg"
   inkscape:version="0.92.2 5c3e80d, 2017-08-06">
  <metadata
     id="metadata56">
    <rdf:RDF>
      <cc:Work
         rdf:about="">
        <dc:format>image/svg+xml</dc:format>
        <dc:type
           rdf:resource="http://purl.org/dc/dcmitype/StillImage" />
      </cc:Work>
    </rdf:RDF>
  </metadata>
  <defs
     id="defs54" />
  <sodipodi:namedview
     pagecolor="#ffffff"
     bordercolor="#666666"
     borderopacity="1"
     objecttolerance="10"
     gridtolerance="10"
     guidetolerance="10"
     inkscape:pageopacity="0"
     inkscape:pageshadow="2"
     inkscape:window-width="640"
     inkscape:window-height="480"
     id="namedview52"
     showgrid="false"
     inkscape:zoom="0.12542268"
     inkscape:cx="903.58458"
     inkscape:cy="409.86577"
     inkscape:window-x="0"
     inkscape:window-y="0"
     inkscape:window-maximized="0"
     inkscape:current-layer="svg2" />
  <path
     d="M 50.95297,0 V 1.75458 L 48.9503,2.19762 c -0.70182,0.26962 -1.25891,1.19375 -2.12673,2.0027 L 42.92456,6.91188 42.28654,6.29161 39.50406,8.48924 37.4305,8.86139 c -1.13806,0.20484 -2.37719,0.61108 -2.74703,0.90388 l -0.67347,0.54938 -0.76208,3.59775 -3.5091,3.68636 h -0.69119 c -0.38832,0 -0.88928,0.2812 -1.09881,0.6202 l -0.37218,0.6204 1.20515,1.1874 -0.35446,1.7722 c -0.18812,0.9683 -0.54908,1.8904 -0.79752,2.0559 l -0.44307,0.3013 0.42534,9.3044 -1.80772,1.028 -1.50644,7.5499 -2.97742,2.9419 c -1.63758,1.624 -3.25,3.4422 -3.58,4.0408 l -0.60257,1.0988 -3.91674,-0.1417 0.40763,4.3066 -1.96723,1.9495 2.49891,1.7369 -1.22287,7.4435 -2.33941,3.7927 0.8507,0.6026 0.62029,3.2787 8.25881,1.2583 0.69119,11.5729 -4.09396,3.4206 v 2.0204 l -3.11921,1.2051 -2.55208,-0.2659 C 9.85032,92.15466 8.31907,91.87546 7.85119,91.67996 L 7.0005,91.32546 3.84585,96.32326 1.16971,98.07786 0,104.77706 l 182.29646,97.7233 22.18891,2.2509 0.69116,-5.8663 -1.24059,-1.5064 h -2.12673 v -0.7444 c 0,-0.4055 0.27443,-1.0011 0.60257,-1.3292 l 0.58488,-0.5848 -2.60527,-4.0054 -3.61545,-2.4989 -3.33188,2.4635 -4.02304,-4.0408 -3.95221,0.6026 -0.7798,-2.4281 0.74436,-3.9699 -2.39255,-4.5725 c 0.4972,-4.6399 0.71986,-9.3197 1.45327,-13.9301 l 13.94779,1.6128 1.09881,-0.6734 v -2.7648 l 2.26852,-2.2685 v -1.6128 l 1.41782,-0.4608 0.21256,-1.2093 -1.60537,-1.9599 0.63076,-2.5907 -3.49142,-2.5875 v -1.3647 l -4.02304,-0.4608 -2.07359,1.6128 -2.55208,-1.5194 0.56713,-4.6304 -1.36462,-1.8786 -2.32172,0.6026 -2.85333,-2.8534 1.01017,-6.3093 -28.01185,-3.76 0.86056,-9.5675 0.53168,-0.5317 c 0.2919,-0.2963 0.53169,-0.9655 0.53169,-1.4887 v -0.957 l 2.1799,-1.5596 0.74435,-3.6509 -13.13257,-2.3926 v -3.1901 l 2.78247,-0.6912 0.76208,-6.8233 2.1129,0.088 1.53799,0.9756 9.25129,0.7975 v 0.7089 c 0,0.3894 0.38354,1.0301 0.85069,1.4179 l 0.8507,0.7089 1.91406,-1.4533 c 1.04981,-0.8008 2.52945,-1.6155 3.29643,-1.8077 l 1.4001,-0.3545 0.65574,-1.8431 c 0.36739,-1.016 0.67347,-2.2767 0.67347,-2.8002 l -0.0355,-0.6204 -8.57782,-1.0633 0.76208,-5.9549 -11.48436,-0.8152 0.74436,-4.927 -9.48168,-1.2228 -0.0709,-1.0811 -4.74971,-4.5902 0.10634,-9.1981 -5.21049,0.7266 v 0.7089 c -0.002,0.3899 -0.34699,1.3667 -0.76208,2.1622 l -0.76208,1.4355 -0.0177,3.5446 -0.0354,3.5445 -1.06337,3.4028 -1.04564,3.4205 c -1.74154,-0.2874 -3.51599,-0.4319 -5.22822,-0.8684 -0.0702,-0.067 -0.15381,-1.3829 -0.17723,-2.9242 -0.0235,-1.5415 0.049,-3.2382 0.15951,-3.775 0.11053,-0.5368 0.3856,-1.1478 0.60257,-1.3646 0.21699,-0.217 0.3899,-0.7125 0.3899,-1.0988 v -0.709 l -5.38772,-0.7443 -5.60039,1.2583 -2.8002,-2.8179 c -0.11515,-1.9688 0.0767,-3.995 -0.3899,-5.9194 L 84.6617,52.90266 87.90496,31.21006 c -1.75029,-0.4696 -6.8959,-2.1893 -10.22604,-3.4737 l -0.70891,-3.261 0.63802,-1.2051 c 0.35554,-0.6644 0.99601,-2.532 1.41782,-4.1472 0.42183,-1.6154 1.15502,-3.6939 1.6305,-4.60788 L 81.52477,12.86693 79.64615,9.69458 C 78.41922,9.18094 77.17607,8.72139 75.88892,8.40079 L 72.61021,9.19835 70.19991,6.78805 65.16665,6.68171 64.52863,4.67901 H 63.27031 C 62.57887,4.68101 60.64463,4.43713 58.96368,4.12963 L 55.89764,3.5625 53.52279,0.93953 Z"
     style="fill:#D64541"
     id="AZ_7"
     inkscape:connector-curvature="0" />
</svg>
