<?xml version="1.0" encoding="UTF-8" standalone="no"?>
<svg
   xmlns:dc="http://purl.org/dc/elements/1.1/"
   xmlns:cc="http://creativecommons.org/ns#"
   xmlns:rdf="http://www.w3.org/1999/02/22-rdf-syntax-ns#"
   xmlns:svg="http://www.w3.org/2000/svg"
   xmlns="http://www.w3.org/2000/svg"
   xmlns:sodipodi="http://sodipodi.sourceforge.net/DTD/sodipodi-0.dtd"
   xmlns:inkscape="http://www.inkscape.org/namespaces/inkscape"
   version="1.0"
   width="30.0625"
   height="45.34375"
   id="svg2"
   sodipodi:docname="CA_14.svg"
   inkscape:version="0.92.2 5c3e80d, 2017-08-06">
  <metadata
     id="metadata48">
    <rdf:RDF>
      <cc:Work
         rdf:about="">
        <dc:format>image/svg+xml</dc:format>
        <dc:type
           rdf:resource="http://purl.org/dc/dcmitype/StillImage" />
      </cc:Work>
    </rdf:RDF>
  </metadata>
  <defs
     id="defs46" />
  <sodipodi:namedview
     pagecolor="#ffffff"
     bordercolor="#666666"
     borderopacity="1"
     objecttolerance="10"
     gridtolerance="10"
     guidetolerance="10"
     inkscape:pageopacity="0"
     inkscape:pageshadow="2"
     inkscape:window-width="640"
     inkscape:window-height="480"
     id="namedview44"
     showgrid="false"
     inkscape:zoom="0.12542268"
     inkscape:cx="1224.6637"
     inkscape:cy="-30.811829"
     inkscape:window-x="0"
     inkscape:window-y="0"
     inkscape:window-maximized="0"
     inkscape:current-layer="svg2" />
  <path
     d="M 5,0 C 3.52991,0.50911 2.269893,1.39642 0.9375,2.1875 L 0,1.625 v 2.4375 l 2.09375,0.5625 0.71875,10.75 -2.25,5.875 v 3 l 1.625,1.34375 0.78125,3.59375 1.90625,1.71875 1,2.65625 c 0.54694,1.45797 1.743456,3.67736 2.65625,4.9375 0.9128,1.2601 2.307202,2.70337 3.09375,3.21875 l 1.09375,0.71875 c -0.0098,-0.32478 0.01368,-0.66528 0.125,-1 L 12.875,41.375 12.90625,41.3438 C 13.250582,41.05358 13.495556,40.62392 13.5,40.18755 v -0.0312 -0.0312 c 0.07732,-0.42382 0.02876,-0.84521 -0.125,-1.25 h 0.03125 C 13.33032,38.72372 13.226229,38.55449 13.25,38.3439 c 0.0063,-0.0555 0.01717,-0.12238 0.0625,-0.1875 0.04533,-0.0651 0.136776,-0.10899 0.21875,-0.125 0.140001,-0.0273 0.236813,0.0305 0.34375,0.0937 0.01829,0.0108 0.04381,-0.0118 0.0625,0 0.146855,0.0565 0.247254,0.18239 0.3125,0.28125 0.07581,0.11487 0.109873,0.20557 0.15625,0.28125 0.04638,0.0757 0.100859,0.096 0.09375,0.0937 -0.0071,-0.002 0.0071,0.021 0.125,-0.0625 h 0.03125 v -0.0312 c 0.189364,-0.0828 0.39647,-0.0658 0.5625,0 0.16603,0.0658 0.280657,0.18458 0.375,0.3125 0.188687,0.25584 0.309773,0.53468 0.375,0.75 0.01315,0.0381 0.01126,0.0557 0.03125,0.0937 0.06537,-0.11523 0.145556,-0.24178 0.25,-0.28125 0.135555,-0.0512 0.255407,-0.0327 0.34375,-0.0312 0.08834,10e-4 0.159705,0.009 0.1875,0 0.02779,-0.009 0.03289,-0.0338 0.0625,-0.0937 v -0.0314 l 0.0625,-0.0625 c 0.09687,-0.0674 0.243474,-0.0639 0.34375,-0.0312 0.100276,0.0326 0.163047,0.0706 0.21875,0.125 0.100375,0.098 0.184578,0.22615 0.25,0.3125 0.03767,-0.26599 0.188597,-0.49644 0.375,-0.59375 0.171968,-0.0898 0.339711,-0.10268 0.5,-0.125 0.146612,-0.14257 0.239059,-0.4476 0.25,-0.5625 l 0.0625,-0.78125 0.40625,0.6875 c 0.09722,0.16788 0.300729,0.39168 0.4375,0.65625 0.06839,0.13229 0.127414,0.26649 0.125,0.4375 -0.0024,0.17101 -0.09041,0.34522 -0.21875,0.5 V 40 c -0.09649,0.11061 -0.146891,0.29674 -0.125,0.40625 0.01095,0.0548 0.04602,0.0819 0.0625,0.0937 0.01648,0.0118 0.03217,0.0163 0.125,0 0.247283,-0.0925 0.501653,-0.11244 0.65625,-0.15625 0.170268,-0.0483 0.226272,-0.0615 0.28125,-0.28125 l 0.03125,-0.0937 0.0625,-0.0312 c 0.428667,-0.33388 0.574717,-0.96614 1.03125,-1.5 C 21.88076,38.31369 21.916764,38.0673 22,37.7813 c 0.07605,-0.26132 0.269169,-0.5552 0.59375,-0.71875 l -0.03125,-0.0312 c 0.13014,-0.1056 0.237698,-0.29157 0.34375,-0.53125 0.09568,-0.21624 0.235623,-0.46173 0.46875,-0.65625 0.0098,-0.0127 0.02111,-0.0192 0.03125,-0.0312 0.01334,-0.0102 0.01717,-0.0215 0.03125,-0.0312 0.125522,-0.1365 0.278423,-0.24976 0.4375,-0.28125 0.185672,-0.0367 0.350628,0.01 0.5,0.0937 0.277833,0.15666 0.451908,0.43622 0.53125,0.75 0.006,0.0236 0.0266,0.0385 0.03125,0.0625 0.110192,0.19255 0.23563,0.38132 0.28125,0.625 0.04468,0.23867 -0.06066,0.51738 -0.25,0.75 H 25 c -0.09058,0.22091 -0.05375,0.40895 0.0625,0.625 0.116255,0.21605 0.314819,0.45179 0.46875,0.71875 h 0.03125 v 0.0311 c 0.109599,0.36212 0.474055,0.75524 0.5625,1.3125 0.0018,0.0112 -0.0015,0.0199 0,0.0312 0.09536,0.33583 0.03141,0.67336 -0.1875,0.90625 -0.11308,0.1203 -0.279825,0.2057 -0.46875,0.1875 C 25.293623,41.5768 25.136173,41.46552 25,41.31245 c -0.0857,-0.0683 -0.24,-0.0231 -0.3125,0.0312 -0.03625,0.0272 -0.03091,0.0231 -0.03125,0.0312 -3.36e-4,0.008 -0.02126,0.0492 0.0625,0.125 H 24.75 v 0.0312 c 0.190922,0.21041 0.298996,0.50727 0.4375,0.6875 0.06925,0.0901 0.151783,0.1238 0.15625,0.125 0.0045,10e-4 -0.01393,0.0212 0.0625,-0.0625 v -0.0312 h 0.03125 c 0.0784,-0.0548 0.175149,-0.0894 0.28125,-0.0937 0.106101,-0.004 0.216692,0.0337 0.28125,0.0937 0.129116,0.12006 0.146841,0.26178 0.1875,0.375 0.04066,0.11322 0.08856,0.19084 0.125,0.25 0.03644,0.0592 0.03807,0.0601 0.0625,0.0625 h 0.03125 l 0.03125,0.0312 c 0.08678,0.0299 0.199505,-0.0249 0.40625,-0.15625 0.206745,-0.13135 0.441845,-0.33497 0.75,-0.40625 h 0.0625 c 0.02317,-0.0429 0.04618,-0.13251 0.0625,-0.21875 0.0082,-0.0431 0.02399,-0.0863 0.03125,-0.125 0.0036,-0.0194 -0.0064,-0.0392 0,-0.0625 0.0064,-0.0233 -0.0043,-0.0497 0.0625,-0.125 0.0083,-0.009 0.03085,-0.0309 0.03125,-0.0312 4.02e-4,-3.2e-4 0.06209,-0.0311 0.0625,-0.0312 8.19e-4,-3.9e-4 0.155396,-0.0314 0.15625,-0.0312 8.54e-4,1.3e-4 0.09286,0.0618 0.09375,0.0625 8.95e-4,6.7e-4 0.05142,0.0168 0.0625,0.0312 0.04431,0.0577 0.05427,0.0994 0.0625,0.125 0.0138,0.0429 0.01872,0.0959 0.03125,0.15625 0.0024,0.0117 -0.0026,0.0182 0,0.0312 0.197553,0.60969 -0.04998,1.21245 -0.375,1.65625 l -0.09375,0.125 -0.15625,-0.0312 c -0.197851,-0.0469 -0.344898,-0.0202 -0.40625,0.0312 -0.06135,0.0514 -0.09563,0.15264 -0.0625,0.375 v 0.0312 c -0.0013,0.0472 -0.0029,0.0483 0,0.0625 0.005,-0.005 0.03799,-0.012 0.125,-0.0312 0.107726,-0.0239 0.223806,-0.0773 0.40625,-0.0312 0.09122,0.023 0.186463,0.0975 0.25,0.1875 0.05039,0.0714 0.07866,0.16293 0.09375,0.25 0.0039,0.0227 0.02897,0.0389 0.03125,0.0625 0.08127,0.19758 0.168451,0.38729 0.21875,0.46875 0.0068,-0.004 0.04713,-0.0206 0.09375,-0.0625 0.01006,-0.0123 0.02108,-0.0191 0.03125,-0.0312 0.386552,-0.46223 0.857371,-0.79615 1.1875,-1.1875 0.007,-0.0154 0.02332,-0.0167 0.03125,-0.0312 0.09136,-0.16726 0.230591,-0.29091 0.375,-0.34375 -0.289196,-0.82718 -0.819131,-1.99631 -1.34375,-2.875 -0.6518,-1.09172 -1.959601,-3.00136 -2.90625,-4.25 -0.94665,-1.24859 -2.299094,-2.83034 -3,-3.53125 L 21.53125,31.75 v -0.875 c 0.29554,-1.33627 0.986231,-2.4542 1.78125,-3.5625 l -0.75,-4 -2.71875,-1.78125 v -2.0625 l 2.71875,-1.25 0.40625,-6.3125 H 20.625 L 17.34375,8 l -1,0.625 -1.65625,-2.40625 h -2.625 z"
     style="opacity:1;fill:#D64541;fill-opacity:1"
     id="CA_14"
     inkscape:connector-curvature="0" />
</svg>
