<?xml version="1.0" encoding="UTF-8" standalone="no"?>
<svg
   xmlns:dc="http://purl.org/dc/elements/1.1/"
   xmlns:cc="http://creativecommons.org/ns#"
   xmlns:rdf="http://www.w3.org/1999/02/22-rdf-syntax-ns#"
   xmlns:svg="http://www.w3.org/2000/svg"
   xmlns="http://www.w3.org/2000/svg"
   xmlns:sodipodi="http://sodipodi.sourceforge.net/DTD/sodipodi-0.dtd"
   xmlns:inkscape="http://www.inkscape.org/namespaces/inkscape"
   version="1.0"
   width="13.841552"
   height="16.55307"
   id="svg2"
   sodipodi:docname="CA_12.svg"
   inkscape:version="0.92.2 5c3e80d, 2017-08-06">
  <metadata
     id="metadata32">
    <rdf:RDF>
      <cc:Work
         rdf:about="">
        <dc:format>image/svg+xml</dc:format>
        <dc:type
           rdf:resource="http://purl.org/dc/dcmitype/StillImage" />
      </cc:Work>
    </rdf:RDF>
  </metadata>
  <defs
     id="defs30" />
  <sodipodi:namedview
     pagecolor="#ffffff"
     bordercolor="#666666"
     borderopacity="1"
     objecttolerance="10"
     gridtolerance="10"
     guidetolerance="10"
     inkscape:pageopacity="0"
     inkscape:pageshadow="2"
     inkscape:window-width="640"
     inkscape:window-height="480"
     id="namedview28"
     showgrid="false"
     inkscape:zoom="0.12542268"
     inkscape:cx="1224.1363"
     inkscape:cy="-70.368259"
     inkscape:window-x="0"
     inkscape:window-y="0"
     inkscape:window-maximized="0"
     inkscape:current-layer="svg2" />
  <path
     d="M 3.40277,0 3.06604,2.21538 1.68366,9.1804 0,9.69439 0.03545,12.45914 3.11921,10.68686 4.32436,10.22607 h 0.70891 c 1.45156,1.52286 2.35713,2.16218 2.35713,2.16218 l 1.08108,0.10634 3.08377,4.05848 2.19762,-0.42534 c 0,0 0.88311,-0.47934 -2.92426,-2.90654 C 7.02125,10.79399 6.82834,10.4878 6.94733,6.8233 L 7.9398,6.7701 7.28406,4.53703 8.68416,2.81795 c 0,-5e-5 -2.0671,-0.0117 -2.99515,-0.0354 C 5.29244,2.77235 4.75461,2.65222 4.27119,2.53443 L 4.39525,0.7976 5.24594,0.93938 5.31683,0.26591 Z"
     style="opacity:1;fill:#D64541;fill-opacity:1"
     id="CA_12"
     inkscape:connector-curvature="0" />
</svg>
