<?xml version="1.0" encoding="UTF-8" standalone="no"?>
<svg
   xmlns:dc="http://purl.org/dc/elements/1.1/"
   xmlns:cc="http://creativecommons.org/ns#"
   xmlns:rdf="http://www.w3.org/1999/02/22-rdf-syntax-ns#"
   xmlns:svg="http://www.w3.org/2000/svg"
   xmlns="http://www.w3.org/2000/svg"
   xmlns:sodipodi="http://sodipodi.sourceforge.net/DTD/sodipodi-0.dtd"
   xmlns:inkscape="http://www.inkscape.org/namespaces/inkscape"
   version="1.0"
   width="13.050435"
   height="26.288"
   id="svg2"
   sodipodi:docname="CA_16.svg"
   inkscape:version="0.92.2 5c3e80d, 2017-08-06">
  <metadata
     id="metadata64">
    <rdf:RDF>
      <cc:Work
         rdf:about="">
        <dc:format>image/svg+xml</dc:format>
        <dc:type
           rdf:resource="http://purl.org/dc/dcmitype/StillImage" />
      </cc:Work>
    </rdf:RDF>
  </metadata>
  <defs
     id="defs62" />
  <sodipodi:namedview
     pagecolor="#ffffff"
     bordercolor="#666666"
     borderopacity="1"
     objecttolerance="10"
     gridtolerance="10"
     guidetolerance="10"
     inkscape:pageopacity="0"
     inkscape:pageshadow="2"
     inkscape:window-width="640"
     inkscape:window-height="480"
     id="namedview60"
     showgrid="false"
     inkscape:zoom="0.12542268"
     inkscape:cx="1196.9433"
     inkscape:cy="-33.075689"
     inkscape:window-x="0"
     inkscape:window-y="0"
     inkscape:window-maximized="0"
     inkscape:current-layer="svg2" />
  <path
     d="m 11.250825,26.288 -3.3270196,-2.03111 -3.420626,-6.66853 -3.96532,-2.03911 c -0.48285,-2.44172 -0.6406,-4.16817 -0.47325,-6.73993 l 2.98616,-3.54886 c -0.91989,-0.85024 -1.52861,-1.15558 -2.58158,-2.45187 l 0.16255,-0.91347 3.33534,0.0483 0.3181,-1.94343 1.723196,0.0104 2.5611,3.27363 0.68903,5.94561 -2.38835,3.36132 v 1.76269 l 1.09699,0.58709 c 0.60332,0.32292 1.62415,0.58709 2.2685196,0.58709 h 1.17152 v 1.52915 l -4.6345596,2.30595 1.91377,2.33832 3.3861596,0.0325 0.97788,1.33548 c -0.55815,1.09762 -1.1067,2.20635 -1.79961,3.21879 z"
     style="opacity:1;fill:#D64541;fill-opacity:1"
     id="CA_16"
     inkscape:connector-curvature="0" />
</svg>
