<?xml version="1.0" encoding="UTF-8" standalone="no"?>
<svg
   xmlns:dc="http://purl.org/dc/elements/1.1/"
   xmlns:cc="http://creativecommons.org/ns#"
   xmlns:rdf="http://www.w3.org/1999/02/22-rdf-syntax-ns#"
   xmlns:svg="http://www.w3.org/2000/svg"
   xmlns="http://www.w3.org/2000/svg"
   xmlns:sodipodi="http://sodipodi.sourceforge.net/DTD/sodipodi-0.dtd"
   xmlns:inkscape="http://www.inkscape.org/namespaces/inkscape"
   version="1.0"
   width="123.84422"
   height="244.33255"
   id="svg2"
   sodipodi:docname="CA_2.svg"
   inkscape:version="0.92.2 5c3e80d, 2017-08-06">
  <metadata
     id="metadata96">
    <rdf:RDF>
      <cc:Work
         rdf:about="">
        <dc:format>image/svg+xml</dc:format>
        <dc:type
           rdf:resource="http://purl.org/dc/dcmitype/StillImage" />
      </cc:Work>
    </rdf:RDF>
  </metadata>
  <defs
     id="defs94" />
  <sodipodi:namedview
     pagecolor="#ffffff"
     bordercolor="#666666"
     borderopacity="1"
     objecttolerance="10"
     gridtolerance="10"
     guidetolerance="10"
     inkscape:pageopacity="0"
     inkscape:pageshadow="2"
     inkscape:window-width="640"
     inkscape:window-height="480"
     id="namedview92"
     showgrid="false"
     inkscape:zoom="0.12542268"
     inkscape:cx="1235.4435"
     inkscape:cy="-111.89688"
     inkscape:window-x="0"
     inkscape:window-y="0"
     inkscape:window-maximized="0"
     inkscape:current-layer="svg2" />
  <path
     d="M 117.55612,73.0806 112.22059,71.91187 123.84421,22.73357 31.202529,0 28.799509,5.00841 h -2.07357 l -0.72663,1.18742 -1.98495,-0.63802 -1.47099,2.76476 -1.31149,-0.49624 -0.23039,7.49673 -4.27119,6.13208 1.22972,1.05164 -0.50252,1.79459 1.09824,1.40723 0.6203,6.25614 -2.16218,3.30272 6.52142,1.77743 0.19551,11.34886 0.87957,3.23812 -1.71854,-0.50224 -0.72063,3.64432 -2.16761,1.71368 2.13188,3.16665 -3.29015,4.25881 -2.84623,1.78522 -2.28165,-1.70852 -2.81792,-0.23583 1.01019,4.79058 -0.5494,7.40812 L 0,121.73058 l 27.789309,6.34476 v 4.39524 l -2.48119,1.38141 -0.79917,2.53404 -0.05152,5.58396 1.11653,4.27119 -1.45424,7.06625 6.50523,1.60021 c -0.18712,3.7207 -1.4251,7.35492 -2.55208,10.88178 -0.53525,1.55961 -1.38298,3.31952 -1.89633,3.89901 l -0.93931,1.04562 0.19495,1.1697 c 0.10611,0.64063 0.56319,1.52025 1.0102,1.96726 0.44701,0.44701 1.19732,1.55722 1.66594,2.46343 l 0.85069,1.64825 0.97475,0.0177 c 0.53787,0.01 1.4681,0.39268 2.07357,0.8507 l 1.09881,0.833 h 2.37485 l 1.31149,3.49135 -0.35446,0.93934 c -0.19265,0.52306 -0.53579,1.08463 -0.76208,1.24059 -0.22623,0.15596 -0.48543,1.2368 -0.58485,2.39255 l -0.57745,2.29137 2.88141,3.14955 -0.50978,2.93585 2.68033,3.67375 -2.87946,-0.86742 -1.13426,1.1165 1.04565,3.66864 c 1.34055,0.36478 2.74536,0.60167 3.89901,1.40007 0.15346,0.24835 0.67272,2.97267 1.1697,6.06119 l 0.90386,5.61815 0.46079,0.30126 c 0.25011,0.16741 0.75408,1.49597 1.116536,2.95973 0.3625,1.46382 0.65574,3.57921 0.65574,4.69651 v 2.03814 l 2.83564,1.06337 v 1.1697 l 0.99248,-0.0177 c 0.54586,-0.01 1.46537,-0.36353 2.03812,-0.7975 l 1.04564,-0.79755 c 3.50955,0.25975 4.95131,0.31935 7.72713,2.17993 h 3.95218 l 0.62029,1.61274 c -0.91746,4.12433 -1.88232,8.23846 -2.76475,12.3705 0.84301,0.43839 2.56065,0.6332 3.49849,0.75791 l 4.21092,-1.2364 1.38237,-3.13696 -0.70891,-1.86086 h 1.82545 v -1.64824 l -0.74436,-0.44305 c -0.41344,-0.24942 -0.92913,-0.9133 -1.13426,-1.47101 l -0.37217,-1.01017 0.99247,-0.37221 c 0.54059,-0.20468 1.3093,-0.71152 1.71911,-1.11651 l 0.74436,-0.72666 0.49623,-2.25076 -2.41029,-1.09881 0.5494,-2.90654 h -1.25831 l -1.52416,-3.43822 2.71158,-2.7293 5.7599,1.36462 2.96068,-11.82718 2.51566,0.46691 0.99247,-4.14713 c 2.38839,-1.08894 3.84293,-1.91105 6.96505,-1.66594 l 3.60513,-13.78412 3.51912,-0.23558 0.14658,-2.16859 3.203325,-0.40022 3.08601,-1.98495 h 3.17013 c 0.26408,-1.88831 0.53226,-3.77634 0.74436,-5.67129 0.0232,-0.31192 -0.1715,-1.04471 -0.42535,-1.63049 l -0.46079,-1.06337 1.15198,-0.92158 c 0.63603,-0.50594 1.46949,-1.52229 1.84317,-2.25082 0.37368,-0.72859 0.54439,-1.70729 0.3899,-1.86189 l -3.04091,1.4417 -10.268885,-18.84444 -1.61794,-1.45264 1.40429,-8.98416 2.85434,-2.12867 0.926735,-1.65047 -1.245745,-2.62072 0.53168,-1.48871 -1.96723,-1.43555 0.77981,-2.42802 c 1.499765,0.255 2.465925,0.44329 3.899005,-0.0354 v -2.26852 h 1.22287 l -0.74436,-3.40277 h 1.25832 l -1.16971,-2.19762 -4.005335,-1.43555 1.205145,-6.45109 7.17772,1.68367 z"
     style="fill:#D64541;fill-opacity:1"
     id="CA_2"
     inkscape:connector-curvature="0" />
</svg>
