<?xml version="1.0" encoding="UTF-8" standalone="no"?>
<svg
   xmlns:dc="http://purl.org/dc/elements/1.1/"
   xmlns:cc="http://creativecommons.org/ns#"
   xmlns:rdf="http://www.w3.org/1999/02/22-rdf-syntax-ns#"
   xmlns:svg="http://www.w3.org/2000/svg"
   xmlns="http://www.w3.org/2000/svg"
   xmlns:sodipodi="http://sodipodi.sourceforge.net/DTD/sodipodi-0.dtd"
   xmlns:inkscape="http://www.inkscape.org/namespaces/inkscape"
   version="1.0"
   width="17.046391"
   height="13.49937"
   id="svg2"
   sodipodi:docname="CA_27.svg"
   inkscape:version="0.92.2 5c3e80d, 2017-08-06">
  <metadata
     id="metadata160">
    <rdf:RDF>
      <cc:Work
         rdf:about="">
        <dc:format>image/svg+xml</dc:format>
        <dc:type
           rdf:resource="http://purl.org/dc/dcmitype/StillImage" />
      </cc:Work>
    </rdf:RDF>
  </metadata>
  <defs
     id="defs158" />
  <sodipodi:namedview
     pagecolor="#ffffff"
     bordercolor="#666666"
     borderopacity="1"
     objecttolerance="10"
     gridtolerance="10"
     guidetolerance="10"
     inkscape:pageopacity="0"
     inkscape:pageshadow="2"
     inkscape:window-width="640"
     inkscape:window-height="480"
     id="namedview156"
     showgrid="false"
     inkscape:zoom="0.12542268"
     inkscape:cx="1079.5156"
     inkscape:cy="176.77719"
     inkscape:window-x="0"
     inkscape:window-y="0"
     inkscape:window-maximized="0"
     inkscape:current-layer="svg2" />
  <path
     d="M 12.47375,13.49937 11.90668,12.0216 13.68179,7.77318 C 12.49596,6.05864 11.5541,4.9947 10.80741,2.62961 L 9.39016,3.09125 8.64036,4.6297 C 8.22794,5.47586 7.86685,6.86067 7.83781,7.70705 7.80881,8.55344 7.98634,9.70352 8.23236,10.26282 L 8.6796,11.27979 7.97716,11.98224 5.00977,10.63021 3.71375,11.85186 0,6.97807 2.23413,6.69382 2.91219,5.59665 C 2.26604,5.07189 1.73374,4.61218 0.63219,4.65664 L 0.16052,0 5.56537,1.32277 6.61165,0.34158 l 5.09537,0.0325 1.42379,1.78271 1.40523,-1.34483 1.06412,1.37313 -1.47896,2.36822 2.92519,3.05325 v 1.84759 l -3.1192,0.35888 0.36903,3.68634 z"
     style="opacity:1;fill:#D64541"
     id="CA_27"
     inkscape:connector-curvature="0" />
</svg>
