<?xml version="1.0" encoding="UTF-8" standalone="no"?>
<svg
   xmlns:dc="http://purl.org/dc/elements/1.1/"
   xmlns:cc="http://creativecommons.org/ns#"
   xmlns:rdf="http://www.w3.org/1999/02/22-rdf-syntax-ns#"
   xmlns:svg="http://www.w3.org/2000/svg"
   xmlns="http://www.w3.org/2000/svg"
   xmlns:sodipodi="http://sodipodi.sourceforge.net/DTD/sodipodi-0.dtd"
   xmlns:inkscape="http://www.inkscape.org/namespaces/inkscape"
   version="1.0"
   width="79.965141"
   height="130.91814"
   id="svg2"
   sodipodi:docname="CA_20.svg"
   inkscape:version="0.92.2 5c3e80d, 2017-08-06">
  <metadata
     id="metadata104">
    <rdf:RDF>
      <cc:Work
         rdf:about="">
        <dc:format>image/svg+xml</dc:format>
        <dc:type
           rdf:resource="http://purl.org/dc/dcmitype/StillImage" />
      </cc:Work>
    </rdf:RDF>
  </metadata>
  <defs
     id="defs102" />
  <sodipodi:namedview
     pagecolor="#ffffff"
     bordercolor="#666666"
     borderopacity="1"
     objecttolerance="10"
     gridtolerance="10"
     guidetolerance="10"
     inkscape:pageopacity="0"
     inkscape:pageshadow="2"
     inkscape:window-width="640"
     inkscape:window-height="480"
     id="namedview100"
     showgrid="false"
     inkscape:zoom="0.12542268"
     inkscape:cx="1158.8811"
     inkscape:cy="109.28751"
     inkscape:window-x="0"
     inkscape:window-y="0"
     inkscape:window-maximized="0"
     inkscape:current-layer="svg2" />
  <path
     d="M 20.59386,0 0,13.87695 11.71475,32.29089 9.53957,42.56306 6.52198,42.42831 l -1.2406,0.86845 -0.69119,3.58 0.81525,0.69116 c 0.45467,0.37731 0.83297,0.99372 0.83297,1.36468 0,0.37084 -0.52264,1.22086 -1.15198,1.89631 l -1.13426,1.24059 0.26585,3.42052 0.58485,0.0709 c 0.32354,0.037 0.77625,0.037 1.01019,0 0.23395,-0.0369 0.46023,0.24812 0.49624,0.63802 0.036,0.3899 0.0513,1.29085 0.0933,1.63759 2.09129,2.68796 4.95766,5.08521 6.32231,7.77318 l 3.42049,0.97478 1.15198,3.93445 1.91643,0.0484 1.87624,2.91124 -1.48871,2.3926 1.38238,1.40007 -0.0485,1.60214 1.89162,0.43601 -0.83297,5.05096 c 2.89945,2.09509 5.27215,4.81424 7.78029,7.35498 l 5.81307,1.1874 0.69119,2.56983 -1.86089,4.87373 1.18742,1.18745 2.46347,-1.31148 0.67347,0.54938 c 0.36999,0.30307 1.8219,0.85137 3.22554,1.2229 l 2.55208,0.67346 1.98495,1.77228 v 2.37485 l 4.99782,3.15465 1.34693,1.82542 c 0.74339,1.00371 1.83662,2.92236 2.42802,4.27122 l 1.08109,2.46343 c 4.1105,2.06174 7.97879,3.30001 12.47683,4.73201 l 1.64822,2.87109 4.85604,2.16218 1.20515,2.62297 h 0.81525 c 0.45228,0 1.22894,-0.39597 1.7191,-0.88614 l 0.88614,-0.88614 v -0.86844 -0.85069 l -3.29643,-1.25829 -0.3899,-2.0204 c -0.21194,-1.11168 -0.42918,-3.37476 -0.47852,-5.03327 l -0.0886,-3.01287 -1.70139,-0.95703 -1.75455,1.31149 0.0532,6.80554 -2.33941,0.33671 -1.27604,-2.78245 -8.01069,-1.98495 v -3.86356 l -1.16971,-2.19763 h -1.66712 l 1.17089,-3.40277 h 4.27118 l 1.16971,1.1697 1.86089,-0.70891 0.35445,-2.07359 c 0.19141,-1.13953 0.36683,-2.32875 0.3899,-2.64067 0.023,-0.31192 -0.25835,-1.28415 -0.62029,-2.16217 l -0.65574,-1.59505 v -4.96238 l 1.70847,-6.92606 -13.61818,-2.96325 6.34475,-29.96923 2.6407,0.65577 1.66594,-7.9398 h -2.8002 l 1.29376,-5.67129 h -2.7293 l -4.60792,3.33188 -0.38991,-0.3899 c -0.21494,-0.21324 -1.06623,-0.3899 -1.89633,-0.3899 -0.83005,0 -1.63404,0.16135 -1.79,0.35445 L 51.32509,46.84128 42.71183,45.069 45.90192,34.50623 h 5.58268 l 0.70891,-2.8002 2.32168,-1.24059 1.6305,1.34693 v 2.12673 h 2.37485 l 1.27604,3.40277 2.87109,-0.0532 2.63479,-4.83829 c -0.81171,-1.79786 -1.47808,-2.8691 -2.72577,-4.37636 l -2.98216,1.37648 -3.87064,-1.60214 -0.73018,-1.93771 -0.58485,-2.16218 c -1.37726,-0.85228 -1.5919,-1.02633 -3.98645,-1.24882 l -1.62577,5.15968 2.24489,1.74273 v 2.26852 H 45.93737 V 29.82854 L 31.81823,26.64321 30.55284,27.17489 28.89279,26.12332 23.81935,24.40424 25.43212,17.9886 23.34084,14.37315 22.8446,2.8356 Z"
     style="opacity:1;fill:#D64541;fill-opacity:1"
     id="CA_20"
     inkscape:connector-curvature="0" />
</svg>
