<?xml version="1.0" encoding="UTF-8" standalone="no"?>
<svg
   xmlns:dc="http://purl.org/dc/elements/1.1/"
   xmlns:cc="http://creativecommons.org/ns#"
   xmlns:rdf="http://www.w3.org/1999/02/22-rdf-syntax-ns#"
   xmlns:svg="http://www.w3.org/2000/svg"
   xmlns="http://www.w3.org/2000/svg"
   xmlns:sodipodi="http://sodipodi.sourceforge.net/DTD/sodipodi-0.dtd"
   xmlns:inkscape="http://www.inkscape.org/namespaces/inkscape"
   version="1.0"
   width="21.6446"
   height="30.14187"
   id="svg2"
   sodipodi:docname="CA_42.svg"
   inkscape:version="0.92.2 5c3e80d, 2017-08-06">
  <metadata
     id="metadata296">
    <rdf:RDF>
      <cc:Work
         rdf:about="">
        <dc:format>image/svg+xml</dc:format>
        <dc:type
           rdf:resource="http://purl.org/dc/dcmitype/StillImage" />
      </cc:Work>
    </rdf:RDF>
  </metadata>
  <defs
     id="defs294" />
  <sodipodi:namedview
     pagecolor="#ffffff"
     bordercolor="#666666"
     borderopacity="1"
     objecttolerance="10"
     gridtolerance="10"
     guidetolerance="10"
     inkscape:pageopacity="0"
     inkscape:pageshadow="2"
     inkscape:window-width="640"
     inkscape:window-height="480"
     id="namedview292"
     showgrid="false"
     inkscape:zoom="0.12542268"
     inkscape:cx="1052.337"
     inkscape:cy="219.79203"
     inkscape:window-x="0"
     inkscape:window-y="0"
     inkscape:window-maximized="0"
     inkscape:current-layer="svg2" />
  <path
     d="m 14.254334,30.14187 v -2.66556 l -1.98495,-0.44265 4.28278,-2.60544 1.13869,-2.12764 -0.9863,-1.56539 c -0.54246,-0.86096 -1.84181,-2.35149 -2.88748,-3.31232 l -1.90118,-1.74687 0.71968,-2.8674 -4.0525302,-2.39102 -0.56375,-4.07862 -5.74983,-0.84695 0.0752,-1.04034 c 0,-0.38615 -0.51042,-1.16403 -1.13426,-1.7286 C 0.58656381,2.15849 0.07614381,1.48094 0.07614381,1.21734 c 0,-0.26355 -0.21399,-0.74232 0.0756,-0.74232 L 4.4921638,2.25161 c 1.37706,0.11672 1.58903,-0.44298 2.17684,-1.07794 C 8.7541038,1.13327 10.237864,0.60416 11.947134,0 l 2.89273,1.09558 2.18912,-0.76325 1.6615,0.223 0.85592,1.19284 0.11275,2.66743 0.83358,0.92647 v 2.20159 h -2.83564 l -0.0376,2.08062 -1.56609,1.88491 3.91829,6.86322 1.65528,0.63519 c 0.11111,3.01729 -0.30396,4.4561 -1.24519,6.68418 h -1.61478 l -1.54948,3.40079 c -1.43636,0 -2.01607,0.0149 -2.96322,1.0493 z"
     style="fill:#D64541"
     id="CA_42"
     inkscape:connector-curvature="0" />
</svg>
