<?xml version="1.0" encoding="UTF-8" standalone="no"?>
<svg
   xmlns:dc="http://purl.org/dc/elements/1.1/"
   xmlns:cc="http://creativecommons.org/ns#"
   xmlns:rdf="http://www.w3.org/1999/02/22-rdf-syntax-ns#"
   xmlns:svg="http://www.w3.org/2000/svg"
   xmlns="http://www.w3.org/2000/svg"
   xmlns:sodipodi="http://sodipodi.sourceforge.net/DTD/sodipodi-0.dtd"
   xmlns:inkscape="http://www.inkscape.org/namespaces/inkscape"
   version="1.0"
   width="28.923567"
   height="28.07288"
   id="svg2"
   sodipodi:docname="CA_7.svg"
   inkscape:version="0.92.2 5c3e80d, 2017-08-06">
  <metadata
     id="metadata408">
    <rdf:RDF>
      <cc:Work
         rdf:about="">
        <dc:format>image/svg+xml</dc:format>
        <dc:type
           rdf:resource="http://purl.org/dc/dcmitype/StillImage" />
      </cc:Work>
    </rdf:RDF>
  </metadata>
  <defs
     id="defs406" />
  <sodipodi:namedview
     pagecolor="#ffffff"
     bordercolor="#666666"
     borderopacity="1"
     objecttolerance="10"
     gridtolerance="10"
     guidetolerance="10"
     inkscape:pageopacity="0"
     inkscape:pageshadow="2"
     inkscape:window-width="640"
     inkscape:window-height="480"
     id="namedview404"
     showgrid="false"
     inkscape:zoom="0.12542268"
     inkscape:cx="1213.8926"
     inkscape:cy="-93.176069"
     inkscape:window-x="0"
     inkscape:window-y="0"
     inkscape:window-maximized="0"
     inkscape:current-layer="svg2" />
  <path
     d="M 23.006256,28.07288 22.21523,26.53199 17.35352,25.75457 12.47638,21.75818 11.2515,22.14695 c -0.67375,0.2138 -2.77911,1.12399 -4.67859,2.02266 -1.89954,0.89862 -3.90031,1.63407 -4.44618,1.6343 l -0.99247,4.5e-4 V 24.10297 H 0.56713 C 0.25521,24.10297 0,23.90374 0,23.66016 0,23.41664 0.76563,22.92839 1.70139,22.57519 L 3.40277,21.93297 V 20.36083 L 7.15218,20.79854 7.9465,19.84146 C 8.38336,19.3151 8.79963,18.48347 8.87154,17.99341 L 9.00232,17.10239 8.11913,15.35672 c -0.4858,-0.9601 -1.27485,-2.19224 -1.75345,-2.7381 l -0.8702,-0.99248 h 0.85398 c 0.4697,0 1.59386,0.23411 2.4982,0.52023 0.90435,0.28617 2.37928,0.68214 3.27767,0.88001 l 1.63338,0.35979 -0.6138,-2.34712 1.73207,-1.73207 -0.74041,-3.14212 1.17591,-0.59503 V 3.53792 L 21.83446,4.53703 22.19322,0.17094 27.914976,1.565 28.906206,0 l 0.0174,3.03817 -1.78243,1.78243 h -3.96191 l -5.597666,4.82059 -5.7e-4,3.54745 1.55019,1.28659 3.912396,-0.0134 2.5206,6.08149 2.79226,2.62314 v 1.79553 c -1.78181,1.03711 -3.49642,2.20522 -5.35018,3.11093 z"
     style="opacity:1;fill:#D64541;fill-opacity:1"
     id="CA_7"
     inkscape:connector-curvature="0" />
</svg>
