<?xml version="1.0" encoding="UTF-8" standalone="no"?>
<svg
   xmlns:dc="http://purl.org/dc/elements/1.1/"
   xmlns:cc="http://creativecommons.org/ns#"
   xmlns:rdf="http://www.w3.org/1999/02/22-rdf-syntax-ns#"
   xmlns:svg="http://www.w3.org/2000/svg"
   xmlns="http://www.w3.org/2000/svg"
   xmlns:sodipodi="http://sodipodi.sourceforge.net/DTD/sodipodi-0.dtd"
   xmlns:inkscape="http://www.inkscape.org/namespaces/inkscape"
   version="1.0"
   width="191.6814"
   height="257.51187"
   id="svg2"
   sodipodi:docname="CO_4.svg"
   inkscape:version="0.92.2 5c3e80d, 2017-08-06">
  <metadata
     id="metadata32">
    <rdf:RDF>
      <cc:Work
         rdf:about="">
        <dc:format>image/svg+xml</dc:format>
        <dc:type
           rdf:resource="http://purl.org/dc/dcmitype/StillImage" />
      </cc:Work>
    </rdf:RDF>
  </metadata>
  <defs
     id="defs30" />
  <sodipodi:namedview
     pagecolor="#ffffff"
     bordercolor="#666666"
     borderopacity="1"
     objecttolerance="10"
     gridtolerance="10"
     guidetolerance="10"
     inkscape:pageopacity="0"
     inkscape:pageshadow="2"
     inkscape:window-width="640"
     inkscape:window-height="480"
     id="namedview28"
     showgrid="false"
     inkscape:zoom="0.12542268"
     inkscape:cx="422.74805"
     inkscape:cy="87.736621"
     inkscape:window-x="0"
     inkscape:window-y="0"
     inkscape:window-maximized="0"
     inkscape:current-layer="svg2" />
  <path
     d="m 0,0 v 3.22555 l 2.26851,2.42799 v 1.75458 h 1.13426 v 1.55961 l 1.87861,1.5596 1.6837,3.68634 c 0.92941,2.02748 2.06009,5.08992 2.51663,6.80554 0.45631,1.71557 1.11435,4.31738 1.45327,5.77763 l 0.62027,2.65841 2.05584,0.53168 v 2.30396 l 2.3926,0.76206 -0.63802,3.19009 1.80772,3.77498 3.34958,3.15466 0.81525,3.08376 22.86237,1.41782 -2.26851,5.29908 0.72666,0.46079 c 0.4013,0.25464 0.88183,0.47367 1.08106,0.47855 0.19923,0.005 0.5289,0.85971 0.72666,1.91406 l 0.35446,1.91405 9.18039,-3.9699 2.69386,3.26099 -1.18745,7.5499 57.59899,2.74701 -3.2964,71.5291 -16.0214,-0.81524 -2.07354,44.67913 1.55964,0.14178 1.1874,-0.12408 1.2051,1.24059 3.3142,0.14178 c 1.3631,0.13345 3.136,0.48728 3.9521,0.79756 1.6046,0.37288 3.0253,0.57597 4.8561,0.56712 h 3.3673 v 2.83565 l 3.1724,-0.0177 -0.9925,2.81795 0.9925,1.80772 2.428,-0.63802 0.7621,1.22284 -2.9952,3.13696 0.7444,4.99782 2.3394,4.25347 h 1.8786 l 1.0279,-1.13426 c 0.5646,-0.62384 1.2867,-1.13426 1.5951,-1.13426 h 0.5494 l -0.6026,11.90971 16.03909,0.0177 -1.8431,40.14211 50.244,1.80772 5.1847,-249.17571 C 124.05871,7.48809 64.64932,3.41112 0,6e-5 Z"
     style="fill:#D64541;fill-opacity:1"
     id="CO_4"
     inkscape:connector-curvature="0" />
</svg>
