<?xml version="1.0" encoding="UTF-8" standalone="no"?>
<svg
   xmlns:dc="http://purl.org/dc/elements/1.1/"
   xmlns:cc="http://creativecommons.org/ns#"
   xmlns:rdf="http://www.w3.org/1999/02/22-rdf-syntax-ns#"
   xmlns:svg="http://www.w3.org/2000/svg"
   xmlns="http://www.w3.org/2000/svg"
   xmlns:sodipodi="http://sodipodi.sourceforge.net/DTD/sodipodi-0.dtd"
   xmlns:inkscape="http://www.inkscape.org/namespaces/inkscape"
   version="1.0"
   width="90.332962"
   height="65.414719"
   id="svg2"
   sodipodi:docname="CO_6.svg"
   inkscape:version="0.92.2 5c3e80d, 2017-08-06">
  <metadata
     id="metadata48">
    <rdf:RDF>
      <cc:Work
         rdf:about="">
        <dc:format>image/svg+xml</dc:format>
        <dc:type
           rdf:resource="http://purl.org/dc/dcmitype/StillImage" />
      </cc:Work>
    </rdf:RDF>
  </metadata>
  <defs
     id="defs46" />
  <sodipodi:namedview
     pagecolor="#ffffff"
     bordercolor="#666666"
     borderopacity="1"
     objecttolerance="10"
     gridtolerance="10"
     guidetolerance="10"
     inkscape:pageopacity="0"
     inkscape:pageshadow="2"
     inkscape:window-width="640"
     inkscape:window-height="480"
     id="namedview44"
     showgrid="false"
     inkscape:zoom="0.12542268"
     inkscape:cx="401.1954"
     inkscape:cy="-31.737549"
     inkscape:window-x="0"
     inkscape:window-y="0"
     inkscape:window-maximized="0"
     inkscape:current-layer="svg2" />
  <path
     d="M 13.64653,0 11.41346,2.4103 10.10198,18.57346 0,17.98858 v 2.81795 l 1.43557,0.65572 c 0.79443,0.362 2.07779,0.65577 2.83564,0.65577 h 1.36463 l 1.79003,2.72931 -0.69122,2.7293 2.87109,1.31149 -1.02792,16.32264 c 26.51054,1.43036 39.56851,2.13292 64.61894,3.62316 l -0.8701,15.74786 15.2947,0.83294 2.7116,-53.91267 -55.10009,-2.56977 0.65577,2.53432 -1.57736,0.99248 1.29379,0.0177 0.65572,1.73683 -1.11651,1.11651 c -0.61675,0.61675 -1.37171,1.11656 -1.68369,1.11656 h -0.56713 v -1.5596 l -3.38502,-1.40013 -1.70139,0.65577 0.63802,1.66594 -3.98765,0.76205 -0.60257,-0.37215 c -0.33211,-0.20535 -0.60252,-0.59599 -0.60258,-0.86844 0.20655,-0.42864 0.33353,-0.69808 1.2406,-0.90383 L 18.71524,8.84358 V 3.57995 L 21.26732,2.35705 17.27973,2.26845 15.86191,-6e-5 Z"
     style="fill:#D64541;fill-opacity:1"
     id="CO_6"
     inkscape:connector-curvature="0" />
</svg>
