<?xml version="1.0" encoding="UTF-8" standalone="no"?>
<svg
   xmlns:dc="http://purl.org/dc/elements/1.1/"
   xmlns:cc="http://creativecommons.org/ns#"
   xmlns:rdf="http://www.w3.org/1999/02/22-rdf-syntax-ns#"
   xmlns:svg="http://www.w3.org/2000/svg"
   xmlns="http://www.w3.org/2000/svg"
   xmlns:sodipodi="http://sodipodi.sourceforge.net/DTD/sodipodi-0.dtd"
   xmlns:inkscape="http://www.inkscape.org/namespaces/inkscape"
   version="1.0"
   width="24.6304"
   height="31.81031"
   id="svg2"
   sodipodi:docname="CT_3.svg"
   inkscape:version="0.92.2 5c3e80d, 2017-08-06">
  <metadata
     id="metadata24">
    <rdf:RDF>
      <cc:Work
         rdf:about="">
        <dc:format>image/svg+xml</dc:format>
        <dc:type
           rdf:resource="http://purl.org/dc/dcmitype/StillImage" />
      </cc:Work>
    </rdf:RDF>
  </metadata>
  <defs
     id="defs22" />
  <sodipodi:namedview
     pagecolor="#ffffff"
     bordercolor="#666666"
     borderopacity="1"
     objecttolerance="10"
     gridtolerance="10"
     guidetolerance="10"
     inkscape:pageopacity="0"
     inkscape:pageshadow="2"
     inkscape:window-width="640"
     inkscape:window-height="480"
     id="namedview20"
     showgrid="false"
     inkscape:zoom="0.12542268"
     inkscape:cx="-1092.3363"
     inkscape:cy="-346.11549"
     inkscape:window-x="0"
     inkscape:window-y="0"
     inkscape:window-maximized="0"
     inkscape:current-layer="svg2" />
  <path
     d="M 3.1408,31.81031 2.3987,28.85349 3.8177,22.51278 0,20.0562 2.4999,17.331 1.9676,16.48907 C 1.6747,16.026 1.4313,15.09419 1.4265,14.41836 L 1.4165,13.18958 0.1721,12.77477 1.477,7.92864 6.1711,8.27447 7.1203,11.9608 h 3.244 L 11.0915,8.0849 16.8297,7.3269 14.5544,0.71343 15.2677,0 l 1.8728,2.48274 1.5272,-0.94387 5.1471,0.31652 0.8143,1.31492 -6.2138,3.14504 3.9681,9.54954 1.8791,1.05159 -1.4625,3.30395 -3.8531,-0.44983 -4.6592,3.08313 -1.0178,-1.81887 h -1.8341 l 0.7245,0.72455 -2.804,3.33238 v 1.61436 H 7.8308 l -0.8945,0.99247 c -0.4919,0.54587 -1.0695,1.6943 -1.2836,2.55208 l -0.3892,1.55961 z"
     style="fill:#D64541;fill-opacity:1"
     id="CT_3"
     inkscape:connector-curvature="0" />
</svg>
