<?xml version="1.0" encoding="UTF-8" standalone="no"?>
<svg
   xmlns:dc="http://purl.org/dc/elements/1.1/"
   xmlns:cc="http://creativecommons.org/ns#"
   xmlns:rdf="http://www.w3.org/1999/02/22-rdf-syntax-ns#"
   xmlns:svg="http://www.w3.org/2000/svg"
   xmlns="http://www.w3.org/2000/svg"
   xmlns:sodipodi="http://sodipodi.sourceforge.net/DTD/sodipodi-0.dtd"
   xmlns:inkscape="http://www.inkscape.org/namespaces/inkscape"
   version="1.0"
   width="41.299999"
   height="46.291691"
   id="svg2"
   sodipodi:docname="CT_5.svg"
   inkscape:version="0.92.2 5c3e80d, 2017-08-06">
  <metadata
     id="metadata40">
    <rdf:RDF>
      <cc:Work
         rdf:about="">
        <dc:format>image/svg+xml</dc:format>
        <dc:type
           rdf:resource="http://purl.org/dc/dcmitype/StillImage" />
      </cc:Work>
    </rdf:RDF>
  </metadata>
  <defs
     id="defs38" />
  <sodipodi:namedview
     pagecolor="#ffffff"
     bordercolor="#666666"
     borderopacity="1"
     objecttolerance="10"
     gridtolerance="10"
     guidetolerance="10"
     inkscape:pageopacity="0"
     inkscape:pageshadow="2"
     inkscape:window-width="640"
     inkscape:window-height="480"
     id="namedview36"
     showgrid="false"
     inkscape:zoom="0.12542268"
     inkscape:cx="-1067.0991"
     inkscape:cy="-352.37183"
     inkscape:window-x="0"
     inkscape:window-y="0"
     inkscape:window-maximized="0"
     inkscape:current-layer="svg2" />
  <path
     d="M 11.7905,46.29169 8.5036,43.52548 0,3.38627 C 4.8553,2.27365 9.6673,0.94573 14.5587,0 l 0.9137,15.11753 h 1.593 l 2.6079,-2.60794 1.8126,1.14337 L 26.9386,11.4 27.2975,8.31199 H 26.0879 V 5.47635 h 1.1343 V 3.81868 l 6.1426,-1.67275 0.7933,9.8666 2.5477,1.32654 1.1622,4.5788 -5.3814,1.22447 -0.7211,-1.74101 c -0.3966,-0.95755 -0.9356,-1.87356 -1.1977,-2.03558 l -0.4767,-0.29457 c -1.3064,0.65688 -2.6101,1.31932 -3.8857,2.03322 l 1.794,4.25155 h 2.4255 l 1.0507,4.21178 4.2174,0.14141 c 1.1211,-1.11448 2.1129,-2.42174 3.4917,-3.21893 l 2.1153,5.01153 -5.4618,0.75119 -0.7408,3.94889 -2.4205,-0.35399 -0.9501,-3.68634 h -5.5875 l -1.3892,4.87037 -1.4293,-0.68092 -0.072,1.4062 c 0,0.50948 -0.3469,1.58449 -0.7667,2.3889 l -0.7631,1.46255 0.5278,3.59686 h -2.3246 l -2.5648,4.56343 -0.9645,-1.72335 c -1.5175,0.78401 -3.0355,1.57009 -4.6023,2.24616 z"
     style="fill:#D64541;fill-opacity:1"
     id="CT_5"
     inkscape:connector-curvature="0" />
</svg>
