<?xml version="1.0" encoding="UTF-8" standalone="no"?>
<svg
   xmlns:dc="http://purl.org/dc/elements/1.1/"
   xmlns:cc="http://creativecommons.org/ns#"
   xmlns:rdf="http://www.w3.org/1999/02/22-rdf-syntax-ns#"
   xmlns:svg="http://www.w3.org/2000/svg"
   xmlns="http://www.w3.org/2000/svg"
   xmlns:sodipodi="http://sodipodi.sourceforge.net/DTD/sodipodi-0.dtd"
   xmlns:inkscape="http://www.inkscape.org/namespaces/inkscape"
   version="1.0"
   width="72.615898"
   height="46.500301"
   id="svg2"
   sodipodi:docname="FL_12.svg"
   inkscape:version="0.92.2 5c3e80d, 2017-08-06">
  <metadata
     id="metadata32">
    <rdf:RDF>
      <cc:Work
         rdf:about="">
        <dc:format>image/svg+xml</dc:format>
        <dc:type
           rdf:resource="http://purl.org/dc/dcmitype/StillImage" />
      </cc:Work>
    </rdf:RDF>
  </metadata>
  <defs
     id="defs30" />
  <sodipodi:namedview
     pagecolor="#ffffff"
     bordercolor="#666666"
     borderopacity="1"
     objecttolerance="10"
     gridtolerance="10"
     guidetolerance="10"
     inkscape:pageopacity="0"
     inkscape:pageshadow="2"
     inkscape:window-width="640"
     inkscape:window-height="480"
     id="namedview28"
     showgrid="false"
     inkscape:zoom="0.12542268"
     inkscape:cx="-829.54295"
     inkscape:cy="581.04997"
     inkscape:window-x="0"
     inkscape:window-y="0"
     inkscape:window-maximized="0"
     inkscape:current-layer="svg2" />
  <path
     d="M 45.0336,0 43.3444,0.5403 41.9443,5.6555 39.4185,6.3228 38.6234,3.1021 37.6345,3.2344 34.4379,6.4487 31.9897,2.92 28.2374,2.896 l 1.0584,1.6897 -0.2769,2.1862 -2.4121,3.2609 -7.3407,3.4326 -1.5481,3.687 0.3428,1.6513 -2.8369,2.5478 1.1697,4.1294 3.2787,1.3647 0.5672,3.0128 -3.9167,2.0381 0.7266,4.8915 -6.1676,1.3824 -1.1874,-3.3142 C 9.0418,33.0405 8.3451,30.7572 8.1525,29.7698 L 7.7981,27.9621 9.1804,25.7644 4.2535,19.4551 1.542,20.8198 c 0.3027,0.6013 0.992,2.1428 2.5343,6.4865 2.2898,6.4489 0.6477,4.6639 0.4608,7.0005 -0.187,2.3366 -0.7522,4.2658 -1.9672,7.9576 C 1.8271,44.5214 0.7367,45.8197 0,46.5001 22.8744,42.1462 47.1077,37.5222 72.6159,32.53 71.434,31.6422 71.4015,30.3513 70.9357,29.0986 69.9537,28.8464 69.9569,28.7133 69.7174,27.3452 l -4.6925,-5.143 -4.4575,-0.4042 -1.3201,-3.5657 -1.2246,-0.1732 -0.1674,-1.7379 -3.464,-2.112 -1.9837,0.3728 -0.034,-1.1887 -2.2507,-1.004 0.048,-1.0769 3.4357,1.1581 1.74,-0.5005 -0.018,-3.6863 z"
     style="fill:#D64541"
     id="FL_12"
     inkscape:connector-curvature="0" />
</svg>
