<?xml version="1.0" encoding="UTF-8" standalone="no"?>
<svg
   xmlns:dc="http://purl.org/dc/elements/1.1/"
   xmlns:cc="http://creativecommons.org/ns#"
   xmlns:rdf="http://www.w3.org/1999/02/22-rdf-syntax-ns#"
   xmlns:svg="http://www.w3.org/2000/svg"
   xmlns="http://www.w3.org/2000/svg"
   xmlns:sodipodi="http://sodipodi.sourceforge.net/DTD/sodipodi-0.dtd"
   xmlns:inkscape="http://www.inkscape.org/namespaces/inkscape"
   version="1.0"
   width="90.274597"
   height="61.807701"
   id="svg2"
   sodipodi:docname="FL_15.svg"
   inkscape:version="0.92.2 5c3e80d, 2017-08-06">
  <metadata
     id="metadata56">
    <rdf:RDF>
      <cc:Work
         rdf:about="">
        <dc:format>image/svg+xml</dc:format>
        <dc:type
           rdf:resource="http://purl.org/dc/dcmitype/StillImage" />
      </cc:Work>
    </rdf:RDF>
  </metadata>
  <defs
     id="defs54" />
  <sodipodi:namedview
     pagecolor="#ffffff"
     bordercolor="#666666"
     borderopacity="1"
     objecttolerance="10"
     gridtolerance="10"
     guidetolerance="10"
     inkscape:pageopacity="0"
     inkscape:pageshadow="2"
     inkscape:window-width="640"
     inkscape:window-height="480"
     id="namedview52"
     showgrid="false"
     inkscape:zoom="0.12542268"
     inkscape:cx="-856.50115"
     inkscape:cy="568.37027"
     inkscape:window-x="0"
     inkscape:window-y="0"
     inkscape:window-maximized="0"
     inkscape:current-layer="svg2" />
  <path
     d="m 66.2164,61.8077 -0.9997,-4.9942 -18.9278,3.5887 -0.9437,-0.771 C 44.7807,58.934 44.3464,57.4574 44.3464,57.024 l -0.8859,-0.4292 -0.1656,-0.7376 c 0,-0.3146 -0.7018,-1.3807 -1.5596,-2.369 -0.8578,-0.9883 -2.0062,-2.2622 -2.5521,-2.8308 l -0.9924,-1.0337 -4.2535,-0.2835 -1.2508,-3.4381 -1.3013,-0.2483 -0.048,-1.4178 -3.7565,-2.334 -1.8668,0.3134 v -1.0222 l -1.1342,-0.36 c -0.6239,-0.198 -1.1343,-0.5758 -1.1343,-0.8396 v -0.4797 l 3.2355,1.2213 1.9514,-0.6067 -0.027,-4.1045 -10.4565,-8.3617 -2.0447,0.5347 -1.4842,5.2549 -1.9089,0.3676 -0.7306,-2.911 H 10.5997 L 7.5372,33.882 5.2686,30.3413 H 0.8821 L 0.0978,29.4309 8e-4,24.7528 1.3676,24.3727 1.6118,25.7306 27.6997,19.0001 56.0533,13.336 c 0.5801,-1.5467 1.1281,-2.3822 2.6619,-4.0097 L 62.702,10.0742 62.0004,7.8638 64.8466,5.19 V 0 l 3.3666,5.0747 -2.9575,3.087 0.5631,8.285 4.1384,10.2083 2.68,3.9699 c 1.4739,2.1835 3.0211,4.3256 3.4381,4.7604 0.417,0.4347 2.6045,3.242 4.8612,6.2384 l 4.103,5.4479 5.231,9.7438 z"
     style="fill:#D64541"
     id="FL_15"
     inkscape:connector-curvature="0" />
</svg>
