<?xml version="1.0" encoding="UTF-8" standalone="no"?>
<svg
   xmlns:dc="http://purl.org/dc/elements/1.1/"
   xmlns:cc="http://creativecommons.org/ns#"
   xmlns:rdf="http://www.w3.org/1999/02/22-rdf-syntax-ns#"
   xmlns:svg="http://www.w3.org/2000/svg"
   xmlns="http://www.w3.org/2000/svg"
   xmlns:sodipodi="http://sodipodi.sourceforge.net/DTD/sodipodi-0.dtd"
   xmlns:inkscape="http://www.inkscape.org/namespaces/inkscape"
   version="1.0"
   width="12.9487"
   height="25.034401"
   id="svg2"
   sodipodi:docname="FL_21.svg"
   inkscape:version="0.92.2 5c3e80d, 2017-08-06">
  <metadata
     id="metadata112">
    <rdf:RDF>
      <cc:Work
         rdf:about="">
        <dc:format>image/svg+xml</dc:format>
        <dc:type
           rdf:resource="http://purl.org/dc/dcmitype/StillImage" />
      </cc:Work>
    </rdf:RDF>
  </metadata>
  <defs
     id="defs110" />
  <sodipodi:namedview
     pagecolor="#ffffff"
     bordercolor="#666666"
     borderopacity="1"
     objecttolerance="10"
     gridtolerance="10"
     guidetolerance="10"
     inkscape:pageopacity="0"
     inkscape:pageshadow="2"
     inkscape:window-width="640"
     inkscape:window-height="480"
     id="namedview108"
     showgrid="false"
     inkscape:zoom="0.12542268"
     inkscape:cx="-962.18025"
     inkscape:cy="679.82037"
     inkscape:window-x="0"
     inkscape:window-y="0"
     inkscape:window-maximized="0"
     inkscape:current-layer="svg2" />
  <path
     d="m 9.4703,25.0344 c -0.493,0 -1.0509,-0.25 -1.2397,-0.5554 L 7.8873,23.9235 8.4807,22.8149 C 8.807,22.2051 9.074,21.5618 9.074,21.3853 9.074,21.2089 8.7002,21.0645 8.2433,21.0645 H 7.4126 L 6.9053,20.072 C 6.6264,19.5261 6.2407,18.2487 6.0483,17.2333 L 5.6984,15.387 6.343,13.9723 c 0.3545,-0.7781 0.8499,-1.4148 1.1007,-1.4148 0.2509,0 0.7279,-0.5078 1.0601,-1.1284 l 0.604,-1.1285 C 7.9488,8.6484 7.4766,7.8389 6.7546,4.5011 L 0,5.875 V 1.2587 L 4.6744,0 l 3.6334,1.301 4.6409,8.724 -0.132,3.3087 -4.0055,2.7686 3.2972,4.5937 -0.2348,2.3534 -1.5068,1.985 z"
     style="fill:#D64541"
     id="FL_21"
     inkscape:connector-curvature="0" />
</svg>
