<?xml version="1.0" encoding="UTF-8" standalone="no"?>
<svg
   xmlns:dc="http://purl.org/dc/elements/1.1/"
   xmlns:cc="http://creativecommons.org/ns#"
   xmlns:rdf="http://www.w3.org/1999/02/22-rdf-syntax-ns#"
   xmlns:svg="http://www.w3.org/2000/svg"
   xmlns="http://www.w3.org/2000/svg"
   xmlns:sodipodi="http://sodipodi.sourceforge.net/DTD/sodipodi-0.dtd"
   xmlns:inkscape="http://www.inkscape.org/namespaces/inkscape"
   version="1.0"
   width="17.920107"
   height="22.6539"
   id="svg2"
   sodipodi:docname="FL_20.svg"
   inkscape:version="0.92.2 5c3e80d, 2017-08-06">
  <metadata
     id="metadata104">
    <rdf:RDF>
      <cc:Work
         rdf:about="">
        <dc:format>image/svg+xml</dc:format>
        <dc:type
           rdf:resource="http://purl.org/dc/dcmitype/StillImage" />
      </cc:Work>
    </rdf:RDF>
  </metadata>
  <defs
     id="defs102" />
  <sodipodi:namedview
     pagecolor="#ffffff"
     bordercolor="#666666"
     borderopacity="1"
     objecttolerance="10"
     gridtolerance="10"
     guidetolerance="10"
     inkscape:pageopacity="0"
     inkscape:pageshadow="2"
     inkscape:window-width="640"
     inkscape:window-height="480"
     id="namedview100"
     showgrid="false"
     inkscape:zoom="0.12542268"
     inkscape:cx="-961.14995"
     inkscape:cy="663.46087"
     inkscape:window-x="0"
     inkscape:window-y="0"
     inkscape:window-maximized="0"
     inkscape:current-layer="svg2" />
  <path
     d="m 14.707007,0 -1.1113,0.4118 -0.319,1.4178 0.1773,1.5596 1.1874,1.0457 -0.4963,2.2153 -1.7368,0.6912 -3.2256002,-2.0204 1.8078002,-2.2153 -0.6557,-1.1875 -1.2584002,0.6026 0.7621,1.152 -1.4178,0.4785 -0.4077,-1.0456 -2.0815,0.9405 -2.739,5.6878 -3.10150003,-0.6026 c -0.1494,0.1493 -0.1114,1.1495 0.089,2.2153 0.1999,1.0658 0.5559,2.2253 0.7798,2.5876 l 0.40760003,0.6734 4.2357,-1.1697 3.7218,1.5596 5.5118002,-2.3925 0.6558,0.7975 c 0.3992,0.5459 0.6025,1.526 0.6025,2.0381 10e-5,0.5123 0.4123,0.8732 0.6204,1.0811 -0.01,0.3639 -0.033,2.3909 0.035,4.1649 0.075,1.9372 0.1417,1.9672 0.1418,1.9672 l 1.0279,-0.7798 v -0.2127 c 0,0 -0.4288,-0.025 -0.6026,-0.2481 -0.1739,-0.2236 -0.096,-0.3541 0.053,-0.7266 0.149,-0.3726 0.3189,-0.3546 0.319,-0.3545 l -0.2127,-1.3647 0.319,-0.089 -0.6203,-2.3217 c -0.2077,-2.5291 -0.6886,-5.0247 -1.0633,-7.5321 l -0.6026,-0.1596 -7.4081002,3.1193 -0.5671,-1.2052 2.8002002,-1.2406 -3.1901002,-1.0102 2.8533,-1.2051 0.5494002,0.8684 1.0102,-0.5671 0.3368,1.0279 3.3318,-1.3646 z"
     style="fill:#D64541"
     id="FL_20"
     inkscape:connector-curvature="0" />
</svg>
