<?xml version="1.0" encoding="UTF-8" standalone="no"?>
<svg
   xmlns:dc="http://purl.org/dc/elements/1.1/"
   xmlns:cc="http://creativecommons.org/ns#"
   xmlns:rdf="http://www.w3.org/1999/02/22-rdf-syntax-ns#"
   xmlns:svg="http://www.w3.org/2000/svg"
   xmlns="http://www.w3.org/2000/svg"
   xmlns:sodipodi="http://sodipodi.sourceforge.net/DTD/sodipodi-0.dtd"
   xmlns:inkscape="http://www.inkscape.org/namespaces/inkscape"
   version="1.0"
   width="91.562103"
   height="84.061096"
   id="svg2"
   sodipodi:docname="FL_5.svg"
   inkscape:version="0.92.2 5c3e80d, 2017-08-06">
  <metadata
     id="metadata168">
    <rdf:RDF>
      <cc:Work
         rdf:about="">
        <dc:format>image/svg+xml</dc:format>
        <dc:type
           rdf:resource="http://purl.org/dc/dcmitype/StillImage" />
      </cc:Work>
    </rdf:RDF>
  </metadata>
  <defs
     id="defs166" />
  <sodipodi:namedview
     pagecolor="#ffffff"
     bordercolor="#666666"
     borderopacity="1"
     objecttolerance="10"
     gridtolerance="10"
     guidetolerance="10"
     inkscape:pageopacity="0"
     inkscape:pageshadow="2"
     inkscape:window-width="640"
     inkscape:window-height="480"
     id="namedview164"
     showgrid="false"
     inkscape:zoom="0.12542268"
     inkscape:cx="-773.78105"
     inkscape:cy="551.20817"
     inkscape:window-x="0"
     inkscape:window-y="0"
     inkscape:window-maximized="0"
     inkscape:current-layer="svg2" />
  <path
     d="M 73.4349,84.0611 72.3324,77.9052 41.6276,83.4977 39.6822,79.398 h -1.0225 v -6.509 l 3.4161,-3.2827 v -2.2486 l -6.2384,0.7794 -0.065,-1.884 c -0.036,-1.0362 -0.1455,-3.0324 -0.2437,-4.4361 -0.098,-1.4036 -0.4605,-4.4661 -0.8051,-6.8055 -0.3444,-2.3394 -0.6151,-5.1174 -0.6013,-6.1734 l 0.025,-1.92 -1.0386,-1.2642 0.01,-4.2842 -1.3865,-1.6707 -1.8461,-0.031 -1.4693,-1.5439 c -0.808,-0.8491 -1.6357,-2.0066 -1.8391,-2.5722 l -0.3699,-1.0285 -1.1423,0.706 v -3.494 l -1.276,-0.5088 c -0.7019,-0.2799 -1.7793,-0.671 -2.3944,-0.8691 l -1.1184,-0.3602 1.4518,-0.8972 -0.7353,-2.9296 -0.6577,-0.2406 c -0.3617,-0.1324 -2.846,-0.1212 -5.5206,0.025 L 9.952,26.2204 8.6539,29.6594 6.9299,28.2286 7.4578,27.3745 5.1517,25.2876 5.7722,22.8156 5.0687,22.2491 C 4.6819,21.9375 3.5505,21.5084 2.5545,21.2956 L -6e-4,20.7335 1.3675,19.2831 c 4.3466,-2.3393 4.7971,-5.3103 4.896,-8.3385 L 7.6924,8.8673 7.1074,4.5132 9.4836,0.8514 13.7054,0.4298 17.9272,0.0082 18.9147,0.9957 23.9313,7e-4 v 1.7915 l 5.6712,-1.3008 c 0.09,2.7002 -1.4845,3.868 -1.7013,6.2618 l 5.2102,2.3047 1.9277,-1.0317 4.7892,3.6006 1.0743,3.1193 1.5512,-1.1685 2.9459,7.6904 0.7569,5.9618 -3.5101,0.702 v 3.261 c 3.1118,0.048 5.7116,0.608 7.6562,1.8231 l 17.9621,-3.363 1.6637,7.6791 c 1.5801,0.6091 3.1286,1.3163 4.7527,1.8006 l 1.5748,-6.9752 3.9948,1.7856 2.091,8.3088 -1.1062,2.5521 1.3235,2.905 2.5102,-0.63 c 5.095,4.9875 5.5396,9.8852 6.4922,15.8237 l -6.9021,1.7349 -0.3969,-1.3224 -1.917,0.7355 0.025,4.8562 c 0.9206,1.1152 1.8103,2.2253 2.2307,3.6195 0.1629,1.1571 -0.9801,2.8165 -2.3149,4.5497 l -7.3813,3.4875 z"
     style="fill:#D64541"
     id="FL_5"
     inkscape:connector-curvature="0" />
</svg>
