<?xml version="1.0" encoding="UTF-8" standalone="no"?>
<svg
   xmlns:dc="http://purl.org/dc/elements/1.1/"
   xmlns:cc="http://creativecommons.org/ns#"
   xmlns:rdf="http://www.w3.org/1999/02/22-rdf-syntax-ns#"
   xmlns:svg="http://www.w3.org/2000/svg"
   xmlns="http://www.w3.org/2000/svg"
   xmlns:sodipodi="http://sodipodi.sourceforge.net/DTD/sodipodi-0.dtd"
   xmlns:inkscape="http://www.inkscape.org/namespaces/inkscape"
   version="1.0"
   width="68.731499"
   height="104.4544"
   id="svg2"
   sodipodi:docname="FL_6.svg"
   inkscape:version="0.92.2 5c3e80d, 2017-08-06">
  <metadata
     id="metadata176">
    <rdf:RDF>
      <cc:Work
         rdf:about="">
        <dc:format>image/svg+xml</dc:format>
        <dc:type
           rdf:resource="http://purl.org/dc/dcmitype/StillImage" />
      </cc:Work>
    </rdf:RDF>
  </metadata>
  <defs
     id="defs174" />
  <sodipodi:namedview
     pagecolor="#ffffff"
     bordercolor="#666666"
     borderopacity="1"
     objecttolerance="10"
     gridtolerance="10"
     guidetolerance="10"
     inkscape:pageopacity="0"
     inkscape:pageshadow="2"
     inkscape:window-width="640"
     inkscape:window-height="480"
     id="namedview172"
     showgrid="false"
     inkscape:zoom="0.12542268"
     inkscape:cx="-780.93825"
     inkscape:cy="505.67677"
     inkscape:window-x="0"
     inkscape:window-y="0"
     inkscape:window-maximized="0"
     inkscape:current-layer="svg2" />
  <path
     d="m 67.2552,104.4544 -3.8063,-1.5402 -2.1546,-7.9463 -17.581,3.3743 c -2.3401,-0.852 -4.5739,-1.8313 -7.6563,-1.7925 v -2.1784 l 3.5012,-0.769 -0.7975,-6.8711 -3.2968,-7.9633 -1.5668,1.5088 -0.9593,-2.9446 -5.0416,-3.9563 -1.9185,1.0267 -4.6545,-1.9558 c 0.1,-2.274 1.9957,-3.2153 1.6899,-6.6482 l -5.6713,1.3818 V 65.3576 L 12.0181,66.4304 10.8014,65.3682 2.0109,66.2487 1.7077,66.9941 0.1427,66.0269 0,52.8813 l 2.0593,-0.6537 -0.03,-4.5149 3.5874,-3.2767 4.1268,4.789 4.4791,0.2804 3.2166,-3.2448 0.1716,-2.7566 2.2831,-1.9298 6.2958,-0.036 2.9994,-1.4894 0.062,-1.3463 h 2.0864 c 2.0212,-2.9672 1.5262,-3.9216 1.3164,-5.1041 h 1.488 c 1.9748,-1.2726 2.3353,-3.0833 2.4819,-4.9653 l 1.7013,-1.412 V 25.2364 L 42.8622,24.5109 41.256,16.367 52.0986,0 l 3.8471,6.6598 -0.6519,5.6712 5.7165,5.6287 v 3.0949 l 1.1342,0.701 v 4.5822 l 1.8973,3.9981 -5.3698,4.6803 0.7561,4.6595 c -1.9535,2.7177 -4.0954,4.1169 -6.3576,4.6738 l -0.1738,2.8235 -3.552,1.0621 -1.7014,2.0078 -3.613,1.7142 -1.6562,-0.4973 -4.0651,2.0194 -2.239,-1.1984 -3.3008,3.6943 3.447,4.8 2.7118,-1.4889 1.0006,3.5316 2.226,2.7821 -0.7498,4.5265 6.761,-1.4843 1.6307,2.6703 -3.5316,1.0148 c -0.38,3.0217 0.6042,6.1798 1.7461,9.3537 l 5.0928,1.2824 0.6586,3.2929 8.1129,2.9208 1.7264,-2.8503 4.4977,5.8983 0.6317,5.7253 z"
     style="fill:#D64541"
     id="FL_6"
     inkscape:connector-curvature="0" />
</svg>
