<?xml version="1.0" encoding="UTF-8" standalone="no"?>
<svg
   xmlns:dc="http://purl.org/dc/elements/1.1/"
   xmlns:cc="http://creativecommons.org/ns#"
   xmlns:rdf="http://www.w3.org/1999/02/22-rdf-syntax-ns#"
   xmlns:svg="http://www.w3.org/2000/svg"
   xmlns="http://www.w3.org/2000/svg"
   xmlns:sodipodi="http://sodipodi.sourceforge.net/DTD/sodipodi-0.dtd"
   xmlns:inkscape="http://www.inkscape.org/namespaces/inkscape"
   version="1.0"
   width="46.468399"
   height="96.482803"
   id="svg2"
   sodipodi:docname="FL_7.svg"
   inkscape:version="0.92.2 5c3e80d, 2017-08-06">
  <metadata
     id="metadata184">
    <rdf:RDF>
      <cc:Work
         rdf:about="">
        <dc:format>image/svg+xml</dc:format>
        <dc:type
           rdf:resource="http://purl.org/dc/dcmitype/StillImage" />
      </cc:Work>
    </rdf:RDF>
  </metadata>
  <defs
     id="defs182" />
  <sodipodi:namedview
     pagecolor="#ffffff"
     bordercolor="#666666"
     borderopacity="1"
     objecttolerance="10"
     gridtolerance="10"
     guidetolerance="10"
     inkscape:pageopacity="0"
     inkscape:pageshadow="2"
     inkscape:window-width="640"
     inkscape:window-height="480"
     id="namedview180"
     showgrid="false"
     inkscape:zoom="0.12542268"
     inkscape:cx="-844.30685"
     inkscape:cy="508.90057"
     inkscape:window-x="0"
     inkscape:window-y="0"
     inkscape:window-maximized="0"
     inkscape:current-layer="svg2" />
  <path
     d="m 13.1318,0 -2.3571,0.5849 c 0.1918,2.8446 1.1517,5.591 1.6127,8.4005 C 10.7758,9.698 9.0257,10.0932 7.301,10.5096 L 2.3387,9.3931 0,10.6691 l 0.071,4.0586 1.2406,2.1976 c 1.3669,0.9799 2.4504,1.6403 3.9868,2.3571 l 0.638,4.7143 c 2.0495,2.8799 2.8861,4.7967 5.7777,7.1954 l 1.6482,7.6562 H 7.4252 l -3.8282,1.6128 -1.4,2.3217 0.6734,1.7368 h 1.028 c 0.5649,0 1.4193,0.1537 1.8963,0.3367 l 0.8684,0.3368 1.1697,3.4914 c 0.6506,1.9224 1.559,3.9682 2.0027,4.5547 l 0.7975,1.0634 7.993,0.5848 4.4838,8.0994 5.051,2.4457 0.8153,4.8915 3.1546,3.9876 0.7976,6.4688 -1.4711,1.7723 -1.4887,1.7545 -0.2481,1.2406 c -0.137,0.6778 -0.3686,2.8181 -0.5139,4.7675 l -0.2659,3.5445 1.0102,0.638 1.9495,-1.0988 3.7395,2.8711 1.1343,0.2127 v -5.9372 l 6.0966,-2.0912 -0.7266,-7.5145 -3.1015,-0.8152 v -9.269 l -5.6713,-5.6004 v -3.7218 h 2.8356 v -2.6584 l 2.7648,-1.2584 3.7572,1.0812 1.8255,2.4279 1.9141,-1.081 -1.8787,-2.8002 C 43.5517,55.7067 42.1763,53.6788 41.5238,52.743 40.8714,51.8072 37.6481,46.9583 34.3815,41.9676 31.1149,36.9768 27.6737,31.4899 26.7253,29.7743 25.7768,28.0587 24.5543,25.2514 24.0137,23.5359 L 23.0389,20.4167 21.3907,19.1052 17.2613,9.5526 Z"
     style="fill:#D64541"
     id="FL_7"
     inkscape:connector-curvature="0" />
</svg>
