<?xml version="1.0" encoding="UTF-8" standalone="no"?>
<svg
   xmlns:dc="http://purl.org/dc/elements/1.1/"
   xmlns:cc="http://creativecommons.org/ns#"
   xmlns:rdf="http://www.w3.org/1999/02/22-rdf-syntax-ns#"
   xmlns:svg="http://www.w3.org/2000/svg"
   xmlns="http://www.w3.org/2000/svg"
   xmlns:sodipodi="http://sodipodi.sourceforge.net/DTD/sodipodi-0.dtd"
   xmlns:inkscape="http://www.inkscape.org/namespaces/inkscape"
   version="1.0"
   width="116.916"
   height="96.932899"
   id="svg2"
   sodipodi:docname="GA_12.svg"
   inkscape:version="0.92.2 5c3e80d, 2017-08-06">
  <metadata
     id="metadata32">
    <rdf:RDF>
      <cc:Work
         rdf:about="">
        <dc:format>image/svg+xml</dc:format>
        <dc:type
           rdf:resource="http://purl.org/dc/dcmitype/StillImage" />
      </cc:Work>
    </rdf:RDF>
  </metadata>
  <defs
     id="defs30" />
  <sodipodi:namedview
     pagecolor="#ffffff"
     bordercolor="#666666"
     borderopacity="1"
     objecttolerance="10"
     gridtolerance="10"
     guidetolerance="10"
     inkscape:pageopacity="0"
     inkscape:pageshadow="2"
     inkscape:window-width="640"
     inkscape:window-height="480"
     id="namedview28"
     showgrid="false"
     inkscape:zoom="0.12542268"
     inkscape:cx="-732.45435"
     inkscape:cy="323.80347"
     inkscape:window-x="0"
     inkscape:window-y="0"
     inkscape:window-maximized="0"
     inkscape:current-layer="svg2" />
  <path
     d="M 67.5599,96.9329 C 66.6083,95.9381 65.4168,94.9151 65.8257,94.0804 56.7359,91.8097 56.2556,92.1951 54.7229,92.2559 l -4.4495,-2.2685 h -2.7723 l -3.5647,-2.2889 -2.1237,-9.1007 c -1.6737,0.9312 -3.2626,0.6653 -5.0656,0.4098 -2.8892,-0.6821 -4.6334,-1.4595 -5.5163,-2.3087 v -1.2924 c 2.1439,-0.7425 3.6253,-1.8824 4.9399,-3.1224 l 1.7406,-4.1311 -0.5729,-4.3115 -6.3911,-6.007 -6.2374,-0.8171 C 18.5669,52.9553 11.5093,51.4684 3.1163,46.8183 1.425,41.0435 0.5239,35.2686 0,29.4938 l 2.7594,0.8639 3.7003,-0.6414 c 0.8835,-0.7675 1.648,-1.6557 2.7351,-2.1131 0.3328,0 1.4074,-0.6404 2.3882,-1.4232 0.9808,-0.7828 1.9671,-1.6122 2.1917,-1.8431 l 4.0134,-4.7314 3.1015,-1.6039 0.2826,-1.997 0.9954,-0.8782 0.4936,-0.6273 L 20.5851,10.873 20.1718,4.0694 17.438,1.7011 17.5628,0.6154 18.7226,0 20.0498,1.484 c 3.7693,-0.1418 8.1435,0.7248 12.3866,1.3728 l 1.7741,3.8095 8.9884,9.0808 7.9351,3.2977 6.8709,-0.014 c 0.9754,-1.0494 2.1552,-1.3833 3.4647,-1.2632 l 3.7381,-3.2383 7.14,-0.8893 6.8242,1.6633 1.388,1.5246 h 0.8844 c 0.4865,0 1.656,0.399 2.5991,0.8867 l 1.7146,0.8867 -0.5156,3.8264 2.6664,2.5049 1.0751,1.7833 0.094,1.4546 h 2.1444 l 1.3691,8.2233 1.7281,1.3599 -0.5339,3.6921 5.1369,2.8301 3.1993,-0.2439 0.9925,1.9797 c 0.5459,0.1851 1.7183,0.9764 2.6056,1.7584 l 1.613,1.4217 -0.6505,1.6951 1.1225,0.9611 c 0.6174,0.5286 1.1225,1.1778 1.1225,1.4427 0,0.2649 0.3646,0.8462 0.8102,1.2918 0.4456,0.4455 1.0426,0.8102 1.3268,0.8102 h 0.5166 l 1.3768,3.0217 -1.3549,3.2711 3.0505,3.184 -0.1508,0.5075 c -0.083,0.2792 0.1467,1.337 0.5102,2.3507 l 0.6611,1.8432 1.242,0.6057 -5.0561,5.9121 -7.5895,-0.2109 -4.9718,-2.337 c -3.3016,0.1406 -4.2763,-0.4944 -5.1165,-1.1742 v -1.6615 l -4.2535,0.05 c -3.184,1.5883 -4.4549,0.8242 -10.7754,3.7297 l 5.348,3.7835 -2.7289,2.8649 h -3.1914 l -2.849,2.3104 -2.3529,6.7112 c -4.4604,4.6838 -3.6395,4.7201 -4.1937,5.9665 z"
     style="fill:#D64541"
     id="GA_12"
     inkscape:connector-curvature="0" />
</svg>
