<?xml version="1.0" encoding="UTF-8" standalone="no"?>
<svg
   xmlns:dc="http://purl.org/dc/elements/1.1/"
   xmlns:cc="http://creativecommons.org/ns#"
   xmlns:rdf="http://www.w3.org/1999/02/22-rdf-syntax-ns#"
   xmlns:svg="http://www.w3.org/2000/svg"
   xmlns="http://www.w3.org/2000/svg"
   xmlns:sodipodi="http://sodipodi.sourceforge.net/DTD/sodipodi-0.dtd"
   xmlns:inkscape="http://www.inkscape.org/namespaces/inkscape"
   version="1.0"
   width="113.5321"
   height="136.4501"
   id="svg2"
   sodipodi:docname="GA_2.svg"
   inkscape:version="0.92.2 5c3e80d, 2017-08-06">
  <metadata
     id="metadata48">
    <rdf:RDF>
      <cc:Work
         rdf:about="">
        <dc:format>image/svg+xml</dc:format>
        <dc:type
           rdf:resource="http://purl.org/dc/dcmitype/StillImage" />
      </cc:Work>
    </rdf:RDF>
  </metadata>
  <defs
     id="defs46" />
  <sodipodi:namedview
     pagecolor="#ffffff"
     bordercolor="#666666"
     borderopacity="1"
     objecttolerance="10"
     gridtolerance="10"
     guidetolerance="10"
     inkscape:pageopacity="0"
     inkscape:pageshadow="2"
     inkscape:window-width="640"
     inkscape:window-height="480"
     id="namedview44"
     showgrid="false"
     inkscape:zoom="0.12542268"
     inkscape:cx="-643.91465"
     inkscape:cy="416.30157"
     inkscape:window-x="0"
     inkscape:window-y="0"
     inkscape:window-maximized="0"
     inkscape:current-layer="svg2" />
  <path
     d="m 33.7974,0 -3.0661,2.4103 h -8.5069 v 2.0913 l 5.2282,7.6385 0.7975,15.791 c -1.5368,0.1009 -4.3459,4.4246 -9.9602,7.3727 L 11.1654,35.2678 8.6133,32.4676 H 3.5091 c 0.1878,2.5294 0.3892,5.0694 -1.2405,6.1852 l 3.2255,0.7621 3.6863,2.747 -0.6819,1.8525 c -2.67,2.5521 -5.3783,5.107 -6.6375,7.5584 l 1.0101,7.0359 C 2.5577,62.2891 1.5554,65.9696 0,69.65 c 1.3487,2.5571 2.5545,5.219 2.3749,8.8968 l 4.5725,4.5725 -0.4431,1.2406 1.3824,2.8356 -0.1595,16.6594 -0.7621,0.7798 1.7368,3.3674 -0.6203,1.5773 4.8561,4.5547 2.4811,4.9447 v 2.4635 c 0.7937,0.2295 1.2959,0.5416 1.7014,1.2228 3.74,6.6214 6.3388,13.3952 8.6209,13.6845 30.507,-3.3595 61.5826,-6.7664 87.791,-9.7677 v -5.2814 c -4.709,-4.4693 -8.6661,-11.0707 -14.5681,-17.2797 l -7.2663,-4.8383 -0.018,-1.3293 -1.0103,0.5317 -0.018,2.1799 c -8.1232,0.4619 -15.7913,1.3117 -22.4902,0.3722 0.028,-7.824 -0.2913,-17.3656 0.7267,-20.3634 L 81.985,80.7799 81.666,74.701 79.1139,72.2021 80.1596,58.5555 H 90.8464 V 47.6383 c 0.9452,-3.735 2.8395,-8.0282 2.8356,-11.2008 H 84.0231 L 85.1396,16.6235 89.4994,13.9827 85.4586,12.5649 81.8432,9.4812 80.6735,6.3797 66.3889,6.2025 63.0216,7.6734 c -0.8592,2.4772 -2.68,3.7118 -5.2282,5.6891 L 56.4287,10.5623 C 50.2532,8.5316 44.9422,5.0861 40.2656,0.6198 Z"
     style="fill:#D64541"
     id="GA_2"
     inkscape:connector-curvature="0" />
</svg>
