<?xml version="1.0" encoding="UTF-8" standalone="no"?>
<svg
   xmlns:dc="http://purl.org/dc/elements/1.1/"
   xmlns:cc="http://creativecommons.org/ns#"
   xmlns:rdf="http://www.w3.org/1999/02/22-rdf-syntax-ns#"
   xmlns:svg="http://www.w3.org/2000/svg"
   xmlns="http://www.w3.org/2000/svg"
   xmlns:sodipodi="http://sodipodi.sourceforge.net/DTD/sodipodi-0.dtd"
   xmlns:inkscape="http://www.inkscape.org/namespaces/inkscape"
   version="1.0"
   width="98.4216"
   height="92.305199"
   id="svg2"
   sodipodi:docname="GA_3.svg"
   inkscape:version="0.92.2 5c3e80d, 2017-08-06">
  <metadata
     id="metadata56">
    <rdf:RDF>
      <cc:Work
         rdf:about="">
        <dc:format>image/svg+xml</dc:format>
        <dc:type
           rdf:resource="http://purl.org/dc/dcmitype/StillImage" />
      </cc:Work>
    </rdf:RDF>
  </metadata>
  <defs
     id="defs54" />
  <sodipodi:namedview
     pagecolor="#ffffff"
     bordercolor="#666666"
     borderopacity="1"
     objecttolerance="10"
     gridtolerance="10"
     guidetolerance="10"
     inkscape:pageopacity="0"
     inkscape:pageshadow="2"
     inkscape:window-width="640"
     inkscape:window-height="480"
     id="namedview52"
     showgrid="false"
     inkscape:zoom="0.12542268"
     inkscape:cx="-614.16695"
     inkscape:cy="314.81817"
     inkscape:window-x="0"
     inkscape:window-y="0"
     inkscape:window-maximized="0"
     inkscape:current-layer="svg2" />
  <path
     d="m 41.087,92.2671 -2.5568,-2.7779 -5.2336,0.057 -2.3083,-1.4791 v -2.9902 l -2.5006,-2.396 C 27.1123,81.363 25.6606,79.6842 25.2615,78.95 24.8625,78.2158 24.4969,77.1374 24.4491,76.5536 l -0.087,-1.0615 -1.8808,-1.0526 v -1.0189 c 0,-0.5604 -0.3881,-1.7969 -0.8624,-2.7478 -0.4744,-0.9509 -1.2401,-2.0421 -1.7014,-2.4251 l -0.839,-0.6962 V 65.2633 L 17.4491,64.004 -10e-5,10.1686 1.6568,9.1334 C 4.0358,8.7904 5.9445,8.1921 9.1756,6.074 l 10.2463,0.4409 0.751,-5.1915 C 24.2165,1.0396 26.9908,0.4997 28.0167,4e-4 l -0.1347,4.2458 2.5312,4.8949 -3.2331,3.7326 0.027,2.0357 3.5872,3.9809 8.4901,-3.0782 4.6275,-0.1886 0.4962,-1.0033 6.1565,-0.7524 5.0798,5.7644 0.054,0.9689 5.6427,4.4753 0.393,3.9554 2.702,0.054 0.6211,-5.1606 6.468,-2.9751 0.01,-2.3247 c 0.5042,-0.5947 1.1646,-1.0021 2.0282,-1.1657 l 1.1646,0.027 0.5945,-4.7048 2.9826,0.6478 c 0.2739,1.0261 0.6634,1.9366 1.6483,2.2518 l 0.081,4.3321 1.4689,1.1455 5.0694,-0.027 2.453,3.3178 c -1.021,0.7451 -1.8843,1.9645 -3.329,5.8874 l -0.116,9.9122 1.9284,3.1218 4.1949,-0.6777 4.1291,7.7576 c 0.2336,1.4263 -0.1619,1.7304 2.5919,7.6521 l -3.7937,0.1617 1.4328,4.8496 -3.579,1.6436 c -0.054,1.2905 -2.0037,3.1428 -4.7924,5.2436 l -1.126,-2.4706 C 80.0504,65.2535 74.5702,61.8879 70.0869,57.4756 l -6.6847,-0.4803 -3.0727,2.3027 -8.6924,0.1906 v 2.5131 l 5.2645,7.5976 0.7881,15.3887 c -2.0198,0.9527 -4.84,4.4211 -9.7186,7.3178 z"
     style="fill:#D64541"
     id="GA_3"
     inkscape:connector-curvature="0" />
</svg>
