<?xml version="1.0" encoding="UTF-8" standalone="no"?>
<svg
   xmlns:dc="http://purl.org/dc/elements/1.1/"
   xmlns:cc="http://creativecommons.org/ns#"
   xmlns:rdf="http://www.w3.org/1999/02/22-rdf-syntax-ns#"
   xmlns:svg="http://www.w3.org/2000/svg"
   xmlns="http://www.w3.org/2000/svg"
   xmlns:sodipodi="http://sodipodi.sourceforge.net/DTD/sodipodi-0.dtd"
   xmlns:inkscape="http://www.inkscape.org/namespaces/inkscape"
   version="1.0"
   width="125.0342"
   height="118.61854"
   id="svg2"
   sodipodi:docname="IA_2.svg"
   inkscape:version="0.92.2 5c3e80d, 2017-08-06">
  <metadata
     id="metadata16">
    <rdf:RDF>
      <cc:Work
         rdf:about="">
        <dc:format>image/svg+xml</dc:format>
        <dc:type
           rdf:resource="http://purl.org/dc/dcmitype/StillImage" />
      </cc:Work>
    </rdf:RDF>
  </metadata>
  <defs
     id="defs14" />
  <sodipodi:namedview
     pagecolor="#ffffff"
     bordercolor="#666666"
     borderopacity="1"
     objecttolerance="10"
     gridtolerance="10"
     guidetolerance="10"
     inkscape:pageopacity="0"
     inkscape:pageshadow="2"
     inkscape:window-width="640"
     inkscape:window-height="480"
     id="namedview12"
     showgrid="false"
     inkscape:zoom="0.12542268"
     inkscape:cx="-165.78975"
     inkscape:cy="-141.38338"
     inkscape:window-x="0"
     inkscape:window-y="0"
     inkscape:window-maximized="0"
     inkscape:current-layer="svg2" />
  <path
     d="M 93.5231,0 72.7343,2.00268 76.7042,51.13023 H 71.6 l 1.7014,21.95849 -31.901,2.64072 1.4001,16.07452 L 0,95.43716 1.4178,114.24099 c 32.3735,-2.49826 56.6122,-5.44024 85.1402,-8.82594 l 3.4737,4.04079 2.1622,0.37221 0.124,0.88614 c 0.072,0.49142 0.7687,1.57599 1.5419,2.4103 l 1.4001,1.52415 h 1.8609 v 1.66594 l 2.4812,2.30396 h 3.58 l -0.1064,-7.24864 -2.1976,-2.42799 2.3749,-4.21802 3.6686,-2.55208 h 3.7395 l 3.0129,-2.58752 0.5139,-9.5703 0.8153,-0.90389 c 0.4549,-0.5027 0.8329,-1.18893 0.8329,-1.50641 0,-0.31753 0.8827,-1.48854 1.9673,-2.60527 l 1.9849,-2.0204 -0.3722,-9.44621 -2.552,-4.25346 h -1.7723 l -4.3953,-4.60792 2.5876,-11.9629 2.9419,-1.50641 2.3926,0.62027 3.3496,-2.39255 h 3.0661 c -0.5875,-3.00364 -0.9071,-5.02544 -0.6912,-7.93983 h -5.5472 L 116.8337,19.93748 95.703,21.55089 Z"
     style="fill:#D64541;fill-opacity:1"
     id="IA_2"
     inkscape:connector-curvature="0" />
</svg>
