<?xml version="1.0" encoding="UTF-8" standalone="no"?>
<svg
   xmlns:dc="http://purl.org/dc/elements/1.1/"
   xmlns:cc="http://creativecommons.org/ns#"
   xmlns:rdf="http://www.w3.org/1999/02/22-rdf-syntax-ns#"
   xmlns:svg="http://www.w3.org/2000/svg"
   xmlns="http://www.w3.org/2000/svg"
   xmlns:sodipodi="http://sodipodi.sourceforge.net/DTD/sodipodi-0.dtd"
   xmlns:inkscape="http://www.inkscape.org/namespaces/inkscape"
   version="1.0"
   width="173.2933"
   height="155.97812"
   id="svg2"
   sodipodi:docname="IA_4.svg"
   inkscape:version="0.92.2 5c3e80d, 2017-08-06">
  <metadata
     id="metadata32">
    <rdf:RDF>
      <cc:Work
         rdf:about="">
        <dc:format>image/svg+xml</dc:format>
        <dc:type
           rdf:resource="http://purl.org/dc/dcmitype/StillImage" />
      </cc:Work>
    </rdf:RDF>
  </metadata>
  <defs
     id="defs30" />
  <sodipodi:namedview
     pagecolor="#ffffff"
     bordercolor="#666666"
     borderopacity="1"
     objecttolerance="10"
     gridtolerance="10"
     guidetolerance="10"
     inkscape:pageopacity="0"
     inkscape:pageshadow="2"
     inkscape:window-width="640"
     inkscape:window-height="480"
     id="namedview28"
     showgrid="false"
     inkscape:zoom="0.12542268"
     inkscape:cx="-93.799854"
     inkscape:cy="-179.3633"
     inkscape:window-x="0"
     inkscape:window-y="0"
     inkscape:window-maximized="0"
     inkscape:current-layer="svg2" />
  <path
     d="m 0,12.26416 3.5977,63.09307 2.5521,-0.12406 0.7621,16.78346 10.6159,-0.79752 c 0.6201,6.93937 0.1242,14.7007 1.152,21.62178 l 15.8442,-0.70891 0.7443,15.57834 2.2685,0.60258 1.7901,27.66522 c 18.4098,-1.5435 27.027,-2.24725 41.4535,-2.97743 l -1.4178,-19.61908 -5.9549,-0.99248 -15.4542,0.90384 v -4.46614 l -1.5773,-1.5773 -0.8153,-16.53537 47.9224,-3.73951 L 101.9946,86.29218 91.1305,86.48713 89.9578,70.9123 88.7556,70.60752 C 88.4139,61.50231 87.1516,52.41262 87.072,43.29673 l 42.4106,-3.63317 -0.7798,-10.61594 40.3193,-3.66861 -0.035,-2.97743 c 0.6587,-1.26513 1.4132,-2.4933 1.8254,-3.86356 0,-0.25475 0.6719,-1.3394 1.4887,-2.4103 l 0.9925,-1.9495 -2.3571,-3.26099 -4.9447,-1.68367 0.319,-3.9699 L 164.6627,3.89901 165.283,0 C 110.2984,5.45038 55.1568,9.07652 4e-4,12.26416 Z"
     style="fill:#D64541;fill-opacity:1"
     id="IA_4"
     inkscape:connector-curvature="0" />
</svg>
