<?xml version="1.0" encoding="UTF-8" standalone="no"?>
<svg
   xmlns:dc="http://purl.org/dc/elements/1.1/"
   xmlns:cc="http://creativecommons.org/ns#"
   xmlns:rdf="http://www.w3.org/1999/02/22-rdf-syntax-ns#"
   xmlns:svg="http://www.w3.org/2000/svg"
   xmlns="http://www.w3.org/2000/svg"
   xmlns:sodipodi="http://sodipodi.sourceforge.net/DTD/sodipodi-0.dtd"
   xmlns:inkscape="http://www.inkscape.org/namespaces/inkscape"
   version="1.0"
   width="119.6464"
   height="123.7227"
   id="svg2"
   sodipodi:docname="IL_18.svg"
   inkscape:version="0.92.2 5c3e80d, 2017-08-06">
  <metadata
     id="metadata80">
    <rdf:RDF>
      <cc:Work
         rdf:about="">
        <dc:format>image/svg+xml</dc:format>
        <dc:type
           rdf:resource="http://purl.org/dc/dcmitype/StillImage" />
      </cc:Work>
    </rdf:RDF>
  </metadata>
  <defs
     id="defs78" />
  <sodipodi:namedview
     pagecolor="#ffffff"
     bordercolor="#666666"
     borderopacity="1"
     objecttolerance="10"
     gridtolerance="10"
     guidetolerance="10"
     inkscape:pageopacity="0"
     inkscape:pageshadow="2"
     inkscape:window-width="640"
     inkscape:window-height="480"
     id="namedview76"
     showgrid="false"
     inkscape:zoom="0.12542268"
     inkscape:cx="-276.68115"
     inkscape:cy="-88.640409"
     inkscape:window-x="0"
     inkscape:window-y="0"
     inkscape:window-maximized="0"
     inkscape:current-layer="svg2" />
  <path
     d="m 89.305,0 c -0.4618,0.77262 -1.5438,1.18224 -3.2255,1.2229 l -4.0054,4.00535 -0.089,3.72178 -23.341,2.58753 0.2836,5.56495 -21.0901,1.80772 v 4.99782 l 4.7691,0.0458 1.3469,10.26146 10.9527,-0.33671 0.5197,5.40134 -10.4902,1.49154 0.3659,4.50856 10.771,-0.7798 0.4801,4.92863 5.4638,-0.0458 0.8279,6.10695 -1.3824,5.01597 -5.9372,5.67129 -0.762,5.26324 c -1.2784,2.3571 -3.251,4.71425 -5.246,7.07135 l -12.1223,0.70892 -0.6735,-5.03327 -21.0724,1.54191 0.7267,5.31683 -16.3759,1.1697 1.5419,27.43485 5.3877,-0.3899 0.3544,4.8206 h 6.1676 v 5.21049 l 5.5295,-0.76211 0.7798,5.1928 h 15.0643 l 1.1875,-2.62297 35.286,-3.81042 v -7.70938 l 1.8255,-3.68633 h 1.9317 l 2.4812,-2.19763 v -2.09129 l 4.5902,-4.57247 c 10.1577,-2.97992 20.2529,-3.74719 26.85,-5.33458 l 1.3824,-0.83295 3.5445,1.38238 5.7422,-0.90389 -1.5596,-12.21096 -18.3962,2.51663 -1.9672,-14.62131 -5.051,0.65577 -2.428,-19.5305 6.1675,-0.95703 1.8432,-2.12673 2.1444,0.0531 -0.4608,-2.78244 2.8888,-0.10634 -0.638,-5.33458 -2.2863,-0.31901 -3.2432,-20.61156 h -4.9801 z"
     style="fill:#D64541;fill-opacity:1"
     id="IL_18"
     inkscape:connector-curvature="0" />
</svg>
