<?xml version="1.0" encoding="UTF-8" standalone="no"?>
<svg
   xmlns:dc="http://purl.org/dc/elements/1.1/"
   xmlns:cc="http://creativecommons.org/ns#"
   xmlns:rdf="http://www.w3.org/1999/02/22-rdf-syntax-ns#"
   xmlns:svg="http://www.w3.org/2000/svg"
   xmlns="http://www.w3.org/2000/svg"
   xmlns:sodipodi="http://sodipodi.sourceforge.net/DTD/sodipodi-0.dtd"
   xmlns:inkscape="http://www.inkscape.org/namespaces/inkscape"
   version="1.0"
   width="128.3306"
   height="187.1525"
   id="svg2"
   sodipodi:docname="IL_17.svg"
   inkscape:version="0.92.2 5c3e80d, 2017-08-06">
  <metadata
     id="metadata72">
    <rdf:RDF>
      <cc:Work
         rdf:about="">
        <dc:format>image/svg+xml</dc:format>
        <dc:type
           rdf:resource="http://purl.org/dc/dcmitype/StillImage" />
      </cc:Work>
    </rdf:RDF>
  </metadata>
  <defs
     id="defs70" />
  <sodipodi:namedview
     pagecolor="#ffffff"
     bordercolor="#666666"
     borderopacity="1"
     objecttolerance="10"
     gridtolerance="10"
     guidetolerance="10"
     inkscape:pageopacity="0"
     inkscape:pageshadow="2"
     inkscape:window-width="640"
     inkscape:window-height="480"
     id="namedview68"
     showgrid="false"
     inkscape:zoom="0.12542268"
     inkscape:cx="-265.01955"
     inkscape:cy="-51.209909"
     inkscape:window-x="0"
     inkscape:window-y="0"
     inkscape:window-maximized="0"
     inkscape:current-layer="svg2" />
  <path
     d="m 67.5769,0 -2.1976,1.18742 0.6912,4.34208 -9.7653,1.38238 v 5.56495 h -6.2384 l 0.195,-7.63851 -4.1826,3.68633 0.7089,2.83565 -1.3469,1.61277 0.7798,5.08643 -3.2433,1.71911 -2.6761,3.47367 h -4.3598 l -0.7444,0.88613 c -0.4022,0.48952 -1.3152,1.44656 -2.0381,2.12674 -0.7229,0.68021 -2.1266,1.54795 -3.1192,1.91408 l -1.8077,0.65572 -4.927,0.0886 -3.2255,2.28621 -3.1901,-0.61097 -2.4812,1.72753 -1.6659,9.83611 3.4914,4.34211 h 2.0558 l 3.0129,4.78515 0.4608,10.24376 -4.0231,4.39525 v 0.70891 c 0,0.39052 -0.3618,1.00302 -0.7975,1.36462 l -0.7798,0.65578 -0.7976,10.08422 -2.4457,2.21538 -2.2508,0.40759 C 9.4322,81.58644 7.743,82.12277 6.9119,82.55266 l -1.5065,0.7798 -2.3216,3.9167 2.0558,1.84317 -0.053,9.02001 -3.1369,0.26763 -0.6203,2.94108 c -0.3378,1.19692 -0.7767,4.02848 -0.9747,6.29161 l -0.3545,4.11168 1.0102,3.82812 c 0.5592,2.10399 1.4878,4.7645 2.0558,5.90165 0.5681,1.13715 1.4549,2.50053 1.985,3.03063 l 0.9748,0.95703 -1.347,3.72178 0.3013,0.7798 c 0.1684,0.43011 1.2013,1.35113 2.2863,2.05584 l 1.9672,1.29374 v 4.48389 c 2.2248,1.66208 4.5525,3.21017 6.5397,5.15729 0.2089,0.33807 0.9772,0.84128 1.7014,1.11657 l 1.3115,0.51393 1.5241,3.1724 2.5167,0.35446 1.0456,1.52416 c 0.5795,0.83691 1.2101,1.95336 1.4001,2.48119 l 0.3545,0.95702 1.2937,0.81525 10.5451,6.14978 5.175,4.82059 0.5848,2.62297 c 0.3231,1.44141 1.026,3.54206 1.5596,4.66112 l 0.9748,2.03809 -1.2406,3.29643 0.7798,1.02792 c 0.4301,0.56072 1.056,2.03106 1.4001,3.27875 l 0.638,2.26851 2.942,3.11921 2.3394,-0.0354 1.0457,-1.45327 c 0.5796,-0.79545 1.2501,-2.12746 1.4709,-2.95973 l 0.3899,-1.5064 4.1295,-0.35446 c 0.2689,-4.99164 0.2525,-7.22403 -0.6204,-12.40594 l -3.9129,-0.19027 -0.07,-4.19755 -2.0428,-2.1696 -0.7975,-5.35228 h 3.5268 l 1.1875,-2.12673 1.9317,2.16217 10.2438,-1.41782 2.6407,22.33069 16.4644,-1.66594 -0.6911,4.39525 4.4484,0.70891 0.3544,-5.38772 5.3877,-0.97478 0.4786,-2.12673 14.8339,-1.29374 v -3.63319 l 5.3877,-1.15196 5.4941,0.51394 -0.7975,-8.54238 5.2282,-0.7798 -0.7266,-6.68146 h -6.079 l -0.7089,-6.80554 h -4.5192 l 1.4,15.31247 -5.8839,0.72661 -0.6203,-2.42799 h -3.2787 v 6.06118 l -16.8721,0.74436 -2.5167,-20.91287 -4.1471,-0.35446 -0.3367,-4.07623 3.4559,-3.70409 v -3.27869 l 2.4103,-1.89636 0.7976,-3.34958 5.4054,-2.76475 10.9527,-1.1697 1.0811,-1.02792 2.0026,0.0177 c 1.1073,0.005 2.3295,0.2002 2.7116,0.4431 l 0.6912,0.44304 1.1697,8.87914 4.6611,-0.70891 -0.7798,-7.31954 2.1799,-2.3394 5.051,1.71913 c 0.5904,-0.68424 1.0047,-1.49052 1.4178,-2.30396 l -3.9876,-2.02039 1.7191,-0.35446 -2.942,-0.97478 -0.957,0.49624 c -8.9189,2.29965 -16.5851,2.30458 -26.4247,5.26369 l -1.8963,1.43552 -3.1724,3.01287 -0.1949,2.28626 -2.6584,2.23307 h -1.471 l -1.7369,3.34958 v 8.3829 l -35.6404,3.77492 -1.2052,2.64072 H 30.9087 l -0.7621,-5.1396 -5.6004,0.74435 v -5.24594 h -6.2384 v -4.96237 l -5.37,0.3367 -1.914,-28.26779 16.2872,-1.2229 -0.6203,-5.33453 22.1712,-1.38237 0.7621,5.06871 10.9349,-0.67346 1.6837,-1.77228 c 0.9276,-0.97291 2.1496,-2.60601 2.7116,-3.6332 l 1.0279,-1.87861 0.6912,-5.08641 5.9548,-5.37003 1.347,-4.96237 -0.7621,-5.51176 H 67.7189 L 67.3645,71.1747 56.6776,71.65319 56.2523,66.49589 66.567,65.07807 66.2302,60.39925 55.2953,60.75371 53.9306,50.4745 h -4.9978 v -6.23841 l 20.8774,-1.82548 c -0.2343,-3.30987 -0.1338,-6.66949 -0.7089,-9.94245 l -4.8561,0.53169 v 5.40542 l -10.6336,0.72666 -0.8153,-4.28891 -9.9424,0.47848 -0.7976,-6.02574 4.5725,-0.97472 -0.7266,-5.75993 6.4865,-2.87109 0.6735,-3.29644 3.066,-1.59505 1.8255,-2.76475 3.5622,-1.96723 c 1.9659,-1.08556 4.2819,-2.13532 5.1396,-2.3394 L 68.2151,7.35497 V 5.95487 L 74.4359,2.60527 71.9901,2e-5 Z"
     style="fill:#D64541;fill-opacity:1"
     id="IL_17"
     inkscape:connector-curvature="0" />
</svg>
