<?xml version="1.0" encoding="UTF-8" standalone="no"?>
<svg
   xmlns:dc="http://purl.org/dc/elements/1.1/"
   xmlns:cc="http://creativecommons.org/ns#"
   xmlns:rdf="http://www.w3.org/1999/02/22-rdf-syntax-ns#"
   xmlns:svg="http://www.w3.org/2000/svg"
   xmlns="http://www.w3.org/2000/svg"
   xmlns:sodipodi="http://sodipodi.sourceforge.net/DTD/sodipodi-0.dtd"
   xmlns:inkscape="http://www.inkscape.org/namespaces/inkscape"
   version="1.0"
   width="112.6845"
   height="59.335838"
   id="svg2"
   sodipodi:docname="IL_16.svg"
   inkscape:version="0.92.2 5c3e80d, 2017-08-06">
  <metadata
     id="metadata64">
    <rdf:RDF>
      <cc:Work
         rdf:about="">
        <dc:format>image/svg+xml</dc:format>
        <dc:type
           rdf:resource="http://purl.org/dc/dcmitype/StillImage" />
      </cc:Work>
    </rdf:RDF>
  </metadata>
  <defs
     id="defs62" />
  <sodipodi:namedview
     pagecolor="#ffffff"
     bordercolor="#666666"
     borderopacity="1"
     objecttolerance="10"
     gridtolerance="10"
     guidetolerance="10"
     inkscape:pageopacity="0"
     inkscape:pageshadow="2"
     inkscape:window-width="640"
     inkscape:window-height="480"
     id="namedview60"
     showgrid="false"
     inkscape:zoom="0.12542268"
     inkscape:cx="-290.98345"
     inkscape:cy="-226.45271"
     inkscape:window-x="0"
     inkscape:window-y="0"
     inkscape:window-maximized="0"
     inkscape:current-layer="svg2" />
  <path
     d="M 98.2019,0 C 65.6601,4.39485 32.8504,5.54985 0.3544,10.31465 L 0,10.65139 l 1.1342,0.83297 3.6864,2.92425 2.871,0.72664 4.608,4.16485 -0.5849,3.66861 2.4635,2.85337 7.9398,2.9597 0.638,0.81525 c 0.3463,0.45043 0.9206,0.81524 1.276,0.81525 0.3556,0 0.654,0.0638 0.6735,0.14178 l 0.6203,5.22822 1.0988,1.32921 -0.5671,13.93009 -0.9415,1.02792 -0.1927,7.26634 h 5.0509 v -5.54723 l 9.7298,-1.36465 -0.7266,-4.21802 2.9597,-1.34693 h 4.2712 c 1.1983,1.20618 2.2716,2.60764 3.7926,3.40277 h 0.5317 l -0.5317,-8.27653 8.6133,-1.29376 c 6.5553,0.76215 7.1915,0.48845 27.4349,-2.37486 l 0.7443,-4.96237 4.1471,-0.7798 1.5552,-1.45946 1.0701,1.4949 2.6916,-0.60257 -0.4785,-11.09446 17.1056,-2.00267 -0.2335,-4.83832 c -4.0604,0.004 -4.4303,-0.34169 -6.3625,-0.95703 l -0.3899,2.42802 c -1.7753,0.20626 -3.562,0.71065 -5.3523,0.56713 C 99.386,10.77878 98.9948,5.3584 98.2019,0 Z"
     style="fill:#D64541;fill-opacity:1"
     id="IL_16"
     inkscape:connector-curvature="0" />
</svg>
