<?xml version="1.0" encoding="UTF-8" standalone="no"?>
<svg
   xmlns:dc="http://purl.org/dc/elements/1.1/"
   xmlns:cc="http://creativecommons.org/ns#"
   xmlns:rdf="http://www.w3.org/1999/02/22-rdf-syntax-ns#"
   xmlns:svg="http://www.w3.org/2000/svg"
   xmlns="http://www.w3.org/2000/svg"
   xmlns:sodipodi="http://sodipodi.sourceforge.net/DTD/sodipodi-0.dtd"
   xmlns:inkscape="http://www.inkscape.org/namespaces/inkscape"
   version="1.0"
   width="72.042999"
   height="136.61375"
   id="svg2"
   sodipodi:docname="IN_4.svg"
   inkscape:version="0.92.2 5c3e80d, 2017-08-06">
  <metadata
     id="metadata32">
    <rdf:RDF>
      <cc:Work
         rdf:about="">
        <dc:format>image/svg+xml</dc:format>
        <dc:type
           rdf:resource="http://purl.org/dc/dcmitype/StillImage" />
      </cc:Work>
    </rdf:RDF>
  </metadata>
  <defs
     id="defs30" />
  <sodipodi:namedview
     pagecolor="#ffffff"
     bordercolor="#666666"
     borderopacity="1"
     objecttolerance="10"
     gridtolerance="10"
     guidetolerance="10"
     inkscape:pageopacity="0"
     inkscape:pageshadow="2"
     inkscape:window-width="640"
     inkscape:window-height="480"
     id="namedview28"
     showgrid="false"
     inkscape:zoom="0.12542268"
     inkscape:cx="-459.29665"
     inkscape:cy="-61.606569"
     inkscape:window-x="0"
     inkscape:window-y="0"
     inkscape:window-maximized="0"
     inkscape:current-layer="svg2" />
  <path
     d="M 20.6647,0 11.0412,1.15201 11.821,5.65359 C 10.052,6.1648 8.2909,6.27471 6.5219,6.3625 l 6.0612,41.59532 -6.0435,-0.90384 0.7267,-3.5091 H 3.1369 L 0,48.41861 l 3.1369,-0.0886 0.7798,6.80555 h 4.3421 l 0.7975,6.327 5.2813,-0.44304 0.7622,5.10416 18.857,-2.44575 2.2507,14.14278 h 2.1445 l -1.2583,10.38554 3.0129,-0.76211 1.1697,8.06389 -2.304,2.00265 5.2964,39.10307 17.052,-2.73594 1.3115,-5.5472 -2.3217,-12.33505 -13.8237,1.61274 -2.8002,-21.90535 14.8516,-2.60521 -0.3899,-4.96238 13.8947,-2.8534 -0.5671,-2.67611 -4.2889,0.86839 -1.7546,-9.42851 -8.5069,1.47102 -2.0204,-3.36733 -2.9243,1.41782 0.035,-1.43557 c 0.1625,-1.51078 1.0756,-2.91521 2.0381,-4.11168 l -0.9748,-3.15466 c -0.2647,-0.9479 -1.7001,-1.2605 -2.7647,-3.79267 V 59.6017 l 2.1445,0.67346 1.8254,-1.82547 L 49.7118,29.70335 46.3445,28.959 v -2.17988 l -18.0418,2.26852 -1.3469,-8.01069 -3.4383,0.37215 -0.9038,-6.07889 1.0988,-1.13425 -1.1165,-1.34694 0.4962,-3.08376 h 2.2685 V 6.92962 h -4.6611 l 0.7267,-3.89901 z"
     style="fill:#D64541;fill-opacity:1"
     id="IN_4"
     inkscape:connector-curvature="0" />
</svg>
