<?xml version="1.0" encoding="UTF-8" standalone="no"?>
<svg
   xmlns:dc="http://purl.org/dc/elements/1.1/"
   xmlns:cc="http://creativecommons.org/ns#"
   xmlns:rdf="http://www.w3.org/1999/02/22-rdf-syntax-ns#"
   xmlns:svg="http://www.w3.org/2000/svg"
   xmlns="http://www.w3.org/2000/svg"
   xmlns:sodipodi="http://sodipodi.sourceforge.net/DTD/sodipodi-0.dtd"
   xmlns:inkscape="http://www.inkscape.org/namespaces/inkscape"
   version="1.0"
   width="18.2971"
   height="16.15097"
   id="svg2"
   sodipodi:docname="IN_7.svg"
   inkscape:version="0.92.2 5c3e80d, 2017-08-06">
  <metadata
     id="metadata56">
    <rdf:RDF>
      <cc:Work
         rdf:about="">
        <dc:format>image/svg+xml</dc:format>
        <dc:type
           rdf:resource="http://purl.org/dc/dcmitype/StillImage" />
      </cc:Work>
    </rdf:RDF>
  </metadata>
  <defs
     id="defs54" />
  <sodipodi:namedview
     pagecolor="#ffffff"
     bordercolor="#666666"
     borderopacity="1"
     objecttolerance="10"
     gridtolerance="10"
     guidetolerance="10"
     inkscape:pageopacity="0"
     inkscape:pageshadow="2"
     inkscape:window-width="640"
     inkscape:window-height="480"
     id="namedview52"
     showgrid="false"
     inkscape:zoom="0.12542268"
     inkscape:cx="-510.17865"
     inkscape:cy="-124.97612"
     inkscape:window-x="0"
     inkscape:window-y="0"
     inkscape:window-maximized="0"
     inkscape:current-layer="svg2" />
  <path
     d="m 5.1377,16.15097 -1.0015,-1.78946 -2.4348,1.3031 v -0.89062 c 0,-0.48983 0.4109,-1.51781 0.9132,-2.28434 L 3.5278,11.09593 3.1376,9.53219 C 2.9229,8.67214 2.4111,7.1359 1.3736,6.1631 0.4635,5.30969 0,4.07051 0,3.71934 V 3.08093 L 1.5941,3.62645 3.7636,1.57497 3.4942,0.22402 5.9549,0 10.8259,2.70588 17.2974,0.8212 c 0.092,3.3793 0.5054,6.27528 0.9997,9.41292 l -3.4053,1.10159 -0.7363,2.69324 c -3.0127,0.76778 -6.1663,1.17299 -9.0178,2.12202 z"
     style="fill:#D64541;fill-opacity:1"
     id="IN_7"
     inkscape:connector-curvature="0" />
</svg>
