<?xml version="1.0" encoding="UTF-8" standalone="no"?>
<svg
   xmlns:dc="http://purl.org/dc/elements/1.1/"
   xmlns:cc="http://creativecommons.org/ns#"
   xmlns:rdf="http://www.w3.org/1999/02/22-rdf-syntax-ns#"
   xmlns:svg="http://www.w3.org/2000/svg"
   xmlns="http://www.w3.org/2000/svg"
   xmlns:sodipodi="http://sodipodi.sourceforge.net/DTD/sodipodi-0.dtd"
   xmlns:inkscape="http://www.inkscape.org/namespaces/inkscape"
   version="1.0"
   width="35.348999"
   height="24.841721"
   id="svg2"
   sodipodi:docname="KY_3.svg"
   inkscape:version="0.92.2 5c3e80d, 2017-08-06">
  <metadata
     id="metadata24">
    <rdf:RDF>
      <cc:Work
         rdf:about="">
        <dc:format>image/svg+xml</dc:format>
        <dc:type
           rdf:resource="http://purl.org/dc/dcmitype/StillImage" />
      </cc:Work>
    </rdf:RDF>
  </metadata>
  <defs
     id="defs22" />
  <sodipodi:namedview
     pagecolor="#ffffff"
     bordercolor="#666666"
     borderopacity="1"
     objecttolerance="10"
     gridtolerance="10"
     guidetolerance="10"
     inkscape:pageopacity="0"
     inkscape:pageshadow="2"
     inkscape:window-width="640"
     inkscape:window-height="480"
     id="namedview20"
     showgrid="false"
     inkscape:zoom="0.12542268"
     inkscape:cx="-546.19135"
     inkscape:cy="-24.098319"
     inkscape:window-x="0"
     inkscape:window-y="0"
     inkscape:window-maximized="0"
     inkscape:current-layer="svg2" />
  <path
     d="M 0.4253,24.58067 0,24.84172 V 12.90876 L 1.4586,10.71987 C 1.8311,9.4119 1.0575,7.45344 2.576,6.79596 L 6.8744,7.48332 10.4919,3.3633 V 0 h 0.5266 c 0.2896,0 0.9094,0.38282 1.3773,0.8507 l 6.4248,3.0596 1.3342,-0.81043 4.2158,-1.12739 3.3007,0.11388 2.4411,3.65888 4.3406,-0.92464 0.896,1.46206 -5.4335,0.78229 -2.3387,-2.07223 -4.041,1.33366 c -0.2263,2.9058 -0.4836,4.8823 -1.2366,7.32345 l -5.8374,3.93116 H 9.2137 l -8.363,4.61649 v 1.06104 c 0,0.58357 -0.1914,1.17855 -0.4254,1.32215 z"
     style="fill:#D64541;fill-opacity:1"
     id="KY_3"
     inkscape:connector-curvature="0" />
</svg>
