<?xml version="1.0" encoding="UTF-8" standalone="no"?>
<svg
   xmlns:dc="http://purl.org/dc/elements/1.1/"
   xmlns:cc="http://creativecommons.org/ns#"
   xmlns:rdf="http://www.w3.org/1999/02/22-rdf-syntax-ns#"
   xmlns:svg="http://www.w3.org/2000/svg"
   xmlns="http://www.w3.org/2000/svg"
   xmlns:sodipodi="http://sodipodi.sourceforge.net/DTD/sodipodi-0.dtd"
   xmlns:inkscape="http://www.inkscape.org/namespaces/inkscape"
   version="1.0"
   width="101.5819"
   height="164.875"
   id="svg2"
   sodipodi:docname="LA_4.svg"
   inkscape:version="0.92.2 5c3e80d, 2017-08-06">
  <metadata
     id="metadata32">
    <rdf:RDF>
      <cc:Work
         rdf:about="">
        <dc:format>image/svg+xml</dc:format>
        <dc:type
           rdf:resource="http://purl.org/dc/dcmitype/StillImage" />
      </cc:Work>
    </rdf:RDF>
  </metadata>
  <defs
     id="defs30" />
  <sodipodi:namedview
     pagecolor="#ffffff"
     bordercolor="#666666"
     borderopacity="1"
     objecttolerance="10"
     gridtolerance="10"
     guidetolerance="10"
     inkscape:pageopacity="0"
     inkscape:pageshadow="2"
     inkscape:window-width="640"
     inkscape:window-height="480"
     id="namedview28"
     showgrid="false"
     inkscape:zoom="0.12542268"
     inkscape:cx="-174.43845"
     inkscape:cy="488.83837"
     inkscape:window-x="0"
     inkscape:window-y="0"
     inkscape:window-maximized="0"
     inkscape:current-layer="svg2" />
  <path
     d="M 67.0098,0 0,4.413 l 3.7218,61.9589 5.6733,6.1138 1.8411,0.3727 2.3749,4.8206 2.8888,2.7293 -0.638,1.6836 1.6482,2.5167 -0.2127,1.0811 c -0.1108,0.5892 -0.2443,1.1909 -0.3012,1.3469 -0.057,0.156 -0.061,1.014 0,1.9141 l 0.124,1.6482 -1.2051,0.7443 2.2153,3.6332 h 2.7116 l 1.4178,1.7014 -0.6026,2.2862 1.0457,0.7267 c 0.5741,0.402 1.1238,1.079 1.2229,1.5064 0.099,0.4273 0.6584,1.2706 1.2405,1.8786 l 1.0457,1.1166 -0.6026,4.5547 0.7621,0.7798 c 0.4221,0.422 1.1531,0.7621 1.6128,0.7621 h 0.8329 l 0.6204,1.79 c 0.3423,0.9823 0.6202,2.3859 0.6202,3.1192 v 1.3292 h 0.5317 c 0.2935,0 0.6934,-0.2552 0.8862,-0.5671 l 0.3544,-0.5672 h 2.1976 v 2.8357 l -0.5777,0.047 0.1058,3.4063 1.7105,4.6926 -2.6209,2.0629 2.5166,1.7723 -0.018,0.957 c -0.01,0.5281 -0.3609,1.4151 -0.7798,1.9672 l -0.7621,0.9925 0.5671,5.1219 -1.7191,1.9495 -1.3115,6.3624 -2.7825,2.4281 v 3.8458 l -2.2685,0.5849 v 2.942 h 1.1343 v 1.4 c 0,0.7652 0.3136,2.0602 0.6912,2.8889 l 0.6735,1.5064 -2.2154,1.7191 12.4768,-0.7089 -0.3899,-5.3984 6.0612,0.011 0.3545,4.9624 c 4.2675,-0.6573 8.1015,-0.7943 11.7502,-0.7089 l 1.7014,-1.7014 h 2.8356 l 0.3722,-1.0634 15.0289,-1.2938 v -2.7824 l 1.868,-0.5849 c -1.1855,-1.2516 -0.4683,-2.3762 0.1554,-3.5071 l -2.0462,-0.2081 1.0507,-2.7536 0.7798,-5.9549 H 75.8 l -2.9597,3.5446 c -2.919,-1.3848 -4.5065,-3.631 -5.3168,-6.3802 l -2.9334,-0.5125 -0.5048,-7.4273 h 8.0993 l -1.8964,-20.1331 -1.0125,-4.4663 -2.0331,-0.6532 0.041,-1.6731 c -1.7431,-0.5322 -3.4862,-0.4632 -5.2293,-0.3953 1.8218,-2.7543 2.3645,-2.1363 3.2944,-2.5392 l -0.6558,-1.7014 1.1956,-0.033 c 2.3908,-1.956 5.704,-5.7569 6.9088,-5.934 l 0.6169,-2.1121 1.892,0.5521 0.4858,2.9924 0.7979,0.1835 -0.01,2.8419 3.9522,0.1418 21.0496,-6.9294 -0.066,-0.5319 -2.6436,0.3036 -0.5028,-2.6489 -1.602,-0.03 -0.7404,-3.1825 C 92.347,85.5944 92.4706,84.9298 92.0518,84.1482 l 1.1874,-4.3244 -1.5773,-0.8152 1.7546,-3.7041 -2.1268,-1.3292 -12.3882,0.7444 0.6558,5.5118 -19.4951,1.7368 0.8507,-9.1804 2.3217,-0.4962 c 0.5962,-7.0092 -0.076,-14.81 -2.4458,-16.1101 l -0.6734,-2.6052 h 6.2384 c 0.2671,-2.4161 0.6341,-4.4391 1.914,-5.2637 -0.3575,-5.079 -0.6911,-11.0468 -1.4709,-13.4515 h -4.9093 l -0.6734,-4.8206 0.4076,-9.6412 c 0.9957,-1.461 1.6552,-2.9951 1.3292,-4.7497 L 67.9843,14.8876 67.3817,1.117 Z"
     style="fill:#D64541"
     id="LA_4"
     inkscape:connector-curvature="0" />
</svg>
