<?xml version="1.0" encoding="UTF-8" standalone="no"?>
<svg
   xmlns:dc="http://purl.org/dc/elements/1.1/"
   xmlns:cc="http://creativecommons.org/ns#"
   xmlns:rdf="http://www.w3.org/1999/02/22-rdf-syntax-ns#"
   xmlns:svg="http://www.w3.org/2000/svg"
   xmlns="http://www.w3.org/2000/svg"
   xmlns:sodipodi="http://sodipodi.sourceforge.net/DTD/sodipodi-0.dtd"
   xmlns:inkscape="http://www.inkscape.org/namespaces/inkscape"
   version="1.0"
   width="74.1875"
   height="62.012001"
   id="svg2"
   sodipodi:docname="LA_6.svg"
   inkscape:version="0.92.2 5c3e80d, 2017-08-06">
  <metadata
     id="metadata48">
    <rdf:RDF>
      <cc:Work
         rdf:about="">
        <dc:format>image/svg+xml</dc:format>
        <dc:type
           rdf:resource="http://purl.org/dc/dcmitype/StillImage" />
      </cc:Work>
    </rdf:RDF>
  </metadata>
  <defs
     id="defs46" />
  <sodipodi:namedview
     pagecolor="#ffffff"
     bordercolor="#666666"
     borderopacity="1"
     objecttolerance="10"
     gridtolerance="10"
     guidetolerance="10"
     inkscape:pageopacity="0"
     inkscape:pageshadow="2"
     inkscape:window-width="640"
     inkscape:window-height="480"
     id="namedview44"
     showgrid="false"
     inkscape:zoom="0.12542268"
     inkscape:cx="-303.72615"
     inkscape:cy="500.99617"
     inkscape:window-x="0"
     inkscape:window-y="0"
     inkscape:window-maximized="0"
     inkscape:current-layer="svg2" />
  <path
     d="M 61.622,0 C 40.3323,1.9926 13.8751,4.812 4.4307,4.9093 l 0.3544,1.8431 c 0.1966,1.0137 0.3399,3.069 0.319,4.5548 l -0.035,2.6938 5.0687,-0.124 C 9.8091,13.0581 9.4856,11.9211 9.0567,11.1477 H 6.8236 V 9.5349 l 3.4737,-0.7621 2.3217,2.0913 -0.514,6.1498 -3.1724,2.5166 2.428,1.2938 2.1977,-1.1697 h 3.385 l 3.4382,-1.9849 1.7369,2.6406 c -1.0944,1.2709 -2.7539,1.9151 -4.1472,2.818 l -2.6229,-0.6558 -2.9066,4.413 0.6203,4.6788 h 1.9495 c 1.0714,0 2.6305,0.2534 3.456,0.5672 l 1.4887,0.5671 -0.4608,1.4178 -3.0306,0.3545 v 0.4253 c 0,0.2313 1.0083,1.1737 2.2508,2.0913 l 2.2685,1.6659 0.3367,0.9925 c 0.1822,0.5459 0.5417,0.9925 0.8153,0.9925 0.2736,0 1.4713,0.8972 2.6584,2.0026 l 2.1622,2.0204 4.6965,-0.6734 2.623,0.2481 -2.4989,2.109 v 1.4533 l -3.3496,2.4812 -1.5242,-0.5495 -0.638,2.1445 -7.9752,-0.3013 -0.7267,1.4356 1.9141,2.7647 -0.1595,3.0306 5.0155,-0.018 0.7621,2.4103 5.4586,-0.638 0.5494,1.4532 3.2255,-0.2304 4.3421,-2.109 -0.4076,-3.0128 0.957,-0.035 0.5672,-5.2814 0.9215,-0.3367 c 0.5002,-0.1919 1.3799,-0.8127 1.9495,-1.3824 l 1.028,-1.0456 h 1.4178 1.4178 v -0.9748 l 5.9549,-1.1519 4.732,0.7089 1.2228,1.5596 c 0.6717,0.8577 1.4339,1.5596 1.7014,1.5596 h 0.4962 l 0.3545,-2.4281 1.8077,-1.1342 1.8786,0.9215 c 1.0311,0.5144 2.2094,0.9394 2.623,0.9394 h 0.7621 l 2.2685,-4.4485 3.8636,-1.4 -4.4485,-4.2889 c -0.5541,-0.546 -1.152,-1.311 -1.1519,-1.5774 0,-0.2664 -0.1773,-0.7537 -0.957,-1.595 L 65.805,33.7798 v -0.9924 c 0,-0.5454 -0.2315,-1.2456 -0.5139,-1.5419 l -0.514,-0.5317 z M 3.9167,2.0736 2.3925,2.4281 C 1.5538,2.6283 0.6643,2.9139 0.4253,3.0484 L 0,3.2965 0.6911,4.3953 2.2862,3.0661 3.8812,4.3953 4.6256,3.2079 Z"
     style="fill:#D64541;fill-opacity:1"
     id="LA_6"
     inkscape:connector-curvature="0" />
</svg>
