<?xml version="1.0" encoding="UTF-8" standalone="no"?>
<svg
   xmlns:dc="http://purl.org/dc/elements/1.1/"
   xmlns:cc="http://creativecommons.org/ns#"
   xmlns:rdf="http://www.w3.org/1999/02/22-rdf-syntax-ns#"
   xmlns:svg="http://www.w3.org/2000/svg"
   xmlns="http://www.w3.org/2000/svg"
   xmlns:sodipodi="http://sodipodi.sourceforge.net/DTD/sodipodi-0.dtd"
   xmlns:inkscape="http://www.inkscape.org/namespaces/inkscape"
   version="1.0"
   width="116.1048"
   height="82.895401"
   id="svg2"
   sodipodi:docname="LA_7.svg"
   inkscape:version="0.92.2 5c3e80d, 2017-08-06">
  <metadata
     id="metadata56">
    <rdf:RDF>
      <cc:Work
         rdf:about="">
        <dc:format>image/svg+xml</dc:format>
        <dc:type
           rdf:resource="http://purl.org/dc/dcmitype/StillImage" />
      </cc:Work>
    </rdf:RDF>
  </metadata>
  <defs
     id="defs54" />
  <sodipodi:namedview
     pagecolor="#ffffff"
     bordercolor="#666666"
     borderopacity="1"
     objecttolerance="10"
     gridtolerance="10"
     guidetolerance="10"
     inkscape:pageopacity="0"
     inkscape:pageshadow="2"
     inkscape:window-width="640"
     inkscape:window-height="480"
     id="namedview52"
     showgrid="false"
     inkscape:zoom="0.12542268"
     inkscape:cx="-193.15375"
     inkscape:cy="536.88717"
     inkscape:window-x="0"
     inkscape:window-y="0"
     inkscape:window-maximized="0"
     inkscape:current-layer="svg2" />
  <path
     d="m 87.3378,82.828 c -1.0917,-0.037 -3.261,-0.2662 -4.8206,-0.5091 -1.5596,-0.2429 -4.5175,-0.464 -6.573,-0.4913 l -3.7375,-0.05 -8.7792,-2.2454 -9.8339,-4.1643 -14.1782,-3.7472 -4.0732,-0.051 -5.568,1.6891 -7.3979,0.012 -13.4695,2.7931 -3.9634,2.6302 -1.621,-1.621 C 2.4308,76.1815 1.7013,75.2084 1.7013,74.9107 1.7013,74.613 1.3185,74.2225 0.8506,74.043 L 0,73.7165 v -1.3498 l 4.5451,-4.4382 1.7761,-6.3299 4.4542,-4.8239 V 55.1226 H 8.8982 l 2.053,-2.2685 H 10.0694 L 11.4097,51.2392 9.1226,46.7561 9.8703,46.0085 9.5951,41.9221 6.8055,39.7278 v -3.8206 l 0.6757,-0.6378 13.3211,-0.719 -0.265,-2.7579 -0.265,-2.7578 h 5.2484 v 5.1449 c 4.2802,-0.4472 8.5209,-0.8154 12.5245,-0.7095 l 1.6538,-1.5997 h 3.3082 l 0.3803,-1.1409 14.8738,-1.4249 -0.053,-2.857 1.7394,-0.554 6.1056,0.589 c -0.01,-2.0665 0.9046,-3.3625 2.0025,-4.5058 l -0.5949,-2.4527 c 2.1773,-0.3376 4.9643,0.2564 7.9688,0.4491 l 3.0136,-1.8575 -2.6618,-1.9213 0.063,-0.8552 2.6355,-0.8326 -0.8383,-1.2505 c 1.3495,-0.9818 3.7618,-1.1369 5.8954,-1.5089 l 0.1912,-1.137 3.5432,0.919 2.1162,-1.1325 -0.7207,-4.3904 -1.9661,-0.516 0.07,-3.5781 C 94.3254,0.9248 100.7601,0.6373 107.7547,-2e-4 V 2.595 l 2.5557,0.8909 c -0.2041,0.7851 0.6583,2.7622 2.0361,5.3153 -0.2848,1.6316 -0.3901,3.2868 -0.6505,4.921 -0.2116,2.0705 0.1567,4.1796 1.3439,6.3432 l -1.4324,0.8853 c 0.9054,2.4768 3.1785,4.0402 4.4976,6.2154 l -15.7817,0.7517 0.059,2.8183 h 1.8337 c -0.921,1.8318 -0.3346,3.2329 0.69,4.5087 l -1.3017,1.3017 1.3168,2.89 -1.4045,0.7131 v 2.0145 l 3.6863,-0.3669 c -0.266,3.0465 -0.8545,6.5034 -3.1506,12.1337 0.764,3.7214 1.5803,7.4325 2.2999,11.1628 l -3.8742,1.4279 -5.1998,4.577 v 0.7489 c 0,0.4119 0.571,1.8187 1.2689,3.1262 l 1.2689,2.3774 5.402,-0.7167 v 1.2015 l -1.4548,0.5531 c -0.8001,0.3041 -2.3415,0.553 -3.4253,0.553 h -1.9707 l -2.3228,1.2761 c -1.2775,0.7018 -2.8624,1.5913 -3.5219,1.9766 l -1.1992,0.7005 z"
     style="fill:#D64541"
     id="LA_7"
     inkscape:connector-curvature="0" />
</svg>
