<?xml version="1.0" encoding="UTF-8" standalone="no"?>
<svg
   xmlns:dc="http://purl.org/dc/elements/1.1/"
   xmlns:cc="http://creativecommons.org/ns#"
   xmlns:rdf="http://www.w3.org/1999/02/22-rdf-syntax-ns#"
   xmlns:svg="http://www.w3.org/2000/svg"
   xmlns="http://www.w3.org/2000/svg"
   xmlns:sodipodi="http://sodipodi.sourceforge.net/DTD/sodipodi-0.dtd"
   xmlns:inkscape="http://www.inkscape.org/namespaces/inkscape"
   version="1.0"
   width="76.501297"
   height="63.045212"
   id="svg2"
   sodipodi:docname="MA_1.svg"
   inkscape:version="0.92.2 5c3e80d, 2017-08-06">
  <metadata
     id="metadata8">
    <rdf:RDF>
      <cc:Work
         rdf:about="">
        <dc:format>image/svg+xml</dc:format>
        <dc:type
           rdf:resource="http://purl.org/dc/dcmitype/StillImage" />
      </cc:Work>
    </rdf:RDF>
  </metadata>
  <defs
     id="defs6" />
  <sodipodi:namedview
     pagecolor="#ffffff"
     bordercolor="#666666"
     borderopacity="1"
     objecttolerance="10"
     gridtolerance="10"
     guidetolerance="10"
     inkscape:pageopacity="0"
     inkscape:pageshadow="2"
     inkscape:window-width="640"
     inkscape:window-height="480"
     id="namedview4"
     showgrid="false"
     inkscape:zoom="0.12542268"
     inkscape:cx="-1064.2634"
     inkscape:cy="-396.12733"
     inkscape:window-x="0"
     inkscape:window-y="0"
     inkscape:window-maximized="0"
     inkscape:current-layer="svg2" />
  <path
     d="M 1.7038,63.04521 1.0173,61.9345 0,19.66811 75.0147,0 76.5013,2.03302 74.7306,4.73547 h -2.5823 l -0.7033,2.80222 1.0156,4.5199 -1.1288,0.37626 1.9942,7.10739 -0.5085,0.49678 -3.6172,1.26449 -0.3369,-1.05263 -2.1144,-5.3061 h -0.8155 -0.8154 l -1.0645,1.27604 c -0.5855,0.70182 -1.073,1.5089 -1.0834,1.79352 l -3.5119,5.96092 2.9055,4.86418 -4.8002,2.30715 0.1344,1.11493 c 0.074,0.61322 0.2984,2.11672 0.499,3.34111 l 0.3646,2.22617 -1.5173,-1.51726 c -0.8344,-0.83449 -1.7172,-1.51725 -1.9617,-1.51725 l -6.5931,4.33415 0.1576,1.90426 h -0.4349 c -0.2393,0 -0.7851,-0.5251 -1.2131,-1.1669 L 46.221,38.69791 40.7128,41.13807 39.5534,39.97865 39.3628,37.81131 C 39.258,36.61928 38.9431,34.56401 38.663,33.24405 L 38.1537,30.84412 36.7245,29.122 h -1.7074 l 0.7477,4.67607 -3.1284,-0.59803 -4.2889,2.188 2.3005,4.50941 h 0.5222 c 0.2872,0 0.6784,-0.25284 0.8694,-0.56186 l 0.3472,-0.56187 4.4518,0.17444 -0.669,2.6654 1.2805,1.54289 -0.7116,1.85434 1.8795,3.96071 h 0.5405 c 0.2973,0 0.5405,0.22141 0.5405,0.49202 v 0.49201 l -4.4786,-0.25271 -0.6245,1.62733 0.7196,2.86726 -1.5614,0.96501 -0.01,1.9348 -1.4178,0.47574 c -0.3958,-1.33043 -0.9484,-2.11038 -2.3836,-1.84631 z"
     style="fill:#D64541;fill-opacity:1"
     id="MA_1"
     inkscape:connector-curvature="0" />
</svg>
