<?xml version="1.0" encoding="UTF-8" standalone="no"?>
<svg
   xmlns:dc="http://purl.org/dc/elements/1.1/"
   xmlns:cc="http://creativecommons.org/ns#"
   xmlns:rdf="http://www.w3.org/1999/02/22-rdf-syntax-ns#"
   xmlns:svg="http://www.w3.org/2000/svg"
   xmlns="http://www.w3.org/2000/svg"
   xmlns:sodipodi="http://sodipodi.sourceforge.net/DTD/sodipodi-0.dtd"
   xmlns:inkscape="http://www.inkscape.org/namespaces/inkscape"
   version="1.0"
   width="67.045303"
   height="57.953468"
   id="svg2"
   sodipodi:docname="MA_10.svg"
   inkscape:version="0.92.2 5c3e80d, 2017-08-06">
  <metadata
     id="metadata16">
    <rdf:RDF>
      <cc:Work
         rdf:about="">
        <dc:format>image/svg+xml</dc:format>
        <dc:type
           rdf:resource="http://purl.org/dc/dcmitype/StillImage" />
      </cc:Work>
    </rdf:RDF>
  </metadata>
  <defs
     id="defs14" />
  <sodipodi:namedview
     pagecolor="#ffffff"
     bordercolor="#666666"
     borderopacity="1"
     objecttolerance="10"
     gridtolerance="10"
     guidetolerance="10"
     inkscape:pageopacity="0"
     inkscape:pageshadow="2"
     inkscape:window-width="640"
     inkscape:window-height="480"
     id="namedview12"
     showgrid="false"
     inkscape:zoom="0.12542268"
     inkscape:cx="-1169.1468"
     inkscape:cy="-386.383"
     inkscape:window-x="0"
     inkscape:window-y="0"
     inkscape:window-maximized="0"
     inkscape:current-layer="svg2" />
  <path
     d="M 6.717,0 5.4232,2.55208 4.2889,2.8002 C 3.6651,2.92849 2.708,3.01598 2.1622,3.01287 H 1.1697 C 0.906,4.60255 0.6171,5.9903 0,7.47901 h 1.79 l 0.8625,-2.72604 1.92,0.0145 1.0703,3.20459 0.2428,4.35875 1.3013,0.74969 c 0.8283,-0.49765 2.7421,-0.71766 5.0596,-0.88719 l 1.8431,3.50911 1.2938,-0.30129 0.6734,1.79 -0.7089,1.34693 -0.7089,1.32921 3.261,3.70406 c 1.7952,2.03211 3.5928,3.82926 4.0053,3.98762 l 0.7622,0.28357 3.6331,-1.80772 1.8077,1.13425 0.3899,3.27872 1.2938,0.79752 -1.3647,1.38238 0.5849,0.72663 c 0.3291,0.39658 0.7432,1.55744 0.9038,2.58753 0.1607,1.03008 0.5047,2.14613 0.7798,2.48118 l 0.4963,0.6203 -0.2481,1.31149 c -0.139,0.72142 -0.6358,1.83981 -1.1165,2.49891 -0.481,0.6591 -1.5098,2.15066 -2.2863,3.31415 -0.7765,1.16351 -1.4178,2.30248 -1.4178,2.51664 0,0.21415 0.091,0.27175 0.2126,0.14178 0.1215,-0.12997 1.121,-1.41082 2.2154,-2.85337 1.0943,-1.44254 2.28,-3.17198 2.6407,-3.84584 l 0.6558,-1.22287 6.4333,-3.08376 0.8684,-3.49139 2.8534,-1.31148 v -1.57733 c 1.3847,-0.31434 2.76,-0.70487 4.1825,-0.76208 0.2767,0.056 1.0422,-0.36215 1.7014,-0.93931 0.6591,-0.57714 2.226,-1.70602 3.4737,-2.49891 1.2477,-0.79288 3.2499,-1.80023 4.4484,-2.23307 l 2.1799,-0.7798 1.7192,2.25079 -0.4786,-6.23841 -4.1117,-8.50693 -5.4763,-6.80555 -3.9522,-1.98495 h -5.2459 l -1.2229,1.47099 2.0913,1.31149 0.5848,-2.21535 h 3.5091 l 2.1622,2.16218 0.7444,2.05584 0.7266,2.05584 1.7723,-0.30128 2.2508,2.26851 0.7089,2.0204 c 0.3899,1.10717 0.7089,2.55436 0.7089,3.20782 v 1.18742 l -2.1267,1.61278 c -1.1697,0.89353 -2.8575,2.00786 -3.7573,2.46346 l -1.6481,0.83297 c -0.6388,1.02533 -1.2785,2.05004 -1.9319,3.06604 l -1.6836,-1.06336 -3.8813,1.11653 h -5.2282 l -3.8459,-2.58752 -0.3721,-3.27872 -2.8889,-3.77495 h -0.7266 c -0.4048,0 -0.8176,0.25849 -0.9215,0.56713 l -0.195,0.54941 -1.985,-0.56713 C 22.196,16.78754 20.7924,16.1301 20.1685,15.64925 L 19.0343,14.78084 20.7356,13.4339 21.1255,8.61331 H 20.6471 L 15.3479,4.20034 V 2.94202 H 13.7883 L 12.3705,1.24064 H 7.479 Z m 54.6038,42.07386 0.638,3.26099 -1.2051,2.26852 -3.1369,1.27604 c -1.7265,0.70067 -3.137,1.44223 -3.137,1.66594 0,0.2237 0.1914,0.61008 0.4254,0.85069 l 0.4253,0.44307 7.9576,-0.49624 3.3673,-1.61277 0.3899,-2.02039 C 65.6664,46.0792 64.3,44.43833 62.9513,42.78278 62.6379,42.39286 62.1443,42.07386 61.8525,42.07386 Z m -27.0804,1.84317 -3.0483,3.82812 -1.985,6.48654 -2.7115,0.63802 -0.3899,1.1697 1.8431,0.92158 c 1.0198,0.50745 2.0523,0.93708 2.2863,0.95703 l 0.4253,0.0355 v -2.28624 l 3.6863,-2.26851 9.4817,-2.92426 -0.7089,-3.56228 -1.6837,-1.68366 v 2.99515 L 38.3166,47.39075 36.952,44.64372 Z m -8.9677,4.96238 c -0.156,0 -0.2836,0.12759 -0.2836,0.28356 0,0.15596 0.1276,0.28356 0.2836,0.28357 0.1559,0 0.2835,-0.12762 0.2835,-0.28357 0,-0.15596 -0.1276,-0.28357 -0.2835,-0.28356 z m -0.5672,0.85069 -0.9924,0.7798 c -0.5459,0.4281 -0.9925,0.8747 -0.9925,0.99248 0,0.11777 0.095,0.21266 0.2127,0.21267 0.1177,0 0.5644,-0.44662 0.9924,-0.99247 z"
     style="fill:#D64541;fill-opacity:1"
     id="MA_10"
     inkscape:connector-curvature="0" />
</svg>
