<?xml version="1.0" encoding="UTF-8" standalone="no"?>
<svg
   xmlns:dc="http://purl.org/dc/elements/1.1/"
   xmlns:cc="http://creativecommons.org/ns#"
   xmlns:rdf="http://www.w3.org/1999/02/22-rdf-syntax-ns#"
   xmlns:svg="http://www.w3.org/2000/svg"
   xmlns="http://www.w3.org/2000/svg"
   xmlns:sodipodi="http://sodipodi.sourceforge.net/DTD/sodipodi-0.dtd"
   xmlns:inkscape="http://www.inkscape.org/namespaces/inkscape"
   version="1.0"
   width="23.1283"
   height="30.16416"
   id="svg2"
   sodipodi:docname="MD_3.svg"
   inkscape:version="0.92.2 5c3e80d, 2017-08-06">
  <metadata
     id="metadata24">
    <rdf:RDF>
      <cc:Work
         rdf:about="">
        <dc:format>image/svg+xml</dc:format>
        <dc:type
           rdf:resource="http://purl.org/dc/dcmitype/StillImage" />
      </cc:Work>
    </rdf:RDF>
  </metadata>
  <defs
     id="defs22" />
  <sodipodi:namedview
     pagecolor="#ffffff"
     bordercolor="#666666"
     borderopacity="1"
     objecttolerance="10"
     gridtolerance="10"
     guidetolerance="10"
     inkscape:pageopacity="0"
     inkscape:pageshadow="2"
     inkscape:window-width="640"
     inkscape:window-height="480"
     id="namedview20"
     showgrid="false"
     inkscape:zoom="0.12542268"
     inkscape:cx="-957.39505"
     inkscape:cy="-170.32469"
     inkscape:window-x="0"
     inkscape:window-y="0"
     inkscape:window-maximized="0"
     inkscape:current-layer="svg2" />
  <path
     d="M 1.3293,0 1.0279,0.28357 C 0.8694,0.44214 0.6206,1.51338 0.4786,2.65842 L 0.2304,4.73201 0.8862,5.79538 3.2433,4.53703 4.2712,6.34475 9.3045,5.86627 9.6235,6.39795 c 0.1801,0.29145 0.5749,0.53168 0.8684,0.53168 0.2936,0 0.5624,-0.1914 0.6026,-0.42534 0.1185,-1.2068 0.2041,-2.42181 0.2659,-3.6332 L 10.3856,2.35716 C 9.8454,2.06804 8.7909,1.82548 8.0462,1.82548 7.3014,1.82548 5.4816,1.40682 4.0054,0.90389 Z m 12.4413,2.28627 -0.5848,0.60257 0.3722,0.60258 c 0.081,0.131 0.218,0.2374 0.3721,0.3367 -0.1612,0.42671 -0.443,1.34693 -0.443,1.34693 v 0.51399 l 0.8684,-1.64825 c 0.118,0.0336 0.2415,0.0532 0.3544,0.0532 0.4311,0 0.9377,-0.24228 1.1166,-0.53168 l 0.319,-0.51399 z m -1.6304,6.91188 c -0.1807,0 -0.98,0.70182 -1.7723,1.5596 -0.7925,0.85778 -1.4606,1.49218 -1.666,2.07354 L 8.5247,14.35545 5.7245,13.69973 4.8029,15.9328 2.3926,16.81894 2.3216,18.36079 -1e-4,19.97359 h 3.8459 l 2.0026,-1.80772 1.2938,0.7975 -2.1267,4.59022 0.443,2.0204 4.4307,0.74436 0.7089,1.20515 c 0.2492,0.49793 0.5022,0.8014 4.2004,2.64066 l 2.233,-1.6305 c 1.4001,-0.80934 2.428,-1.49461 4.2003,-1.9495 l 1.8964,-0.49624 -0.1418,-0.37215 -1.3469,-0.88614 -1.347,-0.88613 -5.3877,1.84316 -3.2433,-3.82812 c 0.2323,-1.00654 0.4617,-2.01421 0.7798,-2.99517 l 5.1042,0.95703 1.6659,-1.64819 h -4.7851 v -0.85069 c 0,-0.46789 -0.1475,-0.8507 -0.319,-0.8507 l -3.456,1.6305 0.5317,3.66858 c -0.776,0.60399 -1.5825,1.12899 -2.4812,1.50647 -0.219,0 -0.5457,-0.37913 -0.7266,-0.8507 l -0.319,-0.86844 1.3114,-2.90654 -1.2937,-2.07353 1.7545,-1.47102 2.9952,-0.0531 0.035,-5.95485 z"
     style="fill:#D64541;fill-opacity:1"
     id="MD_3"
     inkscape:connector-curvature="0" />
</svg>
