<?xml version="1.0" encoding="UTF-8" standalone="no"?>
<svg
   xmlns:dc="http://purl.org/dc/elements/1.1/"
   xmlns:cc="http://creativecommons.org/ns#"
   xmlns:rdf="http://www.w3.org/1999/02/22-rdf-syntax-ns#"
   xmlns:svg="http://www.w3.org/2000/svg"
   xmlns="http://www.w3.org/2000/svg"
   xmlns:sodipodi="http://sodipodi.sourceforge.net/DTD/sodipodi-0.dtd"
   xmlns:inkscape="http://www.inkscape.org/namespaces/inkscape"
   version="1.0"
   width="33.549099"
   height="31.812401"
   id="svg2"
   sodipodi:docname="MD_4.svg"
   inkscape:version="0.92.2 5c3e80d, 2017-08-06">
  <metadata
     id="metadata32">
    <rdf:RDF>
      <cc:Work
         rdf:about="">
        <dc:format>image/svg+xml</dc:format>
        <dc:type
           rdf:resource="http://purl.org/dc/dcmitype/StillImage" />
      </cc:Work>
    </rdf:RDF>
  </metadata>
  <defs
     id="defs30" />
  <sodipodi:namedview
     pagecolor="#ffffff"
     bordercolor="#666666"
     borderopacity="1"
     objecttolerance="10"
     gridtolerance="10"
     guidetolerance="10"
     inkscape:pageopacity="0"
     inkscape:pageshadow="2"
     inkscape:window-width="640"
     inkscape:window-height="480"
     id="namedview28"
     showgrid="false"
     inkscape:zoom="0.12542268"
     inkscape:cx="-937.70515"
     inkscape:cy="-152.72595"
     inkscape:window-x="0"
     inkscape:window-y="0"
     inkscape:window-maximized="0"
     inkscape:current-layer="svg2" />
  <path
     d="M 7.0536,0 7.3372,2.56983 C 6.4145,3.96961 6.2377,4.45145 5.1573,5.15735 H 4.5901 L 3.4736,2.19762 0,2.81795 C 0.2025,4.53884 0.8423,6.1821 1.2405,7.86891 L 3.1369,8.61326 4.537,6.57517 5.4408,8.01069 6.8409,6.89418 l 2.8002,3.31413 3.4914,1.73683 0.638,-2.16217 1.4533,-1.22285 3.6332,0.72661 -1.0988,5.01557 -0.5672,1.08106 1.6819,-0.23848 2.498,1.48775 1.2135,1.66118 -0.1261,1.36049 2.0168,0.93956 v 0.65577 c -8e-4,0.3565 -0.9159,2.16201 -2.0381,4.02304 l -2.0382,3.38508 0.4077,3.15465 c 0.2868,-0.0953 0.6157,-0.22061 0.957,-0.4431 1.7723,-1.64819 3.4048,-3.96723 5.3168,-4.94462 l 6.4688,-3.40277 -0.018,-0.8507 c 0,-0.46788 -0.8293,-2.31428 -1.8431,-4.09399 L 29.8448,14.85168 28.1966,15.86191 26.956,14.83399 22.7103,17.6381 20.8437,15.3026 19.0339,14.3023 20.5758,9.02092 20.1859,7.1423 17.8465,7.46131 C 15.7659,5.13132 13.8207,3.12238 11.5195,1.89636 10.8426,1.15955 10.8965,1.12013 9.0205,1.15201 8.1377,1.16751 7.6062,0.72377 7.0533,0 Z"
     style="fill:#D64541;fill-opacity:1"
     id="MD_4"
     inkscape:connector-curvature="0" />
</svg>
