<?xml version="1.0" encoding="UTF-8" standalone="no"?>
<svg
   xmlns:dc="http://purl.org/dc/elements/1.1/"
   xmlns:cc="http://creativecommons.org/ns#"
   xmlns:rdf="http://www.w3.org/1999/02/22-rdf-syntax-ns#"
   xmlns:svg="http://www.w3.org/2000/svg"
   xmlns="http://www.w3.org/2000/svg"
   xmlns:sodipodi="http://sodipodi.sourceforge.net/DTD/sodipodi-0.dtd"
   xmlns:inkscape="http://www.inkscape.org/namespaces/inkscape"
   version="1.0"
   width="50.031399"
   height="58.36792"
   id="svg2"
   sodipodi:docname="MD_5.svg"
   inkscape:version="0.92.2 5c3e80d, 2017-08-06">
  <metadata
     id="metadata40">
    <rdf:RDF>
      <cc:Work
         rdf:about="">
        <dc:format>image/svg+xml</dc:format>
        <dc:type
           rdf:resource="http://purl.org/dc/dcmitype/StillImage" />
      </cc:Work>
    </rdf:RDF>
  </metadata>
  <defs
     id="defs38" />
  <sodipodi:namedview
     pagecolor="#ffffff"
     bordercolor="#666666"
     borderopacity="1"
     objecttolerance="10"
     gridtolerance="10"
     guidetolerance="10"
     inkscape:pageopacity="0"
     inkscape:pageshadow="2"
     inkscape:window-width="640"
     inkscape:window-height="480"
     id="namedview36"
     showgrid="false"
     inkscape:zoom="0.12542268"
     inkscape:cx="-951.40475"
     inkscape:cy="-119.26536"
     inkscape:window-x="0"
     inkscape:window-y="0"
     inkscape:window-maximized="0"
     inkscape:current-layer="svg2" />
  <path
     d="M 29.1718,3.43175 27.2222,4.0476 C 26.1305,4.40035 24.259,5.3833 23.0574,6.24522 L 20.8598,7.82258 16.3404,5.46542 15.791,4.01215 11.0202,3.19418 10.4122,0.61216 8.4899,0.9707 7.7585,0 7.2609,0.0634 7.3727,1.15881 c 0,0.73999 -0.3535,2.4619 -0.762,3.82811 L 5.8663,7.46811 7.2132,8.06042 c 0.7393,0.73937 1.4722,2.10155 1.6305,2.10155 l 4.4484,-2.81794 1.0634,1.06336 2.0381,-1.08106 c 1.4408,2.65121 3.1018,5.21503 4.0231,8.09928 v 0.90389 l -8.2234,4.53703 -1.9495,2.02039 c -1.0749,1.11135 -2.174,2.0204 -2.428,2.0204 -0.1764,0.10316 -0.4015,0.21313 -0.6558,0.3367 L 7.3905,26.96316 3.8813,29.53294 4.6079,33.85729 2.499,35.3992 0,40.25524 v 1.43552 c 0,0.78955 0.4146,2.70327 0.9216,4.25346 l 0.9216,2.81795 2.1976,1.1874 2.6762,-1.75453 0.7266,-2.30396 h 1.6305 v -0.63802 c 0,-0.35332 0.5512,-1.11906 1.2229,-1.70138 0.6716,-0.58244 1.4229,-1.06337 1.6659,-1.06337 0.243,0 0.9377,0.70182 1.5419,1.5596 0.6041,0.85779 1.2581,2.11426 1.471,2.8002 l 0.3899,1.25829 1.2583,0.37221 c 0.6858,0.20518 1.6234,0.81303 2.0913,1.36462 l 0.8507,1.01023 2.9951,0.69116 0.6203,-2.37485 1.4887,0.49623 0.3722,2.53439 1.5596,0.60257 4.3066,-1.43557 5.1042,0.26587 2.4635,1.59505 0.762,2.39255 1.7369,-0.67347 1.5596,1.29379 v -1.84317 h 1.7368 l 0.6558,1.70139 h 1.9672 l 1.0279,1.13426 c 0.5646,0.62384 1.2775,1.13425 1.5774,1.13425 h 0.5316 L 48.6491,52.71432 43.6689,47.75195 V 44.68593 L 41.9144,42.91366 42.6056,39.72356 41.56,38.69564 C 40.9833,38.12947 39.4191,36.91417 38.0863,36.00178 36.7534,35.08921 35.2091,33.68557 34.6481,32.88257 L 33.6202,31.4293 32.8758,26.60871 30.625,22.92237 v -2.55208 h -0.5494 c -0.301,0 -0.8033,-0.47815 -1.1166,-1.06337 l -0.5671,-1.06336 1.1166,-2.30396 c 0.6142,-1.27128 1.1165,-2.57964 1.1165,-2.90654 v -0.60257 h -1.79 l 0.3899,-1.84317 c 0.2168,-1.01374 0.6695,-2.16927 0.9925,-2.56983 l 0.5848,-0.7266 z"
     style="fill:#D64541;fill-opacity:1"
     id="MD_5"
     inkscape:connector-curvature="0" />
</svg>
