<?xml version="1.0" encoding="UTF-8" standalone="no"?>
<svg
   xmlns:dc="http://purl.org/dc/elements/1.1/"
   xmlns:cc="http://creativecommons.org/ns#"
   xmlns:rdf="http://www.w3.org/1999/02/22-rdf-syntax-ns#"
   xmlns:svg="http://www.w3.org/2000/svg"
   xmlns="http://www.w3.org/2000/svg"
   xmlns:sodipodi="http://sodipodi.sourceforge.net/DTD/sodipodi-0.dtd"
   xmlns:inkscape="http://www.inkscape.org/namespaces/inkscape"
   version="1.0"
   width="77.202301"
   height="110.02297"
   id="svg2"
   sodipodi:docname="ME_1.svg"
   inkscape:version="0.92.2 5c3e80d, 2017-08-06">
  <metadata
     id="metadata8">
    <rdf:RDF>
      <cc:Work
         rdf:about="">
        <dc:format>image/svg+xml</dc:format>
        <dc:type
           rdf:resource="http://purl.org/dc/dcmitype/StillImage" />
      </cc:Work>
    </rdf:RDF>
  </metadata>
  <defs
     id="defs6" />
  <sodipodi:namedview
     pagecolor="#ffffff"
     bordercolor="#666666"
     borderopacity="1"
     objecttolerance="10"
     gridtolerance="10"
     guidetolerance="10"
     inkscape:pageopacity="0"
     inkscape:pageshadow="2"
     inkscape:window-width="468"
     inkscape:window-height="449"
     id="namedview4"
     showgrid="false"
     inkscape:zoom="0.12542268"
     inkscape:cx="-1143.0215"
     inkscape:cy="-493.56895"
     inkscape:window-x="0"
     inkscape:window-y="0"
     inkscape:window-maximized="0"
     inkscape:current-layer="svg2" />
  <path
     d="m 23.6087,110.0212 -3.9699,-1.98318 -0.9409,-5.9778 -2.247,-1.14632 c -1.2358,-0.63047 -2.7467,-1.64614 -3.3576,-2.25704 L 11.9825,97.54613 H 9.8445 L 7.9106,94.59471 8.5153,92.28219 6.7614,85.35287 6.041,84.50217 C 3.9233,80.14781 2.4555,76.55146 1.1501,72.41366 L 4.323,69.8763 7.9179,68.55326 8.5816,66.82371 7.5621,65.00198 C 8.307,62.39774 8.5646,60.11837 8.4973,57.35171 L 4.4186,54.2407 0.64,53.87722 0,52.12002 l 2.1571,0.6736 6.5152,-7.86678 1.757,1.11715 0.3781,4.57958 1.9181,2.1194 h 2.5834 l 0.746,-2.35055 5.0783,1.72621 2.759,-1.04898 V 48.84 l 0.9724,-0.60096 3.0584,1.83504 c 1.6821,1.00927 4.004,2.12287 5.1597,2.47466 l 2.1014,0.63963 2.2455,-2.58644 -7e-4,-2.51761 c -0.5402,-3.12619 -1.1207,-6.24575 -1.6262,-9.37779 l 3.3377,-0.14178 1.7657,-2.52089 v -2.10339 l -3.5196,-3.5196 -1.8681,1.18328 0.3647,2.9907 h -4.5727 l -1.3092,-4.36977 0.6319,-1.1806 0.6318,-1.18061 -0.01,-1.59689 c 0,-0.87829 -0.3886,-2.68897 -0.8536,-4.02375 C 29.9364,20.90846 28.8854,18.803 28.0657,17.56442 27.2461,16.32585 26.338,15.31247 26.0478,15.31247 h -0.5277 l 0.3554,-3.68633 3.6162,-0.3502 0.3537,-2.44754 3.1832,-1.73929 1.5328,2.05869 2.0895,-0.35731 0.3724,3.25857 L 47.4264,11.2487 49.8591,8.98852 49.2817,4.68408 50.5456,3.90296 V 1.19062 l -1.985,-1.15613 2.4198,-0.0345 0.342,1.27604 c 0.1881,0.70182 0.3454,1.85026 0.3497,2.55208 l 0.01,1.27604 h 2.2686 v 0.7798 c 0,0.42889 0.1595,1.57733 0.3544,2.55208 l 0.3545,1.77227 h -2.4103 v 8.50694 h 4.4701 l 0.7036,-1.13842 2.7301,0.68522 1.9315,-4.05044 8.1543,4.27288 3.065,-1.02165 0.7798,0.77963 0.089,9.01229 1.3285,1.32852 v -1.3611 h 1.7014 v 0.56712 c 0,0.31193 -0.2552,0.56713 -0.5671,0.56713 H 76.0684 V 30.558 L 75.56,30.8722 c -0.2797,0.17281 -1.0592,1.37101 -1.7325,2.66266 l -1.2241,2.34845 0.5585,1.45531 -1.9735,2.27544 -1.0749,-1.4833 -3.5874,-0.65213 -1.3161,1.58582 -1.7329,-0.66499 -1.0025,1.5831 -0.1069,8.50693 -0.5721,-1.41782 h -1.6068 v 0.56713 c 0,0.31192 -0.5047,1.07175 -1.1214,1.68852 l -1.1214,1.1214 -1.907,-0.73177 0.7553,3.77645 -2.2532,-2.0391 -0.248,0.78611 -0.9935,4.15249 -3.3191,4.51331 v -1.92484 h -1.002 L 48.3631,56.628 46.0106,57.88702 v -0.39141 c 0,-0.21528 -0.5105,0.0705 -1.1343,0.63507 -0.6238,0.56457 -1.1343,1.34244 -1.1343,1.72861 v 0.70211 c -0.6766,0.35603 -1.3656,0.4649 -2.0819,0.49693 -0.1201,-0.12005 0.059,-0.94789 0.3981,-1.83966 l 0.6165,-1.6214 -0.7775,-0.58399 c -0.4276,-0.32119 -0.9513,-1.04677 -1.1637,-1.61241 l -0.3862,-1.02842 -0.5711,0.35298 c -0.3142,0.19414 -0.5712,0.73721 -0.5712,1.20682 v 0.85384 l -3.4028,2.86324 v 1.4792 l -1.6733,0.64213 0.3886,4.58339 h -0.9838 v 2.27601 l 2.8357,2.46556 v 1.94262 l 1.8972,0.72805 -2.5377,1.77751 -0.5694,-0.5694 -3.8943,3.89429 v 2.79783 l 1.998,1.99798 -0.2069,1.12774 c -0.1138,0.62026 -0.5883,1.55828 -1.0545,2.08449 l -0.8477,0.95673 0.6819,1.10338 -0.6922,1.80374 h -0.6816 c -0.3749,0 -1.1443,0.33831 -1.7098,0.7518 l -1.0281,0.75181 -0.9641,6.09873 1.7434,1.92637 -0.6345,2.35619 c -0.3489,1.2959 -0.5914,2.78865 -0.5388,3.31723 0.053,0.52857 0.066,1.66286 0.03,2.52064 l -0.065,1.55961 z"
     style="fill:#D64541;fill-opacity:1"
     id="ME_1"
     inkscape:connector-curvature="0" />
</svg>
