<?xml version="1.0" encoding="UTF-8" standalone="no"?>
<svg
   xmlns:dc="http://purl.org/dc/elements/1.1/"
   xmlns:cc="http://creativecommons.org/ns#"
   xmlns:rdf="http://www.w3.org/1999/02/22-rdf-syntax-ns#"
   xmlns:svg="http://www.w3.org/2000/svg"
   xmlns="http://www.w3.org/2000/svg"
   xmlns:sodipodi="http://sodipodi.sourceforge.net/DTD/sodipodi-0.dtd"
   xmlns:inkscape="http://www.inkscape.org/namespaces/inkscape"
   version="1.0"
   width="324.06091"
   height="256.74979"
   id="svg2"
   sodipodi:docname="MI_1.svg"
   inkscape:version="0.92.2 5c3e80d, 2017-08-06">
  <metadata
     id="metadata8">
    <rdf:RDF>
      <cc:Work
         rdf:about="">
        <dc:format>image/svg+xml</dc:format>
        <dc:type
           rdf:resource="http://purl.org/dc/dcmitype/StillImage" />
      </cc:Work>
    </rdf:RDF>
  </metadata>
  <defs
     id="defs6" />
  <sodipodi:namedview
     pagecolor="#ffffff"
     bordercolor="#666666"
     borderopacity="1"
     objecttolerance="10"
     gridtolerance="10"
     guidetolerance="10"
     inkscape:pageopacity="0"
     inkscape:pageshadow="2"
     inkscape:window-width="640"
     inkscape:window-height="480"
     id="namedview4"
     showgrid="false"
     inkscape:zoom="0.12542268"
     inkscape:cx="-276.61025"
     inkscape:cy="-380.94211"
     inkscape:window-x="0"
     inkscape:window-y="0"
     inkscape:window-maximized="0"
     inkscape:current-layer="svg2" />
  <path
     d="m 72.5038,0 -1.276,0.3899 C 70.526,0.60195 69.7164,0.99918 69.4201,1.27604 69.1238,1.55291 68.4105,1.77228 67.8428,1.77228 H 66.8149 L 64.6881,3.15466 C 63.5247,3.91849 61.8407,5.32213 60.9309,6.27386 60.0212,7.22559 59.0641,8.0107 58.8042,8.0107 h -0.4786 v 1.63049 l -1.276,0.3899 c -0.7018,0.2189 -2.2969,1.10312 -3.5446,1.94951 -1.2476,0.84638 -4.136,2.75273 -6.4156,4.25346 l -4.1471,2.72931 -1.666,2.02039 c -0.9176,1.11316 -1.6659,2.36023 -1.6659,2.76476 v 0.74435 l 1.3647,0.51396 c 0.7494,0.28497 1.5321,0.78537 1.7368,1.11654 0.2046,0.33116 0.6741,0.5951 1.0456,0.58485 0.3715,-0.0102 2.56,-1.09489 4.8738,-2.4103 l 4.218,-2.39257 0.4431,-1.32921 -2.0204,-0.37218 2.8002,-2.62297 8.2233,-4.05851 4.5371,-3.89901 V 7.03594 l 5.6712,-5.29911 z m 33.248,41.34723 -10.8464,0.51396 -7.9398,2.62297 -0.5671,0.69119 c -0.3119,0.37178 -2.2744,1.7603 -4.3598,3.08376 l -3.7927,2.39257 -1.1519,2.46347 c -0.6364,1.35372 -1.9259,3.35416 -2.8711,4.43069 l -1.7192,1.94951 -3.9344,1.86089 -1.5773,2.10901 c -0.8652,1.15857 -1.7477,2.19296 -1.9495,2.28624 -0.2019,0.0933 -1.2716,1.0558 -2.3926,2.14445 l -2.0381,1.98495 -0.3722,1.52416 c -0.2026,0.84556 -0.7052,2.21287 -1.1165,3.03059 l -0.7444,1.48872 -5.8662,1.91406 -1.3824,-0.53169 -3.1547,5.40545 -8.6487,5.83079 h -3.1014 l -4.5548,1.82545 -2.8002,-0.70891 -5.7953,2.21534 -1.0812,1.25832 c -0.6008,0.69281 -1.1116,1.40884 -1.1165,1.59505 0,0.18621 -1.3447,1.79362 -2.9774,3.58 l -2.9597,3.26099 -3.6155,1.41782 c -1.988,0.77888 -4.4938,1.92016 -5.5649,2.55208 -1.071,0.63192 -2.2356,1.15198 -2.5875,1.15198 -0.352,0 -1.2147,0.53038 -1.9141,1.18742 L 0,109.08366 l 0.6203,1.6305 2.2331,-2.0204 1.8963,2.33941 1.4001,-0.46079 v 1.34693 l 1.7014,-0.65575 0.9925,1.08109 c 2.0159,2.56838 3.199,5.66037 5.1219,8.29426 l 0.9747,1.18743 44.236,7.17772 11.3426,4.99782 7.1246,0.30129 1.5241,2.09128 1.2406,-2.32168 4.7675,-0.76208 0.8152,1.31149 6.2916,0.23039 1.4887,1.20515 5.1041,-0.35445 4.8206,1.89633 v 1.86089 l 1.8078,0.69119 -2.3217,3.95218 2.304,1.61277 2.9951,-1.5596 2.3748,2.23307 h 3.6155 l 0.9924,0.88614 c 0.5459,0.49059 1.7229,1.48743 2.6053,2.19762 l 1.5951,1.27604 -1.9318,1.93178 2.4103,2.5698 v 1.84317 l -1.79,1.77228 h 1.3469 l -0.638,1.66594 1.1874,0.74436 -0.6912,3.49138 -1.1697,0.72664 -0.4431,5.38772 4.1826,-0.76208 2.2685,-2.65842 2.8146,2.20174 0.2323,3.00677 -1.5514,1.72322 -1.0483,6.24863 4.6924,4.31202 h 0.8153 v -2.44574 l 3.1192,-5.22822 c 1.7155,-2.87499 3.1192,-5.50808 3.1192,-5.84852 0,-0.34043 0.6737,-2.09657 1.5065,-3.899 0.8327,-1.80244 1.5805,-3.78914 1.6481,-4.41298 0.068,-0.62384 0.3911,-1.89989 0.7267,-2.83564 0.3355,-0.93576 1.3069,-3.83286 2.1622,-6.43336 l 1.5596,-4.71426 4.7851,-5.01555 -0.5848,-5.95485 1.6836,-2.23307 1.8078,1.50644 0.5671,2.07356 c 0.3155,1.13594 0.5831,2.88528 0.5848,3.89901 v 1.84317 h 0.4608 c 0.2523,0 0.9542,-0.375 1.5596,-0.83297 0.6055,-0.45796 1.5533,-0.84076 2.1091,-0.85069 l 1.0101,-0.0177 0.2659,-0.70891 c 0.1426,-0.3899 0.3182,-1.21639 0.4076,-1.84316 0.089,-0.62678 0.6004,-1.74447 1.1166,-2.48119 l 0.9215,-1.34693 -1.0988,-2.88881 1.6482,-1.64822 2.623,1.84317 h 2.5875 l 0.018,-1.98495 2.0735,-2.67614 2.4457,0.76208 v 1.13425 c 0,0.62066 -0.289,2.26509 -0.638,3.65089 l -0.638,2.51664 -0.638,0.0709 c -0.3529,0.0369 -0.8294,0.0369 -1.0634,0 l -0.4253,-0.0709 v 2.76475 l -1.1343,0.70891 v 2.76475 h -1.7014 v 1.45327 l 1.1343,0.97475 c 0.6274,0.5372 1.5324,0.97476 2.0027,0.97476 h 0.8507 l -0.7089,-2.81793 1.8786,-0.72663 -0.3368,-2.4103 2.5521,-0.35445 v -2.67614 l 3.4028,-0.74436 v -2.1799 l 0.7089,-0.0709 c 0.3899,-0.037 1.0123,-0.0284 1.3824,0.0177 l 0.6734,0.0886 0.7621,-7.70941 0.9216,-1.13425 c 0.5126,-0.61686 1.6615,-1.58167 2.5343,-2.14446 l 1.5774,-1.0102 0.9747,0.10634 c 0.5308,0.0658 1.6595,-0.16124 2.5167,-0.51396 l 1.5596,-0.63802 2.8711,0.5494 c 1.5843,0.30047 3.0972,0.6593 3.3496,0.81525 l 0.4608,0.28357 0.5848,-2.2508 1.0457,-0.31901 c 0.5754,-0.1803 1.5141,-0.59256 2.0913,-0.90386 l 1.0456,-0.5494 4.3421,0.72663 2.2153,-1.18743 1.0102,-2.14445 c 0.5572,-1.18049 1.6043,-3.10148 2.3394,-4.27119 l 1.347,-2.12673 h 3.3141 l 0.6558,-1.04564 2.3925,0.19495 c 1.3212,0.10865 3.8139,0.43895 5.5295,0.74435 1.7156,0.30539 4.9722,0.86955 7.2309,1.2406 l 4.094,0.67346 2.7824,2.49891 c 1.5303,1.37582 3.0764,2.49892 3.4206,2.49891 0.344,0 1.1118,0.49156 1.719,1.09882 0.6073,0.60725 1.9304,1.52423 2.9243,2.03811 l 1.79,0.93931 0.9039,-1.45327 -0.7798,-1.52415 -0.7798,-1.52416 0.6735,-0.67347 -1.3115,-1.59505 0.7089,-1.84317 h 1.5418 l -1.0633,-2.81792 c 0.2759,-0.90676 0.649,-1.71219 1.3114,-2.39257 l 0.5672,-0.37218 2.233,1.5596 2.0204,-1.08108 1.7723,1.79 0.1241,2.46346 0.5317,-1.98495 h 1.6127 v 1.20515 l 2.2685,-0.70891 v 0.51396 c 0,0.28287 0.6148,0.79259 1.3647,1.13426 l 1.3647,0.62029 1.9849,-2.19762 h 2.5875 l 0.3013,-0.46079 c 0.1598,-0.25861 1.6443,-0.76298 3.2965,-1.11654 1.6521,-0.35354 4.654,-0.81504 6.6814,-1.02792 2.0275,-0.21287 4.452,-0.37177 5.3878,-0.33673 0.9357,0.035 3.1272,0.10748 4.8738,0.1595 l 3.1723,0.10634 2.0558,-1.15198 3.8105,1.59505 2.233,-1.18743 0.4963,-1.84316 c 0.2732,-1.00655 0.3766,-2.01685 0.2481,-2.2508 -0.1286,-0.23394 -0.734,-0.42534 -1.3469,-0.42534 h -1.1166 l -1.0634,-2.83565 h -1.1697 v -1.70138 l -1.276,-0.0886 c -0.7018,-0.047 -2.0417,-0.0241 -2.9774,0.0532 l -1.7014,0.14178 -0.7444,1.18743 -1.7545,-0.33673 c -0.9674,-0.19347 -1.7546,-0.26443 -1.7546,-0.14179 0,0.12266 0.1473,0.62315 0.3368,1.11654 l 0.3544,0.90386 h 1.4533 l 0.3545,0.90386 c 0.1893,0.49339 0.3367,1.36959 0.3367,1.94951 v 1.04564 l -1.2052,0.74436 -2.0913,-1.89634 -0.7443,2.35713 h -2.1977 v -0.99248 l -4.9091,-1.24059 -3.0307,-2.39257 v -1.94951 l 1.3647,-1.36465 h -2.9243 l -1.4178,-1.70139 h -1.7545 l -2.0382,1.84317 -1.7368,-0.67347 v -3.20782 l 1.3647,-1.36465 h 3.1014 l 0.5495,-0.86842 -0.7976,-3.03059 c -0.4328,-1.6687 -1.1083,-3.43676 -1.5064,-3.91673 L 267.3128,84.963 v -9.18042 l -0.709,0.0532 c -0.3899,0.0312 -1.4551,0.095 -2.3571,0.14179 l -1.6304,0.0886 -0.709,2.83564 h -6.1852 l -0.8684,1.66594 c -0.476,0.92028 -0.8685,2.06871 -0.8685,2.55208 v 0.88614 h -1.8963 l -1.9495,1.77228 -3.9522,-3.47366 h -1.8608 l -4.6966,3.40277 h -1.0102 c -0.5587,0 -1.1468,-0.21213 -1.3115,-0.47852 l -0.3013,-0.49624 -7.479,0.42535 -0.7089,-0.70891 c -0.3895,-0.39428 -0.8895,-1.20882 -1.1165,-1.80772 l -0.4077,-1.09881 1.2229,-0.74436 -0.5848,-2.51663 c -0.3175,-1.37712 -0.5773,-3.73111 -0.5849,-5.22822 l -0.018,-2.71159 1.7368,-3.3496 h -0.8329 c -0.4576,0 -0.9773,0.23125 -1.152,0.51396 l -0.319,0.51396 -2.9775,0.37218 c -1.6372,0.20677 -3.8706,0.64582 -4.9623,0.97475 l -1.985,0.60258 -1.9672,1.48871 c -1.0867,0.81917 -3.1336,2.22216 -4.537,3.11921 l -2.5521,1.63049 -3.6863,0.51396 c -2.0327,0.28553 -6.1286,0.74024 -9.0919,0.99248 l -5.3877,0.44307 -6.8055,3.08376 -2.8002,-0.53168 -10.1197,8.96772 h -2.1445 l -0.3721,0.99247 c -0.2071,0.54586 -1.0939,1.75811 -1.9673,2.69386 -0.8734,0.93577 -1.5936,1.8928 -1.595,2.12674 0,0.23394 -0.3828,0.42535 -0.8507,0.42534 h -0.8507 v -1.13425 l -1.4178,0.28356 V 91.1128 l -2.109,-0.40762 -0.9748,0.99247 1.6659,3.20783 v 3.27871 h -0.3899 c -0.2138,0 -0.967,-0.5309 -1.6659,-1.18743 l -1.2583,-1.20515 -0.6558,0.40763 c -0.3542,0.21894 -0.867,1.00506 -1.1519,1.75455 l -0.514,1.36466 h -2.747 l -0.6735,-1.75456 -0.7266,0.0886 c -0.3941,0.0516 -1.0086,0.0724 -1.3647,0.0354 l -0.638,-0.0709 -0.6912,-2.76475 -2.3216,-0.72664 -4.2004,3.20783 -6.8055,1.41782 -1.985,-0.35446 c -1.0917,-0.19455 -2.3103,-0.6203 -2.7115,-0.9393 l -0.7267,-0.58486 0.089,-0.90386 c 0.047,-0.49811 0.054,-1.47807 0.018,-2.1799 l -0.071,-1.27604 h -2.8179 l -0.7089,-1.13426 c -0.3896,-0.62384 -0.986,-1.13425 -1.3115,-1.13425 h -0.5849 l -1.0102,-1.70139 c -0.5515,-0.93351 -1.4665,-1.94485 -2.0381,-2.25079 l -1.0456,-0.54941 -0.3722,-1.48871 c -0.2045,-0.81461 -0.8296,-1.97516 -1.4001,-2.58752 l -1.0457,-1.11654 -4.3952,-0.28356 -0.319,-1.64822 -1.5065,-0.70891 c -0.8329,-0.3899 -2.1839,-0.70891 -2.9951,-0.70891 h -1.471 l -1.2229,-1.22287 -4.6434,1.25831 -2.8887,-0.72663 -3.3674,1.38237 -1.8786,-0.70891 0.9393,-1.02792 c 0.5103,-0.56392 0.9216,-1.20852 0.9216,-1.43554 v -0.42535 l -3.2787,1.94951 -2.1799,2.74703 c -1.1984,1.51295 -2.3653,2.74703 -2.6053,2.74703 -0.24,0 -0.443,0.24139 -0.443,0.53168 0,0.29029 -0.5743,1.43421 -1.2761,2.53436 l -1.276,1.98495 -1.1343,0.0532 -1.5064,-3.40277 0.7975,-8.59554 1.5951,-0.6203 1.6659,-3.20782 v -3.1901 l 2.2685,-1.4001 v -2.87109 l 1.7014,-0.65574 v -1.20515 c 0,-0.66844 0.1961,-1.51304 0.4253,-1.86089 0.2292,-0.34786 0.9358,-0.78987 1.5596,-0.99247 l 1.1343,-0.37218 3.4028,-5.12188 4.8738,-3.82812 -1.1875,-0.74436 v -2.14445 l 4.5548,-1.2406 1.2228,0.76208 2.2154,-1.06337 c 1.2153,-0.58205 2.2118,-1.2416 2.2153,-1.45326 0,-0.21167 -0.4329,-0.80503 -0.957,-1.32921 z m 145.3976,76.68643 v 2.12674 l 1.276,0.88613 c 0.7019,0.48957 1.4675,0.90523 1.7014,0.92159 0.234,0.0164 0.4254,-0.30648 0.4254,-0.72664 0,-0.42015 -0.481,-1.31337 -1.0634,-1.98495 -0.5825,-0.67157 -1.3481,-1.22287 -1.7014,-1.22287 z m 4.3775,4.37753 2.1977,2.05584 2.2153,2.03812 1.7546,0.0177 1.7545,0.0177 0.638,-1.4001 0.638,-1.40009 -0.4253,-0.24812 c -0.2284,-0.14114 -2.2908,-0.44689 -4.5902,-0.67347 z m -7.3549,3.17237 -0.9925,0.0177 v 2.55208 l -1.7014,0.37217 c -0.9329,0.2049 -2.5279,0.32159 -3.5446,0.26585 -1.0166,-0.0557 -2.0812,-0.067 -2.3748,-0.0355 l -0.5317,0.0532 2.0559,1.50643 -0.8153,2.56981 -2.0913,2.09128 -2.0735,2.07357 -1.471,4.5193 1.7722,4.2003 3.1016,2.88881 h 5.2813 l 0.6203,1.59505 -0.957,0.81525 c -0.5248,0.45153 -1.8272,1.24103 -2.8888,1.75455 l -1.9318,0.93931 h -4.4307 l -1.2406,0.63802 c -2.1787,1.31991 -3.9068,3.23846 -5.7244,4.99782 l -1.4356,1.38238 -0.638,2.9597 1.1874,3.84584 1.1874,3.86357 0.1064,5.7599 0.1063,5.7599 -1.1819,3.86512 2.073,-0.58015 1.4129,1.97869 -0.053,-0.85069 1.4634,1.70086 0.8177,-0.27757 -0.9349,-2.95918 21.0022,-3.46193 3.9168,21.39138 20.3335,-2.98342 3.734,21.42761 -10.3564,1.82415 3.4622,20.84849 9.8893,-1.66594 0.3013,-0.47851 8.7728,-1.55961 2.747,15.5606 c 2.9116,-0.48377 5.8256,-0.95297 8.7373,-1.43555 l 0.1418,-5.01554 1.7723,-0.67347 -2.9951,-3.93445 -0.3545,-12.53 h 1.0811 l -0.6557,-1.04564 1.3114,-2.87109 6.9296,-2.07357 0.1241,-2.49891 1.4355,-1.71911 h 1.985 l 0.638,-3.93445 -0.638,-6.11436 1.3647,-4.1294 2.0912,-1.13426 1.79,0.69119 v -1.70139 l 3.1547,-3.36733 -0.4608,-5.61812 c -0.2496,-3.0838 -0.6926,-6.67695 -0.9925,-7.99297 l -0.5494,-2.39257 0.7089,-6.82327 -0.6025,-0.70891 c -0.3278,-0.39658 -0.7737,-1.74747 -0.9925,-2.99515 -0.2189,-1.24768 -0.7546,-2.83598 -1.1875,-3.52683 -0.4329,-0.69085 -0.7798,-1.64788 -0.7798,-2.12673 v -0.86842 h -2.747 l -0.8507,-0.85069 c -0.4678,-0.46788 -1.1301,-0.8507 -1.4532,-0.85069 h -0.5849 l -0.5848,-1.11654 c -0.3277,-0.61218 -0.7027,-1.82441 -0.8153,-2.69386 -0.1127,-0.86944 -0.2613,-1.83254 -0.3367,-2.14445 -0.076,-0.31192 -0.1079,-0.947 -0.071,-1.41783 l 0.071,-0.86841 2.3571,-1.47099 2.7116,1.77228 h 2.1799 l -2.8711,-6.13208 -2.6762,-1.22287 v -1.71911 h -0.443 c -0.2447,0 -0.8809,-0.73907 -1.4178,-1.64822 l -0.9748,-1.64822 1.4178,-0.5494 -5.0864,-4.55476 -1.1697,0.12406 c -0.6422,0.0685 -1.44,0.29087 -1.7723,0.49624 l -0.6025,0.37218 -1.7014,-0.47852 c -0.9368,-0.26864 -2.3208,-0.83404 -3.0661,-1.24059 l -1.3469,-0.72663 -6.6283,-0.81525 -3.1369,-2.99515 -5.5473,0.24812 -1.8786,1.15198 -2.942,-1.93178 v -2.0204 l -4.2535,-4.00535 -2.2685,-0.44307 c -1.2477,-0.23778 -2.7789,-0.39116 -3.4027,-0.35445 l -4.2535,0.0886 v 1.08109 h -0.7089 c -0.391,0 -2.5526,-0.89322 -4.8029,-1.98495 -2.2504,-1.09172 -4.3528,-1.98494 -4.6788,-1.98495 -0.3261,0 -1.1632,-0.319 -1.8609,-0.70891 -0.6976,-0.3899 -1.4036,-0.85888 -1.5596,-1.04564 -0.156,-0.18676 -0.7302,-0.34155 -1.276,-0.33674 z m -34.9139,6.71693 c -0.6734,3.75849 -1.1624,7.55991 -0.8861,11.37802 l 0.2835,0.44307 h 3.4382 l 2.1268,-2.55208 0.035,-3.04831 -1.1342,-0.70891 -0.035,-3.61545 -1.3824,-1.73683 z"
     style="fill:#D64541;fill-opacity:1"
     id="MI_1"
     inkscape:connector-curvature="0" />
</svg>
