<?xml version="1.0" encoding="UTF-8" standalone="no"?>
<svg
   xmlns:dc="http://purl.org/dc/elements/1.1/"
   xmlns:cc="http://creativecommons.org/ns#"
   xmlns:rdf="http://www.w3.org/1999/02/22-rdf-syntax-ns#"
   xmlns:svg="http://www.w3.org/2000/svg"
   xmlns="http://www.w3.org/2000/svg"
   xmlns:sodipodi="http://sodipodi.sourceforge.net/DTD/sodipodi-0.dtd"
   xmlns:inkscape="http://www.inkscape.org/namespaces/inkscape"
   version="1.0"
   width="53.8773"
   height="92.54644"
   id="svg2"
   sodipodi:docname="MI_10.svg"
   inkscape:version="0.92.2 5c3e80d, 2017-08-06">
  <metadata
     id="metadata16">
    <rdf:RDF>
      <cc:Work
         rdf:about="">
        <dc:format>image/svg+xml</dc:format>
        <dc:type
           rdf:resource="http://purl.org/dc/dcmitype/StillImage" />
      </cc:Work>
    </rdf:RDF>
  </metadata>
  <defs
     id="defs14" />
  <sodipodi:namedview
     pagecolor="#ffffff"
     bordercolor="#666666"
     borderopacity="1"
     objecttolerance="10"
     gridtolerance="10"
     guidetolerance="10"
     inkscape:pageopacity="0"
     inkscape:pageshadow="2"
     inkscape:window-width="640"
     inkscape:window-height="480"
     id="namedview12"
     showgrid="false"
     inkscape:zoom="0.12542268"
     inkscape:cx="-602.49655"
     inkscape:cy="-328.25419"
     inkscape:window-x="0"
     inkscape:window-y="0"
     inkscape:window-maximized="0"
     inkscape:current-layer="svg2" />
  <path
     d="m 19.8141,0 -1.3292,0.6203 c -0.7335,0.33984 -1.3445,0.81169 -1.347,1.04565 0,0.23394 -0.3271,0.42533 -0.7266,0.42534 h -0.7266 l -1.2761,3.40277 h -2.233 L 10.8641,7.07139 5.7954,8.34743 v 2.09129 l -2.2685,2.88881 0.5671,1.52416 -2.8357,3.29643 v 2.65842 H 0.2482 C 0.1276,22.36396 0.0594,23.92458 0,25.48535 l 0.182,2.9522 15.5027,-2.96992 4.3598,21.63848 L 9.1804,49.3402 9.8131,54.51713 5.246,55.54317 9.2868,76.75733 24.561,73.32627 c 1.0513,3.55737 2.6584,11.70033 4.1901,19.22017 l 5.4539,-1.48683 -1.2406,-4.35981 6.008,-1.79 1.4178,1.89634 v -1.34693 h 0.514 c 0.279,0 1.3219,-0.76745 2.3217,-1.70139 l 1.8077,-1.70138 1.5064,0.37218 c 0.8268,0.19724 1.6979,0.4536 1.9318,0.58485 0.2339,0.13124 0.4253,0.76545 0.4253,1.4001 v 1.15198 l -1.9849,0.51396 -1.3115,2.78247 h 1.471 l 0.5849,1.52416 3.5091,-0.51396 v -0.56713 c 0,-0.30634 0.4703,-1.22789 1.0456,-2.05584 l 1.0456,-1.50643 c 0.1018,-3.11871 0.2288,-6.23713 0.2482,-9.35763 L 52.1581,66.6199 53.8773,62.98674 53.1506,61.2499 C 52.7472,60.29057 51.4905,58.16721 50.3682,56.53565 49.2458,54.90407 48.33,53.3383 48.33,53.04426 c 0,-0.29403 -0.4919,-1.62731 -1.0988,-2.9597 -0.607,-1.33241 -1.7686,-5.07431 -2.5698,-8.31198 L 43.2082,35.88862 38.8306,26.76139 38.1395,23.64218 C 37.7582,21.92662 36.9053,18.86411 36.2431,16.83664 L 35.0379,13.1503 28.1261,3.56228 24.7942,1.61278 21.8876,1.52418 Z"
     style="fill:#D64541;fill-opacity:1"
     id="MI_10"
     inkscape:connector-curvature="0" />
</svg>
