<?xml version="1.0" encoding="UTF-8" standalone="no"?>
<svg
   xmlns:dc="http://purl.org/dc/elements/1.1/"
   xmlns:cc="http://creativecommons.org/ns#"
   xmlns:rdf="http://www.w3.org/1999/02/22-rdf-syntax-ns#"
   xmlns:svg="http://www.w3.org/2000/svg"
   xmlns="http://www.w3.org/2000/svg"
   xmlns:sodipodi="http://sodipodi.sourceforge.net/DTD/sodipodi-0.dtd"
   xmlns:inkscape="http://www.inkscape.org/namespaces/inkscape"
   version="1.0"
   width="50.3326"
   height="135.89822"
   id="svg2"
   sodipodi:docname="MI_2.svg"
   inkscape:version="0.92.2 5c3e80d, 2017-08-06">
  <metadata
     id="metadata64">
    <rdf:RDF>
      <cc:Work
         rdf:about="">
        <dc:format>image/svg+xml</dc:format>
        <dc:type
           rdf:resource="http://purl.org/dc/dcmitype/StillImage" />
      </cc:Work>
    </rdf:RDF>
  </metadata>
  <defs
     id="defs62" />
  <sodipodi:namedview
     pagecolor="#ffffff"
     bordercolor="#666666"
     borderopacity="1"
     objecttolerance="10"
     gridtolerance="10"
     guidetolerance="10"
     inkscape:pageopacity="0"
     inkscape:pageshadow="2"
     inkscape:window-width="640"
     inkscape:window-height="480"
     id="namedview60"
     showgrid="false"
     inkscape:zoom="0.12542268"
     inkscape:cx="-464.24125"
     inkscape:cy="-306.98498"
     inkscape:window-x="0"
     inkscape:window-y="0"
     inkscape:window-maximized="0"
     inkscape:current-layer="svg2" />
  <path
     d="M 23.7662,0 C 18.6181,0.47948 15.2713,1.01194 13.0439,1.57733 V 3.61545 L 12.335,4.18258 C 11.9451,4.48968 10.9622,4.89426 10.1552,5.08644 9.348,5.27863 8.0294,5.96851 7.2132,6.61059 l -1.4887,1.15199 0.319,0.97475 c 0.1792,0.53438 0.798,1.99557 1.3646,3.24326 L 8.436,14.24911 V 28.81723 L 3.4736,44.07653 1.7368,46.06149 C 0.7813,47.1497 0,48.23216 0,48.47178 c 0,0.23962 0.7941,1.52325 1.7723,2.85337 l 1.79,2.4103 2.6761,9.25128 -0.7266,4.00535 -2.6762,4.64336 v 3.93446 l 2.2508,3.73951 c 1.2414,2.05824 2.795,5.08498 3.4383,6.71693 0.6433,1.63194 1.8415,4.14585 2.6761,5.58267 0.8344,1.43682 3.1554,5.14391 5.1573,8.24109 l 3.6509,5.63584 3.2078,8.80822 1.471,8.11703 1.471,8.0993 -0.6557,3.52683 0.3544,0.93931 c 0.1956,0.50975 0.6014,0.92157 0.9039,0.92159 l 17.9886,-2.88882 0.8507,-4.92693 2.2508,-0.74435 -0.7798,-4.21802 -3.1547,0.49623 -2.7293,-17.81138 5.7776,0.0354 -0.6026,-9.35762 c -0.994,-0.2611 -0.9228,-1.48607 -0.9924,-2.58752 l 4.094,-2.1799 -8.6311,-56.58882 9.4994,-1.54188 -2.6938,-20.77108 -21.3914,3.49138 z"
     style="fill:#D64541;fill-opacity:1"
     id="MI_2"
     inkscape:connector-curvature="0" />
</svg>
