<?xml version="1.0" encoding="UTF-8" standalone="no"?>
<svg
   xmlns:dc="http://purl.org/dc/elements/1.1/"
   xmlns:cc="http://creativecommons.org/ns#"
   xmlns:rdf="http://www.w3.org/1999/02/22-rdf-syntax-ns#"
   xmlns:svg="http://www.w3.org/2000/svg"
   xmlns="http://www.w3.org/2000/svg"
   xmlns:sodipodi="http://sodipodi.sourceforge.net/DTD/sodipodi-0.dtd"
   xmlns:inkscape="http://www.inkscape.org/namespaces/inkscape"
   version="1.0"
   width="121.4896"
   height="130.8295"
   id="svg2"
   sodipodi:docname="MI_4.svg"
   inkscape:version="0.92.2 5c3e80d, 2017-08-06">
  <metadata
     id="metadata80">
    <rdf:RDF>
      <cc:Work
         rdf:about="">
        <dc:format>image/svg+xml</dc:format>
        <dc:type
           rdf:resource="http://purl.org/dc/dcmitype/StillImage" />
      </cc:Work>
    </rdf:RDF>
  </metadata>
  <defs
     id="defs78" />
  <sodipodi:namedview
     pagecolor="#ffffff"
     bordercolor="#666666"
     borderopacity="1"
     objecttolerance="10"
     gridtolerance="10"
     guidetolerance="10"
     inkscape:pageopacity="0"
     inkscape:pageshadow="2"
     inkscape:window-width="640"
     inkscape:window-height="480"
     id="namedview76"
     showgrid="false"
     inkscape:zoom="0.12542268"
     inkscape:cx="-470.95815"
     inkscape:cy="-340.90637"
     inkscape:window-x="0"
     inkscape:window-y="0"
     inkscape:window-maximized="0"
     inkscape:current-layer="svg2" />
  <path
     d="m 25.5563,0 -1.7901,2.55208 h -1.6127 l -0.833,1.96723 c -0.452,1.0817 -0.8152,2.46598 -0.8152,3.08376 v 1.13425 l -2.8179,3.0306 -0.3014,2.05584 c -0.1747,1.13172 -0.6399,2.69385 -1.0279,3.47366 l -0.7089,1.41783 -3.0837,0.35445 v -1.20515 h -2.1799 l -0.7267,3.33188 -1.6127,1.32921 -1.9141,-0.72663 -0.8152,1.32921 0.4962,1.75455 c 0.2781,0.96991 0.5139,2.48271 0.5139,3.36733 v 1.61277 c 3.6784,-0.74388 7.4293,-1.38603 11.1831,-1.54188 l 2.428,15.86188 21.5509,-3.17238 2.8357,22.1003 -9.7653,1.45327 8.3297,53.16831 10.6337,-1.79 1.9141,10.52733 42.2333,-6.20297 1.8786,10.56277 14.2137,-2.44574 1.1874,1.63049 3.9345,-0.19495 -3.7572,-19.42416 6.3624,-0.79752 -2.7115,-7.51446 -4.5371,-1.47099 -1.2938,-2.85336 0.6735,-2.67614 -0.7975,-2.49891 -6.1144,0.72663 V 90.4393 l -5.3877,0.83297 -2.6407,-15.68465 -8.0461,1.34693 -0.638,0.69119 -10.3856,1.79 -3.5268,-21.72812 10.4033,-1.73683 -3.6864,-20.59386 -20.5229,3.1901 -3.6509,-21.60406 -20.0977,3.1901 0.6912,2.76475 -1.2583,0.7798 -0.9925,-1.5596 -0.035,1.13426 -2.0204,-2.60525 -1.8964,0.72663 -0.3721,1.20515 c -0.209,0.65846 -0.7402,1.53764 -1.1697,1.96723 l -0.7798,0.7798 0.6557,1.06337 -0.7089,2.25079 h -2.9066 l 0.5672,-5.15733 1.8077,-1.98495 -0.2481,-8.08158 -0.7266,0.60257 c -0.3984,0.33066 -0.6234,0.70583 -0.4963,0.83297 0.1272,0.12713 0.028,1.17548 -0.2304,2.32168 l -0.4785,2.07357 1.2406,0.7798 -1.8609,4.66109 v 3.47366 l -2.428,-0.37218 -1.5596,-5.10415 0.7266,-4.53703 0.957,-0.6203 -0.638,-2.23307 c -0.3594,-1.23387 -0.5834,-2.76122 -0.4962,-3.38505 0.087,-0.62384 0.4194,-1.30422 0.7443,-1.50643 l 0.5849,-0.35446 -2.428,-3.93446 V 3.86356 L 25.6098,2.5698 Z M 6.1321,5.90168 3.2078,6.23841 3.3851,10.08426 6.6106,12.72495 7.7449,12.37049 7.355,7.37267 Z M 1.2938,13.25663 0,15.68465 c 0.1658,0.67634 0.5138,1.15254 0.9571,1.61277 l 2.3748,-1.09881 -0.1241,-2.5698 z"
     style="fill:#D64541;fill-opacity:1"
     id="MI_4"
     inkscape:connector-curvature="0" />
</svg>
