<?xml version="1.0" encoding="UTF-8" standalone="no"?>
<svg
   xmlns:dc="http://purl.org/dc/elements/1.1/"
   xmlns:cc="http://creativecommons.org/ns#"
   xmlns:rdf="http://www.w3.org/1999/02/22-rdf-syntax-ns#"
   xmlns:svg="http://www.w3.org/2000/svg"
   xmlns="http://www.w3.org/2000/svg"
   xmlns:sodipodi="http://sodipodi.sourceforge.net/DTD/sodipodi-0.dtd"
   xmlns:inkscape="http://www.inkscape.org/namespaces/inkscape"
   version="1.0"
   width="70.959045"
   height="69.827721"
   id="svg2"
   sodipodi:docname="MI_6.svg"
   inkscape:version="0.92.2 5c3e80d, 2017-08-06">
  <metadata
     id="metadata96">
    <rdf:RDF>
      <cc:Work
         rdf:about="">
        <dc:format>image/svg+xml</dc:format>
        <dc:type
           rdf:resource="http://purl.org/dc/dcmitype/StillImage" />
      </cc:Work>
    </rdf:RDF>
  </metadata>
  <defs
     id="defs94" />
  <sodipodi:namedview
     pagecolor="#ffffff"
     bordercolor="#666666"
     borderopacity="1"
     objecttolerance="10"
     gridtolerance="10"
     guidetolerance="10"
     inkscape:pageopacity="0"
     inkscape:pageshadow="2"
     inkscape:window-width="640"
     inkscape:window-height="480"
     id="namedview92"
     showgrid="false"
     inkscape:zoom="0.12542268"
     inkscape:cx="-471.58141"
     inkscape:cy="-251.40637"
     inkscape:window-x="0"
     inkscape:window-y="0"
     inkscape:window-maximized="0"
     inkscape:current-layer="svg2" />
  <path
     d="m 46.997848,0 -6.7524,1.31148 0.7267,4.89149 -2.3217,0.72663 -0.7444,4.9801 -19.1583,2.90653 -0.018,8.7905 -0.8507,4.82059 c -0.466,2.65133 -1.2666,6.09663 -1.7723,7.65624 -0.5057,1.5596 -1.8862,4.74969 -3.066,7.08911 l -2.1445,4.25346 -1.4177998,5.67129 c -0.7793,3.11921 -1.6718,6.33141 -1.9849,7.14228 -0.3133,0.81089 -1.9158,3.10777 -3.5623,5.10416 -1.6466,1.9964 -3.2516,3.82934 -3.58,4.05851 -0.3285,0.22917 -0.449,0.42057 -0.2659,0.42535 C 22.800648,66.49278 45.522748,63.18651 68.211748,59.67257 l -3.6687,-23.78396 6.4157,-1.77228 -2.304,-4.48386 -5.3877,-0.35445 -1.6836,-9.33789 -10.8818,1.4867 C 49.435148,14.29516 48.633748,7.05418 46.997548,0 Z"
     style="fill:#D64541;fill-opacity:1"
     id="MI_6"
     inkscape:connector-curvature="0" />
</svg>
