<?xml version="1.0" encoding="UTF-8" standalone="no"?>
<svg
   xmlns:dc="http://purl.org/dc/elements/1.1/"
   xmlns:cc="http://creativecommons.org/ns#"
   xmlns:rdf="http://www.w3.org/1999/02/22-rdf-syntax-ns#"
   xmlns:svg="http://www.w3.org/2000/svg"
   xmlns="http://www.w3.org/2000/svg"
   xmlns:sodipodi="http://sodipodi.sourceforge.net/DTD/sodipodi-0.dtd"
   xmlns:inkscape="http://www.inkscape.org/namespaces/inkscape"
   version="1.0"
   width="78.235298"
   height="48.068878"
   id="svg2"
   sodipodi:docname="MN_2.svg"
   inkscape:version="0.92.2 5c3e80d, 2017-08-06">
  <metadata
     id="metadata16">
    <rdf:RDF>
      <cc:Work
         rdf:about="">
        <dc:format>image/svg+xml</dc:format>
        <dc:type
           rdf:resource="http://purl.org/dc/dcmitype/StillImage" />
      </cc:Work>
    </rdf:RDF>
  </metadata>
  <defs
     id="defs14" />
  <sodipodi:namedview
     pagecolor="#ffffff"
     bordercolor="#666666"
     borderopacity="1"
     objecttolerance="10"
     gridtolerance="10"
     guidetolerance="10"
     inkscape:pageopacity="0"
     inkscape:pageshadow="2"
     inkscape:window-width="640"
     inkscape:window-height="480"
     id="namedview12"
     showgrid="false"
     inkscape:zoom="0.12542268"
     inkscape:cx="-128.59735"
     inkscape:cy="-369.78839"
     inkscape:window-x="0"
     inkscape:window-y="0"
     inkscape:window-maximized="0"
     inkscape:current-layer="svg2" />
  <path
     d="M 13.5148,48.06888 V 45.17763 L 2.7393,45.82051 V 44.15453 L 6.0488,39.71601 4.2027,36.59093 5.575,35.21869 5.611,31.7592 7.2331,29.61668 6.5495,24.62965 9.0853,21.93042 11.887,21.22723 11.5298,18.71524 6.7092,18.36646 V 16.16317 H 1.2024 C 0.8224,10.96941 0.0788,5.78603 0,0.57646 L 10.1122,0 l 0.7027,5.40107 10.5665,-0.74275 0.3567,4.98287 9.9588,0.48061 4.2673,-4.16695 h 0.9967 c 0.5482,0 1.7399,-0.38431 2.6482,-0.85402 l 1.6515,-0.85402 1.1478,2.14469 3.6441,0.83916 1.0371,-3.26529 -1.2614,-0.94924 c 4.8101,0.21446 5.2448,1.14817 8.4966,1.36263 l -0.1797,1.64097 c -0.099,0.90254 -0.3488,1.81011 -0.5555,2.01683 -0.2067,0.20672 -0.3758,1.11196 -0.3758,2.01165 v 1.6358 l 3.6863,1.55061 3.3314,3.49567 h 1.4892 v 2.24691 l 2.8656,0.71921 1.8428,2.08891 8.927,0.0491 0.6646,1.55961 c 0.3656,0.85778 1.0134,1.97938 1.4396,2.49245 l 0.775,0.93285 -7.0055,0.81309 0.5327,5.54458 H 66.3397 L 67.28,43.92205 Z"
     style="fill:#D64541;fill-opacity:1"
     id="MN_2"
     inkscape:connector-curvature="0" />
</svg>
