<?xml version="1.0" encoding="UTF-8" standalone="no"?>
<svg
   xmlns:dc="http://purl.org/dc/elements/1.1/"
   xmlns:cc="http://creativecommons.org/ns#"
   xmlns:rdf="http://www.w3.org/1999/02/22-rdf-syntax-ns#"
   xmlns:svg="http://www.w3.org/2000/svg"
   xmlns="http://www.w3.org/2000/svg"
   xmlns:sodipodi="http://sodipodi.sourceforge.net/DTD/sodipodi-0.dtd"
   xmlns:inkscape="http://www.inkscape.org/namespaces/inkscape"
   version="1.0"
   width="55.586914"
   height="50.388641"
   id="svg2"
   sodipodi:docname="MO_2.svg"
   inkscape:version="0.92.2 5c3e80d, 2017-08-06">
  <metadata
     id="metadata16">
    <rdf:RDF>
      <cc:Work
         rdf:about="">
        <dc:format>image/svg+xml</dc:format>
        <dc:type
           rdf:resource="http://purl.org/dc/dcmitype/StillImage" />
      </cc:Work>
    </rdf:RDF>
  </metadata>
  <defs
     id="defs14" />
  <sodipodi:namedview
     pagecolor="#ffffff"
     bordercolor="#666666"
     borderopacity="1"
     objecttolerance="10"
     gridtolerance="10"
     guidetolerance="10"
     inkscape:pageopacity="0"
     inkscape:pageshadow="2"
     inkscape:window-width="640"
     inkscape:window-height="480"
     id="namedview12"
     showgrid="false"
     inkscape:zoom="0.12542268"
     inkscape:cx="-282.74694"
     inkscape:cy="-20.976909"
     inkscape:window-x="0"
     inkscape:window-y="0"
     inkscape:window-maximized="0"
     inkscape:current-layer="svg2" />
  <path
     d="m 47.622316,50.38864 0.7025,-5.34921 -4.238,0.79506 -0.2691,-1.33701 1.0617,-1.82082 -9.3266,0.85358 -1.5673,2.29245 -1.5132,-0.89289 -0.7462,0.27631 0.7158,2.25519 -1.3467,-0.0894 -0.1205,-1.18399 -1.8465,-0.0793 -1.0422,-9.70164 3.0071,-3.20598 h 4.4323 l 1.9492,-2.22825 -0.5162,-1.05378 -5.4697,-0.45716 -3.0623,1.13079 -2.3071,-2.08782 0.6718,-2.67645 c -1.2008,-0.0243 -2.4218,-0.0739 -3.5257,0.32082 l 1.1489,2.46769 -7.6709,-0.23643 -0.8334,-1.13426 -0.017,-4.97724 -7.295,0.74742 -0.1193,-3.38479 -3.8527,-0.10787 -0.7328,-3.33653 H 0.72231597 c -0.5992,-3.28952 -0.775,-5.30878 -0.7089,-8.41682 L 3.549016,6.99374 3.031316,1.60551 24.322416,3e-5 l 0.3744,1.99691 c 0.2059,1.09831 0.7746,2.67481 1.2638,3.50333 l 0.8895,1.50641 -1.4354,3.46549 1.1328,1.865 c 0.6231,1.02577 1.3059,2.68371 1.5174,3.68441 l 0.3846,1.81941 3.9297,3.4503 h 3.209 l 2.9899,-4.31444 v -1.92398 l 3.6864,0.0402 6.2384,1.62913 c 2.3522,1.35153 4.9852,2.33748 7.0843,4.07284 l -3.5149,1.05837 c -1.188,-0.6539 -2.3449,-1.3408 -3.2858,-2.29477 l -2.9207,-1.68454 -1.0492,0.64845 -0.6885,3.90298 h -3.9033 l -1.605,3.68634 2.949,2.63097 -2.4965,3.37668 0.3689,1.93215 4.7686,1.65279 2.8125,-2.6422 2.8984,0.72746 v 1.05219 l 3.4658,0.57717 -0.8245,1.13862 c -0.4202,0.49323 -1.1864,1.98654 -1.7026,3.3185 l -0.9387,2.42181 v 1.66322 1.66321 l -0.6581,1.44448 -0.6582,1.44453 z"
     style="fill:#D64541;fill-opacity:1"
     id="MO_2"
     inkscape:connector-curvature="0" />
</svg>
