<?xml version="1.0" encoding="UTF-8" standalone="no"?>
<svg
   xmlns:dc="http://purl.org/dc/elements/1.1/"
   xmlns:cc="http://creativecommons.org/ns#"
   xmlns:rdf="http://www.w3.org/1999/02/22-rdf-syntax-ns#"
   xmlns:svg="http://www.w3.org/2000/svg"
   xmlns="http://www.w3.org/2000/svg"
   xmlns:sodipodi="http://sodipodi.sourceforge.net/DTD/sodipodi-0.dtd"
   xmlns:inkscape="http://www.inkscape.org/namespaces/inkscape"
   version="1.0"
   width="102.6625"
   height="206.17026"
   id="svg2"
   sodipodi:docname="MS_2.svg"
   inkscape:version="0.92.2 5c3e80d, 2017-08-06">
  <metadata
     id="metadata16">
    <rdf:RDF>
      <cc:Work
         rdf:about="">
        <dc:format>image/svg+xml</dc:format>
        <dc:type
           rdf:resource="http://purl.org/dc/dcmitype/StillImage" />
      </cc:Work>
    </rdf:RDF>
  </metadata>
  <defs
     id="defs14" />
  <sodipodi:namedview
     pagecolor="#ffffff"
     bordercolor="#666666"
     borderopacity="1"
     objecttolerance="10"
     gridtolerance="10"
     guidetolerance="10"
     inkscape:pageopacity="0"
     inkscape:pageshadow="2"
     inkscape:window-width="640"
     inkscape:window-height="480"
     id="namedview12"
     showgrid="false"
     inkscape:zoom="0.12542268"
     inkscape:cx="-315.36995"
     inkscape:cy="403.36407"
     inkscape:window-x="0"
     inkscape:window-y="0"
     inkscape:window-maximized="0"
     inkscape:current-layer="svg2" />
  <path
     d="m 16.4619,206.17025 -1.0035,-1.5511 -3.0965,0.6193 -2.4372,-0.6373 v -1.5691 H 8.3463 l -0.7314,-2.9143 -0.8922,-1.6173 -2.5681,-1.7652 0.9903,-4.1873 1.9402,-0.3737 -0.6147,1.6021 1.7385,1.4428 1.8541,-0.7115 -0.6444,-3.2219 3.8568,-3.7381 -1.1872,-2.2183 0.6446,-0.6481 c 0.3546,-0.3564 1.4458,-0.9202 2.425,-1.2529 l 1.7802,-0.605 1.1071,-1.7551 -0.7121,-1.8556 -1.2938,-0.01 c -0.7116,0 -1.6767,-0.2636 -2.1446,-0.5751 l -0.8506,-0.5665 4.8716,0.7363 -0.3306,-1.0038 1.5576,-2.0385 1.5576,-2.0385 v -2.2629 l -2.9207,-1.3307 -1.0954,0.6769 0.6451,2.0325 -1.2919,0.3461 c -0.7106,0.1904 -1.8662,0.3496 -2.568,0.3539 l -1.276,0.01 v -3.4384 l 0.9924,-0.3071 c 0.5459,-0.169 1.4357,-0.5437 1.9773,-0.8329 0.5416,-0.2891 1.3498,-0.5257 1.7959,-0.5257 H 17.77 l 0.5199,-1.4178 0.7514,0.7089 c 0.4134,0.3899 1.0273,0.7089 1.3644,0.7089 h 0.6129 l 1.2493,-3.3096 -1.2274,-1.2275 H 23.36 l 1.9766,-2.1841 -0.3931,-2.0693 -4.9919,-0.5672 -0.278,-1.9353 1.5937,-1.3227 v -2.1653 l -1.7737,-0.6806 -2.8183,1.2841 -3.3478,-1.7313 v -1.3087 c 0,-0.7198 0.1615,-1.4702 0.3589,-1.6676 l 0.3588,-0.3589 2.2003,2.7972 h 3.3204 v -2.3264 l -4.5932,-2.3365 3.459,-3.1896 v -1.6498 l -1.687,-1.4 -1.7158,0.6584 v 1.7079 l -3.5024,1.8111 -1.4866,-2.0331 1.043,-1.3259 c 0.5737,-0.7293 1.6962,-1.8398 2.4945,-2.4678 l 1.4515,-1.1417 v -1.6471 l -1.4547,-0.5531 c -0.8001,-0.3042 -2.1468,-0.5531 -2.9926,-0.5531 H 9.0438 l 0.06,-4.5076 4.6179,-4.2384 -2.4715,-6.2829 H 8.5068 v 5.0877 l -2.1054,0.4064 -1.1418,-1.1418 1.322,-2.4597 c 0.7272,-1.3529 1.6697,-2.8853 2.0946,-3.4054 l 0.7725,-0.9458 -0.3747,-2.5599 -3.3246,-1.836 -0.5075,-1.5224 4.0041,0.7511 1.8628,-1.8627 -0.713,-4.7547 1.7974,-1.4917 v -3.2639 H 9.434 l -0.7529,2.372 -0.796,-1.5344 c -0.4379,-0.8439 -0.7961,-2.0427 -0.7961,-2.664 v -1.1296 l 3.4028,-4.2963 v -3.0349 l -2.5521,0.3624 -0.344,2.4112 -2.5092,2.3572 -1.5654,-0.9675 3.5679,-1.8451 v -2.965 l -0.9925,-0.7534 c -0.5458,-0.4143 -1.2953,-0.7615 -1.6654,-0.7714 l -0.673,-0.018 -0.3554,3.677 -2.2686,0.4247 1.985,-2.2061 v -2.99 l -1.1343,-0.607 C 1.361,87.00495 0.8506,86.52645 0.8506,86.27535 v -0.4564 l 2.2969,-0.758 c 1.2633,-0.417 2.4358,-0.9827 2.6055,-1.2573 l 0.3085,-0.4992 -0.6583,-2.6232 -5.4033,-2.2209 2.5842,-1.387 2.9565,2.3257 h 3.033 l 2.0572,-1.5043 -0.7642,-2.4076 -2.1677,-0.688 -2.1375,1.144 -1.308,-1.308 v -2.3877 l 2.9774,0.1145 c 1.6376,0.063 3.424,0 3.9699,-0.1487 l 0.9925,-0.2634 v -1.9873 l -3.6009,-1.6225 -1.1842,-1.9379 2.5895,-3.5027 -0.3565,-1.8317 -3.8072,-1.2811 2.9947,-1.3645 0.6503,1.6945 h 2.7143 v -2.2016 l -0.5672,-0.3505 c -0.3119,-0.1928 -0.5665,-0.5269 -0.5658,-0.7424 v -0.3918 l 3.4677,-0.1242 0.5043,-0.5051 c 0.2774,-0.2778 0.6777,-1.5896 0.8894,-2.9153 l 0.3851,-2.4103 h -3.3209 l -1.3456,-1.3456 1.7702,-1.956 3.2968,1.8838 2.0066,-1.2487 0.3589,-3.0048 H 13.553 l -0.6806,-0.6805 c -0.3743,-0.3743 -0.6805,-1.0124 -0.6805,-1.4179 v -0.7372 l 2.2685,2.2685 h 2.1471 l 0.3443,-0.8971 c 0.1893,-0.4934 0.3442,-1.5142 0.3442,-2.2685 v -1.3714 h 2.8095 l 1.858,-2.8357 -1.858,-2.8356 h 2.7829 l 0.3625,2.5521 h 2.8356 l -0.2907,-3.97 3.4165,-2.2685 0.6546,-2.0404 -0.8977,-1.3702 c -0.4938,-0.7535 -0.8977,-1.7223 -0.8977,-2.1528 v -0.78274 l 1.1342,-1.0265 c 0.6239,-0.56457 1.1343,-1.35016 1.1343,-1.74579 0,-0.39557 -0.6025,-1.44068 -1.3388,-2.32239 l -1.3387,-1.60311 -0.5362,-3.7363 0.9205,0.0321 0.025,2.85356 h 2.7533 l 2.4012,-3.05274 -0.3339,-2.33498 h -4.5371 l 0.057,-0.70891 c 0.031,-0.3899 0.095,-1.64467 0.1418,-2.7884 l 0.085,-2.07944 0.7962,0.79625 -0.2646,3.92981 h 3.2994 L 33.8409,8.55766 33.4206,7.87767 C 33.1894,7.50365 32.8995,6.28024 32.7762,5.15897 L 32.5521,3.12026 30.9666,0.69816 31.3152,0.34961 c 0.1917,-0.19169 0.5612,-0.34856 0.8212,-0.34856 h 0.4726 v 2.12962 l 1.7758,1.47375 3.2274,-1.90652 2.653,0.2881 -0.2835,-1.41782 h 4.4469 l 0.307,1.5596 c 0.1689,0.85778 0.3649,2.45283 0.4355,3.54456 l 0.1283,1.98495 -1.3102,2.40717 0.9846,3.43289 -1.2693,1.26924 2.8575,4.48196 1.9967,15.65045 3.1848,1.8278 0.8161,6.5321 9.9608,-1.3555 c 1.6748,6.7996 2.1128,13.5991 2.4149,20.3987 l -3.577,1.7845 -5.2135,0.017 -1.5026,0.9528 0.8104,8.2249 32.0881,-3.195 1.7566,13.1938 5.8409,-0.605 -0.7791,1.2607 h -2.3596 l 0.8645,9.7965 7.2068,-0.5897 2.5908,21.3068 -7.2201,0.8036 0.7923,7.5311 1.6972,1.9037 -0.4005,1.3166 c -0.2202,0.7243 -0.9821,2.094 -1.6929,3.0439 l -1.2924,1.7273 1.6418,2.2019 c 0.903,1.2111 1.6418,2.5393 1.6418,2.9516 v 0.7497 h -0.4856 c -0.267,0 -1.6554,-0.8933 -3.0852,-1.985 l -2.5996,-1.9849 H 88.083 l -3.007,2.3652 -1.1626,-2.8441 -5.0468,3.7814 -1.5819,-2.2584 -3.2753,3.138 v 3.1905 h -5.6235 l -1.5376,2.6939 c -0.8458,1.4816 -1.9169,3.1405 -2.3804,3.6863 -0.4635,0.5459 -1.0374,0.9925 -1.2756,0.9925 l -2.9671,-4.1003 -5.1559,0.7067 -4.3645,-3.5074 -1.8324,1.5133 h -2.3688 l 0.3111,6.561 11.029,-0.9121 0.6311,5.3226 8.4455,-0.6442 -1.0804,1.2165 c -0.7983,0.9498 -0.6631,1.6762 -1.4305,2.7109 -0.6465,0.8218 -1.1755,1.8427 -1.1755,2.2685 0,0.4258 -0.1928,0.7742 -0.4287,0.7742 -0.2357,0 -0.7665,0.7634 -1.1796,1.6965 l -0.7509,1.6965 1.8312,1.8313 -0.6561,0.7906 c -0.3609,0.4349 -1.0077,0.7907 -1.4374,0.7907 h -0.7812 v 5.0372 l 1.2184,0.753 -0.6068,4.3384 0.412,0.1816 c 0.2266,0.1 1.2375,1.3166 2.2463,2.7037 1.0088,1.3871 1.8342,2.8455 1.8342,3.241 v 0.719 l 2.3816,1.2746 -0.5281,2.7623 1.0372,0.6411 -1.0405,1.3535 0.07,1.4273 2.6167,-0.6898 v 0.536 c 0,0.2947 -0.3191,0.79 -0.709,1.1007 l -8.3936,4.6782 h -3.8745 l -0.7578,1.2262 -2.7956,-0.7017 -16.1896,1.8157 0.5178,5.3883 z"
     style="fill:#D64541"
     id="MS_2"
     inkscape:connector-curvature="0" />
</svg>
