<?xml version="1.0" encoding="UTF-8" standalone="no"?>
<svg
   xmlns:dc="http://purl.org/dc/elements/1.1/"
   xmlns:cc="http://creativecommons.org/ns#"
   xmlns:rdf="http://www.w3.org/1999/02/22-rdf-syntax-ns#"
   xmlns:svg="http://www.w3.org/2000/svg"
   xmlns="http://www.w3.org/2000/svg"
   xmlns:sodipodi="http://sodipodi.sourceforge.net/DTD/sodipodi-0.dtd"
   xmlns:inkscape="http://www.inkscape.org/namespaces/inkscape"
   version="1.0"
   width="160.7809"
   height="173.77969"
   id="svg2"
   sodipodi:docname="MS_3.svg"
   inkscape:version="0.92.2 5c3e80d, 2017-08-06">
  <metadata
     id="metadata24">
    <rdf:RDF>
      <cc:Work
         rdf:about="">
        <dc:format>image/svg+xml</dc:format>
        <dc:type
           rdf:resource="http://purl.org/dc/dcmitype/StillImage" />
      </cc:Work>
    </rdf:RDF>
  </metadata>
  <defs
     id="defs22" />
  <sodipodi:namedview
     pagecolor="#ffffff"
     bordercolor="#666666"
     borderopacity="1"
     objecttolerance="10"
     gridtolerance="10"
     guidetolerance="10"
     inkscape:pageopacity="0"
     inkscape:pageshadow="2"
     inkscape:window-width="640"
     inkscape:window-height="480"
     id="namedview20"
     showgrid="false"
     inkscape:zoom="0.12542268"
     inkscape:cx="-307.71375"
     inkscape:cy="442.99747"
     inkscape:window-x="0"
     inkscape:window-y="0"
     inkscape:window-maximized="0"
     inkscape:current-layer="svg2" />
  <path
     d="m 121.3124,0 -2.1233,1.0266 -2.2331,-0.7089 -0.7654,1.617 1.9757,1.1845 1.4277,14.1585 1.0435,2.1181 5.2395,-0.5672 -1.2164,2.4621 1.2065,1.8021 -2.6939,2.3813 -2.4989,-1.3469 -1.0364,1.0619 -5.0779,0.3317 -0.4593,5.7258 -4.6314,0.3851 1.2271,11.3106 -7.0182,0.7975 0.6189,6.8907 1.8623,2.0239 c -0.5773,1.6506 -1.088,3.2552 -3.3851,6.0966 l 3.2787,4.3952 v 2.0736 h -1.5418 l -5.1928,-3.9699 h -3.5446 l -3.066,2.3394 -1.2229,-2.8179 -4.9269,3.7041 -1.5773,-2.1976 -2.9775,2.5697 v 3.775 h -5.8308 c -1.7959,3.6996 -3.5918,6.0623 -5.3877,7.6562 l -3.0306,-4.537 -4.9801,0.8507 -4.3243,-3.5091 -1.8432,1.4533 -1.8786,0.071 0.2835,5.5295 10.74,-0.8685 0.7267,5.0687 9.2335,-0.5139 c -3.4614,3.0602 -0.9692,2.0555 -4.4307,6.2384 -0.026,0.653 -0.067,1.3142 -0.957,1.9672 l -1.3115,2.5521 1.9318,2.304 -2.8888,2.2685 -0.1595,3.4914 1.1165,1.1697 -0.4608,3.9699 1.2052,0.7266 c 0,0.4017 0.7604,1.6139 1.6837,2.6939 0.923,1.0799 1.5291,2.9403 1.5418,3.2609 l 2.5699,1.9141 -0.5317,2.7116 1.2583,0.4608 -0.7089,0.7444 c -0.3899,0.4132 -0.709,0.9877 -0.709,1.2583 v 0.4785 l 2.18,-0.6912 0.3721,0.638 -0.1595,1.3469 -9.2512,5.3701 -3.5269,-0.1596 -0.7798,1.5065 -3.7395,-0.6558 -14.8694,1.7014 0.3722,5.3877 -21.7636,2.0736 -0.8861,-1.4356 -3.137,0.7976 -3.2078,-1.3292 0.6203,-1.0102 h -1.7723 v -0.8153 c -0.2187,-1.3142 -0.7194,-2.5302 -1.3115,-3.7217 h -0.7266 c -0.3955,0 -1.1225,0.396 -1.6128,0.8861 l -0.8861,0.9038 v 6.5929 l -2.8533,0.7267 -1.0989,-0.5849 c -0.5969,-0.3195 -1.384,-0.5848 -1.7545,-0.5848 H 4.3952 l 1.5065,1.8254 4.8737,-0.5494 v 2.6052 l -2.9951,2.3572 H 5.3877 l 0.4076,5.1218 3.2965,3.2433 -0.7089,1.8432 H 5.0864 l -0.6558,-1.4178 c -0.3552,-0.7798 -0.8547,-1.4178 -1.1165,-1.4178 -0.2618,0 -0.4785,0.1343 -0.4785,0.3012 0,0.1669 0.4343,0.9964 0.9748,1.8432 0.5405,0.8468 1.4336,1.8787 1.9849,2.2862 l 1.0102,0.7444 v 3.2964 L 4.6079,158.229 H 0 v 0.4608 c 0.821,1.2838 2.2152,2.0523 3.4027,2.9775 v 2.552 l -1.6127,2.747 c 1.2898,0.9053 2.5854,1.7793 3.8812,2.6762 v 2.5343 l -2.0794,1.603 c 34.9685,-3.1455 67.6163,-6.291 92.8909,-9.4364 -0.61,-1.0929 -0.9053,-2.1858 -0.638,-3.2787 h -4.7254 l 2.4746,-5.6713 h 1.1165 v -5.1396 l -1.6659,-0.638 1.7191,-2.6053 1.9672,0.514 3.2965,-6.8764 h 3.1901 v -3.7573 l 12.9903,-1.3065 -1.6628,-15.6769 4.0199,3.5014 2.2336,-0.9798 c 1.2606,-2.4469 0.8411,-3.662 0.2481,-4.7497 l -3.0306,0.319 -1.0877,-2.7869 1.3115,-2.6251 -0.5251,-5.0267 c 2.4722,-0.7426 4.3805,-1.8376 5.8485,-3.2078 1.2902,1.0431 3.006,1.7823 5.1751,2.1976 v -2.3039 l 2.1445,-0.5672 0.6557,-3.2787 -0.6203,-1.6127 -3.0129,-0.7621 -2.3217,2.9242 h -2.1844 l -1.5905,-4.537 h 1.276 l -0.7266,-4.4661 3.8281,-0.9925 c 0.1704,-1.9689 0.1323,-3.9688 0.4608,-5.9194 l 34.134,-4.5902 c -0.4541,-21.8106 -0.3857,-43.6775 -1.5773,-65.468 l -17.8871,2.1445 -2.494,-17.0316 -16.0308,1.7135 z"
     style="fill:#D64541"
     id="MS_3"
     inkscape:connector-curvature="0" />
</svg>
