<?xml version="1.0" encoding="UTF-8" standalone="no"?>
<svg
   xmlns:dc="http://purl.org/dc/elements/1.1/"
   xmlns:cc="http://creativecommons.org/ns#"
   xmlns:rdf="http://www.w3.org/1999/02/22-rdf-syntax-ns#"
   xmlns:svg="http://www.w3.org/2000/svg"
   xmlns="http://www.w3.org/2000/svg"
   xmlns:sodipodi="http://sodipodi.sourceforge.net/DTD/sodipodi-0.dtd"
   xmlns:inkscape="http://www.inkscape.org/namespaces/inkscape"
   version="1.0"
   width="128.1002"
   height="113.62072"
   id="svg2"
   sodipodi:docname="NC_1.svg"
   inkscape:version="0.92.2 5c3e80d, 2017-08-06">
  <metadata
     id="metadata8">
    <rdf:RDF>
      <cc:Work
         rdf:about="">
        <dc:format>image/svg+xml</dc:format>
        <dc:type
           rdf:resource="http://purl.org/dc/dcmitype/StillImage" />
      </cc:Work>
    </rdf:RDF>
  </metadata>
  <defs
     id="defs6" />
  <sodipodi:namedview
     pagecolor="#ffffff"
     bordercolor="#666666"
     borderopacity="1"
     objecttolerance="10"
     gridtolerance="10"
     guidetolerance="10"
     inkscape:pageopacity="0"
     inkscape:pageshadow="2"
     inkscape:window-width="640"
     inkscape:window-height="480"
     id="namedview4"
     showgrid="false"
     inkscape:zoom="0.12542268"
     inkscape:cx="-915.60475"
     inkscape:cy="88.551871"
     inkscape:window-x="0"
     inkscape:window-y="0"
     inkscape:window-maximized="0"
     inkscape:current-layer="svg2" />
  <path
     d="M 99.602,0 7.8512,22.82693 5.6182,24.61696 6.2739,31.01485 0,31.79465 l 1.2938,6.75241 6.9828,-0.99248 0.7443,3.9876 3.0838,-6.52198 5.246,-3.52681 2.0735,2.65842 -0.7621,2.8002 8.2588,-0.35446 1.6305,1.08106 9.588,0.24812 c 0.1901,0.69848 0.7416,1.33944 2.1977,1.80772 l 7.8512,-1.78997 h 1.3292 l -2.3571,20.27485 -2.5699,-0.0709 -1.0633,1.13426 3.1192,5.97254 -2.9597,3.88132 h 3.7749 l 2.6053,-1.48871 3.58,4.55472 -2.1091,1.71914 1.8432,6.64601 c -1.193,0.55074 -2.3667,1.06229 -3.1546,1.02792 l 1.5419,3.33188 -2.0027,1.06337 -2.8711,-0.95703 -2.8357,2.25082 1.2052,5.03327 -2.2685,0.54937 0.035,1.93181 3.4914,3.42047 c 0.4888,-1.83177 0.7209,-3.94875 0.7975,-6.23842 l 3.3497,-1.22284 -0.1241,-2.69386 4.2003,-1.91406 1.5773,8.61327 4.6257,-0.79756 0.6025,-1.54185 -2.9951,-3.15465 0.638,-4.8206 c 0.93,0.0942 2.0952,0.24137 2.3217,1.34693 h 2.1622 l 0.8329,2.26852 h 2.6762 l 0.762,2.76475 h 6.203 l 8.4006,3.26099 c -1.3076,1.01579 -1.8952,2.1197 -1.4887,3.82812 H 79.504 l -1.2583,3.43822 1.2228,2.30396 v 3.95215 l 3.4737,0.76211 2.0027,-1.80773 3.3141,0.0177 6.0258,5.21049 -0.6026,1.57736 1.7723,0.24812 9.7121,-3.73954 0.3722,-1.32918 -0.5317,-1.45326 1.7191,-2.19763 2.9419,-0.0354 c -0.5629,-1.82389 -0.7714,-3.69655 -0.6025,-5.24594 l -2.9952,0.14178 -1.595,3.33188 -5.6536,-0.63802 0.6026,2.33941 -3.0483,1.5596 -1.5951,-7.90436 c -0.8521,-0.33778 -1.1097,-1.41612 -1.0456,-2.85339 l 2.8179,-3.70403 C 95.2914,91.3479 94.3248,91.02078 90.5807,87.28471 l -3.4559,-0.0177 -8.95,-4.57248 1.5419,-2.81789 -3.0838,-1.27604 c 0.3865,-1.75192 -0.024,-3.06488 -0.638,-4.27122 l -2.6939,1.09882 0.2127,3.06606 -2.8002,0.14179 -3.1369,-4.14713 0.018,-2.16218 -2.5698,-3.72178 -3.2255,3.22554 -4.608,-3.38508 0.8684,-0.79749 1.5065,-0.21268 2.9774,-3.91676 -0.5494,-0.92158 1.0279,-1.93176 c 1.8449,0.58182 4.6747,2.79323 7.3018,4.67882 l 0.7443,4.3598 h 2.1977 l 0.6557,-3.27874 2.5698,-1.16971 1.2406,1.2406 2.2154,-1.98495 2.2862,1.2229 -0.6203,3.79267 3.385,1.40007 -0.088,4.73201 c 8.1104,2.39549 14.2385,5.24832 19.9912,8.18792 l 9.5171,-3.59775 v -3.17235 l -1.3114,-3.68634 -12.9377,-3.13695 -4.218,0.0177 -1.79,3.43821 -5.0864,-3.59775 2.428,-2.58752 -2.0027,-3.38502 -2.155,1.54712 C 85.3158,64.61833 83.458,62.93175 81.7379,62.2424 l -0.053,-2.46003 -1.9577,-0.61738 1.3197,-3.23189 9.8723,2.58542 6.22,-4.3754 21.776,-5.05844 -1.8202,-5.18532 1.4887,-5.03326 -1.8431,-2.03815 -0.1418,-1.38238 c -0.084,-0.76885 -0.3278,-1.67297 -0.5317,-2.00264 l -0.3722,-0.60258 h -2.0381 l -2.4812,1.98495 c -1.3696,1.08872 -2.7908,1.98189 -3.1546,1.98495 -0.3641,0.003 -1.7981,0.49193 -3.1725,1.08106 l -2.4988,1.06337 -1.8964,-1.06337 V 36.0659 c 0,-0.99826 0.1555,-2.35523 0.3368,-3.03063 l 0.3367,-1.24059 2.7825,-0.69116 1.6305,1.6305 1.276,-0.31901 c 0.7073,-0.17564 1.977,-0.79688 2.8179,-1.38238 l 1.5419,-1.06337 1.3292,-3.68633 1.4533,-0.69122 c 0.8036,-0.37924 1.7593,-0.69116 2.1267,-0.69116 0.3675,0 0.994,-0.38287 1.3824,-0.85069 l 0.7089,-0.8507 h 2.6584 l 3.3851,-3.31418 3.8812,-1.40007 -0.089,-1.47102 c -0.045,-0.80924 -0.2672,-1.78997 -0.5139,-2.17987 l -0.4608,-0.70891 h -1.6305 l -2.1799,-2.17993 -5.2459,-0.7975 1.8786,-2.07359 -2.9598,-0.74436 V 7.31956 h -1.7014 v -1.2229 l -1.4178,0.51399 c -2,-1.8084 -3.0984,-1.86824 -10.2083,-3.88132 z"
     style="fill:#D64541;fill-opacity:1"
     id="NC_1"
     inkscape:connector-curvature="0" />
</svg>
