<?xml version="1.0" encoding="UTF-8" standalone="no"?>
<svg
   xmlns:dc="http://purl.org/dc/elements/1.1/"
   xmlns:cc="http://creativecommons.org/ns#"
   xmlns:rdf="http://www.w3.org/1999/02/22-rdf-syntax-ns#"
   xmlns:svg="http://www.w3.org/2000/svg"
   xmlns="http://www.w3.org/2000/svg"
   xmlns:sodipodi="http://sodipodi.sourceforge.net/DTD/sodipodi-0.dtd"
   xmlns:inkscape="http://www.inkscape.org/namespaces/inkscape"
   version="1.0"
   width="84.431297"
   height="73.150703"
   id="svg2"
   sodipodi:docname="NC_6.svg"
   inkscape:version="0.92.2 5c3e80d, 2017-08-06">
  <metadata
     id="metadata80">
    <rdf:RDF>
      <cc:Work
         rdf:about="">
        <dc:format>image/svg+xml</dc:format>
        <dc:type
           rdf:resource="http://purl.org/dc/dcmitype/StillImage" />
      </cc:Work>
    </rdf:RDF>
  </metadata>
  <defs
     id="defs78" />
  <sodipodi:namedview
     pagecolor="#ffffff"
     bordercolor="#666666"
     borderopacity="1"
     objecttolerance="10"
     gridtolerance="10"
     guidetolerance="10"
     inkscape:pageopacity="0"
     inkscape:pageshadow="2"
     inkscape:window-width="640"
     inkscape:window-height="480"
     id="namedview76"
     showgrid="false"
     inkscape:zoom="0.12542268"
     inkscape:cx="-825.85665"
     inkscape:cy="98.804421"
     inkscape:window-x="0"
     inkscape:window-y="0"
     inkscape:window-maximized="0"
     inkscape:current-layer="svg2" />
  <path
     d="m 45.8579,2.49004 0.8948,3.9256 -3.385,0.74436 -0.2483,1.69271 -2.1089,0.48722 1.2052,2.25076 5.2815,3.06607 1.8251,-1.2495 3.4292,1.86104 -3.1454,0.31005 -1.0457,1.86086 -1.3292,-0.92159 c -0.7332,-0.51359 -1.549,-0.93927 -1.8077,-0.93927 h -0.4608 l -1.1874,3.40277 h -2.7116 l -1.6662,3.54433 -0.6201,-2.55186 -1.5418,1.27604 -3.7395,-0.74435 0.638,1.97587 c -4.9232,4.74886 -6.6574,6.08722 -8.2588,6.14116 l -3.0306,-3.9699 h -2.2508 l -0.638,1.64818 -3.58,1.18746 v 5.38772 l 1.0279,0.74436 2.8002,-1.27604 2.233,2.76475 -5.2105,3.22554 v 3.77493 c -1.2878,0.23042 -2.2656,0.85942 -3.8635,0.69121 l -0.7798,4.55473 -2.3571,1.25834 C 7.7803,47.01854 10.871,47.54949 2.8889,43.82844 L 0,46.73498 2.0559,49.00349 4.4926,47.8161 5.884,49.16297 c -1.3792,3.81008 -1.9612,5.80422 -2.1445,8.7728 l 43.2436,-9.33993 c 2.7586,5.05391 4.8529,9.0448 6.6815,14.7631 l 2.7468,1.0632 -0.026,1.84362 5.6444,3.96961 c -0.05,0.92686 -6e-4,2.03929 0.2659,2.91533 l 6.4865,-0.009 c 1.7726,-4.46302 4.3866,-8.17312 7.7094,-12.19327 1.9318,0.55533 1.9147,1.37637 7.567,1.66594 l 0.3728,-1.63049 -1.7725,-0.0797 c -2.1385,-1.63327 -3.1253,-2.20358 -6.1496,-3.30534 1.1311,-0.83005 1.5092,-1.26146 1.533,-2.62303 L 74.2937,53.5137 67.3908,46.92088 68.3037,44.7675 c -3.6703,-0.67177 -7.3519,1.20577 -11.0413,1.38243 L 53.4874,25.76001 67.134,22.77362 63.3324,4.7674 59.6195,10.47402 H 54.923 L 53.5938,8.32953 54.2318,5.8661 c 2.159,0.98045 3.0778,1.42944 4.4838,1.08117 0.042,-2.46196 -0.4875,-4.6327 -1.3114,-6.94744 z M 40.4611,3.40277 24.741,6.18528 c 1.1269,6.87246 1.728,10.49063 3.456,15.63148 h 1.276 l 1.8963,-4.21802 c -0.2235,-0.69258 -0.6834,-1.38107 -2.5166,-2.07359 l 2.2331,-1.54185 1.9495,1.02792 0.4962,-1.75459 2.7116,0.79756 0.9216,-1.16971 -2.942,-3.15465 6.2561,-4.04079 z"
     style="fill:#D64541;fill-opacity:1"
     id="NC_6"
     inkscape:connector-curvature="0" />
</svg>
