<?xml version="1.0" encoding="UTF-8" standalone="no"?>
<svg
   xmlns:dc="http://purl.org/dc/elements/1.1/"
   xmlns:cc="http://creativecommons.org/ns#"
   xmlns:rdf="http://www.w3.org/1999/02/22-rdf-syntax-ns#"
   xmlns:svg="http://www.w3.org/2000/svg"
   xmlns="http://www.w3.org/2000/svg"
   xmlns:sodipodi="http://sodipodi.sourceforge.net/DTD/sodipodi-0.dtd"
   xmlns:inkscape="http://www.inkscape.org/namespaces/inkscape"
   version="1.0"
   width="50.084499"
   height="40.496571"
   id="svg2"
   sodipodi:docname="NC_9.svg"
   inkscape:version="0.92.2 5c3e80d, 2017-08-06">
  <metadata
     id="metadata104">
    <rdf:RDF>
      <cc:Work
         rdf:about="">
        <dc:format>image/svg+xml</dc:format>
        <dc:type
           rdf:resource="http://purl.org/dc/dcmitype/StillImage" />
      </cc:Work>
    </rdf:RDF>
  </metadata>
  <defs
     id="defs102" />
  <sodipodi:namedview
     pagecolor="#ffffff"
     bordercolor="#666666"
     borderopacity="1"
     objecttolerance="10"
     gridtolerance="10"
     guidetolerance="10"
     inkscape:pageopacity="0"
     inkscape:pageshadow="2"
     inkscape:window-width="640"
     inkscape:window-height="480"
     id="namedview100"
     showgrid="false"
     inkscape:zoom="0.12542268"
     inkscape:cx="-797.71295"
     inkscape:cy="126.58494"
     inkscape:window-x="0"
     inkscape:window-y="0"
     inkscape:window-maximized="0"
     inkscape:current-layer="svg2" />
  <path
     d="m 21.4091,0 -1.7123,0.34221 -1.5133,1.12881 -0.035,5.91941 -16.4645,2.8002 0.7798,1.87861 2.0736,0.35445 v 1.66595 L 4e-4,16.67716 v 1.70139 l 1.5419,0.70891 c 0.9787,0.4127 1.9891,0.77725 3.066,0.70891 l 2.233,-2.0204 1.0989,2.23307 C 7.5565,21.5966 6.6,22.9386 6.0793,24.45743 l 10.7222,-1.50641 1.9318,2.55208 -0.6025,1.11651 -0.6026,1.13425 0.7444,1.2229 4.8737,-4.78514 10.3146,9.94244 c -0.1069,4.05287 0.2312,4.68766 0.6204,6.36251 l 14.8517,-2.99518 -3.1016,-6.92958 -2.1798,-0.46079 -0.9748,-2.3926 1.5773,-1.29374 1.7369,0.81525 3.6331,-2.10904 0.4608,-1.34693 -3.0838,-3.33188 0.7444,-4.28891 -1.7191,1.02792 L 33.9217,12.70726 31.2456,7.6031 c -0.1222,2.08528 -0.1982,3.82262 -1.1342,5.65354 l 1.7368,1.89636 -6.0435,1.38238 -0.7089,1.1165 1.2051,3.20785 -1.3291,2.90654 h -4.1117 l 0.5317,-2.83564 H 18.5561 L 17.8118,19.93815 C 17.3974,19.39229 17.0419,18.62666 17.032,18.23676 l -0.071,-0.35445 2.5166,-0.65577 -0.195,-3.66859 h 3.9699 v -0.65577 c 0,-0.36534 0.028,-0.64868 -0.443,-1.1697 l -1.2761,-1.40007 2.8002,-3.01287 h 1.7546 v 1.70138 h 1.1342 l 0.071,-1.5596 C 27.3294,6.60354 27.4029,5.5189 27.453,5.05102 27.503,4.58314 27.3336,3.75371 27.0807,3.20785 L 26.62,2.21538 h -0.9039 c -0.4925,0 -1.8912,-0.56809 -3.1192,-1.25835 z"
     style="fill:#D64541;fill-opacity:1"
     id="NC_9"
     inkscape:connector-curvature="0" />
</svg>
