<?xml version="1.0" encoding="UTF-8" standalone="no"?>
<svg
   xmlns:dc="http://purl.org/dc/elements/1.1/"
   xmlns:cc="http://creativecommons.org/ns#"
   xmlns:rdf="http://www.w3.org/1999/02/22-rdf-syntax-ns#"
   xmlns:svg="http://www.w3.org/2000/svg"
   xmlns="http://www.w3.org/2000/svg"
   xmlns:sodipodi="http://sodipodi.sourceforge.net/DTD/sodipodi-0.dtd"
   xmlns:inkscape="http://www.inkscape.org/namespaces/inkscape"
   version="1.0"
   width="8.7195997"
   height="23.80168"
   id="svg2"
   sodipodi:docname="NJ_13.svg"
   inkscape:version="0.92.2 5c3e80d, 2017-08-06">
  <metadata
     id="metadata40">
    <rdf:RDF>
      <cc:Work
         rdf:about="">
        <dc:format>image/svg+xml</dc:format>
        <dc:type
           rdf:resource="http://purl.org/dc/dcmitype/StillImage" />
      </cc:Work>
    </rdf:RDF>
  </metadata>
  <defs
     id="defs38" />
  <sodipodi:namedview
     pagecolor="#ffffff"
     bordercolor="#666666"
     borderopacity="1"
     objecttolerance="10"
     gridtolerance="10"
     guidetolerance="10"
     inkscape:pageopacity="0"
     inkscape:pageshadow="2"
     inkscape:window-width="640"
     inkscape:window-height="480"
     id="namedview36"
     showgrid="false"
     inkscape:zoom="0.12542268"
     inkscape:cx="-1055.916"
     inkscape:cy="-291.10538"
     inkscape:window-x="0"
     inkscape:window-y="0"
     inkscape:window-maximized="0"
     inkscape:current-layer="svg2" />
  <path
     d="M 7.355,0 6.7169,3.22554 7.3195,5.56495 5.9903,6.27386 C 5.2591,6.67132 4.1971,7.04279 3.6332,7.08911 L 2.6053,7.17771 1.152,5.08642 0.4608,5.77761 2.2331,8.48919 H 6.0967 L 5.4055,11.2185 2.6053,12.15781 2.9597,11.71474 1.3115,12.24642 0.9216,13.91236 C 0.7033,14.82691 0.3924,17.42855 0.2482,19.68999 L 0,23.80167 h 0.4254 c 0.2365,0 0.5658,-0.58255 0.7443,-1.29376 L 1.5064,21.21414 1.1697,19.97355 0.8507,18.71523 2.5344,18.05949 1.5064,13.46929 2.109,12.849 c 0.1237,-0.0618 3.4012,-1.45595 3.5623,-1.52416 0,-0.002 0.089,-0.0355 0.089,-0.0355 0.2196,-0.14766 0.7171,-0.89886 1.1875,-1.80772 L 7.9048,7.63845 C 8.168,5.38068 8.4162,3.12111 8.72,0.86835 Z"
     style="fill:#D64541;fill-opacity:1"
     id="NJ_13"
     inkscape:connector-curvature="0" />
</svg>
