<?xml version="1.0" encoding="UTF-8" standalone="no"?>
<svg
   xmlns:dc="http://purl.org/dc/elements/1.1/"
   xmlns:cc="http://creativecommons.org/ns#"
   xmlns:rdf="http://www.w3.org/1999/02/22-rdf-syntax-ns#"
   xmlns:svg="http://www.w3.org/2000/svg"
   xmlns="http://www.w3.org/2000/svg"
   xmlns:sodipodi="http://sodipodi.sourceforge.net/DTD/sodipodi-0.dtd"
   xmlns:inkscape="http://www.inkscape.org/namespaces/inkscape"
   version="1.0"
   width="29.051701"
   height="22.657631"
   id="svg2"
   sodipodi:docname="NJ_1.svg"
   inkscape:version="0.92.2 5c3e80d, 2017-08-06">
  <metadata
     id="metadata8">
    <rdf:RDF>
      <cc:Work
         rdf:about="">
        <dc:format>image/svg+xml</dc:format>
        <dc:type
           rdf:resource="http://purl.org/dc/dcmitype/StillImage" />
      </cc:Work>
    </rdf:RDF>
  </metadata>
  <defs
     id="defs6" />
  <sodipodi:namedview
     pagecolor="#ffffff"
     bordercolor="#666666"
     borderopacity="1"
     objecttolerance="10"
     gridtolerance="10"
     guidetolerance="10"
     inkscape:pageopacity="0"
     inkscape:pageshadow="2"
     inkscape:window-width="640"
     inkscape:window-height="480"
     id="namedview4"
     showgrid="false"
     inkscape:zoom="0.12542268"
     inkscape:cx="-1017.598"
     inkscape:cy="-229.3145"
     inkscape:window-x="0"
     inkscape:window-y="0"
     inkscape:window-maximized="0"
     inkscape:current-layer="svg2" />
  <path
     d="m 25.2482,22.65763 -7.7899,-3.88735 -3.8794,-0.055 0.1731,-1.09698 c 0.3229,-0.60333 0.5871,-1.49 0.5871,-1.97038 v -0.87341 l -3.606,-1.86474 -2.973,3.64264 C 7.2206,15.80602 6.6205,15.19292 5.8359,14.74538 L 2.713,18.70753 1.2708,18.71553 0,15.92635 1.9123,13.00782 8.1007,10.27102 V 9.04627 L 11.0622,7.92032 10.3885,3.11949 C 11.3926,2.04506 12.2621,0.7826 13.5211,2.8e-4 l 3.9372,3.01875 -3.0497,-0.7544 -0.7447,1.20503 3.0721,4.43314 c 1.1409,-0.61026 2.2854,-1.24205 3.5238,-1.56414 l 3.3315,6.13451 5.4604,3.50394 c -1.2491,2.21782 -2.0828,4.78206 -3.8035,6.6808 z"
     style="fill:#D64541;fill-opacity:1"
     id="NJ_1"
     inkscape:connector-curvature="0" />
</svg>
