<?xml version="1.0" encoding="UTF-8" standalone="no"?>
<svg
   xmlns:dc="http://purl.org/dc/elements/1.1/"
   xmlns:cc="http://creativecommons.org/ns#"
   xmlns:rdf="http://www.w3.org/1999/02/22-rdf-syntax-ns#"
   xmlns:svg="http://www.w3.org/2000/svg"
   xmlns="http://www.w3.org/2000/svg"
   xmlns:sodipodi="http://sodipodi.sourceforge.net/DTD/sodipodi-0.dtd"
   xmlns:inkscape="http://www.inkscape.org/namespaces/inkscape"
   version="1.0"
   width="81.786774"
   height="76.672142"
   id="svg2"
   sodipodi:docname="NM_1.svg"
   inkscape:version="0.92.2 5c3e80d, 2017-08-06">
  <metadata
     id="metadata8">
    <rdf:RDF>
      <cc:Work
         rdf:about="">
        <dc:format>image/svg+xml</dc:format>
        <dc:type
           rdf:resource="http://purl.org/dc/dcmitype/StillImage" />
      </cc:Work>
    </rdf:RDF>
  </metadata>
  <defs
     id="defs6" />
  <sodipodi:namedview
     pagecolor="#ffffff"
     bordercolor="#666666"
     borderopacity="1"
     objecttolerance="10"
     gridtolerance="10"
     guidetolerance="10"
     inkscape:pageopacity="0"
     inkscape:pageshadow="2"
     inkscape:window-width="640"
     inkscape:window-height="480"
     id="namedview4"
     showgrid="false"
     inkscape:zoom="0.12542268"
     inkscape:cx="484.20938"
     inkscape:cy="252.20527"
     inkscape:window-x="0"
     inkscape:window-y="0"
     inkscape:window-maximized="0"
     inkscape:current-layer="svg2" />
  <path
     d="m 22.75099,73.14294 0.54014,-11.2161 h -1.52059 c -0.83629,0 -1.70813,-0.1914 -1.93742,-0.4254 -0.22929,-0.2339 -3.14292,-1.582 -6.47474,-2.9958 l -6.05784,-2.5706 0.20859,-6.2199 0.20859,-6.22 0.49317,-0.94177 c 0.2712,-0.51801 1.37886,-1.48922 2.4614,-2.15826 l 1.96827,-1.2165 9.68889,0.78616 0.68849,-4.12586 2.43072,-0.0242 3.1192,-4.4105 v -2.24039 l -3.61022,-2.29403 -1.31841,0.33092 c -0.62384,0.0469 -1.90912,-0.28958 -3.68134,-0.74782 l -3.22226,-0.83328 -2.85663,1.30162 -1.13176,3.24641 -1.76388,0.0425 -1.75493,-1.6453 -9.14375,-1.3302 -0.0847,-14.81799 10.41975,0.89129 0.72206,1.89308 2.13337,-0.005 -0.63552,-1.95432 6.32842,-0.79069 -1.66521,-2.54142 2.4745,-3.53015 3.06743,0.7219 -0.0329,-1.25443 7.91372,-0.75298 0.76386,-5.09367 3.82801,0.67693 -0.63728,13.32752 4.6631,1.90073 v 3.48699 h -2.26852 v 6.80555 l 44.71198,2.57856 -1.19307,26.06146 -1.26759,0.8092 -1.0417,21.0252 z"
     style="fill:#D64541;fill-opacity:1"
     id="NM_1"
     inkscape:connector-curvature="0" />
</svg>
