<?xml version="1.0" encoding="UTF-8" standalone="no"?>
<svg
   xmlns:dc="http://purl.org/dc/elements/1.1/"
   xmlns:cc="http://creativecommons.org/ns#"
   xmlns:rdf="http://www.w3.org/1999/02/22-rdf-syntax-ns#"
   xmlns:svg="http://www.w3.org/2000/svg"
   xmlns="http://www.w3.org/2000/svg"
   xmlns:sodipodi="http://sodipodi.sourceforge.net/DTD/sodipodi-0.dtd"
   xmlns:inkscape="http://www.inkscape.org/namespaces/inkscape"
   version="1.0"
   width="307.13562"
   height="443.42374"
   id="svg2"
   sodipodi:docname="NV_2.svg"
   inkscape:version="0.92.2 5c3e80d, 2017-08-06">
  <metadata
     id="metadata16">
    <rdf:RDF>
      <cc:Work
         rdf:about="">
        <dc:format>image/svg+xml</dc:format>
        <dc:type
           rdf:resource="http://purl.org/dc/dcmitype/StillImage" />
      </cc:Work>
    </rdf:RDF>
  </metadata>
  <defs
     id="defs14" />
  <sodipodi:namedview
     pagecolor="#ffffff"
     bordercolor="#666666"
     borderopacity="1"
     objecttolerance="10"
     gridtolerance="10"
     guidetolerance="10"
     inkscape:pageopacity="0"
     inkscape:pageshadow="2"
     inkscape:window-width="640"
     inkscape:window-height="480"
     id="namedview12"
     showgrid="false"
     inkscape:zoom="0.12542268"
     inkscape:cx="1085.1012"
     inkscape:cy="124.33411"
     inkscape:window-x="0"
     inkscape:window-y="0"
     inkscape:window-maximized="0"
     inkscape:current-layer="svg2" />
  <path
     d="M 39.36227,0 0,182.31419 c 63.52569,87.04847 127.09639,174.0641 190.62613,261.10956 0.48936,-0.32071 0.98105,-0.63767 1.47099,-0.95702 l 3.47366,-1.61275 h 3.56228 l -0.90386,-1.40013 c -0.50373,-0.76885 -0.97444,-2.4665 -0.97433,-2.95423 l 3.43779,-6.91732 -2.30396,-0.72666 1.27604,-4.90918 2.74703,-0.69122 v -1.64819 l 3.40277,-1.75458 -0.70891,-7.26634 -2.9597,1.11656 -5.37,-0.72666 -0.70891,-2.25076 -1.87861,1.59505 -11.11218,-0.12409 -0.83297,-1.32918 -5.15733,1.06337 c -1.21314,-0.58018 -3.1901,-2.05584 -3.1901,-2.05584 l 1.86089,-2.83565 -7.3195,-5.93715 -4.12941,-0.67347 0.76208,-6.07888 h -1.18742 c -0.64625,0 -1.16982,-0.16731 -1.16971,-0.37221 0,-0.20485 0.9206,-5.62824 2.03812,-12.05148 1.11752,-6.42325 2.1055,-11.76418 2.21535,-11.87426 l 13.61109,1.64825 8.79049,8.73729 v 2.19763 l 3.40277,5.29913 2.14446,0.63802 c 1.17553,0.35219 3.99111,0.81559 6.27386,1.02793 l 4.16485,0.3899 1.09881,2.41029 -2.30396,5.35228 h 7.54991 l 2.48118,-2.32171 -0.5494,-4.89149 1.87861,-2.88878 10.59822,-8.09933 2.37485,-5.70674 c -0.63403,-1.15592 -1.22554,-2.32976 -1.68366,-3.56225 -10e-6,-0.1715 0.26039,-0.31901 0.58485,-0.31901 l 3.84584,2.4103 2.29677,-0.76296 0.71779,2.48079 3.62052,-1.24019 1.89884,-1.1853 3.27368,-1.38618 2.21111,-0.31646 c 0.92742,0 2.52869,-0.2353 3.56228,-0.53168 l 1.87861,-0.53168 3.77495,1.78997 4.48386,-1.47096 48.18822,-320.6227 C 223.96996,36.86293 107.0375,15.49479 39.36227,0 Z"
     style="fill:#D64541;fill-opacity:1"
     id="NV_2"
     inkscape:connector-curvature="0" />
</svg>
