<?xml version="1.0" encoding="UTF-8" standalone="no"?>
<svg
   xmlns:dc="http://purl.org/dc/elements/1.1/"
   xmlns:cc="http://creativecommons.org/ns#"
   xmlns:rdf="http://www.w3.org/1999/02/22-rdf-syntax-ns#"
   xmlns:svg="http://www.w3.org/2000/svg"
   xmlns="http://www.w3.org/2000/svg"
   xmlns:sodipodi="http://sodipodi.sourceforge.net/DTD/sodipodi-0.dtd"
   xmlns:inkscape="http://www.inkscape.org/namespaces/inkscape"
   version="1.0"
   width="9.8007002"
   height="11.55524"
   id="svg2"
   sodipodi:docname="NY_13.svg"
   inkscape:version="0.92.2 5c3e80d, 2017-08-06">
  <metadata
     id="metadata40">
    <rdf:RDF>
      <cc:Work
         rdf:about="">
        <dc:format>image/svg+xml</dc:format>
        <dc:type
           rdf:resource="http://purl.org/dc/dcmitype/StillImage" />
      </cc:Work>
    </rdf:RDF>
  </metadata>
  <defs
     id="defs38" />
  <sodipodi:namedview
     pagecolor="#ffffff"
     bordercolor="#666666"
     borderopacity="1"
     objecttolerance="10"
     gridtolerance="10"
     guidetolerance="10"
     inkscape:pageopacity="0"
     inkscape:pageshadow="2"
     inkscape:window-width="640"
     inkscape:window-height="480"
     id="namedview36"
     showgrid="false"
     inkscape:zoom="0.12542268"
     inkscape:cx="-1058.1314"
     inkscape:cy="-293.3739"
     inkscape:window-x="0"
     inkscape:window-y="0"
     inkscape:window-maximized="0"
     inkscape:current-layer="svg2" />
  <path
     d="m 6.2738,0 c 0,0 -0.3147,0.28916 -0.1949,1.18742 0.1197,0.89828 0.4627,0.63195 1.6305,1.08109 1.1677,0.44913 0.2658,0.81526 0.2658,0.81525 L 7.6208,3.79267 8.1879,4.21802 8.3297,3.43822 8.631,3.9699 9.8007,3.9167 9.588,2.87106 9.3576,2.65838 9.1981,2.92422 8.9854,2.69383 8.8791,1.57729 6.8587,0.14175 Z M 5.2813,1.93178 0.7975,3.49138 1.1165,9.28673 H 0 l 0.5848,2.26851 H 1.595 V 10.1197 L 4.1116,9.00317 5.4054,7.07138 C 6.1149,6.01151 6.6992,4.846 6.6992,4.48386 6.6992,4.12172 6.3802,3.41075 5.9903,2.88881 Z"
     style="fill:#D64541;fill-opacity:1"
     id="NY_13"
     inkscape:connector-curvature="0" />
</svg>
