<?xml version="1.0" encoding="UTF-8" standalone="no"?>
<svg
   xmlns:dc="http://purl.org/dc/elements/1.1/"
   xmlns:cc="http://creativecommons.org/ns#"
   xmlns:rdf="http://www.w3.org/1999/02/22-rdf-syntax-ns#"
   xmlns:svg="http://www.w3.org/2000/svg"
   xmlns="http://www.w3.org/2000/svg"
   xmlns:sodipodi="http://sodipodi.sourceforge.net/DTD/sodipodi-0.dtd"
   xmlns:inkscape="http://www.inkscape.org/namespaces/inkscape"
   version="1.0"
   width="92.8461"
   height="161.03743"
   id="svg2"
   sodipodi:docname="NY_20.svg"
   inkscape:version="0.92.2 5c3e80d, 2017-08-06">
  <metadata
     id="metadata104">
    <rdf:RDF>
      <cc:Work
         rdf:about="">
        <dc:format>image/svg+xml</dc:format>
        <dc:type
           rdf:resource="http://purl.org/dc/dcmitype/StillImage" />
      </cc:Work>
    </rdf:RDF>
  </metadata>
  <defs
     id="defs102" />
  <sodipodi:namedview
     pagecolor="#ffffff"
     bordercolor="#666666"
     borderopacity="1"
     objecttolerance="10"
     gridtolerance="10"
     guidetolerance="10"
     inkscape:pageopacity="0"
     inkscape:pageshadow="2"
     inkscape:window-width="640"
     inkscape:window-height="480"
     id="namedview100"
     showgrid="false"
     inkscape:zoom="0.12542268"
     inkscape:cx="-976.71605"
     inkscape:cy="-366.56808"
     inkscape:window-x="0"
     inkscape:window-y="0"
     inkscape:window-maximized="0"
     inkscape:current-layer="svg2" />
  <path
     d="m 82.2223,161.03743 -3.1819,-1.06175 v -4.00645 l -4.7255,-0.0457 -1.7753,-7.2452 -1.555,-1.69184 -1.7731,-14.61791 -4.0657,-1.28348 -2.4786,1.6098 -0.3571,3.70836 -10.5269,1.82501 -6.9325,-1.43289 c -3.7779,2.59282 -8.0581,9.57005 -20.6048,21.47973 l -6.2077,-7.17094 -3.9214,-1.29418 -1.5218,0.62337 0.091,-2.58823 -3.9086,-5.48702 c -2.2504,1.51172 -4.2174,3.66123 -6.2362,5.69412 l -0.5367,-0.0228 -2.0049,-8.46553 4.6109,-1.18056 1.4075,-3.39787 h 1.4424 l 0.6456,-1.68226 1.7453,0.66814 c 1.8062,-3.68534 4.3417,-6.03318 7.6073,-7.46869 l -4.7726,-4.09485 v -4.29859 l 3.4027,-1.40947 c 0.1551,-1.43294 -0.031,-2.79018 -1.0041,-3.97231 l 1.5715,-7.52709 2.3571,-1.47207 1.5843,1.3148 c 0.851,-2.10003 1.876,-4.11312 3.9236,-5.21958 l 0.6013,4.16038 3.9583,7.53273 -1.7438,7.84056 6.0492,4.69709 9.391,2.02842 1.4984,-2.04929 2.4374,0.63739 2.8276,-1.31144 0.1501,-3.02772 19.8093,-9.21824 -0.6326,-1.6487 0.6529,-1.70138 h 2.0082 l 1.5446,-1.85563 2.2608,0.78013 0.8706,-5.73005 h -2.0865 l -1.3216,-2.90064 0.6954,-2.77064 h -1.8131 l -3.3806,-7.45594 -2.4697,0.36683 c -0.3757,1.1514 -0.6085,2.43917 -3.2101,4.37331 l -5.0497,-4.26364 -0.6681,-2.66175 c -0.7769,-0.018 -1.4928,-0.25369 -2.6928,1.23985 L 51.2797,84.96671 47.3884,84.8564 29.6998,40.62399 44.1616,34.09995 44.5005,31.948 40.586,30.62047 l -2.4481,-7.36242 -2.3014,1.36612 -1.377,-0.53662 2.6259,-2.34056 -3.8111,-8.71153 -4.5978,2.25228 C 26.4722,11.70027 24.7669,7.51129 23.5768,3.6743 l 9.2393,-3.67429 1.5472,2.96889 6.0725,-2.95918 5.2503,11.84378 2.8701,0.34861 2.1806,5.57146 -1.1916,0.73643 1.8121,5.31825 h 9.513 l 0.7238,2.88405 3.3528,-0.0484 -0.7055,9.92476 0.9856,3.40277 1.9144,0.12917 0.4773,-3.23421 2.1135,-0.90424 1.4079,2.59146 2.3321,0.5167 12.7454,49.76682 1.2442,42.22758 1.6871,2.57482 3.6968,16.66335 -4.6925,1.43565 c 0.5696,2.17263 1.1764,4.33612 1.7012,6.52013 l -2.8242,-0.0409 z"
     style="fill:#D64541;fill-opacity:1"
     id="NY_20"
     inkscape:connector-curvature="0" />
</svg>
