<?xml version="1.0" encoding="UTF-8" standalone="no"?>
<svg
   xmlns:dc="http://purl.org/dc/elements/1.1/"
   xmlns:cc="http://creativecommons.org/ns#"
   xmlns:rdf="http://www.w3.org/1999/02/22-rdf-syntax-ns#"
   xmlns:svg="http://www.w3.org/2000/svg"
   xmlns="http://www.w3.org/2000/svg"
   xmlns:sodipodi="http://sodipodi.sourceforge.net/DTD/sodipodi-0.dtd"
   xmlns:inkscape="http://www.inkscape.org/namespaces/inkscape"
   version="1.0"
   width="103.2522"
   height="139.35416"
   id="svg2"
   sodipodi:docname="NY_24.svg"
   inkscape:version="0.92.2 5c3e80d, 2017-08-06">
  <metadata
     id="metadata136">
    <rdf:RDF>
      <cc:Work
         rdf:about="">
        <dc:format>image/svg+xml</dc:format>
        <dc:type
           rdf:resource="http://purl.org/dc/dcmitype/StillImage" />
      </cc:Work>
    </rdf:RDF>
  </metadata>
  <defs
     id="defs134" />
  <sodipodi:namedview
     pagecolor="#ffffff"
     bordercolor="#666666"
     borderopacity="1"
     objecttolerance="10"
     gridtolerance="10"
     guidetolerance="10"
     inkscape:pageopacity="0"
     inkscape:pageshadow="2"
     inkscape:window-width="640"
     inkscape:window-height="480"
     id="namedview132"
     showgrid="false"
     inkscape:zoom="0.12542268"
     inkscape:cx="-896.99585"
     inkscape:cy="-360.3837"
     inkscape:window-x="0"
     inkscape:window-y="0"
     inkscape:window-maximized="0"
     inkscape:current-layer="svg2" />
  <path
     d="M 75.375,0 67.1693,3.38505 C 65.6303,2.97572 64.0866,2.56429 62.5083,2.42802 L 76.97,42.74732 c -5.2341,1.70139 -13.2272,2.57509 -15.7023,5.10416 l 1.1519,5.31683 -1.2406,2.33941 h -3.4736 c -0.685,2.87793 -3.7151,2.81298 -3.2965,4.90921 -1.1054,0.91828 -2.2254,1.82231 -2.8816,3.11872 5.295,3.12112 5.808,3.43729 8.482,6.78831 l 2.0382,-0.69119 2.1621,6.1498 4.3775,-1.18742 1.2052,4.07623 8.2057,-2.65841 1.4887,4.00534 -1.152,4.76743 c -8.8382,2.67317 -3.3746,0.0213 -26.5133,8.02842 l -1.0988,-3.8104 -15.9505,5.06871 -5.3523,-3.49138 -3.8812,1.20514 -3.0838,-9.05633 H 21.037 l -0.6912,-3.15466 -5.6359,-2.00267 -0.1063,-2.09129 -4.537,0.93931 1.2937,7.51446 L 0.7444,87.40871 2.2863,93.36356 0,93.96614 l 2.623,7.76257 2.8534,0.46079 c 0.291,1.90746 1.9765,3.57895 3.5091,5.2105 l 1.9495,6.91188 8.5955,-2.09129 4.0408,15.54287 6.6992,-1.15198 -1.5773,-6.64604 -0.9748,-0.53168 -1.5064,-4.64337 4.6434,-2.00267 c 0.6185,1.1887 1.044,2.46419 1.3115,3.79267 l 1.9317,2.30396 3.7218,12.90218 -1.5596,1.80772 c 1.1142,2.63747 2.4811,4.34098 2.4458,5.7599 l 3.4027,-0.35445 -0.1772,-3.52683 h 1.6305 l 1.3871,-3.39161 2.7781,0.6901 0.7621,-1.22287 3.0479,-0.0455 -1.2809,-3.52684 2.8937,0.67347 1.4001,-1.68366 h 3.5623 l 2.1799,4.02307 c 0.8149,-1.34797 1.4022,-2.4228 1.4887,-4.5902 l 9.9956,0.0886 1.4711,-1.77228 0.9924,0.60258 2.3926,-1.27604 -0.3624,-3.84584 4.6513,-1.27604 -1.6836,-7.67396 4.7389,-1.23504 1.2786,-3.26843 1.6043,-0.005 0.7126,-2.00883 1.7877,0.79028 c 2.6572,-5.00249 3.6301,-4.95181 7.0158,-7.08628 l -4.5371,-3.88128 v -4.76743 l 3.4028,-1.27604 c 0.1438,-1.2019 0.242,-1.94857 -0.9344,-3.46914 l 1.537,-7.87343 2.8711,-1.87862 1.5064,1.2406 c 0.5092,-2.04346 1.3826,-3.26748 3.0299,-4.62808 L 98.9817,71.05087 97.5285,60.43805 c -1.0936,-0.26547 -2.0962,-1.21381 -2.8711,-3.93757 1.358,-1.08004 1.1228,-3.5258 2.1621,-5.01555 l -2.4102,-6.13208 -7.674,-1.36465 1.5773,-10.31465 z"
     style="fill:#D64541;fill-opacity:1"
     id="NY_24"
     inkscape:connector-curvature="0" />
</svg>
