<?xml version="1.0" encoding="UTF-8" standalone="no"?>
<svg
   xmlns:dc="http://purl.org/dc/elements/1.1/"
   xmlns:cc="http://creativecommons.org/ns#"
   xmlns:rdf="http://www.w3.org/1999/02/22-rdf-syntax-ns#"
   xmlns:svg="http://www.w3.org/2000/svg"
   xmlns="http://www.w3.org/2000/svg"
   xmlns:sodipodi="http://sodipodi.sourceforge.net/DTD/sodipodi-0.dtd"
   xmlns:inkscape="http://www.inkscape.org/namespaces/inkscape"
   version="1.0"
   width="4.6843772"
   height="16.99613"
   id="svg2"
   sodipodi:docname="NY_8.svg"
   inkscape:version="0.92.2 5c3e80d, 2017-08-06">
  <metadata
     id="metadata224">
    <rdf:RDF>
      <cc:Work
         rdf:about="">
        <dc:format>image/svg+xml</dc:format>
        <dc:type
           rdf:resource="http://purl.org/dc/dcmitype/StillImage" />
      </cc:Work>
    </rdf:RDF>
  </metadata>
  <defs
     id="defs222" />
  <sodipodi:namedview
     pagecolor="#ffffff"
     bordercolor="#666666"
     borderopacity="1"
     objecttolerance="10"
     gridtolerance="10"
     guidetolerance="10"
     inkscape:pageopacity="0"
     inkscape:pageshadow="2"
     inkscape:window-width="640"
     inkscape:window-height="480"
     id="namedview220"
     showgrid="false"
     inkscape:zoom="0.12542268"
     inkscape:cx="-1065.2858"
     inkscape:cy="-300.09083"
     inkscape:window-x="0"
     inkscape:window-y="0"
     inkscape:window-maximized="0"
     inkscape:current-layer="svg2" />
  <path
     d="m 0.69677711,0 -0.5672,4.83831 -0.018,2.71159 -0.035,3.1901 c -1e-4,-2e-5 -0.1009,0.45594 -0.071,0.81524 0.03,0.35931 0.1595,0.83297 0.1595,0.83297 l 0.2304,0.30129 1.16969999,0.72663 0.3367,0.31901 0.018,1.02792 0.1596,0.0177 0.1772,-0.19495 0.3012,0.40762 c 2e-4,10e-6 0.3502,1.20515 0.2305,1.20515 -0.1197,-10e-6 -1.3647,0.0886 -1.3647,0.0886 l -0.2481,-0.26584 -0.1241,0.53168 0.195,0.44307 3.4382,-0.17722 -0.2658,-0.63802 c 0.1447,-0.13065 0.2303,-0.26972 0.2303,-0.3899 0,-0.23712 -0.3838,-0.75909 -0.8507,-1.15198 -0.01,-0.005 -0.011,-0.0124 -0.018,-0.0177 l -0.4253,-1.06336 -2.87109999,-0.99248 0.1772,-1.93178 0.1773,-0.51396 0.018,-0.0177 v -0.0177 L 1.3350771,8.73736 0.85657711,5.2637 1.2641771,0.26588 Z"
     style="fill:#D64541;fill-opacity:1;fill-rule:evenodd;stroke:none;stroke-width:0.1;stroke-miterlimit:4;stroke-dasharray:none;stroke-opacity:1"
     id="NY_8"
     inkscape:connector-curvature="0" />
</svg>
