<?xml version="1.0" encoding="UTF-8" standalone="no"?>
<svg
   xmlns:dc="http://purl.org/dc/elements/1.1/"
   xmlns:cc="http://creativecommons.org/ns#"
   xmlns:rdf="http://www.w3.org/1999/02/22-rdf-syntax-ns#"
   xmlns:svg="http://www.w3.org/2000/svg"
   xmlns="http://www.w3.org/2000/svg"
   xmlns:sodipodi="http://sodipodi.sourceforge.net/DTD/sodipodi-0.dtd"
   xmlns:inkscape="http://www.inkscape.org/namespaces/inkscape"
   version="1.0"
   width="47.195801"
   height="60.556198"
   id="svg2"
   sodipodi:docname="OH_14.svg"
   inkscape:version="0.92.2 5c3e80d, 2017-08-06">
  <metadata
     id="metadata48">
    <rdf:RDF>
      <cc:Work
         rdf:about="">
        <dc:format>image/svg+xml</dc:format>
        <dc:type
           rdf:resource="http://purl.org/dc/dcmitype/StillImage" />
      </cc:Work>
    </rdf:RDF>
  </metadata>
  <defs
     id="defs46" />
  <sodipodi:namedview
     pagecolor="#ffffff"
     bordercolor="#666666"
     borderopacity="1"
     objecttolerance="10"
     gridtolerance="10"
     guidetolerance="10"
     inkscape:pageopacity="0"
     inkscape:pageshadow="2"
     inkscape:window-width="640"
     inkscape:window-height="480"
     id="namedview44"
     showgrid="false"
     inkscape:zoom="0.12542268"
     inkscape:cx="-713.77785"
     inkscape:cy="-252.61403"
     inkscape:window-x="0"
     inkscape:window-y="0"
     inkscape:window-maximized="0"
     inkscape:current-layer="svg2" />
  <path
     d="M 39.4332,0 38.5825,0.76208 C 35.5852,3.00951 32.1834,4.6689 29.0122,6.64604 L 28.3564,5.9903 v 1.13425 l -2.6938,1.73683 c -1.4816,0.95019 -3.2843,1.90549 -4.0054,2.12674 -0.7212,0.22124 -2.9562,1.63624 -4.9623,3.15465 -2.0061,1.51841 -4.2232,3.31145 -4.927,3.9699 -0.7038,0.65845 -2.0837,1.57019 -3.066,2.03812 l -1.79,0.85069 -2.2331,2.65842 c -1.2298,1.461 -2.6072,3.37479 -3.066,4.25346 l -0.833,1.59505 1.152,5.6004 1.9672,-0.6203 0.6026,2.16218 c 0.329,1.18475 0.6009,2.48677 0.6026,2.90654 0,0.41975 -0.4339,1.48941 -0.9571,2.37485 l -0.9392,1.61277 1.4709,1.77228 H 6.3271 L 5.8663,46.73495 0,47.74515 v 0.9393 c 0,0.51759 0.3031,1.24237 0.6735,1.61277 l 0.6734,0.67347 -0.2658,5.26366 4.1117,-0.7798 2.747,2.9597 0.054,2.14195 2.4099,-2.14195 -1.2583,-8.24108 17.2442,-3.27872 -1.6837,-9.65891 13.6998,-2.69386 1.3469,4.55475 7.4436,-1.79 z"
     style="fill:#D64541;fill-opacity:1"
     id="OH_14"
     inkscape:connector-curvature="0" />
</svg>
