<?xml version="1.0" encoding="UTF-8" standalone="no"?>
<svg
   xmlns:dc="http://purl.org/dc/elements/1.1/"
   xmlns:cc="http://creativecommons.org/ns#"
   xmlns:rdf="http://www.w3.org/1999/02/22-rdf-syntax-ns#"
   xmlns:svg="http://www.w3.org/2000/svg"
   xmlns="http://www.w3.org/2000/svg"
   xmlns:sodipodi="http://sodipodi.sourceforge.net/DTD/sodipodi-0.dtd"
   xmlns:inkscape="http://www.inkscape.org/namespaces/inkscape"
   version="1.0"
   width="21.270599"
   height="10.77544"
   id="svg2"
   sodipodi:docname="OH_10.svg"
   inkscape:version="0.92.2 5c3e80d, 2017-08-06">
  <metadata
     id="metadata16">
    <rdf:RDF>
      <cc:Work
         rdf:about="">
        <dc:format>image/svg+xml</dc:format>
        <dc:type
           rdf:resource="http://purl.org/dc/dcmitype/StillImage" />
      </cc:Work>
    </rdf:RDF>
  </metadata>
  <defs
     id="defs14" />
  <sodipodi:namedview
     pagecolor="#ffffff"
     bordercolor="#666666"
     borderopacity="1"
     objecttolerance="10"
     gridtolerance="10"
     guidetolerance="10"
     inkscape:pageopacity="0"
     inkscape:pageshadow="2"
     inkscape:window-width="640"
     inkscape:window-height="480"
     id="namedview12"
     showgrid="false"
     inkscape:zoom="0.12542268"
     inkscape:cx="-694.41015"
     inkscape:cy="-261.61332"
     inkscape:window-x="0"
     inkscape:window-y="0"
     inkscape:window-maximized="0"
     inkscape:current-layer="svg2" />
  <path
     d="m 9.2732,10.77544 c -0.3078,0 -0.7442,-0.44661 -0.9698,-0.99247 L 7.893,8.79049 7.3635,10.20832 H 5.7566 V 9.06065 L 1.3835,9.75994 0,1.35205 3.9054,1.80799 7.4017,0 h 3.2322 l 1.3303,1.33034 2.8449,-1.29617 1.1958,2.23434 1.7989,-0.0806 0.8772,1.49702 2.5896,0.90585 -0.027,1.54016 -1.4508,0.19734 c -0.7018,0.0494 -1.7345,0.0503 -2.2949,0.002 l -1.019,-0.0879 -2.2195,1.13226 c -1.2207,0.62275 -2.5826,1.13227 -3.0265,1.13227 h -0.8071 l -0.5933,2.26851 z"
     style="fill:#D64541;fill-opacity:1"
     id="OH_10"
     inkscape:connector-curvature="0" />
</svg>
