<?xml version="1.0" encoding="UTF-8" standalone="no"?>
<svg
   xmlns:dc="http://purl.org/dc/elements/1.1/"
   xmlns:cc="http://creativecommons.org/ns#"
   xmlns:rdf="http://www.w3.org/1999/02/22-rdf-syntax-ns#"
   xmlns:svg="http://www.w3.org/2000/svg"
   xmlns="http://www.w3.org/2000/svg"
   xmlns:sodipodi="http://sodipodi.sourceforge.net/DTD/sodipodi-0.dtd"
   xmlns:inkscape="http://www.inkscape.org/namespaces/inkscape"
   version="1.0"
   width="21.303301"
   height="24.32131"
   id="svg2"
   sodipodi:docname="OH_1.svg"
   inkscape:version="0.92.2 5c3e80d, 2017-08-06">
  <metadata
     id="metadata8">
    <rdf:RDF>
      <cc:Work
         rdf:about="">
        <dc:format>image/svg+xml</dc:format>
        <dc:type
           rdf:resource="http://purl.org/dc/dcmitype/StillImage" />
      </cc:Work>
    </rdf:RDF>
  </metadata>
  <defs
     id="defs6" />
  <sodipodi:namedview
     pagecolor="#ffffff"
     bordercolor="#666666"
     borderopacity="1"
     objecttolerance="10"
     gridtolerance="10"
     guidetolerance="10"
     inkscape:pageopacity="0"
     inkscape:pageshadow="2"
     inkscape:window-width="640"
     inkscape:window-height="480"
     id="namedview4"
     showgrid="false"
     inkscape:zoom="0.12542268"
     inkscape:cx="-585.37255"
     inkscape:cy="-100.21227"
     inkscape:window-x="0"
     inkscape:window-y="0"
     inkscape:window-maximized="0"
     inkscape:current-layer="svg2" />
  <path
     d="M 14.6736,23.00948 12.6419,24.32131 9.4841,22.85057 6.8231,20.55206 H 5.4354 L 3.1477,22.99173 0,1.67575 8.9103,0 8.1021,1.30768 9.8546,1.98018 9.2979,3.02047 C 8.9917,3.59264 8.7411,4.46035 8.7411,4.94876 v 0.88795 h 1.7528 l -0.5984,4.00132 8.0936,-0.54824 -0.1739,2.66239 2.6909,0.67539 0.7972,3.38604 -1.6473,2.44813 c -0.8564,1.26396 -1.0715,1.72968 -1.5382,2.88538 -0.18,0.44559 -0.3038,0.93956 -1.1616,0.96372 -0.499,0.0135 -1.6105,0.20802 -2.2826,0.69864 z"
     style="fill:#D64541;fill-opacity:1"
     id="OH_1"
     inkscape:connector-curvature="0" />
</svg>
