<?xml version="1.0" encoding="UTF-8" standalone="no"?>
<svg
   xmlns:dc="http://purl.org/dc/elements/1.1/"
   xmlns:cc="http://creativecommons.org/ns#"
   xmlns:rdf="http://www.w3.org/1999/02/22-rdf-syntax-ns#"
   xmlns:svg="http://www.w3.org/2000/svg"
   xmlns="http://www.w3.org/2000/svg"
   xmlns:sodipodi="http://sodipodi.sourceforge.net/DTD/sodipodi-0.dtd"
   xmlns:inkscape="http://www.inkscape.org/namespaces/inkscape"
   version="1.0"
   width="96.112999"
   height="182.50662"
   id="svg2"
   sodipodi:docname="OH_6.svg"
   inkscape:version="0.92.2 5c3e80d, 2017-08-06">
  <metadata
     id="metadata120">
    <rdf:RDF>
      <cc:Work
         rdf:about="">
        <dc:format>image/svg+xml</dc:format>
        <dc:type
           rdf:resource="http://purl.org/dc/dcmitype/StillImage" />
      </cc:Work>
    </rdf:RDF>
  </metadata>
  <defs
     id="defs118" />
  <sodipodi:namedview
     pagecolor="#ffffff"
     bordercolor="#666666"
     borderopacity="1"
     objecttolerance="10"
     gridtolerance="10"
     guidetolerance="10"
     inkscape:pageopacity="0"
     inkscape:pageshadow="2"
     inkscape:window-width="640"
     inkscape:window-height="480"
     id="namedview116"
     showgrid="false"
     inkscape:zoom="0.12542268"
     inkscape:cx="-674.15995"
     inkscape:cy="-76.729339"
     inkscape:window-x="0"
     inkscape:window-y="0"
     inkscape:window-maximized="0"
     inkscape:current-layer="svg2" />
  <path
     d="m 27.0821,182.50662 -1.1489,-3.29564 -3.3744,-1.39769 -0.6862,-0.96611 c -0.3775,-0.53134 -1.2247,-1.25159 -1.8827,-1.60049 l -1.1963,-0.63445 -4.0017,0.64936 -2.3962,-2.39617 v -0.90497 c 0,-0.49771 -0.3565,-1.58234 -0.7922,-2.41029 -0.4357,-0.82796 -1.0099,-2.52617 -1.276,-3.77385 l -0.2836,-1.81799 -2.7523,-0.81298 -0.4506,-2.70667 c -2.3073,0.0973 -3.748,-0.27172 -4.7249,-1.50488 L 0,154.20752 c 5.3764,-0.80731 10.0451,-1.61456 12.8968,-2.42187 l 0.3496,5.48374 8.5069,-0.37652 1.0776,-1.0413 h 5.6118 c -0.4743,-7.02973 -0.9486,-12.09521 -1.423,-12.47683 h 5.9156 c -0.553,-3.91512 -1.0987,-7.81935 -1.3905,-11.34258 h 1.6235 l -0.4818,-6.66081 1.2601,-0.77878 v 1.20118 h 2.2685 v -5.00446 l 4.5371,-0.76653 v -6.00657 c 3.1488,-0.37851 6.6663,-0.87985 10.2083,-1.38936 v -2.71269 h 5.1041 v -3.17592 l -1.3804,-1.33037 0.3796,-2.68291 4.6872,-0.46703 c 0.5998,-1.79593 0.2885,-3.5918 -0.3052,-5.38773 h -2.814 c 0.025,-1.81804 0.036,-3.63138 -0.7215,-5.18837 l -2.5422,0.63802 c -0.5076,-2.26648 -0.7325,-3.89686 -0.7062,-4.96204 l 5.2142,-0.78196 -0.7286,-3.88386 c 1.7185,-0.007 3.437,0.0889 5.1556,-0.6885 l -0.05,-1.80863 3.4027,-0.68055 0.05,-1.38743 c 1.7628,-0.93837 3.6378,-1.09127 5.5324,-1.10618 L 72.431,75.58346 70.3343,62.97891 c 2.9085,-0.85205 5.9434,-1.0721 8.9826,-1.27071 v 2.26852 h 2.1991 l 0.7814,5.21123 5.044,-0.75638 0.6148,2.35069 h 2.7033 c 0.032,-2.45754 -0.2199,-4.91513 -0.7213,-7.37267 h -2.4744 c -1.7636,-6.57983 -3.019,-13.15965 -3.8484,-19.7395 l -3.524,0.57187 -0.1472,-7.938 2.2016,-0.57573 -1.0919,-5.21212 H 78.3114 L 77.5454,25.40794 69.674,26.89833 66.5051,11.79848 70.2429,11.1584 68.707,1.84419 77.6982,0 c 0.8938,1.34354 0.738,2.68708 0.3079,4.03062 l 8.3751,-1.49977 1.949,4.24404 3.2133,-0.64665 4.3741,21.08109 -1.0695,0.75963 c -0.5881,0.44533 -1.5016,0.8178 -2.0297,0.82773 l -0.9603,0.018 -0.8829,1.26045 c -0.4856,0.69324 -0.8828,1.61659 -0.8828,2.05186 v 0.79142 l 1.7211,2.05982 c 0.9466,1.1329 2.0006,2.40355 2.3422,2.82366 l 0.621,0.76384 -0.6325,6.12856 h 0.9294 l 0.4588,1.5596 c 0.2523,0.85778 0.4862,2.32524 0.5197,3.26101 l 0.061,1.70138 -1.1292,0.76551 -0.1174,1.696 c -0.064,0.93282 -0.4238,2.62439 -0.7982,3.75904 l -0.6809,2.06305 0.6278,2.50126 -0.8791,1.42242 1.3366,6.50797 -1.1113,1.41175 0.5948,2.27459 h -1.6308 l -0.6585,1.71584 1.4001,1.68693 -1.2773,1.53902 0.6855,3.42755 -1.2485,0.77164 v 2.59291 l 2.2954,2.07728 -1.3874,0.85738 0.2556,4.33224 -2.5458,1.13228 -1.5996,2.26851 c -0.8797,1.24768 -2.3503,3.41695 -3.268,4.82059 l -1.6684,2.55208 -0.022,1.95881 -2.7209,1.78283 -1.3866,3.34747 h -1.9084 l -1.9239,1.98495 c -1.0581,1.09173 -2.0652,1.98337 -2.238,1.98138 -0.1727,-0.002 -0.7488,-0.76761 -1.2802,-1.70139 l -0.9661,-1.69781 h -2.8622 l -0.9685,1.55961 c -0.5327,0.85778 -1.4629,2.11953 -2.0671,2.80394 l -1.0986,1.24433 0.7327,3.90559 -5.4152,0.98312 -0.3554,3.68163 h -0.9514 l -1.1868,3.40425 1.7135,4.10085 -0.6021,1.56896 h -2.3041 v 2.7052 l 2.9564,1.93709 -0.6681,3.34067 0.8408,0.32264 c 0.4624,0.17751 0.8408,0.54512 0.8408,0.817 v 0.49426 l -2.9168,-1.32901 -0.5179,0.81848 c -0.2848,0.45013 -0.5218,1.36139 -0.5265,2.02504 l -0.01,1.20657 -1.7014,1.41204 -0.063,-0.49482 c -0.034,-0.27211 -0.016,-1.06791 0.04,-1.76848 l 0.1031,-1.27372 -2.4263,-3.40742 h -1.8184 l -1.993,-1.80364 -2.3498,0.74583 v 1.81918 l -1.8021,1.99136 -1.2013,4.33638 0.1055,4.68142 -2.7734,2.60539 v 2.38585 l 2.2685,1.94236 v 3.14711 l 2.1908,4.08753 -1.2834,1.28341 h -3.037 l -1.4296,1.7226 0.6348,6.15073 -0.6139,2.34741 -1.4918,0.34266 c -0.8206,0.18845 -2.8278,1.07884 -4.4607,1.97871 l -2.9688,1.63611 z"
     style="fill:#D64541;fill-opacity:1"
     id="OH_6"
     inkscape:connector-curvature="0" />
</svg>
