<?xml version="1.0" encoding="UTF-8" standalone="no"?>
<svg
   xmlns:dc="http://purl.org/dc/elements/1.1/"
   xmlns:cc="http://creativecommons.org/ns#"
   xmlns:rdf="http://www.w3.org/1999/02/22-rdf-syntax-ns#"
   xmlns:svg="http://www.w3.org/2000/svg"
   xmlns="http://www.w3.org/2000/svg"
   xmlns:sodipodi="http://sodipodi.sourceforge.net/DTD/sodipodi-0.dtd"
   xmlns:inkscape="http://www.inkscape.org/namespaces/inkscape"
   version="1.0"
   width="53.75317"
   height="79.592972"
   id="svg2"
   sodipodi:docname="OR_1.svg"
   inkscape:version="0.92.2 5c3e80d, 2017-08-06">
  <metadata
     id="metadata8">
    <rdf:RDF>
      <cc:Work
         rdf:about="">
        <dc:format>image/svg+xml</dc:format>
        <dc:type
           rdf:resource="http://purl.org/dc/dcmitype/StillImage" />
      </cc:Work>
    </rdf:RDF>
  </metadata>
  <defs
     id="defs6" />
  <sodipodi:namedview
     pagecolor="#ffffff"
     bordercolor="#666666"
     borderopacity="1"
     objecttolerance="10"
     gridtolerance="10"
     guidetolerance="10"
     inkscape:pageopacity="0"
     inkscape:pageshadow="2"
     inkscape:window-width="640"
     inkscape:window-height="480"
     id="namedview4"
     showgrid="false"
     inkscape:zoom="0.12542268"
     inkscape:cx="1167.8134"
     inkscape:cy="-537.89498"
     inkscape:window-x="0"
     inkscape:window-y="0"
     inkscape:window-maximized="0"
     inkscape:current-layer="svg2" />
  <path
     d="m 7.7803,0 0.86841,3.9699 -0.0532,10.20832 -1.36465,2.48119 -2.44574,0.35445 -0.17723,6.36248 -1.68366,4.04079 c 14.33162,3.80091 7.99721,3.6493 25.16623,6.78069 l -0.65564,4.6504 -5.64623,-1.3395 c 0.26469,1.54779 0.73666,3.5487 1.93901,4.61485 1.30439,0.3775 2.99134,2.73161 4.48702,4.09742 l -3.13693,0.28357 0.0709,2.03811 -2.03812,-0.58485 -0.40762,1.34693 -0.86842,-0.81524 -2.00267,2.28623 L 15.61374,67.20475 1.84315,63.97921 -2e-5,71.8304 c 12.0988,3.45912 18.76654,5.00483 29.84515,7.76257 1.14174,-0.49197 2.43126,-1.19911 3.59772,-1.63049 l -1.47099,-2.48119 2.1799,-0.0177 -0.54941,-2.30397 -0.7798,-1.98495 h 1.02792 l 1.32921,0.63802 -0.0532,-2.90653 h 1.4001 c 0.57507,0.002 1.77184,0.40616 2.67614,0.85069 l 2.35713,1.16971 -0.0532,-1.93179 c 0.95634,-0.86858 1.79376,-2.04894 1.98495,-3.49138 0.81063,0.38254 1.37958,0.96586 1.87861,1.73683 l 2.07357,-0.0354 1.18742,-4.82059 c 1.00169,-1.66283 2.77185,-2.6978 4.16486,-4.02307 l 0.0354,-1.98495 -3.84584,-0.83297 -1.98495,-4.21802 h -0.49624 -0.49624 l -1.91405,-4.02307 1.29376,-5.15733 7.23089,1.4001 -0.0177,-3.3496 c -0.009,-1.83495 0.0644,-4.47889 0.1595,-5.88396 0.0951,-1.40507 0.35919,-2.86045 0.58485,-3.22555 l 0.40763,-0.65574 -0.53169,-1.32921 C 52.9271,28.37567 52.49143,27.02376 52.26435,26.08799 52.03722,25.15223 51.90956,23.9344 51.98079,23.37641 l 0.12406,-1.0102 -8.15248,-9.60574 H 40.17742 L 37.48356,13.98334 32.87564,12.74275 30.94386,9.80077 31.61732,6.18532 30.02227,3.9877 25.43208,5.21057 24.2801,4.05859 23.6598,5.67136 21.26723,5.47641 C 19.94485,5.36854 17.66233,5.19164 16.19851,5.08651 L 13.5401,4.89156 14.16039,6.52205 H 12.47673 L 10.5095,4.11176 C 9.42861,2.78609 8.3775,1.31865 8.1701,0.85077 Z"
     style="fill:#D64541;fill-opacity:1"
     id="OR_1"
     inkscape:connector-curvature="0" />
</svg>
