<?xml version="1.0" encoding="UTF-8" standalone="no"?>
<svg
   xmlns:dc="http://purl.org/dc/elements/1.1/"
   xmlns:cc="http://creativecommons.org/ns#"
   xmlns:rdf="http://www.w3.org/1999/02/22-rdf-syntax-ns#"
   xmlns:svg="http://www.w3.org/2000/svg"
   xmlns="http://www.w3.org/2000/svg"
   xmlns:sodipodi="http://sodipodi.sourceforge.net/DTD/sodipodi-0.dtd"
   xmlns:inkscape="http://www.inkscape.org/namespaces/inkscape"
   version="1.0"
   width="54.833401"
   height="41.469341"
   id="svg2"
   sodipodi:docname="PA_16.svg"
   inkscape:version="0.92.2 5c3e80d, 2017-08-06">
  <metadata
     id="metadata64">
    <rdf:RDF>
      <cc:Work
         rdf:about="">
        <dc:format>image/svg+xml</dc:format>
        <dc:type
           rdf:resource="http://purl.org/dc/dcmitype/StillImage" />
      </cc:Work>
    </rdf:RDF>
  </metadata>
  <defs
     id="defs62" />
  <sodipodi:namedview
     pagecolor="#ffffff"
     bordercolor="#666666"
     borderopacity="1"
     objecttolerance="10"
     gridtolerance="10"
     guidetolerance="10"
     inkscape:pageopacity="0"
     inkscape:pageshadow="2"
     inkscape:window-width="640"
     inkscape:window-height="480"
     id="namedview60"
     showgrid="false"
     inkscape:zoom="0.12542268"
     inkscape:cx="-952.53905"
     inkscape:cy="-221.84536"
     inkscape:window-x="0"
     inkscape:window-y="0"
     inkscape:window-maximized="0"
     inkscape:current-layer="svg2" />
  <path
     d="M 27.3587,41.46934 26.298,40.15597 c -0.5834,-0.72236 -1.8264,-1.79303 -2.7622,-2.37928 -0.9357,-0.58624 -2.4982,-1.89084 -3.4721,-2.8991 -0.9739,-1.00827 -1.8672,-2.08256 -1.985,-2.38732 l -0.2142,-0.5541 -5.0001,-1.59479 -4.014,-5.67532 -1.3395,1.42186 H 3.0478 C 1.9313,24.90495 0.67,23.80867 0,22.30874 1.4985,20.31509 6.6165,16.45997 9.9247,13.53559 l 6.8056,-3.17715 8.7905,-8.42409 V 0 h 4.0098 c -1.5612,2.26506 -2.7088,4.11647 -3.4427,6.7952 l 11.6261,5.83807 -3.0045,2.24794 1.6977,4.06307 -0.6226,2.07801 c -0.3425,1.14291 -0.6226,2.60756 -0.6226,3.25479 v 1.17677 l 1.1183,0.69119 6.1463,-3.19912 6.6317,0.60897 1.3144,1.9659 h 1.8312 l 1.1132,-2.92784 1.3334,0.4445 0.1829,4.36818 c -4.4571,2.26576 -6.5875,4.89347 -6.9598,8.86558 z"
     style="fill:#D64541;fill-opacity:1"
     id="PA_16"
     inkscape:connector-curvature="0" />
</svg>
