<?xml version="1.0" encoding="UTF-8" standalone="no"?>
<svg
   xmlns:dc="http://purl.org/dc/elements/1.1/"
   xmlns:cc="http://creativecommons.org/ns#"
   xmlns:rdf="http://www.w3.org/1999/02/22-rdf-syntax-ns#"
   xmlns:svg="http://www.w3.org/2000/svg"
   xmlns="http://www.w3.org/2000/svg"
   xmlns:sodipodi="http://sodipodi.sourceforge.net/DTD/sodipodi-0.dtd"
   xmlns:inkscape="http://www.inkscape.org/namespaces/inkscape"
   version="1.0"
   width="14.8695"
   height="20.22147"
   id="svg2"
   sodipodi:docname="PA_1.svg"
   inkscape:version="0.92.2 5c3e80d, 2017-08-06">
  <metadata
     id="metadata8">
    <rdf:RDF>
      <cc:Work
         rdf:about="">
        <dc:format>image/svg+xml</dc:format>
        <dc:type
           rdf:resource="http://purl.org/dc/dcmitype/StillImage" />
      </cc:Work>
    </rdf:RDF>
  </metadata>
  <defs
     id="defs6" />
  <sodipodi:namedview
     pagecolor="#ffffff"
     bordercolor="#666666"
     borderopacity="1"
     objecttolerance="10"
     gridtolerance="10"
     guidetolerance="10"
     inkscape:pageopacity="0"
     inkscape:pageshadow="2"
     inkscape:window-width="640"
     inkscape:window-height="480"
     id="namedview4"
     showgrid="false"
     inkscape:zoom="0.12542268"
     inkscape:cx="-1016.6246"
     inkscape:cy="-238.36241"
     inkscape:window-x="0"
     inkscape:window-y="0"
     inkscape:window-maximized="0"
     inkscape:current-layer="svg2" />
  <path
     d="m 8.1532,0 -0.107,0.4783 1.595,1.66594 v 5.63584 l -1.8608,2.83565 -2.2686,-2.32169 -1.276,1.93179 2.0026,1.5596 V 15.0287 L 0,19.03404 v 0.60258 c 0,0.32642 0.2353,0.58484 0.5317,0.58485 0.2965,0 0.7431,-0.3373 0.9925,-0.76208 L 1.985,18.67959 7.5677,16.23384 9.145,13.98305 h 1.7546 l -0.4254,-1.5596 C 10.2409,11.56567 10.0628,10.45184 10.0843,9.94226 l 0.035,-0.92158 1.3291,-1.41783 c 0.724,-0.77816 1.8219,-2.15259 2.4458,-3.04831 L 14.7449,3.54434 14.869,2.55186 13.8942,1.80751 c 0,0 -0.1083,0.66725 -0.1772,1.15198 l -1.3647,-2.0204 -1.0811,1.2406 V 3.68612 H 10.4383 V 2.23285 Z"
     style="fill:#D64541;fill-opacity:1"
     id="PA_1"
     inkscape:connector-curvature="0" />
</svg>
