<?xml version="1.0" encoding="UTF-8" standalone="no"?>
<svg
   xmlns:dc="http://purl.org/dc/elements/1.1/"
   xmlns:cc="http://creativecommons.org/ns#"
   xmlns:rdf="http://www.w3.org/1999/02/22-rdf-syntax-ns#"
   xmlns:svg="http://www.w3.org/2000/svg"
   xmlns="http://www.w3.org/2000/svg"
   xmlns:sodipodi="http://sodipodi.sourceforge.net/DTD/sodipodi-0.dtd"
   xmlns:inkscape="http://www.inkscape.org/namespaces/inkscape"
   version="1.0"
   width="67.681099"
   height="43.675579"
   id="svg2"
   sodipodi:docname="PA_18.svg"
   inkscape:version="0.92.2 5c3e80d, 2017-08-06">
  <metadata
     id="metadata80">
    <rdf:RDF>
      <cc:Work
         rdf:about="">
        <dc:format>image/svg+xml</dc:format>
        <dc:type
           rdf:resource="http://purl.org/dc/dcmitype/StillImage" />
      </cc:Work>
    </rdf:RDF>
  </metadata>
  <defs
     id="defs78" />
  <sodipodi:namedview
     pagecolor="#ffffff"
     bordercolor="#666666"
     borderopacity="1"
     objecttolerance="10"
     gridtolerance="10"
     guidetolerance="10"
     inkscape:pageopacity="0"
     inkscape:pageshadow="2"
     inkscape:window-width="640"
     inkscape:window-height="480"
     id="namedview76"
     showgrid="false"
     inkscape:zoom="0.12542268"
     inkscape:cx="-773.50435"
     inkscape:cy="-190.72221"
     inkscape:window-x="0"
     inkscape:window-y="0"
     inkscape:window-maximized="0"
     inkscape:current-layer="svg2" />
  <path
     d="M 6.344,43.67229 0,12.48348 l 0.9035,-0.009 c 0.4969,-0.005 1.2769,-0.2449 1.7334,-0.53361 L 3.4668,11.41594 1.6098,7.52171 4.3259,6.28415 4.925,8.50902 c 0.3295,1.22368 0.8335,2.36971 1.1199,2.54675 l 0.5208,0.32189 5.0454,-6.82245 11.1796,9.05498 3.2846,-0.68634 -0.6086,2.32719 3.4249,1.19391 1.3177,1.42188 c 0.7248,0.78203 1.5532,1.42188 1.8411,1.42188 h 0.5233 l 0.7128,-3.56416 1.9095,-1.39627 -2.5791,-0.81859 2.3671,-1.65797 V 9.20662 L 31.0539,8.46933 30.3334,7.30354 30.9169,6.71998 33.4764,8.08974 34.7857,6.29909 37.2843,6.95248 36.5572,9.24353 39.5661,8.84437 C 41.2211,8.62484 42.7812,8.31786 43.033,8.16221 L 43.4909,7.8792 V 5.30437 C 41.6108,4.33992 39.5485,3.64965 37.8196,2.42418 l 1.1777,-2.4245 3.4177,1.76734 0.6362,1.65783 4.9689,1.2512 L 47.6627,7.02 c -0.1965,1.28918 -0.5568,2.73498 -0.8006,3.21289 l -0.4432,0.86895 2.0206,2.67871 0.6449,-0.3986 c 0.3547,-0.21923 0.6449,-0.75434 0.6449,-1.18913 0,-0.4348 0.2962,-1.44057 0.6582,-2.23505 l 0.6581,-1.44451 h 1.0785 l -0.7448,3.9699 h 6.5801 l 1.4419,-3.25759 8.2798,3.40818 -0.6111,2.71347 c -0.3361,1.49241 -0.8023,2.90471 -1.0361,3.13844 -0.2337,0.23373 -0.425,1.01244 -0.425,1.73046 v 1.3055 l -1.7162,-0.65859 -2.5372,5.7209 -1.9876,0.53911 -0.4241,-0.68951 c -0.2332,-0.37919 -1.7,-1.31251 -3.2596,-2.07394 l -2.8356,-1.38455 -0.3443,-1.98495 c -0.1894,-1.09172 -0.435,-2.24015 -0.5459,-2.55208 -0.1108,-0.31192 0.1276,-1.16128 0.5298,-1.88748 l 0.7313,-1.32035 -0.6513,-1.69703 -2.3578,1.8677 -2.1004,-0.65019 -1.7834,1.78342 0.017,4.17245 1.0688,1.69038 -1.7589,2.68435 0.62,0.61993 c 0.3409,0.34096 0.6199,0.8161 0.6199,1.05583 v 0.43589 l -1.5867,-0.60881 -0.7828,1.26662 -1.7306,-1.43625 -2.4219,-0.0366 0.2388,-0.85069 c 0.1313,-0.46788 0.2524,-1.48871 0.269,-2.26851 l 0.03,-1.41784 1.7197,-1.31851 -1.5543,-1.4404 c -0.8548,-0.79222 -1.5581,-1.64399 -1.5629,-1.89282 0,-0.24884 -0.2261,-0.79551 -0.4918,-1.21482 l -0.4832,-0.76239 -3.367,1.74113 -0.16,4.25713 -2.8964,2.33208 -0.2491,3.71237 -1.7014,-0.35361 0.3017,-3.74378 -1.1434,-0.29901 c -0.6287,-0.16441 -1.1432,-0.49465 -1.1432,-0.73381 0,-0.23916 0.2414,-0.57503 0.8966,-0.74637 l 1.2593,-0.53816 -0.35,-0.46785 -5.6813,-0.83499 -0.6987,0.40867 2.4158,3.90891 -0.6418,1.67258 h -2.7323 l -0.7061,-0.85069 c -0.3883,-0.46788 -0.9937,-0.84911 -1.3454,-0.84718 -0.3518,0.002 -1.3407,0.3692 -2.1976,0.81627 l -1.5581,0.81275 -1.2424,-2.32143 -1.256,1.25602 h -3.0545 l -0.6845,1.78357 0.5651,1.05588 c 0.3108,0.58074 0.5651,1.58308 0.5651,2.22745 v 1.17152 h 0.8102 c 0.4456,0 1.1884,-0.37828 1.6508,-0.84054 0.4623,-0.46233 0.9271,-1.07902 1.0329,-1.37047 l 0.1925,-0.52987 3.9699,-0.68594 1.656,1.08889 -1.2585,6.02427 2.8413,2.31388 -1.6593,1.37716 -5.7867,0.3447 -1.0603,0.95952 c -0.5832,0.52777 -1.2954,0.96996 -1.5827,0.98261 -0.2874,0.0127 -1.4061,0.77833 -2.486,1.70139 L 8.0876,43.6753 Z"
     style="fill:#D64541;fill-opacity:1"
     id="PA_18"
     inkscape:connector-curvature="0" />
</svg>
