<?xml version="1.0" encoding="UTF-8" standalone="no"?>
<svg
   xmlns:dc="http://purl.org/dc/elements/1.1/"
   xmlns:cc="http://creativecommons.org/ns#"
   xmlns:rdf="http://www.w3.org/1999/02/22-rdf-syntax-ns#"
   xmlns:svg="http://www.w3.org/2000/svg"
   xmlns="http://www.w3.org/2000/svg"
   xmlns:sodipodi="http://sodipodi.sourceforge.net/DTD/sodipodi-0.dtd"
   xmlns:inkscape="http://www.inkscape.org/namespaces/inkscape"
   version="1.0"
   width="19.7866"
   height="15.39173"
   id="svg2"
   sodipodi:docname="PA_14.svg"
   inkscape:version="0.92.2 5c3e80d, 2017-08-06">
  <metadata
     id="metadata48">
    <rdf:RDF>
      <cc:Work
         rdf:about="">
        <dc:format>image/svg+xml</dc:format>
        <dc:type
           rdf:resource="http://purl.org/dc/dcmitype/StillImage" />
      </cc:Work>
    </rdf:RDF>
  </metadata>
  <defs
     id="defs46" />
  <sodipodi:namedview
     pagecolor="#ffffff"
     bordercolor="#666666"
     borderopacity="1"
     objecttolerance="10"
     gridtolerance="10"
     guidetolerance="10"
     inkscape:pageopacity="0"
     inkscape:pageshadow="2"
     inkscape:window-width="640"
     inkscape:window-height="480"
     id="namedview44"
     showgrid="false"
     inkscape:zoom="0.12542268"
     inkscape:cx="-788.27995"
     inkscape:cy="-215.59664"
     inkscape:window-x="0"
     inkscape:window-y="0"
     inkscape:window-maximized="0"
     inkscape:current-layer="svg2" />
  <path
     d="M 17.6401,13.69142 17.0568,15.39173 14.5263,12.73495 11.1641,11.58345 11.8934,8.93228 8.1444,9.64369 0,2.88176 13.2154,1.44407 C 13.9581,0.80315 14.6965,0.24909 15.651,0 h 0.741 l 1.341,1.44704 c 0.7377,0.79588 1.3411,1.68911 1.3411,1.98495 0,0.29585 -0.1444,0.53791 -0.3208,0.53791 -0.1765,0 -0.796,-0.25429 -1.3767,-0.56509 l -1.0559,-0.5651 -1.18,1.01028 0.9084,1.79539 3.6497,0.49125 0.088,2.10932 -2.7334,1.87081 2.3487,0.93925 c -1.0489,0.54771 -1.3703,1.57274 -1.7618,2.63541 z"
     style="fill:#D64541;fill-opacity:1"
     id="PA_14"
     inkscape:connector-curvature="0" />
</svg>
