<?xml version="1.0" encoding="UTF-8" standalone="no"?>
<svg
   xmlns:dc="http://purl.org/dc/elements/1.1/"
   xmlns:cc="http://creativecommons.org/ns#"
   xmlns:rdf="http://www.w3.org/1999/02/22-rdf-syntax-ns#"
   xmlns:svg="http://www.w3.org/2000/svg"
   xmlns="http://www.w3.org/2000/svg"
   xmlns:sodipodi="http://sodipodi.sourceforge.net/DTD/sodipodi-0.dtd"
   xmlns:inkscape="http://www.inkscape.org/namespaces/inkscape"
   version="1.0"
   width="32.858002"
   height="15.24159"
   id="svg2"
   sodipodi:docname="PA_13.svg"
   inkscape:version="0.92.2 5c3e80d, 2017-08-06">
  <metadata
     id="metadata40">
    <rdf:RDF>
      <cc:Work
         rdf:about="">
        <dc:format>image/svg+xml</dc:format>
        <dc:type
           rdf:resource="http://purl.org/dc/dcmitype/StillImage" />
      </cc:Work>
    </rdf:RDF>
  </metadata>
  <defs
     id="defs38" />
  <sodipodi:namedview
     pagecolor="#ffffff"
     bordercolor="#666666"
     borderopacity="1"
     objecttolerance="10"
     gridtolerance="10"
     guidetolerance="10"
     inkscape:pageopacity="0"
     inkscape:pageshadow="2"
     inkscape:window-width="640"
     inkscape:window-height="480"
     id="namedview36"
     showgrid="false"
     inkscape:zoom="0.12542268"
     inkscape:cx="-1000.1779"
     inkscape:cy="-255.12815"
     inkscape:window-x="0"
     inkscape:window-y="0"
     inkscape:window-maximized="0"
     inkscape:current-layer="svg2" />
  <path
     d="M 1.9849,0 0,7.33723 c 0.6146,0.57827 1.3504,1.00226 2.109,1.4001 l 0.9748,-1.52416 9.0209,0.53168 4.3598,1.86089 -0.6912,1.48872 1.8254,3.33188 c 1.8964,-1.56178 3.1301,-3.78969 4.6434,-5.70673 l 1.6482,1.15198 4.9801,2.28623 1.2406,2.09129 0.1772,-0.90386 1.1343,0.93931 -0.089,0.95703 0.957,-1.32921 -0.2836,-0.31901 -0.035,-0.85069 L 32.858,10.74 29.7388,9.44624 29.4021,10.24376 30.3946,10.63367 29.473,11.48436 28.2324,11.02357 28.64,9.9602 c 0.1815,0.0752 0.3722,0.15951 0.3722,0.15951 L 29.4198,9.28673 13.1857,2.44574 12.9199,4.57248 10.6337,5.52951 6.522,4.05852 Z"
     style="fill:#D64541;fill-opacity:1"
     id="PA_13"
     inkscape:connector-curvature="0" />
</svg>
