<?xml version="1.0" encoding="UTF-8" standalone="no"?>
<svg
   xmlns:dc="http://purl.org/dc/elements/1.1/"
   xmlns:cc="http://creativecommons.org/ns#"
   xmlns:rdf="http://www.w3.org/1999/02/22-rdf-syntax-ns#"
   xmlns:svg="http://www.w3.org/2000/svg"
   xmlns="http://www.w3.org/2000/svg"
   xmlns:sodipodi="http://sodipodi.sourceforge.net/DTD/sodipodi-0.dtd"
   xmlns:inkscape="http://www.inkscape.org/namespaces/inkscape"
   version="1.0"
   width="73.673599"
   height="95.137627"
   id="svg2"
   sodipodi:docname="PA_3.svg"
   inkscape:version="0.92.2 5c3e80d, 2017-08-06">
  <metadata
     id="metadata104">
    <rdf:RDF>
      <cc:Work
         rdf:about="">
        <dc:format>image/svg+xml</dc:format>
        <dc:type
           rdf:resource="http://purl.org/dc/dcmitype/StillImage" />
      </cc:Work>
    </rdf:RDF>
  </metadata>
  <defs
     id="defs102" />
  <sodipodi:namedview
     pagecolor="#ffffff"
     bordercolor="#666666"
     borderopacity="1"
     objecttolerance="10"
     gridtolerance="10"
     guidetolerance="10"
     inkscape:pageopacity="0"
     inkscape:pageshadow="2"
     inkscape:window-width="640"
     inkscape:window-height="480"
     id="namedview100"
     showgrid="false"
     inkscape:zoom="0.12542268"
     inkscape:cx="-754.61115"
     inkscape:cy="-242.84627"
     inkscape:window-x="0"
     inkscape:window-y="0"
     inkscape:window-maximized="0"
     inkscape:current-layer="svg2" />
  <path
     d="m 28.7463,0.00178548 c -0.074,-0.0739 -2.6157,2.15558002 -5.6535,4.94465002 -3.0379,2.78907 -5.7713,5.0686995 -6.079,5.0687095 -0.3076,0 -0.5671,-0.2552195 -0.5671,-0.5671195 v -0.56713 h -1.5773 l -0.3545,0.90386 c -0.1894,0.4933895 -0.3367,1.3584095 -0.3367,1.9317795 v 1.04564 l -3.261,2.94198 c -1.7935,1.61817 -4.9836,4.09598 -7.0891,5.51179 L 0,23.785745 v 0.95703 c 0,0.52499 2.0416,10.72764 4.537,22.66742 2.4954,11.93976 4.537,21.83295 4.537,21.97624 0,0.1433 0.5424,0.0863 1.2052,-0.12406 l 1.2051,-0.3899 0.3545,0.54941 c 0.195,0.29714 1.1201,0.88886 2.0558,1.3292 l 1.7014,0.81525 0.5494,2.87109 11.3603,-0.88614 2.7825,2.14446 -2.2154,4.89148 1.6837,5.9903 h 3.6155 l 1.8786,8.5601 17.5632,-4.28891 0.4431,2.28623 1.9495,-3.15465 h 2.0381 l -1.1697,-3.08376 1.79,-1.27604 4.6257,0.0177 -0.6735,5.56495 2.5344,-0.10633 0.8329,-3.98763 7.8512,0.0354 0.6381,-2.26852 c -1.4459,-6.00307 -2.9344,-14.80656 -3.4206,-16.44673 l -2.747,3.26099 -4.8206,2.51663 -0.6203,-0.47851 c -0.4773,0.39614 -2.0549,1.4773 -2.3216,1.4001 -0.2669,-0.0772 -0.989,0.12219 -1.6128,0.44307 -0.6239,0.32086 -1.5171,0.55438 -1.985,0.51396 l -1.0634,-0.0709 -2.3925,2.09128 0.6203,-2.76475 -0.6912,-1.80772 h -1.7368 l -4.8206,-8.38287 1.6482,-1.64822 0.3899,-4.18257 1.276,-1.54189 -0.4962,-1.41782 -1.5773,-0.44307 -2.3394,2.30396 -2.1091,-1.82544 c -2.4488,0.353 -3.6288,0.36541 -4.856,1.32921 l 1.2406,2.44574 c -2.1912,0.82748 -4.922,1.4678 -7.5676,1.86089 -1.1284,-4.56657 -2.2567,-8.34782 -3.3851,-13.6997 l 0.7621,-0.58485 c 0.4224,-0.32201 1.328,-1.48182 2.0027,-2.58753 0.6747,-1.1057 1.7547,-2.61405 2.3926,-3.3496 0.6379,-0.73558 1.1519,-1.68887 1.1519,-2.10901 v -0.76208 l 3.64,-0.30541 -0.5385,-2.10489 c -0.2196,-1.32566 -0.6691,-2.92072 -1.0102,-3.54455 -0.3412,-0.62385 -0.6885,-1.75869 -0.1731,-2.23583 l -0.7662,-0.31625 -0.5849,-0.7798 v -0.77981 l 7.6345,-1.02385 0.9257,3.82405 5.0155,-1.31148 1.4478,4.9569 3.0538,-0.45532 -2.9951,-6.13208 -2.3436,0.63802 -1.2828,-6.78913 1.2406,-1.30887 -0.4649,-2.81652 4.1444,-1.11924 c 0.6967,2.26011 1.5819,4.45874 1.9086,6.81373 l 2.6284,-0.57532 0.7444,-3.40277 -1.895,-3.52276 6.0244,-2.71565 c 1.0021,1.41917 1.5242,2.66384 1.4355,4.5193 l 2.3572,0.74436 1.3292,-1.71911 2.7116,-0.37218 0.9393,-2.55208 -4.5016,0.70891 L 64.1073,9.5011055 32.5744,16.129425 C 31.0596,10.816185 30.1277,5.3512655 28.7463,0.00170548 Z"
     style="fill:#D64541;fill-opacity:1"
     id="PA_3"
     inkscape:connector-curvature="0" />
</svg>
