<?xml version="1.0" encoding="UTF-8" standalone="no"?>
<svg
   xmlns:dc="http://purl.org/dc/elements/1.1/"
   xmlns:cc="http://creativecommons.org/ns#"
   xmlns:rdf="http://www.w3.org/1999/02/22-rdf-syntax-ns#"
   xmlns:svg="http://www.w3.org/2000/svg"
   xmlns="http://www.w3.org/2000/svg"
   xmlns:sodipodi="http://sodipodi.sourceforge.net/DTD/sodipodi-0.dtd"
   xmlns:inkscape="http://www.inkscape.org/namespaces/inkscape"
   version="1.0"
   width="43.067501"
   height="43.316921"
   id="svg2"
   sodipodi:docname="PA_6.svg"
   inkscape:version="0.92.2 5c3e80d, 2017-08-06">
  <metadata
     id="metadata128">
    <rdf:RDF>
      <cc:Work
         rdf:about="">
        <dc:format>image/svg+xml</dc:format>
        <dc:type
           rdf:resource="http://purl.org/dc/dcmitype/StillImage" />
      </cc:Work>
    </rdf:RDF>
  </metadata>
  <defs
     id="defs126" />
  <sodipodi:namedview
     pagecolor="#ffffff"
     bordercolor="#666666"
     borderopacity="1"
     objecttolerance="10"
     gridtolerance="10"
     guidetolerance="10"
     inkscape:pageopacity="0"
     inkscape:pageshadow="2"
     inkscape:window-width="640"
     inkscape:window-height="480"
     id="namedview124"
     showgrid="false"
     inkscape:zoom="0.12542268"
     inkscape:cx="-979.19405"
     inkscape:cy="-237.79391"
     inkscape:window-x="0"
     inkscape:window-y="0"
     inkscape:window-maximized="0"
     inkscape:current-layer="svg2" />
  <path
     d="m 9.3662,43.31692 c -0.1606,0 -0.2921,-0.54461 -0.2921,-1.21024 0,-0.66564 0.2802,-2.14535 0.6226,-3.28826 L 10.3193,36.74041 8.6731,32.80071 11.9951,30.311 0,24.36834 v -0.51867 c 0,-0.28526 0.7019,-1.61241 1.5596,-2.9492 l 1.5596,-2.43054 3.0107,-1.80806 3.2278,0.007 3.2488,1.6944 h 2.7602 c 1.0822,-1.14391 2.225,-2.24126 2.7815,-3.73223 L 17.042,10.99059 H 14.7454 L 14.1629,8.37722 12.5001,7.56037 9.9248,8.16624 8.3154,7.1189 10.3049,1.90929 11.265,2.50264 13.0179,10e-6 l 0.6851,0.68512 -1.2478,2.33156 6.9092,3.43065 -0.3518,2.68418 1.5696,1.89116 c -0.8153,2.90145 -1.7472,5.7741 -2.434,8.70945 l 4.4647,2.04763 1.8611,-3.15056 8.7031,0.42336 3.6748,1.51653 -0.6377,1.66171 1.8126,3.50514 h 1.0287 l 0.7448,2.34677 3.2672,1.98689 -1.7251,2.46293 -3.3447,-2.47287 v -2.09903 l -4.2535,-4.35873 -3.622,-1.8317 -0.7441,1.20399 -1.9718,-1.78446 -2.3961,2.23557 2.6201,2.82376 1.5876,0.054 1.3249,2.4566 2.1769,-1.26926 1.4701,1.78334 c -0.525,0.4681 -1.104,0.61213 -1.899,0.43209 l -0.6529,1.70139 -1.8636,0.0169 -4.5081,3.81355 1.4035,1.6911 -1.3437,5.82105 h -1.4502 l -1.0816,-1.93276 -7.1981,-0.75884 c -2.0715,1.09275 -4.0702,2.34679 -6.2299,3.25873 z"
     style="fill:#D64541;fill-opacity:1"
     id="PA_6"
     inkscape:connector-curvature="0" />
</svg>
