<?xml version="1.0" encoding="UTF-8" standalone="no"?>
<svg
   xmlns:dc="http://purl.org/dc/elements/1.1/"
   xmlns:cc="http://creativecommons.org/ns#"
   xmlns:rdf="http://www.w3.org/1999/02/22-rdf-syntax-ns#"
   xmlns:svg="http://www.w3.org/2000/svg"
   xmlns="http://www.w3.org/2000/svg"
   xmlns:sodipodi="http://sodipodi.sourceforge.net/DTD/sodipodi-0.dtd"
   xmlns:inkscape="http://www.inkscape.org/namespaces/inkscape"
   version="1.0"
   width="130.6413"
   height="87.479599"
   id="svg2"
   sodipodi:docname="PA_9.svg"
   inkscape:version="0.92.2 5c3e80d, 2017-08-06">
  <metadata
     id="metadata152">
    <rdf:RDF>
      <cc:Work
         rdf:about="">
        <dc:format>image/svg+xml</dc:format>
        <dc:type
           rdf:resource="http://purl.org/dc/dcmitype/StillImage" />
      </cc:Work>
    </rdf:RDF>
  </metadata>
  <defs
     id="defs150" />
  <sodipodi:namedview
     pagecolor="#ffffff"
     bordercolor="#666666"
     borderopacity="1"
     objecttolerance="10"
     gridtolerance="10"
     guidetolerance="10"
     inkscape:pageopacity="0"
     inkscape:pageshadow="2"
     inkscape:window-width="640"
     inkscape:window-height="480"
     id="namedview148"
     showgrid="false"
     inkscape:zoom="0.12542268"
     inkscape:cx="-808.77195"
     inkscape:cy="-182.58885"
     inkscape:window-x="0"
     inkscape:window-y="0"
     inkscape:window-maximized="0"
     inkscape:current-layer="svg2" />
  <path
     d="M 52.1758,0 C 45.7735,5.6664 50.7071,2.377 46.2209,6.16752 V 8.3297 l -1.9495,0.76208 -1.276,-1.73683 c -2.2138,0.63972 -3.8879,1.13639 -5.8308,1.09881 l -0.8507,-3.03059 -18.0063,3.50911 1.8254,8.0993 -7.603,17.47466 0.2304,2.30396 c 1.1584,-0.002 2.3491,0.47987 3.4736,1.22287 l 1.5242,-1.27604 0.7798,1.24059 1.5064,-1.24059 1.1874,2.03812 0.035,-1.06337 3.775,3.65089 1.3115,-2.87109 c 1.7897,0.18126 2.564,0.60418 3.8458,1.66594 0.3276,-0.77819 1.2556,-0.95142 2.0913,-0.81524 l 1.4178,-2.83565 2.1976,0.33674 1.2938,-7.14228 -4.537,-2.55208 h -4.413 l -2.5167,2.26851 -2.2685,-2.74703 2.4103,-4.71425 1.5774,1.3292 1.1874,-0.74435 c -0.1411,-1.76746 0.3314,-2.75376 1.6128,-4.18258 2.442,2.00325 3.8576,2.55884 6.0966,3.58 l 1.9317,-1.08109 0.709,-4.46613 1.4887,-1.2406 2.6229,0.37218 v 2.78248 l -2.5166,0.62029 0.9925,1.57733 3.6154,-0.72663 2.7293,0.69118 v 7.17773 l 6.2916,1.27604 c 1.0044,2.15774 1.1943,3.93382 1.0811,6.36247 l -1.8432,2.03812 -0.7089,6.52198 -5.175,1.45327 -1.0634,4.78515 -2.8356,0.65574 -1.471,3.04831 1.1874,2.21535 -3.4028,2.4103 -2.0026,-0.63802 -5.6536,3.70406 -0.3545,2.44574 -1.5596,1.31149 1.1875,2.60527 -1.276,2.39255 -5.9549,-2.25077 -0.2659,-2.21537 c -2.0181,-0.7684 -4.099,-1.18972 -6.5574,-1.38238 l -1.471,2.55208 -3.9876,-1.32918 0.4785,2.09129 -2.0913,3.56225 1.7191,0.65577 v 2.30396 H 11.0408 L 9.747,77.07636 H 8.2406 L 5.3517,83.10211 2.8351,79.96515 -5e-4,82.21597 3.6858,85.38831 V 87.4796 C 39.818,79.77357 76.6176,71.48782 114.5063,62.29557 l -3.6332,-15.77329 -2.2025,-0.39108 -1.793,-2.80323 0.6679,-1.63608 3.1327,0.77187 1.6342,3.29712 6.9613,-3.59841 -1.0102,-1.82544 2.2508,-2.85337 c -0.6386,-1.74345 -1.0948,-3.30563 -2.428,-4.69653 l -3.0661,2.92425 -1.8725,-5.09622 6.1083,-0.46873 4.094,-3.26099 v -4.19608 c 2.3495,0.13871 4.8605,-1.73964 7.2908,-2.81116 l -0.9302,-1.33597 -8.4862,2.45925 -2.1279,-2.25079 -2.1561,1.4001 -0.072,6.31117 -1.6561,-0.0263 -3.1871,-6.05443 0.9925,-3.11921 -4.1282,-2.86012 7.3714,-6.55067 2.6408,3.03059 -0.5495,2.10901 h 1.5951 v -1.20515 l 2.2685,0.70891 c 0,-0.91567 -0.2485,-1.79101 -1.0988,-2.74703 l 2.8002,-2.62297 1.3763,-3.51841 -0.1577,-2.64608 -2.6705,1.0715 -1.9509,-1.80116 -3.6521,-0.10331 c -0.9318,0.37257 -1.8635,1.26958 -3.0373,1.35976 l -0.02,1.99053 -5.4837,4.39153 -2.9419,-3.56228 -4.2712,3.91674 -0.3368,3.03059 -4.5724,5.1396 -4.6256,-3.68633 4.537,-6.78782 -5.1751,-2.6407 c -1.7167,1.53043 -2.5055,1.97164 -7.6917,1.80773 l -4.7142,4.04079 -9.269,-1.04565 -9.7121,2.96519 -1.158,-0.71312 0.6936,-3.33688 c -1.0345,-0.0134 -1.7866,0.0941 -2.6194,0.32273 l -1.177,0.73741 0.089,4.59715 -2.5769,0.87448 -0.7621,-0.7798 -0.4248,-6.6289 2.2374,-2.66071 -0.013,-1.55123 z"
     style="fill:#D64541;fill-opacity:1"
     id="PA_9"
     inkscape:connector-curvature="0" />
</svg>
