<?xml version="1.0" encoding="UTF-8" standalone="no"?>
<svg
   xmlns:dc="http://purl.org/dc/elements/1.1/"
   xmlns:cc="http://creativecommons.org/ns#"
   xmlns:rdf="http://www.w3.org/1999/02/22-rdf-syntax-ns#"
   xmlns:svg="http://www.w3.org/2000/svg"
   xmlns="http://www.w3.org/2000/svg"
   xmlns:sodipodi="http://sodipodi.sourceforge.net/DTD/sodipodi-0.dtd"
   xmlns:inkscape="http://www.inkscape.org/namespaces/inkscape"
   version="1.0"
   width="23.232525"
   height="38.90831"
   id="svg2"
   sodipodi:docname="RI_2.svg"
   inkscape:version="0.92.2 5c3e80d, 2017-08-06">
  <metadata
     id="metadata16">
    <rdf:RDF>
      <cc:Work
         rdf:about="">
        <dc:format>image/svg+xml</dc:format>
        <dc:type
           rdf:resource="http://purl.org/dc/dcmitype/StillImage" />
      </cc:Work>
    </rdf:RDF>
  </metadata>
  <defs
     id="defs14" />
  <sodipodi:namedview
     pagecolor="#ffffff"
     bordercolor="#666666"
     borderopacity="1"
     objecttolerance="10"
     gridtolerance="10"
     guidetolerance="10"
     inkscape:pageopacity="0"
     inkscape:pageshadow="2"
     inkscape:window-width="640"
     inkscape:window-height="480"
     id="namedview12"
     showgrid="false"
     inkscape:zoom="0.12542268"
     inkscape:cx="-1143.7656"
     inkscape:cy="-373.53594"
     inkscape:window-x="0"
     inkscape:window-y="0"
     inkscape:window-maximized="0"
     inkscape:current-layer="svg2" />
  <path
     d="M 10.919,37.5555 8.6147,38.90831 7.4031,33.71886 8.6425,32.93661 7.3014,27.37289 C 5.3856,19.12799 2.1035,11.26905 0,3.08512 L 7.9035,0 l 1.1568,3.3185 4.7302,-0.0909 5.1042,1.42948 1.2216,1.86961 c 0.6718,1.02828 1.3846,2.61183 1.5838,3.51899 l 0.3623,1.64937 -3.4513,-0.50654 v 2.47369 l 2.0393,-0.64726 1.4669,4.05651 -1.8694,1.3669 2.8989,3.37077 0.068,1.13426 c 0.037,0.62384 0.015,1.38947 -0.051,1.70139 -0.065,0.31192 -0.1901,1.58796 -0.2775,2.83564 l -0.3052,3.68634 h -2.0548 l -3.6514,2.51796 c -2.0083,1.38488 -4.6884,3.12672 -5.9558,3.87076 z"
     style="fill:#D64541;fill-opacity:1"
     id="RI_2"
     inkscape:connector-curvature="0" />
</svg>
