<?xml version="1.0" encoding="UTF-8" standalone="no"?>
<svg
   xmlns:dc="http://purl.org/dc/elements/1.1/"
   xmlns:cc="http://creativecommons.org/ns#"
   xmlns:rdf="http://www.w3.org/1999/02/22-rdf-syntax-ns#"
   xmlns:svg="http://www.w3.org/2000/svg"
   xmlns="http://www.w3.org/2000/svg"
   xmlns:sodipodi="http://sodipodi.sourceforge.net/DTD/sodipodi-0.dtd"
   xmlns:inkscape="http://www.inkscape.org/namespaces/inkscape"
   version="1.0"
   width="78.175003"
   height="116.27654"
   id="svg2"
   sodipodi:docname="SC_1.svg"
   inkscape:version="0.92.2 5c3e80d, 2017-08-06">
  <metadata
     id="metadata8">
    <rdf:RDF>
      <cc:Work
         rdf:about="">
        <dc:format>image/svg+xml</dc:format>
        <dc:type
           rdf:resource="http://purl.org/dc/dcmitype/StillImage" />
      </cc:Work>
    </rdf:RDF>
  </metadata>
  <defs
     id="defs6" />
  <sodipodi:namedview
     pagecolor="#ffffff"
     bordercolor="#666666"
     borderopacity="1"
     objecttolerance="10"
     gridtolerance="10"
     guidetolerance="10"
     inkscape:pageopacity="0"
     inkscape:pageshadow="2"
     inkscape:window-width="640"
     inkscape:window-height="480"
     id="namedview4"
     showgrid="false"
     inkscape:zoom="0.12542268"
     inkscape:cx="-876.62885"
     inkscape:cy="257.81297"
     inkscape:window-x="0"
     inkscape:window-y="0"
     inkscape:window-maximized="0"
     inkscape:current-layer="svg2" />
  <path
     d="m 16.0754,115.24044 -1.1369,1.0361 -5.6659,-3.0676 0.3891,-5.4159 -1.4066,-1.6948 0.8356,-2.5815 c 2.4564,-0.3315 3.0933,-0.7733 4.061,-1.9869 l -3.1474,-3.2025 -1.9766,0.2238 -3.1897,-3.0844 c 0.4624,-1.3301 0.084,-2.6136 -3.3106,-6.0476 L 2.2386,84.67654 0,82.59094 1.8749,78.79908 c 1.0312,-2.08556 2.5138,-4.60815 3.2946,-5.6059 l 1.4197,-1.81402 4.8015,-1.63072 4.4038,5.98548 v 2.47512 l 5.6488,7.2226 0.023,7.0012 -3.9699,1.3101 v 2.6836 c 2.7924,1.0328 4.2587,3.1877 5.6023,5.4463 l 1.1301,-2.5243 c 0.6439,-1.1778 0.6814,-2.08 0.6085,-3.3681 l 2.3003,-1.2311 v -2.2781 l 2.8357,-3.0581 -0.055,-1.9899 c 0,-0.5789 1.3969,-1.5645 1.8237,-2.3924 0.4268,-0.828 0.6443,-2.6089 1.6963,-4.9013 l 1.9128,-4.16781 2.6252,-1.60934 2.1426,0.65844 1.2059,-4.47811 3.5932,-1.4785 1.4524,-6.29054 -1.6516,-0.92425 -1.4178,-2.21214 -1.4178,-0.75882 v -2.17494 l 3.5488,-4.94167 -0.7294,-1.90068 2.4794,-12.34191 2.1547,-0.7671 0.061,-0.98765 -4.606,-3.94251 -1.1634,-5.64724 -3.4465,-1.15394 -0.8373,-1.90033 -1.0104,-0.76801 -0.018,-1.87067 1.3424,-0.37419 c 0.4047,-0.72133 -0.2733,-1.43234 0.3129,-2.11919 L 42.0296,16.01288 41.4224,13.691 42.4502,11.61537 43.2763,8.38784 C 43.7306,7.40495 44.6488,5.11556 45.3167,3.30041 L 46.5311,0 78.1756,20.53278 c 0,0.17649 -1.0771,0.92839 -2.3982,1.67082 l -2.4018,1.34994 -2.918,2.98871 c -1.6048,1.64377 -3.8516,4.39536 -4.9928,6.11467 -1.1412,1.71925 -2.973,5.10943 -4.0708,7.53374 -1.0977,2.42424 -2.5276,5.41443 -3.1776,6.64482 -0.65,1.23038 -1.5253,3.52725 -1.9453,5.10415 l -0.7635,2.86707 -0.01,4.99963 -0.01,4.9997 1.0288,1.92245 -0.5961,3.11819 -6.2259,6.22593 0.6581,1.71523 -0.678,3.39031 h -3.3356 l -2.2883,1.2247 -2.1937,-1.9853 -3.152,3.0199 -1.4588,4.0341 1.3781,1.6605 1.5509,-1.2872 v 0.9002 0.9001 l -1.1838,0.6336 c -0.6511,0.3484 -1.9154,1.442 -2.8097,2.4302 l -1.626,1.7968 -0.6841,2.8356 -2.3244,1.7014 c -1.2784,0.9358 -2.7635,1.9398 -3.3003,2.2311 l -0.976,0.5298 -0.097,5.1789 -4.5973,3.9699 0.018,1.4178 h -0.8789 c -0.4834,0 -1.6956,0.4127 -2.6939,0.9171 -0.9982,0.5043 -2.3265,1.3833 -2.9519,1.9531 z"
     style="fill:#D64541"
     id="SC_1"
     inkscape:connector-curvature="0" />
</svg>
