<?xml version="1.0" encoding="UTF-8" standalone="no"?>
<svg
   xmlns:dc="http://purl.org/dc/elements/1.1/"
   xmlns:cc="http://creativecommons.org/ns#"
   xmlns:rdf="http://www.w3.org/1999/02/22-rdf-syntax-ns#"
   xmlns:svg="http://www.w3.org/2000/svg"
   xmlns="http://www.w3.org/2000/svg"
   xmlns:sodipodi="http://sodipodi.sourceforge.net/DTD/sodipodi-0.dtd"
   xmlns:inkscape="http://www.inkscape.org/namespaces/inkscape"
   version="1.0"
   width="107.6526"
   height="105.76464"
   id="svg2"
   sodipodi:docname="SC_3.svg"
   inkscape:version="0.92.2 5c3e80d, 2017-08-06">
  <metadata
     id="metadata24">
    <rdf:RDF>
      <cc:Work
         rdf:about="">
        <dc:format>image/svg+xml</dc:format>
        <dc:type
           rdf:resource="http://purl.org/dc/dcmitype/StillImage" />
      </cc:Work>
    </rdf:RDF>
  </metadata>
  <defs
     id="defs22" />
  <sodipodi:namedview
     pagecolor="#ffffff"
     bordercolor="#666666"
     borderopacity="1"
     objecttolerance="10"
     gridtolerance="10"
     guidetolerance="10"
     inkscape:pageopacity="0"
     inkscape:pageshadow="2"
     inkscape:window-width="640"
     inkscape:window-height="480"
     id="namedview20"
     showgrid="false"
     inkscape:zoom="0.12542268"
     inkscape:cx="-705.32405"
     inkscape:cy="235.12567"
     inkscape:window-x="0"
     inkscape:window-y="0"
     inkscape:window-maximized="0"
     inkscape:current-layer="svg2" />
  <path
     d="m 97.5206,105.76464 c -0.1711,-0.036 -0.8216,-0.1737 -1.4454,-0.3056 -0.6239,-0.132 -1.7317,-0.3683 -2.4619,-0.5251 l -1.3276,-0.2853 0.6385,-1.6637 -1.1016,-2.8973 -1.9858,0.2628 -2.9124,-1.4134 0.3417,-5.602 -2.2499,-2.24997 h -1.5427 l -2.0077,-1.89348 c -1.1042,-1.04136 -2.9506,-2.34088 -4.103,-2.8877 L 75.2676,85.3096 73.1065,85.87474 70.95,84.84665 69.618,82.75616 c -0.7327,-1.1498 -1.7807,-2.93625 -2.3291,-3.9699 -0.5483,-1.03371 -1.1863,-1.88004 -1.4178,-1.88072 -0.2314,-7.3e-4 -1.2957,-0.74906 -2.3649,-1.66287 l -1.9441,-1.66158 -2.593,-0.93015 c -1.4261,-0.51155 -3.562,-1.3387 -4.7464,-1.83806 l -2.1535,-0.90797 0.074,-1.36071 -3.7066,-0.52273 -1.1343,-1.87606 c -0.6238,-1.03183 -1.8361,-2.62512 -2.6938,-3.54075 -0.8578,-0.91558 -1.5596,-1.78487 -1.5596,-1.93181 0,-0.14695 -0.7019,-0.88484 -1.5597,-1.63986 -0.8577,-0.75496 -1.8534,-1.38073 -2.2124,-1.3906 l -0.6529,-0.0179 -1.0975,-1.86001 c -0.6036,-1.02304 -1.2851,-2.608 -1.5146,-3.52215 l -0.4171,-1.66209 -1.0715,-1.15665 c -0.5893,-0.63621 -1.8125,-1.9287 -2.7182,-2.87228 -0.9058,-0.94354 -2.2213,-2.8416 -2.9235,-4.21791 -0.7021,-1.37631 -1.6322,-2.85799 -2.0669,-3.29269 l -0.7904,-0.79035 -2.5391,0.34436 c -1.3965,0.18936 -2.93,0.49431 -3.4076,0.6776 l -0.8684,0.33325 -1.6912,-0.70052 c -0.9302,-0.38531 -1.6968,-0.86096 -1.7037,-1.05707 -0.01,-0.19612 -1.1547,-1.12218 -2.5508,-2.05794 -1.3961,-0.93576 -2.539,-1.89279 -2.5396,-2.12673 V 33.23796 L 7.0375,33.15506 5.3361,32.07071 C 4.4003,31.47427 3.076,30.73955 2.3932,30.43789 L 1.1516,29.88948 0.0015,27.74046 1.1872,26.55476 1.4396,22.90881 3.3055,21.86455 4.0445,17.9255 H 5.5797 L 6.2568,16.64946 C 6.6293,15.94764 7.3739,15.06094 7.9116,14.67898 L 8.8893,13.98453 9.6274,9.13501 23.6196,1.71385 25.865,2.96896 C 27.1289,2.35708 28.2906,1.5555 28.5613,1.29831 L 29.6888,1.25891 33.6182,0 l 0.9325,3.61397 2.5588,-0.62849 0.093,2.09327 6.5674,12.5361 0.653,5.13331 3.5171,7.40511 6.3509,3.3211 3.3389,-4.08168 -0.7014,-3.50678 c 0.8736,-3.71651 1.4115,-7.5043 2.2605,-11.22387 l 3.7171,1.3108 1.314,2.31734 6.4948,1.74472 2.6046,2.3482 12.5223,1.10505 1.473,0.65894 c -1.4975,2.97363 -3.0381,6.27086 -4.2482,7.08894 l -0.9097,3.63507 -5.0788,5.45351 c 0.2554,1.40461 0.097,3.29797 -1.2846,6.63728 l 3.4677,2.72278 0.9595,-1.70139 4.3558,-0.16838 2.134,-1.56034 c 2.2605,0.50152 6.7287,2.62212 11.179,4.72952 l 3.008,-0.57502 -2.5962,12.66093 1.7562,1.36003 1.3933,2.23097 -1.803,7.12665 -2.5669,3.40964 c -1.0223,3.09045 -1.1385,6.48296 -1.2876,9.86452 l 1.3578,2.97998 4.4614,2.27606 3.8716,-0.72633 2.1702,0.68873 c -3.3994,4.4695 -6.3932,9.2881 -10.132,13.4844 z"
     style="fill:#D64541"
     id="SC_3"
     inkscape:connector-curvature="0" />
</svg>
