<?xml version="1.0" encoding="UTF-8" standalone="no"?>
<svg
   xmlns:dc="http://purl.org/dc/elements/1.1/"
   xmlns:cc="http://creativecommons.org/ns#"
   xmlns:rdf="http://www.w3.org/1999/02/22-rdf-syntax-ns#"
   xmlns:svg="http://www.w3.org/2000/svg"
   xmlns="http://www.w3.org/2000/svg"
   xmlns:sodipodi="http://sodipodi.sourceforge.net/DTD/sodipodi-0.dtd"
   xmlns:inkscape="http://www.inkscape.org/namespaces/inkscape"
   version="1.0"
   width="342.97458"
   height="215.16789"
   id="svg2"
   sodipodi:docname="SD_0.svg"
   inkscape:version="0.92.2 5c3e80d, 2017-08-06">
  <metadata
     id="metadata8">
    <rdf:RDF>
      <cc:Work
         rdf:about="">
        <dc:format>image/svg+xml</dc:format>
        <dc:type
           rdf:resource="http://purl.org/dc/dcmitype/StillImage" />
      </cc:Work>
    </rdf:RDF>
  </metadata>
  <defs
     id="defs6" />
  <sodipodi:namedview
     pagecolor="#ffffff"
     bordercolor="#666666"
     borderopacity="1"
     objecttolerance="10"
     gridtolerance="10"
     guidetolerance="10"
     inkscape:pageopacity="0"
     inkscape:pageshadow="2"
     inkscape:window-width="640"
     inkscape:window-height="480"
     id="namedview4"
     showgrid="false"
     inkscape:zoom="0.12542268"
     inkscape:cx="317.68684"
     inkscape:cy="-257.07629"
     inkscape:window-x="0"
     inkscape:window-y="0"
     inkscape:window-maximized="0"
     inkscape:current-layer="svg2" />
  <path
     d="m 342.59339,215.1679 -1.4341,-2.3991 -3.9121,0.63484 -0.4806,-1.2446 c -0.2644,-0.68453 -1.1633,-1.8322 -1.9975,-2.55039 l -1.5169,-1.30579 0.7655,-3.48496 -1.5391,-0.9752 -3.6864,-0.0174 v -1.67304 l -5.2149,-2.37569 -1.7347,0.66566 -1.2737,-1.5351 -4.7019,-1.3302 -1.7324,0.66478 -1.1781,-1.1781 -2.9076,-1.17811 -0.1677,-2.50462 -6.3383,-0.43642 -5.092,0.3258 -15.0466,0.37716 -2.2937,-1.22753 -2.2231,0.70556 -0.7158,3.04361 -2.9018,3.11921 h -3.5045 l -4.5066,-4.49972 -0.9945,-0.0187 c -0.547,-0.0103 -1.9469,-0.52907 -3.1109,-1.15291 -1.1639,-0.62384 -2.5666,-1.13425 -3.1171,-1.13425 h -1.0009 v -1.10103 l -6.2562,-2.95968 -1.6232,-3.13887 C 160.19359,185.70089 85.32839,184.50893 0,181.70724 5.0414,59.91938 6.04,60.28605 8.4505,-7e-5 115.11199,3.46467 224.39929,5.17889 331.06079,1.20387 V 6.7683 l -1.4179,2.08651 c -0.7798,1.14759 -1.4178,2.34228 -1.4178,2.65487 0,0.31259 -0.9559,1.28317 -2.1243,2.15682 -1.1684,0.87366 -3.2101,2.64497 -4.5371,3.93626 l -2.4126,2.34778 v 2.13076 l 4.3637,5.28067 0.7528,1.8863 c 0.414,1.03747 1.236,2.58812 1.8266,3.4459 l 1.0739,1.55961 h 3.3632 l 5.4082,2.74053 1.4941,3.21432 c 1.4577,37.12836 2.9155,74.25671 4.3733,111.38506 l -6.3448,0.33929 -0.3714,4.18869 3.8947,3.41962 -0.6858,5.00375 -1.718,-0.13522 c -0.2101,0.9614 -0.2836,1.86487 0.028,2.80323 0.2069,0.32975 0.383,0.96331 0.3912,1.40791 l 0.015,0.80838 3.3056,0.88708 0.9479,-0.58582 0.047,0.45881 c 0.026,0.25235 0.1697,1.21808 0.3201,2.14607 0.1503,0.92799 0.5131,1.97609 0.8061,2.32911 l 0.5327,0.64185 -0.6872,3.43591 -2.8309,1.28987 0.3896,0.97929 c 0.2144,0.53861 0.4308,1.95818 0.481,3.15459 l 0.091,2.17528 -1.4178,1.17603 v 5.00087 l -1.5991,0.61361 -0.3627,1.44529 c -0.1995,0.79491 -0.733,1.81551 -1.1855,2.26799 l -0.8226,0.82269 c -0.06,1.26789 0.1037,2.50881 0.3574,3.7471 l 5.3387,4.74681 1.1094,2.84867 v 2.18749 h 0.9074 v 1.98495 c 0,1.09173 -0.068,1.98495 -0.1502,1.98495 z"
     style="fill:#D64541;fill-opacity:1"
     id="SD_At-Large"
     inkscape:connector-curvature="0" />
</svg>
