<?xml version="1.0" encoding="UTF-8" standalone="no"?>
<svg
   xmlns:dc="http://purl.org/dc/elements/1.1/"
   xmlns:cc="http://creativecommons.org/ns#"
   xmlns:rdf="http://www.w3.org/1999/02/22-rdf-syntax-ns#"
   xmlns:svg="http://www.w3.org/2000/svg"
   xmlns="http://www.w3.org/2000/svg"
   xmlns:sodipodi="http://sodipodi.sourceforge.net/DTD/sodipodi-0.dtd"
   xmlns:inkscape="http://www.inkscape.org/namespaces/inkscape"
   version="1.0"
   width="47.800098"
   height="27.69136"
   id="svg2"
   sodipodi:docname="TN_5.svg"
   inkscape:version="0.92.2 5c3e80d, 2017-08-06">
  <metadata
     id="metadata40">
    <rdf:RDF>
      <cc:Work
         rdf:about="">
        <dc:format>image/svg+xml</dc:format>
        <dc:type
           rdf:resource="http://purl.org/dc/dcmitype/StillImage" />
      </cc:Work>
    </rdf:RDF>
  </metadata>
  <defs
     id="defs38" />
  <sodipodi:namedview
     pagecolor="#ffffff"
     bordercolor="#666666"
     borderopacity="1"
     objecttolerance="10"
     gridtolerance="10"
     guidetolerance="10"
     inkscape:pageopacity="0"
     inkscape:pageshadow="2"
     inkscape:window-width="640"
     inkscape:window-height="480"
     id="namedview36"
     showgrid="false"
     inkscape:zoom="0.12542268"
     inkscape:cx="-500.35005"
     inkscape:cy="107.61306"
     inkscape:window-x="0"
     inkscape:window-y="0"
     inkscape:window-maximized="0"
     inkscape:current-layer="svg2" />
  <path
     d="M 9.4761,27.69136 9.0852,27.3005 C 8.8702,27.0855 8.6943,26.44175 8.6943,25.86986 V 24.83014 H 5.1702 L 6.5475,18.73748 4.7972,16.03965 6.4258,13.83788 V 11.35664 L 2.943,9.91403 3.5414,7.52982 0,1.09297 1.6755,0 3.1704,1.2753 c 1.0107,0.58834 2.348,1.34376 2.9719,1.67865 0.6238,0.33489 1.5808,0.9674 2.1267,1.40568 l 0.9645,0.69899 3.4307,-2.48539 1.2405,1.09666 1.4763,-0.38412 0.6478,1.68795 2.8383,-1.29323 -0.4952,-0.80129 1.3169,-1.84357 1.9579,3.66144 4.0883,2.178 0.6633,2.6426 3.6325,-0.2399 0.3892,-4.23798 0.923,2.20936 4.6513,-4.82059 1.9011,2.29341 0.8568,-1.69282 V 1.64479 l 0.8189,-0.56271 0.7282,2.21163 2.5682,-0.16452 0.6412,-2.40202 0.9739,3.40725 1.154,-3.12368 h 0.7167 c 0.3942,0 0.881,0.16424 1.0818,0.365 l 0.365,0.365 -3.0931,5.50728 -1.9849,10e-4 v 0.73727 c 0,0.4055 0.2788,1.01612 0.6196,1.35691 l 0.6197,0.6197 -1.2295,2.29744 0.8676,2.6245 -0.7037,1.93743 c -0.7588,0.31328 -1.7141,0.63507 -2.1113,0.63507 l -1.6141,0.7257 -0.8576,1.65108 C 36.8449,19.03345 35.4101,18.1671 33.8991,17.45734 l -0.1595,2.67367 -1.4558,-0.36183 -0.2234,2.35228 -1.9671,1.92591 0.079,2.63074 -8.1501,-3.17626 -7.7965,-0.47179 z"
     style="fill:#D64541;fill-opacity:1"
     id="TN_5"
     inkscape:connector-curvature="0" />
</svg>
