<?xml version="1.0" encoding="UTF-8" standalone="no"?>
<svg
   xmlns:dc="http://purl.org/dc/elements/1.1/"
   xmlns:cc="http://creativecommons.org/ns#"
   xmlns:rdf="http://www.w3.org/1999/02/22-rdf-syntax-ns#"
   xmlns:svg="http://www.w3.org/2000/svg"
   xmlns="http://www.w3.org/2000/svg"
   xmlns:sodipodi="http://sodipodi.sourceforge.net/DTD/sodipodi-0.dtd"
   xmlns:inkscape="http://www.inkscape.org/namespaces/inkscape"
   version="1.0"
   width="103.5309"
   height="94.664322"
   id="svg2"
   sodipodi:docname="TN_6.svg"
   inkscape:version="0.92.2 5c3e80d, 2017-08-06">
  <metadata
     id="metadata48">
    <rdf:RDF>
      <cc:Work
         rdf:about="">
        <dc:format>image/svg+xml</dc:format>
        <dc:type
           rdf:resource="http://purl.org/dc/dcmitype/StillImage" />
      </cc:Work>
    </rdf:RDF>
  </metadata>
  <defs
     id="defs46" />
  <sodipodi:namedview
     pagecolor="#ffffff"
     bordercolor="#666666"
     borderopacity="1"
     objecttolerance="10"
     gridtolerance="10"
     guidetolerance="10"
     inkscape:pageopacity="0"
     inkscape:pageshadow="2"
     inkscape:window-width="640"
     inkscape:window-height="480"
     id="namedview44"
     showgrid="false"
     inkscape:zoom="0.12542268"
     inkscape:cx="-500.29745"
     inkscape:cy="151.25639"
     inkscape:window-x="0"
     inkscape:window-y="0"
     inkscape:window-maximized="0"
     inkscape:current-layer="svg2" />
  <path
     d="M 26.269,94.66432 25.0674,91.21749 23.6354,93.17584 20.7271,90.03769 19.9826,86.6479 18.2,86.22415 v -2.21408 l 2.5563,-1.60111 1.9989,-3.82444 0.7627,-11.48736 c 1.5696,0.25073 3.172,0.23825 4.795,0.0614 l 0.2402,-2.9489 3.1621,-3.48404 0.6856,-3.42806 -1.7906,-3.52947 -0.1492,-6.35752 2.005,-1.91587 0.06,-2.09724 1.5208,0.33183 0.1204,-2.59105 4.3425,2.41796 0.8546,-1.92053 1.4517,-0.64908 c 0.6085,-0.0175 1.4357,-0.32661 2.2626,-0.63512 l 0.7668,-2.09248 -0.8183,-2.687 1.1904,-2.36323 c -1.0253,-0.8356 -1.3303,-1.62317 -1.2394,-2.38437 h 1.7999 l 3.2606,-5.76668 c -0.1229,-0.53696 -0.7245,-0.75479 -1.3993,-0.9238 l -1.0755,0.003 -0.9856,2.75551 -1.0194,-3.44299 -0.7768,2.81597 -2.2975,0.15375 -0.7679,-2.3292 -1.1437,0.78865 c 0.077,0.90326 -0.069,1.81827 -0.6983,2.75868 l -1.7803,-2.23658 -4.624,4.67552 -1.1276,-2.51323 -0.5323,4.89489 -3.2235,0.20989 -0.6191,-2.59864 -4.1172,-2.27901 -2.109,-3.86719 -1.5516,2.30039 0.4217,0.74537 -2.3845,1.0383 -0.6705,-1.74743 -1.6095,0.52623 -1.1507,-1.1507 -3.4507,2.46366 C 8.445,27.15023 6.3513,25.88219 3.3638,24.37476 L 1.999,23.21379 1.6576,14.3 C 1.0418,13.69522 0.3029,12.9047 -2e-4,12.16595 L 25.477,8.02291 27.1896,8.87343 30.1545,7.37133 77.5944,2.80294 89.8636,-3e-5 90.4133,5.74645 92.1147,5.09358 v 1.09864 h 2.1155 l 2.9894,2.35148 2.6999,4.73763 0.6794,5.38069 2.9318,5.78567 -1.2128,3.47934 0.5747,0.57473 -1.8952,2.09418 -4.4325,0.70879 0.3704,7.7835 -1.3233,-0.003 -2.2008,-3.02132 -10.4192,-1.51571 -5.6436,5.27895 0.6342,1.99828 -1.1197,0.69201 1.6621,4.71097 -0.9684,0.64732 0.096,3.15987 -8.7875,0.34793 -2.3956,2.16348 -3.3927,6.71549 0.6805,4.25579 -3.8551,1.27224 c -2.125,-0.57138 -4.2516,-1.1532 -6.4747,-2.41109 l -2.6416,0.66303 c 1.5001,10.40403 2.5469,11.66016 2.1966,16.96446 -2.4284,2.46588 -4.8474,5.09072 -7.3727,5.9088 v 1.5097 h -1.7125 l -1.737,-2.02873 -6.3239,0.32734 0.5268,2.75596 -2.5177,0.6319 -4.1123,4.55194 z"
     style="fill:#D64541;fill-opacity:1"
     id="TN_6"
     inkscape:connector-curvature="0" />
</svg>
