<?xml version="1.0" encoding="UTF-8" standalone="no"?>
<svg
   xmlns:dc="http://purl.org/dc/elements/1.1/"
   xmlns:cc="http://creativecommons.org/ns#"
   xmlns:rdf="http://www.w3.org/1999/02/22-rdf-syntax-ns#"
   xmlns:svg="http://www.w3.org/2000/svg"
   xmlns="http://www.w3.org/2000/svg"
   xmlns:sodipodi="http://sodipodi.sourceforge.net/DTD/sodipodi-0.dtd"
   xmlns:inkscape="http://www.inkscape.org/namespaces/inkscape"
   version="1.0"
   width="157.3605"
   height="128.2243"
   id="svg2"
   sodipodi:docname="TX_14.svg"
   inkscape:version="0.92.2 5c3e80d, 2017-08-06">
  <metadata
     id="metadata48">
    <rdf:RDF>
      <cc:Work
         rdf:about="">
        <dc:format>image/svg+xml</dc:format>
        <dc:type
           rdf:resource="http://purl.org/dc/dcmitype/StillImage" />
      </cc:Work>
    </rdf:RDF>
  </metadata>
  <defs
     id="defs46" />
  <sodipodi:namedview
     pagecolor="#ffffff"
     bordercolor="#666666"
     borderopacity="1"
     objecttolerance="10"
     gridtolerance="10"
     guidetolerance="10"
     inkscape:pageopacity="0"
     inkscape:pageshadow="2"
     inkscape:window-width="640"
     inkscape:window-height="480"
     id="namedview44"
     showgrid="false"
     inkscape:zoom="0.12542268"
     inkscape:cx="-12.718154"
     inkscape:cy="651.46257"
     inkscape:window-x="0"
     inkscape:window-y="0"
     inkscape:window-maximized="0"
     inkscape:current-layer="svg2" />
  <path
     d="m 155.8718,0 c -21.9186,1.6233 -22.4365,1.0961 -32.9289,2.6584 l 4.1294,2.5698 -1.2583,6.5575 1.4001,0.6734 -0.7267,2.9066 2.9066,-0.6913 v -2.2507 l 2.3571,-3.3142 4.6965,-2.2508 c 1.2121,1.3651 1.8198,3.1694 2.7116,4.7497 l -0.6203,5.3878 -2.3394,4.5547 -1.9849,1.1165 1.8431,0.709 4.4662,-1.4711 c 2.458,-0.8015 4.8367,-1.6851 5.2814,-1.9672 l 0.7975,-0.5139 3.7572,2.871 -0.6557,1.0812 -4.1472,-0.3545 -0.3367,2.3925 -2.7647,1.2584 -1.6483,-0.6203 -1.7013,3.2078 -3.4737,2.6761 v 1.471 l 2.2331,-0.5848 0.6557,-2.0913 2.1268,-1.6837 c 5.4163,-3.4875 11.3053,-6.2106 16.7125,-9.6589 z M 77.4486,10.4742 c -2.9695,1.1732 -6.7768,3.3436 -8.9146,3.5268 l -0.6735,2.4635 -1.8786,0.9216 1.595,2.1621 v 2.4989 l -4.3598,0.7267 -0.3367,-1.0279 -4.2003,-0.7267 -6.1321,7.036 -2.2685,6.8764 L 35.0734,45.4412 33.2657,44.9095 19.0874,57.2623 16.748,55.0647 0.3722,69.4024 0,70.9443 c 1.2328,-0.1327 2.3574,0.032 3.7041,-0.9748 l 2.0913,0.9216 0.2304,1.914 1.5773,1.8255 -0.7621,11.0945 1.4001,2.9065 6.5397,1.0634 1.6128,1.4178 c 0.5458,0.2385 1.3149,0.381 1.7014,0.319 0.3864,-0.062 1.2157,0.1604 1.8431,0.4962 l 1.1343,0.6026 v -1.1697 h 1.5242 l 4.7142,4.7852 0.5494,-1.4533 2.6053,2.2331 2.8002,0.3899 0.1949,1.4178 c 0.1079,0.7798 0.4562,1.733 0.7798,2.1267 l 0.5849,0.7266 0.638,-0.5139 c 0.3485,-0.2798 1.471,-0.6879 2.4812,-0.9039 1.0101,-0.216 1.9825,-0.631 2.1621,-0.9216 0.1797,-0.2907 2.2178,-1.4586 4.5371,-2.6052 l 4.218,-2.0913 V 93.3459 L 46.735,91.928 C 45.5727,91.1482 43.9123,89.8722 43.0486,89.0924 42.185,88.3126 41.1102,87.3556 40.6561,86.9657 L 39.8408,86.2568 H 37.59 l -0.7443,-2.3572 0.6203,-0.6203 -2.9243,-3.8281 0.6558,-0.7975 c 0.3623,-0.4366 1.2935,-0.9431 2.0558,-1.1343 l 1.3824,-0.3545 2.3571,2.3572 -1.2761,1.5596 1.1343,0.6026 c 0.6234,0.3336 1.5982,0.6026 2.1799,0.6026 h 1.0634 l 1.4178,3.9167 2.6584,-1.6837 c 1.4677,-0.9166 3.3253,-1.9138 4.1117,-2.233 L 53.7,81.702 l 1.1165,-2.428 5.4055,-1.7014 0.7798,0.7798 -1.9318,3.261 0.6912,1.8254 -1.4001,1.6837 H 59.07 c 0.3857,0 1.6306,-0.4846 2.7648,-1.0811 1.1342,-0.5966 3.2396,-1.6371 4.6965,-2.304 l 2.6584,-1.2051 3.1901,-0.2304 -0.3544,3.7572 3.58,-1.8077 c 1.9748,-0.9924 7.043,-3.9972 11.2539,-6.6638 4.211,-2.6667 8.6215,-5.5892 9.8007,-6.5042 l 2.1445,-1.666 5.0864,-1.9317 8.9678,-8.826 8.9499,-8.8082 4.7852,-3.5446 c 2.6315,-1.9504 5.9974,-4.5734 7.479,-5.813 1.4816,-1.2397 2.6938,-2.5091 2.6938,-2.8179 v -0.5495 l -1.4178,0.4963 -1.9849,-1.0102 v 2.6939 l -2.9597,1.3469 -1.6482,-1.3647 0.071,-7.8512 -2.3216,-0.6025 0.7089,-3.261 h -3.4382 l -2.8357,-2.8357 h -1.7722 l -3.1016,3.3142 -1.9821,-0.064 -2.5017,-3.1973 -0.6912,1.7014 11.0059,6.4511 5.4408,7.9221 -8.5246,5.7598 -10.4742,-16.6416 -1.914,-0.1772 -2.8357,-1.6305 -4.023,-0.035 -1.3647,1.3646 -0.035,2.9243 -3.6508,0.2127 -1.152,1.1343 -3.9344,8.1879 c -2.5236,0.2336 -3.8135,0.2673 -5.2283,-0.7267 l -4.2357,1.2938 -2.4281,2.5343 C 75.3827,41.7971 73.5047,40.6068 71.5475,38.9017 V 36.58 l 1.7014,-0.9393 v -3.6332 l -1.8608,-5.4763 1.8786,-1.3647 -1.152,-0.6025 c -0.4714,-0.3911 -0.5672,-1.1505 -0.5672,-1.5419 0,-0.3915 0.3636,-1.0044 0.7976,-1.3647 l 0.7798,-0.6557 0.7444,-4.9447 c 1.9403,-0.3155 4.1974,-0.7102 7.603,-0.7089 l 1.79,-1.1874 z m -8.4893,74.666 c -0.3302,-0.01 -1.0959,0.3572 -1.7014,0.8152 l -1.0988,0.833 0.6026,0.018 c 0.3302,0.01 1.0959,-0.3572 1.7014,-0.8152 l 1.0988,-0.833 z m -4.1117,2.1799 -2.3216,1.1697 c -1.2779,0.6519 -2.3217,1.3214 -2.3217,1.471 0,0.1496 0.1329,0.2659 0.3013,0.2659 0.1683,0 1.3398,-0.5242 2.6052,-1.1697 1.2655,-0.6457 2.1764,-1.2976 2.0204,-1.4533 z m -9.0031,5.7422 c -0.312,0 -1.0305,0.5104 -1.5951,1.1343 l -1.0279,1.1342 h 0.5671 c 0.3119,0 1.0305,-0.5105 1.5951,-1.1342 l 1.0279,-1.1343 z m -6.4157,6.7878 -1.276,0.8152 c -0.7018,0.4498 -2.3607,1.1041 -3.6863,1.4533 l -2.4103,0.638 v 1.0811 h -2.0559 l -3.6154,3.2256 v 1.3469 l -0.9571,0.3722 c -0.522,0.2003 -1.4152,0.8304 -1.9849,1.4001 l -1.0279,1.0279 h -1.6482 c -0.9103,0 -2.0161,0.1363 -2.4458,0.3013 l -0.7798,0.3013 0.4608,3.9167 -1.8963,0.7444 -0.6558,-0.6558 c -0.3533,-0.3533 -0.8315,-0.638 -1.0811,-0.638 H 23.908 v 2.5698 l -2.2685,1.4178 v 1.4887 l -2.8002,2.623 0.6026,0.9925 -1.1697,1.6305 c -0.6435,0.9037 -1.1697,1.7992 -1.1697,1.9849 0,0.1858 0.085,0.3368 0.195,0.3368 0.1099,0 1.3681,-1.4676 2.7824,-3.261 1.4145,-1.7936 4.7341,-5.3991 7.3904,-8.0107 l 4.8383,-4.7497 10.0843,-7.5145 6.9828,-3.4027 z m -21.6572,3.4205 -17.0316,3.4028 0.514,1.7191 c 1.549,1.1243 3.4908,1.8831 5.5649,2.5698 l -3.6331,3.1723 c -1.7985,1.4491 -4.3226,3.1586 -5.6004,3.8105 -1.278,0.6519 -2.481,1.4564 -2.6762,1.7722 l -0.3544,0.5672 5.4586,7.8157 0.4076,-0.2481 c 1.8555,-2.1796 3.2559,-4.7053 4.9624,-7.0005 0.1695,-0.156 0.2935,-1.5077 0.2658,-2.9952 l -0.053,-2.6938 1.3646,-1.1343 2.6939,0.9925 0.8861,-0.3367 c 0.4917,-0.1921 2.4696,-1.7362 4.3953,-3.4205 l 3.5091,-3.0661 v -2.0204 l -1.2406,-0.7621 z"
     style="fill:#D64541"
     id="TX_14"
     inkscape:connector-curvature="0" />
</svg>
