<?xml version="1.0" encoding="UTF-8" standalone="no"?>
<svg
   xmlns:dc="http://purl.org/dc/elements/1.1/"
   xmlns:cc="http://creativecommons.org/ns#"
   xmlns:rdf="http://www.w3.org/1999/02/22-rdf-syntax-ns#"
   xmlns:svg="http://www.w3.org/2000/svg"
   xmlns="http://www.w3.org/2000/svg"
   xmlns:sodipodi="http://sodipodi.sourceforge.net/DTD/sodipodi-0.dtd"
   xmlns:inkscape="http://www.inkscape.org/namespaces/inkscape"
   version="1.0"
   width="108.5342"
   height="115.6766"
   id="svg2"
   sodipodi:docname="TX_1.svg"
   inkscape:version="0.92.2 5c3e80d, 2017-08-06">
  <metadata
     id="metadata8">
    <rdf:RDF>
      <cc:Work
         rdf:about="">
        <dc:format>image/svg+xml</dc:format>
        <dc:type
           rdf:resource="http://purl.org/dc/dcmitype/StillImage" />
      </cc:Work>
    </rdf:RDF>
  </metadata>
  <defs
     id="defs6" />
  <sodipodi:namedview
     pagecolor="#ffffff"
     bordercolor="#666666"
     borderopacity="1"
     objecttolerance="10"
     gridtolerance="10"
     guidetolerance="10"
     inkscape:pageopacity="0"
     inkscape:pageshadow="2"
     inkscape:window-width="640"
     inkscape:window-height="480"
     id="namedview4"
     showgrid="false"
     inkscape:zoom="0.12542268"
     inkscape:cx="-94.934154"
     inkscape:cy="452.36497"
     inkscape:window-x="0"
     inkscape:window-y="0"
     inkscape:window-maximized="0"
     inkscape:current-layer="svg2" />
  <path
     d="M 78.76,0 44.6968,2.2154 43.4916,0.7444 22.118,1.9318 22.9332,23.6599 20.032,24.2291 c -0.075,-1.2435 -1.1674,-0.963 -2.3447,-1.2426 -1.0917,-0.228 -2.3323,-0.6933 -2.747,-1.028 L 14.1959,21.356 4.6788,21.0015 3.6686,19.9381 C 3.1105,19.3566 2.0991,18.5909 1.4178,18.2368 0.7365,17.8825 0.0985,17.599 0,17.5987 l 0.2126,11.059 7.8335,7.7981 v 4.8028 l -1.276,3.6509 1.2229,1.2051 -0.6204,3.1016 1.1166,0.7089 24.6523,-1.3293 0.9925,17.776 h 2.2685 v 2.6939 l -1.8077,1.5064 2.3749,0.8684 v 0.6026 c 0,0.3317 -0.3543,0.7405 -0.7798,0.9038 l -0.7621,0.3013 1.4178,6.841 1.2583,2.2685 1.4533,1.028 1.4178,3.6863 -6.5397,5.8662 1.0811,1.1875 c 0.5903,0.6523 1.354,1.746 1.7014,2.4457 l 0.638,1.276 2.4635,0.3545 0.7443,4.9978 1.2938,0.3899 1.5064,6.3979 19.7255,5.6891 22.1534,-6.398 v -1.3292 c 7.4508,-2.2058 6.3229,-2.1492 22.7915,-4.3066 l -0.7443,-4.4307 -0.9571,-0.3545 c -0.5286,-0.1895 -1.4317,-0.8123 -2.0026,-1.4001 l -1.0279,-1.0811 0.762,-4.5547 -4.6788,-5.1219 0.319,-3.0306 -2.8356,-0.3899 -0.9393,-0.833 c -0.5174,-0.462 -1.2522,-1.5854 -1.6305,-2.4989 l -0.6912,-1.6659 1.3647,-1.6482 -0.7444,-2.3749 1.1697,-1.4178 -0.8152,-1.5951 c -0.4551,-0.877 -0.833,-2.0849 -0.833,-2.6761 v -1.0811 l -2.3571,-1.9672 -1.6305,-3.9699 -4.3067,-2.0558 -2.0913,-3.899 h -1.4533 z"
     style="fill:#D64541"
     id="TX_1"
     inkscape:connector-curvature="0" />
</svg>
