<?xml version="1.0" encoding="UTF-8" standalone="no"?>
<svg
   xmlns:dc="http://purl.org/dc/elements/1.1/"
   xmlns:cc="http://creativecommons.org/ns#"
   xmlns:rdf="http://www.w3.org/1999/02/22-rdf-syntax-ns#"
   xmlns:svg="http://www.w3.org/2000/svg"
   xmlns="http://www.w3.org/2000/svg"
   xmlns:sodipodi="http://sodipodi.sourceforge.net/DTD/sodipodi-0.dtd"
   xmlns:inkscape="http://www.inkscape.org/namespaces/inkscape"
   version="1.0"
   width="421.9437"
   height="244.6274"
   id="svg2"
   sodipodi:docname="TX_23.svg"
   inkscape:version="0.92.2 5c3e80d, 2017-08-06">
  <metadata
     id="metadata128">
    <rdf:RDF>
      <cc:Work
         rdf:about="">
        <dc:format>image/svg+xml</dc:format>
        <dc:type
           rdf:resource="http://purl.org/dc/dcmitype/StillImage" />
      </cc:Work>
    </rdf:RDF>
  </metadata>
  <defs
     id="defs126" />
  <sodipodi:namedview
     pagecolor="#ffffff"
     bordercolor="#666666"
     borderopacity="1"
     objecttolerance="10"
     gridtolerance="10"
     guidetolerance="10"
     inkscape:pageopacity="0"
     inkscape:pageshadow="2"
     inkscape:window-width="640"
     inkscape:window-height="480"
     id="namedview124"
     showgrid="false"
     inkscape:zoom="0.12542268"
     inkscape:cx="463.61676"
     inkscape:cy="635.68927"
     inkscape:window-x="0"
     inkscape:window-y="0"
     inkscape:window-maximized="0"
     inkscape:current-layer="svg2" />
  <path
     d="M 10.24376,0 9.02092,7.4613 H 4.71425 L 3.26099,22.2598 0,24.2802 1.13425,27.3108 h 3.9699 l 1.84317,3.5445 -2.37485,3.5268 c 0,0.1686 0.2796,0.3014 0.62033,0.3014 0.34067,0 1.26277,0.5104 2.05584,1.1342 l 1.45327,1.1343 2.95967,0.035 3.11921,2.747 v 2.3572 l 0.99247,0.3721 c 0.54586,0.2081 1.51429,0.902 2.16218,1.5419 0.64783,0.6399 2.11528,2.5089 3.26099,4.1472 1.14566,1.6382 2.09129,3.2334 2.09129,3.5445 0,0.3111 0.24137,0.5671 0.53168,0.5671 0.29026,0 1.44442,0.5743 2.56983,1.2761 1.12547,0.7018 3.05337,2.222 4.28891,3.3673 l 2.25077,2.0735 v 2.8711 l 2.97742,3.0661 c 1.63759,1.6848 3.67925,3.5098 4.53703,4.0585 l 1.55961,0.9925 v 1.5419 l 1.152,1.0633 c 0.62906,0.5862 1.84136,1.3864 2.69387,1.79 0.85245,0.4036 2.17987,0.9996 2.95967,1.3115 0.7798,0.3119 1.97956,0.8142 2.67617,1.1343 0.69654,0.32 1.77647,1.0565 2.39254,1.6304 0.61607,0.574 1.30706,1.0457 1.52416,1.0457 0.21704,0 1.2537,1.0209 2.32171,2.2685 l 1.94951,2.2686 h 2.67611 l 1.52416,5.3877 1.11656,0.1949 c 0.61403,0.1139 1.41283,0.453 1.77228,0.7444 l 0.65571,0.5316 0.92158,3.7927 c 0.51229,2.0925 0.97456,4.9231 1.02793,6.2739 l 0.10633,2.4457 2.0204,1.0811 v 1.79 l 1.41782,1.1166 1.41782,1.1165 v 2.4812 l 2.05584,1.276 1.27604,4.3776 -0.28356,3.6863 c -0.15823,2.0275 -0.28124,4.3881 -0.28357,5.2459 -0.002,0.8578 0.0417,2.6465 0.10634,3.9699 l 0.12409,2.4103 1.82542,3.4382 c 1.00761,1.8993 2.22161,4.084 2.69386,4.8383 0.47225,0.7544 1.38804,3.1566 2.03814,5.3523 l 1.1874,4.0054 6.84099,5.4763 v 1.3824 l 1.45327,0.6557 c 0.79443,0.362 1.87907,0.6546 2.4103,0.6558 0.53117,0 1.77709,0.5035 2.7825,1.1165 l 1.82542,1.1166 0.72666,2.871 h 1.04561 l 1.04568,2.7825 1.59504,0.9925 c 0.87168,0.5472 2.64492,1.9452 3.95215,3.1192 l 2.37486,2.1445 1.59505,0.3544 c 0.87621,0.1923 2.339,0.5822 3.24329,0.8684 0.90429,0.2861 2.30799,0.5129 3.11921,0.514 h 1.47096 l 3.68634,2.2507 v 0.6204 c 0,0.3366 0.81632,1.289 1.80772,2.1267 0.99134,0.8376 2.50217,1.8292 3.36733,2.1976 0.86515,0.3686 2.73685,0.8492 4.16484,1.0634 l 2.6053,0.3899 1.8254,1.9849 c 1.0044,1.0949 2.4832,2.7014 3.2965,3.5623 0.8132,0.8609 2.0409,1.8647 2.7293,2.2331 l 1.2583,0.6734 1.595,-1.3291 1.7723,1.7545 c 0.9675,0.9675 2.0444,1.7701 2.4103,1.79 0.3659,0.02 1.4428,0.118 2.3926,0.2127 0.9499,0.095 2.2808,0.3395 2.942,0.5494 l 1.2051,0.3899 0.8862,-1.2938 c 0.4943,-0.7058 0.9038,-1.7125 0.9038,-2.2508 v -0.9925 l 1.3469,-1.4355 c 0.7376,-0.7958 1.567,-1.4494 1.8432,-1.4533 0.2761,0 1.0704,-0.9015 1.7723,-1.9849 0.7018,-1.0835 1.276,-2.187 1.276,-2.4635 v -0.5139 l 4.537,-0.7267 V 179.23 l 2.26849,0.7089 v -1.2052 h -1.70129 v -0.7975 c 0,-0.4441 0.2902,-2.103 0.6557,-3.6863 l 0.67349,-2.8888 h 1.79 l 1.3469,-2.9243 -0.6203,-1.5951 1.028,-2.9951 c 0.5628,-1.6403 1.3194,-3.2281 1.6836,-3.5445 l 0.6735,-0.5849 0.8152,-3.7395 1.7191,0.6557 -0.7266,-1.8963 2.5875,-2.747 1.1875,-4.1649 1.6659,-0.018 c 0.9231,-0.012 2.4151,-0.3408 3.3141,-0.7266 l 1.6305,-0.7089 2.0382,0.6557 1.081,-1.9141 2.1977,0.3013 c 1.2092,0.1716 2.6382,0.4934 3.1724,0.7089 l 0.9747,0.3899 1.3292,-5.2813 2.623,-1.7369 3.385,0.7444 1.3469,1.6305 h 3.1724 l 2.109,2.9065 4.1295,0.9216 0.4784,-0.4253 c 0.2581,-0.2331 1.4059,-0.5684 2.5699,-0.7444 l 2.1267,-0.319 0.6912,1.1165 2.9243,-0.089 c 1.609,-0.049 3.945,0.1045 5.1927,0.3367 1.2477,0.2322 2.5589,0.6498 2.9065,0.9216 l 0.6204,0.4962 7.5853,0.1064 2.304,-2.0736 2.0735,2.747 1.6659,-1.3823 0.9216,0.3544 c 0.5074,0.1948 0.9216,0.5722 0.9216,0.8507 v 0.514 h 2.0558 l 1.2406,2.3216 c 0.6817,1.2772 1.2406,2.6661 1.2406,3.0838 v 0.7621 l 3.1192,0.3545 0.3368,3.5268 2.7648,-0.5317 0.762,2.0027 -1.2051,3.2255 h 4.4484 l 1.276,2.8002 4.5371,0.9039 2.9596,5.5649 7.0892,4.4662 v 1.3646 l 4.0231,1.5773 1.0988,1.7901 c 0.6099,0.9868 1.1165,2.2009 1.1165,2.6938 v 0.9039 l 1.3469,1.4355 c 0.7376,0.7958 1.5981,1.4533 1.9141,1.4533 0.3159,0 0.8896,0.385 1.276,0.8507 l 0.6912,0.8507 0.1241,1.5596 c 0.064,0.86 0.4276,2.6086 0.7975,3.899 0.3699,1.2905 0.6191,2.8218 0.5671,3.4028 -0.052,0.581 -0.049,1.51 0,2.0558 l 0.089,0.9925 h 2.2685 v 0.7443 c 0,0.4058 0.319,1.4113 0.7089,2.2508 l 0.709,1.5419 h 1.4001 l 0.3367,1.5596 c 0.1862,0.8578 0.6347,2.1545 0.9925,2.8888 0.3577,0.7343 0.671,2.0104 0.7089,2.8357 0.038,0.8252 0.1115,1.9304 0.1595,2.4457 l 0.089,0.9393 3.5269,1.2229 -0.6558,1.7191 2.8888,1.8963 -0.6026,2.2508 1.1166,2.0913 h 2.2685 l 0.6912,1.8254 -1.5065,0.9216 1.471,1.7723 -0.6912,2.7825 3.4737,5.1573 -0.3545,2.1622 2.1622,2.3926 h 1.5596 l 0.6912,1.8077 41.365,-1.3647 -1.4002,-48.0818 h 26.7614 l 0.319,-17.5279 30.6073,16.0746 6.5042,-11.1299 -2.233,-0.5849 v -1.2937 l -3.4028,-1.5065 0.035,-2.4634 0.6912,-0.8861 c 0.38,-0.4873 1.2016,-1.113 1.8255,-1.3824 l 1.1342,-0.4786 -2.5521,-0.443 v -2.9243 l -9.2158,0.7089 c -3.3309,1.8169 -4.074,2.4618 -5.9017,4.0054 l -5.8662,-2.3571 1.1874,-2.2154 -1.1165,-4.0408 0.9216,-1.9495 c 0.5078,-1.065 1.1281,-1.9318 1.3823,-1.9318 h 0.4608 v -0.8507 c 0,-0.4678 0.1549,-0.8506 0.3545,-0.8506 0.7849,0.5178 1.3935,1.2082 1.9495,1.9849 l 0.6912,-1.1166 c 1.5985,-2.2106 3.7044,-3.9775 5.6181,-5.9016 l 3.5623,-0.3545 0.9747,-2.8356 -1.2051,-3.1192 h -9.6412 l -2.9951,1.1874 c -1.6491,0.6484 -3.81,1.7969 -4.8029,2.5521 -0.993,0.7551 -2.139,1.3646 -2.5521,1.3646 -0.4132,0 -1.9556,0.6381 -3.4205,1.4179 l -2.6584,1.4178 h -3.4028 l -3.0306,-3.9699 h -41.5422 l -2.6938,-4.7143 -0.5849,-9.393 0.9393,-2.8357 c 0.5106,-1.561 0.9216,-3.3621 0.9216,-4.0053 v -1.1697 h 9.6412 v -15.3125 h -37.8735 l -0.6735,-2.3749 -7.798,-5.5827 -3.0483,-7.1777 c -4.2125,-2.793 -6.7818,-4.6674 -12.4237,-5.3877 V 90.261 h -6.2384 V 67.2036 c -26.2462,-0.3764 -49.9643,-0.6165 -76.2789,-1.9495 l -1.4178,-1.8609 V 58.484 l -4.7142,-4.1294 -3.6332,-0.2304 -4.2003,-4.1294 -1.2406,0.6557 c -0.6829,0.3595 -1.4258,0.9329 -1.6482,1.2761 l -0.4076,0.6203 -1.2938,0.089 c -0.7133,0.049 -1.8364,0.2673 -2.4989,0.4785 l -1.2052,0.3722 -4.6079,-4.5193 -2.1622,-0.7089 c -1.18789,-0.3895 -2.76289,-1.0857 -3.49129,-1.5596 l -1.3115,-0.8685 -0.9393,1.5065 -3.1547,-0.3722 c -1.7346,-0.2039 -3.8625,-0.6963 -4.7319,-1.0811 -0.8696,-0.3848 -1.8683,-1.0589 -2.2154,-1.5064 l -0.6203,-0.8153 -2.6407,-0.1594 c -1.4491,-0.085 -2.9492,-0.3485 -3.3319,-0.5849 l -0.6911,-0.4254 -3.4206,0.2836 -1.4887,-2.4103 -0.3012,-3.2078 c -0.1661,-1.7697 -0.3728,-3.8636 -0.4608,-4.6434 -0.0883,-0.7798 -0.1902,-1.7368 -0.2305,-2.1267 l -0.0708,-0.7089 h -3.2433 l -2.9952,-2.9952 v -2.109 h -1.6305 l -0.7089,-2.2685 -2.48116,0.6203 -3.68633,-3.0483 v -1.1343 c 0,-0.6204 -0.29842,-2.1039 -0.65572,-3.2964 l -0.63802,-2.1622 -1.45326,0.5671 -2.92429,-2.4634 0.19498,-2.1976 -1.34693,-0.1773 0.0886,-1.6128 -5.45861,-1.4709 C 79.96012,4.0862 47.29413,2.3409 10.24418,-7e-4 Z"
     style="fill:#D64541"
     id="TX_23"
     inkscape:connector-curvature="0" />
</svg>
