<?xml version="1.0" encoding="UTF-8" standalone="no"?>
<svg
   xmlns:dc="http://purl.org/dc/elements/1.1/"
   xmlns:cc="http://creativecommons.org/ns#"
   xmlns:rdf="http://www.w3.org/1999/02/22-rdf-syntax-ns#"
   xmlns:svg="http://www.w3.org/2000/svg"
   xmlns="http://www.w3.org/2000/svg"
   xmlns:sodipodi="http://sodipodi.sourceforge.net/DTD/sodipodi-0.dtd"
   xmlns:inkscape="http://www.inkscape.org/namespaces/inkscape"
   version="1.0"
   width="107.8583"
   height="80.332199"
   id="svg2"
   sodipodi:docname="TX_25.svg"
   inkscape:version="0.92.2 5c3e80d, 2017-08-06">
  <metadata
     id="metadata144">
    <rdf:RDF>
      <cc:Work
         rdf:about="">
        <dc:format>image/svg+xml</dc:format>
        <dc:type
           rdf:resource="http://purl.org/dc/dcmitype/StillImage" />
      </cc:Work>
    </rdf:RDF>
  </metadata>
  <defs
     id="defs142" />
  <sodipodi:namedview
     pagecolor="#ffffff"
     bordercolor="#666666"
     borderopacity="1"
     objecttolerance="10"
     gridtolerance="10"
     guidetolerance="10"
     inkscape:pageopacity="0"
     inkscape:pageshadow="2"
     inkscape:window-width="640"
     inkscape:window-height="480"
     id="namedview140"
     showgrid="false"
     inkscape:zoom="0.12542268"
     inkscape:cx="36.533446"
     inkscape:cy="579.92247"
     inkscape:window-x="0"
     inkscape:window-y="0"
     inkscape:window-maximized="0"
     inkscape:current-layer="svg2" />
  <path
     d="M 68.2742,80.3322 54.1271,65.1301 37.7406,79.2604 C 31.8131,73.282 28.4151,68.7154 23.1347,62.2076 l 4.1498,-4.4483 c 1.0359,-3.5045 2.3044,-6.9498 3.1714,-10.5009 -4.4506,-2.2243 -7.3719,-4.272 -10.7049,-7.555 L 18.4425,36.7958 17.0421,34.052 c -2.9768,1.2559 -4.2478,2.2766 -5.5776,3.4149 L 9.5123,31.4654 0,20.9333 V 2.7986 L 4.862,5.516 11.7196,6.2598 10.8123,3.4875 C 10.1682,2.6687 9.6412,1.6776 9.6412,1.2851 V 0.5716 L 11.131,0 14.1783,0.5825 v 4.7961 l 2.1465,1.9427 4.8447,-0.5566 2.9783,-2.2019 3.2054,-0.7099 3.9682,4.5801 4.8643,2.4021 3.5404,-7.0195 1.2465,1.8871 -1.4985,3.2299 2.189,0.9018 2.4831,0.3724 1.3413,3.2382 4.1363,1.3439 0.9333,1.5879 9.3975,-1.659 1.8972,6.8239 c 3.5033,-2.4682 7.5416,-4.1876 10.6911,-7.1377 l 1.3683,-1.4627 1.286,1.0673 c 1.168,-0.069 2.2953,-0.2467 3.3839,-0.6426 l 0.3155,-0.3155 2.0623,0.5393 c 0.8741,1.9288 1.4541,3.2693 1.9164,5.7864 l 4.6534,8.0127 c 4.9882,4.3901 5.9175,3.5449 7.7291,5.935 l 3.5446,-0.4127 4.8759,9.4569 2.5173,0.3118 1.6627,1.3789 -6.7834,7.6489 -1.8196,6.5446 -14.9882,10.2846 -1.5893,-0.6099 z"
     style="fill:#D64541"
     id="TX_25"
     inkscape:connector-curvature="0" />
</svg>
