<?xml version="1.0" encoding="UTF-8" standalone="no"?>
<svg
   xmlns:dc="http://purl.org/dc/elements/1.1/"
   xmlns:cc="http://creativecommons.org/ns#"
   xmlns:rdf="http://www.w3.org/1999/02/22-rdf-syntax-ns#"
   xmlns:svg="http://www.w3.org/2000/svg"
   xmlns="http://www.w3.org/2000/svg"
   xmlns:sodipodi="http://sodipodi.sourceforge.net/DTD/sodipodi-0.dtd"
   xmlns:inkscape="http://www.inkscape.org/namespaces/inkscape"
   version="1.0"
   width="54.763302"
   height="32.273102"
   id="svg2"
   sodipodi:docname="TX_22.svg"
   inkscape:version="0.92.2 5c3e80d, 2017-08-06">
  <metadata
     id="metadata120">
    <rdf:RDF>
      <cc:Work
         rdf:about="">
        <dc:format>image/svg+xml</dc:format>
        <dc:type
           rdf:resource="http://purl.org/dc/dcmitype/StillImage" />
      </cc:Work>
    </rdf:RDF>
  </metadata>
  <defs
     id="defs118" />
  <sodipodi:namedview
     pagecolor="#ffffff"
     bordercolor="#666666"
     borderopacity="1"
     objecttolerance="10"
     gridtolerance="10"
     guidetolerance="10"
     inkscape:pageopacity="0"
     inkscape:pageshadow="2"
     inkscape:window-width="640"
     inkscape:window-height="480"
     id="namedview116"
     showgrid="false"
     inkscape:zoom="0.12542268"
     inkscape:cx="-84.832154"
     inkscape:cy="567.29707"
     inkscape:window-x="0"
     inkscape:window-y="0"
     inkscape:window-maximized="0"
     inkscape:current-layer="svg2" />
  <path
     d="m 50.439,0 -1.666,2.5697 -0.5139,3.8459 c -0.2812,0 -2.0276,-2.4277 -2.6762,-3.5269 L 43.8461,1.5596 35.0202,5.8662 33.372,4.5015 32.4681,5.9725 32.9466,7.8334 31.4756,9.7652 21.5332,10.545 17.067,5.8485 H 10.8641 L 10.4919,3.9167 7.3726,4.0585 C 5.6586,4.1385 3.8064,4.3408 3.261,4.5015 L 2.2685,4.7851 1.5419,9.3221 0.7798,10.1019 C 0.3551,10.5266 0,11.1434 0,11.4666 v 0.5849 l 2.5344,1.3469 -1.2761,0.5671 C 0.5629,14.2758 0,14.7152 0,14.9402 c 0.4159,1.788 1.1077,3.4934 1.7014,5.2283 v 4.2711 L 0,25.0954 v 1.8609 l 5.2282,3.6686 2.6584,-2.4457 4.2003,-1.2938 1.7191,0.9216 h 3.1901 l 3.6864,-8.0639 1.7191,-1.3823 3.1192,-0.035 v -2.4635 l 1.8786,-2.0735 4.0762,0.035 2.8357,1.6305 1.79,0.018 10.6868,16.8012 7.7803,-5.1042 -4.8738,-7.603 -11.502,-6.9473 1.081,-2.4458 2.7942,3.7642 1.7961,-0.1133 2.8533,-3.4382 h 2.5521 L 51.0239,7.9047 50.1732,6.9654 C 49.7115,6.4554 49.3481,5.6896 49.3579,5.2463 L 49.3759,4.4311 52.2116,1.2055 54.4092,1.9144 54.7636,0.9928 53.1863,4e-4 Z"
     style="fill:#D64541;fill-opacity:1"
     id="TX_22"
     inkscape:connector-curvature="0" />
</svg>
