<?xml version="1.0" encoding="UTF-8" standalone="no"?>
<svg
   xmlns:dc="http://purl.org/dc/elements/1.1/"
   xmlns:cc="http://creativecommons.org/ns#"
   xmlns:rdf="http://www.w3.org/1999/02/22-rdf-syntax-ns#"
   xmlns:svg="http://www.w3.org/2000/svg"
   xmlns="http://www.w3.org/2000/svg"
   xmlns:sodipodi="http://sodipodi.sourceforge.net/DTD/sodipodi-0.dtd"
   xmlns:inkscape="http://www.inkscape.org/namespaces/inkscape"
   version="1.0"
   width="19.834299"
   height="18.8006"
   id="svg2"
   sodipodi:docname="TX_30.svg"
   inkscape:version="0.92.2 5c3e80d, 2017-08-06">
  <metadata
     id="metadata192">
    <rdf:RDF>
      <cc:Work
         rdf:about="">
        <dc:format>image/svg+xml</dc:format>
        <dc:type
           rdf:resource="http://purl.org/dc/dcmitype/StillImage" />
      </cc:Work>
    </rdf:RDF>
  </metadata>
  <defs
     id="defs190" />
  <sodipodi:namedview
     pagecolor="#ffffff"
     bordercolor="#666666"
     borderopacity="1"
     objecttolerance="10"
     gridtolerance="10"
     guidetolerance="10"
     inkscape:pageopacity="0"
     inkscape:pageshadow="2"
     inkscape:window-width="640"
     inkscape:window-height="480"
     id="namedview188"
     showgrid="false"
     inkscape:zoom="0.12542268"
     inkscape:cx="-24.114454"
     inkscape:cy="363.92967"
     inkscape:window-x="0"
     inkscape:window-y="0"
     inkscape:window-maximized="0"
     inkscape:current-layer="svg2" />
  <path
     d="M 0.6785,18.8006 0,16.6627 2.3727,10.6431 3.7559,9.3612 C 4.5166,8.6562 5.1391,7.827 5.1391,7.5186 5.1391,7.2102 4.8839,6.8001 4.5719,6.6073 L 4.0048,6.2568 V 4.0552 H 0.602 V 1.9256 L 2.3639,0.4634 H 5.7265 L 7.124,2.2768 11.3215,2.6041 14.0935,0 14.4631,0.5981 c -0.01,1.8951 -0.6442,3.0609 -1.1155,4.5914 h 2.6211 l 1.3907,1.5006 c 0.7649,0.8254 1.3908,1.6913 1.3908,1.9243 0,0.233 -0.3466,0.5566 -0.7701,0.7192 l -0.77,0.2954 -0.7188,3.5936 3.343,4.8588 C 13.3827,18.52 9.1192,18.7266 0.6785,18.8006 Z"
     style="fill:#D64541"
     id="TX_30"
     inkscape:connector-curvature="0" />
</svg>
