<?xml version="1.0" encoding="UTF-8" standalone="no"?>
<svg
   xmlns:dc="http://purl.org/dc/elements/1.1/"
   xmlns:cc="http://creativecommons.org/ns#"
   xmlns:rdf="http://www.w3.org/1999/02/22-rdf-syntax-ns#"
   xmlns:svg="http://www.w3.org/2000/svg"
   xmlns="http://www.w3.org/2000/svg"
   xmlns:sodipodi="http://sodipodi.sourceforge.net/DTD/sodipodi-0.dtd"
   xmlns:inkscape="http://www.inkscape.org/namespaces/inkscape"
   version="1.0"
   width="151.5081"
   height="77.750099"
   id="svg2"
   sodipodi:docname="TX_4.svg"
   inkscape:version="0.92.2 5c3e80d, 2017-08-06">
  <metadata
     id="metadata216">
    <rdf:RDF>
      <cc:Work
         rdf:about="">
        <dc:format>image/svg+xml</dc:format>
        <dc:type
           rdf:resource="http://purl.org/dc/dcmitype/StillImage" />
      </cc:Work>
    </rdf:RDF>
  </metadata>
  <defs
     id="defs214" />
  <sodipodi:namedview
     pagecolor="#ffffff"
     bordercolor="#666666"
     borderopacity="1"
     objecttolerance="10"
     gridtolerance="10"
     guidetolerance="10"
     inkscape:pageopacity="0"
     inkscape:pageshadow="2"
     inkscape:window-width="640"
     inkscape:window-height="480"
     id="namedview212"
     showgrid="false"
     inkscape:zoom="0.12542268"
     inkscape:cx="-21.736754"
     inkscape:cy="351.00407"
     inkscape:window-x="0"
     inkscape:window-y="0"
     inkscape:window-maximized="0"
     inkscape:current-layer="svg2" />
  <path
     d="m 69.1196,77.6317 c -0.4296,0 -1.0853,-0.3664 -1.457,-0.8142 l -0.6757,-0.8142 -3.3244,-0.7302 v -1.1438 l -4.3589,0.7364 -5.3885,-4.1131 -18.609,0.8034 v 1.5387 l -10.7755,0.3618 v -3.121 l -2.3508,-0.7462 0.7458,-4.4148 -2.932,-1.3359 V 58.956 l -3.3884,-3.8592 4.6285,-4.5818 -3.2556,-2.2701 -2.4816,1.5975 H 12.1439 L 11.4174,53.1504 9.6255,53.8381 6.9825,52.1063 6.6661,37.082 1.4121,36.7418 0,3.7624 1.5578,4.2817 2.2687,8.6554 4.9155,10.7986 6.224,9.0092 h 1.781 l 0.3625,2.552 2.6176,0.3711 2.7701,-1.815 V 8.5235 c 0,-0.8766 0.1679,-1.7618 0.3731,-1.967 l 0.3732,-0.3731 1.5222,1.2633 v -0.773 l 1.2081,0.7467 -1.7178,1.8982 0.3966,0.5542 c 0.2182,0.3048 0.9674,0.8732 1.665,1.2631 0.6976,0.3899 1.7877,0.7089 2.4225,0.7089 h 1.1541 l 1.3306,2.9205 3.7236,-0.6985 1.6976,1.8664 c 0.9336,1.0265 1.705,2.1935 1.7142,2.5932 l 0.017,0.7267 1.7436,0.6691 2.2263,-2.0148 v -3.227 h 0.8879 c 0.4884,0 1.3671,0.2564 1.9526,0.5698 l 1.0646,0.5697 2.9276,-1.3339 1.1986,-4.9571 2.177,0.691 V 9.141 l 3.483,0.274 1.9631,-0.6748 C 50.3391,8.369 51.5126,7.7752 51.8673,7.4206 L 52.512,6.7758 56.7648,9.166 57.8036,8.7197 c 0.5713,-0.2455 1.647,-0.3857 2.3905,-0.3115 l 1.3518,0.1348 -0.5724,-2.9946 3.0758,0.6755 1.4539,-1.7518 h 1.7567 l 2.032,-1.8389 1.7437,0.6691 v 2.1623 l 1.5596,0.2877 c 0.8578,0.1582 3.3869,0.3305 5.6202,0.3829 l 4.0606,0.095 0.7056,-1.1417 1.7286,0.6633 2.205,-2.3668 V 1.2079 l 1.4559,-1.2082 0.8316,0.526 c 0.4574,0.2893 1.5486,0.5299 2.4248,0.5347 l 1.593,0.01 -0.5759,0.9319 1.1117,0.9518 c 0.6114,0.5235 1.3513,0.9519 1.6441,0.9519 0.2929,0 0.7366,0.3434 0.986,0.7632 l 0.4535,0.7631 3.5865,0.6939 1.4677,1.4677 c 0.8073,0.8073 1.4819,1.6476 1.4992,1.8674 0.017,0.2198 0.8108,1.0163 1.7634,1.7701 l 1.7321,1.3706 1.7811,-0.058 c 0.9796,-0.032 2.3553,0.058 3.0572,0.1998 l 1.276,0.2583 v 1.6797 h 1.7014 v 1.2666 l 2.8356,-0.5422 v 1.0582 l 1.2761,-0.1033 c 0.7018,-0.057 1.5553,-0.075 1.8967,-0.041 0.3414,0.035 1.3622,0.7125 2.2685,1.5066 l 1.6478,1.4436 3.1192,-0.5905 v 1.5223 l 4.3465,2.8763 5.2888,-0.3132 1.6929,-1.405 1.8596,0.7136 1.4817,-1.2297 2.958,1.9381 2.6101,-1.1892 1.2198,0.7539 2.3027,40.5865 -33.0997,2.0762 -1.1522,-1.4978 -22.0464,1.0771 -0.3157,-3.8151 -27.0557,1.7673 2.2599,15.2101 z"
     style="fill:#D64541"
     id="TX_4"
     inkscape:connector-curvature="0" />
</svg>
