<?xml version="1.0" encoding="UTF-8" standalone="no"?>
<svg
   xmlns:dc="http://purl.org/dc/elements/1.1/"
   xmlns:cc="http://creativecommons.org/ns#"
   xmlns:rdf="http://www.w3.org/1999/02/22-rdf-syntax-ns#"
   xmlns:svg="http://www.w3.org/2000/svg"
   xmlns="http://www.w3.org/2000/svg"
   xmlns:sodipodi="http://sodipodi.sourceforge.net/DTD/sodipodi-0.dtd"
   xmlns:inkscape="http://www.inkscape.org/namespaces/inkscape"
   version="1.0"
   width="97.102097"
   height="94.724197"
   id="svg2"
   sodipodi:docname="TX_5.svg"
   inkscape:version="0.92.2 5c3e80d, 2017-08-06">
  <metadata
     id="metadata224">
    <rdf:RDF>
      <cc:Work
         rdf:about="">
        <dc:format>image/svg+xml</dc:format>
        <dc:type
           rdf:resource="http://purl.org/dc/dcmitype/StillImage" />
      </cc:Work>
    </rdf:RDF>
  </metadata>
  <defs
     id="defs222" />
  <sodipodi:namedview
     pagecolor="#ffffff"
     bordercolor="#666666"
     borderopacity="1"
     objecttolerance="10"
     gridtolerance="10"
     guidetolerance="10"
     inkscape:pageopacity="0"
     inkscape:pageshadow="2"
     inkscape:window-width="640"
     inkscape:window-height="480"
     id="namedview220"
     showgrid="false"
     inkscape:zoom="0.12542268"
     inkscape:cx="-38.203554"
     inkscape:cy="429.37447"
     inkscape:window-x="0"
     inkscape:window-y="0"
     inkscape:window-maximized="0"
     inkscape:current-layer="svg2" />
  <path
     d="M 77.6966,0 51.9454,1.5951 54.1645,16.8012 C 49.7208,16.562 51.562,14.7719 46.683,14.2334 L 46.629,13.3452 42.7123,14.0896 37.3525,9.933 19.4068,10.74 v 1.5242 L 7.5264,12.575 7.5404,9.2879 3.8112,8.2943 0.692,8.95 0.763,10.7577 c 0.035,0.9894 -0.1252,2.3642 -0.3544,3.0661 l -0.4076,1.276 h 2.1444 l 1.5419,1.7545 c 0.8492,0.9679 1.5419,1.9967 1.5419,2.2863 0,0.2896 -0.347,0.6668 -0.7798,0.8329 l -0.7975,0.3014 -0.6912,3.4559 3.2824,4.7007 2.7268,1.635 0.8024,4.3456 1.2345,1.5651 2.0781,1.5277 -0.7436,3.9486 c 1.3801,0.1675 3.2444,0.6652 4.4596,1.3247 1.6993,0.9223 2.1957,0.6452 3.5618,0.88 l 0.9907,2.7475 2.9335,0.8198 1.9243,2.456 1.8804,-0.6958 -0.8039,2.5993 1.3781,0.902 2.3677,-0.2403 -0.319,4.1294 2.7825,0.6912 0.598,7.6758 1.8992,-0.061 0.7443,2.9419 -0.8907,0.9719 -0.3882,0.9542 2.6453,0.5608 0.6483,4.8978 5.5472,1.8432 -0.046,3.5959 2.0153,-0.064 2.3334,1.9012 -0.084,2.3129 1.3852,1.7358 0.9957,-0.5143 -0.036,-3.495 2.0518,1.6871 0.343,5.3821 h -2.0913 v 0.4962 c 0,0.2736 0.3403,0.7842 0.7621,1.1343 l 0.7798,0.638 c 1.9079,-0.5276 3.1832,-1.1079 4.6167,-2.5317 l 17.3772,-3.5827 7.6613,0.3753 1.0765,2.4395 2.3213,1.0488 v 2.8002 l 5.1241,2.5126 6.2175,-5.6823 c -1.0774,-4.5127 -2.7874,-2.6992 -4.1284,-6.7373 l -1.4179,-7.1778 0.7798,-0.3013 c 0.4342,-0.1665 0.903,-0.7657 0.903,-1.0079 l -2.7448,-1.1338 2.0722,-1.8105 v -1.8963 h -2.2685 l -1.1165,-17.705 -24.4752,1.2937 -1.1874,-0.7443 0.6735,-3.5091 -1.2406,-1.6837 1.2937,-3.2256 0.071,-3.899 -7.9044,-8.3651 -0.4607,-12.0692 h 1.8609 l 4.2889,3.4028 9.0032,0.2303 c 3.7586,2.0093 3.5524,1.9277 6.1497,2.1622 v 0.9748 l 1.8609,-0.7089 z"
     style="fill:#D64541"
     id="TX_5"
     inkscape:connector-curvature="0" />
</svg>
