<?xml version="1.0" encoding="UTF-8" standalone="no"?>
<svg
   xmlns:dc="http://purl.org/dc/elements/1.1/"
   xmlns:cc="http://creativecommons.org/ns#"
   xmlns:rdf="http://www.w3.org/1999/02/22-rdf-syntax-ns#"
   xmlns:svg="http://www.w3.org/2000/svg"
   xmlns="http://www.w3.org/2000/svg"
   xmlns:sodipodi="http://sodipodi.sourceforge.net/DTD/sodipodi-0.dtd"
   xmlns:inkscape="http://www.inkscape.org/namespaces/inkscape"
   version="1.0"
   width="140.0276"
   height="114.0283"
   id="svg2"
   sodipodi:docname="TX_6.svg"
   inkscape:version="0.92.2 5c3e80d, 2017-08-06">
  <metadata
     id="metadata232">
    <rdf:RDF>
      <cc:Work
         rdf:about="">
        <dc:format>image/svg+xml</dc:format>
        <dc:type
           rdf:resource="http://purl.org/dc/dcmitype/StillImage" />
      </cc:Work>
    </rdf:RDF>
  </metadata>
  <defs
     id="defs230" />
  <sodipodi:namedview
     pagecolor="#ffffff"
     bordercolor="#666666"
     borderopacity="1"
     objecttolerance="10"
     gridtolerance="10"
     guidetolerance="10"
     inkscape:pageopacity="0"
     inkscape:pageshadow="2"
     inkscape:window-width="640"
     inkscape:window-height="480"
     id="namedview228"
     showgrid="false"
     inkscape:zoom="0.12542268"
     inkscape:cx="1.7790463"
     inkscape:cy="462.04157"
     inkscape:window-x="0"
     inkscape:window-y="0"
     inkscape:window-maximized="0"
     inkscape:current-layer="svg2" />
  <path
     d="M 18.2545,0 16.4822,1.2583 15.153,3.7572 11.892,5.1218 C 11.193,6.2547 11.0388,6.972 10.6159,8.3119 v 2.0027 L 9.4462,12.5123 H 6.3979 L 0,16.5707 l 19.0343,-0.124 0.6202,17.705 7.8867,12.4769 2.2331,-1.2052 13.2389,20.2572 -1.7546,4.2002 1.7014,2.5699 1.4355,0.6557 c 0.7901,0.3599 1.9187,0.6558 2.5167,0.6558 h 1.0988 l 1.3824,2.0558 c 0.768,1.1302 3.1213,3.8099 5.2104,5.9548 2.0891,2.1449 4.0014,3.8991 4.2535,3.8991 1.3944,0.9406 2.1959,2.5548 3.4028,3.7217 l -0.4431,6.5575 2.8357,9.3221 2.4457,2.304 -1.4532,3.0483 1.5241,1.8077 3.2787,-1.3823 3.2079,-2.4812 c 1.7671,-1.3633 3.4965,-2.4812 3.8458,-2.4812 1.1844,-0.62 2.1873,-0.9758 3.1901,-1.666 l 17.1911,0.1595 0.7089,2.818 -1.0811,0.6734 -0.3899,2.9243 2.304,3.0306 c 3.5033,-2.6297 6.5291,-5.846 9.8715,-8.6665 l 6.1144,4.6966 h 2.2508 l 1.6305,-2.4458 2.4635,3.9345 5.6004,-1.9495 1.7368,2.2685 10.9349,-13.168 c -0.32,-1.8303 -1.0659,-3.9145 -1.4001,-5.7422 l -1.4178,-0.5494 -0.7443,-4.9269 -2.7648,-0.6912 -0.9925,-2.3217 -1.2051,-1.7723 c -0.8326,-0.7692 -2.5815,-1.8729 -3.899,-2.4635 l -2.3926,-1.081 -0.036,-3.0483 -2.0026,-0.6204 -1.1166,-2.3925 -7.3727,-0.3368 -17.0138,3.3674 -0.8507,0.7621 c -0.4685,0.4221 -1.5981,1.0576 -2.4989,1.4 l -1.6305,0.6204 -2.109,-1.9141 v -1.5242 h 1.9849 l -0.089,-4.5724 -1.3292,-1.3293 v 2.9952 l -1.3115,0.8153 -1.5241,-2.0913 v -2.2154 l -1.985,-1.5064 -2.5521,-0.035 v -3.704 L 78.2451,61.853 77.5008,57.2096 75.2677,56.6247 v -0.6735 c 0,-0.3691 0.2477,-0.9212 0.5494,-1.2228 l 0.5494,-0.5494 -0.6557,-2.5344 h -2.0204 l -0.7798,-7.3726 -2.8711,-0.7267 0.5671,-4.2357 -1.8431,0.2481 -2.0204,-1.1166 0.7089,-2.2507 -1.3115,0.7975 -2.1976,-2.8002 -2.8889,-0.7266 -0.5316,-1.4002 -0.5317,-1.4 h -0.9216 c -0.5054,0 -1.6001,-0.3679 -2.428,-0.8153 -0.828,-0.4473 -2.2294,-0.9615 -3.1192,-1.152 l -1.6305,-0.3544 0.762,-4.0408 -1.8963,-1.0811 -1.471,-1.9141 -0.7975,-4.218 -1.2938,-1.0279 -27.5766,0.9038 -0.5671,-14.9402 z"
     style="fill:#D64541"
     id="TX_6"
     inkscape:connector-curvature="0" />
</svg>
