<?xml version="1.0" encoding="UTF-8" standalone="no"?>
<svg
   xmlns:dc="http://purl.org/dc/elements/1.1/"
   xmlns:cc="http://creativecommons.org/ns#"
   xmlns:rdf="http://www.w3.org/1999/02/22-rdf-syntax-ns#"
   xmlns:svg="http://www.w3.org/2000/svg"
   xmlns="http://www.w3.org/2000/svg"
   xmlns:sodipodi="http://sodipodi.sourceforge.net/DTD/sodipodi-0.dtd"
   xmlns:inkscape="http://www.inkscape.org/namespaces/inkscape"
   version="1.0"
   width="16.6698"
   height="21.5508"
   id="svg2"
   sodipodi:docname="TX_7.svg"
   inkscape:version="0.92.2 5c3e80d, 2017-08-06">
  <metadata
     id="metadata240">
    <rdf:RDF>
      <cc:Work
         rdf:about="">
        <dc:format>image/svg+xml</dc:format>
        <dc:type
           rdf:resource="http://purl.org/dc/dcmitype/StillImage" />
      </cc:Work>
    </rdf:RDF>
  </metadata>
  <defs
     id="defs238" />
  <sodipodi:namedview
     pagecolor="#ffffff"
     bordercolor="#666666"
     borderopacity="1"
     objecttolerance="10"
     gridtolerance="10"
     guidetolerance="10"
     inkscape:pageopacity="0"
     inkscape:pageshadow="2"
     inkscape:window-width="640"
     inkscape:window-height="480"
     id="namedview236"
     showgrid="false"
     inkscape:zoom="0.12542268"
     inkscape:cx="-95.434354"
     inkscape:cy="540.87377"
     inkscape:window-x="0"
     inkscape:window-y="0"
     inkscape:window-maximized="0"
     inkscape:current-layer="svg2" />
  <path
     d="m 14.6061,21.5508 c -0.4074,0 -1.1418,-0.401 -1.632,-0.8911 l -0.8912,-0.8913 -0.01,-1.9039 -3.4876,-1.9849 H 4.1618 L 1.2647,10.7754 2.6076,8.1106 0.9576,8.1666 -0.0029,5.5194 1.6258,3.7005 5.4813,2.4083 6.3722,2e-4 h 0.5854 c 0.322,0 0.5854,0.2195 0.5854,0.488 l 2.7473,4.5364 -2.2815,1.5149 0.8968,3.9386 4.178,0.977 1.4411,2.1566 1.0711,3.1726 1.0711,3.1727 -0.6615,0.797 c -0.3638,0.4384 -0.9948,0.797 -1.4022,0.797 z"
     style="fill:#D64541"
     id="TX_7"
     inkscape:connector-curvature="0" />
</svg>
