<?xml version="1.0" encoding="UTF-8" standalone="no"?>
<svg
   xmlns:dc="http://purl.org/dc/elements/1.1/"
   xmlns:cc="http://creativecommons.org/ns#"
   xmlns:rdf="http://www.w3.org/1999/02/22-rdf-syntax-ns#"
   xmlns:svg="http://www.w3.org/2000/svg"
   xmlns="http://www.w3.org/2000/svg"
   xmlns:sodipodi="http://sodipodi.sourceforge.net/DTD/sodipodi-0.dtd"
   xmlns:inkscape="http://www.inkscape.org/namespaces/inkscape"
   version="1.0"
   width="199.43436"
   height="161.02911"
   id="svg2"
   sodipodi:docname="UT_1.svg"
   inkscape:version="0.92.2 5c3e80d, 2017-08-06">
  <metadata
     id="metadata8">
    <rdf:RDF>
      <cc:Work
         rdf:about="">
        <dc:format>image/svg+xml</dc:format>
        <dc:type
           rdf:resource="http://purl.org/dc/dcmitype/StillImage" />
      </cc:Work>
    </rdf:RDF>
  </metadata>
  <defs
     id="defs6" />
  <sodipodi:namedview
     pagecolor="#ffffff"
     bordercolor="#666666"
     borderopacity="1"
     objecttolerance="10"
     gridtolerance="10"
     guidetolerance="10"
     inkscape:pageopacity="0"
     inkscape:pageshadow="2"
     inkscape:window-width="640"
     inkscape:window-height="480"
     id="namedview4"
     showgrid="false"
     inkscape:zoom="0.12542268"
     inkscape:cx="799.58735"
     inkscape:cy="-109.14568"
     inkscape:window-x="0"
     inkscape:window-y="0"
     inkscape:window-maximized="0"
     inkscape:current-layer="svg2" />
  <path
     d="M 22.57881,0 C 16.62885,49.67056 6.56674,100.85794 0,150.43089 c 26.87079,3.78814 51.19402,7.02553 78.93725,10.59822 l 2.33941,-4.23572 2.17987,-1.52415 c 1.19341,-0.84134 3.41786,-2.92599 4.94468,-4.62568 l 2.76476,-3.08376 2.05584,1.09881 1.1874,-2.21531 v -3.47367 h 1.13425 v -0.60257 c 0,-0.33421 -0.38281,-0.98545 -0.85069,-1.45327 l -0.85069,-0.85069 v -3.33188 h -1.04562 l -0.90389,-1.79003 c -0.49068,-0.98369 -0.88614,-2.3406 -0.88614,-3.01287 v -1.22285 l 1.6128,-2.19762 -0.62032,-3.11921 1.38238,-1.66594 -1.09882,-9.12725 0.833,-0.51394 -0.3899,-8.54237 h 1.59505 c 0.94915,-5.69505 0.93928,-8.698 0.93928,-14.32 0.50979,-0.93979 0.81672,-1.03932 1.98495,-1.25835 l 2.28627,1.43558 2.37485,-1.27604 8.2765,1.34693 0.76211,-2.42805 c -0.67806,-1.04057 -1.41867,-2.05097 -1.79003,-3.24324 v -0.51399 l 11.62614,-1.32918 1.34347,1.73116 0.0389,4.43637 1.20515,0.40759 0.35445,6.22072 1.29379,3.15466 2.56977,0.95703 0.69122,-1.27604 c 0.38043,-0.70563 1.0822,-1.42968 1.55961,-1.6128 l 0.86838,-0.33671 v -1.54191 l 2.55208,0.19498 0.28357,3.61545 c 4.23185,2.4872 6.34072,4.42825 9.74752,6.18522 0.2129,0.007 0.54637,-0.49273 0.74436,-1.11651 l 0.35445,-1.13426 h 2.53439 l 1.15195,1.15195 3.77498,-0.76205 1.82541,-4.3421 1.98496,-0.0177 0.92158,-3.42052 3.52686,1.24059 4.71426,-1.73683 2.10898,1.31148 2.17993,-1.96719 2.95967,1.13425 8.82594,-1.09881 1.16971,-1.57735 4.3421,-0.58483 6.08461,2.13382 5.63012,-0.078 1.31148,-10.01339 -48.59584,-5.47631 6.80555,-62.34874 C 112.80651,12.16783 67.25239,6.49342 22.5788,-2e-5 Z"
     style="fill:#D64541;fill-opacity:1"
     id="UT_1"
     inkscape:connector-curvature="0" />
</svg>
