<?xml version="1.0" encoding="UTF-8" standalone="no"?>
<svg
   xmlns:dc="http://purl.org/dc/elements/1.1/"
   xmlns:cc="http://creativecommons.org/ns#"
   xmlns:rdf="http://www.w3.org/1999/02/22-rdf-syntax-ns#"
   xmlns:svg="http://www.w3.org/2000/svg"
   xmlns="http://www.w3.org/2000/svg"
   xmlns:sodipodi="http://sodipodi.sourceforge.net/DTD/sodipodi-0.dtd"
   xmlns:inkscape="http://www.inkscape.org/namespaces/inkscape"
   version="1.0"
   width="105.4408"
   height="90.184708"
   id="svg2"
   sodipodi:docname="VA_1.svg"
   inkscape:version="0.92.2 5c3e80d, 2017-08-06">
  <metadata
     id="metadata8">
    <rdf:RDF>
      <cc:Work
         rdf:about="">
        <dc:format>image/svg+xml</dc:format>
        <dc:type
           rdf:resource="http://purl.org/dc/dcmitype/StillImage" />
      </cc:Work>
    </rdf:RDF>
  </metadata>
  <defs
     id="defs6" />
  <sodipodi:namedview
     pagecolor="#ffffff"
     bordercolor="#666666"
     borderopacity="1"
     objecttolerance="10"
     gridtolerance="10"
     guidetolerance="10"
     inkscape:pageopacity="0"
     inkscape:pageshadow="2"
     inkscape:window-width="640"
     inkscape:window-height="480"
     id="namedview4"
     showgrid="false"
     inkscape:zoom="0.12542268"
     inkscape:cx="-911.79445"
     inkscape:cy="-55.735701"
     inkscape:window-x="0"
     inkscape:window-y="0"
     inkscape:window-maximized="0"
     inkscape:current-layer="svg2" />
  <path
     d="M 1.8963,0 0,3.33189 2.8179,6.36245 5.8662,5.75988 c 3.0766,1.75855 4.1409,3.77254 3.7572,6.62831 l 3.9699,2.8534 4.6079,5.67129 2.4281,-1.59505 c 1.5574,0.76778 3.3606,0.90457 4.2889,3.40277 l -0.4431,1.15195 -1.7545,-1.22284 -2.4812,3.33188 c 0.2344,1.3982 0.6826,2.71206 1.4,4.05848 l 2.0027,0.63802 3.9876,-1.66594 1.9495,2.97743 -2.6406,2.0204 0.4785,1.41782 3.1369,-0.67347 3.4914,1.38238 -1.3646,2.58752 3.385,2.64072 0.7443,4.12938 -1.6659,1.41782 3.6154,0.15954 0.6913,-1.13426 h 7.9752 l 2.5875,2.10898 -3.6509,5.93716 1.5773,1.89631 -1.0633,-0.0177 0.9924,1.04562 0.9216,-0.7975 0.6026,2.3571 2.1799,-1.73683 0.7089,0.42535 0.3722,2.35715 1.8609,-0.70891 1.4001,1.89631 1.4001,-1.70139 2.1444,1.15201 v 1.54186 c 2.8513,1.93606 2.0882,-0.0133 6.079,2.58752 l 0.9747,0.0355 -0.5317,-1.64819 h 1.6483 l 0.1417,2.30396 0.6558,0.53168 c 0.1806,-1.13488 0.5248,-2.09401 1.2937,-2.64072 l 1.666,1.38237 -0.3013,-2.71155 h 1.7014 l 0.3722,2.62297 1.4355,-1.20515 c 3.0378,3.76914 2.5702,0.89448 5.2282,4.09393 l -1.7723,2.71161 h -3.704 c -0.941,1.00354 -1.5492,2.45216 -1.985,4.12938 l 0.9925,2.23307 1.8964,-0.21267 1.276,7.37267 3.2787,-0.10634 1.5064,0.12409 1.9672,0.54938 v -1.41782 c 1.4365,-0.76319 2.8706,-1.51055 4.5548,-1.86086 l 2.2153,2.19762 0.6026,-0.99248 -0.6911,-1.52415 2.6584,0.0354 3.704,3.88126 v 2.94198 l -1.3292,1.32924 c 1.7308,0.70539 3.3794,1.87509 5.2637,1.73683 1.0721,-2.05681 1.962,-2.92321 2.7825,-3.38508 0.2516,0.25147 0.2617,0.40357 0.4811,0.69524 l -0.1472,-1.8595 2.0667,-2.95565 c -0.4075,-0.26297 -0.653,-0.38944 -1.1424,-0.62979 l -1.9495,-0.95703 -0.5671,0.58488 c -0.3167,0.31674 -0.7784,0.56713 -1.0279,0.56713 h -0.4608 v -1.27604 c 0,-0.70182 -0.2533,-1.6339 -0.5317,-2.0736 l -0.4962,-0.79749 -3.4914,1.43551 -1.7191,-0.65571 v -1.77228 l 0.9925,-0.31901 c 0.5458,-0.17632 1.8076,-0.72564 2.8002,-1.2229 l 1.8077,-0.90383 -2.3394,-3.27874 -2.6939,-1.22284 v -1.52416 h 1.1343 V 66.9212 h 0.8152 c 0.4495,0 0.977,0.25521 1.1697,0.56713 l 0.3545,0.56713 h 2.0204 l 1.0279,1.13426 c 0.5646,0.62384 1.3224,1.13425 1.6837,1.13425 h 0.6557 l 0.2481,-4.87379 -0.9216,-2.23307 c -0.5115,-1.23418 -1.2034,-2.56591 -1.5241,-2.95967 l -0.5672,-0.72666 -1.4887,1.24059 -2.5343,-0.37215 -0.3899,-1.20515 1.1343,-1.32923 c 0.6311,-0.72769 1.1519,-1.43229 1.1519,-1.55961 0,-0.12732 -1.1864,-0.0409 -2.6407,0.17723 l -2.6407,0.3899 -1.4709,-1.98495 -1.8078,0.62033 c -0.9992,0.34838 -2.2938,0.63802 -2.871,0.63802 H 86.1149 L 84.9806,55.0115 c -0.6238,-0.62384 -1.1342,-1.33497 -1.1342,-1.57736 0,-0.24244 -0.7478,-1.26328 -1.666,-2.26851 L 80.5145,49.34021 H 77.732 l -0.6557,-1.70138 h -2.0736 l -4.2534,-4.35981 1.7899,-1.48871 3.1547,3.01287 h 2.4103 l 0.319,0.53169 c 0.1779,0.28787 1.1204,0.69059 2.0913,0.90383 l 1.7723,0.3899 1.7722,2.0027 c 0.975,1.10284 1.9091,2.52032 2.0736,3.15465 l 0.3013,1.15196 0.6912,0.23042 0.6912,0.23037 v -1.78997 h 0.8152 c 0.4476,0 1.5323,0.29201 2.4103,0.63802 0.8781,0.34589 2.3607,0.7321 3.2964,0.86838 l 1.7014,0.24812 2.2685,-1.71908 -2.4811,-0.0354 -0.7444,-1.18746 1.3647,-1.63049 -1.9673,-7.31948 0.7089,-1.84317 1.0634,0.65572 0.638,-1.02792 -0.6911,-3.45592 -2.2685,-0.90389 c -1.2451,-0.4981 -3.4422,-1.04567 -4.8915,-1.22284 l -2.6408,-0.31901 -3.066,-2.16218 H 81.0462 L 79.841,28.92362 75.4812,26.70824 74.861,25.0955 73.2659,25.37906 c -0.8823,0.15925 -1.9388,0.55131 -2.3394,0.86839 l -0.7267,0.58488 -2.747,-1.47102 -3.5091,1.45327 -2.3926,-0.70891 c -1.3094,-0.38894 -2.949,-0.93242 -3.6509,-1.20515 l -1.276,-0.49624 v -2.32165 l -0.9925,-0.35446 c -0.5458,-0.19356 -1.4391,-0.7363 -1.9849,-1.20515 l -0.9925,-0.85069 v -4.23577 l -1.7014,-0.65571 v 1.64819 l -3.9699,1.66594 v 0.97478 l -2.0026,0.95703 c -1.1024,0.52561 -2.562,0.95703 -3.2433,0.95703 H 40.4965 L 37.8912,17.95319 36.5798,13.5757 37.2532,9.19815 C 37.6195,6.79091 37.911,4.48451 37.9089,4.07629 V 3.33194 L 36.562,4.16488 27.1867,4.48389 24.865,6.8056 22.88,6.841 17.1024,0.38992 9.712,4.12939 c 0,-1.33763 0.049,-2.8133 -0.3544,-3.01287 L 7.2663,3.03058 4.0939,10e-6 Z"
     style="fill:#D64541;fill-opacity:1"
     id="VA_1"
     inkscape:connector-curvature="0" />
</svg>
