<?xml version="1.0" encoding="UTF-8" standalone="no"?>
<svg
   xmlns:dc="http://purl.org/dc/elements/1.1/"
   xmlns:cc="http://creativecommons.org/ns#"
   xmlns:rdf="http://www.w3.org/1999/02/22-rdf-syntax-ns#"
   xmlns:svg="http://www.w3.org/2000/svg"
   xmlns="http://www.w3.org/2000/svg"
   xmlns:sodipodi="http://sodipodi.sourceforge.net/DTD/sodipodi-0.dtd"
   xmlns:inkscape="http://www.inkscape.org/namespaces/inkscape"
   version="1.0"
   width="37.145802"
   height="98.591812"
   id="svg2"
   sodipodi:docname="VA_2.svg"
   inkscape:version="0.92.2 5c3e80d, 2017-08-06">
  <metadata
     id="metadata32">
    <rdf:RDF>
      <cc:Work
         rdf:about="">
        <dc:format>image/svg+xml</dc:format>
        <dc:type
           rdf:resource="http://purl.org/dc/dcmitype/StillImage" />
      </cc:Work>
    </rdf:RDF>
  </metadata>
  <defs
     id="defs30" />
  <sodipodi:namedview
     pagecolor="#ffffff"
     bordercolor="#666666"
     borderopacity="1"
     objecttolerance="10"
     gridtolerance="10"
     guidetolerance="10"
     inkscape:pageopacity="0"
     inkscape:pageshadow="2"
     inkscape:window-width="640"
     inkscape:window-height="480"
     id="namedview28"
     showgrid="false"
     inkscape:zoom="0.12542268"
     inkscape:cx="-1015.3143"
     inkscape:cy="-31.360409"
     inkscape:window-x="0"
     inkscape:window-y="0"
     inkscape:window-maximized="0"
     inkscape:current-layer="svg2" />
  <path
     d="M 37.1458,0 21.4434,6.0435 20.3623,9.55261 19.3344,9.87162 c -0.5595,0.17751 -1.0102,0.54523 -1.0102,0.81524 0,0.2699 -0.5104,0.6526 -1.1343,0.8507 -0.6238,0.19798 -1.1342,0.56741 -1.1342,0.81524 v 0.44305 l 2.6229,-0.49624 1.2938,1.5596 -1.5241,4.48389 -1.3293,0.70891 c -0.7363,0.38497 -1.6021,0.77589 -1.914,0.88614 l -0.5671,0.21267 1.4887,1.80773 -1.1697,2.19762 0.6025,0.60257 -0.5316,1.04562 c -0.2967,0.57626 -0.8914,2.32171 -1.3115,3.88132 l -0.7621,2.83564 0.1595,22.11802 0.7621,1.41782 c 0.4209,0.78377 1.5209,2.47688 2.4457,3.75723 l 1.6837,2.3394 3.261,-0.26587 2.8356,-4.76739 0.3545,-3.04832 -0.4431,-0.56713 C 23.7746,53.19316 23.4603,52.22626 23.3043,51.3606 l -0.2835,-1.5773 0.6911,-0.40765 c 0.3806,-0.22606 0.9927,-0.99305 1.3647,-1.70139 l 0.6735,-1.27604 -0.6381,-1.02792 0.7975,-2.46344 c 0.4389,-1.3488 0.9703,-4.1047 1.1875,-6.13208 0.217,-2.02748 0.3808,-4.32435 0.3544,-5.10415 -0.027,-0.77981 -0.044,-3.20439 -0.035,-5.38773 0.01,-2.18344 0.2827,-5.63193 0.6026,-7.65623 l 0.5848,-3.66865 2.5166,-4.55472 3.6687,0.0177 0.2303,-0.86838 c 0.1359,-0.47106 0.512,-2.25445 0.833,-3.9699 0.3209,-1.71557 0.7453,-3.66575 0.9393,-4.34211 z M 2.1788,66.81485 0.0343,69.68594 0.247,71.91901 0.6995,72.85012 1.2534,72.43113 1.808,73.06722 0.3584,74.13166 0,74.71586 l 0.7255,0.411 1.2052,-1.50646 1.6836,0.0532 v -5.42317 z m 16.0568,8.4006 -2.4812,2.3394 -3.6863,-0.19492 C 10.0464,77.24662 7.6158,76.96929 6.6626,76.75736 l -1.7368,-0.37221 -1.2761,1.54191 0.9216,1.50641 4.0763,-1.47096 2.3926,2.17987 -0.5317,3.42052 1.8254,3.11921 h 2.6762 l 2.4988,1.47096 c 1.3811,0.80935 2.6558,1.71154 2.8357,2.0027 l 0.3367,0.53169 -2.5166,2.03809 1.7014,5.86626 c 3.8265,-0.89152 7.622,-1.95325 11.378,-3.10151 0.086,-0.0774 -1.3404,-2.40156 -3.1724,-5.17505 -1.8319,-2.77354 -4.5103,-7.21053 -5.9371,-9.85386 l -2.5875,-4.80284 z"
     style="fill:#D64541;fill-opacity:1"
     id="VA_2"
     inkscape:connector-curvature="0" />
</svg>
