<?xml version="1.0" encoding="UTF-8" standalone="no"?>
<svg
   xmlns:dc="http://purl.org/dc/elements/1.1/"
   xmlns:cc="http://creativecommons.org/ns#"
   xmlns:rdf="http://www.w3.org/1999/02/22-rdf-syntax-ns#"
   xmlns:svg="http://www.w3.org/2000/svg"
   xmlns="http://www.w3.org/2000/svg"
   xmlns:sodipodi="http://sodipodi.sourceforge.net/DTD/sodipodi-0.dtd"
   xmlns:inkscape="http://www.inkscape.org/namespaces/inkscape"
   version="1.0"
   width="86.256798"
   height="87.780922"
   id="svg2"
   sodipodi:docname="VA_7.svg"
   inkscape:version="0.92.2 5c3e80d, 2017-08-06">
  <metadata
     id="metadata72">
    <rdf:RDF>
      <cc:Work
         rdf:about="">
        <dc:format>image/svg+xml</dc:format>
        <dc:type
           rdf:resource="http://purl.org/dc/dcmitype/StillImage" />
      </cc:Work>
    </rdf:RDF>
  </metadata>
  <defs
     id="defs70" />
  <sodipodi:namedview
     pagecolor="#ffffff"
     bordercolor="#666666"
     borderopacity="1"
     objecttolerance="10"
     gridtolerance="10"
     guidetolerance="10"
     inkscape:pageopacity="0"
     inkscape:pageshadow="2"
     inkscape:window-width="640"
     inkscape:window-height="480"
     id="namedview68"
     showgrid="false"
     inkscape:zoom="0.12542268"
     inkscape:cx="-884.48355"
     inkscape:cy="-59.716839"
     inkscape:window-x="0"
     inkscape:window-y="0"
     inkscape:window-maximized="0"
     inkscape:current-layer="svg2" />
  <path
     d="M 20.4344,0 19.0416,5.56444 16.819,7.81577 H 14.1783 V 6.68151 C 12.3543,6.93281 10.9845,5.43672 9.34,5.10416 L 5.6839,11.92365 3.3601,12.43282 C 1.769,15.44479 1.6534,17.56778 1.6891,19.51513 L 0.3312,21.16575 0,27.0804 c 3.4279,0.65378 3.6327,1.47725 4.1117,2.28626 l 3.2854,0.0301 0.046,1.10414 h 2.623 l 0.9799,-2.67844 1.0388,-0.80385 1.6676,5.39635 c 2.6099,2.72171 5.2235,4.97321 7.8335,5.9371 l -1.8786,4.8029 8.4183,1.77227 -2.9774,8.86139 12.8667,3.5268 -2.3748,10.36785 4.1293,1.9672 -0.6734,2.12674 1.79,0.65577 c 2.0336,0.52862 3.3463,0.45325 5.4409,0.58482 l -0.3013,-3.43822 1.5773,-1.1874 c 2.1113,1.77274 3.7698,2.63437 4.9978,2.64067 l 1.1166,1.5596 2.1976,-1.1697 c 0.5344,0.98488 3.6841,1.40932 6.646,2.0027 l -5.1041,7.26634 -0.9039,3.63314 c -1.0679,-0.0992 -1.9085,0.2906 -2.8179,1.06336 l 1.0102,2.35716 1.5596,0.0355 2.4635,-2.65842 5.6003,-2.05584 4.1826,-3.22554 h 3.6687 l -1.4887,-1.66595 -0.9925,0.0354 c -0.4014,-2.88805 2.2609,-5.41897 2.5521,-8.87914 l 3.1014,-0.79749 5.9903,1.5773 4.1471,-4.96238 0.7267,-3.31413 -1.6659,-0.63802 -1.4888,1.63049 -1.2051,-1.91405 -2.2154,0.49623 -0.7089,-2.55208 -2.4634,1.91406 -0.638,-2.46349 -0.7267,0.69122 -1.5596,-1.84317 h 0.8507 l -1.3292,-1.59505 3.6509,-5.93716 -2.109,-1.54185 h -7.6563 l -0.7089,1.13426 -5.0333,-0.19498 2.3218,-2.25077 -0.709,-3.50911 -3.4559,-2.92428 1.3292,-2.48119 -2.8888,-1.08106 -3.3851,0.67347 -0.7798,-2.0204 2.5167,-2.0204 -1.3824,-2.19762 -3.8636,1.61274 -2.1976,-0.69116 c -0.8883,-1.10335 -1.2608,-3.06572 -1.6837,-4.94468 l 2.9598,-3.5268 1.5773,1.31148 c 0.2585,-1.30337 -0.7715,-2.49973 -3.5623,-3.5623 l -2.5521,1.66594 -4.9269,-5.9371 -4.3244,-3.22555 C 36.7619,11.0684 35.1211,9.40445 33.1766,7.90434 l -3.1015,0.62032 -3.2964,-3.5623 0.5494,-0.86839 z"
     style="fill:#D64541;fill-opacity:1"
     id="VA_7"
     inkscape:connector-curvature="0" />
</svg>
