<?xml version="1.0" encoding="UTF-8" standalone="no"?>
<svg
   xmlns:dc="http://purl.org/dc/elements/1.1/"
   xmlns:cc="http://creativecommons.org/ns#"
   xmlns:rdf="http://www.w3.org/1999/02/22-rdf-syntax-ns#"
   xmlns:svg="http://www.w3.org/2000/svg"
   xmlns="http://www.w3.org/2000/svg"
   xmlns:sodipodi="http://sodipodi.sourceforge.net/DTD/sodipodi-0.dtd"
   xmlns:inkscape="http://www.inkscape.org/namespaces/inkscape"
   version="1.0"
   width="81.901131"
   height="111.06862"
   id="svg2"
   sodipodi:docname="WA_6.svg"
   inkscape:version="0.92.2 5c3e80d, 2017-08-06">
  <metadata
     id="metadata48">
    <rdf:RDF>
      <cc:Work
         rdf:about="">
        <dc:format>image/svg+xml</dc:format>
        <dc:type
           rdf:resource="http://purl.org/dc/dcmitype/StillImage" />
      </cc:Work>
    </rdf:RDF>
  </metadata>
  <defs
     id="defs46" />
  <sodipodi:namedview
     pagecolor="#ffffff"
     bordercolor="#666666"
     borderopacity="1"
     objecttolerance="10"
     gridtolerance="10"
     guidetolerance="10"
     inkscape:pageopacity="0"
     inkscape:pageshadow="2"
     inkscape:window-width="640"
     inkscape:window-height="480"
     id="namedview44"
     showgrid="false"
     inkscape:zoom="0.12542268"
     inkscape:cx="1159.5588"
     inkscape:cy="-642.33527"
     inkscape:window-x="0"
     inkscape:window-y="0"
     inkscape:window-maximized="0"
     inkscape:current-layer="svg2" />
  <path
     d="m 4.5589502,0 -0.58485,0.584851 2.0204,3.420495 c -0.82408,1.543277 -1.35243,3.358038 -2.62297,4.590198 h -0.42535 v 2.268515 l -2.10900997,2.10901 v 2.782475 c 0.004,1.525965 -0.1776,4.295998 -0.40762,6.167525 -0.22997,1.871524 -0.41457,3.530374 -0.42535,3.686336 -0.0108,0.155961 -0.001,1.240593 0.0354,2.410297 l 0.0709,2.126733 1.25830997,1.258317 c 0.69377,0.693797 1.31994,1.612834 1.38238,2.038119 0.0624,0.425284 0.51873,1.211488 1.0102,1.754554 l 0.88614,0.992475 v 2.498911 l 1.70138,2.605247 -0.19495,6.185248 c -0.11093,3.408432 -0.42702,7.861816 -0.69119,9.889307 -0.26416,2.027485 -0.4822,5.119397 -0.47851,6.876435 l 0.0177,3.207822 2.07357,3.154653 -0.67347,13.132572 c -0.65689,2.60726 -1.26458,5.22777 -2.05584,7.79802 l -0.3899,1.0102 1.82544,-0.70891 -0.24811,-0.3899 0.95702,-5.15733 h 2.56981 l 2.4989098,2.0204 0.17723,3.08376 h 1.98495 v 1.13426 h 2.23307 c 0.4771,0.83761 0.92237,1.67032 1.02792,2.60524 -0.13016,0.13015 -1.55156,0.31214 -3.15466,0.40763 -1.6031,0.0955 -3.09859,0.3516 -3.31416,0.56713 -0.2155,0.21553 -0.8261698,0.38989 -1.3646498,0.3899 h -0.97475 l -0.33673,0.85069 c -0.17956,0.46788 -0.58213,0.85069 -0.90387,0.85069 h -0.58485 v -2.76475 l -1.13425,-0.70891 v 6.734655 l 37.7140498,9.60575 c 1.12186,-1.0222 1.67057,-4.70233 3.24327,-11.183075 l -1.32921,-1.59505 0.77981,-4.14713 1.66594,-0.63802 3.79267,1.1697 0.60257,-1.57732 h 2.87109 v -1.11654 l 4.75687,-1.97869 0.28387,2.06158 0.93184,0.48424 2.71158,-1.91406 0.99248,1.24059 c 0.5471,0.67567 1.28278,1.22287 1.63049,1.22288 h 0.63802 l 0.67347,-3.34961 2.62297,-1.71911 1.45326,1.71911 c 0.80158,0.95262 1.45327,1.93 1.45327,2.16218 0,0.23219 1.13594,1.60659 2.53436,3.06604 l 2.55208,2.65842 h 2.07356 l 1.93178,-4.0408 -4.69653,-6.45109 -2.19763,-0.83297 1.02793,-1.41782 c 0.56315,-0.77365 1.21932,-1.40801 1.45326,-1.41782 0.23394,-0.01 0.42535,-0.35279 0.42535,-0.76208 0,-0.40929 0.49363,-1.76027 1.09881,-3.01287 0.60518,-1.2526 1.56222,-2.64556 2.12673,-3.08376 l 0.86842,-0.67347 -2.53436,-2.197621 1.31149,-2.888812 -2.07357,-3.562277 -2.58752,-0.372178 -1.32921,1.79 -4.3598,-1.364654 -0.93931,1.187426 c -0.51569,0.648931 -1.50195,1.461099 -2.1799,1.807723 l -1.22287,0.638019 -7.30178,-1.66594 3.68633,-3.06604 c 1.45021,-1.198416 3.59642,-2.663593 4.76743,-3.26099 l 2.12673,-1.081089 3.63317,0.283564 2.1799,-7.000494 3.29644,-1.364654 v -2.250792 l 2.81792,0.708911 -0.35446,-1.843168 c -0.19288,-1.01794 -0.58525,-2.154505 -0.86841,-2.516634 l -0.51396,-0.655742 1.18742,-0.744357 -1.75455,-1.772277 0.3899,-1.843168 2.21535,0.212673 0.10633,-5.086436 c -0.5952,0.269114 -1.21669,0.452235 -1.84317,0.620297 l 0.44307,1.701387 c -0.67389,0.346005 -1.36282,0.461818 -2.07356,0.496237 L 77.16909,37.058316 79.5085,36.31396 v -1.630495 c -1.98842,-0.145923 -3.54768,0.30896 -5.19278,1.364653 l 0.70891,3.739505 h -1.68366 l -1.68366,-2.392574 0.60257,-1.577327 H 67.61652 L 66.9076,32.982078 h -1.01019 v -0.655742 c 0,-0.363734 -0.44838,-1.096227 -0.99248,-1.612772 l -0.99247,-0.939307 -3.61545,2.144455 -7.05366,-1.382376 -2.09129,-2.091287 H 48.8481 l -0.6203,-1.612772 -3.45594,0.08861 -1.84317,-2.286237 -3.68633,-0.673465 c -2.02749,-0.3653 -4.19675,-0.884134 -4.8206,-1.151981 -0.62384,-0.267847 -2.07087,-0.892897 -3.22554,-1.400099 -1.15473,-0.507202 -2.89426,-1.591856 -3.84584,-2.392574 l -1.71911,-1.453267 0.56713,-0.939307 -4.76743,-4.09396 -1.48871,0.567128 -3.01287,-3.367326 h -0.74436 c -0.41633,0 -0.76208,-0.199089 -0.76208,-0.44307 C 13.55782,6.317552 11.53527,4.080141 8.6351302,1.931779 Z"
     style="fill:#D64541;fill-opacity:1"
     id="WA_6"
     inkscape:connector-curvature="0" />
</svg>
