<?xml version="1.0" encoding="UTF-8" standalone="no"?>
<svg
   xmlns:dc="http://purl.org/dc/elements/1.1/"
   xmlns:cc="http://creativecommons.org/ns#"
   xmlns:rdf="http://www.w3.org/1999/02/22-rdf-syntax-ns#"
   xmlns:svg="http://www.w3.org/2000/svg"
   xmlns="http://www.w3.org/2000/svg"
   xmlns:sodipodi="http://sodipodi.sourceforge.net/DTD/sodipodi-0.dtd"
   xmlns:inkscape="http://www.inkscape.org/namespaces/inkscape"
   version="1.0"
   width="142.6329"
   height="122.22976"
   id="svg2"
   sodipodi:docname="WI_8.svg"
   inkscape:version="0.92.2 5c3e80d, 2017-08-06">
  <metadata
     id="metadata64">
    <rdf:RDF>
      <cc:Work
         rdf:about="">
        <dc:format>image/svg+xml</dc:format>
        <dc:type
           rdf:resource="http://purl.org/dc/dcmitype/StillImage" />
      </cc:Work>
    </rdf:RDF>
  </metadata>
  <defs
     id="defs62" />
  <sodipodi:namedview
     pagecolor="#ffffff"
     bordercolor="#666666"
     borderopacity="1"
     objecttolerance="10"
     gridtolerance="10"
     guidetolerance="10"
     inkscape:pageopacity="0"
     inkscape:pageshadow="2"
     inkscape:window-width="640"
     inkscape:window-height="480"
     id="namedview60"
     showgrid="false"
     inkscape:zoom="0.12542268"
     inkscape:cx="-296.08755"
     inkscape:cy="-391.11918"
     inkscape:window-x="0"
     inkscape:window-y="0"
     inkscape:window-maximized="0"
     inkscape:current-layer="svg2" />
  <path
     d="M 2.8889,0 4.7497,18.6798 0,19.49505 1.7723,33.97455 19.5305,31.67059 c 1.7279,1.83127 4.1195,4.56054 4.4808,5.72805 l 2.9273,-0.039 v -1.9495 l -3.5965,-3.41948 9.4556,-0.89822 1.6554,5.23928 10.9704,-0.86841 2.5343,32.09594 -1.6836,1.27604 -0.3368,5.10415 -4.2889,0.35446 5.7112,47.9359 58.3921,-6.6064 -0.7798,-5.61811 14.6922,-1.82545 0.9393,-0.92158 1.1343,-13.98327 c 0.9852,-2.23883 1.9061,-4.50427 2.7824,-6.78782 0.5738,-1.51772 1.2143,-3.94222 1.4178,-5.38773 l 0.3722,-2.62297 0.7798,-1.25831 c 0.4341,-0.69085 0.7975,-1.58112 0.7975,-1.98495 v -0.74436 l 2.3749,-1.47099 -0.6557,-2.64069 1.4887,-1.2406 -0.4963,-3.42049 1.8255,-2.8002 v -2.30396 h 1.5064 l 1.3292,-2.55208 -0.2836,-7.9398 2.6408,-0.37218 -0.3368,-0.85069 c -0.1798,-0.46858 -0.319,-1.35119 -0.319,-1.94951 v -1.08109 h -0.7089 l -4.3953,3.15466 v 4.09396 l -4.5015,2.07356 -0.7621,5.13961 -3.1015,5.67128 -1.2937,5.42317 0.5671,1.08109 c 0.3184,0.5951 0.5848,1.35122 0.5848,1.68366 v 0.60258 h -1.6482 l -1.0279,-1.84317 -1.5774,2.12673 -5.1041,1.79 -3.8813,7.28406 -0.4608,2.55208 -0.4785,2.55208 -5.6535,4.32436 -1.1875,4.44841 -2.6939,0.69119 -3.7217,-2.28624 1.4532,-1.75455 0.4786,-8.57782 c 0.8499,-1.58837 1.7792,-3.14582 2.2507,-4.89149 0,-0.38067 0.6442,-1.65188 1.4356,-2.81792 l 1.4355,-2.10901 -0.6734,-3.11921 1.1874,-2.23307 2.428,-0.88614 c 1.3292,-0.48113 2.9207,-0.95076 3.5446,-1.04564 l 1.1342,-0.17723 0.5671,-7.07138 h -1.8254 l -5.1396,-4.99782 1.6128,-7.74486 1.0988,-1.09881 v -2.46346 l -1.5596,-1.29377 -1.8609,2.85337 h -3.1546 l -1.0989,1.09881 -2.6229,-0.69119 0.3899,-1.18742 c 0.2179,-0.65887 0.3754,-2.06137 0.3367,-3.10149 l -0.071,-1.87861 2.2508,-2.88881 -0.7443,-2.97743 -1.6837,-1.24059 0.8507,-1.38238 1.595,0.60258 v -2.05584 l -2.3571,-2.12674 0.2658,-1.4001 c 0.147,-0.76874 0.1394,-1.73478 -0.018,-2.14445 L 97.1382,24.88281 H 95.614 l -1.0634,-1.89633 -4.0408,0.1595 -1.7722,-1.75455 -3.1016,1.08108 -3.1192,-1.80772 v -0.74435 c 0,-0.41161 0.4015,-1.35135 0.8862,-2.09129 l 0.8684,-1.34693 -1.1874,-0.74436 v -2.39257 l -3.899,-1.04565 -5.1928,0.51396 -1.4887,-1.01019 -6.6106,-0.47852 -1.0988,-1.09881 -1.3824,0.53168 c -0.7637,0.29036 -1.7842,0.89799 -2.2508,1.36466 -0.4667,0.46667 -1.0619,0.85069 -1.3292,0.85069 -0.2674,0 -0.8773,-0.38101 -1.3469,-0.85069 l -0.8507,-0.8507 -5.6004,0.0177 -12.9022,-5.6004 z m 139.744,37.21782 -2.3571,0.37218 c -1.296,0.20724 -2.5802,0.5223 -2.8534,0.69119 l -0.4962,0.30128 0.7798,4.12941 1.1874,0.99248 c 0.6546,0.54731 1.3443,0.99982 1.5419,1.01019 0.1975,0.0104 0.5546,-0.55649 0.7798,-1.25831 0.2493,-0.719 0.3183,-1.46186 0.319,-2.21535 l -0.089,-0.93931 1.1874,-0.74435 z"
     style="fill:#D64541;fill-opacity:1"
     id="WI_8"
     inkscape:connector-curvature="0" />
</svg>
