<?xml version="1.0" encoding="UTF-8" standalone="no"?>
<svg
   xmlns:dc="http://purl.org/dc/elements/1.1/"
   xmlns:cc="http://creativecommons.org/ns#"
   xmlns:rdf="http://www.w3.org/1999/02/22-rdf-syntax-ns#"
   xmlns:svg="http://www.w3.org/2000/svg"
   xmlns="http://www.w3.org/2000/svg"
   xmlns:sodipodi="http://sodipodi.sourceforge.net/DTD/sodipodi-0.dtd"
   xmlns:inkscape="http://www.inkscape.org/namespaces/inkscape"
   version="1.0"
   width="137.3692"
   height="111.93249"
   id="svg2"
   sodipodi:docname="WV_3.svg"
   inkscape:version="0.92.2 5c3e80d, 2017-08-06">
  <metadata
     id="metadata24">
    <rdf:RDF>
      <cc:Work
         rdf:about="">
        <dc:format>image/svg+xml</dc:format>
        <dc:type
           rdf:resource="http://purl.org/dc/dcmitype/StillImage" />
      </cc:Work>
    </rdf:RDF>
  </metadata>
  <defs
     id="defs22" />
  <sodipodi:namedview
     pagecolor="#ffffff"
     bordercolor="#666666"
     borderopacity="1"
     objecttolerance="10"
     gridtolerance="10"
     guidetolerance="10"
     inkscape:pageopacity="0"
     inkscape:pageshadow="2"
     inkscape:window-width="640"
     inkscape:window-height="480"
     id="namedview20"
     showgrid="false"
     inkscape:zoom="0.12542268"
     inkscape:cx="-701.28335"
     inkscape:cy="-10.908329"
     inkscape:window-x="0"
     inkscape:window-y="0"
     inkscape:window-maximized="0"
     inkscape:current-layer="svg2" />
  <path
     d="m 127.0191,12.93309 -6.7347,7.08911 h -4.3775 l -4.4759,6.01286 0.6734,-8.99517 L 105.3973,8.0593 103.9972,9.229 101.516,6.37566 C 99.9988,7.31012 98.4051,7.54327 96.7663,7.2618 l -1.2938,6.23842 -5.2991,8.50693 -4.8029,0.70891 -1.7722,-1.54191 -3.7395,3.86356 2.6584,0.37221 0.4076,2.10898 -17.2797,16.78349 c -1.7308,3.86572 -2.5896,4.88026 -3.5977,5.49406 l 0.7621,12.81354 c -1.2737,0.74061 -2.2354,1.18189 -3.5091,1.08112 L 56.766,58.58695 h -2.1622 l -1.2937,-1.55961 0.638,-1.66594 -1.7014,-1.40012 -1.0634,0.63802 -1.4001,-1.68364 h -2.1444 l -1.1697,-2.55208 -2.7825,-0.15953 c 0.085,1.00529 -0.302,1.80279 -1.3115,2.32171 l -1.5419,-2.10904 -3.0483,3.43822 0.8507,-3.72178 -1.2229,-4.59017 c -0.6679,0.12312 -1.342,0.25061 -1.7723,1.20515 L 32.982,46.39368 29.2248,50.57625 26.9031,49.63692 24.227,38.2589 l -8.2765,-5.40542 -2.2863,-0.23042 -1.1343,1.36468 0.2482,8.24106 -1.0988,0.81525 c -0.6056,0.44276 -1.5585,0.79755 -2.109,0.79755 H 8.5778 L 2.8002,47.24437 H 0 l 0.3721,1.55961 c 0.2038,0.85778 0.6891,1.94241 1.0811,2.41029 l 0.709,0.8507 0.7798,4.71425 -1.9319,1.08107 1.2761,0.79755 v 3.26099 l -0.5671,0.35445 c -0.312,0.19271 -0.5672,0.60054 -0.5672,0.90384 v 0.54943 l 0.9925,0.35446 c 0.5459,0.19832 2.0771,1.53697 3.4028,2.95967 1.3256,1.42264 2.4103,2.73906 2.4103,2.94198 0,0.20286 0.755,0.69649 1.6837,1.08112 l 1.7014,0.69116 -0.1596,0.93933 c -0.08,0.51093 -0.3321,1.23612 -0.5671,1.61275 l -0.4254,0.67346 1.5774,0.81525 c 0.8687,0.44922 2.065,1.36463 2.6584,2.0204 l 1.0811,1.18745 h -1.0102 l 1.4533,1.36463 c 0.8043,0.74577 2.2849,1.78095 3.2964,2.30396 l 1.8432,0.93933 -0.6558,1.71908 2.9774,3.88132 h 2.6408 l 1.0101,1.82541 0.3545,-0.90383 c 0.1926,-0.50202 0.5519,-0.92158 0.7975,-0.92158 0.2456,0 0.791,0.76562 1.2052,1.70138 l 0.7443,1.70139 h 0.6026 c 0.3293,0 0.8765,0.3772 1.2229,0.83294 l 0.638,0.833 h 2.8356 c 1.5596,0.005 3.4036,-0.009 4.094,-0.0354 l 1.2583,-0.0532 1.8077,1.80772 -2.9242,3.13696 3.4028,1.41782 0.319,1.55961 c 0.1809,0.85948 0.5356,1.94241 0.7798,2.41029 0.2441,0.46788 1.1358,1.19625 1.9849,1.61275 l 1.5419,0.7621 0.6203,1.59505 4.6965,0.0354 3.9699,3.40277 4.537,-0.65577 2.6939,-1.75453 0.5494,-2.16217 h 0.6557 c 0.3568,0 1.343,-0.64313 2.1977,-1.43558 l 1.5596,-1.45326 v -1.71908 l 1.8254,-1.82548 0.9216,0.63802 c 0.5127,0.35338 2.3135,1.43716 3.9876,2.4103 l 3.0483,1.77228 2.9775,-2.85334 7.7625,-3.47367 0.9394,0.58483 4.3243,-4.09393 -2.0381,-1.48872 0.7621,-4.07624 h 0.7798 c 0.4256,0 1.6016,0.5115 2.623,1.13426 1.0213,0.62265 2.0477,1.13301 2.2685,1.13426 0.2207,0.001 2.4431,-1.91406 4.9446,-4.25347 l 4.5548,-4.25346 h 2.3925 l 0.3013,1.13426 c 0.1631,0.62384 0.4819,1.13425 0.709,1.13425 0.2269,0 1.8354,-1.37642 3.58,-3.06606 l 3.1723,-3.08377 -1.6305,-0.62026 v -2.53439 l 4.0586,-4.16482 -3.456,-1.20515 -0.6912,-2.8002 1.1874,-2.23307 -0.638,-0.62032 0.6912,-2.17988 c 0.3838,-1.19312 0.9029,-2.67259 1.152,-3.29643 0.2491,-0.62384 0.6313,-1.77228 0.8507,-2.55208 0.2193,-0.7798 0.8952,-2.05584 1.4887,-2.83564 0.5935,-0.77981 1.9847,-2.79782 3.1015,-4.48389 l 2.0381,-3.06602 0.5317,-1.91405 c 0.2908,-1.05328 0.6213,-3.24625 0.7443,-4.8738 0.1229,-1.62748 0.3174,-3.75093 0.4254,-4.71425 l 0.1949,-1.75453 4.3244,-5.86626 -1.3469,-1.6305 0.3367,-1.06337 c 0.1853,-0.58385 0.7854,-1.54361 1.3292,-2.14442 l 0.9747,-1.09881 1.4533,-5.51182 -1.2937,-1.5596 0.4076,-1.5773 c 0.2225,-0.86192 0.4775,-2.63992 0.5671,-3.9699 l 0.1595,-2.42805 1.3647,-1.63049 c -0.4253,-0.59379 -0.8199,-1.29487 -1.0051,-2.72902 l -1.6534,-1.24088 -0.8152,2.21537 h -0.5848 l -0.5849,-1.09881 -1.9145,0.62027 -0.095,-2.0234 L 128.9961,-9.9999993e-6 128.3098,0.95815 c -0.6883,4.0949 -1.7435,8.33657 -1.2903,11.97493 z"
     style="fill:#D64541;fill-opacity:1"
     id="WV_3"
     inkscape:connector-curvature="0" />
</svg>
